<?xml version="1.0" standalone="no"?>
<!DOCTYPE svg PUBLIC "-//W3C//DTD SVG 20010904//EN"
 "http://www.w3.org/TR/2001/REC-SVG-20010904/DTD/svg10.dtd">
<svg version="1.0" xmlns="http://www.w3.org/2000/svg"
 width="450.000000pt" height="300.000000pt" viewBox="0 0 450.000000 300.000000"
 preserveAspectRatio="xMidYMid meet">
<metadata>
Created by potrace 1.11, written by Peter Selinger 2001-2013
</metadata>
<g transform="translate(0.000000,300.000000) scale(0.100000,-0.100000)"
fill="#000000" stroke="none">
<path d="M2348 2574 c-4 -3 5 -27 19 -54 29 -56 33 -108 11 -141 -10 -15 -41
-33 -82 -47 -109 -39 -147 -109 -110 -200 28 -66 73 -95 141 -90 88 7 167 89
193 199 27 112 -40 278 -131 324 -32 17 -33 17 -41 9z"/>
<path d="M1996 2518 c-75 -56 -101 -215 -50 -316 46 -93 168 -182 249 -182 39
0 35 12 -26 69 -50 48 -59 62 -59 92 0 27 8 42 31 65 87 81 107 142 71 214
-38 76 -151 107 -216 58z"/>
<path d="M2683 2370 c-54 -28 -108 -81 -135 -133 -26 -50 -36 -172 -19 -233
13 -50 51 -108 73 -112 15 -3 16 6 11 72 -6 73 -5 75 25 105 28 28 36 31 97
31 106 0 152 29 175 111 13 44 -3 101 -39 141 -24 27 -36 32 -87 35 -46 3 -68
-1 -101 -17z"/>
<path d="M1580 2361 c-33 -9 -40 -41 -8 -41 35 -1 103 -35 122 -61 23 -33 20
-72 -9 -129 -60 -118 -8 -220 115 -228 101 -6 150 50 150 171 0 92 -44 177
-120 229 -82 58 -175 80 -250 59z"/>
<path d="M3078 2184 c-3 -5 -13 -32 -22 -61 -19 -58 -63 -103 -102 -103 -13 0
-48 12 -77 27 -88 47 -155 34 -210 -39 -11 -14 -21 -45 -24 -69 -18 -185 269
-217 399 -44 48 64 68 122 68 200 0 57 -20 111 -32 89z"/>
<path d="M1420 2152 c-53 -26 -83 -77 -78 -132 9 -91 68 -174 156 -217 48 -23
70 -28 137 -28 66 0 90 5 137 27 53 25 88 61 70 72 -5 3 -26 1 -46 -5 -21 -6
-54 -8 -74 -4 -71 12 -92 45 -92 142 0 81 -20 121 -73 146 -45 22 -93 21 -137
-1z"/>
<path d="M2965 1797 c-95 -46 -185 -164 -185 -244 0 -47 16 -49 46 -3 31 47
80 80 118 80 18 0 43 -15 74 -43 68 -63 92 -77 132 -77 80 0 150 68 150 147 0
60 -22 97 -77 129 -38 23 -61 28 -127 31 -70 4 -88 1 -131 -20z"/>
<path d="M1339 1777 c-96 -27 -189 -104 -189 -155 0 -27 5 -27 38 -3 39 26 98
44 124 36 35 -11 66 -44 74 -79 10 -48 42 -104 65 -117 72 -38 144 -28 195 26
59 63 52 144 -17 213 -77 77 -188 108 -290 79z"/>
<path d="M2880 1548 c-63 -32 -96 -98 -80 -157 20 -76 104 -147 202 -171 102
-26 251 31 312 118 41 57 26 72 -38 36 -56 -31 -117 -35 -145 -10 -10 9 -28
43 -40 75 -28 77 -54 108 -99 121 -52 14 -62 13 -112 -12z"/>
<path d="M1249 1467 c-78 -52 -91 -158 -28 -223 68 -70 220 -84 313 -30 91 53
166 158 166 233 0 47 -16 49 -46 3 -15 -22 -41 -49 -59 -60 -52 -32 -80 -26
-138 29 -29 26 -62 53 -74 60 -36 18 -97 13 -134 -12z"/>
<path d="M1582 1206 c-119 -39 -201 -147 -209 -276 -5 -64 7 -120 26 -120 5 0
13 19 19 43 15 58 51 108 85 120 23 7 41 3 98 -22 79 -35 107 -38 155 -15 102
49 110 209 12 260 -43 22 -133 27 -186 10z"/>
<path d="M2759 1211 c-52 -17 -119 -63 -119 -81 0 -4 36 -7 79 -6 70 1 82 -2
104 -22 21 -20 25 -34 30 -108 6 -99 21 -128 80 -155 54 -24 81 -24 133 2 55
26 90 91 79 146 -16 86 -83 170 -164 206 -50 22 -177 33 -222 18z"/>
<path d="M1867 1043 c4 -53 2 -76 -11 -101 -18 -35 -30 -39 -131 -45 -80 -5
-107 -18 -136 -65 -40 -64 -20 -158 43 -205 65 -49 196 -7 268 84 48 61 64
119 58 219 -4 66 -10 87 -34 127 -16 26 -37 49 -46 51 -15 3 -16 -5 -11 -65z"/>
<path d="M2634 1089 c-46 -13 -91 -69 -99 -122 -23 -152 82 -292 247 -333 58
-14 72 -15 109 -3 23 8 44 19 46 25 2 5 -19 16 -47 23 -59 15 -105 50 -114 86
-4 17 3 48 25 97 24 55 30 80 26 111 -7 49 -56 103 -107 117 -40 11 -44 11
-86 -1z"/>
<path d="M2268 973 c-25 -6 -22 -16 11 -36 16 -9 43 -33 60 -52 44 -51 42 -93
-5 -139 -20 -19 -47 -50 -60 -68 -65 -88 9 -221 125 -222 63 -1 97 23 134 94
32 63 36 149 11 223 -37 108 -192 220 -276 200z"/>
<path d="M2088 940 c-84 -45 -146 -173 -133 -275 13 -105 107 -245 165 -245
25 0 25 5 -1 47 -32 51 -40 101 -24 139 11 26 25 36 84 59 106 40 144 98 122
183 -26 96 -125 138 -213 92z"/>
</g>
</svg>
