<?xml version="1.0" standalone="no"?>
<!DOCTYPE svg PUBLIC "-//W3C//DTD SVG 20010904//EN"
 "http://www.w3.org/TR/2001/REC-SVG-20010904/DTD/svg10.dtd">
<svg version="1.0" xmlns="http://www.w3.org/2000/svg"
 width="2560.000000pt" height="1600.000000pt" viewBox="0 0 2560.000000 1600.000000"
 preserveAspectRatio="xMidYMid meet">
<metadata>
Created by potrace 1.11, written by Peter Selinger 2001-2013
</metadata>
<g transform="translate(0.000000,1600.000000) scale(0.100000,-0.100000)"
fill="#000000" stroke="none">
<path d="M0 8000 l0 -8000 12800 0 12800 0 0 8000 0 8000 -4761 0 c-3152 0
-4758 -3 -4754 -10 3 -5 0 -19 -8 -31 -16 -22 -31 -12 -16 11 5 8 9 18 9 22 0
5 -1475 8 -3279 8 l-3279 0 -6 -22 c-3 -13 6 -55 20 -97 14 -40 23 -75 20 -78
-3 -3 -26 40 -52 96 l-48 101 -3874 0 c-3095 0 -3873 -3 -3869 -12 2 -7 11
-12 20 -10 20 3 32 -17 18 -31 -8 -8 -11 -6 -11 7 0 9 -4 15 -9 12 -4 -3 -19
3 -31 14 -23 20 -40 20 -857 20 l-833 0 0 -8000z m1780 7942 c0 -5 -7 -9 -15
-9 -8 0 -12 4 -9 9 3 4 9 8 15 8 5 0 9 -4 9 -8z m7785 -172 c3 -5 1 -10 -4
-10 -6 0 -11 5 -11 10 0 6 2 10 4 10 3 0 8 -4 11 -10z m-897 -7220 c23 -21 29
-40 13 -40 -5 0 -11 9 -14 20 -3 13 -14 20 -30 20 -48 0 -58 -48 -15 -71 15
-8 24 -7 39 7 20 18 27 6 7 -14 -17 -17 -63 -15 -77 2 -20 24 -9 69 19 83 32
16 33 16 58 -7z m8347 -24 c12 -35 -3 -60 -39 -64 -28 -4 -56 12 -56 31 0 5 8
3 18 -6 25 -23 39 -21 58 8 13 20 14 28 4 40 -18 22 -55 18 -73 -7 -9 -13 -16
-18 -16 -12 -1 5 8 20 19 31 26 29 71 18 85 -21z m-7981 -87 c37 -13 67 -34
90 -60 31 -36 33 -45 31 -97 -1 -31 2 -73 8 -92 7 -25 6 -35 -3 -38 -10 -4
-10 -6 0 -12 9 -6 8 -14 -6 -36 -10 -15 -17 -38 -15 -52 8 -68 -148 -144 -256
-124 -40 7 -50 6 -46 -4 6 -16 -11 -26 -32 -18 -10 4 -15 14 -12 26 4 13 -10
33 -48 69 -137 129 -105 338 64 427 76 39 143 42 225 11z m7758 -10 c25 -13
64 -46 86 -73 91 -110 81 -257 -23 -355 -30 -29 -50 -56 -49 -66 1 -10 -3 -24
-11 -31 -11 -11 -15 -11 -25 1 -6 8 -9 18 -6 23 3 6 -13 6 -42 0 -64 -12 -140
6 -199 45 -43 29 -48 37 -55 80 -4 27 -14 57 -24 68 -13 15 -14 19 -3 19 11 0
12 2 1 9 -15 9 -15 20 0 39 7 8 7 12 -2 12 -8 0 -9 4 -3 13 15 18 10 66 -7 78
-12 9 -12 10 4 5 15 -5 17 -2 12 19 -5 21 2 33 37 69 24 24 64 51 88 59 62 23
161 17 221 -14z m-388 -117 c-16 -23 -19 -24 -22 -9 -2 10 4 27 14 39 25 27
31 5 8 -30z m-7196 26 c7 -7 12 -21 12 -32 -1 -20 -1 -20 -20 3 -29 34 -22 59
8 29z m303 -131 c83 -44 121 -132 95 -220 -35 -122 -159 -179 -272 -128 -52
24 -90 73 -107 140 -12 45 -15 50 -26 37 -21 -25 -32 -19 -19 9 8 17 17 24 28
20 13 -4 19 2 23 25 4 17 24 48 44 71 65 69 156 87 234 46z m6724 12 c49 -14
123 -85 131 -126 4 -23 11 -29 23 -26 11 3 21 -5 29 -21 13 -29 2 -35 -19 -10
-11 13 -14 8 -26 -37 -25 -98 -97 -158 -190 -159 -57 0 -91 14 -136 58 -95 93
-73 253 45 311 48 24 84 26 143 10z m-3455 -19 c0 -5 -9 -10 -21 -10 -11 0
-17 5 -14 10 3 6 13 10 21 10 8 0 14 -4 14 -10z m42 -2 c-9 -9 -15 -9 -24 0
-9 9 -7 12 12 12 19 0 21 -3 12 -12z m-90 -88 c22 -17 47 -30 54 -30 7 0 16
-5 19 -11 4 -5 -10 -3 -32 6 -48 19 -103 77 -102 107 1 18 3 16 10 -10 6 -20
25 -44 51 -62z m203 41 c-22 -44 -26 -38 -7 10 9 23 18 37 20 31 2 -6 -4 -24
-13 -41z m-74 7 c5 -10 7 -19 4 -19 -3 -1 -8 -2 -12 -3 -5 -1 -14 -5 -20 -9
-7 -5 -21 -4 -30 2 -13 7 -23 5 -37 -7 -18 -17 -18 -16 -3 15 23 43 80 56 98
21z m3575 -96 c-9 -8 -26 10 -26 26 1 15 2 15 15 -2 8 -11 13 -21 11 -24z
m-7246 19 c0 -5 -7 -14 -15 -21 -16 -14 -18 -10 -9 14 6 17 24 22 24 7z m3660
-1 c-8 -5 -19 -10 -25 -10 -5 0 -3 5 5 10 8 5 20 10 25 10 6 0 3 -5 -5 -10z
m4130 -32 c0 -5 -7 -11 -16 -15 -8 -3 -13 -12 -10 -19 8 -20 -5 -49 -14 -34
-11 17 10 77 26 77 8 0 14 -4 14 -9z m-8330 -8 c0 -5 -5 -10 -11 -10 -5 0 -7
5 -4 10 3 6 8 10 11 10 2 0 4 -4 4 -10z m13 -33 c3 -8 2 -19 -3 -26 -5 -10 -9
-8 -14 4 -3 9 -6 21 -6 26 0 14 17 11 23 -4z m7807 -27 c0 -5 -2 -10 -4 -10
-3 0 -8 5 -11 10 -3 6 -1 10 4 10 6 0 11 -4 11 -10z m-7363 -85 c3 -11 -93
-36 -102 -27 -7 7 67 41 84 39 8 -1 16 -7 18 -12z m7453 -6 c19 -11 27 -18 17
-15 -10 3 -30 6 -43 6 -15 0 -24 6 -24 15 0 19 8 18 50 -6z m-2303 -1092 c7
-7 -857 -17 -1476 -17 -696 0 -1431 10 -1431 19 0 6 2901 4 2907 -2z m-824
-984 c-347 -2 -919 -2 -1270 0 -351 1 -66 2 632 2 699 0 986 -1 638 -2z
m-1934 -17 c-9 -9 -495 -293 -554 -324 -6 -3 -6 -1 -2 4 12 13 540 323 551
323 5 1 7 -1 5 -3z m2876 -151 c110 -65 219 -129 243 -143 24 -13 41 -26 39
-28 -4 -5 -516 292 -532 308 -17 17 40 -15 250 -137z m3738 -522 c-7 -2 -21
-2 -30 0 -10 3 -4 5 12 5 17 0 24 -2 18 -5z m-513 -23 c0 -5 -2 -10 -4 -10 -3
0 -8 5 -11 10 -3 6 -1 10 4 10 6 0 11 -4 11 -10z m-53 -17 c-20 -11 -19 -12
15 -9 20 1 35 -1 32 -5 -2 -4 3 -10 12 -13 8 -3 13 -9 11 -13 -3 -5 6 -9 19
-9 13 -1 21 2 18 8 -4 6 22 8 70 6 42 -2 76 -7 76 -12 0 -4 11 -6 25 -4 13 3
22 1 19 -3 -8 -13 9 -10 29 5 13 10 28 11 60 4 28 -6 48 -6 62 2 18 9 29 8 59
-9 42 -24 96 -28 96 -7 0 17 55 27 70 12 5 -5 10 -6 10 -1 0 4 8 1 18 -7 23
-21 102 -29 102 -10 0 12 12 13 58 8 31 -4 67 -8 78 -9 13 -1 19 -7 17 -14 -3
-9 5 -13 23 -13 16 0 47 -3 69 -6 30 -4 36 -3 25 5 -8 6 -12 11 -8 11 3 0 14
3 23 6 10 4 15 2 13 -6 -2 -8 26 -13 97 -16 114 -5 122 -6 151 -22 12 -6 24
-8 28 -5 4 4 -4 13 -16 20 -21 11 -18 12 30 13 28 0 52 -4 52 -10 0 -5 -7 -10
-16 -10 -8 0 -22 -6 -30 -14 -21 -22 -1 -30 73 -28 42 1 62 -2 61 -9 -2 -6 3
-14 10 -16 7 -3 10 1 6 11 -4 10 0 15 13 15 101 2 128 0 137 -9 16 -16 51 -12
69 8 14 16 13 17 -31 19 -26 1 -48 6 -50 12 -2 6 -16 12 -30 12 -19 1 -16 4
13 8 22 4 53 3 69 -1 17 -4 35 -3 42 3 8 6 14 6 18 0 4 -6 19 -6 42 0 44 13
68 5 32 -10 -16 -6 -28 -13 -28 -15 0 -3 7 -3 15 0 8 4 15 2 15 -4 0 -10 -33
-22 -60 -22 -13 0 -13 1 0 10 8 5 10 10 4 10 -6 0 -17 -6 -23 -14 -10 -11 -4
-15 29 -18 23 -2 44 0 46 4 3 4 18 8 35 8 16 0 29 4 29 9 0 4 -11 6 -25 3 -18
-3 -25 0 -25 11 0 20 24 28 40 14 10 -9 11 -9 6 0 -4 8 2 15 19 19 30 7 59 -2
50 -16 -3 -5 -1 -10 4 -10 6 0 11 5 11 11 0 6 9 8 23 4 34 -11 44 -25 14 -19
-15 2 -27 0 -27 -5 0 -5 -8 -12 -17 -14 -10 -3 0 -3 22 -2 22 2 57 -2 78 -10
20 -7 37 -9 37 -6 0 4 15 6 33 4 l32 -4 -25 15 -25 15 28 1 c15 0 30 -6 33
-14 4 -10 23 -14 67 -14 90 0 97 -1 97 -13 0 -5 -4 -8 -8 -5 -4 2 -14 0 -22
-6 -13 -8 -12 -9 2 -5 9 3 24 0 34 -7 15 -12 14 -14 -17 -21 l-34 -8 30 -7
c29 -7 28 -8 -11 -9 -42 -1 -108 24 -99 38 5 10 -68 21 -131 21 -66 0 -53 -17
14 -18 67 -2 88 -5 99 -16 4 -4 -22 -6 -59 -4 -48 2 -69 -1 -73 -9 -3 -9 7
-13 33 -13 21 0 42 -4 48 -10 6 -6 23 -5 47 2 31 9 40 9 52 -3 13 -13 9 -14
-28 -11 -23 3 -39 1 -35 -3 10 -10 98 -24 98 -15 0 3 39 2 87 -2 47 -5 91 -7
97 -4 6 2 -2 5 -17 5 -15 1 -30 7 -33 15 -4 11 -12 13 -31 5 -16 -6 -31 -6
-41 1 -14 8 -12 9 10 10 14 0 28 5 30 11 2 7 12 7 31 0 16 -6 25 -16 22 -22
-5 -6 0 -10 11 -8 11 2 29 -2 42 -9 18 -10 22 -10 22 0 0 8 4 7 10 -4 7 -12
23 -17 52 -16 28 0 46 -5 54 -16 7 -10 15 -13 18 -7 3 5 0 12 -6 14 -8 3 -6 6
5 6 9 1 16 7 15 14 -2 7 5 11 17 10 19 -3 75 -11 85 -13 3 0 -4 -6 -14 -12
-15 -8 -21 -8 -24 0 -5 17 -49 15 -56 -3 -5 -15 7 -19 51 -16 11 1 24 -3 28
-8 9 -16 35 -13 35 4 0 8 6 14 13 13 6 -2 11 3 9 10 -1 8 2 11 8 7 6 -3 8 -11
5 -16 -6 -8 18 -14 40 -9 6 1 61 -4 123 -10 103 -11 132 -21 100 -33 -29 -10
2 -17 38 -8 21 5 32 10 24 11 -8 2 5 6 30 9 30 4 44 10 42 19 -1 8 2 11 8 7 6
-3 8 -11 5 -16 -4 -5 6 -9 22 -9 22 0 25 2 13 10 -13 8 -12 10 3 10 10 0 16 4
13 9 -3 5 1 14 9 21 12 10 15 9 15 -7 0 -10 -6 -25 -12 -32 -11 -11 -10 -12 1
-6 10 6 13 4 9 -7 -5 -12 0 -14 20 -11 63 11 105 8 109 -7 4 -12 2 -12 -5 -2
-6 9 -18 11 -36 6 -21 -5 -25 -9 -14 -16 9 -6 -1 -8 -29 -5 -24 3 -46 1 -49
-4 -3 -5 13 -9 35 -9 23 0 41 -5 41 -11 0 -5 5 -7 12 -3 6 4 37 6 70 5 35 -1
58 2 58 8 0 6 -13 11 -29 11 -17 0 -31 6 -35 16 -5 13 0 14 27 9 56 -11 67
-16 62 -26 -4 -5 -1 -9 4 -9 6 0 11 6 12 13 0 10 2 10 6 0 2 -7 12 -13 21 -13
15 0 15 2 2 10 -13 8 -13 10 1 10 9 0 19 -7 23 -15 3 -8 1 -15 -4 -15 -5 0
-16 -7 -24 -16 -15 -14 -16 -14 -16 1 0 13 -4 14 -20 5 -13 -7 -112 -10 -282
-8 -145 1 -268 -1 -275 -5 -6 -4 -14 -3 -18 3 -4 6 -22 7 -44 4 -24 -4 -41 -2
-45 5 -10 15 -45 14 -41 -1 10 -43 19 -58 34 -58 14 0 14 2 1 10 -13 9 -13 10
0 10 8 -1 24 -8 35 -17 16 -13 17 -15 3 -10 -23 8 -22 5 1 -22 20 -23 20 -23
-6 -47 -30 -28 -37 -30 -30 -10 4 10 1 13 -9 9 -7 -3 -14 0 -14 5 0 6 10 12
22 14 36 5 33 26 -4 23 -24 -2 -32 -7 -30 -19 2 -9 -2 -16 -8 -16 -5 0 -10 5
-10 11 0 6 -7 3 -16 -6 -12 -11 -25 -14 -43 -10 -48 13 -126 13 -161 0 -19 -8
-28 -14 -19 -14 9 -1 32 -4 50 -7 27 -5 31 -3 19 6 -13 10 -12 11 3 6 10 -3
24 -6 30 -6 7 0 6 -4 -3 -10 -8 -5 -13 -10 -10 -10 20 -2 111 -39 97 -39 -20
-1 -49 -25 -41 -34 3 -3 -4 -3 -15 0 -29 7 -37 23 -12 23 11 0 22 4 25 9 6 9
-71 20 -80 12 -3 -3 -20 -4 -39 -3 -18 2 -35 -1 -38 -6 -3 -4 8 -6 25 -4 19 3
33 -1 39 -9 6 -10 9 -11 9 -1 0 6 5 12 10 12 6 0 10 -6 10 -14 0 -8 5 -16 12
-18 7 -3 5 -7 -6 -11 -10 -4 -15 -3 -11 3 8 13 -8 13 -22 -1 -6 -6 -22 -12
-37 -13 -20 -3 -24 0 -16 9 14 17 -26 24 -77 15 -21 -4 -30 -8 -20 -9 9 0 17
-8 17 -16 0 -8 9 -15 20 -15 11 0 20 -4 20 -9 0 -6 -18 -9 -40 -9 -41 0 -54
13 -22 21 9 3 -4 5 -30 6 -26 0 -49 5 -52 10 -7 11 -46 2 -46 -11 0 -5 -9 -7
-19 -3 -13 4 -24 -1 -35 -17 -11 -15 -16 -17 -16 -8 0 12 -10 14 -44 12 -24
-2 -54 2 -66 8 -16 9 -20 9 -15 1 5 -8 -5 -12 -32 -11 -53 0 -73 -2 -68 -10 2
-3 20 -5 39 -5 39 2 51 -14 14 -16 -42 -3 -66 -6 -82 -12 -8 -3 -18 -2 -21 3
-4 6 -22 10 -41 10 -21 0 -33 -4 -29 -10 9 -15 -11 -12 -24 4 -8 10 -27 13
-57 11 -43 -3 -76 -15 -40 -15 9 0 14 -5 11 -10 -4 -6 -10 -8 -15 -5 -5 3 -29
8 -53 10 -33 4 -46 2 -50 -9 -5 -11 -19 -13 -64 -10 -32 3 -63 10 -69 15 -6 5
-38 13 -72 17 -51 7 -60 6 -51 -5 6 -7 24 -13 40 -13 33 0 37 -11 12 -31 -16
-13 -17 -12 -4 4 12 16 9 17 -47 17 -55 0 -61 2 -57 20 4 20 2 21 -66 23 -18
1 -25 6 -22 14 3 7 -2 13 -10 13 -29 0 -24 -25 6 -36 50 -17 41 -30 -24 -32
-39 -2 -58 1 -54 8 4 6 -7 10 -29 10 -19 0 -37 4 -41 10 -6 10 -35 2 -35 -10
0 -5 8 -11 18 -13 9 -3 3 -5 -15 -6 -17 0 -34 3 -37 7 -5 8 -49 7 -186 -2 -41
-3 -79 -6 -85 -6 -5 0 1 -9 15 -20 l25 -20 -35 0 c-26 0 -31 3 -20 10 11 7 8
10 -16 10 -20 0 -40 9 -56 24 -17 18 -28 22 -38 15 -8 -5 -30 -9 -47 -9 -18 0
-33 -4 -33 -8 0 -10 -91 -9 -106 1 -6 3 -11 1 -11 -6 0 -7 7 -13 16 -14 62 -3
133 -23 83 -23 -11 0 -24 -4 -27 -10 -9 -14 -98 -13 -113 2 -9 9 -16 8 -30 -5
-20 -18 -52 -23 -52 -8 0 5 -10 9 -22 10 -49 2 -66 6 -61 14 3 5 12 6 22 2 11
-4 13 -3 6 4 -7 7 -33 3 -84 -15 -57 -20 -76 -23 -87 -13 -12 10 -12 13 2 23
13 10 11 11 -13 10 -15 -1 -34 4 -42 10 -8 6 -47 11 -87 11 -41 0 -70 4 -66 9
3 5 -1 7 -9 4 -8 -3 -23 0 -34 8 -10 8 -43 14 -73 14 l-53 0 30 -37 31 -37
-22 -12 c-13 -7 -27 -10 -32 -6 -5 3 -7 -2 -3 -11 5 -13 0 -17 -21 -18 -15 -1
-30 -1 -34 0 -4 0 -42 2 -85 5 -43 2 -93 9 -111 14 -18 6 -30 7 -27 2 3 -5 -7
-11 -22 -13 -46 -9 -123 -8 -123 1 0 5 -29 10 -65 10 -36 1 -65 -2 -65 -7 0
-5 12 -6 26 -3 19 3 25 1 20 -7 -12 -18 -38 -13 -67 15 -26 25 -57 26 -43 2 5
-7 1 -9 -9 -5 -10 3 -17 2 -17 -3 0 -6 6 -10 14 -10 8 0 17 -7 20 -16 5 -13 3
-14 -6 -7 -14 11 -163 11 -175 0 -3 -4 1 -7 10 -7 10 0 17 -4 17 -10 0 -13
-56 -13 -81 0 -10 6 -19 7 -19 2 0 -5 -22 -10 -50 -11 -55 -1 -69 15 -17 22
l32 4 -33 1 c-21 1 -35 -3 -38 -13 -5 -11 -21 -15 -68 -13 l-61 1 55 7 c30 4
45 7 33 8 -12 1 -25 7 -28 12 -3 6 -17 10 -30 10 -13 0 -27 -4 -30 -10 -3 -5
-26 -10 -51 -10 -24 0 -44 -4 -44 -9 0 -5 -11 -8 -25 -7 -29 1 -33 12 -7 19
11 3 9 5 -8 6 -14 0 -32 -4 -40 -9 -8 -5 -11 -10 -6 -10 13 0 -24 -34 -46 -43
-19 -7 -25 8 -7 18 6 4 8 13 5 21 -4 9 2 14 17 15 20 0 20 1 3 8 -13 5 -27 0
-44 -16 -16 -15 -37 -23 -59 -23 -25 0 -32 -3 -27 -12 6 -10 5 -10 -8 0 -16
13 -74 7 -84 -9 -3 -5 3 -6 13 -3 15 5 16 4 3 -5 -22 -16 -43 -14 -36 4 5 13
-9 18 -40 14 -4 0 -11 5 -16 13 -8 10 -9 10 -6 -2 3 -8 15 -17 29 -21 23 -7
23 -7 -4 -8 -21 -1 -30 5 -34 19 -3 11 -10 17 -15 14 -5 -3 -7 -12 -4 -20 4
-10 -2 -14 -22 -13 -24 0 -25 1 -7 9 17 6 15 9 -16 15 -21 4 -45 2 -56 -4 -11
-5 -28 -10 -39 -10 -87 -1 -139 -10 -142 -25 -4 -20 -16 -20 -32 -1 -9 10 -26
14 -59 11 -25 -2 -46 -5 -46 -6 0 -1 -35 -2 -77 -3 -43 -1 -78 -5 -78 -9 0 -5
-5 -8 -11 -8 -5 0 -8 4 -5 8 2 4 -15 9 -40 10 -29 1 -44 -3 -44 -11 0 -9 -2
-9 -9 1 -6 10 -53 12 -215 9 -188 -4 -208 -6 -221 -23 -10 -13 -14 -15 -15 -5
0 10 -9 12 -32 7 -24 -4 -29 -3 -18 4 13 8 13 10 -1 10 -9 0 -19 -6 -22 -13
-7 -19 -54 -19 -83 0 -14 9 -24 12 -22 7 2 -5 -1 -9 -7 -9 -5 0 -9 4 -7 8 1 5
-2 6 -8 2 -6 -3 -8 -11 -5 -16 4 -5 -20 -9 -55 -9 -46 0 -59 3 -54 13 5 9 4 9
-6 0 -10 -9 -18 -8 -36 4 -19 12 -54 14 -191 12 -92 -1 -190 -3 -218 -3 -27
-1 -53 -6 -57 -12 -4 -6 -20 -9 -35 -7 -16 2 -41 4 -57 4 -15 0 -25 3 -22 6 3
4 24 6 46 5 22 -1 40 2 40 7 0 4 -40 8 -90 7 -85 -1 -111 -8 -72 -20 9 -3 5
-4 -10 -2 -16 2 -29 -3 -32 -10 -3 -8 -11 -14 -18 -14 -9 0 -9 3 2 10 23 14 4
23 -27 13 -15 -6 -42 -8 -59 -6 -18 3 -35 0 -38 -6 -9 -14 -53 -14 -61 0 -4 6
-27 9 -54 6 -25 -2 -76 0 -111 5 -36 5 -78 11 -95 13 -16 2 -82 6 -145 9 -63
2 -140 7 -170 10 -41 4 -46 3 -20 -3 30 -7 32 -9 10 -11 -24 -2 -23 -3 5 -10
l30 -7 -35 -7 c-46 -9 -95 -3 -116 15 -10 8 -15 9 -11 3 11 -18 -13 -23 -92
-18 -47 3 -78 1 -87 -7 -11 -9 -17 -9 -29 1 -8 7 -22 9 -32 6 -54 -21 -144
-26 -150 -8 -4 9 6 11 39 7 36 -4 40 -3 23 7 -11 6 -22 15 -25 19 -4 5 -22 11
-40 15 -32 5 -34 4 -16 -10 19 -16 13 -43 -7 -28 -11 8 -25 9 -85 4 -14 -1
-20 -6 -17 -13 5 -7 -4 -9 -26 -6 -46 7 -47 7 -24 18 15 7 9 8 -20 3 -22 -3
-51 -5 -64 -5 -15 1 -21 -4 -18 -12 3 -9 -9 -11 -49 -9 -42 3 -54 7 -54 20 0
11 -3 13 -8 6 -9 -14 -52 -25 -52 -13 0 5 -9 9 -20 9 -11 0 -20 6 -20 14 0 10
14 16 43 19 30 2 23 4 -23 5 -44 0 -59 -2 -45 -8 l20 -9 -20 0 c-17 -1 -17 -3
-5 -11 11 -7 0 -10 -37 -10 -42 0 -55 4 -67 21 -12 18 -18 20 -43 10 l-28 -10
30 2 c21 1 31 -3 33 -15 2 -10 -2 -18 -8 -18 -6 0 -9 4 -5 10 3 5 -9 8 -29 6
-23 -1 -33 1 -29 8 4 7 1 7 -8 0 -22 -18 -76 -27 -84 -14 -5 8 -25 9 -59 5
-48 -5 -50 -5 -26 9 l25 15 -25 -2 c-14 -1 -31 -7 -38 -14 -15 -15 -36 -18
-27 -4 6 10 -68 8 -102 -3 -12 -4 -24 -2 -27 3 -7 10 -78 7 -96 -4 -5 -3 -10
-1 -10 4 0 6 -12 11 -27 10 l-28 -1 25 -9 c18 -6 10 -7 -29 -4 -58 5 -91 22
-69 36 15 10 12 10 -94 13 l-67 1 40 -18 c21 -9 39 -19 39 -20 0 -1 -57 -2
-127 -1 -71 0 -138 -3 -151 -8 -13 -4 -21 -4 -18 0 3 5 -9 9 -27 10 -60 2 -77
6 -77 18 0 9 -9 10 -32 3 -46 -13 -61 -11 -55 5 7 19 -22 18 -86 -1 -55 -17
-80 -12 -70 13 4 11 3 15 -5 10 -6 -3 -55 -9 -109 -12 -54 -3 -109 -7 -123 -8
-14 -2 -36 1 -50 6 -16 6 -26 6 -28 -1 -2 -6 -8 -11 -13 -11 -6 0 -8 4 -5 9 3
5 -10 9 -29 9 -19 0 -35 -4 -35 -9 0 -5 -43 -8 -95 -6 -52 1 -95 5 -95 10 0 4
5 7 12 7 6 0 9 3 5 6 -3 3 -20 3 -38 -1 -24 -5 -28 -9 -18 -17 9 -6 -5 -7 -41
-2 -30 4 -84 8 -120 8 -36 1 -71 5 -77 9 -7 4 -21 3 -32 -3 -11 -5 -32 -10
-48 -9 -15 0 -22 3 -15 6 10 4 10 8 1 19 -13 16 -43 19 -33 3 4 -7 -1 -7 -16
1 -14 7 -39 9 -66 5 -55 -8 -369 -17 -363 -10 3 2 64 8 135 11 120 6 178 17
117 22 -14 1 -32 7 -39 13 -8 6 -26 8 -46 3 -29 -6 -31 -8 -13 -16 15 -6 12
-7 -10 -2 -66 13 -125 16 -125 5 0 -6 8 -8 18 -4 9 3 14 3 11 -1 -4 -4 -16 -8
-27 -11 -15 -2 -19 0 -15 11 3 8 -1 14 -11 14 -9 0 -16 -6 -17 -12 0 -7 -2 -8
-5 -3 -2 6 -51 9 -125 7 -87 -2 -119 0 -114 8 5 7 -2 8 -22 3 -30 -9 -44 -8
-228 2 -134 8 -162 15 -64 16 58 1 61 2 31 10 -43 13 -108 8 -105 -8 2 -11
-40 -25 -85 -27 -36 -2 -36 11 0 18 17 3 28 9 25 13 -10 9 -58 10 -63 1 -3 -4
-15 -8 -27 -7 -15 0 -9 6 23 20 43 19 44 19 10 14 -131 -21 -164 -24 -175 -15
-7 5 -15 7 -18 4 -3 -3 -11 -3 -17 1 -9 6 -9 10 1 17 14 9 6 8 -53 -8 -16 -4
-20 -3 -13 4 6 5 19 12 30 14 14 3 8 7 -19 13 -24 5 -46 4 -56 -3 -11 -7 -21
-7 -31 0 -11 8 -10 9 4 4 11 -3 16 -2 12 4 -3 6 -18 10 -33 10 -22 0 -24 -2
-12 -11 12 -8 11 -9 -5 -5 -35 9 -167 16 -178 9 -6 -4 5 -12 24 -19 l34 -13
-48 1 c-37 1 -47 4 -42 16 3 10 0 12 -10 9 -8 -4 -17 -2 -20 3 -4 6 -18 10
-33 9 -23 0 -24 -1 -7 -8 28 -11 -95 -21 -139 -11 -48 11 -143 3 -189 -15 -10
-4 -17 -3 -17 4 0 6 9 11 20 11 11 0 20 5 20 11 0 6 -7 8 -16 5 -9 -3 -25 -6
-36 -6 -17 0 -18 -3 -8 -15 11 -13 7 -15 -24 -15 -23 0 -39 5 -42 15 -4 8 -9
13 -13 10 -4 -2 -8 2 -8 9 0 8 14 12 44 10 31 -2 43 1 43 11 0 10 -12 14 -38
13 -20 -1 -41 0 -47 2 -25 6 -44 -1 -39 -15 5 -11 2 -13 -10 -9 -9 3 -16 2
-16 -3 0 -6 -17 -9 -38 -7 -20 1 -68 3 -107 4 -38 2 -60 5 -48 7 12 2 29 15
37 29 9 13 25 24 36 24 11 0 20 4 20 9 0 5 28 7 64 4 41 -3 66 -1 70 6 5 8
-18 11 -78 11 -97 0 -116 -5 -116 -30 0 -16 -6 -18 -37 -13 -25 4 -34 3 -29
-5 5 -8 -16 -11 -74 -10 -69 0 -80 3 -80 18 0 15 11 18 72 19 40 1 85 2 100 1
15 0 29 4 33 10 4 6 -31 10 -101 10 -59 0 -105 2 -103 4 4 4 375 18 407 16 70
-6 626 3 587 9 -22 4 -74 5 -117 3 -42 -2 -79 1 -82 6 -3 6 -20 7 -40 2 -19
-4 -56 -4 -81 1 -29 5 -54 5 -65 -1 -9 -5 -20 -7 -23 -4 -3 3 -27 8 -54 10
-45 5 -87 24 -51 24 9 0 19 7 22 16 5 14 4 15 -9 4 -12 -10 -21 -10 -44 0 -17
7 -36 10 -43 7 -7 -3 -3 -6 10 -6 12 -1 22 -6 22 -12 0 -9 -22 -10 -76 -6 -49
5 -73 3 -69 -3 3 -6 14 -10 23 -11 13 0 11 -3 -5 -9 -12 -5 -35 -5 -52 0 -16
4 -50 6 -75 3 -29 -3 -46 0 -46 6 0 6 15 11 33 12 17 0 26 3 20 6 -19 7 -16
23 5 25 9 1 -10 4 -43 7 -39 4 -59 10 -58 18 2 7 -4 10 -12 7 -8 -4 -12 -11
-8 -17 4 -6 1 -7 -6 -3 -9 6 -8 12 4 26 9 10 14 23 11 28 -3 4 -58 7 -123 5
-152 -4 -153 -4 -153 -25 0 -9 -5 -20 -12 -24 -6 -4 -8 -3 -5 3 8 12 -16 24
-35 19 -44 -14 -66 -15 -71 -3 -3 8 9 13 40 15 48 3 89 32 71 50 -6 6 -18 8
-27 5 -13 -5 -14 -3 -4 7 10 11 16 11 30 -2 10 -9 32 -15 48 -14 17 1 41 -2
54 -6 18 -7 22 -5 18 6 -4 10 4 14 31 15 109 4 129 6 126 16 -4 9 -42 10 -229
5 -16 0 -46 4 -65 9 -35 10 -35 10 -5 9 48 0 57 1 50 12 -3 6 -18 10 -33 11
-26 0 -26 1 -5 9 13 5 23 14 23 20 0 5 9 10 20 10 11 0 20 5 20 11 0 5 -4 8
-9 5 -4 -3 -14 0 -22 7 -8 7 -12 11 -10 9 2 -1 15 5 28 14 19 12 27 13 39 4 7
-7 21 -10 29 -6 15 5 22 -9 8 -17 -5 -2 -2 -2 5 0 8 1 20 3 28 3 8 0 14 5 14
11 0 5 -4 8 -8 5 -4 -2 -9 5 -9 17 -1 12 1 17 5 11 9 -13 43 -28 60 -25 6 1
12 -3 12 -9 0 -5 -12 -10 -27 -10 -16 0 -35 -5 -43 -10 -17 -11 55 -12 105 -1
27 6 28 7 10 15 -19 8 -19 8 3 17 13 5 31 5 40 1 9 -5 48 -8 87 -6 38 2 75 -2
81 -7 8 -7 14 -6 19 1 3 5 -1 10 -9 10 -9 0 -16 4 -16 10 0 6 9 6 23 1 13 -5
36 -6 53 -3 27 5 28 4 14 -13 -14 -17 -12 -18 35 -11 80 12 75 28 -12 36 -32
3 -58 10 -61 18 -5 16 25 16 31 0 4 -10 8 -10 16 2 5 8 7 18 5 22 -3 4 2 8 10
8 9 0 16 -4 16 -10 0 -5 -4 -10 -10 -10 -5 0 -10 -4 -10 -8 0 -5 51 -9 114 -9
94 0 112 3 101 14 -8 7 -26 13 -42 13 -15 1 -41 7 -58 16 -22 11 -24 13 -8 10
16 -3 23 1 24 12 0 14 2 14 6 2 8 -20 24 -30 50 -30 16 0 21 4 17 15 -4 10 0
13 17 10 12 -3 29 1 38 8 12 10 13 9 7 -1 -5 -9 -3 -13 5 -11 8 1 23 0 34 -1
16 -1 14 -4 -8 -10 -16 -5 -35 -6 -43 -3 -8 3 -14 0 -14 -6 0 -10 23 -16 45
-11 26 6 163 2 176 -5 11 -6 12 -5 2 6 -17 17 -16 29 2 29 8 0 12 -6 9 -14 -3
-8 4 -19 16 -26 30 -16 70 -22 70 -11 0 6 -9 8 -20 6 -11 -2 -20 0 -20 6 0 5
-6 9 -13 9 -7 0 -13 8 -13 19 0 11 5 17 13 14 7 -3 13 -10 13 -17 0 -8 3 -7 8
1 4 7 41 15 82 18 41 3 77 11 79 16 1 6 12 3 22 -7 15 -14 25 -15 51 -6 l33
10 -42 1 c-45 1 -61 24 -25 35 10 3 7 4 -8 3 -13 -1 -33 -10 -43 -20 -13 -13
-22 -15 -35 -8 -10 6 -23 6 -34 0 -12 -7 -18 -6 -18 2 0 8 -4 8 -12 1 -14 -11
-66 4 -54 15 4 4 28 9 54 10 26 1 77 6 115 9 37 4 67 2 67 -3 0 -5 18 -7 40
-5 25 3 40 0 40 -7 0 -6 -12 -11 -27 -11 -26 0 -26 0 -8 -18 12 -11 30 -16 47
-14 25 4 26 5 11 20 -15 15 -14 17 8 23 13 4 35 7 49 8 20 1 22 -1 10 -9 -11
-7 -7 -10 18 -10 20 0 31 4 27 10 -9 14 8 13 23 -2 9 -9 18 -9 37 0 15 7 24 8
20 2 -4 -6 10 -10 35 -10 39 0 41 1 24 17 -12 13 -19 14 -22 5 -3 -9 -7 -8
-18 2 -8 8 -14 17 -14 20 0 8 32 2 55 -11 15 -9 22 -8 32 5 12 16 14 16 24 0
11 -19 49 -25 49 -8 0 6 -5 10 -11 10 -5 0 -8 4 -5 9 4 5 1 12 -4 14 -6 3 -5
4 2 3 7 -2 28 3 46 10 24 10 32 10 33 1 0 -9 2 -9 6 0 3 9 11 6 26 -8 17 -16
29 -19 57 -13 19 3 40 7 47 7 7 0 10 4 7 8 -2 4 2 10 8 13 7 4 3 4 -9 2 -13
-2 -23 -1 -23 4 0 14 50 18 61 4 6 -7 18 -10 26 -7 11 4 14 2 9 -5 -5 -8 -2
-10 8 -6 9 3 16 10 16 14 0 14 44 20 52 7 10 -16 226 -23 241 -8 9 9 4 11 -18
10 -47 -3 -55 0 -54 19 0 10 3 12 6 5 3 -8 23 -13 49 -13 36 0 50 -5 69 -26
19 -20 28 -24 38 -16 18 16 745 20 756 4 3 -4 49 -7 101 -7 52 0 212 -6 355
-13 143 -7 307 -14 365 -17 58 -3 155 -7 215 -10 160 -8 473 -7 534 1 36 5 55
3 60 -5 5 -8 17 -6 42 6 32 17 122 18 1579 18 1190 0 1606 -3 1810 -14 218
-11 324 -12 600 -2 572 21 1344 66 1625 97 146 15 261 12 250 -7 -4 -5 0 -9 7
-10 18 -1 49 -6 80 -12 22 -4 26 -2 25 13 -1 10 -4 17 -8 14 -4 -2 -10 0 -13
5 -7 11 25 20 79 23 33 1 30 3 -20 8 l-60 7 82 1 c54 1 83 -2 85 -10 3 -7 13
-5 31 7 15 10 30 15 33 12 3 -3 17 -2 31 4 16 6 22 6 18 -1 -8 -14 8 -13 22 1
8 8 17 7 34 -5 13 -9 19 -17 14 -17 -6 -1 -26 -3 -45 -4 -19 -2 -37 -4 -40 -4
-3 -1 8 -8 24 -16 33 -18 91 -11 79 8 -5 9 -3 9 8 1 14 -10 83 -13 93 -3 3 3
-10 11 -29 18 -21 7 -33 17 -29 23 5 7 0 9 -14 6 -12 -4 -22 -2 -22 3 0 5 20
8 45 7 41 -2 43 -3 22 -15z m158 8 c-3 -6 3 -14 12 -20 20 -11 4 -15 -21 -5
-13 5 -14 9 -5 20 13 16 23 19 14 5z m135 1 c0 -4 -16 -6 -35 -4 -19 2 -35 6
-35 8 0 2 16 4 35 4 19 0 35 -4 35 -8z m-30 -16 c0 -2 -11 -6 -25 -8 -14 -3
-25 -1 -25 3 0 5 11 9 25 9 14 0 25 -2 25 -4z m350 -12 c0 -3 -23 -4 -50 -3
-28 1 -46 5 -41 8 11 7 91 2 91 -5z m129 -7 c0 -9 -2 -9 -5 -1 -3 7 -15 10
-27 8 -21 -4 -21 -4 -2 5 23 10 35 5 34 -12z m-362 7 c-3 -3 -12 -4 -19 -1 -8
3 -5 6 6 6 11 1 17 -2 13 -5z m118 -4 c3 -5 2 -10 -4 -10 -5 0 -13 5 -16 10
-3 6 -2 10 4 10 5 0 13 -4 16 -10z m520 3 c-11 -3 -27 -10 -35 -17 -13 -10
-13 -9 -1 7 7 9 23 16 35 16 20 -1 20 -2 1 -6z m719 -1 c2 -4 -7 -8 -22 -9
-24 -2 -24 -1 -7 7 11 5 21 9 22 9 1 1 4 -3 7 -7z m-2209 -22 c17 -8 16 -9 -7
-7 -15 2 -30 6 -34 10 -10 10 17 8 41 -3z m-8605 -32 c0 -13 -23 -5 -28 10 -2
7 2 10 12 6 9 -3 16 -11 16 -16z m10433 15 c3 -5 -8 -8 -24 -8 -16 0 -29 3
-29 8 0 4 11 7 24 7 14 0 27 -3 29 -7z m-10696 -9 c-3 -3 -12 -4 -19 -1 -8 3
-5 6 6 6 11 1 17 -2 13 -5z m679 -2 c-2 -4 25 -6 62 -4 37 2 64 1 60 -3 -10
-10 -105 -16 -140 -9 -35 7 -37 24 -2 24 14 0 23 -4 20 -8z m9649 -2 c3 -5 1
-10 -4 -10 -6 0 -11 5 -11 10 0 6 2 10 4 10 3 0 8 -4 11 -10z m-11165 -10 c0
-5 -4 -10 -10 -10 -5 0 -10 5 -10 10 0 6 5 10 10 10 6 0 10 -4 10 -10z m351
-8 c-7 -2 -18 1 -23 6 -8 8 -4 9 13 5 13 -4 18 -8 10 -11z m99 8 c0 -5 -10
-10 -22 -9 -22 0 -22 1 -3 9 11 5 21 9 23 9 1 1 2 -3 2 -9z m135 0 c-3 -5 -12
-10 -18 -10 -7 0 -6 4 3 10 19 12 23 12 15 0z m110 1 c16 -7 13 -9 -17 -12
-29 -4 -35 -2 -26 8 12 15 15 15 43 4z m-808 -7 c-3 -3 -12 -4 -19 -1 -8 3 -5
6 6 6 11 1 17 -2 13 -5z m236 -1 c-7 -2 -19 -2 -25 0 -7 3 -2 5 12 5 14 0 19
-2 13 -5z m708 -10 c11 -15 11 -16 0 -6 -7 6 -20 9 -29 6 -10 -4 -13 -2 -8 5
10 17 21 15 37 -5z m554 10 c-11 -3 -26 -10 -33 -15 -9 -8 -11 -7 -6 6 4 10
16 16 33 15 20 -1 22 -2 6 -6z m10082 1 c-3 -3 -12 -4 -19 -1 -8 3 -5 6 6 6
11 1 17 -2 13 -5z m480 0 c-3 -3 -12 -4 -19 -1 -8 3 -5 6 6 6 11 1 17 -2 13
-5z m-140 -30 c17 -16 17 -30 1 -16 -8 5 -22 6 -33 1 -11 -4 -35 -8 -54 -8
-33 -1 -34 0 -15 14 18 13 16 14 -26 16 l-45 2 40 6 c54 8 116 1 132 -15z
m-11197 6 c0 -13 -11 -13 -30 0 -12 8 -11 10 8 10 12 0 22 -4 22 -10z m11730
-5 c0 -12 -19 -12 -23 0 -4 9 -1 12 9 8 7 -3 14 -7 14 -8z m116 -4 c-6 -10
-63 -8 -73 3 -3 3 13 6 36 6 23 0 40 -4 37 -9z m219 -1 c4 -6 -7 -10 -27 -9
-31 1 -32 1 -8 9 14 4 26 8 27 9 1 1 5 -3 8 -9z m102 4 c-3 -3 -12 -4 -19 -1
-8 3 -5 6 6 6 11 1 17 -2 13 -5z m-12340 -10 c-3 -3 -12 -4 -19 -1 -8 3 -5 6
6 6 11 1 17 -2 13 -5z m12160 0 c-3 -3 -12 -4 -19 -1 -8 3 -5 6 6 6 11 1 17
-2 13 -5z m-12623 -33 c-2 -3 -12 3 -22 13 -16 17 -16 18 5 5 12 -7 20 -15 17
-18z m506 5 c0 -3 -4 -8 -10 -11 -5 -3 -10 -1 -10 4 0 6 5 11 10 11 6 0 10 -2
10 -4z m12281 -13 c16 -8 29 -16 29 -17 0 -5 -72 10 -94 19 -12 6 -17 5 -13
-2 9 -15 -88 -11 -102 5 -18 19 141 14 180 -5z m328 7 c-6 -5 -18 -6 -26 -3
-19 8 -16 11 13 11 17 0 22 -3 13 -8z m-13474 -5 c-23 -8 -85 -10 -85 -3 0 4
21 8 48 7 26 0 43 -2 37 -4z m299 -15 c17 0 18 -2 6 -9 -8 -6 -18 -7 -22 -5
-4 3 -8 -1 -8 -8 0 -8 -3 -9 -8 -3 -4 6 -18 16 -32 23 -24 12 -24 12 9 7 18
-3 43 -5 55 -5z m12920 -2 c-3 -4 -11 -5 -19 -1 -21 7 -19 12 4 10 11 0 18 -5
15 -9z m91 -7 c3 -5 1 -12 -5 -16 -5 -3 -10 1 -10 9 0 18 6 21 15 7z m48 2
c-7 -2 -19 -2 -25 0 -7 3 -2 5 12 5 14 0 19 -2 13 -5z m-13668 -13 c3 -5 -1
-10 -10 -10 -9 0 -13 5 -10 10 3 6 8 10 10 10 2 0 7 -4 10 -10z m13465 0 c0
-5 -2 -10 -4 -10 -3 0 -8 5 -11 10 -3 6 -1 10 4 10 6 0 11 -4 11 -10z m-140
-4 c0 -3 -4 -8 -10 -11 -5 -3 -10 -1 -10 4 0 6 5 11 10 11 6 0 10 -2 10 -4z
m90 -12 c0 -2 -9 -4 -20 -4 -11 0 -20 4 -20 9 0 5 9 7 20 4 11 -3 20 -7 20 -9z
m503 9 c-7 -2 -19 -2 -25 0 -7 3 -2 5 12 5 14 0 19 -2 13 -5z m-13334 -19 c2
-2 -22 -4 -55 -3 -43 1 -52 3 -34 9 22 6 79 3 89 -6z m12958 10 c-3 -3 -12 -4
-19 -1 -8 3 -5 6 6 6 11 1 17 -2 13 -5z m-13360 -10 c-3 -3 -12 -4 -19 -1 -8
3 -5 6 6 6 11 1 17 -2 13 -5z m13747 -21 c8 -8 13 -9 41 -12 8 0 15 -5 15 -10
0 -5 -16 -8 -36 -6 -35 3 -61 15 -33 15 11 0 11 2 -1 10 -8 5 -10 10 -4 10 6
0 14 -3 18 -7z m-13854 -7 c0 -8 -48 -12 -66 -5 -13 5 -7 8 24 8 23 1 42 -1
42 -3z m187 -2 c-3 -3 -12 -4 -19 -1 -8 3 -5 6 6 6 11 1 17 -2 13 -5z m13603
-35 c0 -5 -17 -9 -37 -9 l-38 1 30 13 c31 14 45 12 45 -5z m315 -10 c-4 -5
-17 -9 -31 -9 -14 0 -23 4 -20 9 3 5 16 7 28 3 16 -4 19 -2 13 8 -5 9 -4 11 4
6 6 -4 9 -12 6 -17z m75 1 c-8 -5 -19 -10 -25 -10 -5 0 -3 5 5 10 8 5 20 10
25 10 6 0 3 -5 -5 -10z m-14840 -17 c8 -7 -24 -23 -47 -23 -13 0 -23 5 -23 11
0 6 7 9 14 6 11 -4 13 -1 9 10 -5 12 -1 14 18 8 13 -4 26 -9 29 -12z m64 3
c16 6 16 4 5 -13 -16 -26 -49 -19 -41 9 3 12 7 15 12 9 3 -7 15 -9 24 -5z
m14483 8 c-3 -3 -12 -4 -19 -1 -8 3 -5 6 6 6 11 1 17 -2 13 -5z m-14647 -13
c0 -16 -18 -22 -47 -15 -25 7 -25 8 -8 15 28 11 55 11 55 0z m14370 -1 c0 -5
-4 -10 -10 -10 -5 0 -10 5 -10 10 0 6 5 10 10 10 6 0 10 -4 10 -10z m-14577
-7 c-13 -2 -35 -2 -50 0 -16 2 -5 4 22 4 28 0 40 -2 28 -4z m15217 3 c0 -2 -7
-6 -15 -10 -8 -3 -15 -1 -15 4 0 6 7 10 15 10 8 0 15 -2 15 -4z m-14770 -10
c0 -5 -59 -36 -68 -36 -3 0 5 9 18 20 21 18 50 27 50 16z m-387 -13 c-7 -2
-19 -2 -25 0 -7 3 -2 5 12 5 14 0 19 -2 13 -5z m227 -23 c0 -5 -2 -10 -4 -10
-3 0 -8 5 -11 10 -3 6 -1 10 4 10 6 0 11 -4 11 -10z m15177 -22 c-21 -7 -32
-7 -40 1 -8 8 0 11 29 10 39 -1 39 -1 11 -11z m837 3 c4 -5 -3 -7 -14 -4 -23
6 -26 13 -6 13 8 0 17 -4 20 -9z m-16291 -8 c-7 -2 -19 -2 -25 0 -7 3 -2 5 12
5 14 0 19 -2 13 -5z m137 -3 c0 -5 -2 -10 -4 -10 -3 0 -8 5 -11 10 -3 6 -1 10
4 10 6 0 11 -4 11 -10z m200 -16 c0 -10 -5 -14 -16 -10 -10 4 -13 2 -8 -6 5
-7 2 -9 -9 -5 -8 3 -25 -3 -38 -14 -12 -10 -27 -19 -33 -19 -6 0 -3 5 6 11 11
6 15 16 11 26 -4 9 -2 14 3 11 5 -4 23 0 39 7 40 18 45 18 45 -1z m15140 -4
c0 -5 -2 -10 -4 -10 -3 0 -8 5 -11 10 -3 6 -1 10 4 10 6 0 11 -4 11 -10z
m-15333 -6 c-3 -3 -12 -4 -19 -1 -8 3 -5 6 6 6 11 1 17 -2 13 -5z m16173 -4
c0 -5 -7 -10 -16 -10 -8 0 -12 5 -9 10 3 6 10 10 16 10 5 0 9 -4 9 -10z m93 3
c-7 -2 -19 -2 -25 0 -7 3 -2 5 12 5 14 0 19 -2 13 -5z m-1453 -13 c12 -8 11
-10 -7 -10 -13 0 -23 5 -23 10 0 13 11 13 30 0z m-14990 -16 c0 -2 -17 -4 -37
-3 -29 0 -33 2 -18 8 18 7 55 4 55 -5z m14966 -7 c4 -4 0 -7 -10 -7 -14 0 -15
-2 -4 -14 7 -8 15 -12 18 -11 3 2 12 0 20 -6 12 -7 10 -9 -7 -9 -13 0 -23 -5
-23 -10 0 -6 15 -10 33 -9 60 3 120 -1 113 -8 -12 -13 -140 -3 -151 11 -13 17
-95 32 -104 18 -4 -6 -11 -5 -19 4 -10 11 -2 13 48 11 33 -2 56 1 52 5 -5 5
-31 9 -59 11 -76 3 -61 23 18 22 38 0 71 -4 75 -8z m-14716 -7 c0 -5 -2 -10
-4 -10 -3 0 -8 5 -11 10 -3 6 -1 10 4 10 6 0 11 -4 11 -10z m14550 -4 c-7 -7
-14 -6 -21 1 -9 9 -7 12 9 10 14 -1 18 -5 12 -11z m228 7 c-10 -2 -26 -2 -35
0 -10 3 -2 5 17 5 19 0 27 -2 18 -5z m155 -10 c-7 -2 -19 -2 -25 0 -7 3 -2 5
12 5 14 0 19 -2 13 -5z m87 -4 c0 -8 14 -10 43 -5 l42 6 -30 -14 -30 -14 30
-2 c18 -2 23 -4 13 -7 -10 -2 -18 -8 -18 -13 0 -4 -19 -6 -42 -3 -36 5 -40 4
-35 -11 5 -11 3 -15 -5 -10 -6 4 -25 11 -42 15 l-31 7 28 1 c16 1 25 5 22 11
-3 5 0 7 8 4 8 -3 14 2 14 11 0 8 -5 15 -11 16 -6 0 -2 4 9 9 28 12 35 12 35
-1z m255 1 c3 -5 1 -10 -4 -10 -6 0 -11 5 -11 10 0 6 2 10 4 10 3 0 8 -4 11
-10z m-362 -14 c38 -9 24 -26 -16 -20 -17 3 -50 5 -72 4 -26 -1 -37 2 -30 9
10 9 60 19 80 15 6 -1 23 -5 38 -8z m267 10 c0 -2 -11 -6 -25 -8 -14 -3 -25
-1 -25 3 0 5 11 9 25 9 14 0 25 -2 25 -4z m-15043 -12 c-3 -3 -12 -4 -19 -1
-8 3 -5 6 6 6 11 1 17 -2 13 -5z m14570 -54 c9 0 14 -2 12 -5 -3 -2 -22 -2
-42 2 -36 6 -37 6 -15 17 18 9 24 9 26 -1 2 -7 11 -13 19 -13z m428 20 c4 -6
-7 -10 -27 -9 -31 1 -32 1 -8 9 14 4 26 8 27 9 1 1 5 -3 8 -9z m-15572 -7 c-7
-2 -19 -2 -25 0 -7 3 -2 5 12 5 14 0 19 -2 13 -5z m337 -3 c0 -5 -7 -7 -15 -4
-8 4 -15 1 -15 -6 0 -6 -5 -8 -11 -4 -8 4 -7 9 2 15 19 12 39 11 39 -1z m365
-9 c-3 -6 6 -9 19 -8 14 1 25 -2 25 -8 0 -9 -58 -8 -68 0 -5 6 10 25 20 25 6
0 8 -4 4 -9z m187 -6 c23 -2 36 -15 17 -16 -29 -2 -64 3 -69 11 -3 4 -14 10
-25 13 -11 4 -2 4 20 0 22 -3 48 -7 57 -8z m-297 -17 c22 -5 45 -10 50 -11 19
-5 16 -21 -5 -29 -18 -6 -21 -5 -16 7 3 8 2 16 -2 16 -47 9 -63 10 -98 9 -29
0 -41 3 -41 14 0 15 29 14 112 -6z m14245 2 c0 -5 -5 -10 -11 -10 -5 0 -7 5
-4 10 3 6 8 10 11 10 2 0 4 -4 4 -10z m-14020 -20 c0 -5 -5 -10 -11 -10 -5 0
-7 5 -4 10 3 6 8 10 11 10 2 0 4 -4 4 -10z m13920 0 c0 -5 -2 -10 -4 -10 -3 0
-8 5 -11 10 -3 6 -1 10 4 10 6 0 11 -4 11 -10z m-13820 -15 c10 -12 10 -15 -2
-15 -8 0 -15 7 -15 15 0 8 1 15 2 15 2 0 8 -7 15 -15z m67 9 c-3 -3 -12 -4
-19 -1 -8 3 -5 6 6 6 11 1 17 -2 13 -5z m13863 -6 c0 -4 -17 -8 -37 -8 -28 0
-34 3 -23 10 17 11 60 9 60 -2z m397 6 c-3 -3 -12 -4 -19 -1 -8 3 -5 6 6 6 11
1 17 -2 13 -5z m-14287 -24 c0 -5 -4 -10 -10 -10 -5 0 -10 5 -10 10 0 6 5 10
10 10 6 0 10 -4 10 -10z m14137 4 c-3 -3 -12 -4 -19 -1 -8 3 -5 6 6 6 11 1 17
-2 13 -5z m-117 -39 c0 -13 -80 -10 -135 5 -22 6 -8 8 53 8 57 0 82 -4 82 -13z
m-14720 -15 c12 -8 11 -10 -7 -10 -13 0 -23 5 -23 10 0 13 11 13 30 0z m240 1
c0 -11 -120 -19 -165 -11 -17 3 8 7 60 11 50 3 93 6 98 7 4 1 7 -2 7 -7z m168
-6 c-8 -9 -138 -13 -138 -5 0 5 28 10 63 12 58 3 83 0 75 -7z m192 -1 c0 -2
-37 -3 -82 -2 l-83 1 65 6 c61 6 100 4 100 -5z m-982 -1 c-10 -2 -28 -2 -40 0
-13 2 -5 4 17 4 22 1 32 -1 23 -4z m212 -1 c0 -4 -16 -6 -35 -4 -19 2 -35 6
-35 8 0 2 16 4 35 4 19 0 35 -4 35 -8z m14630 -2 c0 -5 -5 -10 -11 -10 -5 0
-7 5 -4 10 3 6 8 10 11 10 2 0 4 -4 4 -10z m-320 -20 c0 -5 -5 -10 -11 -10 -5
0 -7 5 -4 10 3 6 8 10 11 10 2 0 4 -4 4 -10z m-14397 -7 c-7 -2 -19 -2 -25 0
-7 3 -2 5 12 5 14 0 19 -2 13 -5z m347 -7 c-19 -17 -74 -31 -65 -16 3 5 18 11
33 11 24 1 23 3 -8 9 l-35 7 45 2 c38 1 42 -1 30 -13z m73 7 c-18 -2 -33 -8
-33 -14 0 -5 -4 -9 -8 -9 -5 0 -9 7 -9 15 0 11 11 15 41 13 37 -1 38 -2 9 -5z
m96 3 c-12 -10 -60 -16 -54 -6 3 5 18 10 32 10 15 0 24 -2 22 -4z m71 -9 c0
-4 -8 -7 -17 -5 -10 1 -24 -1 -30 -5 -7 -5 -13 -4 -13 2 0 5 6 11 13 14 19 7
47 4 47 -6z m135 3 c3 -5 -3 -10 -13 -10 -11 0 -34 -3 -51 -6 -19 -4 -31 -2
-31 4 0 18 85 29 95 12z m135 0 c0 -4 -12 -8 -27 -8 -16 -1 -35 -3 -43 -4 -8
0 -24 0 -35 1 -17 1 -17 3 -5 11 17 11 110 11 110 0z m-410 -20 c0 -5 -11 -10
-25 -10 -14 0 -25 5 -25 10 0 6 11 10 25 10 14 0 25 -4 25 -10z m-220 -21 c0
-6 -4 -7 -10 -4 -5 3 -10 11 -10 16 0 6 5 7 10 4 6 -3 10 -11 10 -16z m14130
5 c0 -7 -8 -10 -20 -7 -22 6 -19 20 5 20 8 0 15 -6 15 -13z m483 9 c-7 -2 -19
-2 -25 0 -7 3 -2 5 12 5 14 0 19 -2 13 -5z m-14643 -13 c0 -5 -17 -9 -37 -9
l-38 2 35 7 c19 4 36 8 38 9 1 0 2 -3 2 -9z m13200 0 c0 -5 -4 -10 -9 -10 -6
0 -13 5 -16 10 -3 6 1 10 9 10 9 0 16 -4 16 -10z m525 0 c3 -5 -1 -10 -9 -10
-9 0 -16 5 -16 10 0 6 4 10 9 10 6 0 13 -4 16 -10z m515 -6 c0 -2 -9 -4 -20
-4 -11 0 -20 4 -20 9 0 5 9 7 20 4 11 -3 20 -7 20 -9z m-13930 -4 c12 -8 11
-10 -7 -10 -12 0 -25 5 -28 10 -8 13 15 13 35 0z m133 3 c-7 -2 -19 -2 -25 0
-7 3 -2 5 12 5 14 0 19 -2 13 -5z m257 -8 c0 -2 -9 -3 -19 -2 -11 0 -18 5 -15
9 4 6 34 0 34 -7z m50 5 c0 -5 -10 -10 -22 -10 -19 0 -20 2 -8 10 19 13 30 13
30 0z m30 0 c0 -5 -4 -10 -10 -10 -5 0 -10 5 -10 10 0 6 5 10 10 10 6 0 10 -4
10 -10z m13763 -1 c-8 -8 -19 -8 -40 -1 -28 10 -28 10 12 11 28 1 36 -2 28
-10z m74 5 c-3 -3 -12 -4 -19 -1 -8 3 -5 6 6 6 11 1 17 -2 13 -5z m-14423 -13
c4 -5 -3 -7 -14 -4 -23 6 -26 13 -6 13 8 0 17 -4 20 -9z m11649 -18 c-7 -2
-19 -2 -25 0 -7 3 -2 5 12 5 14 0 19 -2 13 -5z m1160 0 c-7 -2 -19 -2 -25 0
-7 3 -2 5 12 5 14 0 19 -2 13 -5z m111 -8 c19 -14 18 -15 -15 -14 -19 0 -28 3
-21 6 6 2 10 9 6 14 -8 14 9 10 30 -6z m-12507 -1 c-3 -3 -12 -4 -19 -1 -8 3
-5 6 6 6 11 1 17 -2 13 -5z m512 -10 c2 -2 -10 -4 -27 -4 -18 0 -32 5 -32 10
0 9 47 4 59 -6z m11436 6 c3 -5 2 -10 -4 -10 -5 0 -13 5 -16 10 -3 6 -2 10 4
10 5 0 13 -4 16 -10z m358 3 c-7 -2 -19 -2 -25 0 -7 3 -2 5 12 5 14 0 19 -2
13 -5z m489 -5 c-7 -7 -16 -7 -28 0 -14 8 -13 10 10 10 18 0 24 -4 18 -10z
m-13357 -8 c3 -5 1 -10 -4 -10 -6 0 -11 5 -11 10 0 6 2 10 4 10 3 0 8 -4 11
-10z m1298 3 c-7 -2 -21 -2 -30 0 -10 3 -4 5 12 5 17 0 24 -2 18 -5z m-1453
-13 c-8 -5 -22 -9 -30 -9 -10 0 -8 3 5 9 27 12 43 12 25 0z m243 3 c-7 -2 -19
-2 -25 0 -7 3 -2 5 12 5 14 0 19 -2 13 -5z m44 1 c-3 -3 -12 -4 -19 -1 -8 3
-5 6 6 6 11 1 17 -2 13 -5z m12750 0 c-3 -3 -12 -4 -19 -1 -8 3 -5 6 6 6 11 1
17 -2 13 -5z m-13140 -10 c-3 -3 -12 -4 -19 -1 -8 3 -5 6 6 6 11 1 17 -2 13
-5z m2197 -13 c-5 -5 -18 -5 -29 0 -18 9 -18 9 3 5 12 -2 22 1 22 7 0 6 3 7 7
4 4 -4 2 -11 -3 -16z m11056 15 c0 -2 -9 -6 -20 -9 -11 -3 -18 -1 -14 4 5 9
34 13 34 5z m-11353 -12 c-3 -3 -12 -4 -19 -1 -8 3 -5 6 6 6 11 1 17 -2 13 -5z
m9983 -14 c0 -5 -5 -10 -11 -10 -5 0 -7 5 -4 10 3 6 8 10 11 10 2 0 4 -4 4
-10z m-10039 -15 c8 5 10 4 6 0 -4 -5 -27 -10 -50 -10 l-41 -1 29 12 c20 8 32
9 36 2 4 -6 13 -7 20 -3z m9374 5 c3 -5 1 -10 -4 -10 -6 0 -11 5 -11 10 0 6 2
10 4 10 3 0 8 -4 11 -10z m1055 0 c13 -9 13 -10 0 -9 -8 0 -24 4 -35 9 l-20 9
20 0 c11 0 27 -4 35 -9z m360 0 c0 -5 -4 -10 -10 -10 -5 0 -10 5 -10 10 0 6 5
10 10 10 6 0 10 -4 10 -10z m-10575 -10 c-3 -5 -14 -10 -23 -9 -14 0 -13 2 3
9 27 11 27 11 20 0z m332 4 c-3 -3 -12 -4 -19 -1 -8 3 -5 6 6 6 11 1 17 -2 13
-5z m-394 -11 c-7 -2 -21 -2 -30 0 -10 3 -4 5 12 5 17 0 24 -2 18 -5z m154 1
c-3 -3 -12 -4 -19 -1 -8 3 -5 6 6 6 11 1 17 -2 13 -5z m573 2 c0 -3 -4 -8 -10
-11 -5 -3 -10 -1 -10 4 0 6 5 11 10 11 6 0 10 -2 10 -4z m420 -20 c0 -2 -9 -6
-20 -9 -11 -3 -18 -1 -14 4 5 9 34 13 34 5z m7550 -16 c-8 -5 -22 -9 -30 -9
-10 0 -8 3 5 9 27 12 43 12 25 0z m448 -7 c2 -7 -1 -13 -8 -13 -6 0 -8 5 -5
10 3 6 -1 10 -9 10 -9 0 -16 -5 -16 -11 0 -5 -5 -7 -11 -3 -8 4 -7 9 2 15 18
12 41 7 47 -8z m382 7 c0 -5 -8 -10 -17 -10 -15 0 -16 2 -3 10 19 12 20 12 20
0z m-8392 -17 c-10 -2 -26 -2 -35 0 -10 3 -2 5 17 5 19 0 27 -2 18 -5z m-130
-10 c-10 -2 -26 -2 -35 0 -10 3 -2 5 17 5 19 0 27 -2 18 -5z m650 0 c-16 -2
-40 -2 -55 0 -16 2 -3 4 27 4 30 0 43 -2 28 -4z m-788 -14 c0 -5 -35 -8 -77
-7 -76 1 -77 1 -23 7 82 10 100 9 100 0z m407 5 c-3 -3 -12 -4 -19 -1 -8 3 -5
6 6 6 11 1 17 -2 13 -5z m6818 -4 c-3 -5 -21 -9 -38 -9 l-32 1 30 8 c43 11 47
11 40 0z m-180 -10 c3 -5 1 -10 -4 -10 -6 0 -11 5 -11 10 0 6 2 10 4 10 3 0 8
-4 11 -10z m-7322 -7 c-7 -2 -21 -2 -30 0 -10 3 -4 5 12 5 17 0 24 -2 18 -5z
m3007 -22 c0 -5 -11 -11 -25 -13 -14 -3 -25 -3 -25 -1 0 3 34 19 48 22 1 1 2
-3 2 -8z m1800 1 c0 -10 -76 -10 -86 1 -4 4 14 7 39 7 26 0 47 -4 47 -8z
m1290 -7 c0 -1 -33 -2 -72 -2 -72 0 -72 0 -18 6 49 5 90 4 90 -4z m488 8 c-15
-2 -42 -2 -60 0 -18 2 -6 4 27 4 33 0 48 -2 33 -4z m-1678 -13 c0 -5 -4 -10
-9 -10 -6 0 -13 5 -16 10 -3 6 1 10 9 10 9 0 16 -4 16 -10z m90 0 c0 -5 -2
-10 -4 -10 -3 0 -8 5 -11 10 -3 6 -1 10 4 10 6 0 11 -4 11 -10z m758 1 c-20
-4 -56 -4 -80 -1 -35 6 -29 8 37 8 59 0 71 -2 43 -7z m-398 -9 c0 -5 -7 -9
-15 -9 -8 0 -15 4 -15 9 0 4 7 8 15 8 8 0 15 -4 15 -8z"/>
<path d="M9358 8193 c7 -3 16 -2 19 1 4 3 -2 6 -13 5 -11 0 -14 -3 -6 -6z"/>
<path d="M9460 8196 c0 -2 7 -6 15 -10 8 -3 15 -1 15 4 0 6 -7 10 -15 10 -8 0
-15 -2 -15 -4z"/>
<path d="M9517 8170 c32 -36 24 -50 -14 -24 -56 38 -142 28 -182 -20 -18 -22
-24 -92 -11 -131 23 -70 118 -105 185 -69 34 18 65 60 65 88 0 9 5 16 10 16 7
0 7 6 0 19 -14 28 -12 35 6 20 11 -9 14 -22 10 -41 -3 -15 -2 -28 3 -28 35 0
0 128 -45 167 -33 28 -50 30 -27 3z m-1 -51 c3 -6 -5 -3 -20 6 -14 10 -26 19
-26 22 0 7 39 -17 46 -28z m-30 -17 c-4 -3 -14 2 -24 12 -16 18 -16 18 6 6 13
-6 21 -14 18 -18z m84 -3 c0 -5 -4 -9 -10 -9 -5 0 -10 7 -10 16 0 8 5 12 10 9
6 -3 10 -10 10 -16z m-157 -157 l42 -10 -36 -1 c-37 -1 -89 34 -89 60 0 6 9 0
20 -14 13 -16 37 -30 63 -35z"/>
<path d="M16120 8200 c-8 -5 -12 -11 -9 -14 2 -3 11 -1 19 4 8 5 12 11 9 14
-2 3 -11 1 -19 -4z"/>
<path d="M16228 8193 c7 -3 16 -2 19 1 4 3 -2 6 -13 5 -11 0 -14 -3 -6 -6z"/>
<path d="M16058 8167 c-33 -27 -58 -84 -58 -132 0 -33 14 -48 22 -23 2 6 15
-5 28 -26 46 -75 126 -97 191 -53 40 27 63 85 53 131 -4 17 -8 38 -8 46 -1 8
-16 24 -35 37 -43 29 -104 30 -148 3 -38 -23 -51 -12 -22 18 26 28 12 28 -23
-1z m61 -30 c-2 -1 -13 -9 -24 -17 -19 -14 -19 -14 -6 3 7 9 18 17 24 17 6 0
8 -1 6 -3z m21 -22 c-7 -8 -18 -15 -24 -15 -6 0 -2 7 8 15 25 19 32 19 16 0z
m-95 -14 c-3 -6 -11 -11 -17 -11 -6 0 -6 6 2 15 14 17 26 13 15 -4z m-15 -52
c-7 -11 -14 -18 -17 -15 -8 8 5 36 17 36 7 0 7 -6 0 -21z m229 -77 c-15 -24
-51 -42 -82 -41 -14 1 -8 5 16 11 21 6 45 21 54 34 19 29 30 25 12 -4z"/>
<path d="M17410 5076 c0 -2 7 -7 16 -10 8 -3 12 -2 9 4 -6 10 -25 14 -25 6z"/>
<path d="M17328 5011 c-59 -20 -70 -31 -21 -21 87 18 102 23 97 31 -7 12 -19
10 -76 -10z"/>
<path d="M16935 5011 c-15 -6 -9 -8 23 -9 23 0 42 3 42 9 0 11 -37 11 -65 0z"/>
<path d="M17156 5003 c22 -16 34 -17 34 -2 0 6 7 9 15 6 8 -4 17 -2 20 3 3 4
-16 8 -41 7 -42 0 -45 -2 -28 -14z"/>
<path d="M17485 5012 c15 -17 75 -27 75 -13 0 6 -11 11 -24 11 -13 0 -33 3
-43 6 -13 5 -15 4 -8 -4z"/>
<path d="M17758 5003 c6 -2 18 -2 25 0 6 3 1 5 -13 5 -14 0 -19 -2 -12 -5z"/>
<path d="M18319 4986 c11 -5 31 -4 48 1 25 9 23 10 -20 9 -35 -1 -42 -3 -28
-10z"/>
<path d="M18405 4991 c-5 -9 55 -25 62 -17 2 2 -10 8 -26 14 -17 6 -33 7 -36
3z"/>
<path d="M17778 4973 c7 -3 16 -2 19 1 4 3 -2 6 -13 5 -11 0 -14 -3 -6 -6z"/>
<path d="M17944 4969 c-3 -5 6 -9 20 -9 31 0 34 6 6 13 -11 3 -23 1 -26 -4z"/>
<path d="M19508 4973 c7 -3 16 -2 19 1 4 3 -2 6 -13 5 -11 0 -14 -3 -6 -6z"/>
<path d="M8588 4963 c7 -3 16 -2 19 1 4 3 -2 6 -13 5 -11 0 -14 -3 -6 -6z"/>
<path d="M18745 4960 c3 -5 17 -9 30 -8 31 3 21 18 -11 18 -14 0 -22 -4 -19
-10z"/>
<path d="M8418 4953 c6 -2 18 -2 25 0 6 3 1 5 -13 5 -14 0 -19 -2 -12 -5z"/>
<path d="M8464 4951 c10 -15 43 -19 43 -5 0 8 -11 14 -24 14 -13 0 -22 -4 -19
-9z"/>
<path d="M18678 4953 c7 -3 16 -2 19 1 4 3 -2 6 -13 5 -11 0 -14 -3 -6 -6z"/>
<path d="M19490 4939 c0 -5 5 -7 10 -4 6 3 10 8 10 11 0 2 -4 4 -10 4 -5 0
-10 -5 -10 -11z"/>
<path d="M8330 4930 c0 -5 5 -10 11 -10 5 0 7 5 4 10 -3 6 -8 10 -11 10 -2 0
-4 -4 -4 -10z"/>
<path d="M8820 4925 c7 -8 9 -16 4 -16 -5 -1 9 -5 31 -9 43 -9 95 -3 95 11 0
8 -18 12 -103 23 -33 4 -37 3 -27 -9z"/>
<path d="M9255 4929 c-42 -6 -39 -10 8 -13 16 -1 31 2 34 7 8 12 2 13 -42 6z"/>
<path d="M9408 4932 c-21 -2 -38 -7 -38 -11 0 -9 188 -6 197 2 6 7 -110 13
-159 9z"/>
<path d="M9733 4933 c9 -2 23 -2 30 0 6 3 -1 5 -18 5 -16 0 -22 -2 -12 -5z"/>
<path d="M18720 4936 c0 -2 11 -6 25 -8 14 -3 25 -1 25 3 0 5 -11 9 -25 9 -14
0 -25 -2 -25 -4z"/>
<path d="M18865 4920 c53 -25 68 -25 27 0 -18 11 -40 20 -50 19 -9 0 1 -9 23
-19z"/>
<path d="M8073 4923 c9 -2 25 -2 35 0 9 3 1 5 -18 5 -19 0 -27 -2 -17 -5z"/>
<path d="M8153 4923 c9 -2 23 -2 30 0 6 3 -1 5 -18 5 -16 0 -22 -2 -12 -5z"/>
<path d="M9603 4923 c9 -2 25 -2 35 0 9 3 1 5 -18 5 -19 0 -27 -2 -17 -5z"/>
<path d="M17270 4920 c0 -13 38 -32 57 -28 15 3 15 5 -1 21 -19 18 -56 23 -56
7z m45 -10 c8 -13 -5 -13 -25 0 -13 8 -13 10 2 10 9 0 20 -4 23 -10z"/>
<path d="M17530 4918 c0 -4 34 -7 76 -7 42 0 74 3 71 6 -9 8 -147 9 -147 1z"/>
<path d="M18625 4920 c3 -5 8 -10 11 -10 2 0 4 5 4 10 0 6 -5 10 -11 10 -5 0
-7 -4 -4 -10z"/>
<path d="M19575 4920 c-28 -7 -27 -8 13 -9 27 -1 41 3 37 9 -7 11 -7 11 -50 0z"/>
<path d="M19150 4910 c8 -5 26 -10 40 -10 20 0 22 2 10 10 -8 5 -26 10 -40 10
-20 0 -22 -2 -10 -10z"/>
<path d="M19440 4910 c-21 -7 -17 -8 20 -9 25 0 51 3 58 8 17 10 -44 11 -78 1z"/>
<path d="M18934 4889 c-3 -5 2 -9 10 -9 8 0 21 -6 28 -13 21 -22 65 -29 65
-12 0 10 -10 15 -29 15 -15 0 -28 4 -28 9 0 12 -39 21 -46 10z"/>
<path d="M19250 4891 c0 -4 11 -7 24 -6 14 2 27 -3 30 -10 3 -9 0 -12 -8 -9
-8 3 -17 0 -22 -7 -4 -8 -3 -10 4 -5 7 4 12 2 12 -3 0 -12 -3 -13 -83 -15 -54
-1 -56 0 -30 11 15 7 21 12 13 13 -21 0 -62 -29 -55 -40 5 -9 23 -8 134 5 21
2 39 -2 48 -11 16 -16 37 -19 28 -4 -8 14 11 13 35 -2 14 -9 24 -9 42 -1 13 7
60 11 105 10 44 -1 79 1 77 5 -2 3 1 8 8 11 7 2 5 3 -4 2 -10 -2 -18 1 -18 6
0 4 -6 6 -12 4 -21 -8 -177 -11 -172 -4 2 4 -16 6 -40 5 -33 -1 -42 2 -35 10
7 8 6 14 -3 17 -11 5 -11 7 0 15 9 6 -2 9 -33 10 -25 1 -45 -2 -45 -7z"/>
<path d="M7820 4880 c0 -6 13 -9 29 -8 16 1 27 6 25 10 -7 12 -54 10 -54 -2z"/>
<path d="M8768 4882 c-38 -8 -16 -20 32 -18 49 3 81 15 44 17 -10 1 -28 2 -39
3 -11 1 -28 0 -37 -2z"/>
<path d="M11112 4870 c-7 -11 -8 -20 -3 -20 9 0 24 30 18 36 -1 2 -8 -6 -15
-16z"/>
<path d="M19145 4881 c-3 -6 14 -8 41 -5 63 5 69 14 11 14 -25 0 -48 -4 -52
-9z"/>
<path d="M7900 4870 c-9 -6 -10 -10 -3 -10 6 0 15 5 18 10 8 12 4 12 -15 0z"/>
<path d="M8265 4870 c3 -5 21 -10 38 -10 24 0 28 3 17 10 -20 13 -63 13 -55 0z"/>
<path d="M8200 4860 c-9 -6 -10 -10 -3 -10 6 0 15 5 18 10 8 12 4 12 -15 0z"/>
<path d="M8458 4863 c7 -3 16 -2 19 1 4 3 -2 6 -13 5 -11 0 -14 -3 -6 -6z"/>
<path d="M18886 4862 c-2 -2 -18 -4 -35 -4 -17 -1 -31 -6 -31 -12 0 -6 -4 -5
-9 3 -5 8 -14 10 -22 6 -21 -14 22 -23 54 -12 15 5 39 7 52 5 13 -3 26 0 28 6
4 10 -28 17 -37 8z"/>
<path d="M19440 4860 c8 -5 20 -10 25 -10 6 0 3 5 -5 10 -8 5 -19 10 -25 10
-5 0 -3 -5 5 -10z"/>
<path d="M7903 4843 c15 -2 37 -2 50 0 12 2 0 4 -28 4 -27 0 -38 -2 -22 -4z"/>
<path d="M18580 4841 c-8 -6 -17 -8 -21 -5 -4 2 -10 1 -13 -4 -7 -12 66 -14
84 -2 9 6 10 10 3 10 -6 0 -17 2 -25 5 -7 3 -20 1 -28 -4z"/>
<path d="M18668 4843 c6 -2 18 -2 25 0 6 3 1 5 -13 5 -14 0 -19 -2 -12 -5z"/>
<path d="M7428 4833 c7 -3 16 -2 19 1 4 3 -2 6 -13 5 -11 0 -14 -3 -6 -6z"/>
<path d="M7645 4830 c-17 -6 -16 -7 6 -13 34 -9 59 -9 59 2 0 12 -42 19 -65
11z"/>
<path d="M7778 4833 c6 -2 18 -2 25 0 6 3 1 5 -13 5 -14 0 -19 -2 -12 -5z"/>
<path d="M8658 4833 c6 -2 18 -2 25 0 6 3 1 5 -13 5 -14 0 -19 -2 -12 -5z"/>
<path d="M18940 4832 c0 -7 -12 -13 -27 -13 -26 -2 -26 -2 -4 -6 24 -5 50 11
38 24 -4 3 -7 1 -7 -5z"/>
<path d="M19030 4833 c-39 -7 -44 -20 -8 -17 18 1 35 2 38 4 3 1 15 1 27 1 11
-1 23 2 26 6 6 10 -43 13 -83 6z"/>
<path d="M18500 4820 c-9 -6 -10 -10 -3 -10 6 0 15 5 18 10 8 12 4 12 -15 0z"/>
<path d="M7085 4811 c-23 -5 -26 -8 -13 -13 9 -4 24 0 35 7 10 8 16 14 13 13
-3 0 -18 -3 -35 -7z"/>
<path d="M7286 4803 c-5 -12 -9 -13 -21 -3 -13 11 -14 10 -10 -2 5 -13 25 -16
103 -15 83 0 87 1 24 4 -40 2 -70 8 -67 12 3 5 -1 11 -9 14 -8 3 -17 -1 -20
-10z"/>
<path d="M17828 4813 c6 -2 18 -2 25 0 6 3 1 5 -13 5 -14 0 -19 -2 -12 -5z"/>
<path d="M18270 4810 c0 -5 13 -10 29 -10 17 0 33 5 36 10 4 6 -8 10 -29 10
-20 0 -36 -4 -36 -10z"/>
<path d="M19640 4805 c28 -16 110 -20 110 -6 0 21 -65 29 -73 9 -4 -10 -6 -10
-6 0 -1 6 -13 12 -28 12 l-28 -1 25 -14z"/>
<path d="M7505 4800 c-3 -5 1 -10 10 -10 9 0 13 5 10 10 -3 6 -8 10 -10 10 -2
0 -7 -4 -10 -10z"/>
<path d="M8270 4799 c0 -5 5 -7 10 -4 6 3 10 8 10 11 0 2 -4 4 -10 4 -5 0 -10
-5 -10 -11z"/>
<path d="M18634 4801 c3 -5 15 -7 26 -4 28 7 25 13 -6 13 -14 0 -23 -4 -20 -9z"/>
<path d="M8203 4793 c9 -2 25 -2 35 0 9 3 1 5 -18 5 -19 0 -27 -2 -17 -5z"/>
<path d="M18753 4793 c9 -2 25 -2 35 0 9 3 1 5 -18 5 -19 0 -27 -2 -17 -5z"/>
<path d="M7738 4783 c12 -2 30 -2 40 0 9 3 -1 5 -23 4 -22 0 -30 -2 -17 -4z"/>
<path d="M18998 4783 c6 -2 18 -2 25 0 6 3 1 5 -13 5 -14 0 -19 -2 -12 -5z"/>
<path d="M7900 4770 c8 -5 20 -10 25 -10 6 0 3 5 -5 10 -8 5 -19 10 -25 10 -5
0 -3 -5 5 -10z"/>
<path d="M19685 4770 c-27 -4 -39 -8 -25 -9 14 -1 43 -4 65 -7 35 -6 38 -5 26
10 -7 9 -14 15 -15 14 0 0 -23 -4 -51 -8z"/>
<path d="M19815 4760 c3 -5 19 -10 36 -10 16 0 29 5 29 10 0 6 -16 10 -36 10
-21 0 -33 -4 -29 -10z"/>
<path d="M19967 4759 c4 -4 19 -10 33 -14 21 -7 22 -6 9 7 -8 8 -22 15 -32 15
-10 0 -14 -4 -10 -8z"/>
<path d="M20148 4763 c7 -3 16 -2 19 1 4 3 -2 6 -13 5 -11 0 -14 -3 -6 -6z"/>
<path d="M7195 4750 c3 -5 8 -10 11 -10 2 0 4 5 4 10 0 6 -5 10 -11 10 -5 0
-7 -4 -4 -10z"/>
<path d="M7523 4753 c9 -2 25 -2 35 0 9 3 1 5 -18 5 -19 0 -27 -2 -17 -5z"/>
<path d="M8345 4750 c-4 -7 3 -8 22 -4 38 9 42 14 10 14 -14 0 -29 -5 -32 -10z"/>
<path d="M18707 4748 c-14 -9 -12 -9 108 -13 45 -2 71 0 60 5 -29 11 -153 17
-168 8z"/>
<path d="M19295 4750 c3 -5 22 -10 41 -10 21 0 33 4 29 10 -3 6 -22 10 -41 10
-21 0 -33 -4 -29 -10z"/>
<path d="M19590 4750 c-13 -8 -12 -10 3 -10 9 0 17 5 17 10 0 12 -1 12 -20 0z"/>
<path d="M6544 4742 c6 -10 42 -9 52 1 4 4 -7 7 -25 7 -18 0 -30 -4 -27 -8z"/>
<path d="M6986 4736 c4 -10 16 -16 33 -15 20 1 22 2 6 6 -11 3 -26 10 -33 15
-9 8 -11 7 -6 -6z"/>
<path d="M18995 4741 c-3 -5 15 -9 40 -9 25 0 45 3 45 7 0 11 -78 13 -85 2z"/>
<path d="M19237 4739 c8 -8 16 -8 30 0 16 9 14 10 -11 11 -22 0 -27 -3 -19
-11z"/>
<path d="M6680 4729 c-31 -5 -29 -6 16 -6 29 0 57 -4 63 -7 6 -4 11 -2 11 3 0
6 -6 11 -12 12 -7 0 -20 2 -28 3 -8 1 -31 -1 -50 -5z"/>
<path d="M19483 4733 c9 -2 23 -2 30 0 6 3 -1 5 -18 5 -16 0 -22 -2 -12 -5z"/>
<path d="M19628 4733 c6 -2 18 -2 25 0 6 3 1 5 -13 5 -14 0 -19 -2 -12 -5z"/>
<path d="M19890 4728 c0 -5 19 -8 42 -8 23 0 38 3 35 6 -9 10 -77 11 -77 2z"/>
<path d="M20113 4733 c9 -14 53 -22 69 -12 9 6 4 9 -14 9 -14 0 -34 3 -44 7
-11 4 -15 3 -11 -4z"/>
<path d="M20585 4730 c-3 -5 -1 -10 4 -10 6 0 11 5 11 10 0 6 -2 10 -4 10 -3
0 -8 -4 -11 -10z"/>
<path d="M7146 4721 c-4 -5 3 -7 14 -4 23 6 26 13 6 13 -8 0 -17 -4 -20 -9z"/>
<path d="M19722 4716 c-33 -19 -33 -21 -2 -22 19 -1 27 3 23 12 -3 7 5 14 19
17 18 3 19 4 3 5 -11 0 -30 -6 -43 -12z"/>
<path d="M19993 4723 c9 -2 25 -2 35 0 9 3 1 5 -18 5 -19 0 -27 -2 -17 -5z"/>
<path d="M20294 4719 c-13 -5 -7 -8 22 -8 22 -1 45 -6 50 -11 14 -14 54 -21
54 -9 0 5 -7 9 -15 9 -8 0 -15 7 -15 15 0 12 -10 15 -39 14 -21 -2 -47 -6 -57
-10z"/>
<path d="M20465 4720 c33 -3 69 -3 80 1 12 5 -13 7 -60 7 l-80 -1 60 -7z"/>
<path d="M20610 4726 c0 -2 7 -7 16 -10 8 -3 12 -2 9 4 -6 10 -25 14 -25 6z"/>
<path d="M6325 4710 c-3 -5 -13 -7 -23 -4 -14 5 -14 4 -3 -4 9 -6 23 -7 37 -2
12 5 25 6 28 3 3 -4 6 -1 6 5 0 14 -36 16 -45 2z"/>
<path d="M7310 4710 c12 -8 10 -10 -10 -10 -14 0 -31 -9 -38 -20 -9 -15 -19
-19 -36 -14 -32 8 -74 -5 -55 -16 7 -5 22 -4 32 2 13 6 23 6 29 0 6 -6 -2 -14
-24 -21 -18 -6 -39 -20 -46 -31 -16 -27 -6 -25 53 11 28 16 58 32 68 36 9 3
17 11 17 18 0 7 7 18 15 25 16 13 11 30 -8 30 -7 0 -6 -4 3 -10z"/>
<path d="M20808 4701 c3 -9 1 -12 -6 -7 -7 4 -12 3 -12 -2 0 -10 33 -22 63
-22 9 0 17 4 17 10 0 5 -6 7 -12 5 -7 -3 -20 0 -28 5 -13 9 -13 11 0 20 12 7
10 9 -7 8 -14 -2 -19 -7 -15 -17z"/>
<path d="M20454 4702 c3 -5 17 -9 31 -9 32 0 27 6 -10 13 -14 2 -24 1 -21 -4z"/>
<path d="M20605 4700 c-3 -5 -1 -10 4 -10 6 0 11 5 11 10 0 6 -2 10 -4 10 -3
0 -8 -4 -11 -10z"/>
<path d="M20760 4690 c0 -5 5 -10 11 -10 5 0 7 5 4 10 -3 6 -8 10 -11 10 -2 0
-4 -4 -4 -10z"/>
<path d="M6656 4675 c-15 -8 -38 -15 -50 -16 -19 -1 -19 -2 4 -9 24 -8 24 -8
-6 -9 -16 -1 -39 -8 -50 -16 -17 -14 -15 -14 26 -9 25 4 53 15 63 26 10 10 22
16 27 13 13 -8 62 14 55 25 -9 14 -35 12 -69 -5z"/>
<path d="M19638 4683 c6 -2 18 -2 25 0 6 3 1 5 -13 5 -14 0 -19 -2 -12 -5z"/>
<path d="M20530 4679 c0 -5 5 -7 10 -4 6 3 10 8 10 11 0 2 -4 4 -10 4 -5 0
-10 -5 -10 -11z"/>
<path d="M20718 4683 c7 -3 16 -2 19 1 4 3 -2 6 -13 5 -11 0 -14 -3 -6 -6z"/>
<path d="M6472 4667 c20 -7 40 -15 43 -19 6 -6 35 14 35 24 0 2 -26 4 -57 5
-58 2 -58 2 -21 -10z"/>
<path d="M7435 4670 c-3 -6 1 -7 9 -4 18 7 21 14 7 14 -6 0 -13 -4 -16 -10z"/>
<path d="M7710 4670 c-44 -7 -44 -7 18 -8 40 -1 61 2 57 8 -3 6 -12 9 -18 8
-7 0 -32 -4 -57 -8z"/>
<path d="M19887 4668 c-9 -6 -8 -8 3 -9 10 0 8 -3 -5 -9 -19 -8 -19 -9 3 -9
12 -1 22 4 22 10 0 8 4 8 13 2 8 -7 24 -7 47 0 34 9 34 10 11 18 -26 10 -76 9
-94 -3z"/>
<path d="M20568 4673 c6 -2 18 -2 25 0 6 3 1 5 -13 5 -14 0 -19 -2 -12 -5z"/>
<path d="M6913 4663 c9 -2 25 -2 35 0 9 3 1 5 -18 5 -19 0 -27 -2 -17 -5z"/>
<path d="M7948 4663 c17 -2 47 -2 65 0 17 2 3 4 -33 4 -36 0 -50 -2 -32 -4z"/>
<path d="M8148 4663 c6 -2 18 -2 25 0 6 3 1 5 -13 5 -14 0 -19 -2 -12 -5z"/>
<path d="M20488 4663 c6 -2 18 -2 25 0 6 3 1 5 -13 5 -14 0 -19 -2 -12 -5z"/>
<path d="M20311 4653 c-13 -5 23 -22 84 -40 11 -4 23 -11 27 -17 5 -7 8 -4 8
7 0 10 -10 22 -22 27 -14 5 -17 9 -8 10 13 0 13 1 0 10 -16 10 -66 12 -89 3z"/>
<path d="M7400 4640 c0 -5 8 -10 18 -10 9 0 28 -3 42 -6 18 -4 21 -3 10 4 -25
15 -70 23 -70 12z"/>
<path d="M6460 4611 c0 -5 7 -11 15 -15 8 -3 15 -1 15 3 0 5 10 7 23 5 20 -4
21 -4 2 5 -26 12 -55 13 -55 2z"/>
<path d="M19906 4601 c9 -9 45 -11 39 -2 -3 6 -14 9 -25 8 -10 -1 -17 -3 -14
-6z"/>
<path d="M20355 4600 c-3 -5 -1 -10 4 -10 6 0 11 5 11 10 0 6 -2 10 -4 10 -3
0 -8 -4 -11 -10z"/>
<path d="M20385 4590 c4 -6 11 -8 16 -5 14 9 11 15 -7 15 -8 0 -12 -5 -9 -10z"/>
<path d="M6620 4580 c0 -5 14 -7 33 -3 45 8 47 13 4 13 -20 0 -37 -4 -37 -10z"/>
<path d="M6728 4583 c6 -2 18 -2 25 0 6 3 1 5 -13 5 -14 0 -19 -2 -12 -5z"/>
<path d="M19930 4576 c0 -8 51 -13 56 -5 3 5 -9 9 -25 9 -17 0 -31 -2 -31 -4z"/>
<path d="M6640 4558 c0 -5 23 -8 50 -8 28 0 50 5 50 11 0 6 -20 9 -50 7 -27
-2 -50 -6 -50 -10z"/>
<path d="M7100 4560 c0 -13 20 -13 40 0 12 8 9 10 -12 10 -16 0 -28 -4 -28
-10z"/>
<path d="M20270 4560 c-12 -8 -10 -10 8 -10 13 0 20 4 17 10 -7 12 -6 12 -25
0z"/>
<path d="M6578 4548 c8 -8 17 -8 34 0 22 10 21 11 -11 11 -27 1 -32 -2 -23
-11z"/>
<path d="M20170 4550 c-13 -8 -13 -10 2 -10 9 0 20 5 23 10 8 13 -5 13 -25 0z"/>
<path d="M6660 4525 c0 -8 5 -15 10 -15 6 0 10 7 10 15 0 8 -4 15 -10 15 -5 0
-10 -7 -10 -15z"/>
<path d="M6945 4530 c-3 -5 1 -10 9 -10 9 0 16 5 16 10 0 6 -4 10 -9 10 -6 0
-13 -4 -16 -10z"/>
<path d="M6863 4523 c9 -2 23 -2 30 0 6 3 -1 5 -18 5 -16 0 -22 -2 -12 -5z"/>
<path d="M7350 4520 c0 -5 4 -10 9 -10 6 0 13 5 16 10 3 6 -1 10 -9 10 -9 0
-16 -4 -16 -10z"/>
<path d="M20088 4523 c6 -2 18 -2 25 0 6 3 1 5 -13 5 -14 0 -19 -2 -12 -5z"/>
<path d="M20155 4490 c-3 -5 -1 -10 4 -10 6 0 11 5 11 10 0 6 -2 10 -4 10 -3
0 -8 -4 -11 -10z"/>
<path d="M7130 4480 c0 -5 5 -10 10 -10 6 0 10 5 10 10 0 6 -4 10 -10 10 -5 0
-10 -4 -10 -10z"/>
<path d="M7266 4479 c3 -6 0 -15 -7 -20 -10 -6 -10 -9 -2 -9 7 0 17 9 23 20 9
16 8 20 -5 20 -9 0 -13 -5 -9 -11z"/>
<path d="M8208 4483 c7 -3 16 -2 19 1 4 3 -2 6 -13 5 -11 0 -14 -3 -6 -6z"/>
<path d="M6695 4470 c4 -6 11 -8 16 -5 14 9 11 15 -7 15 -8 0 -12 -5 -9 -10z"/>
<path d="M7018 4473 c7 -3 16 -2 19 1 4 3 -2 6 -13 5 -11 0 -14 -3 -6 -6z"/>
<path d="M7190 4460 c0 -5 5 -10 11 -10 5 0 7 5 4 10 -3 6 -8 10 -11 10 -2 0
-4 -4 -4 -10z"/>
<path d="M7718 4453 c7 -3 16 -2 19 1 4 3 -2 6 -13 5 -11 0 -14 -3 -6 -6z"/>
<path d="M20105 4450 c-3 -5 -2 -10 4 -10 5 0 13 5 16 10 3 6 2 10 -4 10 -5 0
-13 -4 -16 -10z"/>
<path d="M8320 4430 c-21 -7 -17 -8 20 -9 32 0 41 2 30 9 -17 11 -16 11 -50 0z"/>
<path d="M19300 4426 c0 -2 7 -6 15 -10 8 -3 15 -1 15 4 0 6 -7 10 -15 10 -8
0 -15 -2 -15 -4z"/>
<path d="M19995 4410 c-3 -5 1 -10 10 -10 9 0 13 5 10 10 -3 6 -8 10 -10 10
-2 0 -7 -4 -10 -10z"/>
<path d="M20195 4410 c-3 -6 1 -7 9 -4 18 7 21 14 7 14 -6 0 -13 -4 -16 -10z"/>
<path d="M9908 4403 c7 -3 16 -2 19 1 4 3 -2 6 -13 5 -11 0 -14 -3 -6 -6z"/>
<path d="M17288 4403 c12 -2 30 -2 40 0 9 3 -1 5 -23 4 -22 0 -30 -2 -17 -4z"/>
<path d="M18905 4400 c3 -5 8 -10 11 -10 2 0 4 5 4 10 0 6 -5 10 -11 10 -5 0
-7 -4 -4 -10z"/>
<path d="M19515 4400 c3 -5 13 -10 21 -10 8 0 14 5 14 10 0 6 -9 10 -21 10
-11 0 -17 -4 -14 -10z"/>
<path d="M7528 4383 c7 -3 16 -2 19 1 4 3 -2 6 -13 5 -11 0 -14 -3 -6 -6z"/>
<path d="M19215 4381 c-5 -9 13 -18 54 -26 29 -5 26 2 -9 20 -34 18 -37 18
-45 6z"/>
<path d="M19570 4375 c7 -8 17 -15 22 -15 6 0 5 7 -2 15 -7 8 -17 15 -22 15
-6 0 -5 -7 2 -15z"/>
<path d="M17306 4372 c-7 -11 26 -22 67 -22 19 0 27 4 25 13 -5 14 -84 22 -92
9z"/>
<path d="M17956 4367 c3 -10 9 -15 12 -12 3 3 0 11 -7 18 -10 9 -11 8 -5 -6z"/>
<path d="M18450 4370 c0 -6 5 -10 12 -8 7 3 20 -3 30 -11 10 -9 32 -16 47 -16
35 0 32 4 -17 23 -64 23 -72 25 -72 12z"/>
<path d="M18578 4368 c9 -9 15 -9 24 0 9 9 7 12 -12 12 -19 0 -21 -3 -12 -12z"/>
<path d="M18720 4376 c0 -2 7 -6 15 -10 8 -3 15 -1 15 4 0 6 -7 10 -15 10 -8
0 -15 -2 -15 -4z"/>
<path d="M18950 4376 c0 -9 30 -14 35 -6 4 6 -3 10 -14 10 -12 0 -21 -2 -21
-4z"/>
<path d="M19450 4370 c0 -5 12 -10 28 -10 21 0 24 2 12 10 -20 13 -40 13 -40
0z"/>
<path d="M6518 4363 c7 -3 16 -2 19 1 4 3 -2 6 -13 5 -11 0 -14 -3 -6 -6z"/>
<path d="M6560 4360 c0 -5 5 -10 10 -10 6 0 10 5 10 10 0 6 -4 10 -10 10 -5 0
-10 -4 -10 -10z"/>
<path d="M17839 4359 c-10 -6 -4 -9 19 -9 17 0 32 2 32 4 0 9 -39 13 -51 5z"/>
<path d="M19383 4363 c9 -2 23 -2 30 0 6 3 -1 5 -18 5 -16 0 -22 -2 -12 -5z"/>
<path d="M15983 4353 c9 -2 23 -2 30 0 6 3 -1 5 -18 5 -16 0 -22 -2 -12 -5z"/>
<path d="M6699 4339 c-10 -6 -7 -9 14 -9 29 0 35 5 14 13 -8 3 -20 1 -28 -4z"/>
<path d="M16348 4343 c7 -3 16 -2 19 1 4 3 -2 6 -13 5 -11 0 -14 -3 -6 -6z"/>
<path d="M17798 4343 c7 -3 16 -2 19 1 4 3 -2 6 -13 5 -11 0 -14 -3 -6 -6z"/>
<path d="M7230 4336 c0 -2 9 -6 20 -9 11 -3 20 -1 20 4 0 5 -9 9 -20 9 -11 0
-20 -2 -20 -4z"/>
<path d="M7048 4323 c7 -3 16 -2 19 1 4 3 -2 6 -13 5 -11 0 -14 -3 -6 -6z"/>
<path d="M17128 4313 c7 -3 16 -2 19 1 4 3 -2 6 -13 5 -11 0 -14 -3 -6 -6z"/>
<path d="M17723 4304 c0 -5 14 -9 31 -7 17 2 25 0 19 -3 -7 -3 -13 -9 -13 -14
0 -11 52 -3 84 14 28 14 26 14 -46 18 -48 2 -75 -1 -75 -8z"/>
<path d="M17982 4304 c-7 -8 -8 -14 -3 -14 10 0 25 19 20 25 -2 1 -10 -3 -17
-11z"/>
<path d="M9697 4299 c7 -7 15 -10 18 -7 3 3 -2 9 -12 12 -14 6 -15 5 -6 -5z"/>
<path d="M17940 4300 c0 -5 5 -10 10 -10 6 0 10 5 10 10 0 6 -4 10 -10 10 -5
0 -10 -4 -10 -10z"/>
<path d="M6928 4283 c7 -3 16 -2 19 1 4 3 -2 6 -13 5 -11 0 -14 -3 -6 -6z"/>
<path d="M8041 4274 c0 -11 3 -14 6 -6 3 7 2 16 -1 19 -3 4 -6 -2 -5 -13z"/>
<path d="M8158 4283 c7 -3 16 -2 19 1 4 3 -2 6 -13 5 -11 0 -14 -3 -6 -6z"/>
<path d="M11763 4283 c9 -2 25 -2 35 0 9 3 1 5 -18 5 -19 0 -27 -2 -17 -5z"/>
<path d="M8380 4268 c0 -4 4 -8 9 -8 6 0 12 4 15 8 3 5 -1 9 -9 9 -8 0 -15 -4
-15 -9z"/>
<path d="M16825 4263 c21 -15 45 -17 45 -4 0 5 -14 11 -32 13 -28 5 -29 4 -13
-9z"/>
<path d="M17018 4273 c7 -3 16 -2 19 1 4 3 -2 6 -13 5 -11 0 -14 -3 -6 -6z"/>
<path d="M8215 4260 c-4 -6 6 -10 24 -10 16 0 33 5 36 10 4 6 -6 10 -24 10
-16 0 -33 -4 -36 -10z"/>
<path d="M17970 4260 c0 -6 7 -10 15 -10 8 0 15 2 15 4 0 2 -7 6 -15 10 -8 3
-15 1 -15 -4z"/>
<path d="M8600 4251 c0 -6 4 -12 8 -15 5 -3 9 1 9 9 0 8 -4 15 -9 15 -4 0 -8
-4 -8 -9z"/>
<path d="M17310 4250 c20 -13 33 -13 25 0 -3 6 -14 10 -23 10 -15 0 -15 -2 -2
-10z"/>
<path d="M8485 4240 c-19 -8 -19 -9 3 -9 12 -1 22 4 22 9 0 6 -1 10 -2 9 -2 0
-12 -4 -23 -9z"/>
<path d="M8630 4231 c0 -5 14 -8 31 -6 45 6 49 15 6 15 -20 0 -37 -4 -37 -9z"/>
<path d="M8718 4233 c7 -3 16 -2 19 1 4 3 -2 6 -13 5 -11 0 -14 -3 -6 -6z"/>
<path d="M16330 4231 c0 -13 25 -20 39 -11 10 5 8 9 -4 14 -23 8 -35 8 -35 -3z"/>
<path d="M16170 4220 c0 -6 7 -10 15 -10 8 0 15 2 15 4 0 2 -7 6 -15 10 -8 3
-15 1 -15 -4z"/>
<path d="M8528 4213 c7 -3 16 -2 19 1 4 3 -2 6 -13 5 -11 0 -14 -3 -6 -6z"/>
<path d="M14894 4208 c-6 -10 29 -9 71 2 26 7 23 8 -18 7 -26 0 -50 -4 -53 -9z"/>
<path d="M16128 4213 c6 -2 18 -2 25 0 6 3 1 5 -13 5 -14 0 -19 -2 -12 -5z"/>
<path d="M14828 4203 c6 -2 18 -2 25 0 6 3 1 5 -13 5 -14 0 -19 -2 -12 -5z"/>
<path d="M9315 4180 c-3 -5 -2 -10 4 -10 5 0 13 5 16 10 3 6 2 10 -4 10 -5 0
-13 -4 -16 -10z"/>
<path d="M14738 4183 c7 -3 16 -2 19 1 4 3 -2 6 -13 5 -11 0 -14 -3 -6 -6z"/>
<path d="M15215 4180 c-3 -5 -1 -10 4 -10 6 0 11 5 11 10 0 6 -2 10 -4 10 -3
0 -8 -4 -11 -10z"/>
<path d="M9270 4170 c0 -5 5 -10 10 -10 6 0 10 5 10 10 0 6 -4 10 -10 10 -5 0
-10 -4 -10 -10z"/>
<path d="M15254 4165 c14 -10 24 -11 38 -4 10 5 23 7 28 4 6 -3 10 -1 10 4 0
6 -21 11 -47 11 -44 -1 -46 -2 -29 -15z"/>
<path d="M9678 4163 c7 -3 16 -2 19 1 4 3 -2 6 -13 5 -11 0 -14 -3 -6 -6z"/>
<path d="M10460 4159 c0 -5 5 -7 10 -4 6 3 10 8 10 11 0 2 -4 4 -10 4 -5 0
-10 -5 -10 -11z"/>
<path d="M10850 4160 c0 -5 5 -10 11 -10 5 0 7 5 4 10 -3 6 -8 10 -11 10 -2 0
-4 -4 -4 -10z"/>
<path d="M13413 4163 c15 -2 39 -2 55 0 15 2 2 4 -28 4 -30 0 -43 -2 -27 -4z"/>
<path d="M14565 4160 c-3 -5 3 -10 14 -10 11 0 23 5 26 10 3 6 -3 10 -14 10
-11 0 -23 -4 -26 -10z"/>
<path d="M14479 4155 c-3 -2 -54 -9 -114 -15 -60 -5 -113 -14 -118 -19 -12
-12 39 -9 183 9 105 13 156 30 89 30 -20 0 -38 -2 -40 -5z"/>
<path d="M11633 4143 c9 -2 25 -2 35 0 9 3 1 5 -18 5 -19 0 -27 -2 -17 -5z"/>
<path d="M12560 4140 c34 -11 60 -11 35 0 -11 5 -29 8 -40 8 -16 0 -15 -2 5
-8z"/>
<path d="M13708 4143 c7 -3 16 -2 19 1 4 3 -2 6 -13 5 -11 0 -14 -3 -6 -6z"/>
<path d="M14930 4140 c0 -5 12 -10 28 -10 21 0 24 2 12 10 -20 13 -40 13 -40
0z"/>
<path d="M12633 4133 c9 -2 23 -2 30 0 6 3 -1 5 -18 5 -16 0 -22 -2 -12 -5z"/>
<path d="M10508 4113 c7 -3 16 -2 19 1 4 3 -2 6 -13 5 -11 0 -14 -3 -6 -6z"/>
<path d="M11455 4100 c-4 -7 3 -8 22 -4 38 9 42 14 10 14 -14 0 -29 -5 -32
-10z"/>
<path d="M11638 4103 c6 -2 18 -2 25 0 6 3 1 5 -13 5 -14 0 -19 -2 -12 -5z"/>
<path d="M11918 4103 c6 -2 18 -2 25 0 6 3 1 5 -13 5 -14 0 -19 -2 -12 -5z"/>
<path d="M12580 4106 c0 -2 7 -7 16 -10 8 -3 12 -2 9 4 -6 10 -25 14 -25 6z"/>
<path d="M14466 4102 c-3 -5 1 -9 9 -9 8 0 12 4 9 9 -3 4 -7 8 -9 8 -2 0 -6
-4 -9 -8z"/>
<path d="M13370 4090 c-13 -8 -12 -10 3 -10 9 0 17 5 17 10 0 12 -1 12 -20 0z"/>
</g>
</svg>
