<?xml version="1.0" standalone="no"?>
<!DOCTYPE svg PUBLIC "-//W3C//DTD SVG 20010904//EN"
 "http://www.w3.org/TR/2001/REC-SVG-20010904/DTD/svg10.dtd">
<svg version="1.0" xmlns="http://www.w3.org/2000/svg"
 width="264.000000pt" height="227.000000pt" viewBox="0 0 264.000000 227.000000"
 preserveAspectRatio="xMidYMid meet">
<metadata>
Created by potrace 1.11, written by Peter Selinger 2001-2013
</metadata>
<g transform="translate(0.000000,227.000000) scale(0.100000,-0.100000)"
fill="#000000" stroke="none">
<path d="M1460 2215 c0 -3 9 -24 20 -45 27 -53 37 -125 19 -146 -7 -9 -48 -33
-91 -55 -114 -57 -145 -123 -99 -209 56 -106 186 -107 269 -2 53 67 62 95 62
184 0 91 -22 153 -75 216 -34 41 -105 79 -105 57z"/>
<path d="M1140 2173 c-86 -45 -125 -186 -83 -309 24 -72 121 -167 193 -188
102 -30 122 -15 54 40 -53 44 -78 87 -70 120 3 12 29 49 56 80 56 64 65 88 56
142 -15 94 -126 156 -206 115z"/>
<path d="M1813 2015 c-51 -22 -124 -95 -149 -150 -42 -88 -27 -240 30 -310 13
-16 28 -26 33 -22 4 5 10 45 12 89 3 77 4 80 35 99 19 12 49 19 81 19 73 0
120 16 149 51 52 62 27 190 -44 226 -33 17 -107 16 -147 -2z"/>
<path d="M692 2000 c-34 -14 -23 -30 34 -51 28 -11 63 -33 79 -49 32 -34 32
-34 -14 -161 -16 -44 -18 -64 -11 -89 26 -91 133 -136 219 -92 54 27 73 73 68
162 -4 87 -39 166 -92 206 -81 62 -224 99 -283 74z"/>
<path d="M2192 1814 c-5 -11 -15 -35 -21 -54 -14 -41 -38 -72 -68 -89 -17 -9
-31 -8 -65 5 -129 47 -134 48 -174 33 -20 -8 -51 -31 -68 -52 -26 -33 -31 -47
-31 -91 1 -101 76 -155 197 -142 159 16 278 162 266 327 -5 66 -20 93 -36 63z"/>
<path d="M541 1793 c-55 -29 -76 -66 -75 -131 0 -67 19 -107 76 -164 60 -60
117 -82 213 -82 66 0 90 4 137 26 31 14 61 36 67 47 11 21 10 21 -69 21 -107
0 -125 16 -135 116 -12 131 -41 170 -130 180 -37 4 -59 0 -84 -13z"/>
<path d="M2102 1444 c-88 -32 -202 -170 -202 -243 0 -26 16 -60 23 -51 56 74
74 93 99 106 41 21 67 12 134 -46 58 -51 103 -68 150 -56 71 18 120 89 111
163 -6 58 -27 86 -84 114 -61 30 -168 36 -231 13z"/>
<path d="M449 1415 c-62 -20 -138 -72 -166 -114 -38 -57 -26 -65 48 -31 44 20
94 25 124 14 9 -4 34 -44 56 -89 21 -45 49 -90 62 -98 40 -26 89 -30 135 -12
82 33 118 108 87 181 -50 121 -214 192 -346 149z"/>
<path d="M2004 1196 c-33 -15 -77 -66 -88 -103 -19 -63 48 -164 140 -209 127
-62 331 -6 390 108 20 38 12 46 -29 29 -18 -7 -53 -18 -79 -24 -64 -15 -90 4
-133 98 -19 43 -44 80 -59 90 -35 23 -104 29 -142 11z"/>
<path d="M384 1116 c-67 -30 -103 -129 -70 -197 39 -83 184 -122 300 -83 119
41 241 219 195 284 -8 12 -12 12 -16 2 -10 -24 -54 -71 -87 -91 -43 -27 -89
-15 -136 35 -62 64 -119 79 -186 50z"/>
<path d="M725 850 c-94 -23 -157 -76 -203 -169 -22 -46 -27 -69 -27 -133 0
-106 16 -119 50 -42 32 72 61 104 94 104 14 0 58 -12 98 -26 86 -32 125 -28
171 17 126 123 0 295 -183 249z"/>
<path d="M1859 845 c-47 -15 -99 -55 -99 -76 0 -8 16 -10 58 -5 108 12 152
-24 152 -126 0 -80 32 -138 91 -162 64 -26 112 -16 160 33 48 48 56 80 35 145
-25 77 -75 139 -138 170 -68 33 -190 43 -259 21z"/>
<path d="M990 676 c0 -68 -2 -76 -29 -105 -27 -28 -35 -31 -93 -31 -119 -1
-180 -50 -180 -146 0 -85 61 -150 140 -148 80 1 185 73 228 156 25 48 30 171
10 240 -15 54 -49 108 -67 108 -5 0 -9 -33 -9 -74z"/>
<path d="M1732 719 c-57 -29 -72 -60 -72 -157 0 -95 29 -162 93 -217 75 -65
204 -99 270 -72 38 16 50 37 21 37 -30 0 -127 55 -137 77 -11 25 -3 70 28 153
21 57 14 105 -22 142 -30 32 -83 58 -117 58 -11 0 -40 -10 -64 -21z"/>
<path d="M1383 613 c-21 -8 -15 -19 27 -48 51 -35 84 -87 76 -119 -3 -14 -28
-51 -56 -83 -29 -33 -53 -72 -56 -91 -10 -51 11 -107 53 -141 77 -63 162 -46
218 44 27 44 30 56 30 134 0 65 -5 96 -20 126 -51 104 -206 205 -272 178z"/>
<path d="M1208 580 c-69 -37 -138 -156 -138 -240 0 -34 27 -125 50 -170 33
-64 115 -129 136 -108 2 3 -7 29 -21 59 -28 60 -32 106 -12 134 8 10 47 34 88
54 89 44 114 74 114 141 0 55 -21 91 -75 128 -41 27 -92 28 -142 2z"/>
</g>
</svg>
