<?xml version="1.0" standalone="no"?>
<!DOCTYPE svg PUBLIC "-//W3C//DTD SVG 20010904//EN"
 "http://www.w3.org/TR/2001/REC-SVG-20010904/DTD/svg10.dtd">
<svg version="1.0" xmlns="http://www.w3.org/2000/svg"
 width="1920.000000pt" height="1080.000000pt" viewBox="0 0 1920.000000 1080.000000"
 preserveAspectRatio="xMidYMid meet">
<metadata>
Created by potrace 1.11, written by Peter Selinger 2001-2013
</metadata>
<g transform="translate(0.000000,1080.000000) scale(0.100000,-0.100000)"
fill="#000000" stroke="none">
<path d="M0 10760 c0 -40 0 -40 389 -40 302 0 390 -3 394 -12 4 -9 8 -9 14 -3
12 15 83 13 83 -2 0 -7 -8 -13 -17 -13 -15 0 -16 -2 -3 -10 11 -7 5 -10 -22
-10 -42 0 -47 -6 -20 -26 16 -12 16 -14 -1 -31 -9 -9 -17 -13 -17 -7 0 6 -13
9 -32 6 -26 -4 -30 -2 -25 12 4 10 1 16 -8 16 -14 0 -22 -45 -15 -89 1 -13 -1
-13 -15 -1 -12 10 -19 10 -27 2 -7 -7 -25 -12 -40 -12 -21 0 -28 -4 -26 -16 2
-10 -9 -23 -27 -33 -24 -13 -29 -22 -27 -43 2 -16 -1 -28 -6 -28 -11 0 -32
-89 -35 -150 -1 -25 -7 -46 -12 -47 -6 -2 -10 33 -10 86 1 78 -2 90 -17 94
-11 3 -18 15 -18 30 0 13 -8 31 -17 38 -9 8 -14 9 -10 3 7 -13 -13 -74 -25
-74 -4 0 -8 -11 -8 -25 0 -16 6 -25 15 -25 23 0 18 -17 -7 -24 -36 -9 -36 -9
-59 45 -14 31 -25 46 -29 38 -4 -6 -13 -9 -19 -5 -14 9 -2 -26 13 -36 12 -8
12 -8 -34 -31 -35 -18 -35 -18 3 -13 22 3 35 1 32 -5 -4 -5 0 -23 9 -39 16
-34 3 -42 -15 -9 -11 22 -11 22 -34 -5 -12 -14 -29 -24 -37 -21 -9 4 -14 -2
-15 -15 -1 -11 3 -20 9 -20 5 0 7 -7 4 -16 -4 -9 -2 -22 4 -28 7 -9 2 -11 -20
-8 -18 3 -30 0 -30 -7 0 -6 -8 -11 -17 -11 -15 0 -14 4 6 19 15 11 21 23 16
31 -4 7 -2 16 6 21 12 8 11 12 -4 23 -13 10 -17 21 -12 35 4 12 2 21 -4 21 -6
0 -11 -8 -11 -18 0 -28 -11 -34 -27 -14 -12 16 -14 16 -24 0 -5 -10 -17 -18
-24 -18 -9 0 -15 -10 -15 -24 0 -13 -7 -30 -16 -37 -13 -11 -17 -10 -25 4 -20
35 -36 19 -38 -38 -1 -50 11 -73 22 -42 2 6 8 8 13 4 5 -5 -1 -16 -14 -25 -22
-17 -22 -17 -22 -3404 0 -2691 3 -3387 13 -3391 9 -4 9 -6 0 -6 -10 -1 -13
-57 -13 -246 0 -248 1 -253 35 -245 34 7 61 7 66 -2 4 -7 19 -6 42 1 27 9 41
9 57 1 11 -6 28 -9 38 -6 9 3 30 2 46 -2 16 -4 53 -5 83 -2 29 3 56 4 59 1 7
-7 454 -8 454 -1 0 3 39 4 87 2 49 -1 293 -4 543 -7 250 -3 552 -6 670 -8 118
-1 220 1 226 5 6 4 25 3 42 -2 20 -5 32 -5 32 1 0 5 10 7 23 4 12 -3 168 -8
347 -10 179 -3 332 -5 340 -6 8 -1 78 -1 155 -1 77 1 199 1 272 1 73 -1 136 2
142 5 5 3 16 -1 24 -9 17 -16 37 -20 37 -7 0 5 15 8 33 8 17 0 84 3 147 7 63
4 129 3 146 -2 20 -6 43 -4 67 4 31 10 39 10 49 -2 7 -9 20 -12 32 -8 12 3
270 8 575 11 305 3 558 7 562 10 4 2 10 0 14 -6 3 -5 22 -10 41 -10 27 0 34 4
34 20 0 24 25 27 38 4 11 -20 81 -51 105 -46 9 2 17 10 17 18 0 8 6 14 13 14
22 0 52 33 55 60 1 14 6 26 11 28 5 2 5 19 0 40 -5 20 -11 79 -14 131 -3 52
-10 100 -16 107 -6 8 -6 35 0 80 13 89 23 268 22 367 -2 90 -2 104 3 137 1 14
4 64 4 113 2 65 5 87 15 87 23 0 45 -95 63 -265 2 -27 9 -81 14 -120 11 -79
21 -194 20 -243 0 -17 4 -32 9 -32 22 0 22 -47 1 -83 -15 -26 -19 -45 -15 -69
4 -21 1 -44 -9 -63 -9 -17 -16 -55 -16 -88 0 -79 -18 -147 -39 -147 -14 0 -14
-2 -1 -10 12 -7 13 -15 3 -40 -7 -17 -9 -38 -6 -45 2 -8 -2 -36 -11 -62 -8
-26 -20 -91 -26 -143 -6 -52 -16 -106 -21 -119 -5 -13 -12 -49 -14 -80 -3 -31
-14 -146 -24 -256 -10 -110 -19 -222 -19 -250 0 -27 -3 -75 -7 -105 -26 -222
-17 -1042 15 -1347 6 -51 10 -136 10 -189 0 -54 5 -113 12 -131 12 -33 12 -33
685 -33 634 0 673 1 673 18 0 40 -66 514 -75 539 -2 7 -7 52 -10 100 -4 48 -9
95 -12 103 -2 8 -9 51 -13 95 -5 44 -18 141 -30 215 -12 74 -27 182 -35 240
-8 58 -26 170 -40 250 -15 80 -32 179 -40 220 -18 104 -72 364 -89 430 -23 86
-66 233 -76 255 -4 11 -23 67 -41 125 -17 58 -36 109 -40 115 -5 5 -9 18 -9
30 0 11 -6 30 -14 41 -8 11 -18 38 -22 60 -4 21 -16 59 -26 84 -11 25 -24 54
-28 65 -5 11 -18 43 -30 70 -25 59 -57 159 -62 195 -2 14 -6 27 -9 30 -12 10
-25 167 -16 201 9 37 33 69 51 69 9 0 27 -54 51 -158 6 -27 54 -120 64 -127 4
-2 6 -18 5 -34 -2 -25 2 -31 19 -32 17 -1 18 -2 5 -6 -24 -6 -23 -20 2 -33 11
-6 20 -16 18 -23 -3 -19 22 -87 48 -125 15 -21 22 -43 18 -54 -3 -10 0 -18 6
-18 6 0 18 -17 26 -37 8 -21 21 -50 29 -65 8 -14 15 -36 15 -48 0 -13 4 -19
11 -14 7 4 9 0 5 -14 -4 -11 -2 -23 4 -27 6 -3 8 -10 5 -15 -3 -5 -1 -11 5
-15 5 -3 10 -19 10 -35 0 -16 5 -32 10 -35 6 -4 8 -10 5 -15 -3 -5 0 -21 7
-37 6 -15 10 -33 9 -40 -1 -7 8 -32 20 -55 27 -52 49 -131 49 -175 0 -17 5
-35 11 -38 6 -4 8 -13 5 -21 -7 -18 14 -65 25 -58 5 3 9 -2 9 -11 0 -9 -4 -13
-10 -10 -12 8 -13 -8 -1 -20 11 -12 32 -145 25 -156 -2 -4 0 -10 6 -14 5 -3
10 -17 10 -30 0 -13 5 -27 10 -30 8 -5 8 -11 0 -20 -8 -9 -8 -15 0 -20 13 -8
13 -42 0 -47 -6 -2 -4 -18 4 -41 7 -20 14 -35 17 -33 2 2 5 -5 6 -17 7 -84 22
-179 30 -189 16 -20 24 -64 24 -134 1 -42 5 -64 12 -64 7 0 6 -4 -3 -10 -11
-7 -12 -13 -3 -32 12 -24 32 -150 58 -363 8 -66 22 -169 30 -230 9 -60 24
-182 35 -270 10 -88 21 -178 25 -200 3 -22 7 -62 10 -90 7 -83 15 -147 21
-156 3 -5 129 -9 280 -9 274 0 274 0 272 73 -1 40 2 79 6 86 4 7 12 67 17 134
5 67 13 156 19 197 6 41 13 99 16 129 3 30 10 63 15 73 5 10 9 35 8 56 -2 20
3 47 9 59 7 12 12 51 12 87 0 52 3 66 15 66 9 0 15 10 16 28 1 25 2 25 9 -7 4
-18 4 -47 0 -63 -5 -16 -6 -36 -3 -44 3 -8 0 -21 -6 -28 -7 -8 -11 -34 -10
-58 4 -75 -11 -148 -29 -149 -11 0 -9 -4 7 -10 23 -9 23 -10 6 -29 -14 -15
-15 -23 -6 -34 8 -9 10 -38 7 -83 -10 -151 -17 -303 -19 -390 -2 -93 -2 -93
655 -93 616 0 658 1 667 18 5 9 23 67 41 127 28 95 44 157 66 265 21 97 15
458 -10 630 -7 53 -80 343 -148 590 -11 41 -24 93 -28 115 -4 22 -19 85 -33
140 -14 55 -31 127 -37 160 -7 33 -16 80 -21 105 -24 124 -37 248 -39 369 -1
129 -17 232 -40 255 -5 5 -10 22 -10 36 0 40 -43 52 -92 27 -21 -10 -38 -23
-38 -28 0 -5 -7 -9 -15 -9 -9 0 -27 -12 -40 -26 -44 -47 -91 -2 -61 58 8 15
17 47 21 70 4 24 12 48 17 55 5 6 22 52 38 101 29 90 67 175 101 223 10 14 31
50 47 80 64 120 106 194 112 199 31 23 123 293 149 435 6 33 23 92 37 132 26
71 26 71 -1 117 -23 40 -28 64 -36 164 -14 184 -17 216 -24 235 -4 9 -2 23 4
31 11 13 5 49 -8 42 -3 -2 -7 17 -8 42 -1 34 0 40 6 22 7 -23 8 -24 13 -5 6
26 -17 119 -37 148 -8 12 -15 34 -15 50 0 23 -4 28 -16 23 -13 -5 -15 -1 -10
18 5 20 0 26 -28 40 -31 15 -54 47 -48 69 1 4 -2 7 -8 7 -10 0 -45 60 -42 72
1 5 -7 17 -19 29 -11 11 -27 36 -35 55 -9 22 -21 34 -34 34 -11 0 -20 -4 -20
-10 0 -5 -10 -10 -21 -10 -17 0 -20 4 -15 23 4 12 9 38 13 57 3 19 19 64 34
99 43 95 40 103 -24 76 -20 -8 -57 -15 -82 -15 -43 0 -45 1 -45 30 0 17 -4 30
-10 30 -5 0 -16 13 -24 28 -8 16 -31 45 -51 65 -31 31 -39 35 -75 30 -37 -5
-40 -4 -41 18 -1 24 -1 24 -9 -1 -7 -23 -8 -23 -9 -3 -1 12 4 25 9 28 6 3 10
15 10 25 0 10 13 47 30 82 55 115 37 124 -108 55 -15 -7 -32 -7 -50 -1 -23 8
-27 15 -27 46 0 27 -3 34 -12 26 -6 -5 -13 -19 -15 -31 -2 -17 -11 -23 -37
-25 -33 -3 -33 -3 -27 75 4 43 18 119 32 168 40 148 31 184 -43 185 -15 0 -36
7 -46 14 -16 13 -16 14 -1 20 22 8 5 28 -28 33 -35 6 -41 18 -13 31 22 10 28
9 46 -9 11 -11 24 -18 27 -14 11 10 -14 40 -37 43 -11 2 -21 10 -21 17 0 18
17 28 25 15 3 -5 1 -10 -6 -10 -7 0 -10 -3 -7 -6 8 -8 78 7 78 16 0 5 -8 11
-18 13 -13 4 -13 5 4 6 12 0 27 7 33 15 10 12 3 12 -38 -2 -43 -13 -53 -14
-64 -2 -9 9 -9 11 0 6 7 -4 24 -4 38 0 24 6 24 7 8 20 -15 11 -15 14 -3 15 48
6 81 9 134 10 48 2 60 6 64 21 3 11 13 18 29 18 13 0 31 7 40 16 12 11 26 14
54 9 32 -6 39 -4 39 9 0 9 5 16 10 16 6 0 15 11 20 25 5 14 17 25 28 25 10 0
27 7 38 15 18 14 18 16 2 29 -24 18 -23 29 1 21 14 -4 21 1 29 25 11 31 27 39
35 18 3 -7 6 -3 6 10 1 23 15 30 26 11 12 -19 29 -3 30 27 0 25 4 29 33 32 20
2 32 9 32 18 0 8 6 14 14 14 22 0 41 29 28 42 -20 20 -14 36 12 31 32 -7 40
11 22 49 -21 41 -21 41 16 36 22 -4 38 1 52 13 11 11 27 17 38 13 13 -4 16 -1
12 10 -3 9 -12 16 -19 16 -14 0 -29 29 -20 38 3 3 13 -3 24 -12 12 -11 21 -14
26 -7 3 6 1 11 -4 11 -6 0 -11 5 -11 10 0 6 6 10 14 10 7 0 25 9 39 20 15 12
32 17 42 14 14 -6 16 -3 10 14 -6 22 4 26 53 25 18 -1 15 17 -5 25 -14 5 -12
8 12 12 23 4 30 11 30 29 0 13 6 26 14 29 8 3 11 0 7 -7 -5 -7 -1 -9 8 -5 18
7 22 24 5 24 -5 0 -7 5 -4 10 4 7 12 7 25 0 28 -15 32 -13 26 18 -8 35 18 68
64 80 19 6 27 11 18 11 -19 1 -26 22 -23 71 2 32 5 35 38 41 21 3 45 13 54 21
27 23 54 32 98 32 27 1 39 5 37 14 -2 13 25 29 34 19 3 -3 1 -14 -4 -24 -12
-22 0 -49 17 -39 6 4 11 14 11 22 0 8 5 14 10 14 6 0 10 6 10 14 0 32 31 48
79 41 25 -4 51 -11 58 -17 7 -5 16 -7 21 -4 5 3 9 -1 9 -9 0 -8 -6 -15 -14
-15 -7 0 -13 5 -13 10 0 22 -18 8 -23 -17 -4 -21 0 -33 18 -48 22 -19 41 -66
36 -93 -1 -8 7 -16 18 -19 12 -3 21 -9 21 -13 0 -4 21 -10 47 -13 33 -3 52
-12 64 -28 25 -32 24 -36 -11 -42 -38 -8 -39 -26 -1 -33 17 -4 32 -12 35 -19
2 -7 28 -16 56 -20 42 -6 49 -9 39 -21 -7 -8 -7 -14 -1 -14 5 0 15 7 23 16 8
10 21 13 36 9 13 -3 23 -1 23 5 0 5 5 10 10 10 6 0 10 -7 10 -16 0 -15 23 -44
35 -44 3 0 3 9 0 20 -4 12 -2 20 5 20 12 0 56 -38 49 -42 -33 -21 -52 -28 -59
-23 -6 4 -10 -1 -10 -10 0 -12 6 -15 20 -10 16 5 20 2 20 -14 0 -14 -6 -21
-19 -21 -22 0 -45 -25 -36 -40 3 -5 13 -10 21 -10 7 0 19 -9 26 -20 7 -11 23
-20 36 -20 13 0 33 -5 44 -11 11 -6 36 -11 54 -11 23 0 38 -6 44 -18 14 -26
12 -33 -6 -26 -9 4 -22 2 -28 -3 -11 -9 -17 -11 -38 -11 -6 0 -2 -10 9 -22 11
-13 23 -31 26 -40 4 -11 17 -18 31 -18 15 0 26 7 29 18 3 9 5 4 6 -13 1 -25 5
-30 28 -32 19 -1 22 1 12 8 -9 5 -10 9 -2 9 6 0 19 3 29 7 14 5 16 2 12 -19
-4 -23 -3 -24 19 -14 12 6 23 14 23 19 0 4 5 7 10 7 6 0 10 -9 10 -20 0 -25
-35 -44 -66 -36 -17 5 -24 2 -24 -9 0 -9 -10 -15 -22 -16 -20 -1 -20 -2 -4 -6
15 -4 16 -7 5 -14 -12 -8 -12 -11 1 -19 8 -5 22 -7 32 -4 9 2 20 -1 24 -7 4
-8 3 -9 -5 -5 -6 4 -14 0 -17 -9 -8 -20 24 -47 49 -41 15 4 17 -1 11 -30 -3
-19 -2 -34 3 -34 5 0 14 -14 20 -31 8 -21 17 -30 27 -26 8 3 20 -1 26 -9 10
-11 10 -14 -1 -14 -8 -1 -3 -7 11 -15 22 -12 26 -12 33 3 5 11 6 8 3 -11 -3
-23 1 -28 23 -34 14 -3 38 -12 52 -19 20 -10 36 -11 64 -3 27 8 40 8 44 0 8
-13 99 -31 118 -24 20 8 15 -11 -7 -24 -19 -13 -49 -8 -61 10 -8 11 -41 -22
-33 -34 3 -6 1 -16 -5 -23 -7 -9 -3 -33 14 -84 13 -40 29 -80 34 -90 5 -10 16
-57 25 -105 12 -69 13 -99 4 -147 -12 -62 -24 -76 -33 -37 -3 12 -14 60 -25
107 -11 47 -20 99 -20 115 0 17 -7 43 -15 59 -8 15 -13 32 -10 36 3 5 1 11 -5
15 -5 3 -10 16 -11 28 0 21 -1 21 -9 2 -5 -11 -9 -32 -9 -47 -1 -15 -10 -36
-22 -47 -21 -19 -20 -61 2 -61 5 0 9 -10 9 -23 0 -13 5 -28 12 -35 15 -15 20
-62 6 -62 -7 0 -7 -4 0 -13 7 -8 7 -17 -2 -28 -11 -17 -39 -15 -131 6 -24 5
-35 2 -49 -14 -19 -21 -19 -22 21 -96 68 -126 84 -169 74 -191 -12 -28 -24
-30 -41 -9 -7 8 -17 15 -22 15 -12 0 -78 -70 -78 -82 0 -5 -11 -21 -25 -36
-14 -15 -25 -35 -25 -44 0 -46 -83 -42 -150 7 -19 14 -44 25 -57 25 -34 0 -31
-50 6 -92 35 -41 48 -65 70 -133 15 -45 16 -55 4 -71 -11 -15 -16 -16 -22 -6
-9 15 -41 5 -41 -13 0 -7 -22 -46 -49 -87 -26 -41 -58 -101 -70 -134 -13 -32
-29 -66 -36 -74 -8 -8 -19 -38 -26 -65 -6 -28 -16 -60 -22 -72 -5 -11 -7 -25
-4 -30 3 -5 -3 -59 -13 -119 -10 -61 -21 -164 -25 -230 -6 -102 -10 -124 -31
-155 -29 -42 -33 -109 -10 -184 82 -276 166 -500 206 -550 32 -40 80 -114 80
-122 0 -5 14 -25 31 -44 17 -19 41 -54 54 -79 13 -25 32 -55 43 -68 58 -66
214 -428 215 -499 1 -24 -3 -47 -8 -52 -14 -13 -99 29 -141 70 -32 31 -35 32
-52 16 -10 -9 -26 -17 -35 -17 -9 0 -23 -13 -32 -29 -12 -24 -15 -72 -15 -248
1 -190 -3 -237 -25 -363 -30 -173 -60 -315 -73 -351 -6 -14 -18 -57 -27 -95
-19 -80 -30 -120 -86 -309 -93 -314 -118 -470 -120 -726 -1 -251 38 -449 128
-661 16 -38 16 -38 631 -38 614 0 614 0 607 218 -4 119 -10 237 -12 262 -3 25
-6 79 -6 120 -1 41 -5 80 -10 87 -4 6 -3 14 3 18 7 4 7 12 0 25 -6 11 -9 38
-8 62 1 24 -3 70 -8 103 -5 33 -8 97 -6 143 1 45 -2 82 -7 82 -8 0 -18 55 -26
160 -3 30 -8 66 -12 80 -4 14 -7 32 -8 40 -9 118 -19 201 -26 205 -7 5 -25
126 -22 155 1 8 -5 39 -13 69 -16 63 -18 111 -5 111 12 0 32 -110 34 -182 1
-32 5 -58 9 -58 9 0 27 -67 26 -100 0 -35 24 -160 31 -160 4 0 6 -19 5 -43 -1
-23 3 -57 8 -75 14 -45 18 -81 24 -189 3 -51 10 -93 14 -93 5 0 11 -26 15 -57
4 -32 9 -65 12 -73 3 -8 7 -28 8 -45 2 -16 10 -70 18 -120 9 -49 23 -164 31
-255 9 -91 21 -208 27 -260 6 -52 11 -120 13 -150 1 -31 6 -61 10 -68 5 -9 75
-12 266 -12 295 0 271 -9 275 101 2 37 7 82 13 100 6 19 16 81 22 139 6 58 13
119 16 135 3 17 9 65 14 107 5 43 12 82 15 88 4 6 9 32 11 58 9 90 25 227 29
247 2 11 7 36 10 55 2 19 10 67 16 105 6 39 12 93 14 120 1 28 9 64 18 82 10
18 17 54 17 81 0 30 6 54 14 61 11 9 21 74 29 188 1 11 5 19 8 17 9 -5 19 34
19 74 0 18 9 78 21 133 11 54 18 103 14 108 -3 5 -1 12 5 16 5 3 10 19 10 36
0 18 5 29 14 29 9 0 16 19 20 58 4 32 13 68 21 79 14 19 13 22 -2 26 -17 4
-17 5 0 6 12 1 17 10 17 31 0 17 4 30 8 30 5 0 9 21 10 46 0 26 6 50 12 54 7
4 9 13 6 19 -4 6 3 33 15 59 14 27 23 67 24 96 1 29 6 51 13 54 7 2 12 22 12
45 0 31 5 45 19 54 11 7 22 27 26 45 10 50 37 118 46 118 5 0 9 7 9 15 0 9 13
41 30 72 16 31 30 69 30 85 0 16 11 44 25 62 14 18 25 40 25 49 0 9 4 18 9 22
5 3 17 29 25 59 9 29 22 59 30 65 7 6 16 32 20 58 3 27 15 57 27 69 16 17 21
35 21 69 -1 38 2 45 18 45 26 0 62 -54 67 -103 3 -23 0 -67 -6 -97 -7 -30 -17
-77 -22 -105 -6 -27 -14 -54 -19 -60 -6 -8 -23 -65 -24 -87 -1 -3 -4 -10 -9
-14 -4 -4 -7 -15 -7 -25 0 -10 -12 -46 -26 -81 -33 -79 -36 -87 -69 -178 -15
-41 -33 -88 -40 -105 -7 -16 -18 -46 -23 -65 -6 -19 -21 -64 -34 -100 -14 -36
-26 -69 -27 -75 -2 -5 -7 -20 -12 -33 -5 -13 -9 -28 -9 -33 0 -6 -18 -70 -39
-142 -22 -73 -46 -163 -55 -202 -55 -242 -75 -336 -81 -380 -4 -27 -11 -57
-15 -65 -5 -8 -11 -35 -14 -60 -3 -25 -19 -115 -36 -200 -17 -85 -44 -238 -60
-340 -17 -102 -37 -221 -45 -265 -20 -112 -43 -273 -55 -389 -5 -54 -12 -110
-15 -124 -2 -15 -11 -67 -20 -116 -8 -49 -15 -97 -15 -107 0 -18 23 -19 720
-19 720 0 720 0 721 58 1 76 6 152 23 372 25 303 37 629 36 935 0 158 -2 297
-5 309 -2 12 -6 77 -9 146 -12 255 -38 543 -55 600 -6 19 -14 76 -17 127 -4
51 -11 93 -15 93 -5 0 -9 10 -9 23 0 12 -12 72 -26 132 -14 61 -32 146 -40
189 -8 43 -21 100 -30 125 -9 28 -16 93 -17 166 -2 105 1 191 17 455 6 92 38
272 47 263 18 -19 41 -146 45 -243 5 -155 13 -268 24 -330 6 -31 11 -141 12
-245 1 -105 5 -198 10 -207 5 -10 3 -18 -4 -20 -17 -6 -17 -78 0 -78 17 0 15
-11 -5 -25 -17 -13 -9 -40 9 -29 6 4 13 3 17 -2 3 -5 21 -14 39 -21 29 -10 42
-9 90 9 48 18 60 19 90 8 19 -7 37 -8 41 -4 3 5 60 9 126 9 66 0 172 4 235 7
133 8 342 19 450 23 327 12 413 16 470 25 36 5 128 12 205 14 216 8 379 17
393 22 7 2 21 0 31 -5 11 -6 43 -4 91 6 86 18 132 22 320 26 84 2 147 8 168
16 26 11 38 11 62 1 18 -7 41 -9 57 -5 16 5 251 10 523 12 623 4 762 7 778 17
6 4 12 3 12 -2 0 -6 124 -10 318 -11 174 0 362 -3 417 -5 67 -3 105 -1 114 7
10 8 15 9 18 2 2 -7 22 -9 51 -5 28 3 67 0 97 -9 37 -10 64 -11 113 -4 35 5
65 6 68 1 3 -4 23 -8 45 -8 39 0 39 0 39 3930 0 3930 0 3930 -9600 3930 -9600
0 -9600 0 -9600 -40z m1020 -50 c0 -5 -11 -10 -25 -10 -14 0 -25 5 -25 10 0 6
11 10 25 10 14 0 25 -4 25 -10z m40 1 c0 -6 -4 -13 -10 -16 -5 -3 -10 1 -10 9
0 9 5 16 10 16 6 0 10 -4 10 -9z m12361 5 c5 -5 -8 -1158 -17 -1543 -6 -273
-6 -273 -50 -273 -31 0 -50 -6 -64 -20 -11 -11 -15 -20 -10 -20 6 0 10 -18 10
-41 0 -33 -3 -40 -17 -37 -14 3 -18 13 -18 48 0 45 0 45 -40 45 -29 0 -40 -4
-40 -15 0 -9 8 -14 21 -13 17 2 23 -4 26 -26 6 -38 0 -51 -22 -51 -10 0 -22
-5 -25 -10 -14 -22 -26 4 -23 48 3 47 3 47 -35 43 -22 -1 -55 -8 -75 -15 -35
-12 -37 -15 -39 -61 -2 -52 -10 -67 -22 -46 -6 10 -10 9 -15 -4 -5 -14 -14
-16 -51 -11 -36 6 -45 4 -45 -7 0 -9 14 -17 35 -21 30 -6 35 -11 35 -35 0 -21
-5 -28 -16 -27 -9 0 -19 -5 -21 -11 -3 -8 4 -13 16 -13 19 0 21 -6 21 -50 0
-58 -18 -74 -52 -44 -20 19 -21 19 -14 -3 6 -18 4 -20 -14 -16 -14 4 -20 14
-20 32 0 37 -10 44 -31 25 -17 -15 -19 -15 -28 7 -5 13 -14 43 -20 67 -7 23
-16 40 -21 37 -5 -3 -3 -24 6 -47 16 -46 18 -68 5 -68 -5 0 -12 16 -16 36 -6
34 -8 35 -22 21 -9 -9 -16 -30 -17 -48 -1 -33 -26 -55 -26 -24 0 12 -5 15 -16
11 -11 -4 -15 -2 -11 8 4 9 -2 17 -14 21 -10 4 -19 12 -19 18 0 18 -47 73 -55
65 -4 -4 7 -26 24 -50 17 -23 31 -48 31 -55 0 -7 5 -13 11 -13 6 0 9 -6 6 -12
-2 -7 -10 -12 -17 -10 -7 2 -17 -3 -22 -10 -7 -10 -11 -9 -23 6 -19 25 -35 12
-35 -28 0 -32 -2 -34 -45 -40 -24 -4 -47 -11 -50 -17 -10 -14 -45 -11 -45 5 0
23 -20 30 -34 11 -11 -16 -14 -15 -30 10 -13 20 -20 24 -26 15 -5 -9 -9 -9
-14 -1 -7 10 5 15 30 12 7 -1 11 24 10 74 -1 53 -5 75 -13 75 -9 0 -13 -20
-13 -66 0 -59 -2 -65 -18 -60 -21 7 -48 -18 -54 -49 -4 -24 -64 -40 -72 -19
-7 19 -26 18 -26 -1 0 -11 -8 -13 -32 -8 -18 3 -38 10 -45 15 -13 10 -27 -7
-18 -22 3 -5 1 -10 -6 -10 -8 0 -10 14 -6 43 8 61 -5 138 -25 151 -13 8 -22 6
-36 -8 -17 -14 -20 -31 -20 -99 -1 -57 -5 -85 -15 -92 -8 -5 -16 -17 -20 -25
-4 -10 -6 -8 -6 7 -1 12 4 23 10 25 9 3 8 14 -2 41 -10 29 -10 40 -1 49 16 16
15 28 -3 28 -19 0 -24 -13 -33 -75 -7 -47 -7 -47 -53 -50 -47 -3 -47 -3 -42
36 5 32 2 39 -11 39 -9 0 -16 -7 -16 -15 0 -8 -8 -15 -18 -15 -11 0 -27 -9
-37 -20 -20 -22 -45 -27 -45 -9 0 7 -8 18 -17 25 -12 9 -14 13 -5 14 7 0 10 5
7 10 -3 6 -2 10 2 10 5 0 9 9 10 20 1 11 -4 20 -13 20 -12 0 -19 -19 -15 -43
1 -5 -4 -7 -11 -4 -7 2 -12 9 -11 15 2 6 -3 9 -11 6 -7 -3 -16 2 -19 10 -9 22
-34 20 -42 -3 -8 -26 -52 -16 -59 14 -6 22 -41 39 -58 29 -4 -3 -8 -18 -8 -34
0 -16 -4 -32 -10 -35 -5 -3 -7 -19 -4 -35 6 -26 4 -29 -27 -34 -28 -5 -76 -4
-146 3 -7 0 -13 7 -13 15 0 8 -6 16 -14 19 -17 7 -28 57 -12 58 6 0 2 4 -9 8
-26 11 -50 2 -36 -12 18 -18 13 -24 -26 -32 -21 -4 -44 -11 -50 -17 -9 -7 -13
-7 -13 0 0 6 5 14 10 17 6 3 10 15 10 27 0 14 -5 18 -15 14 -9 -3 -23 -2 -33
3 -9 5 -25 12 -36 15 -16 6 -18 13 -13 55 7 57 0 91 -18 91 -7 0 -15 3 -18 8
-5 9 1 -13 9 -33 4 -10 0 -15 -10 -15 -9 0 -16 -4 -16 -10 0 -5 7 -10 15 -10
9 0 12 -6 9 -15 -4 -8 -1 -15 5 -15 6 0 8 -7 5 -15 -4 -8 -15 -15 -26 -15 -14
0 -18 -5 -14 -15 8 -22 -37 -19 -58 4 -14 16 -15 23 -6 41 9 18 7 30 -10 68
-17 34 -19 51 -12 63 12 19 -10 59 -31 59 -15 0 -17 -40 -2 -40 5 0 2 -5 -7
-10 -13 -8 -16 -22 -13 -65 3 -49 1 -55 -16 -55 -11 0 -22 7 -25 15 -4 8 -11
15 -16 15 -6 0 -7 -7 -4 -15 3 -8 9 -22 13 -31 5 -14 2 -16 -20 -10 -31 7 -36
-3 -39 -86 -2 -57 -18 -84 -18 -32 0 22 -2 25 -15 14 -18 -15 -18 -16 -21 85
-5 170 -7 183 -31 188 -13 2 -23 3 -23 1 0 -1 -3 -9 -6 -18 -4 -11 -1 -16 10
-16 9 0 16 -4 16 -10 0 -13 -13 -13 -27 1 -8 8 -17 7 -34 -5 -31 -21 -65 -20
-74 2 -4 9 -8 50 -9 91 -1 50 -5 76 -13 79 -19 6 -16 20 5 18 13 -1 16 5 14
24 -5 33 -19 47 -33 33 -15 -15 -20 -104 -20 -320 1 -142 -2 -172 -14 -177
-20 -7 -19 -36 1 -36 8 0 13 -4 10 -9 -3 -5 -15 -7 -26 -4 -11 3 -18 9 -15 13
8 13 -6 40 -21 40 -8 0 -14 -7 -14 -15 0 -8 -7 -15 -15 -15 -8 0 -15 7 -15 15
0 8 -7 33 -16 55 -13 33 -23 41 -53 49 -37 9 -70 8 -129 -5 -29 -6 -34 -4 -39
15 -6 24 -28 28 -37 6 -16 -43 -24 4 -30 193 -5 164 -10 209 -21 218 -8 6 -15
23 -15 38 0 14 -5 26 -11 26 -8 0 -8 5 1 15 7 8 16 12 21 9 15 -9 22 25 11 49
-11 22 -11 22 -11 0 -1 -12 -7 -26 -15 -30 -20 -12 -38 -52 -31 -72 4 -13 -2
-24 -20 -35 -14 -9 -23 -21 -20 -26 12 -20 -38 -21 -79 -1 -48 22 -115 31
-116 16 0 -5 14 -12 32 -15 22 -4 29 -8 20 -13 -7 -5 -19 -6 -27 -3 -10 3 -15
-1 -16 -12 -1 -9 -3 -29 -5 -44 -1 -15 1 -30 7 -33 5 -4 10 -1 10 4 1 6 2 17
3 24 1 7 17 12 46 12 45 0 45 0 48 -41 3 -44 -17 -73 -40 -57 -7 4 -22 8 -33
8 -11 0 -19 6 -17 13 4 21 -28 13 -37 -10 -6 -17 -10 -10 -19 37 -7 32 -12 77
-12 100 0 23 -3 45 -7 49 -10 10 -32 -89 -33 -146 0 -26 -5 -48 -12 -50 -8 -3
-13 -44 -16 -126 -4 -119 -13 -145 -32 -99 -9 19 -10 19 -7 2 1 -11 -1 -24 -6
-30 -4 -5 -14 -19 -21 -29 -19 -28 -49 -15 -37 17 6 16 6 28 -1 35 -6 6 -11
36 -11 66 1 41 -3 56 -13 56 -8 0 -14 5 -14 10 0 6 7 10 15 10 8 0 15 7 15 15
0 9 -6 12 -16 8 -12 -4 -15 0 -12 18 2 16 -2 24 -12 24 -9 0 -15 -9 -15 -22 0
-13 -6 -28 -13 -35 -9 -9 -12 -8 -12 5 0 9 -7 17 -15 17 -8 0 -15 -4 -15 -9 0
-5 -9 -12 -19 -16 -11 -3 -22 -16 -24 -28 -3 -18 -5 -17 -6 6 0 16 -7 35 -15
42 -7 8 -17 39 -20 69 -8 64 -18 74 -51 52 -13 -9 -31 -16 -39 -16 -9 0 -20
-9 -26 -21 -9 -16 -8 -24 5 -39 12 -13 15 -27 10 -49 -9 -41 -52 -61 -130 -61
-67 0 -91 14 -78 46 4 12 -3 7 -19 -11 -15 -16 -22 -32 -16 -34 26 -9 -17 -17
-57 -11 -42 6 -45 5 -45 -16 0 -13 -5 -26 -10 -29 -6 -4 -7 -11 -4 -17 5 -8
-4 -9 -27 -5 -19 3 -29 4 -23 1 8 -3 7 -15 -4 -38 -12 -26 -19 -32 -38 -28
-13 2 -24 10 -24 18 0 22 -20 27 -39 10 -18 -17 -81 -22 -81 -8 0 10 -36 9
-46 -1 -4 -4 -1 -13 5 -21 11 -13 9 -16 -11 -20 -58 -12 -137 -15 -143 -6 -4
6 8 10 30 10 22 0 34 4 30 10 -3 6 -26 10 -51 10 -32 0 -44 -4 -44 -15 0 -9
-6 -12 -15 -9 -8 4 -15 1 -15 -5 0 -6 -7 -8 -15 -5 -21 9 -47 -15 -40 -37 3
-9 1 -20 -5 -24 -15 -9 9 -38 27 -31 7 3 13 0 13 -5 0 -6 -9 -9 -20 -6 -17 4
-20 1 -18 -21 2 -22 -2 -28 -21 -30 -17 -3 -21 0 -15 10 13 21 11 78 -3 78 -8
0 -13 -14 -13 -36 0 -19 -5 -44 -10 -55 -12 -22 -35 -26 -26 -4 3 9 0 15 -9
15 -9 0 -12 -6 -9 -15 4 -8 1 -15 -5 -15 -6 0 -11 7 -11 15 0 8 -7 15 -15 15
-8 0 -15 -4 -15 -10 0 -6 -10 -5 -25 2 -20 9 -28 8 -44 -6 -15 -13 -20 -14
-24 -4 -4 10 -7 11 -18 1 -17 -17 -29 -16 -29 2 0 11 -10 13 -52 8 -37 -4 -49
-3 -44 5 4 6 2 21 -4 32 -9 17 -14 19 -26 9 -11 -9 -14 -7 -14 10 0 14 6 21
20 21 23 0 27 15 7 23 -22 8 -35 -6 -37 -38 -3 -50 -1 -62 9 -47 7 11 9 11 14
-2 5 -11 1 -16 -13 -16 -12 0 -20 -7 -20 -16 0 -10 -6 -14 -18 -10 -41 11 -89
19 -117 18 -16 -1 -55 5 -85 13 -59 15 -98 17 -202 9 -58 -5 -68 -3 -68 10 0
16 -37 21 -133 16 -35 -1 -38 0 -35 22 3 21 8 23 52 21 102 -3 6 22 -117 32
-28 2 -32 6 -35 32 -3 30 -3 30 115 31 120 2 161 6 172 18 3 4 -2 4 -11 1 -12
-4 -18 -1 -18 7 0 8 -7 16 -15 20 -8 3 -108 6 -222 7 -174 1 -209 3 -222 17
-15 14 -16 14 -19 -4 -2 -10 -14 -27 -25 -36 -22 -18 -22 -18 1 -18 19 0 22
-5 22 -40 0 -34 -4 -42 -26 -50 -28 -11 -24 -30 7 -30 17 0 19 -7 19 -70 0
-38 -3 -70 -6 -70 -3 0 -19 9 -36 21 -27 20 -28 22 -13 39 15 16 14 18 -5 23
-17 4 -20 0 -20 -30 0 -39 -33 -93 -57 -93 -9 0 -13 6 -9 15 3 8 1 15 -5 15
-6 0 -7 5 -3 12 4 7 -6 2 -23 -10 -31 -22 -31 -22 -24 5 6 21 13 27 29 25 15
-2 22 2 22 13 0 14 -6 16 -35 11 -28 -6 -35 -4 -35 9 0 8 -5 15 -11 15 -5 0
-7 5 -4 10 3 6 1 10 -5 10 -22 0 -80 32 -80 44 0 9 23 12 80 12 47 -1 80 3 80
9 0 6 4 4 9 -3 7 -11 9 -11 14 2 7 18 26 16 -250 22 -203 5 -203 5 -203 29 0
30 -8 34 -70 42 -47 5 -50 8 -48 32 3 25 0 26 -52 33 -100 11 -440 9 -440 -3
0 -9 -19 -10 -67 -4 -38 4 -165 7 -285 6 -212 -1 -253 2 -242 20 3 5 1 9 -4 9
-6 0 -12 -6 -15 -13 -6 -17 -162 -23 -172 -7 -5 8 -11 8 -20 0 -9 -7 -36 -9
-74 -6 -39 3 -61 1 -63 -6 -3 -7 -14 -4 -33 8 -16 10 -26 14 -22 8 8 -13 -138
-24 -378 -27 -105 -2 -139 1 -138 10 2 7 -3 10 -11 7 -8 -3 -17 -1 -21 5 -3 6
-23 11 -44 11 -20 0 -42 5 -49 12 -9 9 -11 7 -7 -10 3 -16 0 -19 -13 -14 -16
6 -16 4 -1 -18 21 -32 36 -35 35 -8 -1 13 5 23 12 22 6 -1 26 -2 42 -2 23 -2
30 -7 30 -22 0 -19 5 -20 108 -15 59 3 118 8 132 11 17 3 21 2 11 -4 -22 -15
4 -23 35 -11 27 10 65 12 195 10 57 -1 57 -1 57 -61 0 -60 0 -60 -247 -60
-135 -1 -309 -3 -386 -6 -102 -3 -135 -2 -123 6 10 6 24 10 30 9 38 -5 48 2
48 31 0 28 -3 30 -34 30 -19 0 -38 -5 -42 -11 -5 -8 -9 -8 -14 1 -9 15 -30 4
-30 -16 0 -8 -9 -14 -21 -14 -13 0 -19 5 -16 13 3 9 -21 11 -107 10 -145 -3
-169 -6 -173 -19 -5 -14 193 -18 201 -5 8 12 98 -6 107 -21 5 -7 7 -13 6 -15
-4 -3 -170 -13 -229 -14 -26 0 -50 -4 -53 -9 -6 -9 72 -23 86 -15 5 4 8 -4 6
-17 -2 -20 2 -23 36 -23 33 -1 37 2 37 23 0 20 -3 22 -14 13 -10 -8 -16 -9
-21 -1 -3 5 1 13 11 17 19 7 58 -32 48 -48 -8 -13 20 -49 50 -64 18 -10 26
-10 29 -2 2 7 7 9 11 6 3 -3 3 -16 -2 -29 -7 -20 -10 -21 -15 -7 -4 10 -16 17
-28 17 -12 0 -19 -3 -16 -7 14 -13 -23 -40 -48 -35 -31 5 -23 22 11 22 14 0
23 3 21 8 -5 6 -19 7 -92 3 -25 -1 -36 -21 -12 -21 8 0 13 -9 12 -20 -2 -28
-12 -35 -29 -21 -11 10 -19 9 -37 -1 -17 -10 -23 -10 -26 -1 -3 9 -15 7 -44
-7 -31 -16 -52 -19 -104 -16 -60 5 -92 -5 -63 -18 7 -3 -9 -5 -37 -4 -75 1
-95 -1 -95 -11 0 -5 17 -8 38 -7 36 1 60 -17 24 -20 -54 -3 -55 -3 -42 -19 9
-11 10 -18 1 -28 -6 -8 -7 -17 -3 -21 4 -4 7 -13 7 -19 0 -7 11 -12 25 -12 15
0 28 -8 34 -20 5 -11 26 -33 47 -50 21 -16 38 -38 39 -48 0 -25 25 -48 44 -41
11 4 22 -5 37 -30 12 -21 29 -36 39 -36 11 0 25 -9 32 -19 9 -13 19 -17 28
-11 7 4 19 6 27 3 18 -7 16 -33 -3 -33 -15 0 -44 -23 -44 -34 0 -3 15 -6 33
-5 27 0 29 2 12 9 -19 8 -19 9 2 9 12 1 23 -3 25 -8 3 -9 90 -18 188 -21 35
-1 35 -1 10 -15 -14 -7 -32 -26 -40 -42 -20 -37 -29 -43 -67 -43 -26 0 -33 -4
-33 -20 0 -11 -4 -20 -10 -20 -5 0 -10 5 -10 10 0 6 -13 8 -31 5 -27 -5 -30
-3 -24 15 8 24 -10 27 -24 3 -7 -13 -4 -20 12 -28 12 -6 22 -17 22 -25 0 -21
16 -30 42 -23 30 7 30 -15 1 -27 -21 -8 -20 -9 9 -9 17 -1 35 -5 38 -11 3 -5
24 -10 47 -10 36 0 40 -2 35 -21 -5 -19 -2 -21 23 -15 16 3 32 1 35 -4 3 -6 1
-10 -5 -10 -8 0 -8 -6 0 -20 13 -24 30 -26 30 -5 0 12 3 12 18 -3 10 -10 22
-27 27 -38 7 -17 9 -17 12 -2 2 9 10 19 17 21 10 4 12 -1 9 -14 -4 -14 0 -19
15 -19 12 0 24 -4 27 -10 3 -5 13 -10 22 -10 9 0 32 -12 52 -27 35 -27 35 -27
11 -33 -13 -3 -25 -11 -28 -19 -3 -10 0 -10 15 0 17 10 23 9 42 -10 11 -11 21
-25 21 -31 0 -5 11 -10 25 -10 15 0 24 -5 22 -12 -1 -8 11 -14 32 -16 28 -3
35 -9 48 -42 19 -47 42 -59 63 -32 13 15 24 17 65 12 48 -5 49 -6 18 -12 -30
-7 -32 -9 -23 -33 11 -29 58 -74 77 -75 7 0 20 -15 30 -32 13 -25 18 -29 21
-16 3 15 7 14 30 -7 22 -20 37 -25 80 -25 39 0 54 -4 59 -16 3 -9 1 -19 -5
-23 -7 -4 -8 -12 -2 -20 6 -10 20 -12 50 -8 40 5 43 4 53 -24 8 -19 18 -29 33
-29 11 0 26 -10 33 -23 7 -12 22 -27 34 -32 12 -6 23 -16 23 -22 3 -23 4 -24
24 -13 11 6 20 18 20 26 0 30 25 7 30 -27 5 -32 8 -34 53 -41 27 -3 54 -12 62
-18 9 -7 15 -8 20 0 11 18 34 11 41 -14 5 -20 13 -26 42 -28 34 -3 37 -5 34
-31 -3 -26 -3 -27 24 -15 22 10 28 10 32 0 4 -14 48 -16 57 -2 3 6 11 10 16
10 6 0 7 -4 4 -10 -3 -5 -2 -10 3 -10 5 0 12 -9 15 -20 5 -20 27 -28 27 -10 0
16 32 11 47 -7 11 -14 16 -15 20 -5 4 10 9 10 23 -3 10 -9 21 -12 24 -7 7 12
56 3 56 -10 0 -6 17 -8 40 -5 21 2 41 0 42 -5 2 -6 13 -6 28 0 34 12 55 5 39
-14 -7 -8 -9 -18 -5 -21 4 -4 11 -1 15 6 9 14 86 7 96 -9 7 -11 45 0 45 13 0
6 6 2 14 -9 11 -15 17 -16 27 -7 9 9 16 9 31 0 16 -10 21 -9 29 5 11 20 65 33
82 20 16 -13 94 -7 113 9 13 10 17 10 24 -1 5 -8 12 -11 16 -8 4 4 18 -2 33
-13 22 -18 26 -18 29 -6 4 19 29 12 55 -15 14 -14 27 -17 60 -12 23 4 48 11
54 16 16 13 76 2 127 -23 43 -21 71 -17 97 12 19 22 59 25 59 5 0 -20 35 -30
58 -17 13 7 22 7 30 -1 19 -19 27 0 8 21 -15 16 -15 19 -1 24 10 5 15 0 15
-13 0 -10 9 -26 21 -34 24 -17 18 -33 -18 -47 -16 -6 -23 -14 -19 -24 4 -11
-1 -15 -18 -15 -21 0 -52 -24 -56 -42 -8 -37 -17 -50 -49 -76 -20 -16 -47 -33
-61 -37 -13 -4 -44 -20 -69 -36 -26 -15 -65 -33 -88 -41 -24 -7 -43 -18 -43
-25 0 -6 -9 -15 -20 -18 -11 -3 -20 -13 -20 -21 0 -8 -9 -14 -19 -14 -38 0
-31 -18 10 -25 44 -8 79 -31 79 -52 0 -7 5 -13 10 -13 6 0 10 -4 10 -10 0 -29
-108 9 -136 48 -15 20 -37 7 -25 -16 5 -9 23 -46 40 -82 57 -121 138 -252 174
-278 25 -19 21 -47 -8 -60 -43 -20 -60 -14 -78 23 -21 45 -54 47 -85 5 -34
-46 -66 -40 -124 20 -26 28 -52 50 -58 50 -6 0 -21 5 -33 12 -30 17 -47 18
-47 5 0 -18 38 -77 49 -77 5 0 12 -8 16 -19 3 -10 22 -27 43 -37 20 -10 40
-23 44 -28 15 -22 -2 -69 -41 -106 -22 -21 -47 -50 -56 -64 -10 -14 -23 -26
-30 -26 -21 0 -74 -49 -96 -89 -11 -20 -36 -63 -56 -96 -20 -33 -60 -108 -90
-167 -53 -108 -53 -108 -119 -108 -56 0 -75 5 -118 30 -28 16 -67 43 -86 59
-19 17 -46 39 -60 51 -71 59 -159 140 -199 184 -26 27 -77 81 -115 120 -37 39
-80 87 -94 106 -15 19 -30 37 -33 40 -16 12 -179 263 -179 275 0 8 -5 17 -10
20 -24 15 -118 229 -124 283 -2 19 -7 36 -10 39 -3 3 -1 14 5 25 23 43 -14 76
-126 116 -88 31 -197 71 -220 81 -11 5 -65 28 -120 51 -171 73 -346 164 -565
293 -102 61 -349 233 -418 291 -27 22 -66 55 -88 71 -91 71 -333 308 -403 395
-19 25 -57 69 -84 99 -26 29 -62 76 -80 102 -17 27 -35 49 -39 49 -5 0 -8 4
-8 10 0 5 -21 39 -47 76 -27 37 -64 95 -85 128 -53 88 -265 516 -273 551 -3
17 -13 44 -20 60 -26 58 -80 200 -80 213 0 7 -5 16 -10 20 -6 4 -10 14 -10 22
0 8 -8 14 -18 13 -14 -1 -17 4 -14 17 3 12 0 17 -8 14 -8 -3 -15 7 -19 28 -3
18 -7 40 -9 48 -5 26 -37 94 -48 100 -5 4 -14 35 -20 69 -5 35 -16 73 -23 84
-8 12 -17 39 -20 60 -4 23 -12 37 -21 37 -18 0 -20 16 -2 23 8 4 8 8 2 14 -5
4 -12 17 -13 28 -2 11 -10 27 -18 36 -8 9 -12 22 -9 30 3 8 -3 47 -14 87 -10
39 -17 72 -14 72 2 0 -3 7 -11 16 -9 8 -16 31 -16 49 0 19 -4 36 -9 39 -8 6
-21 82 -26 161 -2 22 -6 51 -11 65 -4 14 -9 53 -11 87 -4 49 -8 62 -23 66 -12
3 -21 18 -25 41 -4 20 -10 36 -14 36 -11 0 -12 82 -1 95 8 10 8 15 0 20 -6 4
-8 15 -5 26 4 12 2 19 -7 19 -10 0 -9 3 2 11 12 8 12 12 2 16 -10 4 -10 8 -1
20 8 9 9 17 3 21 -22 15 -23 42 -3 52 15 8 18 17 13 33 -4 12 -11 24 -15 25
-5 2 -9 14 -9 26 0 12 -5 27 -12 34 -9 9 -9 12 1 12 10 0 11 9 7 34 -5 24 -3
36 6 39 10 3 8 10 -6 25 -22 25 -30 127 -11 146 6 6 12 28 13 48 1 29 -3 38
-18 43 -22 7 -26 20 -10 30 6 4 8 11 5 16 -6 9 11837 14 11846 5z m4345 -23
c-4 -16 -13 -66 -20 -113 -8 -47 -21 -114 -30 -150 -8 -36 -17 -81 -19 -100
-3 -29 -33 -158 -88 -380 -4 -19 -17 -73 -29 -120 -11 -47 -32 -128 -46 -180
-14 -52 -34 -126 -44 -165 -19 -73 -41 -148 -58 -200 -6 -16 -20 -59 -32 -95
-29 -85 -48 -138 -64 -175 -8 -16 -18 -46 -24 -65 -6 -19 -34 -109 -63 -200
-28 -91 -57 -186 -64 -211 -33 -122 -255 -603 -360 -777 -93 -156 -146 -234
-222 -334 -23 -31 -43 -61 -43 -67 0 -6 -3 -11 -7 -11 -5 0 -39 -39 -78 -87
-114 -141 -265 -300 -379 -398 -32 -27 -72 -64 -89 -81 -18 -17 -39 -33 -47
-36 -8 -4 -57 -39 -108 -80 -91 -72 -143 -110 -312 -227 -140 -98 -151 -106
-163 -116 -7 -6 -43 -28 -82 -50 -38 -21 -74 -44 -78 -52 -4 -7 -14 -13 -21
-13 -21 0 -46 -45 -46 -81 0 -74 -36 -152 -146 -320 -13 -19 -24 -39 -24 -44
0 -4 -19 -31 -42 -60 -24 -28 -52 -64 -63 -80 -24 -33 -133 -152 -190 -206
-137 -130 -163 -154 -195 -178 -19 -14 -41 -32 -48 -39 -8 -7 -30 -25 -50 -40
-21 -15 -41 -32 -47 -38 -5 -5 -28 -23 -50 -39 -22 -15 -44 -33 -50 -39 -5 -6
-43 -37 -83 -70 -116 -94 -283 -241 -359 -316 -32 -32 -40 -35 -96 -36 -34 -1
-67 1 -74 3 -7 3 -24 44 -39 91 -24 81 -72 182 -130 273 -13 21 -24 42 -24 46
-1 17 -37 81 -61 111 -15 17 -39 34 -53 38 -15 3 -25 8 -22 11 6 6 -97 155
-114 164 -8 4 -27 10 -41 13 -32 7 -44 41 -21 59 8 7 46 44 84 82 55 57 68 76
68 103 0 31 -2 32 -39 32 -22 0 -42 4 -46 9 -3 5 -30 21 -60 35 -46 21 -55 29
-52 48 5 48 -27 21 -65 -55 -35 -71 -89 -136 -112 -137 -5 0 -19 -11 -32 -25
-30 -32 -54 -33 -54 0 0 13 6 28 13 32 7 4 28 37 46 73 19 36 39 72 46 80 7 8
33 58 59 110 46 92 86 135 101 110 5 -8 11 -7 21 1 11 9 14 8 14 -5 0 -9 5
-16 11 -16 22 0 3 34 -26 43 -16 6 -55 25 -86 44 -32 18 -62 33 -68 33 -6 0
-11 7 -11 15 0 9 -13 24 -30 33 -16 9 -30 22 -30 28 0 7 -7 14 -15 18 -8 3
-20 17 -25 31 -6 17 -16 25 -27 23 -43 -7 -61 46 -21 61 20 7 17 10 -26 26
-26 10 -51 26 -57 36 -7 14 -17 17 -42 14 -17 -3 -26 -3 -19 1 6 3 12 14 12
24 0 11 8 24 18 29 14 8 10 10 -20 11 -32 0 -37 3 -43 30 -7 31 -38 42 -48 18
-4 -8 -6 -7 -6 4 -1 9 -6 18 -12 20 -6 2 -12 22 -13 43 -2 48 -9 61 -35 68
-13 3 -17 0 -14 -12 4 -18 -32 -45 -48 -35 -6 4 -4 13 6 24 21 23 5 60 -25 60
-11 0 -20 4 -20 9 0 5 -10 7 -22 4 -23 -6 -23 -6 1 18 15 16 25 20 28 12 7
-20 69 -54 86 -47 8 3 17 21 19 40 3 28 1 34 -14 34 -30 0 -21 30 10 31 15 1
44 3 65 4 29 2 37 -2 37 -15 0 -22 36 -55 45 -41 3 6 24 11 46 11 49 0 53 23
7 38 -32 10 -32 10 -6 11 15 1 29 -3 33 -9 9 -15 77 -31 90 -20 6 5 25 8 43 8
22 -1 40 7 58 25 23 23 29 25 52 14 40 -17 57 -47 27 -47 -24 0 -17 -24 11
-37 20 -9 26 -9 31 3 3 8 10 14 15 14 6 0 16 7 23 17 7 9 17 13 24 8 9 -5 10
-10 2 -18 -17 -17 -13 -27 8 -27 28 0 33 -13 15 -39 -14 -20 -18 -21 -33 -8
-22 20 -61 31 -61 18 0 -6 4 -11 8 -11 5 0 15 -12 22 -26 14 -26 29 -27 74 -9
15 6 17 5 11 -5 -5 -8 -3 -11 6 -8 8 3 13 11 12 17 -2 6 4 11 12 11 8 0 15 -9
15 -20 0 -13 7 -20 20 -20 11 0 20 4 20 8 0 4 15 14 33 22 17 7 35 15 38 17 4
2 9 -5 12 -17 3 -11 10 -20 17 -20 7 0 9 8 5 19 -4 14 3 24 30 41 29 18 33 25
24 36 -6 8 -23 14 -38 14 -26 0 -51 16 -51 32 0 13 32 9 63 -7 18 -9 43 -12
75 -9 39 5 51 2 69 -15 28 -26 33 -26 33 0 0 17 3 19 14 10 19 -16 107 -26
115 -13 7 12 96 -2 117 -19 20 -16 7 -31 -16 -19 -26 14 -62 12 -84 -5 -29
-22 -7 -40 28 -23 25 11 30 10 45 -11 16 -21 19 -21 24 -7 4 10 12 14 18 11 6
-4 13 2 16 14 5 18 7 19 20 5 9 -8 20 -13 27 -11 19 6 12 31 -14 44 -14 7 -20
13 -14 13 6 0 10 10 10 21 -1 32 22 35 34 4 13 -35 32 -53 64 -61 28 -7 36 12
15 33 -8 8 -5 13 10 18 12 3 21 10 21 15 0 12 -32 0 -45 -17 -11 -15 -45 -8
-45 8 0 5 11 14 25 19 27 10 25 40 -4 40 -14 1 -14 2 2 14 18 14 18 14 0 18
-10 2 8 3 39 2 37 -2 64 -8 74 -18 19 -19 33 -20 40 -3 3 9 16 12 34 9 24 -3
30 -1 30 14 1 18 1 18 11 2 15 -26 27 -22 31 9 5 43 26 40 22 -4 -1 -22 1 -32
6 -24 5 9 17 11 33 7 24 -6 35 7 41 49 1 6 15 10 33 10 40 0 48 9 45 48 -2 18
4 41 13 52 15 19 15 19 14 -10 -4 -64 0 -75 25 -75 27 0 35 8 41 42 3 13 12
28 20 34 8 6 15 16 15 23 0 6 5 11 10 11 6 0 10 -6 10 -13 0 -7 9 -21 21 -30
20 -18 21 -18 19 10 -4 56 -1 63 26 63 25 0 26 -2 20 -35 -4 -22 -3 -35 4 -35
5 0 10 9 10 20 0 10 18 36 40 57 23 20 38 43 36 50 -5 13 5 17 31 14 7 -1 23
5 36 14 13 8 27 12 31 8 4 -5 6 -3 5 2 -2 6 0 20 5 33 8 25 46 31 46 7 0 -12
4 -13 25 -3 21 9 25 18 25 55 0 48 8 54 29 22 10 -18 15 -19 22 -8 5 8 9 24 9
36 0 27 20 73 32 73 10 0 0 -50 -13 -64 -5 -5 -4 -15 2 -22 8 -10 16 -10 35
-2 13 6 24 15 24 20 0 4 9 8 20 8 11 0 20 -7 20 -15 0 -8 5 -15 11 -15 7 0 9
12 5 35 -7 34 1 42 37 36 12 -2 8 17 -5 22 -19 6 -7 15 26 19 25 2 31 -1 36
-22 5 -20 8 -15 13 26 8 56 37 97 37 53 0 -26 13 -51 25 -50 4 0 15 17 25 38
9 21 31 48 49 61 17 12 31 31 31 41 0 27 10 51 22 51 6 0 7 -11 4 -25 -9 -36
7 -31 50 15 20 21 53 46 73 55 20 8 44 21 53 27 24 17 36 1 12 -18 -19 -15
-19 -15 1 -12 14 2 21 12 23 33 9 84 42 144 42 75 0 -47 12 -41 97 43 18 18
33 40 34 50 3 33 4 37 14 37 6 0 10 -11 10 -25 0 -34 18 -33 28 2 8 27 24 38
80 57 10 3 15 11 12 16 -4 6 -1 9 7 8 7 -2 12 3 11 10 -2 8 11 12 43 12 39 0
50 5 79 35 18 20 36 42 39 50 3 8 17 17 31 21 14 3 25 12 25 19 0 9 8 11 22 7
17 -4 20 -2 15 12 -4 10 -7 26 -7 36 0 11 -10 28 -22 40 -12 11 -18 23 -15 27
4 3 7 2 7 -3 0 -6 16 -10 35 -11 29 -1 35 2 35 20 0 16 3 18 9 9 4 -7 6 -24 3
-38 -5 -25 -1 -27 36 -18 20 6 22 11 18 53 -3 25 -5 49 -5 53 -1 3 -9 8 -18
11 -16 4 -16 5 1 12 13 6 21 4 24 -3 2 -7 9 -12 17 -12 7 0 18 -7 25 -15 15
-18 41 -20 36 -2 -3 6 -7 32 -10 55 -5 33 -3 43 6 40 7 -3 13 -13 13 -24 0
-11 6 -18 13 -16 8 1 16 -7 19 -18 3 -11 9 -20 12 -20 16 0 19 13 11 41 -5 17
-5 31 1 34 5 4 9 0 9 -8 0 -8 7 -20 15 -27 12 -10 15 -9 15 8 0 15 5 19 18 15
16 -4 19 2 20 36 1 23 -2 41 -6 41 -4 0 -6 16 -4 36 3 25 10 38 23 41 10 3 19
15 21 27 2 11 10 21 18 21 11 0 14 -10 12 -41 -1 -26 3 -46 12 -53 11 -9 17
-4 31 26 10 21 21 40 24 43 4 3 12 17 18 33 10 22 19 27 47 27 31 0 35 3 41
33 12 58 15 64 50 83 32 17 34 21 29 59 -7 56 5 69 62 69 46 -1 46 -1 15 23
-25 20 -29 28 -20 39 6 8 18 14 26 14 10 0 14 9 12 28 -2 15 0 33 4 39 5 7 3
22 -3 33 -11 21 -6 40 11 40 5 0 9 -8 9 -19 0 -20 30 -33 50 -21 9 5 9 9 1 14
-6 4 -11 14 -11 22 0 10 7 13 25 8 19 -5 25 -2 25 10 0 9 -7 16 -15 16 -8 0
-19 9 -26 21 -8 17 -17 20 -40 15 -16 -3 -40 -1 -54 4 -22 8 -25 7 -26 -13 -1
-12 -6 -1 -13 25 -11 46 -11 46 -33 28 -13 -10 -32 -16 -43 -13 -11 3 -20 0
-20 -5 0 -13 -149 -87 -157 -78 -10 9 28 46 48 46 22 0 86 57 75 67 -4 4 -12
0 -17 -10 -7 -12 -17 -16 -29 -12 -13 4 -23 -1 -32 -14 -7 -12 -18 -21 -23
-21 -6 0 -26 -11 -45 -25 -36 -27 -65 -20 -40 10 12 15 11 15 -14 4 -22 -10
-31 -10 -48 0 -11 7 -23 10 -26 6 -4 -3 0 -10 8 -15 12 -7 12 -12 2 -22 -9 -9
-19 -10 -42 -1 -23 9 -32 8 -41 -3 -6 -8 -23 -14 -38 -14 -15 0 -52 -9 -84
-20 -53 -19 -59 -19 -82 -4 -14 9 -23 20 -20 24 9 15 -12 20 -38 11 -20 -8
-30 -6 -46 8 -12 11 -35 24 -52 31 -27 12 -33 11 -57 -9 -15 -12 -39 -27 -54
-34 -16 -6 -28 -15 -28 -19 0 -12 38 -10 45 2 3 6 13 10 21 10 9 0 12 -5 8
-12 -4 -7 -3 -8 5 -4 6 4 9 11 6 15 -2 5 5 17 16 27 21 19 21 18 45 -9 13 -16
24 -36 24 -45 0 -15 -54 -82 -66 -82 -10 0 -2 21 15 37 19 18 38 63 26 63 -13
0 -62 -29 -74 -44 -8 -9 -29 -16 -51 -16 -21 0 -43 -7 -50 -15 -15 -18 -37
-20 -43 -2 -6 19 14 71 23 57 12 -19 32 -1 25 21 -4 11 -2 19 4 19 6 0 11 7
11 15 0 11 -12 15 -44 15 -49 0 -62 -11 -47 -37 8 -14 5 -24 -14 -43 -14 -14
-36 -38 -49 -55 -14 -16 -26 -24 -26 -17 0 7 7 15 15 18 8 4 15 10 15 15 0 9
-72 -27 -118 -60 -38 -26 -52 -27 -52 -1 0 21 -15 27 -25 10 -9 -15 -25 -12
-25 5 0 9 11 20 25 25 29 11 32 25 9 34 -11 4 -25 -3 -39 -20 -23 -27 -23 -27
-55 -4 -37 26 -49 20 -26 -14 20 -31 8 -40 -40 -32 -20 4 -38 16 -45 29 -7 12
-17 25 -23 29 -6 4 7 5 28 1 28 -4 37 -3 32 5 -9 15 48 44 70 35 14 -5 16 -2
11 18 -4 14 0 37 8 53 19 36 19 66 0 66 -8 0 -15 5 -15 10 0 6 5 10 10 10 6 0
10 11 10 25 0 15 -6 25 -15 25 -11 0 -15 -16 -17 -67 -3 -68 -3 -68 -78 -69
-41 0 -163 -2 -272 -3 -108 -2 -201 -1 -206 3 -6 3 -13 33 -17 66 -7 60 -7 60
-41 60 -34 0 -34 0 -28 -57 7 -65 11 -74 24 -53 9 13 10 13 10 0 0 -33 -16
-44 -47 -32 -16 7 -56 10 -91 7 -34 -2 -74 0 -87 5 -23 9 -25 15 -25 75 0 36
-4 65 -10 65 -5 0 -9 -30 -9 -66 1 -36 -1 -68 -4 -70 -2 -3 -48 -7 -101 -10
-73 -4 -101 -2 -113 8 -13 10 -17 10 -20 0 -3 -6 -9 -9 -14 -6 -6 3 -15 1 -22
-4 -7 -5 -20 -9 -29 -9 -16 0 -18 17 -20 191 -2 191 -2 191 -8 2 -5 -190 -5
-190 -61 -191 -71 -2 -86 -11 -63 -36 12 -13 17 -34 16 -63 -2 -48 11 -67 27
-39 8 16 10 14 16 -10 10 -37 -4 -49 -51 -45 -37 3 -39 5 -36 33 5 44 -8 155
-18 155 -5 0 -9 -39 -9 -86 0 -60 -5 -92 -14 -103 -8 -9 -12 -22 -10 -28 3 -9
-7 -13 -30 -13 -32 0 -36 3 -44 38 -12 50 -38 51 -37 0 1 -26 -4 -38 -15 -41
-34 -8 -41 3 -20 39 23 42 23 40 2 48 -11 5 -28 -6 -53 -33 -40 -43 -57 -49
-111 -38 -36 7 -36 7 -23 84 9 49 10 81 4 87 -13 13 -16 1 -38 -129 -19 -110
-35 -140 -40 -75 -4 55 -31 98 -64 102 -28 4 -58 -16 -44 -29 3 -3 6 -1 6 6 0
16 42 10 48 -7 3 -9 -7 -11 -39 -7 -23 3 -44 7 -46 8 -5 5 -12 540 -18 1270
-5 667 -5 667 2151 667 2156 0 2156 0 2150 -27z m-16806 4 c0 -16 -46 -15 -62
1 -9 9 -3 12 25 12 23 0 37 -5 37 -13z m10 -41 c0 -8 -4 -17 -8 -20 -4 -2 -8
4 -8 15 0 10 4 19 8 19 4 0 8 -6 8 -14z m-223 -172 c-3 -3 -12 -4 -19 -1 -8 3
-5 6 6 6 11 1 17 -2 13 -5z m-44 -11 c-18 -7 -16 -23 2 -23 8 0 15 -4 15 -10
0 -14 -23 -12 -55 4 -25 13 -25 15 -8 25 10 6 27 10 38 10 11 0 14 -3 8 -6z
m-98 -13 c3 -6 -4 -10 -17 -10 -18 0 -20 2 -8 10 19 12 18 12 25 0z m732 -56
c-3 -3 -12 -4 -19 -1 -8 3 -5 6 6 6 11 1 17 -2 13 -5z m-857 -24 c0 -5 -7 -10
-15 -10 -8 0 -15 5 -15 10 0 6 7 10 15 10 8 0 15 -4 15 -10z m-73 -212 c-3 -7
-5 -2 -5 12 0 14 2 19 5 13 2 -7 2 -19 0 -25z m-132 2 c3 -5 1 -10 -4 -10 -6
0 -11 5 -11 10 0 6 2 10 4 10 3 0 8 -4 11 -10z m178 -15 c-5 -13 -23 -22 -23
-11 0 15 14 35 21 31 4 -3 6 -12 2 -20z m-406 -1 c-3 -3 -12 -4 -19 -1 -8 3
-5 6 6 6 11 1 17 -2 13 -5z m479 -50 c-5 -13 -10 -14 -18 -6 -6 6 -8 18 -4 28
5 13 10 14 18 6 6 -6 8 -18 4 -28z m-439 -96 c-3 -8 -6 -5 -6 6 -1 11 2 17 5
13 3 -3 4 -12 1 -19z m933 -263 c0 -8 -4 -15 -10 -15 -5 0 -10 7 -10 15 0 8 5
15 10 15 6 0 10 -7 10 -15z m15800 -760 c-22 -16 -37 -22 -44 -15 -15 15 13
40 47 40 31 0 31 0 -3 -25z m160 -15 c0 -5 -2 -10 -4 -10 -3 0 -8 5 -11 10 -3
6 -1 10 4 10 6 0 11 -4 11 -10z m-2474 -42 c3 -4 1 -15 -5 -25 -9 -16 -10 -16
-11 -1 0 11 -5 15 -15 12 -15 -6 -21 7 -9 18 7 7 31 4 40 -4z m97 -8 c-6 -23
-19 -26 -26 -6 -6 16 1 26 19 26 7 0 10 -8 7 -20z m57 16 c0 -3 -4 -8 -10 -11
-5 -3 -10 -1 -10 4 0 6 5 11 10 11 6 0 10 -2 10 -4z m240 -10 c0 -21 -20 -30
-33 -17 -9 9 -8 14 3 21 21 14 30 12 30 -4z m1610 4 c0 -5 -7 -10 -15 -10 -8
0 -15 5 -15 10 0 6 7 10 15 10 8 0 15 -4 15 -10z m-2353 -22 c-3 -8 -6 -5 -6
6 -1 11 2 17 5 13 3 -3 4 -12 1 -19z m60 -4 c-9 -9 -28 6 -21 18 4 6 10 6 17
-1 6 -6 8 -13 4 -17z m76 -26 c9 -6 9 -8 0 -8 -7 0 -13 -7 -13 -15 0 -21 16
-19 41 6 15 15 18 24 10 32 -25 25 -11 37 39 37 36 0 50 -4 50 -14 0 -20 -27
-41 -32 -25 -7 20 -38 2 -38 -21 0 -21 24 -28 35 -10 11 17 25 0 25 -30 0 -35
-36 -52 -55 -27 -8 11 -23 14 -52 12 -40 -4 -40 -4 -46 47 -7 57 2 84 15 47 5
-13 14 -27 21 -31z m1827 -6 c0 -24 -1 -25 -16 -10 -10 9 -14 24 -10 33 9 23
26 9 26 -23z m-6280 13 c14 -8 19 -14 13 -15 -9 0 -13 -16 -13 -45 0 -32 -5
-47 -15 -52 -21 -7 -25 -2 -32 40 -6 38 2 87 15 87 4 -1 18 -7 32 -15z m3516
-7 c11 -17 13 -78 3 -78 -4 0 -10 6 -12 13 -4 9 -8 8 -16 -3 -8 -11 -11 -4
-11 33 0 34 4 47 14 47 8 0 18 -6 22 -12z m1414 2 c8 -5 11 -10 5 -10 -5 0
-17 5 -25 10 -8 5 -10 10 -5 10 6 0 17 -5 25 -10z m90 0 c0 -5 -2 -10 -4 -10
-3 0 -8 5 -11 10 -3 6 -1 10 4 10 6 0 11 -4 11 -10z m245 -14 c-28 -23 -45
-25 -45 -7 0 6 43 25 70 30 3 0 -8 -10 -25 -23z m-886 -63 c1 -49 -17 -40 -24
11 -8 51 5 86 16 46 4 -14 7 -40 8 -57z m338 35 c11 -24 23 -56 27 -72 6 -26
5 -28 -8 -17 -9 8 -16 24 -16 37 0 30 -25 32 -27 3 -2 -25 -19 -46 -29 -36 -4
4 -2 13 5 20 9 11 8 17 -4 27 -18 15 -20 42 -2 38 6 -2 12 2 12 7 0 6 -6 9
-15 7 -11 -2 -10 2 4 13 28 22 32 20 53 -27z m468 23 c17 -19 16 -21 -16 -40
-46 -28 -66 -26 -34 3 16 15 22 27 15 31 -11 7 -5 25 9 25 4 0 16 -9 26 -19z
m-566 -37 c-11 -13 -9 -19 11 -35 24 -18 24 -19 4 -19 -12 0 -27 7 -34 15 -11
13 -10 22 5 53 14 28 19 33 23 19 2 -10 -2 -25 -9 -33z m446 36 c3 -5 21 -10
38 -11 31 0 31 0 7 -10 -25 -10 -70 5 -70 23 0 11 18 10 25 -2z m315 0 c0 -5
-4 -10 -10 -10 -5 0 -10 5 -10 10 0 6 5 10 10 10 6 0 10 -4 10 -10z m-500 -26
c0 -8 -7 -14 -15 -14 -8 0 -15 -4 -15 -10 0 -9 6 -11 25 -10 3 1 11 -5 18 -12
18 -18 18 -54 1 -69 -11 -9 -14 -8 -14 9 0 12 -9 26 -20 32 -17 9 -22 7 -32
-15 -6 -14 -15 -25 -19 -25 -4 0 -15 -3 -24 -6 -11 -5 -8 2 8 20 14 15 31 49
38 75 10 39 16 47 31 43 10 -2 18 -11 18 -18z m-90 -30 c0 -7 -4 -15 -9 -18
-11 -7 -21 17 -21 47 1 22 1 22 15 3 8 -11 15 -25 15 -32z m20 25 c0 -6 -4 -7
-10 -4 -5 3 -10 11 -10 16 0 6 5 7 10 4 6 -3 10 -11 10 -16z m208 3 c6 -18
-15 -14 -22 4 -4 10 -1 14 6 12 6 -2 14 -10 16 -16z m-103 -2 c3 -5 2 -10 -4
-10 -5 0 -13 5 -16 10 -3 6 -2 10 4 10 5 0 13 -4 16 -10z m425 -10 c0 -22 -45
-39 -62 -22 -7 7 -1 15 19 25 38 20 43 20 43 -3z m630 10 c0 -5 -5 -10 -11
-10 -5 0 -7 5 -4 10 3 6 8 10 11 10 2 0 4 -4 4 -10z m270 1 c0 -12 -20 -25
-27 -18 -7 7 6 27 18 27 5 0 9 -4 9 -9z m-2954 -37 c1 -30 -11 -54 -27 -54
-11 0 -12 73 -2 84 14 13 28 -1 29 -30z m2144 17 c16 -30 12 -36 -10 -16 -21
19 -26 35 -10 35 5 0 14 -9 20 -19z m1610 9 c0 -5 -4 -10 -10 -10 -5 0 -10 5
-10 10 0 6 5 10 10 10 6 0 10 -4 10 -10z m-3819 -7 c10 -56 4 -83 -17 -83 -15
0 -19 45 -8 74 6 16 23 22 25 9z m1784 -34 c16 -16 -19 -9 -40 7 -19 16 -19
16 5 9 14 -4 29 -11 35 -16z m801 6 c-11 -8 -25 -15 -30 -15 -6 0 -2 7 8 15
11 8 25 15 30 15 6 0 2 -7 -8 -15z m-1369 -1 c-3 -3 -12 -4 -19 -1 -8 3 -5 6
6 6 11 1 17 -2 13 -5z m663 -4 c0 -5 -4 -10 -10 -10 -5 0 -10 5 -10 10 0 6 5
10 10 10 6 0 10 -4 10 -10z m511 -13 c-13 -13 -26 -3 -16 12 3 6 11 8 17 5 6
-4 6 -10 -1 -17z m-257 7 c9 -3 16 -12 16 -20 0 -20 -13 -17 -28 6 -13 22 -12
23 12 14z m-5964 -8 c0 -3 -4 -8 -10 -11 -5 -3 -10 -1 -10 4 0 6 5 11 10 11 6
0 10 -2 10 -4z m5850 -6 c0 -5 -5 -10 -11 -10 -5 0 -7 5 -4 10 3 6 8 10 11 10
2 0 4 -4 4 -10z m-763 -22 c-3 -8 -6 -5 -6 6 -1 11 2 17 5 13 3 -3 4 -12 1
-19z m-783 -3 c-5 -11 1 -15 25 -15 30 0 31 -1 31 -49 0 -58 -18 -71 -54 -38
-19 18 -22 26 -14 41 8 14 7 17 -1 12 -6 -4 -18 0 -26 8 -14 14 -14 17 2 35
22 23 45 27 37 6z m56 11 c0 -11 -19 -15 -25 -6 -3 5 1 10 9 10 9 0 16 -2 16
-4z m-3929 -18 c-1 -5 -1 -39 -1 -78 0 -56 -3 -70 -15 -70 -12 0 -15 16 -15
81 0 67 3 80 16 77 8 -2 15 -6 15 -10z m84 0 c24 -11 33 -45 10 -39 -5 2 -9 7
-7 12 1 5 -5 9 -13 9 -14 0 -19 -12 -16 -32 0 -5 -6 -8 -14 -8 -20 0 -32 50
-14 61 18 11 23 11 54 -3z m100 6 c13 -5 14 -8 3 -15 -10 -7 -9 -9 3 -9 16 0
29 -19 29 -41 0 -6 -15 -16 -32 -24 -33 -14 -33 -15 -9 -21 25 -7 25 -7 3 -15
-28 -10 -35 -8 -39 11 -1 8 -5 27 -9 42 -14 58 8 88 51 72z m3865 -24 c0 -5
-4 -10 -10 -10 -5 0 -10 5 -10 10 0 6 5 10 10 10 6 0 10 -4 10 -10z m830 -10
c0 -11 -2 -20 -4 -20 -2 0 -6 9 -9 20 -3 11 -1 20 4 20 5 0 9 -9 9 -20z m-800
-30 c0 -10 -4 -22 -10 -25 -6 -4 -10 7 -10 25 0 18 4 29 10 25 6 -3 10 -15 10
-25z m170 -13 c0 -14 -20 -37 -32 -37 -4 0 -8 16 -8 35 0 33 2 35 20 25 11 -6
20 -16 20 -23z m120 25 c0 -5 -8 -16 -18 -25 -16 -15 -21 -15 -38 -2 -16 13
-17 16 -4 25 18 12 60 13 60 2z m120 -2 c0 -5 -5 -10 -11 -10 -5 0 -7 5 -4 10
3 6 8 10 11 10 2 0 4 -4 4 -10z m-3590 -56 c0 -14 -4 -23 -9 -20 -5 3 -7 15
-4 26 7 28 13 25 13 -6z m-1210 -5 c0 -5 -4 -9 -10 -9 -5 0 -10 7 -10 16 0 8
5 12 10 9 6 -3 10 -10 10 -16z m64 8 c11 -11 10 -17 -4 -35 -24 -29 -26 -28
-27 13 -1 37 9 44 31 22z m354 -29 c-2 -31 -8 -44 -20 -46 -12 -2 -15 2 -11
16 3 13 -3 25 -17 35 -28 19 -18 37 21 37 29 0 30 -1 27 -42z m742 2 c0 -14
-15 -19 -38 -13 -15 3 -22 13 -22 28 0 23 1 23 30 9 17 -9 30 -19 30 -24z
m2990 20 c0 -11 -4 -20 -10 -20 -5 0 -10 9 -10 20 0 11 5 20 10 20 6 0 10 -9
10 -20z m-2737 -61 c7 -28 -18 -24 -31 5 -9 21 -8 23 8 19 10 -3 20 -13 23
-24z m-1053 17 c0 -2 -7 -9 -15 -16 -13 -11 -14 -10 -9 4 5 14 24 23 24 12z
m-294 -21 c-16 -17 -36 -20 -36 -6 0 10 17 19 38 20 10 1 10 -3 -2 -14z m1053
-17 c0 -7 -4 -21 -8 -31 -6 -17 -8 -17 -20 -3 -11 13 -11 19 -1 31 15 18 30
20 29 3z m91 -25 c0 -20 -3 -33 -7 -29 -11 11 -12 66 -2 66 5 0 9 -16 9 -37z
m-1695 17 c3 -5 -3 -10 -14 -10 -12 0 -21 5 -21 10 0 6 6 10 14 10 8 0 18 -4
21 -10z m-4097 -16 c7 -2 10 -9 7 -15 -4 -6 -13 -8 -20 -5 -24 9 -26 -8 -4
-25 22 -16 22 -16 -9 -15 -26 1 -31 4 -26 19 4 11 1 17 -8 15 -7 -2 -12 3 -10
10 1 6 -7 12 -18 12 -11 0 -20 -4 -20 -10 0 -5 -4 -10 -10 -10 -5 0 -10 6 -10
14 0 22 74 27 128 10z m299 10 c-3 -3 -12 -4 -19 -1 -8 3 -5 6 6 6 11 1 17 -2
13 -5z m63 -9 c0 -8 -7 -15 -15 -15 -8 0 -15 7 -15 15 0 8 7 15 15 15 8 0 15
-7 15 -15z m-289 -35 c50 0 51 -16 2 -22 -21 -3 -39 -4 -40 -3 -2 1 -4 15 -7
31 -2 16 -1 21 1 12 3 -13 15 -18 44 -18z m34 30 c4 -6 -9 -10 -32 -10 -28 0
-34 3 -23 10 20 13 47 13 55 0z m111 -3 c11 -11 -29 -8 -46 3 -12 8 -9 10 12
7 15 -1 30 -6 34 -10z m-356 -7 c0 -5 -4 -10 -10 -10 -5 0 -10 5 -10 10 0 6 5
10 10 10 6 0 10 -4 10 -10z m2270 -22 c0 -44 -12 -60 -41 -56 -20 2 -24 9 -27
46 -3 42 -3 42 32 42 34 0 36 -2 36 -32z m2490 22 c0 -5 7 -10 15 -10 10 0 15
-10 15 -30 0 -26 -3 -30 -29 -30 -16 0 -31 6 -34 13 -3 9 -2 52 2 65 3 7 31 0
31 -8z m-2392 -25 c3 -26 -8 -41 -35 -49 -18 -6 -25 -2 -34 18 -18 38 -5 58
33 54 24 -2 34 -8 36 -23z m2090 13 c-5 -15 -58 -24 -58 -10 0 15 12 22 38 22
14 0 22 -5 20 -12z m247 2 c3 -5 -1 -20 -9 -32 -16 -22 -16 -22 -16 10 0 31
12 42 25 22z m495 -10 c0 -5 -4 -10 -10 -10 -5 0 -10 5 -10 10 0 6 5 10 10 10
6 0 10 -4 10 -10z m662 -12 c-7 -7 -12 -8 -12 -2 0 14 12 26 19 19 2 -3 -1
-11 -7 -17z m-5549 -25 c-7 -3 -9 -11 -6 -19 4 -10 -3 -14 -28 -14 -41 0 -67
14 -49 25 7 4 16 2 20 -5 4 -7 15 -10 25 -7 9 4 14 11 11 16 -4 5 -3 16 0 25
5 14 8 14 22 -1 12 -11 13 -18 5 -20z m-308 -5 c-4 -15 -3 -18 3 -10 6 10 13
8 27 -8 19 -22 15 -37 -7 -24 -7 5 -20 9 -28 9 -9 0 -14 9 -13 23 1 31 2 32
14 32 6 0 8 -9 4 -22z m4475 1 c0 -5 -4 -9 -10 -9 -5 0 -10 7 -10 16 0 8 5 12
10 9 6 -3 10 -10 10 -16z m-4307 -1 c20 -11 19 -12 -27 -24 -48 -12 -76 -10
-76 7 0 5 10 9 23 9 12 0 29 5 37 10 19 12 17 12 43 -2z m3507 -8 c0 -5 7 -7
15 -4 8 4 15 1 15 -4 0 -15 -40 -26 -52 -14 -11 11 -3 32 13 32 5 0 9 -4 9
-10z m-3030 -16 c0 -2 -15 -4 -32 -4 -23 0 -29 3 -19 9 12 8 51 4 51 -5z
m5421 -17 c-13 -13 -26 -3 -16 12 3 6 11 8 17 5 6 -4 6 -10 -1 -17z m484 3 c3
-5 -1 -10 -10 -10 -9 0 -13 5 -10 10 3 6 8 10 10 10 2 0 7 -4 10 -10z m-4285
-30 c0 -21 -16 -29 -42 -22 -25 6 -22 25 5 38 27 13 37 9 37 -16z m90 -6 c0
-8 -10 -14 -25 -14 -26 0 -35 25 -12 33 18 6 37 -3 37 -19z m1403 19 c-7 -2
-19 -2 -25 0 -7 3 -2 5 12 5 14 0 19 -2 13 -5z m-3984 -27 c100 -2 185 -6 189
-10 4 -4 -1 -12 -10 -17 -10 -5 -15 -16 -11 -24 3 -9 0 -22 -7 -30 -6 -8 -9
-19 -6 -24 4 -6 -3 -15 -15 -22 -18 -9 -24 -8 -31 5 -5 9 -14 16 -19 16 -6 0
-8 -4 -5 -8 3 -5 -2 -9 -10 -9 -25 0 -9 22 22 28 29 5 29 5 -11 17 -58 17 -66
16 -60 -10 4 -18 0 -26 -22 -35 -15 -7 -33 -13 -40 -13 -8 0 -16 -6 -18 -12
-5 -13 -60 -16 -72 -5 -10 11 -51 8 -59 -4 -4 -7 -10 -7 -16 -1 -7 7 -22 5
-44 -4 -20 -9 -51 -12 -75 -9 -24 3 -48 0 -55 -6 -10 -9 -15 -8 -20 4 -5 13
-9 13 -35 0 -21 -10 -34 -12 -41 -5 -15 15 -21 87 -9 111 8 15 9 27 1 41 -6
11 -9 20 -8 20 60 8 126 8 138 -1 8 -6 11 -12 5 -15 -13 -5 -10 -87 4 -111 10
-17 10 -16 11 4 0 12 4 24 9 27 5 4 5 23 0 48 -6 22 -6 45 -2 49 7 7 120 17
135 12 3 -2 88 -5 187 -7z m2648 8 c-3 -3 -12 -4 -19 -1 -8 3 -5 6 6 6 11 1
17 -2 13 -5z m1295 -6 c-9 -9 -15 -9 -24 0 -9 9 -7 12 12 12 19 0 21 -3 12
-12z m-4559 -5 c-7 -2 -19 -2 -25 0 -7 3 -2 5 12 5 14 0 19 -2 13 -5z m77 -12
c0 -27 -10 -51 -22 -51 -6 0 -8 10 -5 22 4 12 1 28 -5 35 -8 10 -6 13 11 13
14 0 21 -6 21 -19z m915 9 c4 -6 -7 -10 -27 -10 -25 0 -29 3 -18 10 19 13 37
13 45 0z m205 -10 c0 -21 -15 -27 -25 -10 -3 6 -24 10 -45 10 -21 0 -42 5 -45
10 -4 6 17 10 54 10 54 0 61 -2 61 -20z m-340 0 c0 -5 -5 -10 -11 -10 -5 0 -7
5 -4 10 3 6 8 10 11 10 2 0 4 -4 4 -10z m5717 4 c-3 -3 -12 -4 -19 -1 -8 3 -5
6 6 6 11 1 17 -2 13 -5z m-3090 -10 c-3 -3 -12 -4 -19 -1 -8 3 -5 6 6 6 11 1
17 -2 13 -5z m-2492 -11 c-11 -3 -24 -9 -29 -13 -5 -5 -15 -6 -24 -2 -13 5
-12 7 4 13 10 4 30 7 44 7 20 0 21 -1 5 -5z m-1035 -7 c0 -11 -19 -15 -25 -6
-3 5 1 10 9 10 9 0 16 -2 16 -4z m50 -6 c0 -5 -4 -10 -10 -10 -5 0 -10 5 -10
10 0 6 5 10 10 10 6 0 10 -4 10 -10z m836 -20 c1 -17 -3 -30 -7 -30 -5 0 -9
14 -9 30 0 39 15 39 16 0z m239 10 c7 -23 -2 -60 -16 -60 -5 0 -8 18 -7 40 1
43 13 53 23 20z m65 11 c0 -6 -5 -13 -10 -16 -15 -9 -43 3 -35 15 8 13 45 13
45 1z m6348 -13 c-3 -20 -10 -23 -54 -26 -39 -2 -56 1 -70 15 -17 17 -16 18
12 24 16 4 48 7 72 8 40 1 43 -1 40 -21z m-4413 1 c4 -6 4 -26 1 -44 -5 -24
-11 -32 -21 -28 -8 3 -12 9 -9 14 3 5 1 9 -4 9 -9 0 -13 27 -6 48 4 15 30 16
39 1z m-2155 -9 c0 -5 -2 -10 -4 -10 -3 0 -8 5 -11 10 -3 6 -1 10 4 10 6 0 11
-4 11 -10z m2240 6 c0 -2 -7 -9 -15 -16 -12 -10 -15 -10 -15 4 0 9 7 16 15 16
8 0 15 -2 15 -4z m954 -17 c15 -12 33 -18 45 -14 10 3 23 -1 30 -9 10 -12 0
-14 -69 -13 -54 0 -76 4 -65 9 10 6 14 17 10 29 -8 26 15 25 49 -2z m8561 12
c3 -5 1 -12 -5 -16 -5 -3 -10 1 -10 9 0 18 6 21 15 7z m-11725 -11 c0 -5 -2
-10 -4 -10 -3 0 -8 5 -11 10 -3 6 -1 10 4 10 6 0 11 -4 11 -10z m50 0 c0 -5
-7 -10 -15 -10 -8 0 -15 5 -15 10 0 6 7 10 15 10 8 0 15 -4 15 -10z m2178 -31
c-7 -5 -17 -9 -23 -9 -5 1 -2 5 8 11 9 5 18 18 18 27 1 14 2 14 6 -2 3 -10 -1
-22 -9 -27z m1258 29 c5 -7 2 -9 -8 -5 -9 3 -21 0 -27 -6 -13 -13 -26 -3 -16
12 8 15 42 14 51 -1z m-1156 -19 c0 -11 -4 -17 -10 -14 -5 3 -10 13 -10 21 0
8 5 14 10 14 6 0 10 -9 10 -21z m-2480 -8 c0 -11 -4 -23 -10 -26 -6 -4 -10 5
-10 19 0 14 5 26 10 26 6 0 10 -9 10 -19z m3445 -1 c3 -5 -1 -10 -10 -10 -9 0
-13 5 -10 10 3 6 8 10 10 10 2 0 7 -4 10 -10z m-4175 -53 c0 -33 -25 -12 -28
24 -2 32 -1 33 13 15 8 -11 15 -28 15 -39z m868 41 c-17 -10 -48 -10 -48 0 0
5 14 9 30 9 20 0 26 -3 18 -9z m3412 2 c-8 -5 -22 -10 -30 -10 -13 0 -13 1 0
10 8 5 22 10 30 10 13 0 13 -1 0 -10z m-3213 -32 c-3 -7 -5 -2 -5 12 0 14 2
19 5 13 2 -7 2 -19 0 -25z m1393 28 c0 -3 -4 -8 -10 -11 -5 -3 -10 -1 -10 4 0
6 5 11 10 11 6 0 10 -2 10 -4z m9730 -31 c0 -8 -4 -15 -10 -15 -5 0 -10 7 -10
15 0 8 5 15 10 15 6 0 10 -7 10 -15z m-12700 -85 c0 -5 -2 -10 -4 -10 -3 0 -8
5 -11 10 -3 6 -1 10 4 10 6 0 11 -4 11 -10z m-20 -44 c0 -3 -4 -8 -10 -11 -5
-3 -10 -1 -10 4 0 6 5 11 10 11 6 0 10 -2 10 -4z m12701 -109 c-13 -13 -26 -3
-16 12 3 6 11 8 17 5 6 -4 6 -10 -1 -17z m-21 -72 c0 -8 -4 -15 -10 -15 -5 0
-10 7 -10 15 0 8 5 15 10 15 6 0 10 -7 10 -15z m-12400 -217 c0 -5 -4 -8 -10
-8 -5 0 -10 10 -10 23 0 18 2 19 10 7 5 -8 10 -18 10 -22z m6352 17 c0 -5 -5
-11 -11 -13 -6 -2 -11 4 -11 13 0 9 5 15 11 13 6 -2 11 -8 11 -13z m-55 -17
c-3 -8 -6 -5 -6 6 -1 11 2 17 5 13 3 -3 4 -12 1 -19z m93 -47 c0 -5 -10 -12
-22 -16 -34 -12 -79 -12 -75 -1 6 19 97 35 97 17z m-6200 -62 c0 -5 -7 -9 -15
-9 -9 0 -15 9 -15 21 0 18 2 19 15 9 8 -7 15 -16 15 -21z m6189 -5 c25 -8 -11
-34 -51 -37 -31 -3 -37 0 -41 20 -2 12 -3 24 -1 26 4 4 74 -3 93 -9z m5406
-33 c-3 -12 -10 -21 -15 -21 -5 0 -4 11 2 25 13 29 23 26 13 -4z m-5255 -20
c0 -6 -4 -13 -10 -16 -5 -3 -10 1 -10 9 0 9 5 16 10 16 6 0 10 -4 10 -9z m-30
-11 c0 -12 -28 -25 -36 -17 -9 9 6 27 22 27 8 0 14 -5 14 -10z m417 -146 c-3
-3 -12 -4 -19 -1 -8 3 -5 6 6 6 11 1 17 -2 13 -5z m-167 -43 c0 -6 -5 -13 -10
-16 -13 -8 30 -44 46 -38 7 2 15 0 18 -6 8 -13 -19 -28 -73 -40 -39 -8 -41 -8
-41 15 0 15 6 24 16 24 10 0 14 7 13 23 -2 12 0 28 4 35 10 14 27 16 27 3z
m505 -1 c3 -5 -1 -10 -9 -10 -8 0 -18 5 -21 10 -3 6 1 10 9 10 8 0 18 -4 21
-10z m88 -7 c-13 -2 -33 -2 -45 0 -13 2 -3 4 22 4 25 0 35 -2 23 -4z m-463
-64 c0 -5 -4 -9 -10 -9 -5 0 -10 7 -10 16 0 8 5 12 10 9 6 -3 10 -10 10 -16z
m632 -91 c-9 -9 -15 -9 -24 0 -9 9 -7 12 12 12 19 0 21 -3 12 -12z m-69 -5
c-7 -2 -19 -2 -25 0 -7 3 -2 5 12 5 14 0 19 -2 13 -5z m397 -53 c-20 -13 -73
-13 -65 0 3 6 23 10 43 10 28 0 33 -3 22 -10z m-900 -15 c0 -19 -21 -19 -46 0
-18 14 -17 14 14 15 22 0 32 -5 32 -15z m705 -4 c-15 -13 -93 -22 -100 -12 -6
10 21 18 75 20 20 0 30 -3 25 -8z m88 -3 c17 2 26 -2 22 -8 -7 -11 -45 -13
-69 -4 -9 3 -13 10 -10 15 3 5 11 6 17 2 6 -4 24 -6 40 -5z m340 -28 c8 -29
-6 -32 -20 -4 -9 19 -8 24 2 24 7 0 15 -9 18 -20z m-223 0 c0 -5 -8 -10 -17
-10 -15 0 -16 2 -3 10 19 12 20 12 20 0z m-910 -10 c0 -5 -4 -10 -10 -10 -5 0
-10 5 -10 10 0 6 5 10 10 10 6 0 10 -4 10 -10z m968 -14 c-4 -18 0 -26 15 -30
11 -3 16 -9 12 -16 -4 -6 -13 -9 -21 -6 -8 3 -14 0 -14 -8 0 -16 -45 -40 -59
-32 -21 13 -11 26 20 26 25 0 29 3 21 13 -7 8 -7 18 -2 27 5 8 7 23 4 33 -4
11 0 17 11 17 13 0 16 -6 13 -24z m414 -5 c3 -21 1 -28 -9 -24 -7 3 -13 -2
-13 -11 0 -20 -26 -21 -33 -2 -3 8 1 20 9 27 8 7 13 18 10 26 -3 8 2 13 13 13
13 0 20 -9 23 -29z m96 17 c-8 -22 -45 -27 -63 -9 -15 18 -14 19 25 19 26 1
40 -3 38 -10z m2584 -10 c-7 -7 -12 -8 -12 -2 0 14 12 26 19 19 2 -3 -1 -11
-7 -17z m-3196 2 c37 0 44 -3 44 -20 0 -21 -26 -28 -32 -8 -4 12 -78 22 -78
10 0 -6 -21 -7 -62 -3 -5 1 -8 5 -8 10 0 13 30 20 64 15 16 -2 48 -4 72 -4z
m694 0 c8 -5 15 -20 15 -34 1 -14 9 -34 19 -44 16 -18 15 -20 -14 -32 -35 -15
-54 -5 -27 14 9 7 17 18 17 25 0 11 -6 13 -45 15 -15 1 -21 9 -23 34 -3 28 0
32 20 32 13 0 30 -4 38 -10z m-466 -6 c24 -9 19 -34 -6 -34 -12 0 -30 -8 -40
-17 -16 -14 -21 -15 -28 -3 -9 14 9 52 21 44 4 -2 10 0 14 6 7 12 17 13 39 4z
m573 -10 c2 -5 -3 -19 -12 -29 -14 -19 -14 -18 -15 13 0 31 18 42 27 16z m43
-21 c0 -26 -1 -26 -15 -7 -19 25 -19 34 0 34 10 0 15 -10 15 -27z m-1370 -25
c0 -6 -7 -5 -15 2 -8 7 -15 17 -15 22 0 6 7 5 15 -2 8 -7 15 -17 15 -22z
m1140 12 c0 -11 -4 -20 -9 -20 -13 0 -32 26 -24 33 13 14 33 6 33 -13z m-1223
-26 c-9 -9 -28 6 -21 18 4 6 10 6 17 -1 6 -6 8 -13 4 -17z m1968 -15 c-5 -38
-8 -41 -28 -33 -15 5 -15 8 -2 21 8 8 15 23 15 34 0 11 4 18 9 14 5 -3 8 -19
6 -36z m1510 31 c19 -8 19 -9 -2 -9 -12 -1 -25 4 -28 9 -7 12 2 12 30 0z
m-2913 -22 c-6 -6 -15 -8 -19 -4 -4 4 -1 11 7 16 19 12 27 3 12 -12z m338 6
c0 -14 -3 -14 -15 -4 -8 7 -15 14 -15 16 0 2 7 4 15 4 8 0 15 -7 15 -16z m65
6 c4 -6 11 -8 16 -5 5 4 9 1 9 -5 0 -15 -42 -8 -48 8 -4 14 14 16 23 2z m653
-40 c6 0 13 6 15 13 4 8 8 9 14 2 11 -14 59 -13 56 1 -3 14 41 7 87 -14 35
-16 35 -16 -45 -27 -48 -7 -100 -8 -132 -3 -29 4 -56 7 -60 7 -4 -1 -16 1 -25
5 -19 9 -25 46 -8 46 6 0 10 -7 10 -15 0 -23 31 -18 38 7 5 21 5 21 23 0 9
-12 22 -22 27 -22z m212 36 c0 -11 -19 -15 -25 -6 -3 5 1 10 9 10 9 0 16 -2
16 -4z m227 -12 c-3 -3 -12 -4 -19 -1 -8 3 -5 6 6 6 11 1 17 -2 13 -5z m1473
-24 c0 -15 -5 -12 -26 11 -19 22 -19 22 4 10 12 -6 22 -16 22 -21z m-2745 10
c3 -5 1 -10 -4 -10 -6 0 -11 5 -11 10 0 6 2 10 4 10 3 0 8 -4 11 -10z m677
-20 c22 -21 22 -22 4 -34 -11 -6 -27 -19 -37 -28 -49 -47 -149 -67 -149 -30 0
10 -5 23 -11 29 -19 19 10 27 31 8 17 -15 20 -15 54 7 27 17 36 30 36 51 0 24
3 27 25 23 13 -3 35 -14 47 -26z m-428 -11 c-9 -16 -20 -10 -21 12 -2 17 1 18
12 9 8 -7 12 -16 9 -21z m59 13 c10 -10 14 -21 11 -25 -10 -9 -54 15 -54 30 0
19 24 16 43 -5z m-734 -13 c-19 -12 -39 -11 -39 2 0 5 4 8 9 4 5 -3 12 -1 16
5 4 6 11 7 17 4 6 -4 5 -10 -3 -15z m406 11 c3 -5 -1 -10 -10 -10 -9 0 -13 5
-10 10 3 6 8 10 10 10 2 0 7 -4 10 -10z m1125 0 c0 -5 -6 -10 -14 -10 -8 0
-18 5 -21 10 -3 6 3 10 14 10 12 0 21 -4 21 -10z m500 6 c0 -11 -19 -15 -25
-6 -3 5 1 10 9 10 9 0 16 -2 16 -4z m202 -28 c-15 -15 -26 -4 -18 18 5 13 9
15 18 6 9 -9 9 -15 0 -24z m-1895 0 c-3 -8 -6 -5 -6 6 -1 11 2 17 5 13 3 -3 4
-12 1 -19z m477 3 c-5 -3 -9 -15 -9 -26 0 -26 -38 -27 -43 -1 -2 11 0 16 7 12
5 -4 15 3 21 14 6 11 16 18 22 14 5 -4 6 -9 2 -13z m1316 3 c0 -2 -7 -4 -15
-4 -8 0 -15 4 -15 10 0 5 7 7 15 4 8 -4 15 -8 15 -10z m-385 -13 c8 -14 -13
-24 -33 -16 -14 5 -14 7 -2 15 19 12 27 12 35 1z m-860 -10 c7 -12 -12 -24
-25 -16 -11 7 -4 25 10 25 5 0 11 -4 15 -9z m-1258 -48 c-3 -10 -5 -4 -5 12 0
17 2 24 5 18 2 -7 2 -21 0 -30z m-77 23 c0 -3 -4 -8 -10 -11 -5 -3 -10 -1 -10
4 0 6 5 11 10 11 6 0 10 -2 10 -4z m1908 -56 c4 -10 -3 -11 -28 -6 -18 3 -38
2 -45 -4 -7 -6 -36 -12 -66 -15 -30 -2 -71 -9 -93 -14 -21 -5 -44 -7 -51 -5
-7 3 -26 -6 -43 -20 -33 -29 -57 -34 -49 -12 3 8 1 17 -6 19 -21 7 1 20 33 19
16 0 30 4 30 9 0 6 8 9 18 6 9 -2 29 2 43 9 15 7 29 11 32 8 3 -3 11 -3 17 1
7 4 44 9 83 12 40 2 73 8 75 13 4 12 45 -4 50 -20z m202 6 c0 -22 -13 -26 -26
-8 -19 24 -17 31 6 25 11 -3 20 -11 20 -17z m-123 8 c-3 -3 -12 -4 -19 -1 -8
3 -5 6 6 6 11 1 17 -2 13 -5z m48 -33 c-10 -16 -25 -3 -25 22 0 20 1 20 16 5
9 -9 13 -21 9 -27z m353 30 c17 -1 32 -6 32 -12 0 -8 -12 -10 -35 -6 -43 7
-47 -9 -5 -18 17 -4 30 -13 30 -21 0 -20 -23 -17 -74 10 -39 20 -51 23 -86 15
-33 -8 -47 -6 -71 8 -16 10 -29 20 -29 23 0 4 122 5 238 1z m212 -1 c0 -5 -11
-10 -25 -10 -14 0 -25 5 -25 10 0 6 11 10 25 10 14 0 25 -4 25 -10z m84 4 c17
-7 22 -34 6 -34 -5 0 -10 5 -10 11 0 6 -7 9 -15 5 -9 -3 -15 0 -15 9 0 16 9
18 34 9z m144 -4 c2 0 0 -4 -3 -10 -3 -5 -26 -9 -50 -8 -35 2 -42 5 -33 16 8
8 24 11 47 8 20 -3 37 -5 39 -6z m519 -7 c3 -7 -3 -9 -16 -6 -12 3 -21 10 -21
15 0 13 32 6 37 -9z m-2087 -3 c0 -5 -4 -10 -10 -10 -5 0 -10 5 -10 10 0 6 5
10 10 10 6 0 10 -4 10 -10z m95 0 c3 -5 1 -10 -4 -10 -6 0 -11 5 -11 10 0 6 2
10 4 10 3 0 8 -4 11 -10z m1115 0 c0 -5 -2 -10 -4 -10 -3 0 -8 5 -11 10 -3 6
-1 10 4 10 6 0 11 -4 11 -10z m707 -15 c3 -9 3 -19 -1 -22 -9 -10 -58 16 -51
27 10 16 45 12 52 -5z m-2547 -40 c0 -7 -45 -6 -53 1 -3 3 -1 14 5 24 10 16
12 16 29 -1 11 -11 19 -21 19 -24z m804 29 c9 -24 2 -26 -12 -4 -7 11 -8 20
-3 20 5 0 12 -7 15 -16z m564 -3 c3 -8 -1 -12 -9 -9 -7 2 -15 10 -17 17 -3 8
1 12 9 9 7 -2 15 -10 17 -17z m-7928 -7 c0 -8 -5 -12 -10 -9 -6 4 -8 11 -5 16
9 14 15 11 15 -7z m7992 -16 c-9 -9 -12 -7 -12 12 0 19 3 21 12 12 9 -9 9 -15
0 -24z m-2117 12 c3 -5 -1 -10 -9 -10 -9 0 -16 5 -16 10 0 6 4 10 9 10 6 0 13
-4 16 -10z m448 3 c-7 -2 -21 -2 -30 0 -10 3 -4 5 12 5 17 0 24 -2 18 -5z
m1784 -20 c-9 -8 -48 8 -42 18 4 5 14 5 26 -2 12 -6 18 -13 16 -16z m-677 -3
c8 -5 12 -11 10 -14 -3 -2 -14 2 -24 10 -22 15 -10 19 14 4z m615 0 c-3 -5
-15 -10 -26 -10 -10 0 -19 5 -19 10 0 6 12 10 26 10 14 0 23 -4 19 -10z m210
0 c3 -5 -3 -10 -15 -10 -12 0 -18 5 -15 10 3 6 10 10 15 10 5 0 12 -4 15 -10z
m181 -20 c7 7 18 3 33 -11 12 -12 20 -24 16 -27 -3 -4 -10 0 -15 8 -5 8 -10
12 -12 10 -2 -3 -12 -16 -23 -29 -20 -24 -20 -24 3 -17 13 5 22 3 22 -3 0 -6
-11 -12 -25 -12 -37 -2 -43 -3 -51 -11 -10 -10 -24 0 -24 18 0 8 9 14 20 14
11 0 20 7 20 16 0 11 -8 14 -32 12 -27 -2 -34 1 -36 19 -3 18 2 22 30 25 18 2
40 -2 49 -9 10 -8 19 -9 25 -3z m-872 -5 c19 -14 18 -15 -12 -15 -22 0 -32 5
-32 15 0 19 19 19 44 0z m1456 -10 c7 -8 9 -22 6 -31 -5 -14 -9 -13 -26 9 -11
14 -20 28 -20 31 0 12 28 6 40 -9z m-6790 -95 c0 -5 -7 -10 -16 -10 -8 0 -12
5 -9 10 3 6 10 10 16 10 5 0 9 -4 9 -10z m-1700 -70 c0 -5 -6 -10 -14 -10 -8
0 -18 5 -21 10 -3 6 3 10 14 10 12 0 21 -4 21 -10z m1040 -49 c0 -6 -4 -13
-10 -16 -5 -3 -10 1 -10 9 0 9 5 16 10 16 6 0 10 -4 10 -9z m-70 -11 c0 -5 -4
-10 -10 -10 -5 0 -10 5 -10 10 0 6 5 10 10 10 6 0 10 -4 10 -10z m-110 -20 c0
-5 -5 -10 -11 -10 -5 0 -7 5 -4 10 3 6 8 10 11 10 2 0 4 -4 4 -10z m-280 -15
c10 -12 10 -15 -4 -15 -9 0 -16 7 -16 15 0 8 2 15 4 15 2 0 9 -7 16 -15z m755
-35 c3 -5 -1 -10 -9 -10 -9 0 -16 5 -16 10 0 6 4 10 9 10 6 0 13 -4 16 -10z
m6073 -403 c2 -21 -4 -71 -12 -112 -8 -41 -18 -105 -22 -142 -15 -163 -89
-324 -136 -296 -11 6 -10 59 2 102 21 77 98 398 105 436 9 52 13 57 38 53 18
-2 23 -11 25 -41z m-6141 -19 c6 -7 20 -49 31 -93 11 -44 40 -147 63 -230 22
-82 45 -168 51 -189 10 -42 1 -107 -12 -86 -4 6 -11 11 -16 9 -24 -7 -87 130
-106 231 -11 63 -18 74 -70 106 -27 18 -38 31 -38 49 0 20 5 25 24 25 14 0 27
4 31 9 3 6 0 41 -6 80 -6 38 -9 77 -6 85 8 19 41 21 54 4z m179 -43 c3 -20 4
-47 1 -62 -7 -38 19 -86 80 -147 37 -37 53 -61 53 -79 0 -15 -3 -27 -6 -27
-17 0 -154 157 -159 182 -4 15 -14 32 -23 37 -14 8 -15 14 -5 43 7 18 10 43 7
55 -4 13 -4 30 0 38 10 26 44 0 52 -40z m6269 -326 c-4 -6 1 -16 11 -23 18
-14 12 -36 -11 -36 -22 0 -39 38 -24 56 13 16 33 19 24 3z m-1366 -105 c34
-52 91 -192 91 -224 0 -52 -51 8 -94 110 -15 36 -39 80 -53 98 -27 36 -25 62
6 62 12 0 31 -18 50 -46z m-4033 -22 c24 -16 22 -39 -6 -65 -15 -15 -36 -51
-45 -80 -21 -66 -57 -131 -70 -126 -29 12 32 215 80 263 18 18 25 19 41 8z
m3243 -78 c17 -25 31 -47 31 -50 0 -3 13 -24 29 -47 62 -87 140 -220 135 -228
-3 -5 -16 -9 -29 -9 -36 0 -94 79 -171 233 -56 113 -66 140 -54 147 19 11 23
8 59 -46z m-147 21 c0 -5 -5 -11 -11 -13 -6 -2 -11 4 -11 13 0 9 5 15 11 13 6
-2 11 -8 11 -13z m-2199 -34 c5 -22 -16 -46 -33 -36 -14 9 -13 52 3 58 17 6
24 1 30 -22z m-853 -26 c-5 -5 -10 -21 -13 -35 -2 -14 -3 -2 -2 25 4 62 5 65
14 40 5 -11 5 -24 1 -30z m724 30 c3 -8 -10 -47 -28 -87 -18 -40 -47 -104 -65
-141 -38 -84 -86 -147 -112 -147 -30 0 -34 28 -10 60 11 16 21 31 21 33 0 2
27 52 60 111 33 59 60 110 60 113 0 11 51 73 59 73 5 0 11 -7 15 -15z m2187
-117 c23 -43 -18 -86 -62 -65 -34 18 -40 74 -8 86 31 11 57 3 70 -21z m-1877
-14 c19 -7 22 -64 4 -82 -16 -16 -53 -15 -68 2 -18 22 -8 59 20 73 30 15 25
14 44 7z m2908 -24 c3 -16 1 -30 -4 -30 -4 0 -8 3 -8 8 0 4 -3 17 -6 30 -4 12
-2 22 4 22 5 0 12 -13 14 -30z m1178 -35 c16 -19 3 -54 -52 -142 -41 -64 -80
-98 -104 -89 -35 13 8 122 79 199 47 51 58 55 77 32z m-5150 -26 c0 -16 -4
-28 -9 -25 -5 4 -8 14 -6 24 2 9 4 20 4 25 1 4 3 7 6 7 3 0 5 -14 5 -31z
m-1070 -61 c60 -72 92 -131 88 -161 -8 -58 -73 -12 -137 98 -49 83 -54 125
-15 125 7 0 35 -28 64 -62z m6666 -249 c12 -19 -17 -55 -61 -77 -24 -11 -45
-18 -48 -15 -10 9 13 56 36 72 41 31 63 36 73 20z m-7102 -55 c31 -26 42 -42
39 -55 -8 -29 -42 -16 -100 38 -21 19 -15 53 9 53 5 0 29 -16 52 -36z m5069
-34 c44 -28 58 -52 38 -64 -4 -3 -33 7 -62 22 -38 19 -55 34 -57 50 -5 31 23
29 81 -8z m-3090 -23 c6 -17 -1 -28 -33 -50 -26 -18 -70 -23 -70 -8 0 13 69
71 84 71 8 0 16 -6 19 -13z m2362 -79 c52 -26 65 -37 65 -55 0 -30 -19 -29
-83 3 -55 27 -67 39 -67 67 0 24 10 22 85 -15z m-1635 -15 c0 -16 -2 -16 -11
-3 -9 12 -10 11 -6 -8 4 -16 -1 -26 -16 -34 -12 -7 -25 -12 -29 -13 -3 0 -10
-3 -14 -7 -4 -5 -18 -8 -31 -8 -40 0 -23 32 32 61 60 32 75 34 75 12z m9715
-83 c-28 -12 -55 -12 -55 0 0 6 17 10 38 9 30 0 33 -2 17 -9z m-15 -50 c0 -5
-9 -10 -19 -10 -11 0 -23 5 -26 10 -4 6 5 10 19 10 14 0 26 -4 26 -10z
m-18160 -503 c0 -15 -49 -42 -58 -32 -6 6 37 45 50 45 4 0 8 -6 8 -13z m-320
-677 c0 -5 -7 -10 -15 -10 -8 0 -15 5 -15 10 0 6 7 10 15 10 8 0 15 -4 15 -10z
m273 -38 c-3 -12 -12 -22 -19 -22 -12 0 -11 5 2 25 19 30 26 28 17 -3z m372
-1 c8 -14 -50 -40 -66 -30 -11 7 -10 9 4 9 10 0 25 7 33 15 18 18 21 18 29 6z
m340 -11 c3 -5 -8 -16 -24 -25 -46 -23 -59 -18 -21 10 42 29 37 27 45 15z
m10205 -1006 c0 -8 -4 -12 -10 -9 -5 3 -10 13 -10 21 0 8 5 12 10 9 6 -3 10
-13 10 -21z m16 -69 c15 -38 19 -95 5 -95 -7 0 -17 39 -27 108 -4 32 5 27 22
-13z m30 -170 c3 -20 4 -39 0 -42 -9 -9 -13 -2 -19 40 -7 47 10 49 19 2z m9
-65 c3 -5 1 -10 -4 -10 -6 0 -11 5 -11 10 0 6 2 10 4 10 3 0 8 -4 11 -10z
m-3268 -42 c-3 -7 -5 -2 -5 12 0 14 2 19 5 13 2 -7 2 -19 0 -25z m-30 -160
c-3 -8 -6 -5 -6 6 -1 11 2 17 5 13 3 -3 4 -12 1 -19z m-17 -122 c-7 -7 -10 4
-9 30 1 39 1 39 10 9 5 -18 5 -33 -1 -39z m-34 -212 c-3 -8 -10 -12 -16 -9 -7
4 -6 14 2 28 12 24 24 8 14 -19z m-22 -96 c-4 -35 -7 -76 -6 -93 1 -29 -12
-65 -21 -55 -5 5 9 151 18 188 11 46 17 20 9 -40z m-37 -205 c-3 -10 -5 -4 -5
12 0 17 2 24 5 18 2 -7 2 -21 0 -30z"/>
<path d="M9921 9214 c0 -11 3 -14 6 -6 3 7 2 16 -1 19 -3 4 -6 -2 -5 -13z"/>
<path d="M8896 8832 c-2 -4 -1 -14 5 -22 7 -12 9 -10 9 8 0 23 -5 28 -14 14z"/>
<path d="M9708 8814 c3 -17 8 -22 15 -15 11 11 3 41 -11 41 -5 0 -7 -12 -4
-26z"/>
<path d="M12960 8816 c0 -8 5 -18 10 -21 6 -3 10 3 10 14 0 12 -4 21 -10 21
-5 0 -10 -6 -10 -14z"/>
<path d="M13181 8794 c0 -11 3 -14 6 -6 3 7 2 16 -1 19 -3 4 -6 -2 -5 -13z"/>
<path d="M8918 8783 c7 -3 16 -2 19 1 4 3 -2 6 -13 5 -11 0 -14 -3 -6 -6z"/>
<path d="M8916 8751 c-4 -7 -5 -15 -2 -18 9 -9 19 4 14 18 -4 11 -6 11 -12 0z"/>
<path d="M11775 8732 c-9 -6 -12 -42 -7 -79 4 -31 20 -9 24 33 3 47 -1 58 -17
46z"/>
<path d="M4920 8640 c0 -78 1 -80 20 -68 17 11 20 24 20 80 0 61 -2 68 -20 68
-18 0 -20 -7 -20 -80z"/>
<path d="M10240 8700 c0 -7 -6 -10 -14 -7 -8 3 -17 3 -20 0 -6 -7 12 -43 22
-43 12 0 31 50 21 56 -5 3 -9 0 -9 -6z"/>
<path d="M3280 8670 c0 -5 7 -10 15 -10 8 0 15 5 15 10 0 6 -7 10 -15 10 -8 0
-15 -4 -15 -10z"/>
<path d="M8967 8673 c-4 -3 -7 -11 -7 -17 0 -6 5 -5 12 2 6 6 9 14 7 17 -3 3
-9 2 -12 -2z"/>
<path d="M5960 8660 c0 -5 5 -10 10 -10 6 0 10 5 10 10 0 6 -4 10 -10 10 -5 0
-10 -4 -10 -10z"/>
<path d="M10184 8647 c-8 -21 2 -35 16 -21 5 5 6 15 0 24 -8 12 -10 12 -16 -3z"/>
<path d="M4623 8643 c-17 -6 -16 -23 1 -23 8 0 16 7 20 15 6 15 1 17 -21 8z"/>
<path d="M10230 8631 c0 -5 -3 -16 -6 -25 -3 -9 -2 -16 4 -16 5 0 12 11 14 25
3 14 1 25 -3 25 -5 0 -9 -4 -9 -9z"/>
<path d="M10270 8610 c0 -5 5 -10 11 -10 5 0 7 5 4 10 -3 6 -8 10 -11 10 -2 0
-4 -4 -4 -10z"/>
<path d="M3015 8600 c-3 -5 -1 -10 4 -10 6 0 11 5 11 10 0 6 -2 10 -4 10 -3 0
-8 -4 -11 -10z"/>
<path d="M3285 8600 c3 -5 8 -10 11 -10 2 0 4 5 4 10 0 6 -5 10 -11 10 -5 0
-7 -4 -4 -10z"/>
<path d="M4750 8585 c0 -8 7 -15 15 -15 8 0 15 7 15 15 0 8 -7 15 -15 15 -8 0
-15 -7 -15 -15z"/>
<path d="M11530 8581 c0 -10 7 -21 15 -25 11 -4 15 1 15 19 0 16 -6 25 -15 25
-8 0 -15 -9 -15 -19z"/>
<path d="M3321 8577 c2 -1 11 -8 21 -15 12 -10 18 -10 24 -1 4 8 3 9 -4 5 -7
-4 -12 -2 -12 3 0 6 -7 11 -17 11 -9 0 -14 -1 -12 -3z"/>
<path d="M4854 8571 c3 -5 15 -7 26 -4 28 7 25 13 -6 13 -14 0 -23 -4 -20 -9z"/>
<path d="M11770 8553 c1 -27 1 -27 15 -9 14 19 12 36 -6 36 -5 0 -9 -12 -9
-27z"/>
<path d="M11670 8551 c0 -5 9 -7 20 -4 11 3 20 7 20 9 0 2 -9 4 -20 4 -11 0
-20 -4 -20 -9z"/>
<path d="M3800 8505 c0 -14 5 -25 10 -25 6 0 10 11 10 25 0 14 -4 25 -10 25
-5 0 -10 -11 -10 -25z"/>
<path d="M8680 8520 c0 -5 4 -10 9 -10 6 0 13 5 16 10 3 6 -1 10 -9 10 -9 0
-16 -4 -16 -10z"/>
<path d="M4013 8513 c9 -2 23 -2 30 0 6 3 -1 5 -18 5 -16 0 -22 -2 -12 -5z"/>
<path d="M11361 8504 c0 -11 3 -14 6 -6 3 7 2 16 -1 19 -3 4 -6 -2 -5 -13z"/>
<path d="M11730 8501 c0 -5 9 -11 19 -14 14 -3 18 -1 14 9 -6 15 -33 19 -33 5z"/>
<path d="M11832 8476 c7 -8 15 -12 17 -11 5 6 -10 25 -20 25 -5 0 -4 -6 3 -14z"/>
<path d="M11705 8470 c-3 -5 1 -10 9 -10 8 0 18 5 21 10 3 6 -1 10 -9 10 -8 0
-18 -4 -21 -10z"/>
<path d="M12180 8470 c0 -5 5 -10 10 -10 6 0 10 5 10 10 0 6 -4 10 -10 10 -5
0 -10 -4 -10 -10z"/>
<path d="M12424 8463 c2 -10 7 -18 12 -18 5 0 10 8 12 18 2 10 -3 17 -11 17
-9 0 -14 -8 -13 -17z"/>
<path d="M4480 8459 c0 -5 5 -7 10 -4 6 3 10 8 10 11 0 2 -4 4 -10 4 -5 0 -10
-5 -10 -11z"/>
<path d="M4355 8430 c3 -5 11 -10 16 -10 6 0 7 5 4 10 -3 6 -11 10 -16 10 -6
0 -7 -4 -4 -10z"/>
<path d="M4468 8433 c6 -2 18 -2 25 0 6 3 1 5 -13 5 -14 0 -19 -2 -12 -5z"/>
<path d="M11230 8430 c-20 -12 -5 -24 16 -12 9 5 12 12 7 15 -5 3 -15 2 -23
-3z"/>
<path d="M11345 8430 c3 -5 8 -10 11 -10 2 0 4 5 4 10 0 6 -5 10 -11 10 -5 0
-7 -4 -4 -10z"/>
<path d="M11290 8420 c-13 -8 -13 -10 2 -10 9 0 20 5 23 10 8 13 -5 13 -25 0z"/>
<path d="M6717 8383 c-4 -3 -7 -15 -7 -26 0 -18 15 -16 15 1 0 4 4 13 8 20 8
12 -5 17 -16 5z"/>
<path d="M6616 8331 c-12 -14 -14 -21 -6 -26 16 -10 41 17 31 33 -6 9 -12 8
-25 -7z"/>
<path d="M3485 8320 c3 -5 8 -10 11 -10 2 0 4 5 4 10 0 6 -5 10 -11 10 -5 0
-7 -4 -4 -10z"/>
<path d="M3555 8320 c-17 -7 -17 -9 -2 -9 20 -1 22 -12 5 -30 -11 -11 -10 -13
1 -9 8 2 18 16 22 31 8 29 5 30 -26 17z"/>
<path d="M3602 8280 c4 -17 48 -27 48 -11 0 6 7 11 15 11 8 0 15 4 15 9 0 6
-18 9 -40 8 -31 -1 -40 -5 -38 -17z"/>
<path d="M3490 8280 c0 -5 5 -10 11 -10 5 0 7 5 4 10 -3 6 -8 10 -11 10 -2 0
-4 -4 -4 -10z"/>
<path d="M3551 8224 c0 -11 3 -14 6 -6 3 7 2 16 -1 19 -3 4 -6 -2 -5 -13z"/>
<path d="M3685 7616 c-30 -13 -30 -13 -1 -20 20 -5 34 -3 43 7 21 21 -4 28
-42 13z"/>
<path d="M3601 7591 c-9 -6 -11 -14 -4 -26 7 -11 13 -14 17 -7 4 6 14 8 23 5
13 -5 15 -2 10 11 -4 10 -7 20 -7 22 0 7 -24 4 -39 -5z"/>
<path d="M3985 7240 c3 -5 8 -10 11 -10 2 0 4 5 4 10 0 6 -5 10 -11 10 -5 0
-7 -4 -4 -10z"/>
<path d="M3985 7190 c3 -5 8 -10 11 -10 2 0 4 5 4 10 0 6 -5 10 -11 10 -5 0
-7 -4 -4 -10z"/>
<path d="M13803 9280 c0 -47 2 -66 4 -42 2 23 2 61 0 85 -2 23 -4 4 -4 -43z"/>
<path d="M14053 9120 c0 -47 2 -66 4 -42 2 23 2 61 0 85 -2 23 -4 4 -4 -43z"/>
<path d="M15674 9105 c20 -42 36 -57 36 -34 0 16 -40 79 -49 79 -5 0 1 -20 13
-45z"/>
<path d="M13801 9124 c0 -11 3 -14 6 -6 3 7 2 16 -1 19 -3 4 -6 -2 -5 -13z"/>
<path d="M15518 9095 c-3 -3 -3 -28 0 -55 3 -35 0 -53 -10 -64 -9 -9 -13 -25
-11 -40 7 -33 15 -33 30 -1 6 14 7 25 3 25 -9 0 -3 35 11 65 7 15 6 29 -4 48
-8 15 -16 24 -19 22z"/>
<path d="M14333 9055 c0 -22 2 -30 4 -17 2 12 2 30 0 40 -3 9 -5 -1 -4 -23z"/>
<path d="M16918 9053 c7 -3 16 -2 19 1 4 3 -2 6 -13 5 -11 0 -14 -3 -6 -6z"/>
<path d="M16997 9030 c17 -20 43 -27 43 -12 0 14 -23 32 -42 32 -17 0 -17 -1
-1 -20z"/>
<path d="M13799 8925 c-2 -66 -2 -124 2 -128 13 -17 15 9 9 128 -6 120 -6 120
-11 0z"/>
<path d="M14111 9024 c0 -11 3 -14 6 -6 3 7 2 16 -1 19 -3 4 -6 -2 -5 -13z"/>
<path d="M15715 9030 c3 -5 10 -10 16 -10 5 0 9 5 9 10 0 6 -7 10 -16 10 -8 0
-12 -4 -9 -10z"/>
<path d="M15583 8983 c-4 -9 -1 -19 5 -21 7 -2 12 -15 12 -28 0 -13 5 -24 10
-24 6 0 13 0 18 0 4 0 7 8 8 18 1 9 5 25 9 36 5 12 3 21 -6 27 -22 14 -49 10
-56 -8z"/>
<path d="M16213 8959 c-23 -9 -32 -29 -12 -29 12 0 44 29 38 34 -2 2 -14 0
-26 -5z"/>
<path d="M16946 8845 c-3 -8 -1 -15 5 -15 6 0 9 -7 6 -14 -4 -10 -1 -13 9 -9
17 6 17 13 0 36 -12 15 -14 16 -20 2z"/>
<path d="M16848 8686 c-3 -14 0 -27 7 -30 7 -2 12 7 12 25 0 35 -13 38 -19 5z"/>
<path d="M16670 8421 c0 -11 -6 -22 -12 -24 -7 -3 -3 -6 8 -6 20 -1 34 16 34
40 0 5 -7 9 -15 9 -8 0 -15 -9 -15 -19z"/>
<path d="M16550 8333 c0 -5 5 -15 10 -23 8 -12 10 -11 10 8 0 12 -4 22 -10 22
-5 0 -10 -3 -10 -7z"/>
<path d="M15520 7530 c0 -5 7 -10 16 -10 8 0 12 5 9 10 -3 6 -10 10 -16 10 -5
0 -9 -4 -9 -10z"/>
<path d="M15336 7381 c-4 -7 -5 -15 -2 -18 9 -9 19 4 14 18 -4 11 -6 11 -12 0z"/>
<path d="M14490 6886 c0 -8 4 -17 9 -20 10 -7 23 19 14 28 -11 11 -23 6 -23
-8z"/>
<path d="M13971 6737 c2 -1 12 -9 22 -16 15 -12 17 -12 11 3 -3 9 -13 16 -22
16 -8 0 -13 -1 -11 -3z"/>
<path d="M12545 6671 c-18 -7 -16 -9 12 -15 35 -8 57 -1 48 15 -7 11 -32 11
-60 0z"/>
<path d="M12871 6651 c-8 -5 -11 -16 -8 -26 4 -9 12 -13 18 -10 5 4 18 0 27
-8 9 -8 26 -16 37 -19 17 -4 20 1 21 26 1 17 -1 23 -3 14 -2 -10 -11 -18 -19
-18 -17 0 -18 12 -2 28 7 7 10 12 8 13 -48 7 -67 7 -79 0z"/>
<path d="M12540 6620 c0 -5 4 -10 9 -10 6 0 13 5 16 10 3 6 -1 10 -9 10 -9 0
-16 -4 -16 -10z"/>
<path d="M12996 6622 c-3 -6 1 -15 8 -21 8 -7 17 -8 20 -3 3 6 -1 15 -8 21 -8
7 -17 8 -20 3z"/>
<path d="M12800 6599 c0 -5 5 -7 10 -4 6 3 10 8 10 11 0 2 -4 4 -10 4 -5 0
-10 -5 -10 -11z"/>
<path d="M12880 6559 c0 -7 -8 -17 -17 -24 -15 -11 -15 -13 6 -24 25 -14 73
-11 78 4 1 6 -13 20 -32 33 -20 12 -35 17 -35 11z"/>
<path d="M12560 6550 c0 -6 7 -10 15 -10 8 0 15 2 15 4 0 2 -7 6 -15 10 -8 3
-15 1 -15 -4z"/>
<path d="M12611 6541 c-9 -6 0 -10 28 -13 41 -4 55 5 25 16 -21 8 -36 7 -53
-3z"/>
<path d="M12992 6513 c4 -22 -19 -28 -25 -6 -4 14 -5 13 -6 -4 -1 -26 23 -31
45 -9 18 18 18 22 -1 30 -11 4 -15 0 -13 -11z"/>
<path d="M13290 6510 c0 -5 5 -10 11 -10 5 0 7 5 4 10 -3 6 -8 10 -11 10 -2 0
-4 -4 -4 -10z"/>
<path d="M12560 6501 c0 -5 6 -14 14 -20 16 -13 32 2 21 19 -8 12 -35 13 -35
1z"/>
<path d="M13036 6491 c-3 -4 6 -6 19 -3 14 2 25 6 25 8 0 8 -39 4 -44 -5z"/>
<path d="M13343 5553 c-28 -36 -59 -86 -69 -111 -16 -43 -16 -46 1 -59 11 -7
15 -13 11 -13 -4 0 0 -7 8 -16 9 -8 16 -21 16 -27 0 -16 41 -62 60 -69 8 -3
22 1 32 9 9 8 24 16 34 17 12 2 21 19 30 55 8 29 19 62 26 74 6 12 11 35 10
51 -2 18 5 35 18 46 11 9 20 24 20 33 0 9 5 19 10 22 28 17 -47 55 -109 55
-45 -1 -47 -2 -98 -67z"/>
<path d="M4530 8326 c0 -2 7 -6 15 -10 8 -3 15 -1 15 4 0 6 -7 10 -15 10 -8 0
-15 -2 -15 -4z"/>
<path d="M4175 8290 c4 -6 11 -8 16 -5 14 9 11 15 -7 15 -8 0 -12 -5 -9 -10z"/>
<path d="M4280 8269 c0 -5 5 -7 10 -4 6 3 10 8 10 11 0 2 -4 4 -10 4 -5 0 -10
-5 -10 -11z"/>
<path d="M4380 8256 c0 -8 -6 -17 -12 -19 -7 -3 -4 -6 8 -6 26 -1 34 7 27 25
-7 18 -23 18 -23 0z"/>
<path d="M12236 6895 c4 -9 11 -14 16 -13 15 5 11 23 -6 26 -11 2 -14 -2 -10
-13z"/>
<path d="M640 10636 c0 -9 30 -14 35 -6 4 6 -3 10 -14 10 -12 0 -21 -2 -21 -4z"/>
<path d="M680 10600 c0 -5 4 -10 9 -10 6 0 13 5 16 10 3 6 -1 10 -9 10 -9 0
-16 -4 -16 -10z"/>
<path d="M640 10592 c0 -10 22 -32 32 -32 15 0 8 15 -12 28 -11 7 -20 9 -20 4z"/>
<path d="M396 10512 c-2 -4 -1 -14 3 -21 6 -9 10 -7 14 8 5 20 -7 29 -17 13z"/>
<path d="M335 10460 c3 -5 8 -10 11 -10 2 0 4 5 4 10 0 6 -5 10 -11 10 -5 0
-7 -4 -4 -10z"/>
<path d="M360 10419 c0 -5 5 -7 10 -4 6 3 10 8 10 11 0 2 -4 4 -10 4 -5 0 -10
-5 -10 -11z"/>
<path d="M221 10313 c0 -5 4 -17 9 -28 8 -18 9 -17 9 8 1 15 -3 27 -9 27 -5 0
-10 -3 -9 -7z"/>
<path d="M10160 7281 c-19 -5 -21 -8 -10 -13 9 -3 24 0 35 8 20 15 15 16 -25
5z"/>
<path d="M8315 6570 c-3 -5 -1 -10 4 -10 6 0 11 5 11 10 0 6 -2 10 -4 10 -3 0
-8 -4 -11 -10z"/>
<path d="M8218 6493 c7 -3 16 -2 19 1 4 3 -2 6 -13 5 -11 0 -14 -3 -6 -6z"/>
<path d="M10130 3383 c-18 -13 -33 -103 -17 -103 5 0 6 -8 2 -19 -13 -41 39
-116 69 -99 9 5 16 16 16 23 0 8 9 15 20 15 18 0 20 5 17 44 -2 24 -11 54 -20
67 -19 26 -22 49 -7 49 6 0 10 8 10 18 0 14 -8 18 -36 18 -19 0 -44 -6 -54
-13z"/>
<path d="M0 10 c0 -5 5 -10 11 -10 5 0 7 5 4 10 -3 6 -8 10 -11 10 -2 0 -4 -4
-4 -10z"/>
<path d="M19185 10 c-3 -5 -1 -10 4 -10 6 0 11 5 11 10 0 6 -2 10 -4 10 -3 0
-8 -4 -11 -10z"/>
</g>
</svg>
