<?xml version="1.0" standalone="no"?>
<!DOCTYPE svg PUBLIC "-//W3C//DTD SVG 20010904//EN"
 "http://www.w3.org/TR/2001/REC-SVG-20010904/DTD/svg10.dtd">
<svg version="1.0" xmlns="http://www.w3.org/2000/svg"
 width="640.000000pt" height="852.000000pt" viewBox="0 0 640.000000 852.000000"
 preserveAspectRatio="xMidYMid meet">
<metadata>
Created by potrace 1.11, written by Peter Selinger 2001-2013
</metadata>
<g transform="translate(0.000000,852.000000) scale(0.100000,-0.100000)"
fill="#000000" stroke="none">
<path d="M1815 7670 c-3 -5 -1 -10 4 -10 6 0 11 5 11 10 0 6 -2 10 -4 10 -3 0
-8 -4 -11 -10z"/>
<path d="M1610 7640 c0 -5 5 -10 11 -10 5 0 7 5 4 10 -3 6 -8 10 -11 10 -2 0
-4 -4 -4 -10z"/>
<path d="M2325 7604 c-10 -11 -15 -11 -18 -1 -4 8 -8 9 -14 1 -4 -6 -30 -18
-56 -27 -26 -9 -61 -26 -76 -39 -16 -13 -37 -28 -47 -34 -11 -7 -16 -15 -12
-19 4 -4 14 -3 22 4 8 7 16 8 18 3 1 -5 18 -13 36 -17 31 -6 33 -5 27 14 -4
12 -2 21 4 21 6 0 11 -6 11 -14 0 -9 8 -12 26 -8 19 3 25 1 20 -7 -4 -6 -3
-11 1 -11 13 0 45 59 38 70 -3 6 -2 10 4 10 5 0 11 -6 14 -12 3 -8 9 -1 16 15
6 15 13 27 16 27 16 0 -12 -60 -41 -88 -19 -18 -34 -41 -34 -50 1 -15 2 -15
15 2 8 10 16 24 18 30 3 8 8 7 19 -2 12 -10 18 -9 28 3 7 8 16 13 20 10 4 -3
10 4 13 15 3 12 14 20 26 20 12 0 21 4 21 9 0 5 -13 8 -30 7 -22 0 -30 -6 -30
-18 0 -10 -4 -18 -10 -18 -13 0 -13 57 -1 62 5 2 12 14 16 28 5 22 2 25 -20
26 -14 1 -32 -4 -40 -12z"/>
<path d="M1580 7581 c0 -6 4 -13 10 -16 6 -3 7 1 4 9 -7 18 -14 21 -14 7z"/>
<path d="M2700 7547 c0 -7 9 -13 21 -14 17 -2 18 1 9 13 -15 17 -30 18 -30 1z"/>
<path d="M2630 7543 c0 -9 -55 -24 -102 -28 -3 0 -10 -3 -14 -7 -4 -5 -16 -8
-26 -8 -15 0 -18 -5 -13 -21 5 -14 3 -19 -3 -15 -6 3 -13 2 -17 -4 -3 -5 -20
-10 -36 -10 -17 0 -28 -4 -24 -10 3 -5 12 -7 20 -4 14 6 39 -29 28 -40 -3 -3
-2 -6 3 -6 5 0 17 9 27 20 9 11 26 20 38 20 19 0 20 -2 8 -16 -12 -15 -10 -16
21 -9 19 4 37 11 40 15 8 11 60 21 60 11 0 -5 -11 -12 -25 -15 -28 -7 -33 -21
-10 -30 9 -3 15 0 15 8 0 8 7 17 16 20 9 3 14 13 10 21 -7 19 6 26 24 14 10
-6 11 -9 3 -9 -7 0 -13 -7 -13 -16 0 -8 -7 -22 -16 -31 -14 -14 -13 -17 8 -27
18 -9 26 -9 36 1 7 7 22 13 33 13 16 0 18 -2 7 -14 -7 -8 -16 -12 -20 -9 -5 2
-8 -1 -8 -6 0 -6 -7 -11 -16 -11 -8 0 -12 -5 -9 -10 4 -7 12 -7 23 -1 10 6 23
6 35 -1 10 -5 21 -7 24 -4 4 3 15 -8 25 -25 15 -25 21 -29 33 -19 12 10 15 10
15 0 0 -7 6 -10 14 -7 9 4 12 0 9 -13 -3 -10 0 -21 6 -24 6 -4 11 0 11 8 0 9
5 16 10 16 6 0 10 -6 9 -12 -3 -27 2 -36 21 -41 15 -4 20 0 20 13 0 10 -7 20
-15 24 -8 3 -15 11 -15 17 0 7 -8 17 -17 24 -15 11 -16 15 -3 31 8 11 10 16 6
12 -5 -4 -15 -3 -23 3 -11 10 -11 15 -1 27 11 13 10 14 -2 10 -8 -2 -21 -15
-28 -29 -13 -24 -13 -24 -9 3 2 16 -2 33 -10 39 -11 9 -12 8 -7 -5 5 -13 2
-15 -12 -9 -11 3 -22 11 -25 15 -3 5 -20 10 -38 10 -21 1 -28 4 -19 10 10 6
10 10 1 16 -7 5 -14 27 -15 51 -1 41 -18 71 -18 32 0 -11 -4 -22 -9 -25 -18
-12 -41 7 -41 32 0 29 15 20 23 -13 5 -20 5 -19 6 1 0 11 -6 29 -14 40 -8 10
-15 14 -15 7z m-12 -45 c-3 -7 -13 -13 -24 -13 -10 0 -18 -6 -16 -12 1 -7 -2
-13 -8 -13 -15 0 -12 16 6 34 18 19 47 21 42 4z m72 -80 c0 -7 -5 -20 -10 -28
-8 -12 -10 -9 -10 13 0 15 5 27 10 27 6 0 10 -6 10 -12z m120 -118 c0 -5 -2
-10 -4 -10 -3 0 -8 5 -11 10 -3 6 -1 10 4 10 6 0 11 -4 11 -10z"/>
<path d="M2710 7501 c0 -6 4 -13 10 -16 6 -3 7 1 4 9 -7 18 -14 21 -14 7z"/>
<path d="M1663 7465 c6 -7 15 -11 20 -8 13 8 7 19 -13 20 -16 1 -17 -1 -7 -12z"/>
<path d="M1705 7470 c-3 -5 -1 -10 4 -10 6 0 11 5 11 10 0 6 -2 10 -4 10 -3 0
-8 -4 -11 -10z"/>
<path d="M2408 7463 c6 -2 18 -2 25 0 6 3 1 5 -13 5 -14 0 -19 -2 -12 -5z"/>
<path d="M2727 7463 c-13 -13 -7 -18 23 -19 24 -1 28 1 19 12 -12 15 -32 18
-42 7z"/>
<path d="M2735 7420 c-3 -5 -1 -10 4 -10 6 0 11 5 11 10 0 6 -2 10 -4 10 -3 0
-8 -4 -11 -10z"/>
<path d="M2795 7420 c3 -5 8 -10 11 -10 2 0 4 5 4 10 0 6 -5 10 -11 10 -5 0
-7 -4 -4 -10z"/>
<path d="M2770 7401 c0 -6 5 -13 10 -16 6 -3 10 1 10 9 0 9 -4 16 -10 16 -5 0
-10 -4 -10 -9z"/>
<path d="M3150 7110 c0 -14 7 -34 16 -45 13 -18 14 -17 8 15 -8 43 -24 63 -24
30z"/>
<path d="M3184 7029 c-3 -6 -2 -15 3 -20 5 -5 9 -1 10 11 2 22 -2 25 -13 9z"/>
<path d="M3210 7006 c0 -9 5 -16 10 -16 6 0 10 4 10 9 0 6 -4 13 -10 16 -5 3
-10 -1 -10 -9z"/>
<path d="M3247 6963 c3 -7 6 -13 8 -13 1 0 7 6 13 13 8 10 6 13 -7 13 -11 0
-17 -6 -14 -13z"/>
<path d="M3247 6923 c-4 -3 -7 -13 -7 -21 0 -12 4 -11 21 4 22 19 22 19 14 -6
-4 -14 -11 -27 -16 -30 -4 -3 -4 -12 1 -20 8 -13 10 -12 10 2 0 9 5 20 11 24
8 5 10 -1 7 -20 -4 -17 -1 -25 6 -23 6 2 10 11 8 21 -2 9 2 16 8 16 5 0 10 -4
10 -9 0 -5 2 -15 5 -23 2 -7 -2 -22 -11 -33 -13 -17 -16 -18 -24 -5 -6 9 -10
10 -10 3 0 -14 39 -53 52 -53 5 0 7 4 4 9 -4 5 0 11 6 14 7 2 9 8 5 13 -4 5
-12 2 -17 -6 -5 -8 -12 -11 -16 -7 -4 4 0 15 9 25 16 15 19 15 27 2 8 -13 12
-13 27 3 17 18 17 20 -16 45 -19 15 -47 39 -62 55 -27 27 -40 32 -52 20z m131
-99 c2 -1 -1 -5 -7 -8 -5 -4 -15 4 -22 16 -12 22 -11 22 7 8 10 -8 20 -15 22
-16z"/>
<path d="M3300 6910 c0 -5 5 -10 10 -10 6 0 10 5 10 10 0 6 -4 10 -10 10 -5 0
-10 -4 -10 -10z"/>
<path d="M863 6868 c-5 -7 -19 -32 -31 -55 -17 -31 -19 -43 -10 -46 10 -4 10
-6 1 -6 -7 -1 -13 -11 -13 -22 0 -18 2 -19 15 -9 13 10 15 9 15 -11 0 -13 -5
-31 -10 -39 -9 -13 -11 -13 -20 0 -8 13 -10 12 -10 -2 0 -10 4 -18 9 -18 5 0
13 -15 16 -32 4 -18 11 -38 16 -43 5 -7 0 -16 -12 -23 -11 -7 -19 -8 -19 -2 0
5 5 10 10 10 6 0 10 5 10 11 0 6 -7 9 -15 5 -17 -6 -20 15 -5 30 8 8 6 15 -5
24 -13 11 -15 9 -16 -11 -1 -13 -3 -45 -5 -70 -3 -44 -1 -47 32 -62 51 -25 70
-22 44 6 -18 18 -19 23 -6 25 16 3 23 32 8 32 -4 0 -8 9 -9 20 -1 11 1 20 5
20 4 0 5 22 4 50 -2 27 0 50 5 50 4 0 8 10 9 23 0 12 4 30 8 39 6 13 2 21 -15
28 -23 10 -23 10 -1 6 25 -5 31 11 7 20 -8 4 -12 11 -8 17 7 11 12 47 8 47 -2
0 -7 -6 -12 -12z"/>
<path d="M3466 6815 c9 -14 19 -24 21 -21 7 7 -16 46 -28 46 -5 0 -2 -11 7
-25z"/>
<path d="M3550 6806 c0 -6 9 -18 20 -26 11 -8 20 -21 20 -29 0 -12 -3 -12 -12
-3 -19 19 -30 14 -23 -9 5 -15 4 -19 -5 -14 -6 4 -10 16 -7 26 3 10 1 22 -4
25 -5 3 -9 -4 -9 -15 0 -14 -6 -21 -19 -21 -25 0 -35 27 -13 33 9 2 7 3 -6 2
-12 -1 -27 5 -33 14 -9 13 -10 12 -6 -6 6 -29 -8 -39 -22 -16 -6 11 -11 13
-11 5 0 -7 -4 -11 -10 -7 -5 3 -7 12 -3 20 7 19 -8 19 -33 1 -19 -14 -20 -18
-23 -56 -1 -25 -28 -17 -59 19 -22 25 -23 25 -17 4 4 -14 2 -23 -4 -23 -6 0
-11 5 -11 10 0 6 -4 10 -10 10 -14 0 -12 -61 3 -93 13 -30 44 -49 33 -21 -5
14 -4 15 8 5 9 -7 12 -23 9 -41 -3 -24 0 -30 13 -30 10 0 14 -3 11 -7 -4 -3
-2 -12 5 -20 6 -8 12 -35 12 -61 1 -43 3 -47 24 -45 12 2 22 -2 22 -7 0 -6 -5
-10 -11 -10 -5 0 -8 -4 -4 -10 3 -5 11 -7 18 -4 8 2 20 -8 28 -23 8 -15 18
-31 24 -35 6 -5 5 -8 -3 -8 -7 0 -17 11 -22 25 -6 17 -17 25 -33 25 -13 0 -29
6 -35 12 -10 10 -15 10 -22 -1 -7 -13 -11 -13 -26 0 -9 8 -19 13 -21 12 -10
-8 -23 -1 -23 11 0 8 -7 16 -15 20 -8 3 -15 1 -15 -5 0 -6 -6 -9 -12 -6 -20 7
-16 -55 5 -84 18 -24 18 -24 13 -1 -5 27 9 20 17 -8 4 -15 0 -20 -14 -20 -10
0 -19 -4 -19 -10 0 -5 7 -7 15 -4 21 9 19 -12 -2 -21 -16 -6 -15 -8 7 -17 24
-10 24 -10 5 -19 -17 -8 -16 -9 8 -6 16 3 27 0 26 -7 -3 -26 2 -46 11 -46 5 0
7 7 4 15 -4 8 -1 15 4 15 6 0 9 -10 7 -22 -16 -81 -16 -84 -3 -60 16 32 24 27
23 -14 -1 -20 5 -42 12 -50 9 -8 12 -23 8 -36 -5 -18 -4 -20 4 -8 9 12 11 9
11 -13 0 -16 4 -26 10 -22 13 8 13 -25 0 -45 -6 -9 -5 -17 1 -21 6 -3 11 -22
12 -42 0 -20 3 -34 6 -32 9 5 7 -179 -2 -192 -5 -7 -5 -18 -2 -23 4 -6 1 -17
-5 -25 -7 -8 -9 -15 -4 -14 5 0 38 49 73 109 35 59 76 121 91 137 15 16 30 39
34 50 4 11 15 31 26 43 11 12 17 27 14 31 -3 5 2 16 10 25 9 8 16 22 16 30 0
8 5 14 10 14 6 0 10 6 8 13 -2 6 2 14 7 16 6 2 16 12 23 22 7 11 21 19 30 19
10 0 24 14 32 33 7 17 16 36 18 41 3 5 0 6 -6 2 -6 -3 -4 7 4 24 9 17 20 28
25 25 5 -4 9 1 9 9 0 9 4 16 9 16 5 0 7 9 4 20 -3 11 0 20 6 20 6 0 11 7 11
15 0 13 4 14 20 5 16 -9 22 -8 26 5 3 8 10 15 16 15 5 0 7 -4 3 -9 -3 -5 -1
-12 5 -16 6 -3 10 4 10 17 0 18 2 20 9 8 6 -8 7 -18 5 -22 -3 -5 6 -6 20 -2
21 5 25 3 20 -10 -8 -22 9 -20 29 2 19 21 23 37 6 27 -11 -7 -69 13 -69 24 0
4 -16 13 -35 20 -19 7 -35 18 -35 26 0 7 -7 15 -15 19 -8 3 -15 10 -15 16 0 5
7 10 15 10 8 0 15 5 15 12 0 6 3 8 7 4 5 -4 0 -14 -10 -21 -18 -13 -17 -14 2
-20 12 -3 30 -4 40 0 11 3 23 0 27 -6 4 -8 3 -9 -4 -5 -7 4 -12 2 -12 -4 0 -6
15 -17 33 -25 34 -14 52 -11 27 5 -13 8 -12 10 3 10 9 0 17 6 17 13 0 8 2 9 8
1 4 -7 15 -8 27 -3 11 4 14 8 6 8 -7 1 -11 7 -8 15 4 10 1 13 -8 10 -10 -4
-12 0 -8 15 3 12 10 21 17 20 33 -4 44 2 39 21 -3 11 -10 20 -15 20 -6 0 -8
-7 -4 -15 3 -8 1 -15 -3 -15 -5 0 -12 7 -15 16 -3 8 -10 12 -16 9 -5 -3 -10 1
-10 10 0 12 6 14 28 9 24 -7 26 -6 13 9 -9 11 -10 17 -2 17 6 0 11 5 11 10 0
7 -6 7 -19 1 -15 -9 -20 -7 -24 9 -3 11 -13 23 -24 27 -26 10 -45 31 -38 42 3
5 1 12 -5 16 -5 3 -10 -1 -10 -9 0 -8 -4 -17 -9 -20 -14 -9 -41 4 -41 19 0 7
-9 15 -19 18 -19 5 -22 -7 -8 -30 10 -16 -74 -13 -86 2 -6 6 -10 6 -14 -2 -2
-7 -9 -13 -15 -13 -6 0 -3 9 7 20 13 15 21 17 31 9 14 -12 54 4 54 21 0 6 7
10 15 10 8 0 15 4 15 8 0 5 -13 9 -30 9 -16 0 -30 -4 -30 -9 0 -12 -38 -10
-46 3 -4 8 0 9 15 4 12 -4 21 -2 21 4 0 6 -12 11 -26 11 -26 0 -54 20 -54 39
0 6 9 11 20 11 12 0 20 7 20 16 0 10 -6 14 -15 11 -8 -4 -17 -2 -20 3 -10 15
-45 12 -51 -5 -10 -24 -26 -17 -19 8 6 21 5 21 -6 2 -7 -11 -14 -22 -15 -24
-2 -2 -12 4 -21 15 -20 21 -53 28 -53 10z m150 -27 c0 -5 -6 -9 -14 -9 -8 0
-18 -9 -21 -21 -4 -11 -9 -18 -12 -16 -8 9 27 68 37 62 6 -4 10 -10 10 -16z
m-70 -64 c14 -19 14 -19 -2 -6 -10 7 -18 18 -18 24 0 6 1 8 3 6 1 -2 9 -13 17
-24z m81 14 c11 -5 17 -14 14 -18 -3 -5 2 -11 10 -15 17 -6 20 -26 4 -26 -5 0
-7 5 -3 11 5 9 -1 10 -22 5 -23 -6 -27 -5 -17 5 10 10 9 16 -4 31 -18 20 -11
23 18 7z m-431 -64 c0 -5 -5 -3 -10 5 -5 8 -10 20 -10 25 0 6 5 3 10 -5 5 -8
10 -19 10 -25z m78 22 c15 4 15 3 2 -6 -13 -9 -13 -11 2 -11 9 0 20 -5 24 -12
5 -8 2 -9 -9 -5 -27 10 -20 -9 8 -21 23 -11 35 -32 18 -32 -21 1 -75 75 -72
99 0 3 3 1 5 -6 3 -7 13 -9 22 -6z m478 -77 c8 0 14 -4 14 -10 0 -5 -9 -10
-21 -10 -11 0 -17 5 -14 10 3 6 1 10 -5 10 -6 0 -8 5 -4 12 6 9 9 9 12 0 2 -7
10 -12 18 -12z m54 10 c0 -5 -5 -10 -11 -10 -5 0 -7 5 -4 10 3 6 8 10 11 10 2
0 4 -4 4 -10z m-320 -10 c0 -5 -5 -10 -11 -10 -5 0 -7 5 -4 10 3 6 8 10 11 10
2 0 4 -4 4 -10z m-166 -32 c-3 -4 -11 -5 -19 -1 -10 3 -15 -1 -15 -11 0 -14
-2 -15 -14 -4 -15 14 -16 29 -3 39 11 8 57 -13 51 -23z m546 29 c0 -2 -9 -14
-20 -27 -22 -26 -27 -20 -8 10 11 17 28 27 28 17z m-560 -74 c0 -5 -5 -15 -10
-23 -8 -12 -10 -11 -10 8 0 12 5 22 10 22 6 0 10 -3 10 -7z m519 -9 c4 3 8 -5
8 -16 2 -20 1 -20 -12 -2 -8 11 -14 24 -14 29 0 6 3 4 6 -3 2 -6 8 -10 12 -8z
m-539 -65 c0 -6 -4 -7 -10 -4 -5 3 -10 11 -10 16 0 6 5 7 10 4 6 -3 10 -11 10
-16z m610 -23 c-7 -7 -13 -7 -20 0 -6 6 -3 10 10 10 13 0 16 -4 10 -10z m-730
-20 c0 -2 -7 -9 -15 -16 -13 -11 -14 -10 -9 4 5 14 24 23 24 12z m114 -32 c12
-5 13 -9 3 -19 -14 -15 -27 -10 -27 11 0 16 2 16 24 8z m504 -32 c6 -18 -15
-14 -22 4 -4 10 -1 14 6 12 6 -2 14 -10 16 -16z m-459 -13 c10 -17 10 -23 0
-29 -16 -11 -43 16 -35 35 8 21 19 19 35 -6z m-54 -10 c11 -17 -1 -21 -15 -4
-8 9 -8 15 -2 15 6 0 14 -5 17 -11z m90 -39 c3 -11 11 -20 16 -20 6 0 8 -4 5
-9 -3 -5 3 -11 13 -14 11 -2 24 -13 29 -24 9 -16 7 -19 -11 -20 -12 0 -16 1
-9 4 6 3 12 9 12 15 0 6 -6 8 -13 5 -15 -6 -42 13 -43 31 -2 30 -5 34 -19 28
-15 -5 -20 5 -8 17 12 12 22 7 28 -13z m100 -100 c3 -5 1 -10 -4 -10 -6 0 -11
5 -11 10 0 6 2 10 4 10 3 0 8 -4 11 -10z m35 -29 c0 -5 9 -13 20 -16 11 -3 20
-13 20 -21 0 -12 -6 -11 -29 5 -16 12 -35 21 -43 21 -10 0 -9 3 2 10 19 12 30
13 30 1z m60 -101 c0 -5 -2 -10 -4 -10 -3 0 -8 5 -11 10 -3 6 -1 10 4 10 6 0
11 -4 11 -10z"/>
<path d="M3762 6778 c2 -6 10 -14 16 -16 7 -2 10 2 6 12 -7 18 -28 22 -22 4z"/>
<path d="M3203 6765 c0 -8 4 -15 9 -15 4 0 8 4 8 9 0 6 -4 12 -8 15 -5 3 -9
-1 -9 -9z"/>
<path d="M3825 6730 c3 -5 8 -10 11 -10 2 0 4 5 4 10 0 6 -5 10 -11 10 -5 0
-7 -4 -4 -10z"/>
<path d="M3110 6620 c0 -6 4 -9 9 -6 5 4 12 1 14 -4 3 -6 4 -5 3 2 -3 15 -26
23 -26 8z"/>
<path d="M2865 6590 c-16 -4 -40 -12 -52 -18 -18 -10 -24 -9 -32 5 -9 16 -10
16 -11 -4 0 -20 -4 -22 -30 -16 -20 4 -30 2 -30 -7 0 -7 -8 -10 -20 -7 -13 3
-25 -2 -34 -15 -9 -13 -21 -18 -30 -15 -9 4 -16 1 -16 -6 0 -8 -4 -6 -10 3 -8
13 -10 13 -10 -2 0 -11 -5 -15 -14 -12 -8 3 -17 1 -21 -5 -3 -6 0 -11 7 -11 8
-1 6 -6 -6 -15 -11 -8 -28 -13 -37 -10 -12 4 -20 -1 -24 -14 -3 -12 -12 -18
-20 -15 -9 4 -19 -4 -26 -20 -14 -29 -29 -34 -29 -10 0 19 -22 14 -28 -7 -3
-11 -2 -11 7 1 10 13 11 13 11 0 0 -8 16 -23 35 -32 24 -12 34 -14 32 -5 -1 7
11 13 28 15 17 2 38 11 48 19 19 18 24 38 5 27 -6 -4 -8 -3 -5 4 4 5 17 8 29
4 14 -3 19 -2 14 6 -4 7 -1 12 8 12 8 0 17 -4 20 -9 7 -11 44 -3 53 12 4 6 1
7 -7 2 -8 -5 -11 -4 -7 2 11 18 116 65 128 57 8 -4 9 -3 5 4 -5 8 5 12 33 12
22 0 42 4 45 9 3 5 15 11 26 14 11 3 18 1 14 -4 -3 -5 2 -9 10 -9 9 0 16 -5
16 -12 0 -6 3 -9 6 -5 4 3 18 0 33 -7 14 -7 32 -11 39 -9 14 6 16 -9 2 -23
-12 -12 30 -63 48 -57 7 3 10 -1 6 -11 -4 -10 -1 -16 7 -16 11 0 11 -3 -1 -10
-12 -8 -12 -10 -1 -10 8 0 19 -8 26 -17 11 -14 13 -11 13 24 1 27 -4 43 -14
47 -8 3 -14 15 -14 26 0 11 -7 20 -15 20 -8 0 -15 5 -15 10 0 6 5 10 11 10 6
0 -2 15 -18 33 -16 20 -34 32 -43 29 -8 -3 -12 -1 -8 3 9 10 -24 35 -54 40
-12 3 -26 -1 -30 -8 -6 -8 -10 -9 -15 -1 -5 6 -21 8 -38 4z m119 -39 c-2 -3
-12 3 -22 13 -16 17 -16 18 5 5 12 -7 20 -15 17 -18z m58 -83 c-7 -7 -12 -8
-12 -2 0 14 12 26 19 19 2 -3 -1 -11 -7 -17z m-572 -98 c0 -5 -2 -10 -4 -10
-3 0 -8 5 -11 10 -3 6 -1 10 4 10 6 0 11 -4 11 -10z"/>
<path d="M3190 6571 c0 -5 5 -13 10 -16 6 -3 10 -2 10 4 0 5 -4 13 -10 16 -5
3 -10 2 -10 -4z"/>
<path d="M3126 6556 c3 -8 12 -17 20 -20 11 -4 12 -2 1 14 -14 23 -29 27 -21
6z"/>
<path d="M3088 6543 c6 -2 18 -2 25 0 6 3 1 5 -13 5 -14 0 -19 -2 -12 -5z"/>
<path d="M3130 6499 c0 -5 5 -7 10 -4 6 3 10 8 10 11 0 2 -4 4 -10 4 -5 0 -10
-5 -10 -11z"/>
<path d="M795 6445 c0 -25 5 -48 9 -52 5 -4 5 3 1 16 -5 17 -4 21 5 16 9 -5
10 -1 5 15 -6 19 -4 21 14 15 30 -9 26 2 -7 19 -29 15 -29 15 -27 -29z"/>
<path d="M3171 6474 c10 -13 10 -17 0 -24 -9 -5 -10 -10 -3 -14 12 -7 26 29
17 44 -3 5 -11 10 -17 10 -6 0 -5 -6 3 -16z"/>
<path d="M2520 6470 c0 -5 5 -10 10 -10 6 0 10 5 10 10 0 6 -4 10 -10 10 -5 0
-10 -4 -10 -10z"/>
<path d="M855 6388 c5 -50 -6 -74 -29 -65 -12 5 -16 0 -16 -18 0 -13 5 -27 10
-30 6 -4 10 -12 9 -18 -4 -35 2 -77 12 -77 6 0 9 7 6 14 -4 10 -1 13 9 9 9 -3
14 1 14 13 1 16 2 16 9 4 14 -26 22 -70 12 -70 -5 0 -12 8 -14 18 -2 9 -4 2
-3 -15 1 -33 9 -42 21 -23 3 6 12 10 18 10 7 0 4 -7 -6 -14 -16 -12 -17 -21
-9 -66 7 -40 7 -53 -4 -57 -15 -5 -13 -11 29 -113 18 -41 40 -81 49 -88 26
-19 22 -33 -7 -28 -25 5 -36 -16 -15 -29 6 -3 10 -11 10 -16 0 -6 -5 -7 -11
-3 -8 5 -8 1 0 -14 6 -11 11 -30 11 -41 0 -10 5 -21 11 -23 5 -2 11 -11 13
-20 1 -10 5 -20 8 -24 4 -3 3 -17 -2 -30 -7 -18 -6 -22 5 -17 15 5 19 -5 16
-39 -1 -9 3 -36 10 -60 7 -24 12 -47 10 -52 -1 -4 1 -18 5 -30 7 -21 7 -21 15
-1 6 16 8 16 8 3 1 -9 4 -24 7 -32 4 -11 2 -15 -8 -11 -14 6 -15 -16 -4 -156
3 -46 3 -46 -20 -20 -14 16 -19 30 -13 36 13 13 11 38 -3 29 -6 -4 -8 -3 -4 4
3 6 0 39 -8 74 -8 35 -18 89 -21 121 -10 87 -22 68 -17 -24 3 -59 2 -80 -7
-75 -7 5 -9 1 -5 -8 3 -9 10 -14 15 -11 4 3 13 -3 19 -14 5 -11 6 -22 2 -25
-5 -3 -7 -23 -5 -45 2 -23 -1 -41 -6 -41 -5 0 -7 -18 -4 -40 4 -26 2 -40 -6
-40 -6 0 -10 -4 -8 -9 1 -5 -2 -9 -8 -10 -5 0 -10 6 -10 15 0 8 -7 19 -15 24
-13 9 -13 10 1 10 12 0 15 9 12 39 -2 28 3 45 15 57 16 17 16 18 -2 11 -10 -4
-25 -2 -34 5 -11 9 -14 9 -9 1 4 -6 4 -14 0 -16 -5 -3 -8 -62 -8 -131 0 -69
-3 -126 -7 -126 -9 0 -9 11 -8 155 1 147 0 158 -10 171 -11 12 -3 44 14 57 7
6 4 7 -6 3 -10 -3 -18 0 -18 6 0 6 8 17 18 24 16 12 15 13 -6 9 -18 -3 -21 -1
-13 13 11 23 5 137 -9 160 -8 13 -10 3 -5 -42 5 -41 3 -56 -4 -52 -6 4 -11 2
-11 -3 0 -6 4 -11 9 -11 5 0 11 -9 14 -20 3 -11 1 -20 -3 -20 -5 0 -11 8 -13
18 -3 9 -2 -16 1 -57 5 -73 5 -74 -15 -55 -14 13 -17 23 -10 32 9 11 4 123 -8
175 -3 12 -7 39 -9 60 -3 36 -16 65 -16 37 0 -10 -3 -10 -15 0 -12 10 -13 15
-4 20 7 5 8 13 4 21 -7 10 -10 8 -15 -6 -9 -25 0 -66 12 -59 6 4 8 -5 3 -24
-4 -18 -1 -38 6 -50 10 -16 10 -30 -4 -72 -16 -50 -15 -70 2 -70 5 0 7 12 5
28 -2 18 1 14 10 -13 14 -43 11 -69 -7 -58 -8 5 -7 8 1 11 14 4 6 22 -9 22 -6
0 -9 -12 -7 -27 2 -19 8 -28 20 -27 14 1 15 -2 8 -16 -5 -9 -6 -20 -2 -24 3
-4 0 -11 -7 -15 -7 -5 -13 -20 -13 -35 0 -14 -4 -26 -9 -26 -5 0 -9 6 -9 14 0
8 -7 13 -16 12 -9 0 -19 6 -21 14 -4 13 -3 13 7 0 8 -12 9 -8 3 15 -3 17 -6
38 -5 47 1 25 -13 31 -29 11 -9 -11 -10 -14 -2 -10 9 6 11 -2 9 -30 -2 -21 1
-54 8 -74 12 -33 11 -36 -6 -31 -12 3 -18 -1 -18 -12 0 -10 7 -16 17 -14 22 4
27 -42 9 -67 -12 -17 -13 -16 -19 4 -4 17 -2 21 9 17 17 -6 19 10 3 20 -16 9
-29 -16 -24 -45 5 -31 14 -39 25 -21 5 7 20 15 35 17 26 4 26 4 5 -17 -11 -11
-20 -24 -20 -29 0 -5 -3 -17 -7 -27 -3 -10 -2 -15 3 -12 5 4 8 -17 6 -48 -3
-39 -8 -54 -19 -54 -10 0 -13 6 -8 23 5 17 4 18 -4 7 -12 -17 -16 -14 -25 22
-3 15 -2 29 4 33 11 7 3 33 -17 57 -11 12 -12 21 -4 36 12 23 6 33 -17 26 -13
-4 -13 -3 1 6 18 11 18 12 0 26 -11 8 -13 13 -5 14 14 0 16 46 2 55 -6 4 -8
10 -5 15 6 9 -22 88 -36 104 -4 5 -6 -4 -4 -20 2 -16 4 -29 5 -29 1 0 4 -36 6
-80 2 -55 0 -82 -9 -88 -8 -6 -7 -7 5 -4 11 4 16 0 16 -11 -1 -9 4 -42 10 -72
7 -30 13 -73 14 -95 1 -22 6 -48 11 -59 7 -14 6 -16 -4 -11 -9 6 -11 2 -7 -13
4 -12 2 -22 -3 -22 -5 0 -9 -5 -9 -11 0 -5 4 -8 9 -5 10 7 22 -76 17 -119 -3
-18 3 -38 12 -50 16 -18 16 -19 0 -6 -10 7 -18 10 -19 5 -1 -5 -4 1 -7 14 -4
13 -11 23 -16 22 -5 -1 -13 4 -17 12 -6 8 -9 -2 -9 -28 0 -22 3 -43 6 -47 3
-3 7 -32 9 -64 1 -32 6 -93 9 -135 6 -67 5 -78 -8 -78 -22 0 -20 -27 2 -33 16
-4 16 -5 0 -6 -20 -1 -23 -14 -9 -39 10 -20 3 -72 -10 -72 -5 0 -9 10 -9 23
-4 156 -6 207 -11 212 -9 8 -19 -104 -12 -137 3 -15 1 -34 -5 -40 -6 -8 -7
-32 -3 -59 6 -34 4 -49 -7 -59 -13 -12 -13 -15 4 -20 23 -9 34 5 34 44 0 16 3
26 8 22 7 -7 11 -156 5 -156 -2 0 -7 10 -12 23 -8 21 -9 20 -18 -13 -9 -31 -7
-37 15 -57 18 -17 21 -23 10 -23 -11 0 -16 -12 -17 -42 -3 -65 -4 -68 -13 -68
-5 0 -7 13 -3 30 4 19 3 30 -4 30 -6 0 -11 -4 -11 -9 0 -5 -5 -22 -12 -38 -6
-15 -10 -38 -9 -51 1 -12 -9 -36 -23 -53 -14 -17 -26 -35 -26 -40 0 -6 -4 -8
-9 -5 -5 3 -11 0 -14 -8 -4 -10 0 -12 14 -9 10 3 19 9 19 14 0 5 8 9 18 8 10
0 12 -3 5 -6 -7 -2 -13 -10 -13 -17 0 -6 -9 -18 -20 -26 -14 -10 -20 -25 -19
-50 1 -35 1 -35 11 0 5 19 14 39 19 45 13 13 -1 -56 -14 -73 -5 -7 -7 -15 -4
-19 4 -3 2 -12 -4 -20 -7 -8 -8 -13 -1 -13 15 0 24 -31 13 -44 -5 -6 -12 -28
-16 -48 -4 -21 -12 -36 -19 -35 -6 1 -10 -4 -8 -11 3 -17 -34 -80 -66 -111
-19 -19 -26 -21 -33 -10 -5 8 -9 9 -9 3 0 -5 5 -15 11 -21 8 -8 8 -13 0 -17
-6 -4 -11 -5 -11 -2 0 3 -11 -6 -25 -20 -14 -14 -23 -30 -20 -35 4 -5 1 -9 -5
-9 -7 0 -9 -9 -5 -22 4 -16 4 -19 -3 -9 -12 17 -32 6 -32 -19 0 -10 -4 -22
-10 -25 -5 -3 -7 0 -4 8 8 23 -15 31 -35 13 -10 -9 -23 -16 -29 -16 -7 0 -12
-5 -12 -11 0 -5 4 -8 9 -5 5 3 12 -1 15 -9 8 -21 -23 -32 -36 -14 -8 11 -9 10
-4 -3 4 -13 -3 -22 -25 -33 -16 -9 -34 -13 -39 -10 -6 3 -10 -1 -10 -9 0 -11
-9 -16 -30 -16 -30 0 -30 0 -30 -80 0 -72 2 -81 26 -106 15 -14 24 -19 21 -10
-4 9 -2 16 3 16 5 0 10 -7 12 -17 3 -14 5 -14 18 2 9 11 10 16 2 11 -6 -4 -12
-2 -12 3 0 6 -7 11 -15 11 -8 0 -15 4 -15 10 0 9 33 21 74 25 11 1 24 3 28 4
3 0 4 10 1 21 -4 15 0 20 15 20 11 0 22 6 25 14 6 15 57 28 57 15 0 -5 7 -9
17 -9 9 0 13 3 10 6 -11 11 12 44 27 38 7 -3 16 2 19 10 4 9 15 16 25 16 10 0
22 4 28 9 5 5 29 12 54 15 31 4 39 3 25 -3 -16 -8 -17 -10 -4 -10 16 -1 29
-20 29 -44 0 -6 -6 -2 -14 8 -12 17 -17 18 -41 7 -32 -15 -28 -22 11 -27 16
-1 30 -8 32 -14 6 -17 31 19 32 43 0 20 0 20 15 0 13 -17 14 -17 15 -1 0 9 5
17 10 17 18 0 10 -18 -18 -40 -15 -12 -21 -19 -14 -15 6 3 12 1 12 -5 0 -6 -6
-10 -12 -8 -7 1 -24 -4 -37 -11 -22 -12 -23 -12 -17 4 5 15 4 16 -9 5 -8 -7
-15 -19 -15 -27 0 -10 -6 -13 -16 -9 -12 5 -15 2 -10 -9 3 -9 2 -13 -4 -10 -5
3 -20 -3 -32 -14 -18 -17 -19 -21 -5 -21 8 0 19 5 22 10 8 13 45 13 45 -1 0
-5 -4 -8 -9 -4 -5 3 -12 1 -16 -5 -11 -18 22 -10 58 14 19 13 38 21 42 18 3
-4 3 2 -1 13 -7 19 -7 19 13 2 20 -17 21 -17 27 8 4 15 13 25 24 25 10 0 23 5
30 12 7 7 12 8 12 3 0 -4 9 0 20 10 11 10 23 15 27 12 3 -4 1 -7 -7 -7 -10 0
-10 -3 0 -15 10 -13 8 -19 -13 -39 -14 -13 -29 -21 -32 -18 -3 4 -3 -2 1 -12
5 -13 2 -17 -12 -14 -15 2 -18 -2 -16 -22 1 -14 4 -31 7 -37 6 -18 35 -16 35
2 0 8 -7 15 -15 15 -21 0 -19 13 5 28 18 11 20 10 20 -13 0 -14 5 -25 10 -25
6 0 10 5 10 12 0 6 3 8 7 4 5 -4 -8 -21 -27 -37 -19 -17 -30 -29 -25 -26 54
21 75 33 75 43 0 7 10 9 25 6 15 -2 22 -9 18 -16 -3 -6 -2 -7 3 -3 4 4 9 17 9
27 0 11 5 20 10 19 6 0 9 -9 8 -20 -2 -10 1 -19 6 -19 9 0 21 34 21 63 0 20
23 47 39 47 6 0 11 4 11 10 0 12 40 33 48 25 4 -3 0 -10 -8 -15 -8 -6 -10 -10
-5 -10 31 0 52 45 28 58 -17 10 -20 6 48 80 24 28 33 31 45 21 8 -6 13 -19 12
-28 -2 -10 3 -15 14 -13 12 2 16 -2 12 -12 -3 -9 5 -25 20 -40 19 -17 23 -26
14 -30 -7 -3 -1 -3 15 0 24 6 27 3 27 -20 0 -16 -6 -26 -15 -26 -8 0 -15 -5
-15 -11 0 -6 5 -9 12 -7 15 5 48 -22 48 -40 0 -7 -4 -10 -10 -7 -5 3 -10 1
-10 -5 0 -6 6 -10 13 -9 6 1 19 1 27 0 13 -1 13 -3 1 -10 -12 -8 -13 -16 -3
-49 15 -49 15 -55 0 -47 -7 4 -2 -3 11 -14 14 -13 18 -21 10 -21 -18 -1 19
-30 37 -30 10 0 11 7 2 31 -8 23 -7 33 2 42 10 9 12 8 7 -4 -6 -17 37 -48 50
-36 3 4 1 7 -5 7 -7 0 -12 7 -12 15 0 8 -4 15 -10 15 -5 0 -12 16 -16 35 -3
20 -12 35 -20 35 -10 0 -13 -8 -9 -27 3 -16 2 -22 -1 -15 -3 6 -10 10 -14 7
-5 -3 -11 -1 -15 5 -3 5 -2 10 4 10 5 0 13 9 16 20 3 11 15 20 26 20 16 0 18
5 13 28 -9 35 -9 36 -27 17 -9 -8 -18 -15 -21 -15 -12 0 -6 38 7 43 7 3 5 6
-5 6 -10 1 -18 5 -18 11 0 5 7 7 15 4 8 -4 15 -1 15 5 0 6 5 11 11 11 5 0 7
-4 4 -10 -3 -5 -2 -10 4 -10 17 0 22 18 6 24 -8 3 -15 15 -15 26 0 24 -22 26
-40 5 -10 -13 -9 -15 11 -15 18 0 21 -2 10 -9 -10 -6 -22 -4 -37 7 -23 18 -23
32 2 32 28 0 41 22 30 47 -6 12 -14 23 -18 23 -12 0 -9 -25 4 -38 9 -9 9 -12
-1 -12 -7 0 -19 7 -27 15 -10 10 -11 15 -4 15 7 0 10 7 6 15 -3 9 0 15 8 15 8
0 22 3 32 7 14 5 16 2 12 -15 -4 -12 -2 -20 2 -17 5 3 10 -1 13 -7 3 -10 8
-10 18 1 9 9 9 11 2 7 -8 -4 -13 -2 -13 6 -1 24 -38 58 -62 57 -21 0 -21 -1
-4 -8 17 -6 17 -8 4 -14 -10 -3 -19 0 -22 9 -10 26 -7 36 9 30 18 -6 45 2 45
15 0 5 -6 8 -13 6 -7 -1 -13 11 -15 31 -3 33 13 45 21 15 2 -10 3 -8 2 4 -1
12 1 24 4 26 3 2 0 2 -6 1 -7 -2 -13 3 -13 11 0 7 -13 16 -29 20 -20 4 -28 11
-24 21 3 8 0 14 -6 14 -23 0 -31 49 -16 93 8 23 15 54 15 68 0 23 4 26 28 24
34 -2 54 -13 47 -25 -3 -4 4 -10 15 -13 11 -3 18 -1 15 3 -3 5 -1 11 4 14 12
8 22 -20 14 -41 -5 -13 -2 -15 11 -10 13 5 17 3 13 -7 -3 -7 1 -23 9 -35 14
-19 13 -21 -2 -21 -16 0 -16 -1 0 -19 11 -12 15 -25 10 -33 -6 -10 -4 -10 9 1
15 12 17 11 17 -3 0 -9 -4 -16 -10 -16 -5 0 -10 -6 -10 -14 0 -9 9 -12 28 -9
27 4 27 4 0 -17 -16 -12 -28 -27 -28 -33 0 -6 7 -2 15 9 8 10 15 15 15 10 0
-5 7 -3 15 4 20 17 19 1 -2 -22 -15 -17 -15 -19 2 -38 11 -12 13 -20 6 -20 -7
0 -9 -5 -5 -11 5 -8 10 -6 16 5 6 11 6 22 -1 30 -13 15 20 91 34 79 4 -4 5 0
2 9 -3 10 -2 20 4 24 6 4 5 12 -3 22 -11 13 -10 15 10 10 19 -5 22 -2 22 23 0
16 -5 29 -12 29 -6 0 -9 3 -5 6 3 3 -5 18 -19 32 -26 29 -33 52 -10 33 11 -9
15 -9 20 1 3 7 3 3 0 -9 -4 -19 -2 -22 12 -16 12 4 15 3 10 -5 -4 -7 -2 -12 5
-12 7 0 21 -7 31 -17 28 -25 21 1 -9 33 -22 24 -24 30 -10 32 12 2 15 12 12
37 -3 24 0 37 11 43 14 8 14 10 0 21 -9 8 -16 17 -16 22 0 14 18 10 22 -4 5
-23 68 8 68 33 0 26 -16 26 -23 0 -5 -20 -37 -29 -37 -10 0 6 5 9 11 8 6 -2
14 3 16 10 3 9 -1 12 -12 10 -10 -2 -20 3 -22 10 -4 9 1 10 21 2 22 -8 26 -7
26 7 0 13 3 14 12 5 16 -16 29 -15 22 1 -3 8 2 14 11 14 9 0 14 -6 11 -13 -3
-8 3 -18 12 -24 13 -8 14 -10 2 -9 -43 4 -56 -14 -19 -26 15 -5 25 -2 31 9 15
26 31 19 24 -11 -3 -16 -3 -23 0 -16 6 13 64 -2 64 -17 0 -5 27 -37 60 -71 45
-48 59 -58 57 -41 0 12 -3 19 -5 17 -6 -6 -42 41 -42 54 0 6 -5 11 -12 11 -6
0 -3 9 7 20 10 11 13 20 7 20 -7 0 -12 -4 -12 -10 0 -5 -5 -10 -11 -10 -5 0
-7 5 -3 11 4 7 7 25 6 40 0 16 4 32 10 35 6 4 8 2 4 -4 -4 -6 1 -10 13 -9 15
1 17 4 9 14 -6 8 -8 16 -4 20 3 3 6 2 6 -3 0 -5 22 -9 48 -9 49 0 49 0 46 33
-1 21 2 32 11 32 7 0 18 7 25 15 10 12 9 15 -6 15 -15 0 -16 2 -5 9 7 5 10 14
7 20 -4 6 -2 11 3 11 6 0 11 -4 11 -8 0 -5 6 -16 13 -26 13 -17 14 -18 20 -2
4 10 3 15 -3 11 -12 -8 -12 -3 0 29 6 17 6 26 -1 26 -6 0 -6 6 1 19 13 25 13
27 -6 45 -14 15 -14 16 5 16 12 0 21 5 21 10 0 6 -5 10 -11 10 -8 0 -8 5 1 15
8 10 9 24 4 42 -11 40 -13 173 -2 173 5 0 6 10 3 22 -6 17 -4 20 9 15 13 -5
16 1 16 33 0 30 -4 40 -16 40 -8 0 -13 4 -10 8 2 4 -18 21 -46 36 -52 30 -82
52 -127 96 -15 13 -27 23 -28 22 -10 -7 -23 0 -23 13 0 8 -6 15 -13 15 -7 0
-26 16 -42 36 -60 71 -93 104 -104 104 -6 0 -10 3 -9 8 3 12 -24 62 -34 62 -4
0 -7 3 -6 8 3 12 -13 52 -21 52 -4 0 -16 20 -27 45 -10 25 -23 45 -28 45 -6 0
-6 4 0 10 8 8 -4 40 -38 108 -27 53 -53 98 -58 100 -5 2 -6 10 -3 18 3 8 -1
14 -10 14 -9 0 -19 9 -22 20 -3 11 -11 20 -16 20 -5 0 -9 7 -9 15 0 8 -14 34
-30 57 -17 24 -32 53 -35 66 -8 43 -16 62 -27 62 -5 0 -7 -7 -4 -16 3 -9 2
-12 -5 -9 -5 4 -9 14 -7 23 1 10 -4 28 -12 42 -7 13 -15 43 -18 65 -2 22 -8
42 -13 45 -13 9 -30 62 -39 120 -8 62 -4 84 16 76 11 -4 11 -1 1 17 -6 12 -16
25 -20 28 -13 9 -11 21 5 30 10 7 9 9 -4 9 -13 0 -16 8 -13 39 1 21 5 44 9 50
4 6 -2 21 -14 33 -11 12 -18 29 -15 36 3 8 -3 21 -12 29 -17 14 -17 14 0 9 9
-3 17 -1 17 4 0 6 -5 10 -11 10 -6 0 -3 7 5 16 23 23 19 27 -8 9 -29 -19 -67
-6 -65 23 1 15 2 15 6 0 4 -17 32 -33 41 -23 3 3 -3 13 -12 24 -13 15 -14 20
-4 24 10 4 10 8 -2 17 -12 10 -11 11 8 7 12 -3 20 -1 16 4 -3 5 -13 9 -22 9
-13 0 -13 2 4 15 17 13 17 14 2 15 -10 0 -18 6 -19 13 -2 34 -10 81 -15 86 -3
3 -11 6 -17 6 -7 0 -11 10 -9 22 2 14 -5 26 -18 33 -14 7 -19 17 -15 27 3 9 2
19 -3 22 -11 8 -24 71 -14 71 4 0 7 11 7 25 0 14 -6 25 -12 25 -16 0 -17 12
-1 28 9 9 9 12 -1 12 -7 0 -10 7 -6 19 3 10 -1 23 -9 30 -13 11 -14 6 -11 -31z
m70 -408 c3 -5 2 -10 -4 -10 -5 0 -13 5 -16 10 -3 6 -2 10 4 10 5 0 13 -4 16
-10z m43 -39 c3 -9 0 -12 -10 -8 -9 3 -22 0 -29 -6 -11 -10 -11 -9 -1 4 6 9 8
19 4 24 -4 4 2 6 12 4 11 -2 21 -10 24 -18z m52 -251 c0 -5 -5 -10 -11 -10 -5
0 -7 5 -4 10 3 6 8 10 11 10 2 0 4 -4 4 -10z m-214 -479 c-1 -16 -4 -27 -8
-24 -11 6 -10 53 1 53 4 0 8 -13 7 -29z m-53 -9 c10 -10 14 -22 11 -25 -4 -4
-1 -13 5 -21 9 -11 9 -16 0 -21 -8 -6 -7 -10 2 -17 11 -7 9 -8 -6 -6 -16 3
-20 11 -20 42 0 23 -5 41 -12 43 -14 5 -18 23 -5 23 5 0 16 -8 25 -18z m362
-42 c-3 -5 -1 -10 5 -10 6 0 8 -5 4 -11 -4 -8 -9 -7 -15 2 -7 12 -3 29 7 29 3
0 2 -4 -1 -10z m-72 -62 c18 6 27 1 27 -15 0 -11 -3 -14 -8 -7 -4 6 -15 13
-24 17 -12 4 -18 16 -17 34 1 28 1 28 8 -2 3 -16 10 -29 14 -27z m95 -53 c-3
-3 -9 2 -12 12 -6 14 -5 15 5 6 7 -7 10 -15 7 -18z m-341 -85 c13 -38 11 -70
-6 -69 -11 0 -12 2 -3 6 10 4 9 9 -5 20 -10 8 -12 12 -5 8 7 -4 12 0 12 9 0 9
-4 16 -9 16 -12 0 -24 87 -14 102 5 8 11 -4 16 -32 5 -25 11 -52 14 -60z m165
35 c-5 -45 -20 -45 -18 0 0 19 6 35 11 35 7 0 9 -15 7 -35z m53 25 c3 -5 1
-10 -4 -10 -6 0 -11 5 -11 10 0 6 2 10 4 10 3 0 8 -4 11 -10z m78 -4 c4 -10 0
-12 -14 -9 -10 3 -16 9 -13 14 8 13 21 11 27 -5z m83 -32 c7 3 18 -2 24 -10 8
-9 9 -14 2 -14 -6 0 -16 -2 -24 -5 -12 -5 -39 37 -37 59 0 6 5 1 11 -12 6 -13
17 -21 24 -18z m-91 -4 c3 -5 1 -10 -4 -10 -6 0 -11 5 -11 10 0 6 2 10 4 10 3
0 8 -4 11 -10z m-55 -31 c0 -6 -4 -7 -10 -4 -5 3 -10 11 -10 16 0 6 5 7 10 4
6 -3 10 -11 10 -16z m-276 -22 c4 -19 3 -26 -4 -22 -5 3 -10 18 -10 32 0 32 5
28 14 -10z m156 19 c0 -3 -4 -8 -10 -11 -5 -3 -10 -1 -10 4 0 6 5 11 10 11 6
0 10 -2 10 -4z m55 -16 c3 -5 1 -10 -4 -10 -6 0 -11 5 -11 10 0 6 2 10 4 10 3
0 8 -4 11 -10z m70 -9 c3 -5 1 -12 -5 -16 -5 -3 -10 1 -10 9 0 18 6 21 15 7z
m-362 -36 c-3 -9 -8 -14 -10 -11 -3 3 -2 9 2 15 9 16 15 13 8 -4z m51 -13 c3
-5 -1 -9 -9 -9 -8 0 -15 4 -15 9 0 4 4 8 9 8 6 0 12 -4 15 -8z m99 -42 c-3
-11 -1 -20 5 -20 5 0 13 -12 17 -27 3 -15 12 -31 18 -35 9 -6 9 -8 0 -8 -7 0
-13 -10 -13 -22 -1 -18 -2 -20 -9 -8 -13 23 -32 120 -25 131 9 15 12 10 7 -11z
m-73 -10 c0 -5 -4 -10 -10 -10 -5 0 -10 5 -10 10 0 6 5 10 10 10 6 0 10 -4 10
-10z m14 -36 c4 -9 4 -19 2 -21 -8 -8 -26 8 -26 23 0 19 16 18 24 -2z m472 4
c4 -7 3 -8 -4 -4 -15 9 -16 -6 -1 -21 8 -8 7 -13 -3 -18 -7 -5 -10 -5 -6 0 4
4 3 14 -3 21 -6 7 -8 18 -4 24 8 13 12 13 21 -2z m-464 -78 c2 -22 0 -40 -4
-40 -5 0 -8 4 -8 9 0 5 -3 23 -6 40 -4 18 -2 31 4 31 5 0 12 -18 14 -40z m478
10 c0 -5 -2 -10 -4 -10 -3 0 -8 5 -11 10 -3 6 -1 10 4 10 6 0 11 -4 11 -10z
m19 -63 c1 -5 -3 -5 -9 -2 -5 3 -10 16 -9 28 0 21 1 21 9 2 5 -11 9 -24 9 -28z
m-419 22 c0 -6 7 -9 14 -6 11 4 13 1 9 -10 -5 -12 -3 -14 7 -8 9 5 11 4 6 -3
-11 -18 -22 -14 -40 13 -9 14 -12 25 -6 25 5 0 10 -5 10 -11z m-56 -79 c7 -55
-8 -33 -18 25 -5 25 -4 36 2 30 5 -5 12 -30 16 -55z m100 -13 c0 -15 5 -27 10
-27 6 0 12 -18 14 -40 2 -30 -1 -38 -11 -34 -8 3 -14 17 -13 32 1 18 -4 26
-13 24 -10 -2 -12 5 -9 27 2 17 1 28 -4 25 -4 -3 -8 2 -8 11 0 10 7 15 18 13
11 -2 17 -12 16 -31z m-234 -2 c0 -14 -4 -25 -10 -25 -5 0 -10 11 -10 25 0 14
5 25 10 25 6 0 10 -11 10 -25z m180 11 c0 -2 -8 -10 -17 -17 -16 -13 -17 -12
-4 4 13 16 21 21 21 13z m-160 -71 c0 -28 -17 -34 -27 -9 -3 9 0 20 8 25 19
12 19 12 19 -16z m130 15 c0 -5 -5 -10 -11 -10 -5 0 -7 5 -4 10 3 6 8 10 11
10 2 0 4 -4 4 -10z m119 -190 c0 -10 -3 -8 -9 5 -12 27 -12 43 0 25 5 -8 9
-22 9 -30z m-77 -25 c-6 -34 -12 -32 -12 6 0 16 4 28 9 25 4 -3 6 -17 3 -31z
m115 -77 c-3 -8 -6 -5 -6 6 -1 11 2 17 5 13 3 -3 4 -12 1 -19z m-97 -23 c0 -8
-4 -15 -10 -15 -5 0 -10 7 -10 15 0 8 5 15 10 15 6 0 10 -7 10 -15z m107 -17
c-3 -8 -6 -5 -6 6 -1 11 2 17 5 13 3 -3 4 -12 1 -19z m-102 -36 c-8 -8 -25 10
-19 20 4 6 9 5 15 -3 4 -7 6 -15 4 -17z m118 -99 c4 -19 2 -33 -3 -33 -6 0
-10 17 -10 37 0 43 5 41 13 -4z m13 -200 c-10 -10 -19 5 -10 18 6 11 8 11 12
0 2 -7 1 -15 -2 -18z m4 -38 c0 -15 -6 -25 -14 -25 -8 0 -17 -10 -19 -22 -4
-21 -4 -20 -6 3 0 16 5 29 14 33 8 3 15 12 15 21 0 8 2 15 5 15 3 0 5 -11 5
-25z m0 -65 c0 -5 -5 -10 -11 -10 -5 0 -7 5 -4 10 3 6 8 10 11 10 2 0 4 -4 4
-10z m0 -45 c0 -8 -4 -15 -10 -15 -5 0 -10 7 -10 15 0 8 5 15 10 15 6 0 10 -7
10 -15z m0 -45 c0 -5 -4 -10 -10 -10 -5 0 -10 5 -10 10 0 6 5 10 10 10 6 0 10
-4 10 -10z m474 -52 c-5 -7 -1 -9 9 -5 10 3 17 2 17 -3 0 -9 -39 -25 -45 -18
-8 8 8 48 16 42 5 -3 6 -10 3 -16z m-494 -28 c0 -5 -4 -10 -10 -10 -5 0 -10 5
-10 10 0 6 5 10 10 10 6 0 10 -4 10 -10z m820 0 c-20 -13 -63 -13 -55 0 3 6
21 10 38 10 24 0 28 -3 17 -10z m-1300 -69 c0 -6 -4 -13 -10 -16 -5 -3 -10 1
-10 9 0 9 5 16 10 16 6 0 10 -4 10 -9z m895 -51 c3 -5 1 -10 -4 -10 -6 0 -11
5 -11 10 0 6 2 10 4 10 3 0 8 -4 11 -10z m-74 -48 c4 -18 3 -32 -2 -32 -5 0
-9 6 -9 14 0 7 -7 19 -15 26 -8 7 -12 16 -9 22 11 17 28 2 35 -30z m-787 13
c-4 -8 -8 -15 -10 -15 -2 0 -4 7 -4 15 0 8 4 15 10 15 5 0 7 -7 4 -15z m40
-10 c-4 -8 -8 -15 -10 -15 -2 0 -4 7 -4 15 0 8 4 15 10 15 5 0 7 -7 4 -15z
m806 -16 c0 -6 -4 -7 -10 -4 -5 3 -10 11 -10 16 0 6 5 7 10 4 6 -3 10 -11 10
-16z m-200 1 c0 -5 -4 -10 -10 -10 -5 0 -10 5 -10 10 0 6 5 10 10 10 6 0 10
-4 10 -10z m-300 -66 c-12 -13 -11 -17 0 -24 9 -5 17 -5 21 1 4 7 9 4 12 -6 4
-9 3 -13 -2 -10 -6 3 -15 -3 -21 -12 -11 -17 -11 -17 -6 0 3 10 0 17 -9 17 -7
0 -17 -9 -20 -20 -4 -11 -11 -18 -16 -15 -16 11 -10 -4 11 -25 12 -12 26 -18
33 -15 7 4 4 0 -5 -8 -10 -8 -18 -21 -18 -30 0 -9 -4 -19 -10 -22 -6 -4 -10 5
-10 19 0 14 5 26 11 26 8 0 8 4 -1 15 -9 11 -17 12 -32 4 -18 -10 -19 -8 -13
13 9 27 26 50 33 44 3 -3 14 13 25 35 11 22 22 38 25 35 3 -3 -1 -13 -8 -22z
m-120 -134 c0 -5 -5 -10 -11 -10 -5 0 -7 5 -4 10 3 6 8 10 11 10 2 0 4 -4 4
-10z m50 6 c0 -3 -4 -8 -10 -11 -5 -3 -10 -1 -10 4 0 6 5 11 10 11 6 0 10 -2
10 -4z m16 -56 c-3 -21 -12 -51 -18 -66 -11 -23 -13 -24 -19 -7 -3 10 -1 21 5
25 8 6 7 8 -1 8 -7 0 -13 5 -13 10 0 6 7 10 15 10 15 0 19 10 16 43 -1 9 3 17
10 17 8 0 10 -12 5 -40z m-94 -5 c-2 -19 -6 -35 -8 -35 -2 0 -4 16 -4 35 0 19
4 35 8 35 4 0 6 -16 4 -35z m38 15 c0 -5 -4 -10 -10 -10 -5 0 -10 5 -10 10 0
6 5 10 10 10 6 0 10 -4 10 -10z m23 -5 c-3 -9 -8 -14 -10 -11 -3 3 -2 9 2 15
9 16 15 13 8 -4z m332 5 c3 -5 4 -10 1 -10 -2 0 -12 -3 -20 -6 -12 -5 -15 -2
-10 10 7 18 20 21 29 6z m-605 -65 c-7 -8 -18 -15 -24 -15 -6 0 -2 7 8 15 25
19 32 19 16 0z m200 -22 c0 -10 -6 -13 -16 -9 -9 4 -23 1 -30 -5 -8 -6 -14 -8
-14 -4 0 11 44 44 52 38 5 -2 8 -11 8 -20z m-420 3 c0 -2 -7 -9 -15 -16 -13
-11 -14 -10 -9 4 5 14 24 23 24 12z m303 -14 c2 7 7 10 11 7 4 -4 -12 -26 -34
-50 -23 -24 -39 -38 -35 -31 3 6 1 12 -4 12 -6 0 -11 -7 -11 -15 0 -17 -9 -19
-28 -7 -8 5 -10 16 -6 27 5 13 4 16 -4 11 -7 -4 -12 -5 -12 -1 0 3 10 10 23
16 12 5 33 16 47 24 16 9 28 11 36 4 8 -7 14 -6 17 3z m141 -7 c-4 -8 -1 -15
5 -15 6 0 11 -7 11 -15 0 -15 -20 -22 -20 -7 0 4 -3 17 -6 30 -4 13 -2 22 5
22 5 0 8 -7 5 -15z m176 -10 c0 -3 -10 -20 -22 -39 -15 -23 -30 -33 -47 -33
-25 0 -25 0 0 13 14 7 30 24 37 38 10 22 32 36 32 21z m-266 -19 c-5 -14 -34
-31 -34 -20 0 8 24 33 32 34 4 0 5 -6 2 -14z m140 2 c-3 -4 -9 -8 -15 -8 -5 0
-9 4 -9 8 0 5 7 9 15 9 8 0 12 -4 9 -9z m-70 -32 c-3 -14 -10 -26 -14 -26 -5
0 -3 13 3 30 13 35 21 33 11 -4z m-494 9 c0 -8 -7 -15 -16 -15 -14 0 -14 3 -4
15 7 8 14 15 16 15 2 0 4 -7 4 -15z m590 5 c0 -5 -7 -10 -16 -10 -8 0 -12 5
-9 10 3 6 10 10 16 10 5 0 9 -4 9 -10z m-212 -12 c16 -16 15 -28 -3 -28 -8 0
-15 2 -15 4 0 2 -3 11 -6 20 -7 19 7 21 24 4z m492 2 c0 -5 -2 -10 -4 -10 -3
0 -8 5 -11 10 -3 6 -1 10 4 10 6 0 11 -4 11 -10z m-434 -15 c-19 -14 -19 -15
-1 -15 10 0 15 -3 12 -7 -10 -9 -57 -13 -57 -5 0 12 15 29 30 35 28 10 35 6
16 -8z m-186 -9 c0 -3 -4 -8 -10 -11 -5 -3 -10 -1 -10 4 0 6 5 11 10 11 6 0
10 -2 10 -4z m350 -27 c0 -5 5 -7 11 -3 7 4 9 2 5 -7 -3 -8 -9 -22 -12 -31 -4
-10 -10 -18 -15 -18 -9 0 -31 -19 -110 -92 -31 -29 -49 -35 -49 -18 0 6 3 10
8 10 4 0 25 18 47 40 22 21 46 39 53 40 6 0 12 9 12 20 0 11 5 20 10 20 6 0
10 8 10 18 0 10 3 22 7 25 10 10 23 8 23 -4z m-220 -8 c0 -6 -4 -13 -10 -16
-5 -3 -10 1 -10 9 0 9 5 16 10 16 6 0 10 -4 10 -9z m-49 -44 c-10 -9 -11 -8
-5 6 3 10 9 15 12 12 3 -3 0 -11 -7 -18z m569 -68 c0 -5 -9 -4 -19 3 -11 7
-17 16 -14 20 5 10 33 -10 33 -23z m-490 -9 c0 -5 -2 -10 -4 -10 -3 0 -8 5
-11 10 -3 6 -1 10 4 10 6 0 11 -4 11 -10z"/>
<path d="M820 6394 c0 -8 5 -12 10 -9 6 3 10 10 10 16 0 5 -4 9 -10 9 -5 0
-10 -7 -10 -16z"/>
<path d="M3135 6380 c-3 -5 1 -10 9 -10 9 0 16 5 16 10 0 6 -4 10 -9 10 -6 0
-13 -4 -16 -10z"/>
<path d="M4010 6370 c0 -5 5 -10 11 -10 5 0 7 5 4 10 -3 6 -8 10 -11 10 -2 0
-4 -4 -4 -10z"/>
<path d="M790 6349 c0 -5 5 -7 10 -4 6 3 10 8 10 11 0 2 -4 4 -10 4 -5 0 -10
-5 -10 -11z"/>
<path d="M2411 6351 c-11 -7 -10 -11 7 -20 26 -14 32 -14 32 0 0 5 -5 7 -12 3
-8 -5 -9 -2 -5 9 7 19 -1 21 -22 8z"/>
<path d="M3162 6340 c0 -14 2 -19 5 -12 2 6 2 18 0 25 -3 6 -5 1 -5 -13z"/>
<path d="M3190 6343 c0 -13 5 -23 10 -23 13 0 13 11 0 30 -8 12 -10 11 -10 -7z"/>
<path d="M830 6339 c0 -5 5 -7 10 -4 6 3 10 8 10 11 0 2 -4 4 -10 4 -5 0 -10
-5 -10 -11z"/>
<path d="M2708 6234 c-5 -4 -8 -18 -8 -31 0 -12 -4 -23 -10 -23 -5 0 -7 8 -4
18 5 14 3 14 -10 -2 -9 -11 -16 -26 -16 -33 0 -11 -4 -11 -22 1 -33 23 -40 20
-33 -16 5 -27 2 -36 -16 -46 -16 -11 -23 -11 -29 -2 -6 9 -12 9 -29 -1 -24
-16 -29 -31 -6 -23 8 4 15 1 15 -5 0 -6 -4 -11 -10 -11 -16 0 -11 -17 7 -24
10 -4 26 4 46 24 24 24 32 28 44 19 9 -8 10 -15 4 -19 -18 -11 9 -65 45 -88
53 -35 123 -26 155 20 23 32 28 103 10 137 -11 20 -10 20 29 6 22 -8 40 -11
40 -7 0 4 4 2 8 -4 6 -9 101 -49 112 -47 2 1 6 7 9 14 2 7 -1 9 -8 5 -6 -4
-11 -2 -11 3 0 6 3 11 8 11 4 0 13 9 20 20 11 18 10 19 -19 13 -31 -6 -31 -6
-15 19 15 24 15 26 1 32 -9 3 -26 -1 -38 -9 -27 -19 -37 -19 -37 0 0 8 5 15
11 15 5 0 7 -5 3 -12 -5 -7 -3 -8 5 -3 10 5 8 13 -9 29 -22 21 -22 21 -37 -1
-17 -26 -33 -30 -33 -9 0 18 -18 15 -49 -6 -29 -20 -47 -14 -55 18 -4 14 -11
22 -17 18 -6 -3 -8 -13 -5 -21 3 -8 1 -11 -4 -8 -6 3 -10 1 -10 -6 0 -18 -17
2 -22 24 -1 11 -6 15 -10 11z m60 -162 c4 -14 -34 -16 -42 -3 -6 10 13 21 28
17 6 -1 12 -8 14 -14z"/>
<path d="M1424 6155 c-17 -13 -17 -14 -2 -15 9 0 20 5 23 11 11 17 0 20 -21 4z"/>
<path d="M2970 6074 c0 -8 0 -16 0 -19 1 -3 -13 -22 -30 -43 -31 -38 -24 -58
10 -27 14 13 19 13 23 3 4 -9 6 -8 6 3 1 9 7 19 15 22 8 3 19 15 25 26 9 17 7
22 -19 35 -26 12 -30 12 -30 0z"/>
<path d="M2519 5993 c-13 -16 -12 -17 4 -4 16 13 21 21 13 21 -2 0 -10 -8 -17
-17z"/>
<path d="M1524 5947 c-4 -10 -12 -16 -20 -13 -7 3 -27 1 -45 -4 -22 -7 -37 -6
-46 2 -11 8 -12 7 -7 -6 5 -12 2 -15 -12 -9 -13 5 -16 3 -12 -9 10 -24 -42
-48 -89 -42 -35 4 -42 2 -48 -18 -12 -34 -11 -43 2 -43 6 0 15 -3 19 -7 8 -8
-15 -12 -53 -8 -13 1 -23 -3 -23 -9 0 -6 7 -8 15 -4 9 3 15 2 14 -3 -5 -28 3
-34 37 -31 27 3 43 13 62 38 50 63 103 103 89 66 -6 -17 26 -91 44 -103 7 -4
14 -3 17 4 2 7 8 12 14 12 7 0 7 -5 -1 -13 -15 -19 -4 -27 34 -27 83 0 125 39
125 116 0 46 0 46 30 41 21 -5 30 -3 30 7 0 16 -28 29 -100 47 -30 7 -58 18
-62 23 -4 6 -10 3 -14 -7z m56 -103 c0 -8 -10 -14 -24 -14 -34 0 -42 18 -14
29 27 10 38 6 38 -15z m-293 -21 c3 -7 -3 -9 -16 -6 -12 3 -21 10 -21 15 0 13
32 6 37 -9z"/>
<path d="M920 5816 c0 -8 4 -17 9 -20 5 -4 7 3 4 14 -6 23 -13 26 -13 6z"/>
<path d="M740 5792 c0 -11 4 -23 8 -26 10 -6 9 30 -1 40 -4 4 -7 -2 -7 -14z"/>
<path d="M750 5740 c0 -5 5 -10 11 -10 5 0 7 5 4 10 -3 6 -8 10 -11 10 -2 0
-4 -4 -4 -10z"/>
<path d="M883 5727 c4 -10 7 -27 7 -38 0 -10 4 -19 9 -19 10 0 -3 58 -15 69
-4 3 -4 -2 -1 -12z"/>
<path d="M630 5664 c0 -16 5 -36 10 -44 7 -11 9 -4 5 24 -5 47 -15 60 -15 20z"/>
<path d="M1312 5681 c2 -7 7 -12 11 -12 12 1 9 15 -3 20 -7 2 -11 -2 -8 -8z"/>
<path d="M900 5634 c0 -8 5 -12 10 -9 6 3 10 10 10 16 0 5 -4 9 -10 9 -5 0
-10 -7 -10 -16z"/>
<path d="M646 5591 c-4 -7 -5 -15 -2 -18 9 -9 19 4 14 18 -4 11 -6 11 -12 0z"/>
<path d="M900 5559 c0 -5 5 -7 10 -4 6 3 10 8 10 11 0 2 -4 4 -10 4 -5 0 -10
-5 -10 -11z"/>
<path d="M651 5520 c0 -29 1 -32 10 -17 7 11 7 23 0 35 -9 14 -10 11 -10 -18z"/>
<path d="M916 5528 c-7 -28 -8 -83 -1 -76 6 5 16 98 11 98 -2 0 -6 -10 -10
-22z"/>
<path d="M577 5458 c1 -24 2 -46 2 -50 1 -5 6 -8 11 -8 13 0 7 93 -6 97 -5 2
-8 -16 -7 -39z"/>
<path d="M666 5471 c-4 -7 -5 -15 -2 -18 9 -9 19 4 14 18 -4 11 -6 11 -12 0z"/>
<path d="M920 5403 c0 -24 2 -43 4 -43 8 0 12 60 4 72 -4 8 -8 -4 -8 -29z"/>
<path d="M665 5420 c3 -5 10 -10 16 -10 5 0 9 5 9 10 0 6 -7 10 -16 10 -8 0
-12 -4 -9 -10z"/>
<path d="M586 5374 c-3 -9 -2 -23 4 -32 7 -14 9 -10 10 16 0 35 -5 41 -14 16z"/>
<path d="M930 5345 c-7 -8 -8 -15 -2 -15 5 0 15 7 22 15 7 8 8 15 2 15 -5 0
-15 -7 -22 -15z"/>
<path d="M2443 5157 c-39 -27 -41 -59 -3 -50 35 8 50 22 47 44 -5 29 -11 30
-44 6z"/>
<path d="M660 5140 c0 -5 5 -10 10 -10 6 0 10 5 10 10 0 6 -4 10 -10 10 -5 0
-10 -4 -10 -10z"/>
<path d="M962 5130 c0 -14 2 -19 5 -12 2 6 2 18 0 25 -3 6 -5 1 -5 -13z"/>
<path d="M3171 5124 c0 -11 3 -14 6 -6 3 7 2 16 -1 19 -3 4 -6 -2 -5 -13z"/>
<path d="M569 5088 c4 -28 6 -29 9 -9 2 13 0 27 -5 32 -6 6 -7 -3 -4 -23z"/>
<path d="M2099 5064 c26 -19 71 -28 71 -14 0 4 -12 11 -27 14 -16 4 -37 9 -48
12 -17 5 -16 3 4 -12z"/>
<path d="M3161 5054 c0 -11 3 -14 6 -6 3 7 2 16 -1 19 -3 4 -6 -2 -5 -13z"/>
<path d="M3149 5000 c-5 -100 -4 -137 2 -162 4 -14 4 -29 1 -33 -3 -3 -5 -23
-3 -43 1 -21 -3 -50 -8 -65 -7 -18 -7 -26 -1 -22 6 3 10 -1 10 -10 0 -9 -4
-14 -9 -11 -4 3 -8 -7 -8 -22 0 -15 -3 -36 -8 -46 -7 -15 -5 -18 6 -11 11 6
12 5 2 -6 -15 -16 -17 -43 -3 -34 6 3 10 1 10 -4 0 -6 -4 -11 -9 -11 -5 0 -13
-9 -16 -20 -3 -11 -13 -20 -21 -20 -11 0 -13 -6 -9 -21 6 -18 4 -20 -14 -14
-16 5 -19 3 -15 -8 3 -8 -12 -32 -36 -57 -22 -23 -39 -45 -36 -48 3 -2 -6 -13
-19 -24 -14 -11 -23 -24 -20 -29 4 -5 -1 -6 -10 -3 -11 5 -14 2 -9 -10 4 -12
2 -15 -9 -11 -10 4 -17 -2 -21 -19 -3 -14 -13 -26 -21 -26 -8 0 -15 -7 -15
-15 0 -9 -17 -20 -44 -27 -33 -9 -46 -18 -51 -35 -5 -21 -20 -28 -52 -24 -7 1
-13 -5 -13 -14 0 -8 -9 -15 -20 -15 -11 0 -28 -8 -38 -17 -10 -10 -33 -19 -52
-21 -19 -1 -39 -7 -44 -12 -6 -6 -17 -10 -25 -10 -14 0 -14 1 -1 10 10 6 2 7
-25 3 -48 -7 -46 -5 -49 -37 -2 -17 2 -26 10 -26 8 0 14 5 14 11 0 8 4 8 14 0
10 -8 16 -9 21 -1 3 6 11 7 17 4 6 -4 5 -10 -3 -15 -9 -6 -10 -9 -2 -9 6 0 20
8 29 18 16 16 17 16 11 0 -4 -12 -2 -15 9 -11 9 3 14 -2 14 -15 0 -12 5 -24
10 -27 6 -4 8 -10 6 -14 -3 -4 -1 -13 5 -21 6 -11 9 -12 9 -2 0 7 5 10 10 7
16 -10 12 -38 -5 -31 -8 3 -22 9 -30 12 -8 3 -15 1 -15 -5 0 -6 5 -11 12 -11
6 0 20 -7 30 -17 12 -10 18 -12 18 -4 0 8 8 10 22 6 17 -6 20 -4 15 9 -9 23 0
20 13 -5 9 -16 8 -24 -3 -37 -19 -22 -4 -87 19 -78 7 3 14 1 14 -5 0 -5 -7
-12 -15 -15 -8 -4 -15 -10 -15 -15 0 -5 7 -9 15 -9 8 0 15 5 15 10 0 6 6 10
13 10 6 -1 -5 -15 -26 -33 -28 -24 -35 -35 -26 -44 8 -8 8 -13 0 -17 -14 -9
-14 -46 -1 -46 6 0 10 6 9 13 -3 25 1 38 11 32 6 -4 6 -15 0 -31 -13 -34 -13
-37 4 -31 10 4 13 1 9 -9 -7 -19 -9 -18 -40 11 -15 13 -29 22 -32 19 -3 -3 2
-10 12 -15 9 -6 17 -15 17 -20 0 -6 -4 -7 -10 -4 -13 8 -13 -1 1 -27 8 -15 8
-23 -1 -32 -8 -8 -10 -7 -5 5 5 13 1 15 -20 11 -18 -3 -23 -7 -15 -12 16 -10
2 -33 -16 -26 -8 3 -14 2 -14 -3 0 -5 9 -11 20 -14 12 -3 20 -14 20 -27 0 -16
-5 -20 -17 -16 -22 7 -50 -8 -34 -18 6 -4 11 -2 11 3 0 6 5 11 10 11 6 0 10
-7 10 -15 0 -8 -5 -15 -11 -15 -5 0 -7 -5 -4 -11 5 -6 13 -3 22 10 8 12 18 19
23 16 4 -2 6 16 5 40 -2 27 0 43 6 39 5 -3 8 -18 7 -32 -3 -23 0 -27 22 -24
19 2 22 0 12 -10 -17 -17 -15 -28 5 -21 12 5 11 -1 -7 -25 -18 -24 -27 -29
-37 -21 -7 6 -13 19 -14 28 0 12 -2 11 -9 -4 -13 -30 -12 -35 6 -35 13 0 15
-7 11 -30 -4 -16 -2 -32 4 -36 6 -3 10 0 8 7 -4 36 2 44 17 24 15 -19 16 -19
9 11 -4 23 -2 33 9 37 9 4 15 3 15 -1 -5 -30 3 -63 13 -60 14 5 20 68 7 68 -5
0 -9 7 -9 17 0 15 2 15 19 -1 11 -10 25 -15 32 -10 8 5 10 3 5 -5 -11 -17 26
-44 37 -28 6 8 7 7 4 -3 -2 -8 -13 -15 -24 -15 -12 0 -25 -3 -29 -7 -4 -5 -1
-8 8 -8 18 0 51 -34 41 -43 -3 -4 -2 -7 4 -7 5 0 9 -10 8 -22 -2 -22 10 -38
29 -38 5 0 3 7 -4 15 -11 13 -9 15 13 15 17 0 24 -5 23 -17 0 -10 4 -17 10
-16 7 1 9 -8 6 -23 -3 -19 -7 -22 -13 -12 -5 7 -9 8 -9 3 0 -6 7 -20 15 -33
15 -20 15 -21 -2 -15 -15 5 -16 4 -7 -8 7 -8 12 -27 12 -44 0 -51 1 -55 20
-55 15 -1 15 -2 -2 -15 -19 -14 -18 -15 10 -16 16 0 23 -3 16 -6 -6 -2 -10 -8
-7 -13 3 -4 -3 -7 -12 -6 -10 0 -19 -7 -21 -17 -3 -14 2 -16 31 -13 27 4 37 1
42 -12 3 -9 2 -18 -3 -20 -10 -3 7 -62 18 -62 4 0 5 15 3 33 -2 17 0 25 3 17
3 -8 8 -22 11 -30 3 -8 5 -23 4 -32 -2 -12 3 -16 12 -12 8 3 18 0 23 -7 4 -8
3 -10 -4 -5 -13 8 -15 -7 -5 -42 4 -18 8 -20 15 -10 5 8 6 2 2 -16 -5 -21 -4
-27 5 -22 6 4 11 2 11 -4 0 -6 -12 -8 -29 -5 -30 5 -62 -17 -41 -30 12 -8 13
-25 1 -25 -5 0 -16 6 -23 13 -20 20 -68 30 -68 15 0 -8 -3 -9 -8 -3 -14 21
-134 77 -153 72 -24 -6 -25 9 -1 22 9 6 13 11 8 11 -5 0 -18 -8 -29 -17 -19
-17 -20 -17 -14 0 8 21 -6 22 -23 2 -15 -19 -17 -17 44 -44 58 -25 56 -25 56
-6 0 9 6 12 16 8 11 -4 12 -8 4 -13 -18 -11 -2 -30 25 -30 13 0 26 -6 29 -12
5 -10 7 -10 12 0 4 9 11 7 25 -9 10 -12 19 -19 19 -16 0 3 15 0 33 -7 17 -7
38 -11 45 -9 6 3 12 0 12 -6 0 -5 8 -9 18 -9 9 1 46 -6 82 -15 36 -8 81 -18
101 -22 43 -7 50 -23 43 -102 -5 -55 -3 -58 46 -55 12 0 11 -2 -3 -12 -16 -12
-16 -18 -3 -67 8 -30 19 -53 25 -52 6 2 8 -4 4 -13 -5 -13 -7 -13 -14 -2 -6 8
-9 -1 -9 -27 0 -29 3 -36 10 -25 6 9 10 10 10 3 0 -14 -27 -43 -41 -43 -5 0
-4 -9 3 -20 13 -20 13 -20 21 2 12 34 18 15 6 -20 -11 -31 -23 -40 -32 -24 -2
4 -2 1 0 -6 1 -8 3 -20 3 -28 0 -8 7 -11 18 -8 11 4 13 3 5 -3 -7 -5 -14 -25
-15 -45 -3 -30 -6 -35 -25 -33 -19 2 -23 -3 -23 -23 0 -24 -1 -25 -13 -8 -12
17 -14 16 -14 -13 0 -18 4 -27 8 -20 5 9 11 8 24 -4 15 -16 13 -21 -7 -18 -15
2 -8 -15 12 -32 11 -9 20 -22 20 -29 0 -8 -5 -6 -11 4 -5 10 -19 23 -31 29
-18 10 -20 9 -15 -5 3 -8 0 -22 -8 -30 -13 -12 -12 -15 1 -20 8 -3 12 -2 9 4
-3 6 1 10 10 10 13 0 14 -4 5 -21 -9 -16 -14 -18 -26 -8 -10 8 -14 8 -14 0 0
-6 14 -14 30 -17 39 -8 39 -21 0 -19 -22 1 -28 -1 -20 -9 5 -5 10 -15 10 -21
0 -5 -4 -4 -8 3 -15 22 -43 3 -36 -24 4 -14 2 -24 -5 -24 -6 0 -8 7 -4 16 4
11 2 15 -7 12 -7 -2 -14 -14 -15 -26 -1 -11 2 -19 7 -16 4 3 8 -3 8 -13 0 -26
37 -83 54 -83 8 0 22 7 30 16 9 8 16 12 16 7 0 -12 -34 -40 -59 -48 -17 -5
-21 -2 -21 14 0 12 -6 21 -13 21 -17 0 -56 -29 -40 -30 6 0 11 -9 10 -19 0
-11 -6 -17 -14 -14 -7 3 -13 1 -13 -5 0 -12 26 -23 34 -15 3 4 6 18 6 31 0 23
1 24 18 9 18 -17 62 -19 62 -4 0 5 10 5 23 2 18 -5 19 -4 7 5 -12 8 -9 9 13 4
20 -4 34 -1 50 12 18 16 20 16 8 2 -18 -24 5 -25 30 -3 17 16 69 12 69 -6 0
-5 5 -9 10 -9 6 0 10 7 10 15 0 8 5 15 10 15 6 0 10 -7 10 -16 0 -8 4 -13 10
-9 5 3 7 12 3 21 -4 12 0 14 20 9 14 -4 28 -2 31 4 5 7 15 6 32 -5 15 -10 24
-12 24 -5 0 22 36 10 63 -20 15 -17 27 -27 28 -23 0 10 20 -34 25 -53 1 -7 -3
-13 -9 -13 -5 0 -7 -3 -4 -7 4 -3 2 -12 -5 -20 -9 -11 -8 -13 2 -11 8 2 14 -2
15 -9 1 -24 15 -25 15 0 0 38 17 77 47 106 15 14 23 20 19 13 -5 -8 -2 -21 6
-30 8 -9 15 -32 17 -51 2 -38 16 -61 37 -61 7 0 18 -8 23 -18 6 -9 11 -12 11
-7 0 6 9 -5 20 -22 19 -32 19 -86 -1 -99 -4 -2 -6 -11 -3 -18 3 -8 1 -17 -5
-21 -6 -3 -11 -14 -11 -25 0 -10 -8 -21 -17 -24 -13 -5 -14 -9 -5 -15 15 -9
-2 -103 -24 -136 -8 -11 -14 -27 -14 -37 0 -10 -5 -18 -11 -18 -6 0 -8 -8 -4
-19 3 -12 0 -21 -10 -25 -9 -3 -13 -11 -9 -17 4 -7 -1 -18 -10 -25 -10 -7 -17
-15 -16 -18 0 -4 -7 -20 -15 -36 -9 -17 -13 -35 -10 -40 3 -6 -1 -7 -9 -4 -10
4 -16 1 -16 -9 0 -8 -6 -17 -12 -20 -10 -4 -10 -7 0 -18 11 -12 18 -8 42 20
34 38 38 53 13 44 -15 -5 -14 -3 2 10 11 9 16 17 10 17 -5 0 -3 4 5 10 9 6 17
5 22 -3 5 -8 9 -5 14 8 4 11 20 31 35 46 15 14 30 35 33 47 4 11 13 23 21 26
11 4 10 -6 -5 -45 -17 -42 -18 -54 -8 -74 11 -19 15 -21 26 -9 8 9 9 14 2 14
-6 0 -8 5 -5 10 4 6 9 8 13 6 7 -4 39 26 35 31 -2 2 -3 11 -2 21 0 10 3 12 6
5 9 -23 20 -14 15 12 -3 19 0 25 13 25 11 0 15 5 11 15 -3 9 0 18 7 21 7 2 14
19 15 36 2 18 6 35 10 38 5 3 16 31 26 63 10 31 21 57 26 57 4 0 24 35 45 78
21 42 46 83 56 90 10 7 25 19 33 27 8 8 20 15 26 15 7 0 10 14 8 38 -2 25 1
36 9 35 7 -2 12 0 11 5 -4 13 36 72 52 77 9 3 16 14 16 25 0 13 -5 19 -14 15
-7 -3 -16 -5 -18 -5 -2 0 -4 -6 -4 -14 0 -8 -7 -17 -16 -20 -24 -9 -28 -7 -14
9 10 12 10 15 -1 15 -8 0 -5 6 7 14 10 8 19 18 20 23 2 40 18 74 31 69 16 -6
50 21 39 31 -3 4 -12 -2 -20 -12 -8 -11 -15 -14 -20 -7 -3 6 1 17 9 25 8 9 15
24 15 34 0 28 15 44 33 37 9 -3 15 -10 12 -15 -3 -4 -11 -6 -19 -3 -7 3 -13
-2 -13 -11 0 -27 31 -16 55 21 21 32 25 34 36 19 11 -15 13 -14 26 9 7 14 17
26 22 26 5 0 6 6 2 13 -5 8 -3 8 9 -2 18 -15 14 -31 -9 -31 -8 0 -14 -8 -14
-17 0 -9 -7 -25 -17 -35 -15 -17 -15 -19 2 -38 11 -12 13 -20 6 -20 -7 0 -10
-4 -7 -9 3 -5 -6 -17 -19 -27 -14 -10 -25 -23 -25 -27 0 -12 -27 -37 -39 -37
-6 0 -10 -4 -8 -9 1 -5 -10 -23 -25 -40 -16 -17 -28 -38 -28 -46 0 -8 -7 -15
-15 -15 -8 0 -15 -4 -15 -10 0 -25 30 -5 49 32 8 15 18 25 22 22 5 -3 14 6 20
20 7 14 16 23 22 19 5 -3 3 -9 -4 -15 -10 -6 -7 -7 10 -3 14 5 26 2 31 -5 5
-9 9 -9 14 -1 4 6 2 11 -4 11 -6 0 -8 5 -5 10 3 6 32 10 63 10 36 0 52 4 43 9
-8 5 -11 16 -6 30 8 25 21 27 33 6 4 -9 18 -17 31 -18 28 -2 53 -30 45 -51 -3
-9 -10 -16 -15 -16 -5 0 -9 -10 -9 -22 0 -21 0 -21 15 -2 13 17 14 18 15 1 0
-10 -7 -20 -15 -23 -8 -4 -15 -12 -15 -20 0 -17 -17 -18 -23 -1 -3 6 -5 0 -4
-15 1 -15 4 -25 8 -22 4 2 11 -1 14 -7 4 -5 12 -8 19 -6 6 3 12 -3 12 -12 0
-10 -6 -18 -13 -18 -7 0 -13 7 -13 15 0 13 -3 12 -19 -2 -22 -20 -22 -36 -1
-62 8 -9 14 -25 12 -34 -1 -9 4 -22 12 -29 12 -10 14 -9 9 8 -4 15 -1 21 11
21 26 0 18 -28 -14 -52 -31 -22 -39 -38 -19 -38 16 0 43 -30 34 -38 -4 -4 -10
-1 -12 6 -8 21 -25 13 -18 -8 4 -11 2 -20 -4 -20 -6 0 -11 -5 -11 -11 0 -6 7
-9 15 -5 10 4 15 -1 15 -14 0 -11 -7 -20 -15 -20 -17 0 -38 -43 -24 -48 14 -6
11 -22 -3 -19 -9 1 -12 -9 -11 -31 1 -27 -1 -31 -13 -21 -19 16 -18 -5 1 -25
13 -13 13 -17 2 -28 -11 -10 -12 -17 -3 -30 8 -13 8 -23 -1 -36 -9 -15 -7 -21
8 -30 25 -16 24 -29 -2 -37 -14 -5 -19 -13 -16 -25 3 -12 -4 -22 -22 -30 -16
-8 -21 -14 -13 -17 7 -3 20 1 29 9 15 11 16 11 10 -5 -4 -10 -7 -20 -7 -23 0
-2 -8 0 -17 3 -13 5 -15 2 -10 -11 4 -10 1 -24 -9 -33 -13 -14 -17 -14 -25 -2
-13 20 -11 2 2 -23 8 -15 13 -17 19 -9 5 9 9 9 13 -3 4 -10 1 -16 -8 -16 -8 0
-15 -4 -15 -10 0 -5 -7 -10 -15 -10 -18 0 -20 -17 -4 -22 18 -6 1 -45 -22 -51
-11 -3 -19 -9 -18 -14 1 -4 1 -21 0 -38 -2 -28 -3 -29 -11 -7 -13 32 -32 29
-20 -4 14 -35 12 -44 -5 -37 -10 3 -15 1 -13 -7 2 -8 -8 -19 -20 -26 -18 -8
-20 -14 -11 -20 7 -4 14 -3 17 4 2 7 11 12 19 12 12 0 13 -3 3 -15 -6 -8 -8
-20 -4 -26 5 -9 2 -10 -9 -6 -11 4 -17 1 -17 -8 0 -7 -7 -20 -15 -28 -13 -13
-13 -16 0 -21 21 -8 19 -29 -5 -44 -11 -7 -20 -21 -20 -32 0 -12 -7 -23 -15
-26 -18 -7 -20 -40 -2 -47 10 -4 10 -6 0 -6 -17 -1 -17 -41 -1 -41 7 0 2 -7
-10 -16 -12 -8 -22 -19 -22 -25 0 -15 1423 -12 1439 3 11 10 14 10 18 1 4 -10
80 -13 334 -13 329 0 329 0 329 261 0 238 -2 263 -17 275 -10 7 -28 14 -40 14
-28 0 -53 10 -53 21 0 4 7 5 17 2 10 -4 14 -2 10 4 -11 17 -56 24 -77 13 -14
-7 -20 -7 -20 0 0 5 -4 10 -10 10 -5 0 -10 -7 -10 -15 0 -8 -4 -15 -10 -15 -5
0 -10 8 -10 18 0 13 -2 14 -9 3 -7 -11 -10 -11 -17 0 -4 7 -3 14 4 17 19 6 14
22 -7 22 -11 0 -26 -9 -34 -20 -21 -30 -63 -42 -79 -23 -11 15 -10 16 10 10
23 -5 23 -5 6 14 -10 11 -12 19 -6 19 7 0 12 5 12 11 0 8 -5 8 -15 -1 -12 -10
-18 -10 -31 1 -15 12 -16 11 -9 -11 4 -14 10 -31 13 -39 3 -9 1 -12 -6 -7 -7
4 -12 14 -12 22 0 18 -24 44 -41 44 -8 0 -8 -4 1 -15 19 -23 5 -29 -24 -10
-26 17 -26 17 -26 -9 0 -20 -4 -25 -20 -23 -11 2 -23 6 -26 10 -4 4 -15 0 -25
-9 -9 -8 -37 -16 -63 -17 -25 -1 -46 -5 -46 -9 0 -4 -7 -8 -15 -8 -8 0 -15 5
-15 10 0 6 -5 10 -11 10 -6 0 -9 -6 -6 -14 3 -8 0 -17 -8 -20 -7 -2 -16 2 -19
10 -8 22 -7 26 4 19 5 -3 7 0 4 8 -3 8 2 31 10 51 15 36 10 46 -11 25 -6 -6
-9 -18 -6 -25 3 -8 1 -14 -4 -14 -11 0 -34 60 -27 72 3 5 19 8 35 6 16 -1 29
1 29 5 1 40 -1 46 -15 41 -8 -4 -13 -10 -10 -14 3 -5 -10 -8 -30 -7 -37 2 -46
13 -17 20 16 4 16 5 0 6 -27 2 -24 50 4 60 22 8 22 8 0 20 -19 10 -21 9 -16
-6 5 -17 5 -17 -9 0 -8 9 -24 17 -36 17 -16 0 -21 5 -19 17 4 19 -58 83 -79
83 -7 0 -14 7 -14 15 -1 8 -2 20 -3 27 0 6 -21 22 -46 35 -36 19 -45 29 -47
52 -1 17 -10 39 -20 51 -47 56 -53 63 -53 55 0 -4 -9 0 -20 10 -11 10 -20 26
-20 37 0 10 -4 18 -8 18 -4 0 -8 10 -9 22 -2 23 -26 60 -88 134 -43 51 -67
107 -58 132 4 10 2 13 -5 8 -8 -5 -12 3 -12 23 0 17 -5 31 -11 31 -12 0 -39
25 -39 36 0 4 -11 30 -25 58 -34 69 -36 86 -19 136 8 23 12 45 9 48 -2 3 -8
-9 -11 -27 -9 -46 -19 -46 -51 -2 -24 32 -32 37 -47 29 -27 -15 -36 -50 -17
-65 10 -8 12 -12 4 -13 -7 0 -13 -7 -13 -15 0 -9 6 -12 15 -9 8 4 15 1 15 -6
0 -6 4 -9 8 -6 4 2 8 -4 8 -15 0 -12 -4 -15 -10 -9 -13 13 -29 13 -21 1 3 -5
1 -12 -4 -15 -12 -8 -22 19 -27 68 -2 22 -8 44 -14 50 -15 15 -12 26 5 20 18
-7 42 15 42 38 0 9 -3 16 -6 15 -12 -3 -51 24 -51 35 0 7 5 6 15 -2 9 -7 18
-10 22 -6 4 3 -3 13 -14 21 -13 9 -19 22 -16 34 7 28 -16 36 -26 9 -9 -21 -10
-21 -10 9 -1 26 -4 31 -18 26 -17 -5 -17 -5 -1 12 16 17 15 19 -3 34 -20 16
-55 131 -40 131 3 0 23 -11 43 -25 20 -14 41 -25 46 -25 15 0 112 -81 112 -93
0 -7 9 -18 19 -24 24 -15 58 -102 44 -111 -5 -4 -6 -18 -2 -32 4 -16 7 -19 8
-7 1 9 4 17 9 17 24 -1 55 -50 46 -74 -4 -12 -2 -15 9 -11 18 8 27 -14 22 -54
-2 -17 0 -31 5 -31 6 0 10 7 10 15 0 24 17 18 40 -15 12 -16 25 -30 29 -30 4
0 7 50 6 110 0 61 4 110 9 110 5 0 5 19 1 43 -4 23 -8 50 -8 60 -1 9 -8 17
-15 17 -10 0 -13 8 -10 25 3 13 0 26 -6 29 -7 3 -7 5 2 5 6 1 12 8 12 17 0 9
-5 12 -12 8 -8 -5 -9 -2 -5 9 3 9 2 19 -3 22 -5 3 -11 -3 -13 -12 -3 -11 -5
-8 -6 10 0 15 -1 30 0 33 0 4 -3 10 -8 13 -14 10 -55 71 -47 71 3 0 1 7 -6 15
-7 9 -10 18 -7 21 3 3 -2 13 -11 23 -9 9 -28 31 -41 49 -13 18 -26 30 -29 28
-2 -3 -22 15 -44 39 -23 25 -49 47 -59 50 -11 4 -19 12 -19 20 0 8 -9 17 -20
20 -11 4 -18 10 -15 15 3 4 -2 13 -9 19 -11 10 -15 8 -19 -6 -4 -14 -5 -13 -6
5 0 12 -8 25 -16 28 -8 4 -15 12 -15 19 0 7 -7 15 -15 19 -8 3 -15 10 -15 15
0 14 -51 67 -61 63 -5 -1 -9 3 -9 8 0 6 -15 24 -32 41 -39 35 -38 34 -91 93
-23 25 -55 63 -72 85 -58 78 -73 94 -119 120 -25 15 -43 30 -39 34 3 4 2 7 -4
7 -17 0 -97 69 -113 99 -36 64 -38 87 -19 148 11 32 17 64 14 71 -3 7 0 23 6
34 15 28 -3 90 -42 143 -48 66 -209 224 -267 262 -58 39 -126 119 -118 140 3
7 2 13 -2 13 -4 0 -5 25 -4 55 2 30 0 55 -5 55 -4 0 -31 20 -58 45 -28 25 -81
70 -120 99 -82 62 -228 217 -243 257 -2 5 -10 9 -19 9 -8 0 -13 5 -11 12 2 6
-7 23 -20 37 -44 47 -61 96 -57 163 2 34 -4 85 -12 117 -9 31 -15 70 -14 87 1
17 -3 42 -8 55 -9 23 -10 22 -12 -11z m-454 -1209 c3 -5 1 -12 -5 -16 -5 -3
-10 1 -10 9 0 18 6 21 15 7z m10 -151 c-3 -5 -10 -10 -16 -10 -5 0 -9 5 -9 10
0 6 7 10 16 10 8 0 12 -4 9 -10z m-25 -186 c0 -8 -5 -12 -10 -9 -6 4 -8 11 -5
16 9 14 15 11 15 -7z m50 -75 c0 -5 -4 -9 -10 -9 -5 0 -10 7 -10 16 0 8 5 12
10 9 6 -3 10 -10 10 -16z m280 -429 c0 -5 -4 -10 -10 -10 -5 0 -10 5 -10 10 0
6 5 10 10 10 6 0 10 -4 10 -10z m20 -320 c0 -5 -4 -10 -10 -10 -5 0 -10 5 -10
10 0 6 5 10 10 10 6 0 10 -4 10 -10z m17 -12 c-3 -8 -6 -5 -6 6 -1 11 2 17 5
13 3 -3 4 -12 1 -19z m27 -13 c3 -8 1 -15 -4 -15 -6 0 -10 7 -10 15 0 8 2 15
4 15 2 0 6 -7 10 -15z m1376 -270 c1 -93 -3 -150 -10 -150 -1 0 -3 -37 -5 -82
-2 -45 -9 -91 -15 -102 -5 -11 -10 -29 -10 -40 0 -12 -4 -29 -9 -39 -5 -9 -14
-29 -20 -44 -13 -34 -41 -37 -41 -5 1 12 7 33 15 47 17 30 19 44 5 35 -13 -8
-13 34 0 145 5 47 11 134 15 194 3 59 8 113 11 118 3 5 6 34 6 64 1 39 5 57
17 64 24 13 41 -71 41 -205z m230 -129 c0 -3 -4 -8 -10 -11 -5 -3 -10 -1 -10
4 0 6 5 11 10 11 6 0 10 -2 10 -4z m-170 -96 c0 -4 -11 -10 -25 -12 -21 -4
-23 -3 -14 13 9 17 39 16 39 -1z m-19 -39 c-7 -5 -10 -14 -6 -20 4 -7 2 -18
-4 -25 -8 -9 -7 -18 4 -32 8 -10 15 -23 15 -28 0 -6 -6 -2 -13 8 -12 16 -14
16 -25 -10 -9 -19 -10 -30 -2 -38 13 -13 13 -29 0 -21 -7 4 -9 -2 -5 -17 3
-15 -3 -37 -19 -63 -14 -22 -26 -33 -26 -25 0 9 8 26 17 40 16 22 16 23 -1 17
-13 -5 -16 -3 -12 11 2 9 8 33 11 52 16 80 48 160 64 160 13 0 13 -2 2 -9z
m223 -66 c-4 -8 -10 -12 -15 -9 -11 6 -2 24 11 24 5 0 7 -7 4 -15z m-194 -75
c0 -5 -5 -10 -11 -10 -5 0 -7 5 -4 10 3 6 8 10 11 10 2 0 4 -4 4 -10z m-1244
-19 c0 -11 -8 -22 -17 -24 -13 -4 -16 0 -11 12 4 12 17 26 27 31 1 0 1 -9 1
-19z m1460 -46 c4 -14 4 -29 0 -32 -3 -4 -6 3 -6 15 0 12 -4 22 -10 22 -5 0
-10 5 -10 10 0 21 20 9 26 -15z m64 15 c0 -5 -2 -10 -4 -10 -3 0 -8 5 -11 10
-3 6 -1 10 4 10 6 0 11 -4 11 -10z m-1333 -32 c-3 -8 -6 -5 -6 6 -1 11 2 17 5
13 3 -3 4 -12 1 -19z m943 -18 c0 -5 -4 -10 -10 -10 -5 0 -10 5 -10 10 0 6 5
10 10 10 6 0 10 -4 10 -10z m41 -23 c-10 -9 -11 -8 -5 6 3 10 9 15 12 12 3 -3
0 -11 -7 -18z m-101 -7 c0 -11 -7 -23 -16 -27 -8 -3 -13 -12 -10 -19 3 -8 2
-14 -2 -14 -4 0 -12 -15 -18 -32 -5 -19 -15 -32 -22 -30 -8 1 -12 -5 -10 -16
2 -11 -1 -18 -5 -18 -5 1 -15 -10 -22 -24 -17 -29 -19 -22 -5 15 5 14 12 38
15 53 2 14 14 34 26 43 17 12 18 18 8 21 -10 3 -6 13 16 36 35 37 45 40 45 12z
m380 0 c0 -5 -5 -10 -11 -10 -5 0 -7 5 -4 10 3 6 8 10 11 10 2 0 4 -4 4 -10z
m-820 -98 c-2 -86 -2 -86 -14 -95 -8 -6 -8 -10 1 -13 13 -6 6 -34 -8 -34 -4 0
-6 6 -3 14 3 7 -1 16 -9 19 -8 3 -18 24 -22 46 -4 23 -14 45 -23 50 -16 9 -16
10 0 16 10 4 16 10 14 14 -3 4 -1 13 5 21 7 13 9 13 9 0 1 -8 8 1 16 20 14 31
16 33 26 17 5 -11 9 -44 8 -75z m484 73 c-7 -17 -34 -21 -34 -4 0 5 4 8 9 4 5
-3 12 -1 16 5 9 15 15 12 9 -5z m124 -50 c-3 -3 -9 2 -12 12 -6 14 -5 15 5 6
7 -7 10 -15 7 -18z m-30 -20 c-1 -19 -5 -32 -9 -29 -5 3 -7 15 -5 27 3 12 5
25 5 30 1 4 3 7 6 7 2 0 4 -16 3 -35z m62 -25 c0 -5 -2 -10 -4 -10 -3 0 -8 5
-11 10 -3 6 -1 10 4 10 6 0 11 -4 11 -10z m60 6 c0 -3 -4 -8 -10 -11 -5 -3
-10 -1 -10 4 0 6 5 11 10 11 6 0 10 -2 10 -4z m-1360 -20 c0 -3 -4 -8 -10 -11
-5 -3 -10 -1 -10 4 0 6 5 11 10 11 6 0 10 -2 10 -4z m1278 -8 c19 -19 14 -29
-8 -16 -20 13 -27 28 -12 28 4 0 13 -5 20 -12z m419 -4 c-3 -3 -12 -4 -19 -1
-8 3 -5 6 6 6 11 1 17 -2 13 -5z m-1752 -14 c3 -5 2 -10 -4 -10 -5 0 -13 5
-16 10 -3 6 -2 10 4 10 5 0 13 -4 16 -10z m1415 0 c12 -7 10 -9 -8 -7 -12 0
-22 5 -22 9 0 11 12 10 30 -2z m367 -21 c-3 -11 1 -22 8 -27 18 -11 37 -76 29
-106 -6 -26 -6 -26 -25 -2 -10 13 -19 29 -19 36 0 6 -4 8 -10 5 -5 -3 -10 1
-10 11 0 13 -3 14 -15 4 -13 -11 -15 -8 -15 18 0 44 19 82 38 75 11 -5 13 -3
7 7 -6 9 -4 11 4 5 7 -4 11 -16 8 -26z m-476 -6 c-8 -15 -10 -15 -11 -2 0 17
10 32 18 25 2 -3 -1 -13 -7 -23z m-873 -5 c8 -8 15 -8 27 2 12 10 15 10 15 -4
0 -10 8 -25 17 -34 16 -16 15 -17 0 -20 -10 -2 -15 -8 -12 -13 4 -5 -1 -9 -9
-9 -10 0 -13 6 -10 15 5 11 2 13 -9 9 -21 -8 -61 30 -54 50 8 19 19 20 35 4z
m828 -15 c-10 -10 -19 5 -10 18 6 11 8 11 12 0 2 -7 1 -15 -2 -18z m65 0 c-12
-20 -14 -14 -5 12 4 9 9 14 11 11 3 -2 0 -13 -6 -23z m66 21 c-3 -3 -12 -4
-19 -1 -8 3 -5 6 6 6 11 1 17 -2 13 -5z m13 -24 c0 -5 -4 -10 -10 -10 -5 0
-10 5 -10 10 0 6 5 10 10 10 6 0 10 -4 10 -10z m50 -33 c-10 -9 -12 -8 -7 6 4
9 2 17 -4 17 -6 0 -7 5 -3 11 5 8 10 6 16 -6 7 -12 6 -21 -2 -28z m-423 11
c-3 -8 -6 -5 -6 6 -1 11 2 17 5 13 3 -3 4 -12 1 -19z m-777 -8 c0 -5 -4 -10
-10 -10 -5 0 -10 5 -10 10 0 6 5 10 10 10 6 0 10 -4 10 -10z m1065 0 c-3 -5
-11 -10 -16 -10 -6 0 -7 5 -4 10 3 6 11 10 16 10 6 0 7 -4 4 -10z m-770 -37
c-7 -28 -7 -28 -16 -4 -7 17 -6 27 3 32 18 11 21 4 13 -28z m-480 17 c3 -5 1
-10 -4 -10 -6 0 -11 5 -11 10 0 6 2 10 4 10 3 0 8 -4 11 -10z m645 -20 c0 -11
-4 -20 -9 -20 -5 0 -7 9 -4 20 3 11 7 20 9 20 2 0 4 -9 4 -20z m1080 -68 c0
-2 -7 -10 -15 -18 -8 -9 -15 -12 -15 -8 0 4 -9 -3 -20 -16 -11 -13 -22 -21
-25 -18 -3 3 1 11 10 18 20 17 19 30 -2 30 -14 0 -15 2 -4 9 12 8 71 10 71 3z
m-365 -132 c3 -5 2 -10 -4 -10 -5 0 -13 5 -16 10 -3 6 -2 10 4 10 5 0 13 -4
16 -10z m40 -130 c-3 -5 -10 -10 -16 -10 -5 0 -9 5 -9 10 0 6 7 10 16 10 8 0
12 -4 9 -10z m-775 -234 c0 -3 -4 -8 -10 -11 -5 -3 -10 -1 -10 4 0 6 5 11 10
11 6 0 10 -2 10 -4z m2250 -366 c0 -5 -4 -10 -10 -10 -5 0 -10 5 -10 10 0 6 5
10 10 10 6 0 10 -4 10 -10z m140 -4 c0 -3 -4 -8 -10 -11 -5 -3 -10 -1 -10 4 0
6 5 11 10 11 6 0 10 -2 10 -4z m-1810 -146 c0 -5 -2 -10 -4 -10 -3 0 -8 5 -11
10 -3 6 -1 10 4 10 6 0 11 -4 11 -10z m-77 -190 c-7 -28 -13 -25 -13 6 0 14 4
23 9 20 5 -3 7 -15 4 -26z m27 -20 c0 -5 -2 -10 -4 -10 -3 0 -8 5 -11 10 -3 6
-1 10 4 10 6 0 11 -4 11 -10z m-45 -120 c3 -5 1 -10 -4 -10 -6 0 -11 5 -11 10
0 6 2 10 4 10 3 0 8 -4 11 -10z"/>
<path d="M597 4940 c-3 -11 -1 -20 4 -20 5 0 9 9 9 20 0 11 -2 20 -4 20 -2 0
-6 -9 -9 -20z"/>
<path d="M602 4844 c4 -23 27 -31 24 -8 -2 10 -8 20 -15 22 -8 3 -12 -3 -9
-14z"/>
<path d="M580 4826 c0 -9 5 -16 10 -16 6 0 10 4 10 9 0 6 -4 13 -10 16 -5 3
-10 -1 -10 -9z"/>
<path d="M599 4808 c-1 -2 -3 -22 -3 -45 -2 -31 2 -43 12 -43 9 0 11 7 7 20
-5 16 -3 19 12 14 10 -3 14 -2 8 3 -5 4 -10 14 -11 21 -2 27 -4 32 -14 32 -5
0 -11 -1 -11 -2z"/>
<path d="M2806 4793 c-4 -5 -11 -8 -14 -8 -4 -1 -21 -8 -37 -17 -32 -17 -145
-53 -157 -50 -4 1 -19 -3 -33 -8 -18 -7 -25 -6 -25 3 0 6 -5 4 -11 -5 -12 -21
-49 -24 -67 -6 -9 9 -12 9 -12 0 0 -7 -14 -12 -32 -12 -35 0 -66 -14 -52 -22
12 -7 98 -3 110 4 5 4 28 5 52 5 23 -1 42 1 42 5 0 9 79 31 106 30 20 -1 144
70 144 83 0 7 -5 6 -14 -2z"/>
<path d="M470 4765 c0 -5 5 -17 10 -25 5 -8 10 -10 10 -5 0 6 -5 17 -10 25 -5
8 -10 11 -10 5z"/>
<path d="M590 4699 c0 -6 24 -19 36 -19 2 0 4 6 4 14 0 9 -9 14 -20 13 -11 -1
-20 -4 -20 -8z"/>
<path d="M2275 4663 c-11 -3 -29 -12 -40 -20 -19 -14 -18 -14 13 -9 80 15 92
18 92 27 0 9 -31 10 -65 2z"/>
<path d="M2158 4623 c7 -3 16 -2 19 1 4 3 -2 6 -13 5 -11 0 -14 -3 -6 -6z"/>
<path d="M1995 4610 c-3 -5 -1 -10 4 -10 6 0 11 5 11 10 0 6 -2 10 -4 10 -3 0
-8 -4 -11 -10z"/>
<path d="M2038 4603 c6 -2 18 -2 25 0 6 3 1 5 -13 5 -14 0 -19 -2 -12 -5z"/>
<path d="M460 4514 c0 -14 4 -23 9 -20 5 3 7 15 4 26 -7 28 -13 25 -13 -6z"/>
<path d="M490 4509 c0 -5 5 -7 10 -4 6 3 10 8 10 11 0 2 -4 4 -10 4 -5 0 -10
-5 -10 -11z"/>
<path d="M377 4460 c-3 -11 -1 -20 4 -20 5 0 9 9 9 20 0 11 -2 20 -4 20 -2 0
-6 -9 -9 -20z"/>
<path d="M452 4460 c0 -14 2 -19 5 -12 2 6 2 18 0 25 -3 6 -5 1 -5 -13z"/>
<path d="M500 4410 c0 -5 5 -10 11 -10 5 0 7 5 4 10 -3 6 -8 10 -11 10 -2 0
-4 -4 -4 -10z"/>
<path d="M465 4378 c-10 -32 -10 -61 -1 -76 4 -6 3 -12 -2 -12 -5 0 -15 -19
-22 -42 -7 -24 -21 -55 -31 -69 -16 -23 -17 -28 -3 -47 10 -15 11 -23 3 -28
-8 -5 -9 -3 -4 6 6 9 4 11 -4 5 -8 -4 -11 -20 -9 -36 3 -16 1 -29 -4 -29 -4 0
-7 -3 -6 -7 1 -5 -4 -19 -11 -31 -7 -13 -14 -37 -17 -54 -2 -17 -10 -35 -17
-42 -21 -16 -28 -44 -14 -53 17 -11 67 -12 67 -2 0 20 2 25 17 42 9 9 12 17 8
17 -4 0 0 9 10 20 11 12 14 20 6 20 -7 0 -11 10 -9 23 2 13 -2 21 -9 20 -7 -2
-10 4 -6 12 3 10 12 13 24 10 13 -5 19 -1 19 10 0 9 -4 13 -10 10 -5 -3 -10 1
-10 10 0 11 5 15 14 12 17 -7 31 22 17 36 -5 5 -7 16 -4 24 4 11 8 11 13 3 4
-7 12 6 18 29 11 46 -1 56 -16 14 -6 -16 -11 -22 -11 -15 -2 22 19 52 36 52
11 0 14 7 11 25 -3 14 -1 25 4 25 6 0 8 6 5 14 -3 7 -1 18 5 24 8 8 3 13 -16
18 -28 7 -35 28 -11 38 8 3 15 11 14 18 0 10 -2 10 -6 0 -2 -6 -9 -10 -13 -7
-5 3 -7 12 -3 20 3 8 1 15 -5 15 -5 0 -13 -10 -17 -22z m28 -84 c-7 -20 -18
-17 -20 5 -1 13 3 18 12 15 8 -3 11 -12 8 -20z m-3 -49 c0 -14 -4 -25 -10 -25
-5 0 -10 11 -10 25 0 14 5 25 10 25 6 0 10 -11 10 -25z"/>
<path d="M340 4276 c0 -8 -3 -23 -6 -33 -6 -16 -5 -16 9 2 19 23 22 45 7 45
-5 0 -10 -6 -10 -14z"/>
<path d="M291 4201 c-8 -5 -11 -16 -6 -30 4 -14 3 -21 -5 -19 -7 2 -15 -3 -17
-11 -4 -10 1 -11 18 -6 31 9 36 15 44 48 8 28 -6 36 -34 18z"/>
<path d="M372 4175 c-17 -37 -14 -45 4 -12 9 16 14 31 11 33 -2 2 -9 -7 -15
-21z"/>
<path d="M250 4094 c0 -8 5 -12 10 -9 6 3 10 10 10 16 0 5 -4 9 -10 9 -5 0
-10 -7 -10 -16z"/>
<path d="M304 4086 c-6 -7 -15 -23 -19 -36 -4 -13 -14 -30 -21 -38 -8 -7 -14
-19 -14 -27 0 -7 -6 -15 -14 -18 -9 -4 -12 -14 -9 -28 4 -15 3 -20 -6 -15 -6
4 -9 12 -6 17 4 5 1 9 -4 9 -6 0 -11 -4 -11 -10 0 -5 -5 -10 -11 -10 -6 0 -9
7 -6 14 4 10 1 13 -9 9 -13 -5 -13 -8 1 -23 8 -9 12 -20 9 -23 -4 -4 -1 -14 6
-22 11 -13 11 -18 0 -28 -10 -10 -12 -9 -7 5 3 9 0 19 -8 22 -10 4 -11 -2 -4
-27 12 -41 11 -43 -3 -29 -14 14 -32 16 -24 3 4 -5 3 -16 0 -25 -5 -13 -10
-14 -20 -5 -19 15 -31 -35 -14 -56 7 -9 10 -19 6 -22 -4 -4 -12 -1 -17 7 -9
13 -10 13 -7 0 3 -8 14 -19 26 -25 12 -5 22 -13 22 -17 0 -12 -14 -9 -39 8
-23 16 -23 16 -16 -7 7 -22 7 -23 -10 -9 -16 14 -17 13 -11 -8 5 -15 3 -22 -6
-22 -10 0 -10 -2 1 -9 11 -7 9 -11 -8 -20 -12 -7 -21 -21 -21 -36 0 -13 -6
-26 -12 -28 -10 -4 -10 -6 0 -6 7 -1 16 9 21 21 5 13 10 17 14 11 9 -14 -19
-43 -39 -43 -8 0 -14 -4 -14 -10 0 -13 37 -13 45 1 4 6 13 8 19 6 16 -6 25 0
60 43 26 32 66 49 66 29 0 -14 -20 -21 -20 -7 -1 8 -6 5 -16 -7 -8 -11 -12
-25 -10 -32 3 -7 -2 -13 -10 -13 -11 0 -13 -6 -9 -20 4 -12 2 -20 -5 -20 -6 0
-8 5 -4 12 5 8 2 9 -10 5 -10 -4 -19 -7 -22 -7 -2 0 -1 -7 2 -15 4 -8 1 -15
-5 -15 -6 0 -11 -7 -11 -15 0 -8 -7 -15 -16 -15 -8 0 -13 3 -10 8 2 4 -7 12
-20 19 -21 10 -24 9 -24 -10 0 -11 3 -18 6 -14 3 3 12 0 19 -6 11 -10 11 -16
-2 -35 -22 -36 -7 -39 28 -6 20 19 32 25 37 17 8 -12 54 18 51 34 -4 23 4 34
10 13 7 -24 7 -24 30 13 12 20 20 41 17 46 -3 5 1 12 10 15 12 5 15 2 9 -11
-17 -45 -18 -73 -2 -73 9 0 21 8 26 18 14 23 14 7 0 -21 -9 -19 -7 -18 10 3
11 14 21 19 21 13 0 -7 5 -13 11 -13 7 0 9 10 4 28 -12 43 -15 103 -7 116 3 6
7 20 7 31 1 11 6 19 11 18 6 -1 9 8 8 20 -1 12 -3 25 -3 30 -2 12 -21 8 -25
-5 -20 -70 -31 -98 -39 -98 -5 0 -6 8 -2 18 4 9 8 28 10 42 1 14 11 43 23 66
23 45 42 180 22 154 -10 -13 -11 -12 -6 3 3 10 6 26 7 35 0 14 2 13 8 -3 7
-17 8 -17 13 8 3 15 1 27 -4 27 -5 0 -6 6 -1 13 10 15 11 57 2 57 -4 0 -3 14
2 32 10 36 9 41 -7 24z m-33 -157 c-6 -16 -10 -18 -10 -7 -1 22 12 55 16 42 2
-6 -1 -22 -6 -35z m-21 -93 c0 -3 -4 -8 -10 -11 -5 -3 -10 -1 -10 4 0 6 5 11
10 11 6 0 10 -2 10 -4z m22 -51 c-6 -14 -19 -25 -27 -25 -11 0 -15 -6 -11 -18
7 -22 -28 -60 -39 -43 -3 6 1 11 9 11 8 0 18 5 22 11 4 8 0 9 -15 4 -27 -8
-27 -2 0 29 12 14 28 22 35 19 10 -4 14 4 14 28 0 25 3 30 12 21 9 -9 9 -18 0
-37z m-122 -59 c0 -3 -4 -8 -10 -11 -5 -3 -10 -1 -10 4 0 6 5 11 10 11 6 0 10
-2 10 -4z m23 -21 c-3 -9 -8 -14 -10 -11 -3 3 -2 9 2 15 9 16 15 13 8 -4z m23
-47 c-3 -25 -32 -36 -49 -19 -7 7 -4 9 11 6 16 -3 19 0 15 12 -4 11 -2 14 5 9
7 -4 12 -2 12 3 0 6 2 11 5 11 3 0 3 -10 1 -22z m-76 2 c0 -5 -4 -10 -10 -10
-5 0 -10 5 -10 10 0 6 5 10 10 10 6 0 10 -4 10 -10z m4 -41 c-6 -11 -24 -2
-24 11 0 5 7 7 15 4 8 -4 12 -10 9 -15z m-4 -28 c0 -11 -42 -43 -48 -37 -5 5
30 44 41 45 4 1 7 -3 7 -8z m-10 -121 c-6 -11 -16 -20 -22 -20 -6 0 -3 9 7 20
10 11 20 20 22 20 2 0 -1 -9 -7 -20z"/>
<path d="M557 4056 c-4 -10 0 -12 14 -9 22 6 26 23 5 23 -8 0 -16 -6 -19 -14z"/>
<path d="M2330 4011 c0 -4 15 -11 33 -17 17 -5 31 -15 29 -22 -1 -9 6 -7 24 4
22 15 23 19 10 26 -9 5 -20 7 -25 4 -4 -3 -22 -1 -40 4 -17 5 -31 5 -31 1z"/>
<path d="M537 3996 c-4 -10 -5 -21 -2 -24 9 -9 17 6 13 25 -3 17 -4 17 -11 -1z"/>
<path d="M2557 3953 c-4 -3 -20 -6 -37 -5 -36 1 -38 -8 -7 -28 38 -25 57 -21
57 11 0 30 -2 34 -13 22z m-7 -33 c0 -5 -4 -10 -10 -10 -5 0 -10 5 -10 10 0 6
5 10 10 10 6 0 10 -4 10 -10z"/>
<path d="M495 3865 c-3 -8 -7 -21 -9 -29 -6 -18 29 -10 46 12 11 13 10 14 -10
8 -23 -8 -32 8 -9 17 9 4 9 6 -1 6 -7 1 -15 -6 -17 -14z"/>
<path d="M350 3840 c0 -5 5 -10 10 -10 6 0 10 5 10 10 0 6 -4 10 -10 10 -5 0
-10 -4 -10 -10z"/>
<path d="M340 3804 c15 -17 30 -18 30 -1 0 7 -9 13 -21 14 -17 2 -18 -1 -9
-13z"/>
<path d="M310 3745 c-9 -11 -10 -19 -3 -26 7 -7 12 -2 15 15 6 30 5 31 -12 11z"/>
<path d="M435 3570 c4 -14 2 -20 -7 -18 -7 2 -12 -3 -10 -11 2 -7 -7 -20 -18
-28 -12 -8 -19 -21 -16 -29 3 -8 1 -14 -4 -14 -6 0 -10 -8 -10 -17 0 -15 4
-13 20 7 11 14 20 30 20 36 0 7 10 14 23 18 16 4 19 8 9 15 -11 7 -11 9 1 14
17 6 12 47 -5 47 -5 0 -6 -9 -3 -20z"/>
<path d="M1775 3560 c-3 -5 -2 -10 4 -10 5 0 13 5 16 10 3 6 2 10 -4 10 -5 0
-13 -4 -16 -10z"/>
<path d="M303 3533 c-16 -6 -17 -33 -3 -33 11 0 26 28 19 34 -2 2 -10 1 -16
-1z"/>
<path d="M1715 3530 c3 -5 8 -10 11 -10 2 0 4 5 4 10 0 6 -5 10 -11 10 -5 0
-7 -4 -4 -10z"/>
<path d="M40 3505 c-7 -8 -8 -15 -2 -15 5 0 15 7 22 15 7 8 8 15 2 15 -5 0
-15 -7 -22 -15z"/>
<path d="M456 3483 c-6 -14 -5 -15 5 -6 7 7 10 15 7 18 -3 3 -9 -2 -12 -12z"/>
<path d="M1430 3449 c0 -5 5 -7 10 -4 6 3 10 8 10 11 0 2 -4 4 -10 4 -5 0 -10
-5 -10 -11z"/>
<path d="M0 3440 c0 -5 5 -10 10 -10 6 0 10 5 10 10 0 6 -4 10 -10 10 -5 0
-10 -4 -10 -10z"/>
<path d="M303 3354 c-13 -14 -23 -32 -23 -42 1 -14 2 -14 12 3 6 11 20 26 30
33 18 13 25 33 11 31 -5 -1 -18 -12 -30 -25z"/>
<path d="M2640 3350 c0 -5 7 -10 15 -10 8 0 15 5 15 10 0 6 -7 10 -15 10 -8 0
-15 -4 -15 -10z"/>
<path d="M1790 3339 c0 -8 12 -22 25 -32 32 -23 32 -9 0 22 -16 14 -25 18 -25
10z"/>
<path d="M2535 3320 c-3 -5 -1 -10 4 -10 6 0 11 5 11 10 0 6 -2 10 -4 10 -3 0
-8 -4 -11 -10z"/>
<path d="M233 3268 c-12 -18 -20 -34 -17 -37 6 -7 54 45 54 59 0 19 -15 10
-37 -22z"/>
<path d="M1850 3280 c0 -5 5 -10 10 -10 6 0 10 5 10 10 0 6 -4 10 -10 10 -5 0
-10 -4 -10 -10z"/>
<path d="M2600 3250 c0 -5 -10 -10 -22 -10 -12 0 -19 -3 -15 -6 9 -9 57 5 57
16 0 6 -4 10 -10 10 -5 0 -10 -4 -10 -10z"/>
<path d="M2730 3231 c-16 -31 -12 -35 10 -10 11 14 19 18 20 11 0 -7 5 -10 11
-6 8 4 7 9 -2 15 -21 13 -27 11 -39 -10z"/>
<path d="M1935 3210 c3 -5 8 -10 11 -10 2 0 4 5 4 10 0 6 -5 10 -11 10 -5 0
-7 -4 -4 -10z"/>
<path d="M2555 3180 c-3 -5 -1 -10 4 -10 6 0 11 5 11 10 0 6 -2 10 -4 10 -3 0
-8 -4 -11 -10z"/>
<path d="M126 3154 c-6 -15 -4 -15 11 -3 10 7 20 15 22 16 2 2 -3 3 -11 3 -9
0 -19 -7 -22 -16z"/>
<path d="M1240 3118 c0 -3 7 -21 15 -39 16 -34 16 -34 10 -4 -6 26 -25 60 -25
43z"/>
<path d="M1190 3100 c0 -6 7 -10 15 -10 8 0 15 2 15 4 0 2 -7 6 -15 10 -8 3
-15 1 -15 -4z"/>
<path d="M2710 3100 c0 -5 5 -10 10 -10 6 0 10 5 10 10 0 6 -4 10 -10 10 -5 0
-10 -4 -10 -10z"/>
<path d="M1190 3060 c0 -5 5 -10 11 -10 5 0 7 5 4 10 -3 6 -8 10 -11 10 -2 0
-4 -4 -4 -10z"/>
<path d="M1300 3040 c0 -5 5 -10 10 -10 6 0 10 5 10 10 0 6 -4 10 -10 10 -5 0
-10 -4 -10 -10z"/>
<path d="M1300 3010 c0 -5 5 -10 11 -10 5 0 7 5 4 10 -3 6 -8 10 -11 10 -2 0
-4 -4 -4 -10z"/>
<path d="M5 3000 c-3 -5 1 -10 9 -10 8 0 18 5 21 10 3 6 -1 10 -9 10 -8 0 -18
-4 -21 -10z"/>
<path d="M961 2984 c0 -11 3 -14 6 -6 3 7 2 16 -1 19 -3 4 -6 -2 -5 -13z"/>
<path d="M910 2960 c0 -5 5 -10 11 -10 5 0 7 5 4 10 -3 6 -8 10 -11 10 -2 0
-4 -4 -4 -10z"/>
<path d="M350 2925 c-7 -8 -30 -20 -51 -27 -22 -6 -38 -16 -36 -22 5 -16 27
-19 27 -4 0 7 19 20 42 28 23 8 43 21 46 28 5 17 -13 15 -28 -3z"/>
<path d="M198 2863 c7 -3 16 -2 19 1 4 3 -2 6 -13 5 -11 0 -14 -3 -6 -6z"/>
<path d="M2615 2840 c3 -5 8 -10 11 -10 2 0 4 5 4 10 0 6 -5 10 -11 10 -5 0
-7 -4 -4 -10z"/>
<path d="M525 2820 c3 -5 8 -10 11 -10 2 0 4 5 4 10 0 6 -5 10 -11 10 -5 0 -7
-4 -4 -10z"/>
<path d="M2945 2810 c-3 -5 -1 -10 4 -10 6 0 11 5 11 10 0 6 -2 10 -4 10 -3 0
-8 -4 -11 -10z"/>
<path d="M2516 2801 c-4 -5 -2 -12 3 -15 5 -4 12 -2 15 3 4 5 2 12 -3 15 -5 4
-12 2 -15 -3z"/>
<path d="M300 2780 c0 -5 4 -10 10 -10 5 0 7 -7 4 -15 -4 -8 -1 -15 5 -15 6 0
11 5 11 11 0 5 6 7 13 3 6 -4 3 2 -7 14 -20 23 -36 28 -36 12z"/>
<path d="M2557 2773 c-10 -9 -9 -25 2 -19 4 3 17 -1 27 -9 23 -17 34 -19 34
-5 0 6 -6 10 -14 10 -8 0 -16 7 -20 15 -6 16 -18 19 -29 8z"/>
<path d="M190 2754 c-12 -14 -6 -34 11 -34 5 0 9 6 9 14 0 8 8 16 18 18 14 3
13 5 -5 10 -13 3 -27 0 -33 -8z"/>
<path d="M486 2755 c-11 -8 -17 -18 -13 -21 4 -4 13 -1 22 6 10 8 15 9 15 1 0
-6 5 -11 11 -11 8 0 9 4 0 13 -6 8 -8 17 -4 20 12 13 -12 6 -31 -8z"/>
<path d="M547 2745 c3 -8 9 -12 14 -9 12 7 11 11 -5 17 -10 4 -13 1 -9 -8z"/>
<path d="M1279 2758 c-7 -25 -7 -48 0 -43 6 3 9 14 8 25 -1 17 -5 26 -8 18z"/>
<path d="M2634 2745 c-4 -8 -1 -22 6 -30 10 -12 14 -12 26 0 16 16 18 35 4 35
-5 0 -10 -7 -10 -16 0 -8 -4 -13 -10 -9 -5 3 -7 12 -3 20 3 8 2 15 -1 15 -4 0
-9 -7 -12 -15z"/>
<path d="M861 2734 c0 -11 3 -14 6 -6 3 7 2 16 -1 19 -3 4 -6 -2 -5 -13z"/>
<path d="M1220 2746 c0 -2 6 -9 14 -15 10 -9 15 -8 20 4 4 10 -1 15 -14 15
-11 0 -20 -2 -20 -4z"/>
<path d="M2935 2730 c-3 -5 -1 -10 4 -10 6 0 11 5 11 10 0 6 -2 10 -4 10 -3 0
-8 -4 -11 -10z"/>
<path d="M130 2716 c0 -6 9 -12 20 -12 11 0 20 3 20 7 0 4 -9 9 -20 12 -12 3
-20 0 -20 -7z"/>
<path d="M340 2709 c0 -5 5 -7 10 -4 6 3 10 8 10 11 0 2 -4 4 -10 4 -5 0 -10
-5 -10 -11z"/>
<path d="M487 2713 c-4 -3 -7 -13 -7 -22 0 -9 -15 -26 -32 -38 -29 -21 -32
-21 -46 -5 -13 16 -13 16 -8 0 7 -22 2 -23 -19 -2 -25 25 -29 9 -5 -19 22 -25
22 -25 71 10 27 19 49 41 49 49 0 8 5 14 10 14 6 0 10 5 10 10 0 11 -13 13
-23 3z"/>
<path d="M540 2700 c-13 -11 -21 -23 -18 -26 9 -8 48 19 48 33 0 17 -3 16 -30
-7z"/>
<path d="M1260 2685 c0 -17 9 -19 28 -6 11 7 10 10 -3 15 -23 9 -25 8 -25 -9z"/>
<path d="M425 2670 c-3 -6 1 -7 9 -4 18 7 21 14 7 14 -6 0 -13 -4 -16 -10z"/>
<path d="M290 2624 c0 -3 6 -11 13 -18 10 -11 15 -10 27 2 13 14 12 15 -3 9
-9 -3 -17 -2 -17 3 0 6 -4 10 -10 10 -5 0 -10 -3 -10 -6z"/>
<path d="M1164 2604 c3 -9 6 -18 6 -20 0 -3 4 -3 9 1 15 8 25 -15 12 -28 -6
-6 -11 -17 -11 -25 0 -12 3 -12 15 -2 9 7 13 15 10 18 -3 3 0 11 6 19 9 9 8
13 0 13 -6 0 -11 6 -11 14 0 8 -7 17 -16 20 -24 9 -27 8 -20 -10z"/>
<path d="M1248 2603 c7 -3 16 -2 19 1 4 3 -2 6 -13 5 -11 0 -14 -3 -6 -6z"/>
<path d="M1190 2500 c0 -5 5 -10 11 -10 5 0 7 5 4 10 -3 6 -8 10 -11 10 -2 0
-4 -4 -4 -10z"/>
<path d="M384 2114 c3 -26 11 -53 17 -61 9 -10 9 -20 1 -38 -7 -14 -8 -25 -3
-25 5 0 11 -11 13 -25 3 -14 2 -25 -2 -25 -9 0 -6 -32 5 -49 4 -8 4 -12 -1 -9
-5 3 -14 0 -21 -7 -10 -11 -10 -15 0 -18 7 -3 3 -6 -8 -6 -11 -1 -25 -9 -32
-20 -14 -23 -54 -36 -46 -15 3 8 0 14 -6 14 -17 0 -13 -28 5 -38 14 -8 13 -10
-5 -15 -17 -4 -21 -1 -21 19 0 15 -6 24 -15 24 -8 0 -15 -5 -15 -11 0 -5 4 -8
9 -5 5 4 7 -3 4 -13 -3 -12 -11 -17 -19 -14 -8 3 -14 1 -14 -5 0 -12 29 -24
41 -16 5 3 9 -10 9 -29 0 -22 -6 -37 -15 -41 -17 -6 -20 5 -4 21 8 8 7 13 -3
18 -7 5 -10 5 -6 0 4 -4 0 -13 -9 -20 -15 -11 -14 -15 12 -41 16 -16 23 -30
17 -32 -7 -2 -12 -8 -12 -13 0 -4 6 -6 13 -4 6 3 17 -3 23 -13 9 -14 8 -22 -5
-38 -18 -23 -58 -37 -66 -24 -3 5 5 11 17 13 23 4 23 4 1 6 -12 0 -29 -6 -38
-15 -9 -10 -29 -17 -44 -18 -15 -1 -38 -12 -52 -25 -17 -16 -19 -22 -7 -18 12
4 15 2 11 -9 -3 -8 -12 -13 -20 -10 -8 3 -17 6 -19 6 -3 0 -3 3 -1 8 3 4 -8 7
-24 7 -26 0 -28 -1 -12 -13 12 -9 14 -15 7 -20 -6 -4 -11 -22 -12 -41 -1 -37
71 -153 127 -204 32 -30 41 -67 17 -67 -8 0 -17 -6 -19 -12 -3 -7 -6 -1 -6 15
-1 15 -5 27 -11 27 -5 0 -6 -7 -3 -17 4 -11 3 -14 -5 -9 -7 4 -12 16 -12 27 0
10 -4 19 -10 19 -5 0 -10 7 -10 16 0 8 -5 12 -10 9 -8 -5 -7 -11 0 -21 7 -7
10 -19 8 -26 -3 -7 -11 4 -18 25 -8 20 -18 37 -23 37 -5 0 -6 -7 -3 -16 4 -11
1 -14 -12 -12 -11 2 -16 11 -14 26 2 12 -2 22 -8 22 -7 0 -9 7 -6 16 3 8 2 12
-4 9 -12 -7 -14 -389 -2 -383 48 24 62 32 62 40 0 4 5 8 10 8 11 0 75 68 103
109 9 14 17 37 16 51 -1 14 -1 27 0 30 1 3 3 43 4 89 2 49 8 86 14 88 6 2 9
12 6 21 -5 21 43 70 56 56 18 -19 30 -73 18 -78 -9 -3 -8 -7 3 -15 10 -7 19
-6 28 2 9 7 10 13 3 15 -17 6 -13 19 5 19 16 0 134 -115 134 -130 0 -4 14 -13
30 -18 17 -6 30 -17 30 -25 0 -8 7 -14 15 -14 8 0 15 -6 15 -14 0 -7 7 -19 15
-26 8 -6 13 -16 12 -20 -1 -4 3 -8 8 -8 6 0 9 3 8 8 -1 4 9 6 22 4 14 -1 27 2
31 7 12 20 23 8 14 -16 -7 -19 -6 -23 6 -18 10 4 12 0 8 -11 -3 -9 -2 -16 3
-16 5 0 9 -12 8 -27 0 -20 7 -31 23 -38 12 -5 22 -18 22 -28 0 -11 -4 -15 -12
-11 -7 4 -8 3 -4 -4 4 -7 14 -12 21 -12 9 0 12 -6 8 -15 -3 -9 2 -24 11 -34 9
-10 14 -25 10 -35 -3 -9 -1 -16 5 -16 6 0 11 -7 11 -16 0 -9 6 -14 13 -11 7 3
21 -1 32 -9 10 -8 15 -14 11 -14 -5 0 -3 -7 4 -15 9 -10 9 -15 1 -15 -6 0 -11
-5 -11 -11 0 -6 7 -8 16 -5 10 4 14 1 12 -6 -7 -20 -31 -16 -50 6 -17 21 -17
21 -11 -2 3 -12 9 -22 14 -22 5 0 8 -3 8 -7 -3 -18 2 -27 9 -17 10 16 52 28
52 15 0 -6 -4 -11 -10 -11 -5 0 -10 -5 -10 -11 0 -5 4 -8 9 -4 11 6 41 -21 41
-38 0 -8 -4 -7 -12 1 -17 17 -31 15 -24 -3 3 -8 0 -15 -6 -15 -6 0 -9 -2 -7
-4 3 -3 21 -1 42 4 34 7 38 6 43 -15 4 -16 11 -22 20 -18 9 3 13 12 10 20 -4
9 -1 13 6 11 31 -11 7 -40 -36 -43 -15 0 -24 -39 -14 -58 5 -10 10 -31 10 -47
1 -18 5 -27 13 -23 7 2 16 0 20 -6 3 -6 1 -11 -6 -11 -8 0 -8 -4 1 -15 7 -8
18 -15 24 -15 6 0 4 5 -4 10 -12 8 -13 12 -1 19 11 7 11 13 0 32 -7 13 -12 34
-10 47 1 12 -2 22 -8 22 -6 0 -11 7 -11 15 0 8 8 15 18 15 13 0 14 -2 4 -9
-11 -7 -10 -9 3 -14 11 -5 14 -3 9 5 -5 8 -2 9 10 5 10 -4 19 -1 22 8 4 8 10
15 16 15 12 0 6 -53 -7 -62 -5 -4 0 -8 13 -8 13 0 20 -4 17 -10 -10 -16 -43
-11 -48 8 -4 16 -4 16 -11 0 -5 -11 -2 -23 8 -34 12 -12 14 -20 6 -29 -9 -11
-7 -12 9 -8 12 3 21 1 21 -6 0 -6 -7 -11 -15 -11 -8 0 -15 -4 -15 -10 0 -15
12 -12 36 11 19 18 25 19 46 9 12 -7 20 -9 16 -5 -9 9 9 35 23 35 5 0 9 -6 9
-13 0 -8 12 -20 28 -27 15 -7 22 -15 15 -17 -7 -2 -9 -11 -6 -19 4 -11 -4 -14
-38 -13 -34 1 -38 3 -20 8 14 4 26 12 27 19 1 7 0 8 -2 3 -3 -6 -11 -8 -18 -5
-16 6 -40 -21 -31 -35 3 -6 24 -8 48 -4 41 5 61 19 51 35 -3 4 -1 8 5 8 5 0
13 -4 16 -10 3 -5 20 -7 37 -3 22 4 29 3 24 -5 -10 -17 7 -15 30 3 13 10 14
13 3 10 -9 -3 -21 0 -27 8 -9 11 -6 18 14 36 23 20 23 23 9 37 -9 9 -19 13
-23 10 -3 -4 0 -11 8 -17 13 -8 13 -10 0 -19 -21 -14 -30 -12 -30 4 0 8 -7 13
-16 12 -9 0 -19 5 -22 13 -3 11 2 12 23 7 22 -6 26 -4 22 8 -3 8 -1 17 6 20
17 7 -12 26 -30 19 -7 -3 -13 2 -13 11 0 9 6 16 13 14 6 -2 22 7 35 20 12 12
18 22 12 22 -5 0 -10 7 -10 16 0 8 -5 12 -11 8 -8 -4 -9 3 -5 22 3 16 2 36 -4
44 -8 12 -10 11 -10 -8 0 -12 -5 -21 -12 -20 -7 2 -12 -5 -12 -14 1 -10 -2
-15 -7 -12 -16 10 -7 74 11 75 13 0 13 1 0 6 -8 3 -18 11 -22 17 -4 6 -13 11
-20 12 -7 0 -21 4 -31 9 -16 7 -17 9 -2 25 15 17 15 18 -1 16 -9 0 -19 5 -22
13 -3 9 0 11 8 6 10 -6 12 -4 7 9 -4 10 -7 20 -7 23 0 3 -6 0 -14 -6 -11 -9
-15 -7 -18 7 -4 15 -1 18 18 14 20 -4 24 0 24 23 0 22 -3 25 -20 20 -25 -8
-58 14 -39 26 16 9 20 37 8 45 -5 3 -9 -2 -9 -10 0 -20 -11 -20 -36 -1 -11 8
-14 15 -6 15 6 0 12 6 12 14 0 15 31 17 41 2 4 -4 7 4 7 18 0 14 -4 23 -8 21
-5 -3 -15 1 -23 9 -8 8 -17 12 -20 9 -3 -3 -13 1 -21 9 -13 14 -12 17 10 27
35 15 41 14 18 -5 -16 -13 -16 -15 -2 -10 10 3 18 2 18 -3 0 -14 37 -20 49 -8
17 17 13 26 -9 20 -11 -3 -20 -1 -21 3 -5 56 -4 71 4 82 6 8 6 12 -2 12 -6 0
-11 -4 -11 -10 0 -5 -4 -10 -9 -10 -18 0 -6 35 14 41 19 5 18 6 -4 11 -18 5
-24 2 -28 -13 -3 -10 -9 -19 -14 -19 -12 0 -11 27 1 35 16 10 12 55 -6 55 -8
0 -12 5 -9 10 3 6 1 10 -5 10 -7 0 -10 6 -7 14 4 9 -2 12 -20 10 -19 -2 -23 0
-14 9 6 6 11 14 11 18 0 13 -32 19 -50 9 -16 -8 -18 -8 -14 5 3 8 10 13 14 10
14 -8 21 28 8 37 -10 8 -10 11 0 15 6 2 12 8 12 13 0 13 -39 19 -47 8 -3 -6
-1 -8 4 -5 13 8 11 -48 -1 -60 -4 -4 -5 4 -1 19 5 19 2 29 -11 36 -15 9 -16
13 -5 26 9 11 10 16 2 16 -6 0 -11 -5 -11 -10 0 -7 -6 -7 -19 -1 -10 6 -22 7
-26 3 -5 -4 -5 1 -2 11 5 13 1 17 -14 17 -18 0 -20 4 -14 29 6 27 4 29 -17 24
-19 -4 -20 -3 -8 7 11 9 12 13 3 17 -7 2 -13 14 -13 25 0 20 1 21 20 3 18 -16
20 -16 20 -2 0 10 -4 17 -10 17 -5 0 -10 5 -10 10 0 6 8 10 18 10 14 0 15 2 2
10 -10 6 -20 4 -31 -6 -23 -20 -31 -17 -24 9 3 12 3 17 -2 11 -14 -20 -50 -26
-56 -10 -4 10 -1 13 7 10 20 -8 28 12 11 26 -8 7 -15 20 -16 29 0 10 -4 7 -11
-9 -6 -14 -10 -32 -9 -40 1 -11 -2 -10 -10 3 -8 13 -7 22 1 32 10 12 9 16 -3
21 -9 3 -13 12 -11 19 3 8 1 22 -5 32 -6 10 -11 12 -11 6 0 -16 -40 -17 -40
-2 0 5 4 8 9 4 18 -11 23 17 6 33 -17 16 -17 16 -12 -1 4 -10 3 -16 -2 -12 -5
3 -12 19 -16 35 -4 17 -11 30 -17 30 -7 0 -6 5 1 14 11 13 6 46 -8 46 -13 0
-7 45 8 58 14 11 14 13 1 9 -21 -5 -33 11 -50 63 -7 25 -15 47 -16 48 -2 2
-17 -4 -34 -14 -27 -16 -32 -17 -41 -4 -5 8 -7 25 -4 38 3 12 1 22 -5 22 -5 0
-10 -4 -10 -8 0 -5 -6 -17 -14 -28 -14 -18 -15 -18 -13 6 0 14 6 28 12 33 5 4
-2 5 -17 3 -29 -5 -35 3 -17 21 7 7 5 12 -7 17 -15 6 -16 1 -10 -40z m26 -284
c0 -5 -7 -10 -16 -10 -8 0 -12 -4 -9 -10 4 -6 -1 -7 -11 -3 -13 5 -15 2 -9
-15 6 -22 -8 -31 -20 -12 -8 12 15 48 35 54 26 7 30 6 30 -4z m-20 -80 c-19
-13 -30 -13 -30 0 0 6 10 10 23 10 18 0 19 -2 7 -10z m-80 -65 c0 -8 -4 -15
-10 -15 -5 0 -7 7 -4 15 4 8 8 15 10 15 2 0 4 -7 4 -15z m60 5 c0 -5 -2 -10
-4 -10 -3 0 -8 5 -11 10 -3 6 -1 10 4 10 6 0 11 -4 11 -10z m-300 -291 c0 -6
-4 -7 -10 -4 -5 3 -10 11 -10 16 0 6 5 7 10 4 6 -3 10 -11 10 -16z m935 -89
c3 -5 1 -10 -4 -10 -6 0 -11 5 -11 10 0 6 2 10 4 10 3 0 8 -4 11 -10z m-75
-75 c11 -13 10 -14 -4 -9 -9 3 -16 10 -16 15 0 13 6 11 20 -6z m130 -105 c0
-5 -4 -10 -10 -10 -5 0 -10 5 -10 10 0 6 5 10 10 10 6 0 10 -4 10 -10z m-10
-29 c0 -9 -24 -21 -43 -21 -6 0 -2 7 9 15 22 17 34 19 34 6z m0 -137 c0 -8 -4
-12 -10 -9 -5 3 -10 10 -10 16 0 5 5 9 10 9 6 0 10 -7 10 -16z m60 -188 c0 -2
-7 -9 -15 -16 -13 -11 -14 -10 -9 4 5 14 24 23 24 12z m-5 -56 c3 -5 -1 -10
-9 -10 -9 0 -16 5 -16 10 0 6 4 10 9 10 6 0 13 -4 16 -10z m75 -19 c0 -6 -4
-13 -10 -16 -5 -3 -10 1 -10 9 0 9 5 16 10 16 6 0 10 -4 10 -9z m24 -10 c3 -5
-1 -14 -8 -20 -12 -10 -13 -8 -9 8 6 23 9 25 17 12z m-238 -43 c4 4 2 -1 -5
-10 -15 -20 -31 -15 -31 9 0 12 3 13 13 4 8 -6 18 -7 23 -3z m179 -58 c3 -5 1
-10 -4 -10 -6 0 -11 5 -11 10 0 6 2 10 4 10 3 0 8 -4 11 -10z m66 -9 c11 6 25
8 32 5 7 -2 4 -5 -5 -5 -21 -1 -25 -37 -5 -44 6 -3 7 -6 1 -6 -14 -1 -54 37
-53 52 0 9 2 9 6 0 3 -10 10 -10 24 -2z m-41 -21 c0 -5 -4 -10 -10 -10 -5 0
-10 5 -10 10 0 6 5 10 10 10 6 0 10 -4 10 -10z m-140 -10 c0 -5 -4 -10 -10
-10 -5 0 -10 5 -10 10 0 6 5 10 10 10 6 0 10 -4 10 -10z m170 -30 c-20 -13
-33 -13 -25 0 3 6 14 10 23 10 15 0 15 -2 2 -10z m-100 -10 c0 -5 -2 -10 -4
-10 -3 0 -8 5 -11 10 -3 6 -1 10 4 10 6 0 11 -4 11 -10z m120 -34 c0 -3 -4 -8
-10 -11 -5 -3 -10 -1 -10 4 0 6 5 11 10 11 6 0 10 -2 10 -4z m-110 -26 c-8 -5
-24 -10 -35 -11 -11 -1 -4 -5 15 -9 35 -7 35 -7 5 -9 -16 0 -37 4 -45 9 -12 7
-10 11 10 19 14 5 34 10 45 10 17 1 17 -1 5 -9z m83 -15 c-3 -9 -8 -14 -10
-11 -3 3 -2 9 2 15 9 16 15 13 8 -4z m61 -20 c3 -8 1 -15 -5 -15 -6 0 -9 -6
-6 -14 4 -9 0 -12 -13 -9 -10 3 -21 14 -24 25 -4 16 -2 18 7 9 16 -16 27 -14
21 4 -4 8 -2 15 4 15 5 0 12 -7 16 -15z"/>
<path d="M517 2118 c6 -36 10 -44 18 -36 8 8 -6 68 -16 68 -5 0 -6 -15 -2 -32z"/>
<path d="M470 2079 c0 -5 10 -9 22 -9 12 0 18 3 14 7 -10 11 -36 12 -36 2z"/>
<path d="M3234 2035 c-3 -8 -4 -20 -1 -27 3 -7 6 -3 6 10 1 15 5 21 13 16 7
-4 8 -3 4 4 -10 16 -15 15 -22 -3z"/>
<path d="M3250 1984 c0 -8 5 -12 10 -9 6 3 10 10 10 16 0 5 -4 9 -10 9 -5 0
-10 -7 -10 -16z"/>
<path d="M239 1867 c12 -15 11 -17 -3 -17 -9 0 -16 -5 -16 -11 0 -6 8 -9 18
-7 21 4 23 39 2 46 -13 5 -13 3 -1 -11z"/>
<path d="M141 1824 c0 -11 3 -14 6 -6 3 7 2 16 -1 19 -3 4 -6 -2 -5 -13z"/>
<path d="M3070 1805 c0 -8 5 -15 10 -15 6 0 10 7 10 15 0 8 -4 15 -10 15 -5 0
-10 -7 -10 -15z"/>
<path d="M196 1801 c-3 -5 1 -11 9 -15 15 -6 29 7 18 18 -9 9 -21 8 -27 -3z"/>
<path d="M128 1783 c7 -3 16 -2 19 1 4 3 -2 6 -13 5 -11 0 -14 -3 -6 -6z"/>
<path d="M140 1760 c0 -5 7 -10 15 -10 8 0 15 5 15 10 0 6 -7 10 -15 10 -8 0
-15 -4 -15 -10z"/>
<path d="M3070 1755 c-10 -12 -10 -18 0 -30 9 -11 9 -15 1 -15 -7 0 -9 -4 -6
-10 4 -6 15 -2 27 10 12 11 18 23 15 27 -4 3 -7 1 -7 -6 0 -7 -5 -9 -10 -6 -6
4 -8 15 -5 26 8 23 2 24 -15 4z"/>
<path d="M196 1753 c-7 -7 13 -33 25 -33 5 0 9 6 9 14 0 15 -24 28 -34 19z"/>
<path d="M4404 1725 c-4 -8 0 -23 7 -32 12 -15 12 -16 -3 -10 -20 7 -25 -8 -7
-19 8 -4 7 -9 -2 -15 -8 -5 -9 -9 -4 -9 21 0 35 17 39 47 2 23 0 30 -11 26 -9
-4 -11 0 -7 11 3 9 3 16 0 16 -4 0 -9 -7 -12 -15z"/>
<path d="M710 1710 c0 -5 5 -10 11 -10 5 0 7 5 4 10 -3 6 -8 10 -11 10 -2 0
-4 -4 -4 -10z"/>
<path d="M5066 1688 c-8 -32 -7 -88 2 -88 4 0 8 25 10 55 3 58 -1 71 -12 33z"/>
<path d="M3105 1690 c-3 -6 1 -7 9 -4 18 7 21 14 7 14 -6 0 -13 -4 -16 -10z"/>
<path d="M4362 1646 c-17 -37 -15 -45 4 -18 8 12 14 27 12 33 -2 6 -9 -1 -16
-15z"/>
<path d="M826 1645 c-4 -10 1 -15 14 -15 13 0 18 5 14 15 -4 8 -10 15 -14 15
-4 0 -10 -7 -14 -15z"/>
<path d="M3056 1647 c3 -10 9 -15 12 -12 3 3 0 11 -7 18 -10 9 -11 8 -5 -6z"/>
<path d="M4375 1600 c-3 -5 -1 -10 4 -10 6 0 11 5 11 10 0 6 -2 10 -4 10 -3 0
-8 -4 -11 -10z"/>
<path d="M4329 1587 c6 -8 7 -18 3 -22 -4 -5 -1 -5 6 -1 18 10 15 36 -4 36
-13 0 -14 -3 -5 -13z"/>
<path d="M265 1580 c-3 -5 -1 -10 4 -10 6 0 11 5 11 10 0 6 -2 10 -4 10 -3 0
-8 -4 -11 -10z"/>
<path d="M4546 1573 c-6 -14 -5 -15 5 -6 7 7 10 15 7 18 -3 3 -9 -2 -12 -12z"/>
<path d="M3095 1564 c-20 -21 -11 -31 11 -13 10 8 20 13 23 11 3 -2 7 1 9 7 6
17 -25 13 -43 -5z"/>
<path d="M150 1540 c0 -5 5 -10 10 -10 6 0 10 5 10 10 0 6 -4 10 -10 10 -5 0
-10 -4 -10 -10z"/>
<path d="M865 1520 c3 -5 14 -10 23 -10 15 0 15 2 2 10 -20 13 -33 13 -25 0z"/>
<path d="M3355 1520 c-3 -5 -2 -10 4 -10 5 0 13 5 16 10 3 6 2 10 -4 10 -5 0
-13 -4 -16 -10z"/>
<path d="M4555 1520 c-3 -5 -1 -10 4 -10 6 0 11 5 11 10 0 6 -2 10 -4 10 -3 0
-8 -4 -11 -10z"/>
<path d="M4620 1519 c0 -5 5 -7 10 -4 6 3 10 8 10 11 0 2 -4 4 -10 4 -5 0 -10
-5 -10 -11z"/>
<path d="M3565 1511 c-3 -5 -1 -12 5 -16 5 -3 10 1 10 9 0 18 -6 21 -15 7z"/>
<path d="M3268 1493 c6 -2 18 -2 25 0 6 3 1 5 -13 5 -14 0 -19 -2 -12 -5z"/>
<path d="M3145 1480 c3 -5 8 -10 11 -10 2 0 4 5 4 10 0 6 -5 10 -11 10 -5 0
-7 -4 -4 -10z"/>
<path d="M3181 1481 c-10 -7 -10 -10 -1 -16 6 -4 16 -3 22 3 13 13 -4 23 -21
13z"/>
<path d="M4584 1475 c8 -8 18 -15 22 -15 3 0 1 7 -6 15 -7 8 -17 15 -22 15 -5
0 -3 -7 6 -15z"/>
<path d="M3755 1460 c-3 -5 -1 -10 4 -10 6 0 11 5 11 10 0 6 -2 10 -4 10 -3 0
-8 -4 -11 -10z"/>
<path d="M900 1449 c0 -5 5 -7 10 -4 6 3 10 8 10 11 0 2 -4 4 -10 4 -5 0 -10
-5 -10 -11z"/>
<path d="M3751 1394 c0 -11 3 -14 6 -6 3 7 2 16 -1 19 -3 4 -6 -2 -5 -13z"/>
<path d="M4230 1406 c0 -2 7 -7 16 -10 8 -3 12 -2 9 4 -6 10 -25 14 -25 6z"/>
<path d="M1000 1393 c0 -5 9 -18 20 -28 11 -10 20 -14 20 -8 0 5 -9 18 -20 28
-11 10 -20 14 -20 8z"/>
<path d="M1038 1303 c6 -2 18 -2 25 0 6 3 1 5 -13 5 -14 0 -19 -2 -12 -5z"/>
<path d="M4570 1290 c0 -5 5 -10 10 -10 6 0 10 5 10 10 0 6 -4 10 -10 10 -5 0
-10 -4 -10 -10z"/>
<path d="M1077 1284 c-3 -5 1 -15 9 -22 16 -14 18 -5 5 17 -5 7 -11 9 -14 5z"/>
<path d="M1178 1143 c7 -3 16 -2 19 1 4 3 -2 6 -13 5 -11 0 -14 -3 -6 -6z"/>
<path d="M1139 1083 c-13 -16 -12 -17 4 -4 9 7 17 15 17 17 0 8 -8 3 -21 -13z"/>
<path d="M4570 1085 c0 -8 5 -15 10 -15 6 0 10 7 10 15 0 8 -4 15 -10 15 -5 0
-10 -7 -10 -15z"/>
<path d="M1230 1000 c0 -5 5 -10 11 -10 5 0 7 5 4 10 -3 6 -8 10 -11 10 -2 0
-4 -4 -4 -10z"/>
<path d="M1197 941 c-4 -17 -3 -21 5 -13 5 5 8 16 6 23 -3 8 -7 3 -11 -10z"/>
<path d="M1145 920 c3 -5 8 -10 11 -10 2 0 4 5 4 10 0 6 -5 10 -11 10 -5 0 -7
-4 -4 -10z"/>
<path d="M5575 900 c-3 -5 3 -10 14 -10 12 0 21 5 21 10 0 6 -6 10 -14 10 -8
0 -18 -4 -21 -10z"/>
<path d="M1128 893 c7 -3 16 -2 19 1 4 3 -2 6 -13 5 -11 0 -14 -3 -6 -6z"/>
<path d="M5735 880 c-8 -13 5 -13 25 0 13 8 13 10 -2 10 -9 0 -20 -4 -23 -10z"/>
<path d="M1285 850 c-3 -5 3 -10 15 -10 12 0 18 5 15 10 -3 6 -10 10 -15 10
-5 0 -12 -4 -15 -10z"/>
<path d="M5670 840 c0 -5 5 -10 11 -10 5 0 7 5 4 10 -3 6 -8 10 -11 10 -2 0
-4 -4 -4 -10z"/>
<path d="M5810 835 c-7 -9 -8 -15 -2 -15 5 0 12 7 16 15 3 8 4 15 2 15 -2 0
-9 -7 -16 -15z"/>
<path d="M5830 810 c0 -5 4 -10 9 -10 6 0 13 5 16 10 3 6 -1 10 -9 10 -9 0
-16 -4 -16 -10z"/>
<path d="M1210 801 c0 -5 7 -11 15 -15 8 -3 15 -1 15 3 0 5 -7 11 -15 15 -8 3
-15 1 -15 -3z"/>
<path d="M6380 800 c0 -5 5 -10 10 -10 6 0 10 5 10 10 0 6 -4 10 -10 10 -5 0
-10 -4 -10 -10z"/>
<path d="M4551 791 c-10 -6 -10 -10 -1 -16 13 -8 24 -1 19 14 -3 6 -10 7 -18
2z"/>
<path d="M1270 780 c0 -5 5 -10 10 -10 6 0 10 5 10 10 0 6 -4 10 -10 10 -5 0
-10 -4 -10 -10z"/>
<path d="M5855 780 c-3 -5 -1 -10 4 -10 6 0 11 5 11 10 0 6 -2 10 -4 10 -3 0
-8 -4 -11 -10z"/>
<path d="M810 755 c0 -8 5 -15 10 -15 6 0 10 7 10 15 0 8 -4 15 -10 15 -5 0
-10 -7 -10 -15z"/>
<path d="M1200 755 c-7 -9 -10 -18 -6 -22 3 -3 6 -1 6 6 0 6 10 16 23 21 15 6
17 9 6 9 -9 1 -22 -6 -29 -14z"/>
<path d="M5880 760 c0 -5 7 -7 15 -4 8 4 15 8 15 10 0 2 -7 4 -15 4 -8 0 -15
-4 -15 -10z"/>
<path d="M4516 745 c-3 -8 -1 -15 4 -15 6 0 10 7 10 15 0 8 -2 15 -4 15 -2 0
-6 -7 -10 -15z"/>
<path d="M5790 745 c0 -16 16 -20 24 -6 3 5 -1 11 -9 15 -9 3 -15 0 -15 -9z"/>
<path d="M6010 741 c0 -6 5 -13 10 -16 6 -3 10 1 10 9 0 9 -4 16 -10 16 -5 0
-10 -4 -10 -9z"/>
<path d="M5751 721 c-8 -5 -9 -11 -3 -15 5 -3 12 1 16 9 6 17 6 18 -13 6z"/>
<path d="M5818 713 c7 -3 16 -2 19 1 4 3 -2 6 -13 5 -11 0 -14 -3 -6 -6z"/>
<path d="M5875 710 c3 -5 10 -10 16 -10 5 0 9 5 9 10 0 6 -7 10 -16 10 -8 0
-12 -4 -9 -10z"/>
<path d="M5973 708 c-25 -32 -26 -40 -5 -34 11 4 23 2 27 -4 10 -16 45 -12 45
5 0 8 -8 15 -17 15 -16 0 -16 -2 -3 -11 13 -9 13 -10 0 -6 -8 2 -16 13 -18 25
-4 25 -15 28 -29 10z"/>
<path d="M6060 716 c0 -2 7 -7 16 -10 8 -3 12 -2 9 4 -6 10 -25 14 -25 6z"/>
<path d="M5830 690 c-8 -5 -11 -12 -7 -17 5 -4 12 -1 16 6 7 10 9 11 13 1 3
-10 9 -11 24 -2 10 6 14 12 7 12 -6 0 -17 2 -25 5 -7 3 -20 1 -28 -5z"/>
<path d="M1280 680 c8 -5 22 -10 30 -10 13 0 13 1 0 10 -8 5 -22 10 -30 10
-13 0 -13 -1 0 -10z"/>
<path d="M3650 665 c-8 -9 -8 -15 -2 -15 12 0 26 19 19 26 -2 2 -10 -2 -17
-11z"/>
<path d="M5828 644 c-16 -8 -28 -16 -28 -18 0 -7 51 7 56 16 10 16 0 17 -28 2z"/>
<path d="M845 640 c-3 -5 -1 -10 4 -10 6 0 11 5 11 10 0 6 -2 10 -4 10 -3 0
-8 -4 -11 -10z"/>
<path d="M1310 639 c0 -5 5 -7 10 -4 6 3 10 8 10 11 0 2 -4 4 -10 4 -5 0 -10
-5 -10 -11z"/>
<path d="M5722 610 c0 -14 2 -19 5 -12 2 6 2 18 0 25 -3 6 -5 1 -5 -13z"/>
<path d="M5762 618 c-7 -7 -12 -16 -12 -21 0 -5 7 -1 16 8 9 9 14 18 12 20 -2
3 -10 -1 -16 -7z"/>
<path d="M1370 574 c0 -8 5 -12 10 -9 6 4 8 11 5 16 -9 14 -15 11 -15 -7z"/>
<path d="M930 570 c0 -5 5 -10 10 -10 6 0 10 5 10 10 0 6 -4 10 -10 10 -5 0
-10 -4 -10 -10z"/>
<path d="M1323 550 c-13 -5 -23 -15 -23 -21 0 -8 4 -8 15 1 12 10 16 9 21 -4
3 -9 14 -16 23 -16 15 1 15 2 0 13 -9 7 -14 18 -12 25 5 14 6 14 -24 2z"/>
<path d="M4409 517 c9 -11 10 -17 2 -17 -6 0 -11 -5 -11 -12 0 -9 3 -9 12 0 7
7 20 12 30 12 10 0 18 5 18 11 0 5 6 7 13 3 9 -5 9 -3 -1 7 -11 12 -14 12 -21
0 -7 -11 -13 -11 -32 0 -22 11 -23 11 -10 -4z"/>
<path d="M1370 490 c0 -5 5 -10 10 -10 6 0 10 5 10 10 0 6 -4 10 -10 10 -5 0
-10 -4 -10 -10z"/>
<path d="M1 300 c0 -134 2 -160 14 -160 8 0 15 -5 15 -11 0 -6 7 -9 15 -5 9 3
15 0 15 -9 0 -8 7 -15 15 -15 8 0 15 -4 15 -10 0 -5 6 -10 14 -10 8 0 17 -7
20 -16 4 -9 13 -14 21 -10 11 4 15 -2 15 -24 0 -31 20 -43 20 -12 1 16 1 16
14 0 7 -10 22 -18 34 -18 36 0 110 37 117 59 3 12 14 21 24 21 9 0 26 7 37 15
27 20 34 19 34 -10 0 -17 -9 -29 -29 -39 -16 -9 -31 -12 -35 -9 -3 4 -6 -3 -6
-15 0 -22 2 -22 190 -22 191 0 191 0 185 78 -10 121 -18 148 -41 144 -10 -2
-22 -9 -26 -15 -6 -9 -11 -8 -18 3 -8 13 -10 12 -10 -2 0 -10 -7 -18 -16 -18
-9 0 -18 -9 -21 -20 -3 -11 -9 -21 -14 -21 -29 -4 -99 -32 -99 -39 0 -3 -11
-7 -24 -8 -37 -3 -41 25 -6 43 32 17 40 35 15 35 -8 0 -15 6 -15 13 0 12 -44
37 -67 37 -7 0 -13 7 -13 17 0 9 -3 13 -7 10 -3 -4 -21 4 -39 18 -18 14 -37
25 -43 25 -6 0 -11 5 -11 10 0 6 -7 10 -15 10 -8 0 -15 7 -15 15 0 12 -7 14
-26 9 -19 -5 -25 -4 -20 5 5 7 -3 11 -25 11 -18 0 -29 3 -26 7 4 3 -7 15 -23
25 -36 21 -44 23 -37 5 3 -7 -5 -19 -16 -26 -18 -11 -20 -11 -9 0 15 16 16 49
1 49 -7 0 -18 8 -25 18 -13 16 -13 16 -14 -3 -1 -18 -2 -18 -10 3 -22 52 -29
17 -29 -138z m149 22 c0 -10 -7 -19 -15 -19 -18 0 -19 9 -3 25 16 16 18 15 18
-6z m-110 4 c0 -3 -4 -8 -10 -11 -5 -3 -10 -1 -10 4 0 6 5 11 10 11 6 0 10 -2
10 -4z m30 -20 c0 -3 -4 -8 -10 -11 -5 -3 -10 -1 -10 4 0 6 5 11 10 11 6 0 10
-2 10 -4z m30 -26 c0 -5 -5 -10 -11 -10 -5 0 -7 5 -4 10 3 6 8 10 11 10 2 0 4
-4 4 -10z m384 -202 c-3 -4 -12 -8 -20 -8 -8 0 -13 4 -10 8 3 5 12 9 20 9 8 0
13 -4 10 -9z"/>
<path d="M3300 439 c0 -5 5 -7 10 -4 6 3 10 8 10 11 0 2 -4 4 -10 4 -5 0 -10
-5 -10 -11z"/>
<path d="M3210 430 c0 -5 5 -10 10 -10 6 0 10 5 10 10 0 6 -4 10 -10 10 -5 0
-10 -4 -10 -10z"/>
<path d="M2910 420 c0 -5 5 -10 11 -10 5 0 7 5 4 10 -3 6 -8 10 -11 10 -2 0
-4 -4 -4 -10z"/>
<path d="M2877 413 c-4 -3 -7 -11 -7 -17 0 -6 5 -5 12 2 6 6 9 14 7 17 -3 3
-9 2 -12 -2z"/>
<path d="M1421 384 c0 -11 3 -14 6 -6 3 7 2 16 -1 19 -3 4 -6 -2 -5 -13z"/>
<path d="M1056 361 c-3 -5 1 -14 9 -21 11 -9 14 -8 12 9 -1 22 -12 28 -21 12z"/>
<path d="M1220 344 c0 -3 7 -12 16 -21 14 -14 16 -14 29 3 7 11 11 21 9 24 -3
2 -10 -2 -15 -10 -8 -11 -12 -12 -16 -2 -5 12 -23 17 -23 6z"/>
<path d="M3256 333 c-6 -14 -5 -15 5 -6 7 7 10 15 7 18 -3 3 -9 -2 -12 -12z"/>
<path d="M3080 330 c-13 -8 -12 -10 3 -10 9 0 17 5 17 10 0 12 -1 12 -20 0z"/>
<path d="M3106 313 c-4 -9 -1 -21 5 -27 9 -8 10 -8 4 2 -4 8 0 19 11 27 17 13
17 14 3 15 -9 0 -20 -8 -23 -17z"/>
<path d="M1205 310 c-3 -5 1 -10 10 -10 9 0 13 5 10 10 -3 6 -8 10 -10 10 -2
0 -7 -4 -10 -10z"/>
<path d="M1147 279 c7 -7 15 -10 18 -7 3 3 -2 9 -12 12 -14 6 -15 5 -6 -5z"/>
<path d="M3140 264 c0 -8 5 -12 10 -9 6 3 10 10 10 16 0 5 -4 9 -10 9 -5 0
-10 -7 -10 -16z"/>
<path d="M3120 259 c0 -5 -4 -7 -10 -4 -6 4 -7 -2 -1 -17 8 -23 41 -38 41 -19
0 6 -7 11 -16 11 -11 0 -14 6 -9 20 3 11 4 20 1 20 -3 0 -6 -5 -6 -11z"/>
<path d="M1130 255 c0 -3 9 -15 20 -27 17 -18 20 -19 20 -5 0 9 -9 21 -20 27
-11 6 -20 8 -20 5z"/>
<path d="M1205 242 c-7 -20 -6 -24 5 -17 6 3 10 1 10 -4 0 -6 -6 -11 -12 -11
-9 0 -8 -3 2 -10 8 -5 11 -12 8 -16 -10 -9 20 -37 32 -29 13 8 13 -18 -1 -32
-7 -7 -5 -12 9 -15 15 -4 22 0 26 15 4 16 8 19 17 10 12 -12 39 -7 39 8 0 4
-10 13 -21 20 -17 9 -24 8 -31 -2 -7 -11 -11 -11 -15 -1 -2 6 -11 12 -18 12
-8 0 -19 9 -25 20 -13 25 5 27 19 3 10 -17 10 -17 11 -1 0 9 -5 20 -10 23 -6
4 -8 14 -5 24 6 21 -32 24 -40 3z"/>
<path d="M1290 250 c0 -5 5 -10 11 -10 5 0 7 5 4 10 -3 6 -8 10 -11 10 -2 0
-4 -4 -4 -10z"/>
<path d="M2828 244 c-8 -12 19 -50 29 -40 4 4 3 10 -3 14 -6 4 -13 14 -16 22
-2 7 -7 10 -10 4z"/>
<path d="M1260 229 c0 -5 5 -7 10 -4 6 3 10 8 10 11 0 2 -4 4 -10 4 -5 0 -10
-5 -10 -11z"/>
<path d="M2792 209 c-9 -14 -19 -18 -35 -14 -17 5 -19 4 -7 -4 8 -6 23 -11 33
-11 11 0 20 -10 24 -30 7 -39 20 -39 20 0 0 17 -3 26 -7 20 -5 -8 -9 -7 -14 4
-9 22 -4 32 13 28 13 -3 13 -1 2 12 -16 20 -14 20 -29 -5z"/>
<path d="M1272 199 c5 -16 66 -21 88 -8 10 7 3 9 -25 7 -22 -1 -47 2 -54 6 -9
6 -12 4 -9 -5z"/>
<path d="M2935 200 c4 -6 11 -8 16 -5 14 9 11 15 -7 15 -8 0 -12 -5 -9 -10z"/>
<path d="M2671 184 c0 -11 3 -14 6 -6 3 7 2 16 -1 19 -3 4 -6 -2 -5 -13z"/>
<path d="M2702 180 c0 -14 2 -19 5 -12 2 6 2 18 0 25 -3 6 -5 1 -5 -13z"/>
<path d="M3000 176 c0 -9 5 -16 10 -16 6 0 10 4 10 9 0 6 -4 13 -10 16 -5 3
-10 -1 -10 -9z"/>
<path d="M3155 170 c-3 -5 -1 -10 4 -10 6 0 11 5 11 10 0 6 -2 10 -4 10 -3 0
-8 -4 -11 -10z"/>
<path d="M1350 159 c0 -5 5 -7 10 -4 6 3 10 8 10 11 0 2 -4 4 -10 4 -5 0 -10
-5 -10 -11z"/>
<path d="M2756 153 c3 -13 1 -23 -5 -23 -6 0 -11 5 -11 10 0 6 -5 10 -11 10
-5 0 -7 -4 -4 -10 3 -5 1 -10 -6 -10 -8 0 -8 -5 2 -17 7 -10 9 -15 5 -11 -5 4
-15 3 -23 -4 -12 -10 -13 -7 -7 18 7 26 6 28 -9 15 -9 -7 -14 -18 -10 -24 3
-6 1 -7 -5 -3 -6 4 -8 14 -5 24 3 9 3 14 -1 11 -9 -9 -26 -70 -17 -65 4 3 7
-7 6 -22 0 -20 -6 -28 -22 -30 -13 -2 -23 -8 -23 -13 0 -5 55 -9 128 -9 125 0
127 1 138 24 9 20 9 26 -2 30 -9 3 -14 -2 -14 -14 0 -22 -16 -27 -23 -7 -3 9
-9 7 -24 -5 -15 -14 -22 -15 -32 -5 -9 9 -14 9 -22 -3 -9 -13 -10 -13 -6 0 2
8 -3 21 -12 28 -14 12 -12 13 14 8 30 -6 30 -6 6 14 -13 11 -21 24 -17 27 4 4
10 3 14 -2 8 -12 57 -35 73 -35 6 0 7 5 4 10 -3 6 -15 10 -26 10 -10 0 -19 4
-19 9 0 5 -12 12 -27 16 -26 6 -27 7 -8 17 21 12 35 28 35 42 0 5 -6 3 -14 -3
-11 -9 -15 -9 -20 1 -3 7 -3 3 0 -9z m-57 -95 c0 -7 -4 -22 -9 -33 -6 -16 -8
-14 -7 13 0 17 4 32 9 32 4 0 8 -6 7 -12z"/>
<path d="M1431 144 c0 -11 3 -14 6 -6 3 7 2 16 -1 19 -3 4 -6 -2 -5 -13z"/>
<path d="M2968 153 c7 -3 16 -2 19 1 4 3 -2 6 -13 5 -11 0 -14 -3 -6 -6z"/>
<path d="M3075 140 c-3 -5 -1 -10 4 -10 6 0 11 5 11 10 0 6 -2 10 -4 10 -3 0
-8 -4 -11 -10z"/>
<path d="M1705 129 c-4 -6 -5 -12 -2 -15 2 -3 7 2 10 11 7 17 1 20 -8 4z"/>
<path d="M2920 120 c0 -5 5 -10 10 -10 6 0 10 5 10 10 0 6 -4 10 -10 10 -5 0
-10 -4 -10 -10z"/>
<path d="M1301 109 c10 -6 10 -11 0 -23 -7 -8 -10 -20 -6 -26 3 -5 -1 -10 -10
-10 -9 0 -13 4 -10 10 3 5 -1 10 -9 10 -9 0 -14 -8 -13 -20 1 -12 8 -20 19
-20 26 0 31 -18 6 -23 -13 -2 1 -5 31 -6 46 -1 52 1 41 14 -7 8 -20 15 -28 15
-14 0 -14 2 1 17 16 16 19 16 28 3 8 -11 9 -9 3 10 -4 14 -12 28 -18 33 -8 5
-7 9 2 15 8 6 2 9 -18 9 -18 0 -26 -3 -19 -8z m29 -29 c0 -5 -4 -10 -10 -10
-5 0 -10 5 -10 10 0 6 5 10 10 10 6 0 10 -4 10 -10z"/>
<path d="M2500 105 c0 -8 4 -15 9 -15 5 0 11 7 15 15 3 9 0 15 -9 15 -8 0 -15
-7 -15 -15z"/>
<path d="M2957 113 c-4 -3 -7 -11 -7 -17 0 -6 5 -5 12 2 6 6 9 14 7 17 -3 3
-9 2 -12 -2z"/>
<path d="M1460 99 c0 -5 5 -7 10 -4 6 3 10 8 10 11 0 2 -4 4 -10 4 -5 0 -10
-5 -10 -11z"/>
<path d="M1490 94 c0 -8 5 -12 10 -9 6 4 8 11 5 16 -9 14 -15 11 -15 -7z"/>
<path d="M2450 102 c0 -12 19 -26 26 -19 2 2 -2 10 -11 17 -9 8 -15 8 -15 2z"/>
<path d="M3231 93 c-1 -12 4 -25 9 -28 12 -7 12 2 0 30 -8 19 -9 19 -9 -2z"/>
<path d="M2580 89 c0 -5 5 -7 10 -4 6 3 10 8 10 11 0 2 -4 4 -10 4 -5 0 -10
-5 -10 -11z"/>
<path d="M2850 90 c0 -5 5 -10 11 -10 5 0 7 5 4 10 -3 6 -8 10 -11 10 -2 0 -4
-4 -4 -10z"/>
<path d="M3023 83 c8 -9 20 -12 26 -9 19 12 12 24 -15 24 -23 0 -24 -2 -11
-15z"/>
<path d="M2425 80 c-3 -5 -1 -10 4 -10 6 0 11 5 11 10 0 6 -2 10 -4 10 -3 0
-8 -4 -11 -10z"/>
<path d="M2907 78 c-2 -7 -2 -28 0 -45 4 -26 10 -33 28 -33 30 0 49 41 29 67
-13 17 -14 17 -20 -4 -9 -32 -28 -29 -20 2 6 25 -8 36 -17 13z"/>
<path d="M2377 66 c-4 -10 -1 -13 9 -9 15 6 19 23 5 23 -5 0 -11 -7 -14 -14z"/>
<path d="M2500 68 c0 -4 9 -8 20 -8 11 0 20 4 20 8 0 4 -9 8 -20 8 -11 0 -20
-4 -20 -8z"/>
<path d="M3131 54 c-29 -24 -44 -21 -19 4 23 23 -9 12 -36 -13 -18 -17 -26
-20 -26 -10 0 22 -17 18 -23 -4 -3 -12 -16 -21 -33 -23 -16 -3 7 -5 50 -6 76
-1 80 0 108 30 47 51 32 67 -21 22z"/>
<path d="M1945 60 c-3 -5 -1 -10 4 -10 6 0 11 5 11 10 0 6 -2 10 -4 10 -3 0
-8 -4 -11 -10z"/>
<path d="M2140 59 c0 -5 5 -7 10 -4 6 3 10 8 10 11 0 2 -4 4 -10 4 -5 0 -10
-5 -10 -11z"/>
<path d="M2561 54 c0 -11 3 -14 6 -6 3 7 2 16 -1 19 -3 4 -6 -2 -5 -13z"/>
<path d="M2995 60 c3 -5 8 -10 11 -10 2 0 4 5 4 10 0 6 -5 10 -11 10 -5 0 -7
-4 -4 -10z"/>
<path d="M1432 53 c-17 -7 -5 -23 18 -23 13 0 17 5 14 15 -6 16 -11 17 -32 8z"/>
<path d="M2590 53 c0 -11 22 -23 41 -23 5 0 9 7 9 16 0 13 -3 14 -13 5 -10 -8
-17 -7 -25 1 -8 8 -12 9 -12 1z"/>
<path d="M1580 40 c0 -6 7 -10 15 -10 8 0 15 2 15 4 0 2 -7 6 -15 10 -8 3 -15
1 -15 -4z"/>
<path d="M1680 34 c0 -18 15 -30 38 -31 22 -2 30 11 13 22 -5 3 -13 0 -17 -6
-5 -9 -11 -7 -21 6 -7 11 -13 15 -13 9z"/>
<path d="M1912 24 c-11 -12 -10 -15 3 -20 21 -8 29 1 18 19 -7 13 -10 13 -21
1z"/>
<path d="M2520 30 c-11 -7 -12 -12 -3 -21 16 -16 32 -8 24 13 -4 12 -10 15
-21 8z"/>
<path d="M2990 29 c0 -5 5 -7 10 -4 6 3 10 8 10 11 0 2 -4 4 -10 4 -5 0 -10
-5 -10 -11z"/>
<path d="M2156 23 c-11 -11 -6 -23 9 -23 8 0 15 4 15 9 0 13 -16 22 -24 14z"/>
<path d="M2570 19 c0 -5 5 -7 10 -4 6 3 10 8 10 11 0 2 -4 4 -10 4 -5 0 -10
-5 -10 -11z"/>
<path d="M2880 21 c0 -6 5 -13 10 -16 6 -3 10 1 10 9 0 9 -4 16 -10 16 -5 0
-10 -4 -10 -9z"/>
<path d="M4250 10 c0 -5 5 -10 11 -10 5 0 7 5 4 10 -3 6 -8 10 -11 10 -2 0 -4
-4 -4 -10z"/>
</g>
</svg>
