<?xml version="1.0" standalone="no"?>
<!DOCTYPE svg PUBLIC "-//W3C//DTD SVG 20010904//EN"
 "http://www.w3.org/TR/2001/REC-SVG-20010904/DTD/svg10.dtd">
<svg version="1.0" xmlns="http://www.w3.org/2000/svg"
 width="640.000000pt" height="852.000000pt" viewBox="0 0 640.000000 852.000000"
 preserveAspectRatio="xMidYMid meet">
<metadata>
Created by potrace 1.11, written by Peter Selinger 2001-2013
</metadata>
<g transform="translate(0.000000,852.000000) scale(0.100000,-0.100000)"
fill="#000000" stroke="none">
<path d="M0 7730 c0 -451 4 -790 9 -790 5 0 14 15 22 33 7 17 18 35 23 39 19
12 25 -15 9 -39 -8 -13 -11 -23 -5 -23 5 0 9 -18 8 -40 -1 -27 -11 -51 -34
-79 -28 -35 -32 -47 -32 -103 l0 -63 36 39 c37 41 54 43 33 5 -9 -17 -9 -24 0
-27 6 -2 11 -8 11 -14 0 -7 -4 -7 -13 0 -16 14 -32 4 -41 -25 -4 -13 -12 -23
-17 -23 -15 0 -10 -27 6 -34 19 -7 19 -21 0 -40 -9 -9 -11 -17 -5 -21 13 -8
30 37 25 65 -2 11 0 18 6 15 10 -7 41 19 34 27 -3 3 6 15 19 27 15 14 22 29
19 39 -5 11 -2 14 10 9 18 -7 33 25 21 45 -5 8 0 7 11 -2 12 -10 16 -10 11 -2
-9 14 18 62 35 62 6 0 7 -5 3 -12 -4 -7 -3 -8 4 -4 6 4 9 13 6 21 -4 8 -10 12
-15 9 -17 -10 -3 32 18 55 12 13 19 29 16 37 -3 8 1 14 11 14 9 0 16 7 16 15
0 9 7 18 15 21 8 4 18 24 21 45 4 21 10 39 14 39 4 0 13 12 20 28 13 27 15 34
18 60 1 8 9 11 20 8 13 -4 19 -1 19 9 0 8 -4 15 -8 15 -4 0 -5 9 -2 20 8 31
22 13 19 -25 -1 -19 1 -35 6 -35 8 0 3 -37 -9 -70 -14 -35 -12 -48 5 -46 12 1
17 -7 18 -24 1 -14 5 -33 9 -43 4 -10 5 -21 1 -24 -3 -3 0 -13 7 -21 10 -13 9
-14 -2 -7 -10 6 -12 4 -6 -4 16 -27 36 -136 25 -139 -8 -3 -8 -8 0 -17 8 -10
8 -20 2 -32 -7 -12 -6 -20 4 -28 13 -9 17 -26 28 -111 2 -11 6 -26 9 -31 4 -7
-9 -9 -36 -8 -23 2 -46 0 -52 -3 -5 -4 -14 -7 -20 -9 -5 -1 -21 -5 -35 -8 -14
-4 -40 -8 -58 -10 -18 -2 -38 -8 -45 -13 -7 -5 -37 -15 -67 -22 -30 -7 -58
-18 -62 -24 -4 -5 -27 -11 -51 -12 -25 -1 -50 -5 -56 -8 -13 -9 -16 -4992 -3
-4998 5 -2 21 -21 35 -43 l27 -40 -32 -5 -33 -5 -3 -103 -3 -104 120 7 121 7
26 -59 c48 -103 48 -106 1 -150 -43 -40 -40 -39 -177 -43 -8 0 1 -13 23 -31
36 -30 46 -52 28 -63 -4 -3 -33 11 -62 32 -30 21 -60 41 -66 45 -10 7 -13 -82
-13 -427 l0 -436 3200 0 3200 0 0 33 0 34 -56 -5 c-71 -6 -66 13 6 22 l50 7 0
2979 0 2980 -69 0 c-74 0 -162 -23 -271 -69 -36 -16 -101 -43 -145 -61 -96
-40 -234 -112 -451 -236 -89 -50 -215 -118 -280 -151 -285 -143 -697 -290
-869 -310 -22 -2 -51 -6 -65 -9 -61 -10 -115 -12 -129 -4 -11 7 -6 8 16 5 37
-4 83 6 82 18 -1 15 44 48 58 43 10 -4 11 -1 3 14 -13 24 -13 40 0 40 6 0 10
-8 11 -17 0 -14 2 -15 6 -3 9 24 45 54 65 55 21 2 68 47 68 65 0 5 7 10 16 10
8 0 13 4 10 9 -6 9 30 24 53 21 8 -1 10 3 5 11 -5 9 -2 10 11 5 15 -5 16 -4 5
9 -7 9 -11 17 -8 20 7 7 48 -7 48 -16 0 -5 9 -9 19 -9 15 0 19 5 16 22 -3 15
4 30 22 45 14 13 30 23 35 23 4 0 8 7 8 15 0 8 6 15 14 15 8 0 16 6 19 14 4
10 0 12 -14 9 -10 -3 -19 -9 -19 -14 0 -5 -14 -6 -30 -2 -19 3 -30 1 -30 -6 0
-6 9 -11 20 -11 11 0 20 -4 20 -8 0 -5 -13 -7 -30 -4 -18 3 -30 0 -30 -7 0 -6
-10 -11 -23 -11 -12 0 -28 -9 -35 -20 -7 -12 -18 -18 -24 -14 -8 5 -9 2 -5 -9
6 -16 5 -16 -19 -1 -26 18 -49 10 -24 -7 12 -8 10 -9 -7 -4 -16 4 -28 -1 -43
-18 -14 -16 -29 -23 -43 -20 -14 2 -33 -6 -51 -22 -17 -14 -41 -25 -58 -25
-15 0 -28 -4 -28 -10 0 -5 -5 -10 -10 -10 -6 0 -30 -9 -52 -20 -23 -11 -48
-20 -55 -20 -9 0 -11 -5 -7 -12 6 -10 4 -10 -8 0 -11 9 -18 10 -23 2 -3 -5
-13 -10 -22 -10 -9 0 -24 -7 -34 -16 -9 -8 -26 -16 -37 -17 -11 0 -20 -6 -19
-12 1 -5 -4 -9 -11 -7 -7 1 -15 -5 -18 -13 -4 -8 -12 -15 -19 -15 -7 0 -18 -7
-25 -15 -7 -8 -20 -15 -29 -15 -9 0 -43 -19 -76 -41 l-59 -42 -196 6 c-107 4
-208 8 -225 11 -16 3 -77 10 -135 16 -142 16 -437 77 -510 107 -8 3 -22 7 -30
8 -44 6 -80 18 -80 27 0 6 -6 8 -13 5 -6 -2 -23 0 -37 6 -14 5 -34 12 -45 14
-11 2 -26 11 -33 20 -6 9 -12 14 -12 10 0 -4 -15 -1 -34 7 -19 8 -37 12 -40 9
-3 -3 -12 -1 -19 5 -8 7 -17 9 -20 5 -4 -3 -10 2 -13 11 -5 13 -9 14 -14 6 -6
-9 -13 -7 -28 8 -11 11 -23 18 -26 14 -3 -3 -6 0 -6 7 0 7 -6 11 -13 8 -7 -3
-21 1 -31 9 -11 7 -22 11 -26 9 -12 -8 -71 16 -64 26 3 5 -2 6 -10 3 -9 -3
-16 -2 -16 3 0 5 -17 15 -37 22 -89 31 -347 158 -493 241 -154 88 -340 211
-340 223 0 5 6 4 14 -2 8 -7 17 -8 19 -4 11 17 52 9 127 -25 19 -9 41 -15 48
-14 6 2 12 -1 12 -5 0 -5 12 -9 28 -10 26 -2 26 -1 5 9 -13 6 -23 15 -23 21 0
5 -7 6 -16 3 -11 -4 -18 1 -21 15 -3 12 -11 18 -19 15 -8 -3 -14 -1 -14 5 0 5
-14 23 -30 39 -17 17 -28 30 -25 30 2 0 -3 9 -12 20 -10 11 -22 20 -28 20 -5
0 -3 -5 5 -10 9 -6 10 -10 3 -10 -7 0 -17 9 -24 21 -6 11 -31 30 -55 41 -25
10 -42 23 -39 29 4 5 -1 9 -9 9 -9 0 -16 6 -16 13 0 8 -4 7 -10 -3 -8 -13 -10
-12 -10 3 0 9 -7 17 -15 17 -8 0 -15 5 -15 11 0 5 -4 7 -10 4 -5 -3 -10 -2
-10 4 0 6 -20 20 -45 31 -25 11 -46 25 -46 30 -1 6 -3 15 -4 20 -1 6 -3 13 -4
18 -1 4 -5 1 -10 -7 -8 -12 -12 -12 -25 -2 -18 15 -22 41 -6 41 5 0 7 6 4 13
-3 8 1 19 8 25 14 11 17 12 54 12 14 0 23 4 19 10 -3 6 -1 10 4 10 6 0 11 -4
11 -10 0 -5 10 -10 23 -10 12 0 29 -5 37 -10 10 -6 24 -2 48 16 25 20 36 23
46 15 16 -13 35 -11 53 6 7 6 18 13 25 16 7 2 10 8 6 12 -4 4 -14 2 -23 -5
-11 -9 -15 -9 -15 -1 0 6 8 15 18 18 9 4 22 14 29 22 7 9 13 12 13 7 0 -5 7
-3 15 4 9 7 18 10 22 6 8 -7 -27 -35 -44 -36 -7 0 -10 -6 -7 -14 3 -8 1 -17
-5 -21 -6 -3 -11 -15 -11 -26 0 -14 7 -19 26 -19 19 0 25 4 21 15 -9 22 13 29
28 9 14 -18 14 -18 15 4 0 24 7 27 30 12 15 -9 30 3 30 25 0 6 -4 3 -10 -5 -5
-8 -12 -11 -16 -7 -4 4 1 16 12 28 17 19 19 19 26 2 6 -14 7 -11 5 9 -3 19 0
25 10 21 7 -3 13 1 13 10 0 9 5 19 12 23 6 4 8 3 4 -4 -3 -5 0 -12 6 -14 8 -3
4 -9 -10 -17 -22 -12 -32 -61 -12 -61 6 0 10 5 10 12 0 9 3 9 12 0 18 -18 28
-14 25 9 -1 12 5 24 13 26 13 4 13 3 0 -6 -13 -10 -13 -12 0 -21 11 -7 16 -5
19 7 2 13 5 14 12 2 7 -10 11 -11 17 -2 4 6 21 14 37 18 23 5 26 4 15 -4 -13
-9 -13 -11 3 -11 9 0 17 4 17 10 0 5 7 7 15 4 10 -4 15 0 15 11 0 12 6 16 19
12 14 -3 18 -1 14 10 -4 9 2 16 16 20 11 3 21 11 21 18 0 7 10 13 23 13 37 0
84 22 68 31 -11 7 -9 13 6 28 11 11 23 27 26 37 4 9 11 14 17 11 5 -3 10 0 10
7 0 11 2 10 9 0 13 -20 22 10 36 113 1 11 7 19 12 18 11 -2 9 39 -2 56 -3 6
-2 11 3 11 5 0 9 15 9 33 0 17 1 43 2 57 3 51 -6 216 -12 227 -4 6 -3 14 3 18
10 6 8 53 -3 72 -4 6 -7 22 -6 34 1 39 -10 149 -16 159 -3 5 -8 24 -10 42 -14
112 -32 179 -55 206 -129 152 -170 202 -170 207 0 3 -4 11 -10 18 -38 47 -61
80 -92 132 -67 113 -97 172 -91 179 4 3 1 6 -5 6 -6 0 -14 15 -17 33 -4 17
-16 46 -26 63 -10 17 -16 34 -13 37 3 3 2 12 -2 19 -5 7 -9 19 -10 26 -7 44
24 42 -698 42 l-686 0 0 -790z m46 728 c-1 -31 -6 -53 -13 -56 -7 -2 -13 1
-13 8 0 6 4 8 10 5 13 -8 13 1 0 26 -8 14 -7 19 2 19 10 0 9 3 -1 9 -12 8 -12
12 -2 25 8 9 14 16 16 16 1 0 1 -23 1 -52z m550 -8 c2 -22 -1 -40 -7 -40 -5 0
-9 21 -9 47 0 55 12 51 16 -7z m-562 -85 c-4 -8 -8 -15 -10 -15 -2 0 -4 7 -4
15 0 8 4 15 10 15 5 0 7 -7 4 -15z m11 -45 c3 -5 1 -10 -4 -10 -6 0 -11 5 -11
10 0 6 2 10 4 10 3 0 8 -4 11 -10z m570 -111 c-2 -50 -6 -94 -9 -97 -11 -10
-19 7 -26 53 -7 46 4 70 21 44 5 -8 9 -10 9 -5 0 5 -7 18 -17 28 -9 11 -11 18
-5 18 7 0 12 14 12 31 0 16 4 28 9 24 5 -3 8 -46 6 -96z m5 -235 c0 -56 -3
-73 -16 -78 -8 -3 -13 -2 -10 2 3 5 1 48 -4 97 -5 49 -6 93 -3 99 13 20 32
-50 33 -120z m-57 -19 c4 -8 2 -17 -3 -20 -6 -4 -10 3 -10 14 0 25 6 27 13 6z
m-3 -66 c0 -11 -4 -17 -10 -14 -5 3 -10 13 -10 21 0 8 5 14 10 14 6 0 10 -9
10 -21z m57 -51 c-3 -8 -6 -5 -6 6 -1 11 2 17 5 13 3 -3 4 -12 1 -19z m3 -49
c0 -5 -4 -9 -10 -9 -5 0 -10 7 -10 16 0 8 5 12 10 9 6 -3 10 -10 10 -16z m-78
-19 c5 -32 -7 -42 -14 -12 -4 16 0 42 7 42 1 0 5 -13 7 -30z m68 -4 c0 -11
-19 -15 -25 -6 -3 5 1 10 9 10 9 0 16 -2 16 -4z m-73 -58 c-3 -8 -6 -5 -6 6
-1 11 2 17 5 13 3 -3 4 -12 1 -19z m48 -44 c0 -30 3 -58 7 -60 4 -3 8 -11 8
-17 0 -7 -4 -6 -11 3 -8 11 -9 9 -3 -10 9 -31 8 -76 -2 -92 -11 -18 -16 -46
-16 -100 0 -30 -5 -49 -14 -52 -10 -4 -14 3 -14 24 0 17 5 30 11 30 8 0 8 4 1
13 -10 12 -9 79 4 172 2 22 6 58 8 81 2 35 11 64 20 64 1 0 2 -25 1 -56z m-50
-4 c3 -5 1 -10 -4 -10 -6 0 -11 5 -11 10 0 6 2 10 4 10 3 0 8 -4 11 -10z
m-311 -235 c-4 -8 -10 -15 -15 -15 -4 0 -6 7 -3 15 4 8 10 15 15 15 4 0 6 -7
3 -15z m392 -61 c0 -16 -2 -33 -6 -39 -7 -9 -9 -28 -13 -122 -1 -18 -5 -33 -9
-33 -7 0 -10 16 -7 36 0 4 -5 11 -13 16 -10 7 -10 11 -1 15 10 3 10 10 2 24
-7 15 -6 23 5 35 10 10 13 25 9 44 -3 16 -3 37 1 46 9 25 31 10 32 -22z m-316
-24 c0 -5 -4 -10 -10 -10 -5 0 -10 5 -10 10 0 6 5 10 10 10 6 0 10 -4 10 -10z
m265 -30 c3 -5 1 -10 -4 -10 -6 0 -11 5 -11 10 0 6 2 10 4 10 3 0 8 -4 11 -10z
m-306 -66 c-6 -8 -9 -20 -6 -28 3 -8 -2 -16 -14 -19 -11 -3 -22 0 -25 7 -6 15
11 61 28 80 11 12 14 11 21 -6 4 -12 3 -26 -4 -34z m312 -77 c4 -16 3 -25 -2
-21 -12 7 -11 -3 2 -25 13 -20 4 -71 -12 -71 -6 0 -8 9 -4 21 4 11 2 33 -3 47
-22 57 -23 80 -5 78 9 -2 20 -15 24 -29z m-421 18 c0 -10 -53 -85 -57 -81 -6
6 38 86 48 86 5 0 9 -2 9 -5z m65 -53 c-3 -7 -5 -21 -5 -31 0 -9 -9 -27 -20
-39 -11 -12 -20 -25 -20 -31 0 -5 -6 -11 -14 -14 -8 -3 -17 -19 -21 -35 -7
-34 -21 -43 -50 -31 -11 4 -14 8 -7 8 7 1 10 6 7 11 -3 6 -1 10 4 10 29 0 91
98 91 144 0 19 5 24 20 23 13 -1 19 -6 15 -15z m459 -144 c-4 -89 -5 -153 -2
-168 2 -8 -1 -16 -7 -17 -11 -3 -15 186 -3 193 3 2 4 14 0 26 -3 12 -1 19 5
15 5 -3 9 -25 7 -49z m-99 32 c3 -5 -1 -10 -10 -10 -9 0 -13 5 -10 10 3 6 8
10 10 10 2 0 7 -4 10 -10z m-8 -82 c13 -17 15 -68 3 -68 -5 0 -6 -10 -2 -22 4
-13 5 -50 1 -83 -6 -66 -9 -64 -13 10 -2 28 -6 60 -10 73 -5 14 -3 36 5 54 10
25 10 31 -2 39 -8 5 -9 9 -3 9 6 0 16 -6 21 -12z m-477 -8 c0 -5 -2 -10 -4
-10 -3 0 -8 5 -11 10 -3 6 -1 10 4 10 6 0 11 -4 11 -10z m457 -292 c-3 -8 -6
-5 -6 6 -1 11 2 17 5 13 3 -3 4 -12 1 -19z m923 -58 c0 -5 -2 -10 -4 -10 -3 0
-8 5 -11 10 -3 6 -1 10 4 10 6 0 11 -4 11 -10z m-93 -42 c-3 -8 -6 -5 -6 6 -1
11 2 17 5 13 3 -3 4 -12 1 -19z m-12 -18 c3 -5 3 -10 -2 -10 -4 0 -19 -3 -33
-6 -24 -6 -25 -6 -5 9 24 19 32 21 40 7z m-243 -45 c0 -5 -9 -14 -21 -20 -11
-5 -21 -14 -21 -19 0 -4 -7 -3 -15 4 -13 10 -12 15 8 31 23 19 47 21 49 4z
m-392 -36 c0 -6 -6 -9 -14 -6 -9 4 -17 -1 -19 -11 -3 -12 -5 -11 -6 6 -1 16 5
22 19 22 11 0 20 -5 20 -11z m72 -41 c12 -14 17 -16 21 -6 3 10 4 9 3 -1 -1
-8 -13 -15 -27 -17 -23 -2 -26 1 -23 19 2 12 2 16 -2 10 -7 -15 -40 -17 -49
-3 -21 34 46 32 77 -2z m-147 4 c-3 -3 -11 0 -18 7 -9 10 -8 11 6 5 10 -3 15
-9 12 -12z m218 -17 c-3 -9 -8 -14 -10 -11 -3 3 -2 9 2 15 9 16 15 13 8 -4z
m3714 -861 c-3 -3 -12 -4 -19 -1 -8 3 -5 6 6 6 11 1 17 -2 13 -5z m-137 -28
c0 -2 -7 -7 -16 -10 -8 -3 -12 -2 -9 4 6 10 25 14 25 6z m-372 -301 c-2 -1
-16 -5 -33 -9 -28 -7 -29 -6 -10 7 10 8 25 12 33 10 7 -3 12 -7 10 -8z m2212
-3889 c-15 -15 -12 -27 8 -25 49 5 61 -1 72 -37 10 -30 10 -39 -3 -52 -13 -13
-19 -13 -31 -2 -10 8 -21 9 -28 3 -7 -5 -29 -8 -48 -8 -19 1 -38 -3 -42 -9 -5
-7 -8 -6 -8 4 0 13 -1 13 -10 0 -8 -13 -10 -13 -10 2 0 33 34 89 57 94 24 6
32 24 11 24 -10 0 -10 2 0 8 19 13 45 11 32 -2z m-65 -897 c5 -6 3 -9 -7 -9
-24 0 -48 11 -48 22 0 10 39 1 55 -13z m-73 -157 c9 -9 8 -12 -4 -12 -25 0
-48 11 -43 20 7 11 32 7 47 -8z m-267 -152 c-11 -5 -27 -9 -35 -9 -13 -1 -13
0 0 9 8 5 24 9 35 9 l20 0 -20 -9z m175 -6 c0 -2 -9 -4 -20 -4 -11 0 -20 4
-20 9 0 5 9 7 20 4 11 -3 20 -7 20 -9z m158 -19 c7 -7 -45 -6 -90 1 -64 11
-42 21 24 12 34 -4 64 -10 66 -13z"/>
<path d="M4444 8498 c-4 -13 -9 -28 -10 -35 -7 -38 -58 -175 -69 -187 -8 -7
-11 -17 -7 -21 4 -5 -1 -5 -10 -2 -12 4 -15 2 -11 -9 7 -20 -6 -66 -17 -59 -6
3 -10 0 -10 -7 0 -27 -25 -68 -42 -68 -10 0 -19 -11 -23 -30 -3 -16 -15 -32
-25 -35 -11 -3 -17 -12 -14 -19 3 -8 -5 -24 -18 -38 -13 -13 -17 -17 -10 -8
21 28 13 32 -19 8 -28 -21 -29 -24 -13 -35 10 -7 13 -13 7 -13 -6 0 -22 9 -36
20 -18 15 -26 17 -30 8 -3 -10 -7 -10 -20 1 -13 10 -17 10 -17 1 0 -8 -8 -10
-21 -7 -15 4 -18 2 -10 -7 7 -9 7 -16 -1 -24 -9 -9 -9 -12 -1 -12 6 0 13 5 15
12 3 7 9 8 18 3 10 -6 10 -11 -4 -21 -14 -10 -16 -16 -6 -34 6 -12 9 -24 7
-27 -3 -2 -8 5 -12 16 -9 28 -19 26 -33 -4 -6 -14 -15 -26 -19 -26 -5 -1 -23
-2 -42 -4 -32 -2 -55 -21 -45 -37 3 -5 -3 -11 -13 -15 -10 -4 -21 -11 -25 -17
-5 -7 -8 -6 -8 3 0 10 -3 11 -13 2 -8 -6 -17 -8 -20 -4 -4 3 -7 1 -7 -5 0 -7
-5 -12 -11 -12 -6 0 -8 10 -5 23 l6 22 -11 -23 c-10 -18 -9 -26 5 -41 17 -19
17 -20 -3 -33 -12 -7 -21 -18 -21 -25 0 -18 -19 -16 -26 2 -6 16 -24 11 -24
-6 0 -6 4 -8 8 -5 10 6 52 -30 52 -43 0 -5 -7 -14 -15 -21 -9 -8 -15 -8 -15
-2 0 6 6 13 13 15 7 3 6 6 -5 6 -23 1 -32 -17 -18 -34 8 -10 9 -15 2 -15 -6 0
-14 5 -17 10 -10 16 -28 11 -21 -6 5 -13 2 -15 -14 -11 -13 3 -20 0 -20 -10 0
-10 -7 -13 -22 -9 -13 3 -17 3 -10 0 19 -9 14 -24 -8 -24 -11 0 -20 -5 -20
-11 0 -6 8 -8 19 -4 11 3 23 0 27 -6 4 -7 3 -9 -3 -6 -6 4 -14 -5 -17 -20 -5
-19 -10 -23 -19 -14 -17 17 -27 13 -37 -15 -6 -14 -14 -22 -20 -19 -5 3 -10 1
-10 -4 0 -6 8 -11 17 -11 12 0 14 -3 6 -11 -8 -8 -17 -7 -31 2 -12 7 -25 9
-29 5 -4 -5 -2 -11 4 -13 23 -8 -12 -32 -37 -26 -16 4 -21 3 -16 -5 4 -7 1
-12 -6 -12 -17 0 -49 -36 -40 -45 4 -4 -4 -4 -17 0 -15 5 -21 4 -17 -3 11 -18
-39 -60 -58 -50 -10 6 -16 5 -16 -2 0 -7 -8 -9 -20 -5 -12 4 -20 2 -20 -5 0
-7 -7 -10 -15 -6 -8 3 -15 1 -15 -5 0 -6 -7 -8 -16 -5 -12 5 -14 1 -10 -17 3
-12 3 -17 0 -11 -4 9 -14 9 -39 1 -19 -6 -35 -13 -35 -17 0 -11 -30 -7 -31 4
0 6 -4 2 -9 -9 -5 -11 -9 -14 -9 -7 -1 6 -9 12 -19 12 -10 0 -24 -6 -31 -12
-11 -10 -13 -10 -7 0 10 17 -5 15 -32 -4 -13 -9 -26 -13 -30 -9 -3 3 0 10 8
15 8 6 10 10 5 10 -6 0 -17 -6 -24 -12 -10 -11 -11 -9 -5 7 7 19 7 19 -13 2
-18 -16 -21 -16 -26 -2 -4 8 -11 15 -17 15 -6 0 -8 -4 -5 -10 3 -5 -2 -11 -12
-11 -39 -3 -44 -4 -53 -19 -8 -12 -10 -12 -11 5 0 11 -3 14 -6 7 -2 -6 -8 -10
-13 -7 -13 8 -62 -14 -55 -25 3 -5 -7 -8 -25 -5 -16 2 -30 0 -30 -5 0 -12 83
-27 177 -31 24 -1 51 -8 60 -15 16 -12 15 -13 -12 -14 -24 0 -31 -4 -31 -20 0
-24 11 -26 20 -4 3 8 11 12 17 9 7 -5 7 -11 1 -17 -15 -15 -2 -48 18 -48 10 0
20 -3 23 -7 2 -5 2 -2 0 5 -2 8 4 12 15 10 9 -2 16 -12 15 -22 -1 -12 4 -16
14 -12 12 5 14 1 11 -17 -2 -13 2 -29 9 -36 11 -10 15 -8 22 11 l10 23 0 -23
c1 -13 5 -21 10 -17 5 3 13 0 16 -6 4 -5 13 -8 21 -5 7 3 16 1 19 -4 4 -6 -3
-10 -14 -10 -13 0 -21 -7 -21 -17 0 -9 3 -13 7 -10 10 11 34 -30 27 -47 -3 -9
-10 -14 -14 -11 -5 3 -11 1 -15 -5 -9 -15 13 -12 40 6 15 10 32 13 42 9 10 -5
21 -7 26 -7 4 1 7 -2 7 -8 0 -13 -23 -13 -37 1 -6 6 -17 8 -24 3 -9 -5 -5 -10
12 -17 l24 -10 -25 -7 c-16 -5 -19 -8 -7 -9 9 -1 17 -5 17 -11 0 -5 -8 -10
-17 -10 -14 0 -10 -8 15 -30 35 -30 35 -56 1 -47 -11 3 -19 2 -19 -3 0 -4 -9
-10 -19 -13 -16 -4 -19 0 -16 24 3 21 0 27 -11 22 -9 -3 -12 -12 -9 -24 7 -21
-5 -25 -23 -7 -9 9 -12 9 -12 -1 0 -7 9 -15 20 -18 11 -3 17 -10 14 -15 -3 -5
1 -17 8 -26 25 -29 33 -46 17 -38 -8 4 -5 0 5 -8 14 -12 16 -16 5 -16 -8 0
-20 4 -28 9 -12 8 -12 13 -3 24 10 12 10 16 -2 20 -18 7 -36 -11 -29 -29 8
-21 -11 -17 -25 6 -7 11 -17 20 -24 20 -7 0 -5 -7 5 -17 8 -10 17 -22 18 -28
1 -5 11 -8 23 -6 19 3 19 1 -4 -19 -21 -18 -22 -21 -5 -15 72 25 70 25 70 -16
1 -44 0 -45 -21 -24 -9 8 -23 15 -32 15 -14 0 -14 -2 -3 -9 7 -5 10 -14 7 -20
-4 -6 -12 -9 -17 -6 -5 4 -9 -8 -9 -24 0 -17 -5 -31 -11 -31 -6 0 -9 -6 -6
-13 3 -9 -6 -12 -32 -12 -31 0 -36 -3 -38 -23 l-1 -24 23 22 c25 24 40 21 48
-9 3 -15 0 -18 -17 -14 -19 4 -20 3 -3 -7 27 -17 89 -21 83 -5 -2 7 1 18 7 24
9 9 6 16 -13 31 -14 10 -21 22 -17 26 4 4 7 2 7 -4 0 -7 6 -12 14 -12 17 0 27
-25 19 -47 -5 -12 -2 -15 9 -11 9 4 20 2 25 -3 5 -5 9 5 10 27 1 20 7 40 15
45 7 5 8 9 3 9 -6 0 -16 -5 -23 -12 -9 -9 -12 -9 -12 0 0 6 11 14 25 18 14 3
25 10 25 15 0 5 6 6 14 3 21 -8 41 33 25 52 -7 8 -14 26 -15 40 -2 22 -1 24
12 13 21 -17 38 9 21 30 -10 12 -9 13 12 2 20 -11 25 -11 33 3 11 20 32 21 24
1 -3 -8 -2 -15 3 -15 5 0 14 7 21 15 10 12 10 15 -4 15 -20 0 -20 9 0 39 16
22 16 23 -6 16 -16 -5 -20 -4 -15 5 4 7 1 16 -6 21 -22 14 -26 11 -24 -15 2
-14 -2 -27 -9 -29 -7 -3 -13 1 -13 9 0 8 4 14 9 14 5 0 6 9 3 20 -5 16 -2 20
14 20 12 0 21 5 21 10 0 6 -6 10 -14 10 -8 0 -18 4 -21 10 -4 7 3 7 20 0 38
-15 45 -13 45 13 0 12 5 29 11 37 9 12 10 12 5 -3 -3 -10 -1 -27 4 -37 7 -13
6 -20 -3 -23 -6 -3 2 -11 19 -18 27 -12 30 -17 23 -37 -5 -12 -13 -22 -19 -22
-6 0 -8 6 -4 13 6 10 4 10 -7 0 -10 -10 -10 -16 -1 -25 15 -15 37 5 46 43 5
21 2 28 -14 32 -13 3 -18 10 -14 21 4 9 1 16 -6 16 -7 0 -1 11 14 25 20 18 32
23 44 16 9 -4 23 -6 30 -4 18 7 15 -8 -5 -24 -17 -13 -16 -14 4 -10 28 6 39
-9 23 -28 -10 -12 -9 -15 5 -15 10 0 27 -7 37 -17 15 -14 22 -14 45 -4 l28 13
-20 -23 c-39 -45 -45 -50 -55 -44 -5 3 -10 -1 -10 -10 0 -9 -4 -14 -9 -11 -5
4 -7 -4 -3 -16 4 -16 2 -19 -9 -13 -11 6 -12 5 -2 -5 10 -11 16 -9 32 11 11
13 20 18 21 12 0 -7 -4 -13 -10 -13 -5 0 -10 -6 -10 -13 0 -7 -9 -18 -21 -25
-13 -9 -18 -19 -14 -30 5 -13 2 -13 -15 3 -12 11 -20 13 -20 6 0 -8 -5 -7 -16
3 -8 9 -20 16 -26 16 -6 0 0 -8 12 -18 23 -18 20 -49 -2 -36 -7 4 -8 2 -4 -4
4 -7 13 -12 21 -12 7 0 15 -6 18 -14 6 -16 -6 -28 -38 -41 -20 -7 -20 -7 -1
-14 16 -6 17 -9 6 -16 -9 -5 -15 -4 -18 3 -2 7 -11 12 -20 12 -13 0 -13 3 4
16 17 14 17 15 1 10 -10 -3 -27 -1 -38 4 -23 13 -24 7 -3 -15 13 -13 14 -18 3
-31 -11 -13 -9 -14 16 -8 20 5 26 4 21 -5 -14 -21 33 -11 48 11 9 12 19 18 23
14 4 -4 1 -11 -7 -17 -12 -7 -13 -11 -2 -18 11 -6 10 -10 -4 -15 -16 -6 -16
-7 2 -20 14 -10 21 -11 26 -3 8 13 9 13 31 -35 19 -44 25 -45 57 -18 13 11 27
20 32 20 5 0 6 5 3 10 -4 6 -16 3 -32 -10 -31 -24 -51 -26 -32 -3 12 15 12 16
-3 11 -24 -10 -30 3 -10 22 15 15 18 15 30 1 11 -14 12 -13 6 9 -4 14 -9 31
-11 38 -3 7 3 12 16 12 21 0 44 -36 34 -52 -7 -12 15 -9 22 3 4 6 13 8 21 5 8
-3 13 -2 13 2 -1 4 -1 20 0 35 1 29 20 34 29 7 3 -7 0 -10 -7 -6 -6 4 -11 3
-11 -3 0 -5 8 -14 17 -20 15 -8 20 -4 28 27 7 22 18 38 29 40 14 3 17 -1 12
-15 -4 -14 -2 -20 9 -20 10 0 13 6 9 19 -6 21 6 24 24 6 7 -7 12 -8 12 -2 0 6
-3 14 -7 17 -10 11 -13 57 -2 57 5 0 9 -6 10 -12 0 -7 4 -3 9 10 9 22 30 31
30 13 0 -5 10 -12 23 -14 18 -4 17 -4 -6 -6 -17 0 -26 -5 -22 -12 4 -6 19 -7
35 -4 17 4 31 2 36 -6 5 -9 2 -10 -9 -6 -10 3 -17 2 -17 -3 0 -6 5 -10 12 -10
6 0 3 -7 -8 -15 -10 -8 -14 -15 -7 -15 6 0 19 7 28 16 14 15 15 14 11 -8 -6
-34 7 -53 30 -43 18 7 18 8 -1 15 -19 8 -19 9 2 9 12 1 23 -5 26 -11 2 -7 2 0
-1 16 l-4 29 35 -27 c20 -15 38 -27 41 -27 25 3 36 -1 36 -15 0 -9 5 -12 12
-8 8 5 9 2 5 -10 -5 -13 0 -18 23 -22 16 -4 29 -9 28 -13 -2 -19 4 -24 12 -11
7 11 10 12 10 2 0 -23 25 -41 43 -31 10 6 18 5 23 -2 4 -8 3 -9 -4 -5 -15 9
-15 3 -1 -28 12 -26 32 -27 22 -1 -3 9 1 15 8 15 7 0 3 10 -11 25 -13 14 -18
25 -11 25 7 0 9 5 6 10 -4 6 -10 8 -15 5 -10 -6 -22 23 -15 35 3 5 -5 17 -18
27 -19 15 -21 21 -11 30 8 8 10 23 4 47 -7 32 -5 35 19 41 14 4 29 12 33 18 6
9 8 9 8 0 0 -7 10 -13 23 -13 27 -1 57 -22 57 -41 0 -9 3 -10 8 -3 10 16 52
28 52 15 0 -6 6 -8 14 -5 8 3 16 -3 19 -15 3 -12 11 -21 19 -21 10 0 9 3 -2
10 -8 5 -10 10 -4 10 16 0 64 -24 64 -32 0 -5 6 -8 14 -8 7 0 19 -7 26 -15 9
-10 16 -12 25 -5 8 6 15 6 23 -2 9 -9 12 -9 12 3 0 8 3 10 8 4 4 -6 19 -16 34
-24 22 -11 30 -12 43 -1 12 10 16 10 20 -1 3 -8 17 -15 31 -15 32 -2 64 -31
57 -52 -4 -13 -3 -14 5 -3 8 11 12 10 21 -5 6 -11 11 -13 11 -6 0 18 24 15 39
-7 8 -11 21 -16 32 -14 11 3 30 -2 44 -11 18 -12 25 -13 25 -4 0 10 2 10 8 1
4 -7 19 -11 31 -8 13 2 29 1 35 -2 6 -4 19 -8 30 -9 11 0 22 -6 24 -12 5 -15
39 -16 48 -1 3 6 22 9 40 7 19 -2 34 -1 34 3 0 4 15 5 33 4 17 -1 35 2 38 7 4
6 53 10 113 10 l106 -1 -6 92 c-3 51 -7 106 -9 122 -2 17 -4 58 -4 93 -1 35
-5 61 -10 58 -5 -3 -12 1 -15 10 -9 24 -7 36 5 28 6 -3 4 8 -5 24 -9 17 -21
34 -27 38 -8 5 -10 2 -5 -7 4 -8 0 -5 -8 5 -9 11 -16 26 -16 34 0 12 5 11 22
-4 19 -16 20 -16 9 -1 -10 12 -12 34 -8 71 4 45 2 57 -14 72 -21 19 -28 91 -7
78 6 -4 1 10 -12 31 -13 21 -19 36 -14 32 15 -9 9 70 -7 90 -9 10 -15 46 -16
102 -5 266 -7 302 -19 319 -12 15 -13 9 -14 -38 -1 -60 -14 -53 -24 12 -5 34
-3 38 20 44 17 4 23 11 20 21 -3 8 -6 16 -6 19 0 2 -6 1 -14 -2 -18 -7 -24 17
-21 81 4 74 6 83 16 50 l8 -30 -2 35 c0 19 -5 41 -10 48 -6 8 -5 18 4 29 10
11 10 14 2 9 -7 -4 -13 -2 -13 3 0 6 7 11 15 11 17 0 20 11 6 26 -19 18 -23
75 -21 299 0 11 0 56 0 100 0 44 2 135 3 203 l2 122 -437 0 -437 0 -7 -22z
m-314 -568 c0 -5 -2 -10 -4 -10 -3 0 -8 5 -11 10 -3 6 -1 10 4 10 6 0 11 -4
11 -10z m-144 -125 c-16 -14 -34 -25 -40 -25 -6 0 -5 4 3 9 8 5 10 14 6 21 -5
8 -4 11 1 7 6 -3 16 -2 24 4 30 18 34 8 6 -16z m-52 6 c3 -5 -1 -14 -9 -21
-13 -10 -15 -9 -15 9 0 21 14 28 24 12z m-14 -45 c0 -2 -7 -7 -16 -10 -8 -3
-12 -2 -9 4 6 10 25 14 25 6z m-50 -25 c3 -1 -8 -13 -23 -27 -30 -28 -49 -26
-26 3 9 11 10 14 2 9 -7 -4 -13 -3 -13 2 0 15 12 22 34 17 12 -2 23 -4 26 -4z
m-373 -407 c-3 -3 -12 -4 -19 -1 -8 3 -5 6 6 6 11 1 17 -2 13 -5z m-417 -168
c0 -3 -4 -8 -10 -11 -5 -3 -10 -1 -10 4 0 6 5 11 10 11 6 0 10 -2 10 -4z m285
-366 c3 -5 1 -10 -4 -10 -6 0 -11 5 -11 10 0 6 2 10 4 10 3 0 8 -4 11 -10z
m2045 -31 c0 -6 -4 -7 -10 -4 -5 3 -10 11 -10 16 0 6 5 7 10 4 6 -3 10 -11 10
-16z m-2010 7 c0 -2 -7 -6 -15 -10 -8 -3 -15 -1 -15 4 0 6 7 10 15 10 8 0 15
-2 15 -4z m-115 -23 c16 -13 17 -15 3 -10 -10 4 -18 2 -18 -3 0 -6 -4 -10 -9
-10 -6 0 -9 9 -8 20 2 24 6 24 32 3z m56 -3 c-7 -3 -13 -20 -14 -37 -2 -26 -4
-29 -20 -19 -15 9 -15 11 -2 14 8 2 13 8 9 13 -10 17 6 48 22 42 11 -4 12 -8
5 -13z m169 -10 c0 -5 -2 -10 -4 -10 -3 0 -8 5 -11 10 -3 6 -1 10 4 10 6 0 11
-4 11 -10z m70 0 c0 -5 -2 -10 -4 -10 -3 0 -8 5 -11 10 -3 6 -1 10 4 10 6 0
11 -4 11 -10z m35 -20 c3 -6 -1 -7 -9 -4 -18 7 -21 14 -7 14 6 0 13 -4 16 -10z
m-85 -10 c0 -13 -12 -19 -26 -13 -21 8 -17 22 6 20 11 -1 20 -4 20 -7z m64
-36 c10 -25 1 -27 -19 -4 -15 17 -16 20 -3 20 9 0 19 -7 22 -16z m-344 -34 c0
-11 -4 -20 -9 -20 -5 0 -7 9 -4 20 3 11 7 20 9 20 2 0 4 -9 4 -20z m320 10 c0
-5 -4 -10 -10 -10 -5 0 -10 5 -10 10 0 6 5 10 10 10 6 0 10 -4 10 -10z m-401
-44 c-18 -18 -51 -24 -56 -11 -2 6 11 15 29 21 39 11 47 9 27 -10z m431 -32
c0 -8 -4 -12 -10 -9 -5 3 -10 10 -10 16 0 5 5 9 10 9 6 0 10 -7 10 -16z m240
-36 c0 -6 -7 -5 -15 2 -8 7 -15 17 -15 22 0 6 7 5 15 -2 8 -7 15 -17 15 -22z
m-656 -14 c9 -8 16 -23 16 -32 -1 -14 -3 -14 -12 3 -6 11 -18 26 -26 33 -9 6
-11 12 -5 12 7 0 19 -7 27 -16z m-19 -14 c3 -5 -1 -10 -10 -10 -9 0 -13 5 -10
10 3 6 8 10 10 10 2 0 7 -4 10 -10z m405 -4 c0 -3 -4 -8 -10 -11 -5 -3 -10 -1
-10 4 0 6 5 11 10 11 6 0 10 -2 10 -4z m-411 -66 c0 -9 -4 -8 -9 5 -5 11 -9
27 -9 35 0 9 4 8 9 -5 5 -11 9 -27 9 -35z m371 46 c0 -3 -4 -8 -10 -11 -5 -3
-10 -1 -10 4 0 6 5 11 10 11 6 0 10 -2 10 -4z m264 -11 c3 -8 1 -15 -4 -15 -6
0 -10 7 -10 15 0 8 2 15 4 15 2 0 6 -7 10 -15z m-247 -17 c-3 -8 -6 -5 -6 6
-1 11 2 17 5 13 3 -3 4 -12 1 -19z m288 12 c3 -5 -1 -10 -10 -10 -9 0 -13 5
-10 10 3 6 8 10 10 10 2 0 7 -4 10 -10z m-630 -20 c3 -5 -1 -10 -9 -10 -8 0
-18 5 -21 10 -3 6 1 10 9 10 8 0 18 -4 21 -10z m317 -12 c-7 -7 -12 -8 -12 -2
0 14 12 26 19 19 2 -3 -1 -11 -7 -17z m-32 -3 c11 -13 10 -14 -6 -9 -18 7 -18
7 -1 -13 9 -11 17 -24 17 -29 -1 -14 -40 37 -40 52 0 18 14 18 30 -1z m120
-12 c-1 -24 -2 -26 -11 -10 -5 9 -7 22 -4 27 10 17 15 11 15 -17z m307 10 c0
-17 -5 -16 -23 1 -12 13 -12 15 4 13 10 0 19 -7 19 -14z m-150 -15 c-7 -10
-19 -18 -27 -18 -12 1 -12 3 2 14 10 7 16 15 13 18 -3 2 1 5 9 5 11 0 12 -4 3
-19z m-547 3 c-8 -5 -26 -12 -40 -15 -24 -7 -24 -6 -6 8 11 9 29 16 40 16 17
-1 18 -2 6 -9z m-140 -21 c0 -5 -4 -10 -10 -10 -5 0 -10 5 -10 10 0 6 5 10 10
10 6 0 10 -4 10 -10z m65 -1 c4 -6 4 -13 0 -17 -4 -4 -10 -1 -12 6 -3 6 -9 10
-14 6 -5 -3 -9 0 -9 5 0 14 27 14 35 0z m835 -9 c-11 -21 -40 -28 -40 -9 0 6
6 9 14 6 8 -3 17 1 20 9 3 8 8 14 11 14 3 0 1 -9 -5 -20z m-310 0 c0 -5 -4
-10 -10 -10 -5 0 -10 5 -10 10 0 6 5 10 10 10 6 0 10 -4 10 -10z m888 -27 c10
-10 10 -13 -1 -13 -8 0 -20 6 -26 13 -8 10 -7 14 2 14 7 0 18 -6 25 -14z
m-908 3 c0 -3 -4 -8 -10 -11 -5 -3 -10 -1 -10 4 0 6 5 11 10 11 6 0 10 -2 10
-4z m55 -6 c8 -13 -5 -13 -25 0 -13 8 -13 10 2 10 9 0 20 -4 23 -10z m-170
-10 c3 -5 1 -10 -4 -10 -6 0 -11 5 -11 10 0 6 2 10 4 10 3 0 8 -4 11 -10z m70
0 c3 -5 -1 -10 -10 -10 -9 0 -13 5 -10 10 3 6 8 10 10 10 2 0 7 -4 10 -10z
m430 0 c3 -6 -1 -7 -9 -4 -18 7 -21 14 -7 14 6 0 13 -4 16 -10z m-518 -49 c0
-11 -6 -17 -14 -14 -16 6 -17 20 0 26 6 3 13 6 14 6 1 1 1 -8 0 -18z m-460
-13 c-3 -8 -6 -5 -6 6 -1 11 2 17 5 13 3 -3 4 -12 1 -19z m1163 -48 c0 -5 -2
-10 -4 -10 -3 0 -8 5 -11 10 -3 6 -1 10 4 10 6 0 11 -4 11 -10z"/>
<path d="M2980 8323 c-14 -7 -24 -20 -22 -29 2 -10 -3 -15 -15 -13 -25 3 -73
-11 -73 -22 0 -5 -6 -9 -14 -9 -7 0 -19 -6 -26 -14 -6 -8 -19 -12 -27 -9 -12
5 -14 3 -8 -7 5 -9 4 -11 -3 -6 -7 4 -12 14 -12 22 0 19 -7 18 -32 -6 -26 -24
-50 -27 -42 -5 8 20 -25 32 -37 14 -7 -11 -9 -11 -9 -1 0 7 -5 10 -10 7 -6 -4
-9 -14 -8 -23 2 -12 -4 -17 -21 -17 -13 0 -26 -6 -29 -14 -3 -8 0 -11 7 -7 6
4 11 3 11 -3 0 -5 -22 -8 -50 -7 -31 2 -47 0 -43 -7 4 -6 -4 -7 -21 -3 -16 4
-26 2 -26 -5 0 -7 -11 -8 -30 -4 -16 4 -30 3 -30 -2 0 -8 -31 -14 -92 -17 -18
-1 -26 -6 -25 -17 1 -14 6 -15 26 -8 23 9 119 8 456 -6 151 -7 243 -20 261
-38 3 -3 21 -1 40 3 18 4 34 4 34 0 0 -16 39 -17 60 -3 15 10 25 12 32 5 6 -6
21 -7 39 -2 16 5 29 5 29 0 0 -5 13 -2 30 6 20 11 35 12 47 6 9 -5 28 -6 42
-2 62 19 140 32 150 26 6 -4 11 -2 11 4 0 6 8 9 18 6 9 -3 28 1 42 9 14 8 19
14 13 15 -7 0 -13 7 -13 15 0 8 -6 15 -14 15 -8 0 -17 7 -20 15 -3 9 -14 15
-23 13 -10 -2 -17 2 -15 10 1 6 -3 12 -9 12 -6 0 -8 8 -5 18 5 15 4 15 -6 2
-8 -8 -32 -16 -55 -17 -34 -1 -43 3 -43 15 0 10 -3 13 -8 7 -9 -13 -42 -16
-42 -4 0 5 -12 9 -26 9 -14 0 -23 4 -20 9 3 5 -1 11 -9 15 -8 3 -17 0 -21 -6
-5 -7 -2 -8 7 -3 12 7 12 6 0 -6 -10 -11 -15 -11 -18 -1 -3 6 -11 12 -19 12
-8 0 -14 8 -15 18 0 9 -3 12 -5 6 -3 -7 -14 -10 -24 -7 -11 3 -35 2 -54 -1
-28 -5 -34 -10 -29 -24 5 -14 3 -15 -8 -4 -17 15 -33 16 -23 0 5 -7 2 -9 -9
-5 -9 3 -18 0 -21 -9 -3 -8 -11 -14 -18 -14 -9 0 -8 3 2 10 13 8 12 10 -2 10
-24 0 -23 17 2 32 23 15 27 33 5 24 -9 -3 -15 0 -15 8 0 19 -40 24 -70 9z
m-323 -139 c-3 -3 -12 -4 -19 -1 -8 3 -5 6 6 6 11 1 17 -2 13 -5z"/>
<path d="M2776 8271 c-3 -5 1 -11 9 -14 9 -4 12 -1 8 9 -6 16 -10 17 -17 5z"/>
<path d="M3480 8250 c0 -5 5 -10 10 -10 6 0 10 5 10 10 0 6 -4 10 -10 10 -5 0
-10 -4 -10 -10z"/>
<path d="M3596 8207 c3 -10 9 -15 12 -12 3 3 0 11 -7 18 -10 9 -11 8 -5 -6z"/>
<path d="M3690 8035 c0 -8 7 -15 15 -15 8 0 15 7 15 15 0 8 -7 15 -15 15 -8 0
-15 -7 -15 -15z"/>
<path d="M3662 8026 c7 -8 15 -12 17 -11 5 6 -10 25 -20 25 -5 0 -4 -6 3 -14z"/>
<path d="M4167 8027 c-3 -7 3 -13 14 -13 13 0 15 3 7 13 -6 7 -12 13 -13 13
-2 0 -5 -6 -8 -13z"/>
<path d="M3717 7973 c-10 -9 -9 -23 2 -23 5 0 11 7 15 15 5 15 -5 20 -17 8z"/>
<path d="M3655 7960 c3 -5 8 -10 11 -10 2 0 4 5 4 10 0 6 -5 10 -11 10 -5 0
-7 -4 -4 -10z"/>
<path d="M3679 7943 c-9 -11 -10 -14 -1 -9 6 4 12 3 12 -3 0 -5 -5 -13 -11
-17 -13 -8 7 -24 31 -24 12 0 12 2 1 9 -17 11 3 25 22 15 6 -4 5 -1 -3 7 -8 8
-20 20 -26 27 -9 10 -14 9 -25 -5z"/>
<path d="M3510 7929 c0 -5 5 -7 10 -4 6 3 10 1 10 -4 0 -6 5 -11 11 -11 8 0 8
5 -1 15 -14 17 -30 20 -30 4z"/>
<path d="M3645 7920 c3 -5 8 -10 11 -10 2 0 4 5 4 10 0 6 -5 10 -11 10 -5 0
-7 -4 -4 -10z"/>
<path d="M3508 7899 c-14 -9 19 -19 39 -12 10 4 14 2 10 -5 -4 -6 1 -13 10
-16 10 -2 1 -2 -19 1 -41 6 -53 -11 -17 -22 17 -6 19 -9 8 -16 -8 -5 -18 -4
-23 1 -6 6 -22 10 -36 10 -18 0 -31 8 -40 25 -14 27 -34 36 -65 31 -13 -2 -19
-10 -18 -22 1 -11 0 -13 -3 -6 -7 14 -34 16 -34 2 0 -5 -7 -10 -15 -10 -8 0
-15 -4 -15 -10 0 -5 -7 -10 -16 -10 -8 0 -13 4 -10 9 4 5 -3 7 -14 4 -11 -3
-17 -10 -13 -16 4 -6 -2 -8 -17 -4 -13 3 -30 1 -37 -4 -11 -10 -25 -13 -93
-24 -14 -2 -40 -8 -57 -14 -23 -6 -33 -6 -33 1 0 5 -7 8 -15 4 -8 -3 -15 0
-15 6 0 7 -7 5 -17 -4 -12 -9 -28 -12 -48 -8 -16 3 -46 2 -65 -2 -19 -4 -52
-8 -72 -8 -21 0 -38 -4 -38 -9 0 -4 -11 -6 -24 -4 -22 5 -24 2 -19 -18 4 -13
17 -35 31 -49 l25 -25 -8 25 -7 25 22 -23 c12 -13 25 -21 28 -17 4 3 0 10 -8
15 -13 8 -12 10 2 10 9 0 19 -4 22 -9 3 -5 17 -8 30 -8 18 0 23 4 19 16 -3 11
0 10 12 -4 9 -11 19 -19 23 -19 4 1 6 -2 4 -7 -1 -5 12 -9 29 -9 17 0 28 4 24
10 -3 6 -1 10 4 10 6 0 11 -4 11 -10 0 -5 5 -10 11 -10 5 0 8 4 5 8 -3 5 1 9
9 9 8 0 15 -6 15 -12 0 -8 13 -12 33 -11 22 2 32 7 31 18 -1 10 5 14 17 11 19
-5 25 -18 12 -26 -5 -2 -1 -2 7 1 8 2 20 4 25 3 52 -7 105 -6 105 1 0 4 4 8
10 8 5 0 7 -7 4 -15 -8 -20 10 -19 30 1 9 8 16 12 16 7 0 -4 4 -1 10 7 5 8 12
11 16 7 4 -4 2 -13 -4 -19 -17 -17 -15 -33 3 -18 10 9 15 9 15 1 0 -15 30 -14
49 3 9 7 27 17 41 21 l25 8 -24 -20 -25 -20 22 -12 c19 -10 27 -8 58 16 20 15
31 29 25 31 -18 6 -12 22 13 33 16 8 23 17 19 28 -4 14 -3 14 6 1 8 -11 7 -18
-6 -27 -9 -7 -14 -16 -10 -20 9 -8 48 27 42 37 -3 4 3 7 13 6 13 -1 17 6 16
31 -1 28 1 31 17 23 23 -13 32 -13 24 0 -13 21 27 22 46 1 23 -24 50 -25 56
-1 4 13 3 13 -6 0 -9 -13 -13 -12 -30 7 -13 14 -16 23 -9 25 6 2 8 10 4 16 -6
9 -13 9 -29 -3 -45 -32 -62 -17 -60 52 0 6 -6 9 -13 6 -8 -3 -14 -1 -14 3 0
10 -47 12 -62 3z m-11 -75 c-3 -3 -12 -4 -19 -1 -8 3 -5 6 6 6 11 1 17 -2 13
-5z m-18 -25 c-7 -4 -18 -4 -25 1 -6 6 -15 6 -19 2 -5 -4 -5 -2 -2 4 4 6 18 9
33 6 18 -3 22 -7 13 -13z m81 1 c0 -5 -7 -7 -15 -4 -8 4 -15 8 -15 10 0 2 7 4
15 4 8 0 15 -4 15 -10z m-20 -14 c0 -3 -4 -8 -10 -11 -5 -3 -10 -1 -10 4 0 6
5 11 10 11 6 0 10 -2 10 -4z m-57 -53 c-7 -2 -13 -11 -13 -19 0 -8 -4 -14 -9
-14 -5 0 -7 9 -4 20 3 11 13 20 22 19 10 0 11 -2 4 -6z m-53 -23 c0 -5 -2 -10
-4 -10 -3 0 -8 5 -11 10 -3 6 -1 10 4 10 6 0 11 -4 11 -10z m-89 -10 c5 0 9
-7 9 -15 0 -21 -14 -19 -36 7 -18 20 -18 21 -1 15 10 -4 23 -7 28 -7z m54 0
c3 -5 1 -10 -4 -10 -6 0 -11 5 -11 10 0 6 2 10 4 10 3 0 8 -4 11 -10z m-350
-20 c3 -5 1 -10 -4 -10 -6 0 -11 5 -11 10 0 6 2 10 4 10 3 0 8 -4 11 -10z
m390 -40 c3 -5 1 -10 -4 -10 -6 0 -11 5 -11 10 0 6 2 10 4 10 3 0 8 -4 11 -10z"/>
<path d="M3610 7896 c0 -8 5 -18 12 -22 7 -5 8 -3 3 6 -4 7 -2 16 6 21 11 7
10 9 -3 9 -10 0 -18 -6 -18 -14z"/>
<path d="M3885 7900 c3 -5 8 -10 11 -10 2 0 4 5 4 10 0 6 -5 10 -11 10 -5 0
-7 -4 -4 -10z"/>
<path d="M3651 7869 c-6 -11 -19 -19 -28 -19 -9 0 -14 -3 -10 -6 3 -4 20 -1
37 5 22 7 38 7 51 0 14 -7 19 -6 19 3 0 8 -13 18 -28 24 -25 9 -31 8 -41 -7z"/>
<path d="M3460 7870 c0 -5 7 -10 16 -10 8 0 12 5 9 10 -3 6 -10 10 -16 10 -5
0 -9 -4 -9 -10z"/>
<path d="M3804 7861 c14 -5 16 -10 7 -15 -6 -4 -18 -5 -26 -2 -20 7 -19 -1 5
-26 16 -17 20 -18 20 -6 0 9 7 19 16 22 13 5 14 9 4 21 -7 8 -20 15 -29 14
-12 0 -12 -2 3 -8z"/>
<path d="M3888 7859 c13 -5 28 -7 33 -3 5 3 9 1 9 -3 0 -5 9 -9 20 -9 43 0 11
19 -35 21 -39 2 -45 1 -27 -6z"/>
<path d="M3855 7829 c-12 -18 3 -22 20 -5 14 14 14 16 1 16 -8 0 -18 -5 -21
-11z"/>
<path d="M3700 7820 c0 -5 7 -10 16 -10 8 0 12 5 9 10 -3 6 -10 10 -16 10 -5
0 -9 -4 -9 -10z"/>
<path d="M3755 7810 c-3 -5 -3 -14 0 -20 3 -5 -8 -18 -25 -29 -25 -15 -28 -20
-15 -25 23 -8 33 -7 17 2 -9 6 -5 12 13 22 18 10 24 19 19 33 -4 13 -2 17 5
13 6 -4 11 -2 11 3 0 14 -17 14 -25 1z"/>
<path d="M3630 7751 c0 -5 5 -13 10 -16 6 -3 10 -2 10 4 0 5 -4 13 -10 16 -5
3 -10 2 -10 -4z"/>
<path d="M3592 7737 c-10 -11 -9 -17 3 -27 20 -17 31 -6 19 21 -8 18 -11 19
-22 6z"/>
<path d="M3765 7729 c7 -19 -10 -35 -20 -19 -4 6 -11 8 -16 4 -5 -3 -15 -1
-22 5 -10 7 -13 4 -14 -12 -2 -15 0 -18 6 -8 7 11 10 11 15 0 5 -11 7 -12 12
-1 5 10 9 9 19 -4 11 -16 13 -16 25 5 9 18 9 26 0 35 -8 8 -10 7 -5 -5z"/>
<path d="M3538 7682 c-10 -2 -18 -8 -18 -13 0 -11 11 -11 30 1 18 11 11 18
-12 12z"/>
<path d="M3186 7652 c-3 -5 1 -9 9 -9 8 0 12 4 9 9 -3 4 -7 8 -9 8 -2 0 -6 -4
-9 -8z"/>
<path d="M3460 7630 c0 -5 5 -10 10 -10 6 0 10 5 10 10 0 6 -4 10 -10 10 -5 0
-10 -4 -10 -10z"/>
<path d="M5337 7596 c-4 -10 -5 -21 -2 -24 9 -9 17 6 13 25 -3 17 -4 17 -11
-1z"/>
<path d="M3346 7284 c-4 -10 -1 -14 6 -12 15 5 23 28 10 28 -5 0 -13 -7 -16
-16z"/>
<path d="M370 7115 c0 -8 5 -15 10 -15 6 0 10 7 10 15 0 8 -4 15 -10 15 -5 0
-10 -7 -10 -15z"/>
<path d="M3065 6870 c3 -5 8 -10 11 -10 2 0 4 5 4 10 0 6 -5 10 -11 10 -5 0
-7 -4 -4 -10z"/>
<path d="M3090 6810 c0 -5 5 -10 10 -10 6 0 10 5 10 10 0 6 -4 10 -10 10 -5 0
-10 -4 -10 -10z"/>
<path d="M3124 6668 c-1 -16 -1 -27 0 -26 1 2 9 13 19 24 17 21 17 22 0 26
-14 4 -18 -2 -19 -24z"/>
<path d="M3320 6635 c14 -16 40 -20 40 -6 0 9 -24 21 -42 21 -6 0 -6 -6 2 -15z"/>
<path d="M3052 6598 c-7 -7 -12 -16 -12 -21 0 -5 7 -1 16 8 9 9 14 18 12 20
-2 3 -10 -1 -16 -7z"/>
<path d="M3455 6580 c-3 -5 -1 -10 4 -10 6 0 11 5 11 10 0 6 -2 10 -4 10 -3 0
-8 -4 -11 -10z"/>
<path d="M3410 6559 c0 -5 5 -7 10 -4 6 3 10 8 10 11 0 2 -4 4 -10 4 -5 0 -10
-5 -10 -11z"/>
<path d="M3370 6541 c0 -14 5 -19 15 -14 17 6 15 25 -3 31 -7 2 -12 -5 -12
-17z"/>
<path d="M3470 6545 c-11 -13 -10 -14 4 -9 9 3 16 10 16 15 0 13 -6 11 -20 -6z"/>
<path d="M3455 6500 c3 -5 10 -10 16 -10 5 0 9 5 9 10 0 6 -7 10 -16 10 -8 0
-12 -4 -9 -10z"/>
<path d="M3385 6483 c4 -13 2 -23 -4 -23 -5 0 -2 -13 7 -30 9 -16 23 -30 30
-30 8 0 5 8 -8 22 -11 12 -18 29 -15 37 2 9 0 23 -6 31 -8 12 -9 10 -4 -7z"/>
<path d="M3090 6476 c0 -9 5 -16 10 -16 6 0 10 4 10 9 0 6 -4 13 -10 16 -5 3
-10 -1 -10 -9z"/>
<path d="M3240 6460 c0 -6 7 -13 15 -16 8 -4 12 -10 9 -15 -7 -12 7 -11 26 1
13 8 13 10 -2 10 -9 0 -24 7 -32 16 -9 8 -16 10 -16 4z"/>
<path d="M3010 6456 c0 -2 9 -6 20 -9 11 -3 18 -1 14 4 -5 9 -34 13 -34 5z"/>
<path d="M3017 6413 c-9 -2 -15 -9 -12 -14 9 -14 22 -11 29 6 3 8 4 14 3 14
-1 -1 -10 -3 -20 -6z"/>
<path d="M3356 6412 c-3 -6 1 -13 10 -16 23 -9 28 -2 10 13 -8 7 -17 8 -20 3z"/>
<path d="M3441 6394 c0 -11 3 -14 6 -6 3 7 2 16 -1 19 -3 4 -6 -2 -5 -13z"/>
<path d="M3230 6385 c-14 -7 -29 -11 -33 -8 -5 3 -3 -4 5 -16 7 -12 23 -21 35
-21 13 0 23 -4 23 -10 0 -13 -36 -13 -62 1 -25 14 -31 8 -22 -25 4 -16 12 -25
19 -23 8 4 10 -3 7 -20 -3 -18 -1 -24 7 -19 6 4 11 14 11 21 0 9 6 12 15 9 10
-4 15 0 15 11 0 9 -4 14 -8 11 -4 -2 -14 0 -22 5 -13 9 -13 9 0 7 31 -5 66 11
66 31 0 16 -6 19 -30 17 -27 -4 -29 -3 -12 9 27 20 16 36 -14 20z"/>
<path d="M3305 6390 c-3 -6 1 -7 9 -4 18 7 21 14 7 14 -6 0 -13 -4 -16 -10z"/>
<path d="M2970 6379 c0 -5 5 -7 10 -4 6 3 10 8 10 11 0 2 -4 4 -10 4 -5 0 -10
-5 -10 -11z"/>
<path d="M3309 6358 c-1 -7 -1 -26 -1 -41 1 -24 -2 -27 -20 -21 -13 4 -18 2
-14 -4 3 -5 22 -10 42 -9 20 1 32 3 26 5 -6 2 -8 10 -5 18 3 9 0 12 -9 9 -9
-4 -14 2 -14 15 0 11 4 20 8 20 4 0 8 5 8 10 0 15 -20 12 -21 -2z"/>
<path d="M3834 6361 c4 -5 0 -12 -6 -14 -8 -3 -6 -6 5 -6 9 -1 17 6 17 14 0 8
-5 15 -11 15 -5 0 -8 -4 -5 -9z"/>
<path d="M3405 6280 c-3 -5 -1 -10 4 -10 6 0 11 5 11 10 0 6 -2 10 -4 10 -3 0
-8 -4 -11 -10z"/>
<path d="M3130 6260 c20 -13 33 -13 25 0 -3 6 -14 10 -23 10 -15 0 -15 -2 -2
-10z"/>
<path d="M3270 6260 c0 -5 5 -10 11 -10 5 0 7 5 4 10 -3 6 -8 10 -11 10 -2 0
-4 -4 -4 -10z"/>
<path d="M3440 6262 c0 -12 60 -55 68 -48 3 4 -3 13 -14 21 -31 25 -54 36 -54
27z"/>
<path d="M3014 6245 c-10 -8 -14 -15 -8 -15 5 0 19 7 30 15 10 8 14 15 8 15
-5 0 -19 -7 -30 -15z"/>
<path d="M3060 6250 c0 -5 5 -10 10 -10 6 0 10 5 10 10 0 6 -4 10 -10 10 -5 0
-10 -4 -10 -10z"/>
<path d="M3370 6240 c0 -11 5 -20 10 -20 6 0 10 9 10 20 0 11 -4 20 -10 20 -5
0 -10 -9 -10 -20z"/>
<path d="M3115 6240 c-3 -5 -1 -10 4 -10 6 0 11 5 11 10 0 6 -2 10 -4 10 -3 0
-8 -4 -11 -10z"/>
<path d="M3430 6230 c-14 -9 -13 -11 9 -14 19 -2 25 -17 11 -26 -11 -7 -9 -9
8 -7 26 2 29 19 6 41 -18 19 -15 18 -34 6z"/>
<path d="M3620 6236 c0 -2 8 -10 18 -17 15 -13 16 -12 3 4 -13 16 -21 21 -21
13z"/>
<path d="M3748 6223 c7 -3 16 -2 19 1 4 3 -2 6 -13 5 -11 0 -14 -3 -6 -6z"/>
<path d="M3041 6204 c0 -11 3 -14 6 -6 3 7 2 16 -1 19 -3 4 -6 -2 -5 -13z"/>
<path d="M3390 6200 c0 -5 7 -7 15 -4 8 4 15 8 15 10 0 2 -7 4 -15 4 -8 0 -15
-4 -15 -10z"/>
<path d="M4280 6150 c0 -5 5 -10 10 -10 6 0 10 5 10 10 0 6 -4 10 -10 10 -5 0
-10 -4 -10 -10z"/>
<path d="M3550 6140 c-13 -8 -12 -10 3 -10 9 0 17 5 17 10 0 12 -1 12 -20 0z"/>
<path d="M3500 6130 c0 -5 7 -7 15 -4 8 4 15 8 15 10 0 2 -7 4 -15 4 -8 0 -15
-4 -15 -10z"/>
<path d="M3383 6103 c9 -2 23 -2 30 0 6 3 -1 5 -18 5 -16 0 -22 -2 -12 -5z"/>
<path d="M3376 6052 c-3 -5 1 -15 9 -22 16 -14 20 -3 6 19 -5 8 -11 9 -15 3z"/>
<path d="M3405 6050 c3 -5 10 -10 16 -10 5 0 9 5 9 10 0 6 -7 10 -16 10 -8 0
-12 -4 -9 -10z"/>
<path d="M4490 5559 c0 -5 9 -9 20 -9 11 0 20 2 20 4 0 2 -9 6 -20 9 -11 3
-20 1 -20 -4z"/>
<path d="M4370 5350 c0 -5 5 -10 11 -10 5 0 7 5 4 10 -3 6 -8 10 -11 10 -2 0
-4 -4 -4 -10z"/>
<path d="M3865 5270 c-3 -5 -1 -10 4 -10 6 0 11 5 11 10 0 6 -2 10 -4 10 -3 0
-8 -4 -11 -10z"/>
</g>
</svg>
