<?xml version="1.0" standalone="no"?>
<!DOCTYPE svg PUBLIC "-//W3C//DTD SVG 20010904//EN"
 "http://www.w3.org/TR/2001/REC-SVG-20010904/DTD/svg10.dtd">
<svg version="1.0" xmlns="http://www.w3.org/2000/svg"
 width="1280.000000pt" height="960.000000pt" viewBox="0 0 1280.000000 960.000000"
 preserveAspectRatio="xMidYMid meet">
<metadata>
Created by potrace 1.11, written by Peter Selinger 2001-2013
</metadata>
<g transform="translate(0.000000,960.000000) scale(0.100000,-0.100000)"
fill="#000000" stroke="none">
<path d="M7378 9593 c23 -5 31 -23 9 -23 -7 0 -18 -5 -25 -12 -9 -9 -7 -14 6
-24 12 -9 13 -16 6 -21 -6 -5 -14 -20 -18 -35 -5 -22 -3 -26 9 -22 18 7 20 -7
3 -24 -9 -9 -8 -12 6 -12 9 0 15 4 12 9 -3 5 1 12 10 15 8 3 12 2 9 -4 -3 -6
2 -10 13 -10 15 0 18 -5 15 -24 -3 -13 0 -27 6 -30 6 -4 11 -20 11 -37 0 -19
5 -29 15 -29 13 0 14 4 5 20 -7 14 -7 20 0 20 5 0 10 -7 10 -16 0 -9 6 -14 13
-11 6 2 11 10 9 16 -1 7 2 10 6 7 5 -3 7 -17 4 -31 -3 -16 0 -25 9 -25 7 0 10
-2 7 -5 -3 -3 -18 -1 -33 5 -15 6 -94 12 -174 15 -144 4 -145 3 -76 -9 39 -7
85 -21 102 -30 18 -10 37 -15 42 -12 13 8 34 -21 27 -39 -3 -8 -11 -15 -18
-15 -9 0 -8 3 2 10 13 8 12 10 -4 10 -13 0 -16 -4 -11 -17 4 -10 10 -28 13
-41 2 -13 15 -28 28 -32 13 -5 24 -14 24 -20 0 -6 -6 -8 -12 -4 -10 5 -10 4
-1 -6 10 -11 15 -11 28 0 12 10 15 10 15 0 0 -9 9 -11 30 -7 28 6 29 6 12 -11
-11 -11 -32 -17 -54 -17 -20 1 -36 -3 -35 -8 1 -5 -6 -11 -16 -12 -24 -4 -35
-15 -15 -15 9 0 19 -7 22 -16 3 -8 10 -12 16 -9 5 3 10 -1 10 -10 0 -8 12 -20
28 -26 15 -6 22 -13 15 -16 -9 -3 -9 -12 -2 -29 5 -14 9 -36 9 -50 0 -17 5
-24 20 -24 11 0 20 -4 20 -8 0 -5 64 -28 143 -53 112 -35 135 -45 109 -47 -19
-2 -54 4 -80 12 -54 19 -53 19 -49 5 4 -22 -20 -20 -26 2 -6 22 -27 18 -27 -7
0 -8 -7 -14 -16 -14 -8 0 -12 5 -9 10 3 6 2 10 -3 10 -5 0 -14 -11 -20 -24
-10 -22 -14 -23 -36 -13 -13 6 -22 15 -20 19 3 5 -2 8 -10 8 -9 0 -16 -4 -16
-8 0 -10 -27 -8 -58 4 -27 11 -100 11 -126 -1 -16 -7 -18 -5 -13 10 7 16 3 17
-40 12 -27 -3 -57 -2 -68 3 -18 8 -18 9 5 10 24 1 24 1 6 15 -26 19 -47 19
-40 0 8 -19 -2 -19 -91 0 -113 25 -412 73 -520 85 -82 9 -347 46 -455 64 -81
14 -223 28 -345 35 -77 5 -113 9 -80 10 48 1 56 4 42 12 -10 6 -30 8 -43 5
-14 -4 -30 -3 -37 1 -19 12 -41 13 -47 3 -7 -12 -82 8 -92 24 -5 7 -8 5 -8 -6
0 -10 -4 -18 -10 -18 -5 0 -10 8 -10 18 0 14 -2 15 -10 2 -8 -13 -10 -13 -10
2 0 9 5 20 10 23 6 3 10 12 9 18 0 8 -2 8 -6 -1 -6 -16 -33 3 -33 24 0 11 -21
15 -87 16 -138 4 -197 0 -301 -22 -270 -56 -447 -157 -567 -325 -78 -108 -90
-149 -90 -315 0 -149 17 -249 36 -219 7 10 8 7 4 -11 -7 -30 48 -169 98 -249
73 -116 214 -227 385 -305 80 -35 85 -36 98 -19 14 17 15 17 9 -4 -4 -13 -2
-23 4 -23 5 0 17 -3 27 -7 12 -4 15 -3 10 5 -4 7 -2 12 3 12 6 0 11 -7 11 -15
0 -8 17 -19 41 -25 35 -10 39 -14 33 -33 -6 -22 -6 -22 9 -2 32 42 29 2 -7
-83 -36 -88 -45 -132 -26 -132 16 0 12 -15 -10 -40 -16 -19 -20 -37 -20 -101
0 -43 4 -80 9 -83 5 -3 12 -22 15 -41 4 -19 18 -57 31 -84 28 -55 30 -65 13
-55 -7 4 1 -7 18 -25 21 -22 30 -40 28 -54 -2 -12 -2 -16 2 -9 7 15 44 -28 44
-51 0 -9 5 -19 11 -22 6 -5 3 -13 -10 -22 -28 -19 -27 -37 2 -22 22 12 22 12
3 -10 -13 -14 -15 -21 -6 -21 8 0 9 -4 3 -12 -6 -7 -13 -26 -17 -41 -6 -26 -5
-27 15 -17 11 7 22 10 23 8 2 -2 11 -30 19 -63 9 -33 15 -46 13 -29 -4 22 0
33 15 42 12 8 19 8 19 2 0 -7 7 -7 21 0 11 7 24 8 27 4 4 -4 2 -9 -5 -11 -6
-2 -29 -33 -50 -69 -20 -35 -40 -64 -43 -64 -13 0 -9 -68 4 -79 11 -9 14 -8
12 6 0 12 6 18 19 18 14 0 20 -7 21 -25 2 -20 -12 -37 -66 -80 -38 -30 -69
-60 -69 -67 -1 -6 -12 -25 -26 -41 -16 -19 -22 -33 -15 -37 6 -4 8 -15 5 -26
-8 -23 2 -24 25 -4 13 11 28 14 56 9 50 -7 69 -22 78 -58 7 -27 6 -28 -21 -23
l-28 5 25 -19 c14 -11 34 -28 45 -37 11 -9 25 -15 31 -14 21 4 64 -17 64 -32
0 -16 -34 -31 -50 -21 -5 3 -10 2 -10 -3 0 -13 76 -36 94 -29 11 5 16 1 16
-12 0 -14 14 -24 48 -37 26 -9 61 -28 79 -41 40 -29 52 -30 27 -2 -19 22 -19
22 4 10 21 -11 27 -10 46 8 12 12 29 21 37 21 8 0 24 7 35 15 10 8 24 15 29
15 13 0 35 -69 24 -76 -5 -3 -9 -20 -9 -37 l1 -32 15 34 c11 27 17 32 27 22 9
-10 8 -14 -5 -22 -10 -6 -18 -15 -18 -20 0 -6 4 -8 9 -5 16 11 21 -48 4 -61
-8 -6 -12 -16 -9 -22 4 -5 2 -12 -3 -15 -5 -4 -12 2 -14 11 -3 10 -5 2 -6 -17
0 -23 2 -30 8 -22 10 16 42 13 48 -5 4 -11 -33 -29 -49 -25 -5 1 -8 -10 -7
-26 0 -15 3 -21 6 -14 2 6 9 10 14 6 5 -3 9 3 9 13 0 13 4 10 15 -11 8 -15 12
-33 8 -39 -11 -18 -13 -57 -2 -57 5 0 9 -7 9 -15 0 -8 -4 -15 -10 -15 -5 0 -2
-16 7 -35 12 -26 14 -38 6 -46 -8 -8 -6 -20 7 -44 16 -29 17 -34 3 -48 -14
-14 -14 -17 0 -31 13 -14 16 -12 28 16 11 27 10 32 -5 43 -14 11 -15 17 -5 38
9 20 8 30 -4 47 -12 17 -13 28 -5 46 8 17 8 27 -1 38 -7 8 -9 25 -5 40 3 15 1
32 -6 40 -7 10 -8 21 -2 33 13 25 12 135 -1 151 -8 10 -7 16 0 20 7 4 13 28
15 52 2 32 7 45 18 45 8 0 18 8 22 17 4 10 14 15 21 12 11 -4 16 9 21 53 14
129 18 150 27 163 8 13 13 11 27 -8 9 -13 37 -46 60 -75 24 -29 53 -70 64 -92
31 -61 47 -75 86 -75 19 0 51 -10 70 -22 19 -12 45 -22 56 -23 25 -1 96 -63
96 -82 0 -8 4 -12 9 -8 5 3 12 1 16 -5 4 -6 11 -8 16 -5 5 4 13 -4 18 -17 10
-25 47 -60 74 -71 9 -3 17 -16 17 -27 0 -11 6 -20 13 -20 6 0 23 -25 37 -55
19 -40 29 -53 42 -49 9 3 28 -6 44 -21 15 -14 31 -25 35 -25 9 0 20 -35 24
-74 1 -11 3 -24 4 -28 0 -4 8 -5 16 -2 11 5 13 2 9 -10 -4 -10 0 -18 10 -22 9
-3 16 -12 16 -20 0 -8 4 -14 8 -14 4 0 8 -10 9 -22 0 -13 -1 -18 -4 -12 -2 8
-19 10 -45 7 -26 -4 -43 -2 -48 7 -5 8 -10 9 -14 1 -4 -5 7 -17 24 -26 37 -19
41 -39 4 -25 -33 13 -34 13 -34 -4 0 -8 -12 -17 -27 -19 l-28 -4 26 -2 c28 -1
62 -52 40 -59 -18 -6 -13 -20 9 -27 23 -7 27 -25 5 -25 -8 0 -15 -7 -15 -15 0
-8 -8 -15 -17 -15 -17 -1 -17 -1 0 -14 9 -7 17 -19 17 -25 0 -7 5 -9 10 -6 6
3 10 1 10 -4 0 -6 -15 -12 -32 -13 -51 -2 -56 -3 -64 -11 -4 -4 0 -7 9 -7 16
0 21 -10 18 -37 -1 -6 4 -15 10 -19 9 -5 10 -2 6 9 -3 9 -2 19 3 22 6 4 10 -3
10 -14 0 -25 -3 -25 45 -1 53 27 74 27 50 0 -10 -12 -25 -18 -33 -15 -8 3 -21
0 -28 -6 -8 -6 -27 -9 -44 -5 -22 4 -30 2 -30 -8 0 -13 -45 -39 -85 -49 -11
-3 -1 -5 22 -6 23 0 45 -6 49 -13 5 -7 2 -9 -9 -5 -8 3 -28 2 -44 -3 -15 -5
-20 -9 -10 -9 23 -1 22 -21 -2 -21 -15 0 -19 -7 -19 -30 1 -32 7 -37 26 -18 9
9 12 9 12 -3 0 -9 -3 -19 -7 -23 -11 -11 -13 -45 -3 -51 6 -3 10 0 10 8 0 8
11 17 25 19 14 3 25 1 25 -3 0 -5 -7 -9 -15 -9 -8 0 -15 -9 -15 -20 0 -11 5
-20 10 -20 6 0 10 7 10 16 0 8 4 13 10 9 15 -9 60 6 60 21 0 8 7 14 16 14 13
0 14 3 4 14 -6 8 -18 12 -26 9 -20 -7 -18 7 4 23 23 18 37 17 22 -1 -11 -13
-7 -15 26 -15 63 1 139 25 138 44 -1 11 7 16 28 16 19 0 43 11 64 30 19 16 51
34 73 41 24 7 38 16 35 24 -6 15 59 13 96 -4 l25 -11 -29 3 c-21 1 -30 -3 -32
-16 -1 -9 2 -15 7 -11 5 3 9 -2 9 -10 0 -9 5 -16 11 -16 5 0 7 -5 4 -10 -5 -8
-11 -7 -21 1 -22 18 -30 2 -10 -20 16 -17 16 -19 0 -25 -14 -5 -14 -9 -3 -23
8 -9 9 -14 3 -10 -10 6 -22 -14 -29 -48 -6 -30 -26 -65 -37 -65 -9 0 -8 -3 2
-10 14 -9 7 -15 -15 -10 -5 1 -5 -4 2 -11 9 -9 9 -18 2 -31 -6 -11 -9 -22 -6
-24 2 -2 10 7 17 21 7 14 18 25 24 25 6 0 41 24 77 53 59 47 97 72 150 102 10
5 23 20 30 32 7 13 18 23 25 23 8 0 34 20 58 45 25 25 52 45 59 45 8 0 25 9
38 19 22 17 28 18 64 5 22 -7 47 -14 56 -14 9 0 22 -7 29 -15 6 -8 15 -14 18
-13 4 1 20 -2 36 -7 20 -5 31 -4 37 6 4 7 12 10 16 5 4 -5 2 -11 -4 -13 -7 -3
-13 -11 -13 -20 0 -8 -10 -23 -22 -33 l-23 -19 23 6 c13 3 22 1 22 -6 0 -6 5
-11 10 -11 6 0 10 9 10 20 0 10 9 24 21 30 11 6 19 19 17 28 -4 24 121 134
194 171 15 8 30 22 34 33 3 10 10 18 15 18 5 0 9 7 9 16 0 10 6 14 14 11 16
-6 36 11 36 31 0 8 8 21 18 28 15 12 15 15 2 24 -13 9 -13 10 0 10 8 0 23 20
33 45 15 34 24 45 41 45 12 0 29 6 38 13 21 16 76 107 113 185 29 62 29 63 16
135 -8 40 -15 84 -16 99 -2 15 -10 35 -19 43 -21 22 -20 24 10 35 30 12 23 30
-12 30 -13 0 -42 12 -64 26 -32 21 -38 30 -29 40 12 15 34 19 25 5 -3 -4 35
-7 85 -5 69 2 96 7 110 20 15 14 17 19 7 26 -9 6 -7 10 10 14 12 4 22 10 22
15 0 4 12 21 26 36 l26 28 -31 12 c-17 7 -31 18 -31 24 0 6 -9 8 -21 4 -20 -7
-20 -4 7 31 15 22 33 44 39 49 7 6 17 20 24 33 6 12 19 22 29 22 9 1 31 7 47
16 l30 14 -29 -5 -29 -6 30 25 c22 18 30 34 30 53 -2 27 -4 28 -52 28 -61 0
-90 20 -60 41 10 8 29 14 43 14 13 0 21 4 18 9 -4 5 14 17 38 26 25 10 47 23
50 30 7 20 -26 51 -52 47 -16 -2 -37 11 -73 46 -46 46 -56 72 -27 72 6 0 17 8
24 18 12 16 13 15 14 -5 0 -35 15 -27 17 10 2 17 11 38 20 45 16 11 16 14 3
22 -12 7 -12 12 -2 22 6 6 12 20 12 30 0 20 36 26 42 6 4 -12 53 31 54 47 0 6
6 24 13 40 8 17 14 42 14 57 0 15 4 25 7 23 4 -3 10 9 14 26 9 47 8 61 -6 53
-8 -5 -9 0 -5 17 4 13 10 57 14 97 4 50 10 72 19 72 8 0 11 -6 7 -17 -4 -10
-2 -14 5 -9 6 3 15 -2 21 -11 7 -12 10 -13 11 -4 0 16 46 -10 70 -41 9 -10 33
-21 55 -24 l40 -5 -35 18 c-28 15 -36 26 -43 61 -4 23 -14 42 -20 42 -7 1 -21
13 -32 27 -11 14 -31 37 -44 51 -15 17 -26 42 -29 71 -2 25 -8 51 -12 56 -8
10 -13 40 -11 62 2 24 43 -1 62 -39 25 -49 35 -45 14 5 -16 38 -11 67 11 67 8
0 11 6 8 15 -8 20 6 41 16 24 14 -22 46 -20 59 5 16 29 44 27 80 -8 l28 -27
-4 25 c-3 15 -1 26 6 26 6 0 11 6 11 13 0 8 19 13 53 14 30 2 71 10 93 19 21
10 52 19 68 21 17 2 33 9 37 15 5 7 11 9 15 6 4 -4 16 -3 28 3 18 9 19 8 6 -3
-45 -39 -40 -49 9 -17 66 42 130 129 138 186 5 39 4 40 -20 38 -16 -2 -28 3
-32 12 -3 9 -8 13 -12 10 -3 -3 -24 6 -47 22 -22 15 -58 34 -78 42 -21 7 -38
16 -38 21 0 4 -19 12 -42 18 -50 14 -35 30 27 30 25 0 35 -3 27 -9 -10 -6 -6
-11 15 -19 29 -11 123 -25 123 -18 0 2 -6 16 -14 31 -12 23 -15 24 -19 8 -3
-10 -6 -4 -7 17 -6 73 -5 112 3 117 4 2 5 9 2 14 -4 5 2 6 11 2 11 -4 13 -8 6
-11 -23 -7 -12 -24 11 -18 17 4 37 -4 68 -25 l44 -31 -35 32 c-127 116 -545
328 -871 441 -81 29 -89 34 -89 58 0 34 -43 157 -63 179 -8 9 -29 47 -45 84
-18 40 -48 84 -72 107 -33 31 -40 43 -32 57 5 9 7 26 4 36 -3 11 1 24 9 29 12
8 12 11 -1 19 -8 5 -21 13 -28 18 -7 5 -10 16 -7 25 5 12 15 14 42 10 32 -5
35 -4 31 18 -1 13 -7 22 -13 19 -5 -3 -9 -9 -7 -13 1 -4 -10 -6 -25 -4 -16 2
-29 11 -31 20 -4 20 14 23 21 5 3 -10 9 -9 23 3 10 9 25 14 33 11 8 -3 12 1 9
9 -2 7 -15 16 -29 20 -13 3 -23 11 -22 17 2 7 -3 11 -10 9 -7 -1 -11 6 -9 17
7 36 -7 66 -31 66 -18 0 -19 -2 -7 -10 19 -12 4 -13 -37 -1 -26 7 -31 7 -26
-5 3 -8 13 -14 24 -14 10 0 23 -9 29 -19 13 -25 13 -31 0 -31 -5 0 -10 6 -10
14 0 8 -7 16 -15 20 -9 3 -15 0 -15 -8 0 -17 -39 -14 -51 5 -8 12 -11 12 -20
-1 -8 -12 -10 -10 -5 10 8 36 -3 70 -24 70 -10 0 -20 5 -22 11 -4 12 -38 1
-38 -12 0 -4 10 -17 22 -29 25 -23 17 -40 -8 -19 -13 11 -18 11 -21 2 -3 -7
-9 -13 -15 -13 -6 0 -8 7 -4 15 8 22 -4 18 -30 -11 -30 -32 -30 -34 5 -34 34
0 61 -9 61 -20 0 -4 -12 -6 -27 -4 -16 2 -21 1 -12 -2 11 -3 15 -12 12 -25 -4
-16 -8 -17 -20 -7 -12 10 -14 7 -11 -17 2 -17 -2 -30 -11 -33 -10 -3 -11 2 -6
19 7 24 7 24 -9 4 -13 -16 -15 -17 -10 -2 5 13 1 17 -15 17 -12 0 -21 5 -21
10 0 6 11 8 25 4 15 -4 25 -2 25 5 0 6 -6 11 -14 11 -7 0 -16 9 -19 21 -3 12
-9 19 -14 16 -4 -3 -16 5 -25 18 -16 21 -16 23 0 21 12 -1 16 5 14 22 -2 12 2
22 8 22 6 0 8 5 5 10 -10 17 -25 11 -25 -10 0 -11 -7 -20 -16 -20 -11 0 -14 6
-9 20 5 14 2 20 -9 20 -19 0 -21 11 -4 28 9 9 7 13 -5 18 -9 3 -17 13 -17 21
0 8 -5 11 -11 8 -10 -7 -49 30 -49 47 0 4 -4 8 -9 8 -17 0 -18 -35 -1 -55 10
-11 22 -33 27 -50 9 -28 8 -30 -26 -42 -19 -7 -38 -9 -41 -6 -3 3 0 8 6 10 7
2 10 13 7 23 -6 23 -19 26 -27 8 -3 -7 -3 -2 1 12 4 14 7 39 7 55 1 17 5 31 9
32 12 3 38 31 37 40 0 4 -6 8 -12 8 -14 0 -48 33 -48 47 0 17 -32 58 -42 52
-5 -4 -5 -10 0 -17 6 -7 21 -32 35 -57 25 -47 26 -70 1 -70 -11 0 -12 -4 -4
-19 6 -12 6 -22 1 -25 -5 -4 -12 0 -14 6 -4 10 -8 9 -16 -2 -9 -12 -11 -11
-11 7 0 12 -3 30 -6 40 -5 15 -4 15 5 3 5 -8 13 -11 17 -7 11 11 -18 36 -45
39 -19 2 -26 -3 -32 -22 -6 -23 -7 -23 -8 -3 -1 14 -8 23 -23 25 -12 2 -24 9
-26 17 -3 10 0 12 13 7 15 -5 16 -4 5 9 -7 8 -19 15 -28 15 -8 0 -24 7 -34 17
-22 20 -36 10 -15 -11 8 -8 17 -12 21 -9 3 4 6 -4 6 -16 0 -18 -4 -21 -20 -16
-16 5 -20 2 -20 -14 0 -12 -4 -21 -10 -21 -5 0 -10 9 -10 21 0 14 -5 19 -15
16 -8 -4 -17 -2 -20 3 -4 6 -11 10 -16 10 -6 0 -7 -4 -4 -10 3 -5 1 -10 -4
-10 -15 0 -14 33 1 48 9 9 8 12 -5 12 -9 0 -17 -4 -17 -10 0 -5 -21 -10 -47
-9 l-48 1 45 9 c25 5 46 13 48 19 2 5 10 10 18 10 8 0 14 3 14 8 0 4 -35 8
-77 8 -43 1 -68 -1 -55 -3z m62 -73 c0 -5 -5 -10 -11 -10 -5 0 -7 5 -4 10 3 6
8 10 11 10 2 0 4 -4 4 -10z m25 -10 c3 -5 1 -10 -4 -10 -6 0 -11 5 -11 10 0 6
2 10 4 10 3 0 8 -4 11 -10z m-52 -30 c-5 -19 -23 -29 -23 -12 0 7 20 32 26 32
1 0 0 -9 -3 -20z m57 -29 c-6 -12 -16 -19 -22 -15 -7 4 -6 9 2 14 6 4 11 10
11 14 -3 24 0 29 10 19 8 -8 8 -17 -1 -32z m157 23 c-3 -3 -12 -4 -19 -1 -8 3
-5 6 6 6 11 1 17 -2 13 -5z m123 -19 c0 -8 -4 -15 -9 -15 -13 0 -22 16 -14 24
11 11 23 6 23 -9z m-183 -15 c-1 -22 -17 -28 -17 -7 0 12 9 27 16 27 2 0 2 -9
1 -20z m63 -1 c0 -11 -3 -11 -24 -3 -23 9 -20 23 4 17 11 -3 20 -9 20 -14z
m54 -5 c8 -21 8 -24 -5 -24 -5 0 -8 4 -4 9 3 5 1 12 -5 16 -6 3 -14 -4 -19
-17 -10 -23 -10 -23 -10 -1 -1 19 9 30 30 32 4 1 10 -6 13 -15z m-224 -24 c0
-5 -4 -10 -10 -10 -5 0 -10 5 -10 10 0 6 5 10 10 10 6 0 10 -4 10 -10z m50
-36 c0 -22 -16 -17 -17 6 -1 11 2 18 8 15 5 -4 9 -13 9 -21z m40 6 c0 -5 -4
-10 -10 -10 -5 0 -10 5 -10 10 0 6 5 10 10 10 6 0 10 -4 10 -10z m80 0 c0 -5
-4 -10 -10 -10 -5 0 -10 5 -10 10 0 6 5 10 10 10 6 0 10 -4 10 -10z m30 0 c0
-5 -5 -10 -11 -10 -5 0 -7 5 -4 10 3 6 8 10 11 10 2 0 4 -4 4 -10z m147 4 c-3
-3 -12 -4 -19 -1 -8 3 -5 6 6 6 11 1 17 -2 13 -5z m-211 -19 c9 -8 11 -15 6
-15 -5 0 -15 7 -22 15 -7 8 -9 15 -6 15 4 0 14 -7 22 -15z m144 -15 c0 -5 -5
-10 -11 -10 -5 0 -7 5 -4 10 3 6 8 10 11 10 2 0 4 -4 4 -10z m40 0 c0 -5 -2
-10 -4 -10 -3 0 -8 5 -11 10 -3 6 -1 10 4 10 6 0 11 -4 11 -10z m-120 -10 c0
-5 -4 -10 -10 -10 -5 0 -10 5 -10 10 0 6 5 10 10 10 6 0 10 -4 10 -10z m-70
-20 c-6 -11 -20 -20 -33 -19 l-22 0 21 9 c12 5 25 13 29 19 11 19 16 12 5 -9z
m230 -15 c0 -8 -9 -15 -20 -15 -25 0 -26 17 -2 23 9 3 18 5 20 6 1 0 2 -6 2
-14z m-195 -14 c-3 -6 -11 -11 -16 -11 -5 0 -4 6 3 14 14 16 24 13 13 -3z
m586 -23 c-6 -13 -9 -15 -7 -6 3 9 0 18 -6 20 -7 3 -8 10 -4 17 15 24 31 -5
17 -31z m-359 13 c-8 -4 -13 -11 -13 -15 1 -3 -1 -6 -4 -6 -3 0 -5 2 -5 5 0 3
0 10 0 15 0 6 8 10 18 10 13 0 14 -2 4 -9z m-82 -55 c0 -3 -4 -8 -10 -11 -5
-3 -10 -1 -10 4 0 6 5 11 10 11 6 0 10 -2 10 -4z m120 -6 c0 -5 -4 -10 -10
-10 -5 0 -10 5 -10 10 0 6 5 10 10 10 6 0 10 -4 10 -10z m-83 -16 c-3 -3 -12
-4 -19 -1 -8 3 -5 6 6 6 11 1 17 -2 13 -5z m553 -19 c0 -8 -4 -15 -10 -15 -5
0 -10 7 -10 15 0 8 5 15 10 15 6 0 10 -7 10 -15z m27 -7 c-3 -8 -6 -5 -6 6 -1
11 2 17 5 13 3 -3 4 -12 1 -19z m-970 -30 c-3 -7 -5 -2 -5 12 0 14 2 19 5 13
2 -7 2 -19 0 -25z m920 -32 c-10 -8 -28 -11 -40 -8 -19 6 -17 7 13 13 19 3 37
7 40 7 3 1 -3 -5 -13 -12z m-3130 -12 c-3 -3 -12 -4 -19 -1 -8 3 -5 6 6 6 11
1 17 -2 13 -5z m3138 -13 c3 -5 1 -12 -5 -16 -5 -3 -10 1 -10 9 0 18 6 21 15
7z m49 -68 c-4 -14 -12 -19 -24 -16 -12 3 -20 -2 -23 -14 -4 -15 -5 -14 -6 5
-1 13 5 22 13 22 7 0 19 7 26 15 16 19 21 15 14 -12z m-154 -7 c0 -7 7 -19 15
-26 8 -7 15 -21 15 -31 0 -20 15 -25 25 -9 10 17 45 -7 128 -89 75 -73 107
-121 107 -162 0 -11 16 -44 36 -73 20 -30 34 -63 32 -73 -3 -14 -8 -11 -25 17
-12 20 -31 47 -43 59 -11 13 -20 28 -20 34 0 5 -7 7 -15 3 -9 -3 -15 0 -15 9
0 20 -113 133 -127 128 -8 -3 -13 4 -13 17 0 12 -4 19 -9 16 -5 -4 -12 0 -15
6 -3 7 -4 1 -1 -13 2 -14 7 -57 10 -95 3 -38 8 -84 11 -101 3 -18 1 -33 -5
-33 -5 0 -12 30 -16 68 -11 120 -40 229 -90 345 -4 10 -3 17 4 17 6 0 11 -6
11 -14z m147 -51 c0 -8 -4 -15 -9 -15 -4 0 -8 7 -8 15 0 8 4 15 8 15 5 0 9 -7
9 -15z m-2637 -29 c0 -3 -4 -8 -10 -11 -5 -3 -10 -1 -10 4 0 6 5 11 10 11 6 0
10 -2 10 -4z m-790 -76 c0 -5 -5 -10 -11 -10 -5 0 -7 -5 -3 -11 4 -7 0 -9 -14
-5 -11 4 -23 2 -27 -4 -3 -6 -11 -8 -16 -5 -5 4 -6 -2 -2 -12 6 -16 5 -16 -11
-4 -15 13 -19 13 -26 1 -6 -10 -4 -18 6 -23 20 -11 9 -26 -15 -20 -38 10 -30
63 9 63 9 0 20 3 24 7 7 7 62 29 79 32 4 0 7 -3 7 -9z m190 -20 c0 -5 -2 -10
-4 -10 -3 0 -8 5 -11 10 -3 6 -1 10 4 10 6 0 11 -4 11 -10z m-130 -24 c0 -2
-7 -9 -15 -16 -13 -11 -14 -10 -9 4 5 14 24 23 24 12z m-217 -37 c-9 -9 -12
-7 -10 9 1 14 5 18 11 12 7 -7 6 -14 -1 -21z m-23 -1 c0 -16 -3 -19 -11 -11
-6 6 -8 16 -5 22 11 17 16 13 16 -11z m2557 -44 c-3 -3 -12 -4 -19 -1 -8 3 -5
6 6 6 11 1 17 -2 13 -5z m583 -17 c20 -8 21 -11 8 -14 -23 -6 -98 16 -98 28 0
11 46 4 90 -14z m-3232 1 c-4 -17 -28 -42 -34 -35 -8 7 15 47 26 47 6 0 9 -6
8 -12z m2947 2 c3 -5 -1 -10 -9 -10 -9 0 -16 5 -16 10 0 6 4 10 9 10 6 0 13
-4 16 -10z m753 -91 c9 -1 20 -1 25 0 4 0 7 -6 7 -14 0 -12 5 -13 27 -4 22 8
30 7 40 -7 7 -10 13 -29 13 -42 0 -19 -4 -23 -17 -17 -10 4 -42 16 -72 27 -37
14 -49 23 -40 29 11 6 11 11 1 21 -6 6 -11 19 -11 28 1 11 2 11 6 -2 2 -10 12
-19 21 -19z m-1508 -294 c142 -29 152 -31 240 -40 106 -12 218 -39 272 -66 10
-5 26 -9 37 -9 10 0 24 -7 31 -15 7 -8 18 -15 25 -15 6 0 24 -14 39 -30 l26
-30 -25 -12 c-14 -6 -25 -18 -25 -25 0 -8 -4 -12 -9 -9 -5 3 -14 -1 -21 -9
-18 -22 -69 -45 -86 -38 -9 3 -14 -1 -14 -13 0 -9 -3 -14 -7 -11 -3 4 -12 2
-20 -4 -7 -6 -13 -8 -13 -3 0 5 -7 -2 -16 -14 -8 -12 -19 -20 -24 -17 -5 3
-11 1 -15 -5 -3 -5 -15 -10 -26 -10 -10 0 -19 -5 -19 -11 0 -7 -10 -9 -25 -5
-14 4 -25 2 -25 -3 0 -5 -14 -23 -32 -40 -31 -30 -32 -32 -17 -59 12 -21 15
-55 13 -149 -1 -67 4 -168 12 -225 8 -57 15 -116 16 -133 0 -16 3 -34 7 -40 8
-14 14 -46 13 -70 -7 -187 -7 -189 -41 -237 -31 -46 -35 -48 -80 -48 -26 0
-52 -5 -59 -12 -9 -9 -28 -4 -79 20 -57 26 -74 29 -109 23 -52 -10 -64 -18
-64 -41 0 -28 18 -35 96 -35 50 0 79 -6 98 -18 34 -23 28 -43 -10 -40 -38 4
-86 -16 -80 -32 2 -7 -5 -16 -17 -19 -26 -7 -35 0 -19 16 14 14 16 28 3 28 -5
0 -12 -10 -16 -22 -6 -20 -8 -20 -12 -5 -9 34 -28 22 -81 -52 -30 -42 -32 -43
-32 -18 0 32 -22 35 -66 12 -16 -8 -36 -12 -45 -10 -10 3 -19 -1 -23 -10 -3
-8 -15 -15 -27 -15 -21 0 -22 1 -4 20 12 13 14 20 6 20 -7 0 -21 -10 -31 -22
l-19 -23 6 24 c5 21 3 23 -18 16 -13 -4 -26 -11 -29 -15 -3 -4 -14 -4 -24 0
-46 16 -98 -17 -129 -83 -12 -24 -13 -33 -4 -39 9 -6 9 -8 0 -8 -7 0 -13 -9
-13 -20 0 -10 -7 -23 -16 -28 -9 -5 -14 -15 -10 -21 4 -6 12 -9 17 -6 5 4 9
-4 9 -15 0 -16 4 -20 16 -16 12 4 14 1 9 -14 -4 -11 -2 -20 4 -20 6 0 11 -9
11 -20 0 -13 5 -18 15 -14 8 4 17 -1 21 -10 3 -9 10 -16 16 -16 5 0 7 4 4 9
-3 5 1 14 9 21 8 7 15 20 15 29 0 9 15 22 33 30 17 8 40 21 49 29 17 15 35 14
168 -4 24 -4 49 -13 55 -20 10 -13 38 -14 51 -2 3 4 23 1 43 -7 21 -7 44 -10
51 -5 6 4 32 1 57 -6 24 -7 88 -14 141 -15 112 -2 141 -14 140 -60 -1 -18 -6
-29 -15 -29 -14 0 -34 -39 -26 -52 7 -13 -12 -9 -25 4 -10 10 -14 8 -19 -10
-4 -16 -12 -22 -27 -21 -32 4 -68 -10 -99 -39 -21 -20 -30 -24 -36 -14 -15 25
-137 -14 -163 -52 -9 -13 1 -28 14 -20 6 4 6 -1 -1 -14 -8 -14 -8 -23 -1 -27
6 -4 8 -15 5 -26 -8 -23 10 -25 23 -3 8 15 11 14 25 -6 8 -12 20 -19 26 -15 7
3 11 -2 11 -14 0 -22 48 -123 64 -133 6 -4 14 -2 18 5 4 7 8 8 9 2 0 -5 4 -1
9 10 8 19 8 19 18 -5 11 -25 16 -14 13 23 -3 20 8 21 30 4 23 -18 28 -40 19
-78 -5 -21 -8 -26 -9 -13 -1 17 -6 20 -26 16 -15 -2 -25 0 -25 7 0 6 -4 11 -9
11 -5 0 -7 -9 -4 -20 3 -10 8 -19 12 -18 25 3 32 -5 29 -29 -2 -16 -9 -29 -15
-29 -7 -1 -14 -2 -15 -4 -23 -18 -78 7 -78 37 0 18 -15 17 -31 -3 -7 -8 -21
-13 -31 -11 -14 4 -18 -1 -18 -19 0 -13 -5 -24 -10 -24 -6 0 -9 3 -9 8 4 24
-4 41 -21 47 -11 3 -20 15 -20 26 0 10 -4 19 -9 19 -5 0 -8 -8 -7 -17 0 -10
-6 -18 -14 -18 -11 0 -14 -9 -12 -34 l4 -33 -23 21 c-24 22 -59 28 -59 10 0
-8 -5 -8 -15 1 -8 7 -12 16 -9 22 3 5 -5 6 -20 2 -23 -6 -26 -3 -26 22 0 16
-4 24 -8 19 -4 -6 -19 -16 -34 -22 -25 -11 -28 -10 -28 5 0 9 -7 25 -14 35
-14 18 -14 18 -19 0 -4 -17 -5 -17 -12 2 -15 35 -29 44 -40 28 -6 -8 -26 -16
-45 -18 -27 -4 -30 -3 -14 4 29 13 40 41 13 34 -17 -5 -19 -2 -13 21 4 16 2
26 -5 26 -6 0 -11 -5 -11 -11 0 -5 -5 -7 -11 -3 -6 4 -7 9 -2 13 5 3 10 16 10
28 2 20 -1 21 -18 10 -22 -14 -24 -42 -5 -79 12 -23 12 -27 -2 -33 -9 -3 -18
-1 -20 4 -2 6 -9 11 -16 11 -14 0 -47 23 -92 67 -41 39 -53 92 -30 128 10 15
12 26 6 30 -16 10 -32 -6 -27 -25 3 -13 0 -17 -9 -13 -16 6 -16 9 -4 38 5 14
2 26 -9 39 -9 11 -10 16 -3 12 6 -4 12 -2 12 3 0 6 -4 11 -10 11 -5 0 -6 8 -3
17 5 12 2 15 -9 10 -13 -5 -18 4 -23 44 -5 32 -12 49 -21 49 -7 0 -23 18 -34
40 -12 23 -25 38 -29 35 -5 -3 -8 17 -8 45 2 43 0 49 -17 46 -11 -1 -22 -9
-24 -16 -3 -9 1 -11 12 -7 22 9 11 -11 -20 -35 -25 -20 -37 -55 -20 -62 6 -2
-2 -3 -18 -2 -35 3 -49 33 -65 132 -7 48 -7 72 1 81 6 8 7 13 1 13 -12 0 -8
49 5 62 6 6 6 25 0 51 -14 62 -18 146 -8 152 13 8 0 107 -17 126 -7 9 -13 20
-12 25 2 5 -2 27 -8 49 -11 40 -16 95 -17 215 -1 36 -4 67 -8 70 -20 16 -27
249 -8 300 1 3 1 17 0 31 0 14 10 50 24 80 23 52 44 112 51 147 2 9 4 17 5 17
2 0 6 21 16 85 7 44 9 57 12 91 2 21 45 67 92 99 19 13 37 27 40 30 5 6 56 28
128 54 39 15 105 27 225 41 23 3 62 9 87 13 91 17 287 6 430 -23z m-2420 -225
c0 -11 -2 -20 -4 -20 -2 0 -6 9 -9 20 -3 11 -1 20 4 20 5 0 9 -9 9 -20z m3085
-10 c3 -5 1 -10 -4 -10 -6 0 -11 5 -11 10 0 6 2 10 4 10 3 0 8 -4 11 -10z
m1894 -4 c9 -11 9 -16 0 -22 -8 -4 -9 -3 -5 5 4 7 -2 15 -16 20 -15 7 -17 10
-7 10 9 1 22 -5 28 -13z m-4889 -104 c0 -14 -15 -8 -15 6 0 4 -4 14 -10 22 -8
13 -7 13 8 1 9 -7 17 -20 17 -29z m-11 -37 c0 -5 -6 -1 -14 9 -8 11 -15 24
-15 30 0 5 7 1 15 -10 8 -10 14 -23 14 -29z m37 3 c4 -7 3 -8 -4 -4 -7 4 -12
2 -12 -5 0 -7 -3 -10 -6 -6 -6 5 3 27 11 27 2 0 7 -5 11 -12z m4704 -8 c0 -13
-20 -13 -40 0 -12 8 -9 10 13 10 15 0 27 -4 27 -10z m-4582 -121 c14 -11 20
-22 16 -33 -3 -9 -10 -13 -15 -10 -5 3 -6 10 -3 16 5 7 2 9 -8 5 -19 -7 -38
11 -38 34 0 19 -17 35 -27 25 -3 -3 0 -14 8 -23 13 -16 12 -17 -4 -4 -10 8
-15 21 -12 29 3 8 -2 27 -11 41 -9 14 3 6 27 -19 24 -25 54 -53 67 -61z m2920
6 c-10 -10 -49 -14 -43 -4 4 5 16 9 27 9 12 0 19 -2 16 -5z m-2839 -71 c-10
-13 -7 -14 22 -9 32 6 33 5 14 -9 -14 -11 -16 -15 -6 -16 8 0 12 -2 9 -5 -6
-6 -68 24 -85 41 -10 9 -5 12 23 12 29 0 33 -2 23 -14z m2801 -4 c0 -5 -4 -10
-10 -10 -5 0 -10 5 -10 10 0 6 5 10 10 10 6 0 10 -4 10 -10z m-86 -47 c12 -57
30 -68 109 -67 40 1 90 5 112 8 29 5 36 4 25 -3 -8 -6 -25 -11 -37 -11 -13 0
-23 -4 -23 -9 0 -4 -10 -7 -22 -7 -13 1 -29 -2 -36 -7 -7 -5 -40 -7 -75 -4
-48 4 -57 2 -39 -6 12 -5 22 -14 22 -19 0 -4 9 -8 20 -8 11 0 20 -4 20 -9 0
-5 12 -9 28 -9 48 1 62 -2 62 -12 0 -6 -11 -8 -24 -6 -17 3 -25 -1 -29 -13 -3
-14 -12 -17 -38 -13 -19 2 -39 8 -44 13 -6 4 -30 11 -53 15 -38 6 -59 24 -29
24 8 1 7 4 -3 9 -12 7 -67 8 -89 2 -9 -3 72 -51 96 -58 15 -3 36 -14 46 -24
11 -10 25 -15 33 -12 8 3 14 1 14 -4 0 -11 133 -38 167 -34 26 3 39 -15 17
-23 -8 -3 -13 -10 -9 -15 3 -6 13 -7 21 -4 9 3 30 7 48 8 17 1 46 2 64 3 17 1
32 6 32 11 0 6 -21 8 -47 6 -27 -1 -40 -1 -30 2 9 2 15 8 12 12 -2 5 7 6 20 3
19 -3 25 0 25 14 0 14 3 15 12 6 18 -18 38 -15 38 6 0 13 2 14 9 4 6 -11 9 -9
13 6 4 16 12 19 34 15 16 -3 36 -12 45 -20 9 -7 24 -11 33 -7 12 4 16 1 16
-15 0 -12 -3 -21 -8 -21 -13 0 -30 -89 -18 -94 6 -2 0 -5 -13 -5 -19 -1 -22
-5 -18 -22 4 -17 3 -19 -6 -10 -19 19 -27 13 -27 -21 0 -18 -4 -39 -9 -47 -5
-8 -7 -20 -4 -28 7 -18 32 -16 40 4 6 14 7 13 14 -4 11 -30 0 -63 -22 -63 -13
0 -16 -5 -12 -16 4 -11 13 -14 32 -9 25 6 25 6 6 -8 -10 -8 -26 -12 -34 -9 -9
3 -12 1 -8 -5 4 -6 1 -14 -5 -16 -10 -4 -9 -8 2 -16 12 -9 12 -11 1 -11 -8 0
-20 -8 -28 -17 -7 -10 -12 -13 -11 -6 2 6 0 11 -4 12 -22 3 -26 -1 -21 -19 3
-11 12 -20 20 -20 11 0 10 -6 -6 -28 -15 -22 -17 -32 -9 -40 9 -9 8 -12 -5
-12 -10 0 -17 8 -17 20 0 30 -28 24 -32 -6 -2 -19 -14 -33 -38 -45 -27 -15
-30 -19 -15 -20 11 -1 23 -1 28 0 13 2 7 -11 -10 -25 -24 -18 -33 -17 -33 1 0
13 -4 14 -20 5 -11 -6 -20 -20 -20 -32 0 -18 -2 -19 -16 -7 -14 11 -16 10 -14
-6 4 -35 0 -39 -16 -19 -8 10 -13 14 -10 8 3 -7 -1 -29 -8 -50 -8 -22 -15 -33
-15 -26 -1 20 -21 13 -21 -8 0 -11 -7 -20 -16 -20 -8 0 -13 4 -9 9 9 15 -16
24 -28 11 -9 -10 -9 -11 1 -6 7 4 12 1 12 -7 0 -13 -4 -13 -25 -4 -14 7 -27
20 -30 29 -5 15 -10 15 -37 4 -27 -12 -34 -11 -49 3 -22 20 -19 43 11 96 27
48 22 93 -20 180 -16 34 -30 67 -32 75 -2 8 -5 17 -8 20 -3 3 -13 24 -22 47
-13 35 -14 49 -5 73 8 20 8 33 2 38 -16 12 -14 52 3 50 24 -4 25 20 3 32 -12
6 -21 19 -21 29 0 37 -52 175 -70 186 -6 3 -10 21 -10 40 0 39 13 46 78 41 23
-2 42 0 42 4 0 12 -28 20 -45 14 -8 -4 -15 -3 -15 1 0 8 27 35 35 35 4 0 18 9
32 20 36 28 59 26 67 -7z m-2234 -214 c-10 -35 -17 -45 -25 -37 -7 7 15 68 25
68 5 0 5 -14 0 -31z m3685 1 c3 -5 1 -10 -4 -10 -6 0 -11 5 -11 10 0 6 2 10 4
10 3 0 8 -4 11 -10z m-3681 -64 c-3 -8 -12 -12 -19 -10 -7 3 -15 -3 -18 -13
-4 -15 -5 -14 -6 4 -1 19 9 27 41 32 4 0 5 -5 2 -13z m-64 -101 c0 -8 -4 -15
-10 -15 -5 0 -10 7 -10 15 0 8 5 15 10 15 6 0 10 -7 10 -15z m-40 -34 c0 -6
-4 -13 -10 -16 -5 -3 -10 1 -10 9 0 9 5 16 10 16 6 0 10 -4 10 -9z m18 -40
c-11 -17 -11 -25 1 -42 10 -18 10 -23 0 -30 -7 -4 -17 -5 -21 -3 -4 3 -8 0 -8
-7 0 -6 8 -9 20 -6 24 6 37 -8 15 -17 -21 -8 -21 -106 -1 -106 10 0 14 -12 14
-37 0 -21 3 -53 7 -70 5 -22 3 -33 -4 -33 -6 0 -11 7 -11 15 0 8 -4 15 -9 15
-33 0 -60 206 -34 257 7 14 13 36 13 48 0 35 11 58 22 47 6 -6 5 -17 -4 -31z
m-81 -23 c-3 -8 -6 -5 -6 6 -1 11 2 17 5 13 3 -3 4 -12 1 -19z m48 -7 c3 -5 1
-12 -5 -16 -5 -3 -10 1 -10 9 0 18 6 21 15 7z m3632 -23 c-3 -8 -6 -5 -6 6 -1
11 2 17 5 13 3 -3 4 -12 1 -19z m-3677 -34 c0 -21 -4 -33 -10 -29 -5 3 -10 19
-10 36 0 16 5 29 10 29 6 0 10 -16 10 -36z m3852 -45 c53 -57 51 -82 -2 -36
-26 22 -56 77 -43 77 4 0 25 -19 45 -41z m-163 -52 c0 -33 -2 -38 -9 -22 -12
28 -12 78 0 70 6 -3 10 -25 9 -48z m-2949 -173 c0 -8 -5 -12 -10 -9 -6 4 -8
11 -5 16 9 14 15 11 15 -7z m-600 -44 c0 -5 7 -10 15 -10 8 0 15 -4 15 -9 0
-5 3 -16 6 -25 10 -26 -22 -19 -40 9 -18 28 -21 45 -6 45 6 0 10 -4 10 -10z
m1830 -94 c0 -8 7 -19 15 -26 8 -7 15 -20 15 -30 0 -10 7 -23 16 -30 10 -9 14
-26 12 -49 -3 -39 -11 -44 -111 -85 -26 -10 -47 -23 -47 -28 0 -4 -5 -8 -11
-8 -5 0 -7 5 -4 10 3 6 -4 10 -17 10 -22 1 -21 2 6 17 28 15 29 16 11 29 -15
11 -16 18 -7 38 7 17 17 23 30 19 25 -6 47 28 63 100 7 30 17 53 21 51 4 -3 8
-11 8 -18z m1680 -36 c0 -5 -7 -10 -16 -10 -8 0 -12 5 -9 10 3 6 10 10 16 10
5 0 9 -4 9 -10z m-90 -53 c0 -7 -9 -18 -21 -25 -21 -13 -21 -13 -3 12 22 29
24 31 24 13z m-1770 -65 c0 -15 -2 -15 -10 -2 -13 20 -13 33 0 25 6 -3 10 -14
10 -23z m1258 0 c5 -32 -18 -132 -29 -132 -6 0 -8 4 -5 8 2 4 1 14 -4 22 -5 8
-2 23 8 38 12 19 13 25 2 32 -8 5 -10 17 -6 35 8 31 29 29 34 -3z m-1488 -2
c0 -5 -4 -10 -10 -10 -5 0 -10 5 -10 10 0 6 5 10 10 10 6 0 10 -4 10 -10z
m500 0 c0 -5 -4 -10 -10 -10 -5 0 -10 5 -10 10 0 6 5 10 10 10 6 0 10 -4 10
-10z m1327 -86 c2 -7 -6 -10 -19 -9 -30 3 -30 3 -23 16 8 13 37 8 42 -7z m112
-93 c51 -42 37 -54 -19 -17 -22 14 -44 26 -49 26 -11 0 -22 26 -14 33 9 9 36
-5 82 -42z m-116 16 c12 -12 34 -29 50 -36 25 -13 37 -31 20 -31 -14 0 -113
60 -113 69 0 8 10 21 17 21 2 0 14 -10 26 -23z m-2496 -64 c-9 -9 -34 9 -34
25 -2 40 9 46 23 13 8 -19 13 -36 11 -38z m1599 -61 l6 -48 -42 -17 c-30 -11
-48 -13 -61 -7 -28 16 -35 12 -47 -22 -7 -18 -10 -23 -8 -11 2 12 -1 24 -7 26
-18 6 1 24 33 30 17 4 30 13 30 21 0 8 8 16 17 18 10 2 18 10 19 18 3 44 5 51
13 46 5 -3 12 4 15 17 l7 22 9 -22 c5 -13 12 -44 16 -71z m-76 19 c-6 -12 -15
-21 -19 -21 -5 0 -11 -10 -15 -22 -3 -15 -9 -19 -15 -13 -13 13 -2 55 14 55 7
0 18 7 25 15 17 21 24 12 10 -14z m584 -6 c-4 -18 -9 -23 -14 -14 -5 7 -3 20
3 30 15 24 20 18 11 -16z m-2126 6 c3 -8 -1 -12 -9 -9 -7 2 -15 10 -17 17 -3
8 1 12 9 9 7 -2 15 -10 17 -17z m62 -8 c0 -10 -5 -25 -10 -33 -7 -11 -10 -7
-10 18 0 17 5 32 10 32 6 0 10 -8 10 -17z m-550 -27 c0 -3 -4 -8 -10 -11 -5
-3 -10 -1 -10 4 0 6 5 11 10 11 6 0 10 -2 10 -4z m27 -71 c-8 -8 -17 -11 -21
-8 -11 11 -6 41 7 46 19 7 30 -21 14 -38z m1636 20 c-3 -17 -75 -27 -84 -13
-7 11 -12 11 -29 0 -16 -10 -20 -10 -20 1 0 7 12 18 28 23 32 11 108 3 105
-11z m1082 15 c3 -5 1 -10 -4 -10 -6 0 -11 5 -11 10 0 6 2 10 4 10 3 0 8 -4
11 -10z m85 -35 l25 -28 -42 29 c-23 16 -42 33 -43 37 0 12 33 -9 60 -38z
m-3015 -91 c-14 -14 -22 -15 -60 -4 -43 12 -44 12 -25 33 15 16 22 18 33 8 11
-9 17 -8 26 3 10 12 9 13 -8 9 -12 -3 -21 -1 -21 4 0 12 30 39 50 45 22 7 27
-77 5 -98z m145 96 c0 -5 -4 -10 -10 -10 -5 0 -10 5 -10 10 0 6 5 10 10 10 6
0 10 -4 10 -10z m-100 -25 c0 -14 -4 -25 -10 -25 -11 0 -14 33 -3 43 11 11 13
8 13 -18z m3055 -35 c3 -5 2 -10 -4 -10 -5 0 -13 5 -16 10 -3 6 -2 10 4 10 5
0 13 -4 16 -10z m170 -18 c-7 -8 -35 7 -35 18 0 6 7 6 20 -2 10 -7 17 -14 15
-16z m-1735 -2 c0 -5 -5 -10 -11 -10 -5 0 -7 5 -4 10 3 6 8 10 11 10 2 0 4 -4
4 -10z m623 -32 c16 -10 16 -48 -1 -57 -11 -6 -11 -10 -3 -16 14 -8 -23 -45
-46 -45 -15 0 -18 26 -3 35 6 3 10 15 10 26 0 13 -7 19 -22 19 -18 0 -20 2 -8
9 8 6 18 7 22 5 4 -3 16 0 25 5 15 9 13 11 -12 11 -29 1 -29 2 -7 12 12 6 23
18 23 27 1 11 3 9 6 -4 3 -11 10 -23 16 -27z m984 -14 c22 -24 43 -31 43 -16
0 4 -5 13 -12 20 -9 9 -6 12 13 12 32 0 66 -29 61 -52 -3 -14 -11 -16 -53 -11
-41 5 -52 3 -63 -12 -13 -18 -15 -18 -57 4 -24 13 -52 30 -61 38 -17 15 -17
17 1 32 28 24 99 15 128 -15z m-1054 -65 c-14 -14 -5 -47 16 -52 9 -2 5 -3 -7
-2 -22 2 -23 0 -17 -31 5 -27 3 -33 -9 -28 -8 3 -25 0 -37 -7 -19 -10 -25 -9
-40 10 -17 21 -36 30 -25 12 4 -5 2 -19 -2 -32 -9 -23 -9 -23 -16 5 -4 16 -2
34 4 42 7 7 9 18 5 24 -3 5 -2 10 4 10 5 0 11 -6 14 -12 2 -7 6 -1 9 15 3 15
1 27 -3 27 -5 0 -9 8 -8 18 0 10 3 12 6 5 3 -10 10 -10 26 -1 16 8 22 8 25 -1
7 -20 19 -12 18 12 -3 34 3 38 26 17 16 -14 19 -23 11 -31z m745 11 c6 0 16
-9 22 -20 6 -11 15 -20 21 -20 6 0 22 -9 36 -20 l26 -20 -27 0 c-28 0 -42 10
-63 45 -6 11 -17 19 -24 17 -14 -3 -29 16 -29 38 1 12 3 12 14 -2 7 -10 18
-18 24 -18z m-1208 -14 c0 -12 5 -27 12 -34 13 -13 0 -16 -18 -4 -17 11 -24
71 -7 65 7 -3 13 -15 13 -27z m-1532 -1 c13 -4 22 -11 20 -17 -4 -11 -4 -11
-45 4 -34 13 -47 33 -15 24 9 -2 27 -7 40 -11z m1699 -37 c-3 -8 -6 -5 -6 6
-1 11 2 17 5 13 3 -3 4 -12 1 -19z m953 -32 c0 -6 -7 -1 -15 10 -8 10 -15 23
-15 28 0 6 7 1 15 -10 8 -10 15 -23 15 -28z m54 21 c4 4 4 -1 0 -12 -6 -15 -4
-17 9 -12 11 4 17 1 17 -6 0 -31 137 -117 186 -117 8 0 14 -4 14 -10 0 -15
-23 -12 -71 10 -24 11 -52 20 -62 20 -28 0 -77 41 -103 86 -27 46 -31 62 -11
45 8 -6 17 -8 21 -4z m-120 -3 c9 -3 16 -13 16 -21 0 -20 -34 -12 -38 10 -4
19 -1 20 22 11z m-1017 -36 c-3 -8 -6 -5 -6 6 -1 11 2 17 5 13 3 -3 4 -12 1
-19z m263 -48 c13 -24 2 -50 -11 -29 -9 15 -12 49 -4 49 2 0 9 -9 15 -20z
m120 0 c-20 -13 -33 -13 -25 0 3 6 14 10 23 10 15 0 15 -2 2 -10z m675 -20 c3
-5 1 -10 -4 -10 -6 0 -11 5 -11 10 0 6 2 10 4 10 3 0 8 -4 11 -10z m360 0 c8
-13 -15 -13 -35 0 -12 8 -11 10 7 10 12 0 25 -4 28 -10z m-1260 -20 c-2 -31
-15 -37 -15 -7 0 15 4 27 8 27 5 0 8 -9 7 -20z m-1255 -20 c0 -10 -31 -23 -38
-15 -8 7 19 35 29 29 5 -3 9 -9 9 -14z m2487 14 c-3 -3 -12 -4 -19 -1 -8 3 -5
6 6 6 11 1 17 -2 13 -5z m126 -1 c-7 -2 -19 -2 -25 0 -7 3 -2 5 12 5 14 0 19
-2 13 -5z m-306 -195 c-3 -8 -6 -5 -6 6 -1 11 2 17 5 13 3 -3 4 -12 1 -19z
m-147 -78 c0 -5 -4 -10 -10 -10 -5 0 -10 5 -10 10 0 6 5 10 10 10 6 0 10 -4
10 -10z m-13 -92 c-3 -8 -6 -5 -6 6 -1 11 2 17 5 13 3 -3 4 -12 1 -19z m-7
-78 c0 -5 -5 -10 -11 -10 -5 0 -7 5 -4 10 3 6 8 10 11 10 2 0 4 -4 4 -10z
m-1136 -506 c9 -23 8 -24 -19 -24 -14 0 -25 5 -25 10 0 6 7 10 16 10 8 0 12 5
9 10 -3 6 -2 10 3 10 6 0 13 -7 16 -16z m82 -4 c8 0 14 -4 14 -10 0 -5 -4 -10
-10 -10 -5 0 -7 -7 -4 -15 4 -8 1 -15 -5 -15 -11 0 -15 13 -12 38 1 6 -3 12
-9 12 -6 0 -8 5 -4 12 6 9 9 9 12 0 2 -7 10 -12 18 -12z m-191 -10 c-3 -5 -14
-10 -23 -10 -15 0 -15 2 -2 10 20 13 33 13 25 0z m169 -37 c4 -9 1 -21 -5 -27
-8 -8 -13 -8 -16 1 -2 7 -11 9 -19 6 -7 -3 -11 -9 -8 -14 3 -5 -2 -9 -10 -9
-8 0 -18 5 -22 12 -9 14 25 40 43 34 7 -3 13 -1 13 4 0 16 17 11 24 -7z m169
-60 c-7 -2 -21 -2 -30 0 -10 3 -4 5 12 5 17 0 24 -2 18 -5z m-183 -83 c0 -5
-5 -10 -11 -10 -5 0 -7 5 -4 10 3 6 8 10 11 10 2 0 4 -4 4 -10z m-210 -4 c0
-2 -7 -6 -15 -10 -8 -3 -15 -1 -15 4 0 6 7 10 15 10 8 0 15 -2 15 -4z m-60
-10 c0 -3 -4 -8 -10 -11 -5 -3 -10 -1 -10 4 0 6 5 11 10 11 6 0 10 -2 10 -4z
m80 -16 c0 -5 -2 -10 -4 -10 -3 0 -8 5 -11 10 -3 6 -1 10 4 10 6 0 11 -4 11
-10z"/>
<path d="M8291 8894 c0 -11 3 -14 6 -6 3 7 2 16 -1 19 -3 4 -6 -2 -5 -13z"/>
<path d="M6284 8065 c-9 -8 -42 -11 -112 -9 l-101 4 -35 -41 c-33 -39 -34 -42
-19 -65 9 -15 11 -24 4 -24 -6 0 -20 -9 -31 -20 -16 -16 -18 -24 -9 -38 13
-20 59 -45 59 -31 0 6 7 6 19 0 10 -6 21 -8 24 -4 4 3 13 0 22 -7 8 -7 15 -8
15 -2 0 5 10 12 23 16 17 5 19 8 8 15 -8 5 -19 7 -26 5 -6 -3 -18 2 -25 11
-11 14 -10 17 8 22 12 3 22 9 22 13 0 4 11 5 25 2 31 -5 32 5 3 29 -29 26 0
26 33 0 34 -26 52 -30 68 -14 15 15 61 13 199 -9 70 -12 96 -25 50 -26 -53 -2
-165 -23 -196 -38 -18 -8 -50 -18 -70 -21 -20 -4 -43 -14 -50 -24 -7 -10 -25
-19 -40 -21 -19 -2 -27 -9 -28 -23 -1 -11 -2 -23 -4 -27 -1 -5 -3 -13 -4 -18
0 -6 -8 -15 -16 -20 -22 -14 -7 -21 28 -14 20 4 29 11 25 18 -3 6 5 1 19 -11
13 -13 29 -23 35 -23 6 0 14 -7 17 -16 5 -12 17 -15 51 -12 25 2 46 -1 48 -6
2 -5 16 -8 32 -8 17 0 54 -6 84 -13 30 -8 59 -11 65 -7 6 3 21 5 33 4 11 -2
24 2 28 7 3 6 22 11 41 11 36 0 42 8 22 29 -11 10 -10 11 5 6 9 -4 17 -15 18
-24 0 -11 3 -8 10 7 5 13 13 21 18 17 6 -3 18 6 27 20 11 17 22 24 34 20 22
-7 38 14 20 25 -21 13 -3 43 22 37 11 -3 37 2 57 12 20 11 41 19 46 20 6 0 14
16 18 33 5 18 13 37 18 43 14 14 11 28 -6 22 -9 -4 -21 5 -32 23 -11 19 -24
28 -37 27 -11 -1 -21 3 -21 8 0 14 -42 55 -56 55 -9 0 -8 4 0 14 9 10 6 13
-16 14 -16 0 -55 1 -88 2 -33 1 -64 4 -70 8 -13 8 -38 11 -100 11 -81 1 -83 0
-96 -15 -13 -16 -49 -19 -49 -4 0 5 -12 16 -27 24 -22 11 -30 11 -39 1z m-50
-101 c9 -3 16 -10 16 -15 0 -14 -26 -10 -40 6 -13 16 -3 20 24 9z m263 -110
c-3 -3 -12 -4 -19 -1 -8 3 -5 6 6 6 11 1 17 -2 13 -5z m-27 -64 c0 -5 -5 -10
-11 -10 -5 0 -7 5 -4 10 3 6 8 10 11 10 2 0 4 -4 4 -10z m-108 -54 c7 -8 21
-25 31 -39 14 -19 31 -26 73 -32 54 -6 74 -24 32 -27 -99 -6 -118 -3 -118 18
0 8 -10 14 -22 14 -32 0 -46 12 -44 35 4 42 24 56 48 31z m272 -2 c29 -11 19
-48 -15 -61 -18 -7 -36 -10 -41 -7 -5 3 -15 1 -23 -6 -8 -7 -15 -7 -19 -1 -3
5 7 12 24 16 19 4 30 13 30 24 0 9 5 22 12 29 14 14 12 14 32 6z"/>
<path d="M7420 8076 c0 -2 7 -6 15 -10 8 -3 15 -1 15 4 0 6 -7 10 -15 10 -8 0
-15 -2 -15 -4z"/>
<path d="M6185 7900 c-3 -5 3 -10 15 -10 12 0 18 5 15 10 -3 6 -10 10 -15 10
-5 0 -12 -4 -15 -10z"/>
<path d="M6100 7790 c0 -5 5 -10 10 -10 6 0 10 5 10 10 0 6 -4 10 -10 10 -5 0
-10 -4 -10 -10z"/>
<path d="M6750 7681 c0 -5 9 -7 20 -4 11 3 20 7 20 9 0 2 -9 4 -20 4 -11 0
-20 -4 -20 -9z"/>
<path d="M5790 7671 c0 -6 4 -13 10 -16 6 -3 7 1 4 9 -7 18 -14 21 -14 7z"/>
<path d="M6665 7614 c-10 -8 -29 -14 -41 -14 -12 0 -27 -7 -34 -15 -7 -8 -16
-13 -20 -10 -4 3 -10 -1 -13 -9 -3 -8 -19 -17 -36 -21 -41 -9 -39 -25 2 -25
50 0 140 34 170 64 15 15 27 28 27 30 0 12 -40 11 -55 0z"/>
<path d="M5850 6960 c0 -5 5 -10 10 -10 6 0 10 5 10 10 0 6 -4 10 -10 10 -5 0
-10 -4 -10 -10z"/>
<path d="M5880 6904 c0 -9 -8 -23 -17 -30 -16 -12 -15 -13 10 -14 22 0 27 4
27 24 0 14 -4 28 -10 31 -5 3 -10 -1 -10 -11z"/>
<path d="M5920 6884 c0 -8 5 -12 10 -9 6 3 10 10 10 16 0 5 -4 9 -10 9 -5 0
-10 -7 -10 -16z"/>
<path d="M6430 6871 c0 -10 -29 -17 -114 -26 -56 -6 -67 -12 -46 -25 12 -8 11
-10 -6 -10 -12 0 -24 -7 -28 -15 -3 -8 -14 -15 -25 -15 -10 0 -21 -8 -25 -17
-3 -10 -9 -24 -12 -30 -10 -22 24 -14 51 12 15 13 43 29 63 36 61 20 162 69
162 79 0 5 -4 12 -10 15 -5 3 -10 2 -10 -4z"/>
<path d="M5880 6842 c0 -6 5 -12 12 -14 16 -6 1 -58 -17 -58 -8 0 -12 -6 -9
-14 3 -8 15 -11 30 -8 19 3 23 9 18 24 -4 13 -1 24 7 29 11 6 11 13 3 26 -12
20 -44 30 -44 15z"/>
<path d="M5966 6834 c-4 -10 -1 -14 6 -12 15 5 23 28 10 28 -5 0 -13 -7 -16
-16z"/>
<path d="M6016 6831 c-5 -7 -3 -18 3 -24 14 -14 20 -6 11 17 -5 15 -9 16 -14
7z"/>
<path d="M6000 6779 c0 -5 5 -7 10 -4 6 3 10 8 10 11 0 2 -4 4 -10 4 -5 0 -10
-5 -10 -11z"/>
<path d="M5935 6711 c-3 -5 -1 -12 5 -16 5 -3 10 1 10 9 0 18 -6 21 -15 7z"/>
<path d="M6061 6624 c0 -11 3 -14 6 -6 3 7 2 16 -1 19 -3 4 -6 -2 -5 -13z"/>
<path d="M6230 6590 c0 -5 5 -10 11 -10 5 0 7 5 4 10 -3 6 -8 10 -11 10 -2 0
-4 -4 -4 -10z"/>
<path d="M6121 6393 c-1 -17 4 -35 9 -38 11 -7 11 9 0 45 -8 24 -8 24 -9 -7z"/>
<path d="M7151 6404 c0 -11 3 -14 6 -6 3 7 2 16 -1 19 -3 4 -6 -2 -5 -13z"/>
<path d="M6815 5870 c-3 -5 -1 -10 4 -10 6 0 11 5 11 10 0 6 -2 10 -4 10 -3 0
-8 -4 -11 -10z"/>
<path d="M7655 7421 c-3 -6 4 -9 15 -8 11 1 20 5 20 9 0 11 -28 10 -35 -1z"/>
<path d="M7985 7190 c-16 -7 -17 -9 -3 -9 9 -1 20 4 23 9 7 11 7 11 -20 0z"/>
<path d="M7915 7080 c3 -5 8 -10 11 -10 2 0 4 5 4 10 0 6 -5 10 -11 10 -5 0
-7 -4 -4 -10z"/>
<path d="M7582 6782 c4 -19 29 -23 35 -6 2 6 -6 14 -17 17 -16 4 -20 1 -18
-11z"/>
<path d="M7565 6730 c3 -5 8 -10 11 -10 2 0 4 5 4 10 0 6 -5 10 -11 10 -5 0
-7 -4 -4 -10z"/>
<path d="M7529 9593 c-4 -43 -3 -65 3 -69 4 -3 8 13 8 35 0 23 -2 41 -5 41 -3
0 -5 -3 -6 -7z"/>
<path d="M8262 9591 c2 -7 7 -12 11 -12 12 1 9 15 -3 20 -7 2 -11 -2 -8 -8z"/>
<path d="M8300 9592 c0 -10 36 -9 46 1 4 4 -5 7 -19 7 -15 0 -27 -4 -27 -8z"/>
<path d="M8359 9590 c-1 -5 -2 -16 -3 -22 -1 -7 -8 -19 -16 -26 -13 -12 -13
-13 2 -8 10 3 20 1 23 -5 4 -5 11 -7 16 -3 6 4 6 11 -1 19 -8 10 -9 19 -1 32
9 16 10 16 11 -5 0 -15 5 -22 13 -19 6 2 11 12 11 21 -2 24 5 20 16 -9 5 -14
16 -25 24 -25 8 0 21 -3 30 -6 9 -3 16 -1 16 5 0 6 -7 11 -15 11 -9 0 -15 6
-14 13 4 33 -2 37 -56 37 -30 0 -56 -4 -56 -10z"/>
<path d="M7295 9570 c-3 -5 1 -10 10 -10 9 0 13 5 10 10 -3 6 -8 10 -10 10 -2
0 -7 -4 -10 -10z"/>
<path d="M7660 9572 c0 -5 7 -9 15 -9 8 0 15 4 15 9 0 4 -7 8 -15 8 -8 0 -15
-4 -15 -8z"/>
<path d="M7696 9525 c7 -18 74 -21 74 -4 0 6 -9 9 -20 6 -11 -3 -18 -1 -14 4
3 5 -6 9 -20 9 -18 0 -24 -4 -20 -15z"/>
<path d="M8476 9417 c3 -10 9 -15 12 -12 3 3 0 11 -7 18 -10 9 -11 8 -5 -6z"/>
<path d="M8120 9400 c0 -5 5 -10 10 -10 6 0 10 5 10 10 0 6 -4 10 -10 10 -5 0
-10 -4 -10 -10z"/>
<path d="M8280 9400 c0 -5 5 -10 11 -10 5 0 7 5 4 10 -3 6 -8 10 -11 10 -2 0
-4 -4 -4 -10z"/>
<path d="M7860 9380 c0 -5 5 -10 10 -10 6 0 10 5 10 10 0 6 -4 10 -10 10 -5 0
-10 -4 -10 -10z"/>
<path d="M8336 9365 c-3 -8 -1 -15 4 -15 6 0 10 7 10 15 0 8 -2 15 -4 15 -2 0
-6 -7 -10 -15z"/>
<path d="M7870 9350 c0 -5 5 -10 10 -10 6 0 10 5 10 10 0 6 -4 10 -10 10 -5 0
-10 -4 -10 -10z"/>
<path d="M8378 9353 c6 -2 18 -2 25 0 6 3 1 5 -13 5 -14 0 -19 -2 -12 -5z"/>
<path d="M8460 9351 c0 -5 5 -13 10 -16 6 -3 10 -2 10 4 0 5 -4 13 -10 16 -5
3 -10 2 -10 -4z"/>
<path d="M8090 9340 c0 -5 7 -10 16 -10 8 0 12 5 9 10 -3 6 -10 10 -16 10 -5
0 -9 -4 -9 -10z"/>
<path d="M8253 9342 c-28 -4 -30 -18 -4 -31 14 -8 22 -7 29 2 15 18 1 33 -25
29z"/>
<path d="M8420 9335 c0 -8 5 -15 10 -15 6 0 10 7 10 15 0 8 -4 15 -10 15 -5 0
-10 -7 -10 -15z"/>
<path d="M6560 9310 c0 -6 19 -7 48 -3 64 8 66 13 4 13 -29 0 -52 -4 -52 -10z"/>
<path d="M6280 9293 c-109 -9 -215 -35 -303 -77 -51 -24 -102 -47 -114 -50
-41 -13 -24 -23 50 -30 39 -3 102 -9 140 -12 58 -6 67 -5 67 10 0 9 8 16 18
16 20 1 64 64 56 83 -6 16 66 47 114 48 20 0 55 4 77 8 l40 9 -50 -1 c-27 0
-70 -2 -95 -4z"/>
<path d="M8075 9290 c-3 -5 -1 -10 4 -10 6 0 11 5 11 10 0 6 -2 10 -4 10 -3 0
-8 -4 -11 -10z"/>
<path d="M8440 9252 c0 -28 4 -54 10 -57 6 -4 8 14 6 45 -5 68 -16 77 -16 12z"/>
<path d="M8260 9270 c0 -5 5 -10 10 -10 6 0 10 5 10 10 0 6 -4 10 -10 10 -5 0
-10 -4 -10 -10z"/>
<path d="M8411 9244 c0 -11 3 -14 6 -6 3 7 2 16 -1 19 -3 4 -6 -2 -5 -13z"/>
<path d="M5425 9100 c3 -5 10 -10 16 -10 5 0 9 5 9 10 0 6 -7 10 -16 10 -8 0
-12 -4 -9 -10z"/>
<path d="M8426 9071 c-18 -7 -18 -8 4 -14 27 -7 39 -1 24 12 -5 5 -18 5 -28 2z"/>
<path d="M5730 9000 c0 -5 4 -10 9 -10 6 0 13 5 16 10 3 6 -1 10 -9 10 -9 0
-16 -4 -16 -10z"/>
<path d="M5818 8993 c7 -3 16 -2 19 1 4 3 -2 6 -13 5 -11 0 -14 -3 -6 -6z"/>
<path d="M5885 8990 c3 -5 8 -10 11 -10 2 0 4 5 4 10 0 6 -5 10 -11 10 -5 0
-7 -4 -4 -10z"/>
<path d="M6580 8910 c0 -5 5 -10 11 -10 5 0 7 5 4 10 -3 6 -8 10 -11 10 -2 0
-4 -4 -4 -10z"/>
<path d="M6711 8894 c0 -11 3 -14 6 -6 3 7 2 16 -1 19 -3 4 -6 -2 -5 -13z"/>
<path d="M6665 8890 c3 -5 11 -10 16 -10 6 0 7 5 4 10 -3 6 -11 10 -16 10 -6
0 -7 -4 -4 -10z"/>
<path d="M6930 8863 c0 -13 5 -23 10 -23 13 0 13 11 0 30 -8 12 -10 11 -10 -7z"/>
<path d="M6900 8855 c0 -8 4 -15 10 -15 5 0 7 7 4 15 -4 8 -8 15 -10 15 -2 0
-4 -7 -4 -15z"/>
<path d="M6818 8853 c12 -2 32 -2 45 0 12 2 2 4 -23 4 -25 0 -35 -2 -22 -4z"/>
<path d="M7258 8803 c7 -3 16 -2 19 1 4 3 -2 6 -13 5 -11 0 -14 -3 -6 -6z"/>
<path d="M7540 8780 c-12 -8 -10 -10 8 -10 13 0 20 4 17 10 -7 12 -6 12 -25 0z"/>
<path d="M9470 7990 c0 -5 7 -10 16 -10 8 0 12 5 9 10 -3 6 -10 10 -16 10 -5
0 -9 -4 -9 -10z"/>
<path d="M5100 7509 c-6 -11 -10 -25 -7 -32 2 -6 9 3 15 21 12 36 8 42 -8 11z"/>
<path d="M5063 7395 c-3 -9 -3 -18 -1 -21 3 -3 8 4 11 16 6 23 -1 27 -10 5z"/>
<path d="M5050 7340 c0 -11 2 -20 4 -20 2 0 6 9 9 20 3 11 1 20 -4 20 -5 0 -9
-9 -9 -20z"/>
<path d="M5041 7294 c0 -11 3 -14 6 -6 3 7 2 16 -1 19 -3 4 -6 -2 -5 -13z"/>
<path d="M8952 7275 c0 -5 6 -26 13 -45 7 -19 14 -28 14 -20 0 8 -6 29 -14 45
-7 17 -13 26 -13 20z"/>
<path d="M9020 7076 c0 -2 8 -10 18 -17 15 -13 16 -12 3 4 -13 16 -21 21 -21
13z"/>
<path d="M8912 7035 c0 -16 2 -22 5 -12 2 9 2 23 0 30 -3 6 -5 -1 -5 -18z"/>
<path d="M5111 6980 c14 -31 19 -36 19 -24 0 6 -7 19 -16 30 -14 18 -14 18 -3
-6z"/>
<path d="M8846 6759 c-27 -27 -37 -43 -32 -56 6 -15 9 -14 24 9 9 14 25 37 36
52 28 40 16 37 -28 -5z"/>
<path d="M8715 6650 c-3 -6 1 -7 9 -4 18 7 21 14 7 14 -6 0 -13 -4 -16 -10z"/>
<path d="M8697 6594 c-7 -8 11 -34 23 -34 11 0 5 33 -6 37 -6 2 -13 0 -17 -3z"/>
<path d="M8620 6280 c0 -5 5 -10 10 -10 6 0 10 5 10 10 0 6 -4 10 -10 10 -5 0
-10 -4 -10 -10z"/>
<path d="M8633 6083 c9 -2 23 -2 30 0 6 3 -1 5 -18 5 -16 0 -22 -2 -12 -5z"/>
<path d="M5941 5824 c0 -11 3 -14 6 -6 3 7 2 16 -1 19 -3 4 -6 -2 -5 -13z"/>
<path d="M5650 5766 c0 -2 7 -7 16 -10 8 -3 12 -2 9 4 -6 10 -25 14 -25 6z"/>
<path d="M5801 5704 c0 -11 3 -14 6 -6 3 7 2 16 -1 19 -3 4 -6 -2 -5 -13z"/>
<path d="M8518 5618 c-4 -23 -1 -32 13 -35 10 -3 20 -11 23 -19 4 -10 -3 -14
-24 -14 -34 0 -39 -19 -18 -65 14 -31 22 -31 54 -1 23 20 25 30 22 76 -3 48
-6 55 -34 71 l-32 17 -4 -30z"/>
<path d="M5806 5482 c-2 -4 -1 -14 5 -22 7 -12 9 -10 9 8 0 23 -5 28 -14 14z"/>
<path d="M5892 5180 c-7 -12 -9 -28 -3 -42 l8 -22 12 21 c21 41 6 80 -17 43z"/>
<path d="M5907 5096 c-7 -19 3 -56 15 -56 6 0 7 -11 4 -25 -4 -14 -2 -25 3
-25 5 0 16 -3 25 -6 21 -8 20 10 -1 32 -10 9 -17 33 -18 52 0 36 -18 54 -28
28z"/>
<path d="M6710 5050 c0 -5 5 -10 11 -10 5 0 7 5 4 10 -3 6 -8 10 -11 10 -2 0
-4 -4 -4 -10z"/>
<path d="M6730 5020 c0 -5 4 -10 9 -10 6 0 13 5 16 10 3 6 -1 10 -9 10 -9 0
-16 -4 -16 -10z"/>
<path d="M5947 4931 c-4 -17 -3 -21 5 -13 5 5 8 16 6 23 -3 8 -7 3 -11 -10z"/>
<path d="M6452 4938 c3 -7 15 -15 28 -16 21 -4 22 -2 7 12 -19 19 -40 21 -35
4z"/>
<path d="M5690 4824 c0 -12 7 -27 15 -34 19 -16 19 -3 0 30 -13 24 -14 24 -15
4z"/>
<path d="M6655 4820 c3 -5 10 -10 16 -10 5 0 9 5 9 10 0 6 -7 10 -16 10 -8 0
-12 -4 -9 -10z"/>
<path d="M5500 4741 c0 -5 9 -7 20 -4 11 3 20 7 20 9 0 2 -9 4 -20 4 -11 0
-20 -4 -20 -9z"/>
<path d="M6960 4699 c0 -5 5 -7 10 -4 6 3 10 8 10 11 0 2 -4 4 -10 4 -5 0 -10
-5 -10 -11z"/>
<path d="M7802 4636 c7 -8 15 -12 17 -11 5 6 -10 25 -20 25 -5 0 -4 -6 3 -14z"/>
<path d="M7785 4600 c-3 -5 -1 -10 4 -10 6 0 11 5 11 10 0 6 -2 10 -4 10 -3 0
-8 -4 -11 -10z"/>
<path d="M7710 4355 c-7 -9 -11 -17 -9 -20 3 -2 10 5 17 15 14 24 10 26 -8 5z"/>
<path d="M6620 4080 c14 -11 40 -19 60 -19 33 0 32 1 -20 19 -69 24 -71 24
-40 0z"/>
<path d="M7590 4080 c-9 -6 -10 -10 -3 -10 6 0 15 5 18 10 8 12 4 12 -15 0z"/>
<path d="M6695 4020 c3 -5 12 -7 20 -3 21 7 19 13 -6 13 -11 0 -18 -4 -14 -10z"/>
<path d="M6270 3969 c0 -5 5 -7 10 -4 6 3 10 8 10 11 0 2 -4 4 -10 4 -5 0 -10
-5 -10 -11z"/>
<path d="M6565 3600 c-3 -5 -1 -10 4 -10 6 0 11 5 11 10 0 6 -2 10 -4 10 -3 0
-8 -4 -11 -10z"/>
<path d="M6645 3550 c-3 -5 -1 -10 4 -10 6 0 11 5 11 10 0 6 -2 10 -4 10 -3 0
-8 -4 -11 -10z"/>
<path d="M6735 3510 c-3 -5 -1 -10 4 -10 6 0 11 5 11 10 0 6 -2 10 -4 10 -3 0
-8 -4 -11 -10z"/>
<path d="M2885 3300 c3 -5 14 -10 23 -10 15 0 15 2 2 10 -20 13 -33 13 -25 0z"/>
<path d="M2783 3282 c-44 -18 -98 -68 -83 -77 5 -3 28 -1 51 5 48 13 89 6 89
-15 0 -21 18 -19 27 3 11 21 10 73 0 90 -11 16 -33 15 -84 -6z m-5 -34 c-3 -7
-13 -15 -24 -17 -16 -3 -17 -1 -5 13 16 19 34 21 29 4z m77 -8 c3 -5 1 -10 -4
-10 -6 0 -11 5 -11 10 0 6 2 10 4 10 3 0 8 -4 11 -10z"/>
<path d="M2895 3270 c3 -5 11 -10 16 -10 6 0 7 5 4 10 -3 6 -11 10 -16 10 -6
0 -7 -4 -4 -10z"/>
<path d="M2984 3255 c3 -8 1 -15 -5 -15 -7 0 -9 -13 -4 -36 4 -24 3 -34 -4
-29 -6 3 -11 13 -11 21 0 8 -7 14 -15 14 -8 0 -15 5 -15 10 0 14 -19 12 -35
-4 -12 -11 -9 -18 16 -42 28 -27 43 -68 17 -47 -7 6 -31 16 -53 23 -22 7 -44
16 -49 21 -14 13 -47 11 -78 -5 -15 -8 -40 -17 -57 -21 -26 -5 -31 -3 -32 12
0 10 -11 -6 -25 -36 -26 -57 -32 -81 -10 -42 11 20 14 21 19 7 8 -21 -14 -58
-30 -52 -13 5 -23 -16 -22 -47 0 -21 1 -21 9 -2 5 11 9 14 9 7 1 -21 -19 -53
-30 -47 -5 4 -9 -15 -9 -44 0 -31 -5 -53 -13 -58 -8 -4 -17 -26 -21 -48 -40
-236 -53 -350 -37 -341 16 10 14 -7 -4 -30 -10 -13 -14 -41 -13 -89 1 -38 3
-55 5 -37 3 20 10 32 19 32 12 0 13 8 8 35 -4 24 -2 35 5 35 7 0 9 -4 6 -10
-3 -5 -1 -10 5 -10 6 0 10 6 9 13 -7 52 15 76 52 57 19 -11 27 -32 33 -85 2
-16 8 -31 13 -32 18 -6 24 28 8 43 -19 20 -19 30 0 14 15 -13 25 3 41 66 3 13
16 31 27 39 20 14 22 12 44 -56 12 -39 20 -75 17 -80 -7 -13 18 -79 28 -73 4
3 5 22 1 42 -6 38 -7 50 -4 117 l1 40 25 -49 c14 -27 25 -66 25 -85 1 -26 10
-46 35 -75 l35 -39 0 66 c0 38 -4 67 -10 67 -5 0 -10 7 -10 15 0 8 5 15 11 15
5 0 7 5 4 10 -3 6 -1 10 4 10 6 0 11 -9 11 -20 0 -13 7 -20 19 -20 14 0 20 10
25 40 7 46 26 54 26 11 0 -17 4 -32 9 -35 5 -3 12 -22 15 -41 4 -19 11 -35 16
-35 6 0 10 4 10 9 0 4 10 21 22 37 14 17 21 38 19 56 -4 45 8 71 31 65 17 -5
19 -2 13 21 -5 22 -4 25 6 15 22 -22 39 -15 39 16 0 24 -9 36 -44 62 -35 25
-43 35 -35 48 5 9 18 37 29 64 11 27 26 47 35 47 8 0 15 7 15 15 0 8 -7 15
-15 15 -9 0 -18 7 -22 16 -3 8 -12 13 -19 10 -17 -7 -18 6 -2 22 18 18 38 14
38 -7 0 -11 5 -23 11 -27 12 -7 8 20 -7 60 -3 9 -1 16 5 16 6 0 10 15 10 33
-1 31 -2 31 -8 5 l-6 -27 -25 19 c-14 10 -21 22 -16 27 5 4 11 3 13 -4 6 -16
40 19 45 45 5 33 -23 74 -48 69 -17 -3 -23 2 -27 20 -3 18 -1 23 9 19 18 -7
18 5 -1 30 -8 11 -15 14 -15 7 0 -27 -19 -11 -30 25 -14 43 -30 63 -37 45 -3
-8 -11 -5 -24 8 -18 18 -18 21 -4 36 13 13 14 18 3 24 -20 13 -31 11 -24 -6z
m-164 -145 c0 -5 -6 -10 -14 -10 -8 0 -18 5 -21 10 -3 6 3 10 14 10 12 0 21
-4 21 -10z m-151 -29 c-15 -5 -22 6 -14 19 6 9 10 9 16 -1 5 -8 4 -15 -2 -18z
m416 -28 c-8 -17 -8 -17 -12 0 -3 9 -9 17 -14 17 -5 0 -9 10 -9 22 l0 22 21
-21 c15 -15 19 -27 14 -40z m-368 41 c-3 -3 -12 -4 -19 -1 -8 3 -5 6 6 6 11 1
17 -2 13 -5z m333 -51 c0 -21 -34 -15 -48 8 -11 16 -11 24 -1 36 11 13 15 12
31 -9 9 -13 18 -29 18 -35z m-70 -8 c0 -12 -19 -12 -23 0 -4 9 -1 12 9 8 7 -3
14 -7 14 -8z m-42 -23 c2 -7 -3 -12 -12 -12 -9 0 -16 7 -16 16 0 17 22 14 28
-4z m-53 -22 c3 -5 1 -10 -4 -10 -6 0 -11 5 -11 10 0 6 2 10 4 10 3 0 8 -4 11
-10z m212 -16 c-9 -9 -28 6 -21 18 4 6 10 6 17 -1 6 -6 8 -13 4 -17z m-232
-24 c3 -5 1 -10 -4 -10 -6 0 -11 5 -11 10 0 6 2 10 4 10 3 0 8 -4 11 -10z
m221 -36 c2 -18 -2 -24 -12 -20 -7 3 -19 -1 -26 -8 -7 -7 -17 -14 -23 -17 -5
-2 -8 -15 -6 -28 1 -13 -3 -28 -11 -32 -10 -7 -9 -9 4 -9 9 0 18 -5 20 -11 3
-9 9 -9 26 0 19 10 20 15 10 36 -6 14 -8 28 -4 32 10 10 26 -17 26 -44 0 -12
5 -25 10 -28 6 -3 10 -15 10 -26 0 -10 -4 -19 -10 -19 -5 0 -10 -15 -10 -34 0
-44 -12 -51 -49 -31 -17 8 -39 15 -51 15 -17 0 -18 -3 -9 -19 7 -10 9 -27 5
-37 -5 -14 -9 -15 -15 -5 -7 10 -9 10 -14 -2 -3 -8 0 -20 6 -26 15 -15 2 -24
-25 -18 -21 6 -23 11 -20 62 2 30 7 53 12 50 4 -3 13 2 20 9 9 12 7 17 -8 25
-30 16 -33 65 -5 86 12 10 20 21 17 26 -3 5 2 9 10 9 8 0 22 12 31 28 14 22
63 58 85 61 3 1 6 -11 6 -25z m-356 -269 c0 -8 -4 -15 -10 -15 -5 0 -7 7 -4
15 4 8 8 15 10 15 2 0 4 -7 4 -15z m-20 -41 c0 -8 -5 -12 -10 -9 -6 4 -8 11
-5 16 9 14 15 11 15 -7z m313 -70 c9 -9 -69 -84 -87 -84 -16 0 -46 37 -46 57
0 18 27 16 34 -2 6 -17 56 -17 56 0 0 22 30 42 43 29z m-369 -82 c-4 -9 -6
-23 -5 -29 1 -7 -3 -13 -9 -13 -14 0 -13 26 3 69 10 29 12 31 15 12 2 -12 0
-30 -4 -39z"/>
<path d="M2950 2765 c0 -8 5 -15 10 -15 6 0 10 7 10 15 0 8 -4 15 -10 15 -5 0
-10 -7 -10 -15z"/>
<path d="M2670 3186 c0 -22 17 -28 24 -10 9 22 8 24 -9 24 -8 0 -15 -6 -15
-14z"/>
<path d="M4051 2853 c13 -16 27 -29 32 -31 4 -2 5 -8 2 -13 -4 -5 1 -6 9 -3 9
3 20 -3 28 -15 7 -12 20 -21 28 -21 13 0 13 -1 0 -10 -13 -9 -7 -14 12 -11 4
0 5 -5 2 -13 -3 -8 -14 -12 -25 -9 -12 3 -18 11 -15 19 3 7 1 16 -4 19 -6 4
-10 -5 -10 -19 0 -17 6 -26 16 -26 8 0 12 -5 9 -10 -4 -6 -13 -9 -20 -8 -8 2
-14 -1 -15 -7 0 -5 9 -11 20 -13 21 -3 21 -4 3 -18 -16 -12 -16 -15 -3 -23 13
-9 12 -12 -5 -25 -12 -9 -20 -28 -22 -52 -1 -20 -7 -40 -14 -44 -6 -5 -8 -16
-4 -29 5 -16 2 -21 -12 -21 -11 0 -14 -3 -7 -8 7 -4 14 -18 15 -32 3 -20 -1
-26 -18 -28 -13 -2 -23 -7 -23 -12 0 -5 7 -7 15 -4 12 5 14 -2 10 -37 -2 -24
-11 -49 -20 -55 -12 -9 -13 -17 -5 -38 10 -26 2 -34 -16 -16 -7 7 -10 -4 -9
-32 0 -24 -4 -51 -9 -60 -8 -13 -6 -21 8 -31 14 -11 16 -16 6 -22 -9 -6 -9 -9
0 -15 9 -6 9 -13 2 -26 -8 -14 -7 -23 4 -36 11 -11 12 -18 4 -23 -6 -3 -9 -3
-8 2 4 11 -13 12 -37 2 -11 -4 -14 -8 -7 -8 22 -2 13 -31 -10 -31 -20 0 -20
-1 -5 -12 9 -7 19 -25 22 -40 6 -24 4 -26 -17 -22 -12 2 -17 2 -10 -2 6 -3 12
-12 12 -19 0 -7 6 -16 13 -19 6 -3 0 -3 -15 0 -17 4 -28 2 -28 -5 0 -6 5 -11
10 -11 6 0 10 -7 10 -15 0 -11 -8 -13 -31 -8 -29 6 -30 5 -22 -23 10 -39 6
-86 -8 -95 -8 -5 -7 -8 2 -12 10 -4 8 -10 -9 -22 -17 -12 -21 -20 -13 -28 14
-14 14 -47 1 -47 -5 0 -10 5 -10 10 0 6 -7 10 -15 10 -8 0 -15 -4 -15 -10 0
-5 5 -9 12 -7 6 1 14 -6 16 -15 2 -12 -3 -18 -13 -18 -12 0 -16 -6 -12 -19 2
-10 1 -25 -4 -32 -7 -11 -9 -10 -9 4 0 9 -4 17 -8 17 -5 0 -7 -16 -6 -35 3
-36 -11 -49 -19 -17 -4 13 -5 12 -6 -5 0 -12 -7 -24 -13 -26 -10 -4 -10 -8 -1
-14 12 -9 6 -63 -8 -63 -5 0 -6 -7 -3 -15 4 -9 -1 -18 -10 -21 -13 -5 -15 -14
-10 -37 5 -24 3 -29 -9 -24 -9 3 -21 0 -27 -8 -7 -9 -8 -14 0 -17 7 -2 7 -18
0 -53 -16 -79 -17 -80 -30 -77 -19 4 -40 -18 -40 -44 0 -15 -6 -24 -15 -24
-20 0 -30 -48 -17 -82 12 -33 7 -54 -14 -62 -9 -3 -14 1 -14 14 0 14 -7 20
-21 20 -11 0 -17 5 -14 10 4 6 10 8 15 5 17 -11 24 46 8 62 -13 13 -17 13 -31
-1 -10 -10 -18 -12 -22 -6 -3 5 -1 10 4 10 6 0 11 7 11 16 0 8 5 12 10 9 14
-9 13 8 -2 23 -19 19 -31 14 -25 -9 4 -16 3 -18 -8 -9 -15 13 -10 65 8 88 17
22 -4 13 -24 -10 -19 -23 -26 -15 -10 11 6 9 5 21 -2 33 -17 27 -23 22 -23
-17 0 -23 -7 -40 -19 -51 -20 -15 -19 -15 3 -11 13 3 20 1 16 -5 -3 -5 -17 -7
-29 -4 -27 7 -45 -12 -24 -25 11 -6 11 -13 3 -26 -15 -24 -42 -39 -51 -29 -4
5 -2 11 5 13 6 3 12 8 12 13 0 5 -13 2 -29 -6 -34 -17 -32 -48 2 -59 17 -5 19
-8 7 -12 -8 -3 -19 -12 -23 -19 -14 -24 -26 -15 -33 23 -4 21 -2 43 4 54 7 11
8 20 2 24 -5 3 -7 13 -4 23 5 14 4 14 -4 3 -6 -8 -8 -20 -6 -26 3 -7 -6 -19
-20 -29 -21 -13 -25 -22 -20 -49 l5 -32 -20 24 c-21 23 -21 23 -21 2 0 -13 -6
-21 -16 -21 -11 0 -14 -5 -10 -16 6 -17 -15 -44 -34 -44 -7 0 -10 -7 -6 -15 3
-8 -1 -21 -9 -29 -17 -16 -20 -30 -6 -21 5 3 12 1 16 -5 3 -6 -1 -13 -9 -16
-17 -7 -22 -39 -7 -48 5 -3 8 2 7 11 -2 26 18 25 30 -1 8 -18 8 -23 0 -20 -16
5 -54 -27 -38 -33 6 -3 12 -15 12 -27 0 -12 5 -27 11 -33 8 -8 7 -13 -1 -18
-7 -4 -16 -2 -20 5 -5 9 -9 9 -14 1 -4 -6 -2 -11 4 -11 7 0 9 -8 4 -22 -3 -13
-3 -20 1 -16 5 4 14 0 21 -10 18 -23 17 -33 -1 -26 -8 4 -15 1 -15 -5 0 -6 9
-11 21 -11 18 0 20 -4 15 -25 -4 -14 -2 -25 4 -25 5 0 10 6 10 13 1 7 7 4 15
-7 13 -17 12 -21 -9 -37 -27 -21 -39 -56 -22 -62 8 -3 8 -10 -2 -26 -7 -12 -8
-21 -2 -21 11 0 13 -71 4 -107 -4 -13 -12 -23 -19 -23 -16 0 -25 -34 -14 -51
6 -10 9 -11 9 -2 0 18 41 63 57 63 18 0 16 -17 -3 -24 -8 -3 -13 -10 -9 -15 3
-6 11 -8 18 -5 8 3 13 -9 15 -35 2 -36 0 -39 -19 -34 -12 3 -24 0 -28 -6 -4
-7 -17 -13 -29 -14 -12 0 -19 -3 -17 -6 3 -2 -9 -17 -25 -33 l-30 -28 46 0
c25 0 54 5 64 10 13 7 21 7 25 0 4 -6 65 -10 151 -10 l144 0 0 35 c0 75 32
244 66 345 19 58 87 211 150 340 114 230 154 324 208 487 15 46 32 85 37 88 5
4 9 -54 10 -142 2 -316 26 -441 122 -643 46 -95 118 -219 154 -265 4 -5 21
-29 37 -52 16 -24 57 -72 93 -108 35 -36 58 -65 51 -64 -12 1 -131 127 -216
229 -20 25 -64 100 -97 168 -33 67 -63 122 -66 122 -12 0 -70 -210 -78 -285
-8 -78 -6 -187 4 -233 l5 -22 347 0 346 1 23 24 22 24 -33 50 c-44 66 -88 125
-97 129 -5 2 -8 7 -8 12 0 11 -37 89 -60 125 -41 67 -72 135 -72 159 0 14 -6
26 -12 26 -6 0 -20 20 -30 43 -10 23 -27 59 -37 80 -10 21 -21 52 -24 69 -4
18 -16 47 -26 65 -11 19 -19 39 -19 46 0 17 -53 123 -107 212 -23 39 -62 122
-86 186 -25 63 -57 139 -71 167 -27 53 -33 82 -17 82 10 0 58 -98 68 -139 14
-61 96 -245 136 -308 73 -115 167 -287 167 -306 0 -6 9 -28 19 -51 11 -23 27
-59 36 -81 10 -22 25 -51 34 -65 9 -14 23 -43 30 -65 20 -62 39 -101 57 -116
16 -13 17 -11 12 13 -3 18 -1 25 8 21 9 -3 14 15 18 64 5 60 22 201 29 243 1
8 13 31 25 50 30 48 37 91 23 157 -6 31 -9 59 -6 61 3 3 17 0 32 -7 23 -11 21
-6 -17 36 -25 26 -60 65 -80 87 -19 21 -68 70 -108 110 -41 39 -104 107 -140
151 -37 43 -84 95 -105 114 -21 19 -54 57 -73 85 -18 28 -52 71 -74 96 -39 43
-50 73 -31 84 5 3 7 16 5 29 -3 12 4 1 15 -25 26 -60 70 -128 84 -128 6 0 7
-3 4 -6 -9 -9 36 -64 189 -232 29 -32 67 -76 85 -98 19 -23 46 -50 60 -60 15
-10 25 -23 22 -30 -4 -11 47 -27 57 -17 11 11 1 158 -16 228 -9 39 -64 92 -75
73 -6 -9 -9 -3 -9 17 0 45 -14 59 -59 59 -31 1 -41 5 -41 18 0 26 -11 48 -24
48 -6 0 -17 9 -24 20 -7 12 -18 17 -29 13 -11 -4 -14 -3 -9 5 4 7 1 15 -8 18
-8 3 -12 12 -10 19 4 10 -1 12 -15 8 -15 -4 -21 -1 -21 11 0 9 -6 16 -14 16
-8 0 -16 7 -20 15 -3 8 -12 15 -20 15 -10 0 -13 6 -10 15 7 17 -6 20 -24 5 -6
-6 -10 -8 -8 -5 5 8 -50 65 -64 65 -6 0 -9 8 -6 18 3 9 10 48 16 86 6 38 14
74 18 80 3 6 5 18 4 28 -2 9 2 19 8 23 5 3 10 20 10 36 0 17 5 39 10 50 7 13
7 19 0 19 -6 0 -4 14 4 38 8 20 20 69 26 107 6 39 17 93 25 120 11 45 13 47
16 21 2 -16 9 -31 14 -33 15 -5 38 53 30 77 -4 11 -2 20 4 20 6 0 11 8 11 18
0 13 -6 10 -23 -12 -29 -35 -45 -20 -24 22 7 16 12 45 9 66 -3 27 -1 37 7 32
7 -5 11 1 11 14 0 25 -107 137 -167 174 -24 14 -43 31 -43 36 0 6 -5 10 -12
10 -6 0 -1 -12 13 -27z m139 -133 c0 -5 -5 -10 -11 -10 -5 0 -7 5 -4 10 3 6 8
10 11 10 2 0 4 -4 4 -10z m-150 -535 c0 -8 -4 -15 -10 -15 -5 0 -10 7 -10 15
0 8 5 15 10 15 6 0 10 -7 10 -15z m430 -680 c0 -8 -4 -15 -10 -15 -5 0 -10 7
-10 15 0 8 5 15 10 15 6 0 10 -7 10 -15z m-1000 -442 c0 -21 -3 -24 -9 -14 -5
8 -7 20 -4 28 8 21 13 15 13 -14z m50 -123 c0 -5 -5 -10 -11 -10 -5 0 -7 5 -4
10 3 6 8 10 11 10 2 0 4 -4 4 -10z m-170 -14 c0 -3 -4 -8 -10 -11 -5 -3 -10
-1 -10 4 0 6 5 11 10 11 6 0 10 -2 10 -4z m200 -46 c0 -5 -7 -10 -16 -10 -8 0
-12 5 -9 10 3 6 10 10 16 10 5 0 9 -4 9 -10z m-230 -10 c-13 -8 -13 -11 -1
-19 7 -5 11 -14 7 -19 -4 -6 -9 -41 -11 -78 -5 -72 -10 -87 -21 -59 -4 10 -2
26 5 36 6 11 7 19 1 19 -8 0 -8 62 -1 123 1 4 9 7 19 7 14 0 15 -2 2 -10z
m-150 -74 c0 -3 -4 -8 -10 -11 -5 -3 -10 -1 -10 4 0 6 5 11 10 11 6 0 10 -2
10 -4z m340 -34 c-1 -13 -30 -46 -35 -40 -9 8 17 58 26 52 5 -3 9 -8 9 -12z
m-66 -124 c-9 -29 -20 -57 -25 -62 -14 -15 -11 8 6 40 8 16 15 39 15 52 0 12
4 22 9 22 6 0 3 -24 -5 -52z m-134 22 c0 -5 -5 -10 -11 -10 -5 0 -7 5 -4 10 3
6 8 10 11 10 2 0 4 -4 4 -10z m135 -100 c-4 -12 -9 -19 -12 -17 -3 3 -2 15 2
27 4 12 9 19 12 17 3 -3 2 -15 -2 -27z m-248 -212 c-3 -7 -5 -2 -5 12 0 14 2
19 5 13 2 -7 2 -19 0 -25z m270 -82 c-4 -9 -11 -16 -17 -16 -15 0 -24 26 -16
47 6 15 8 15 23 1 9 -9 13 -24 10 -32z"/>
<path d="M10650 2734 c-19 -3 -114 -13 -211 -24 -97 -11 -187 -24 -200 -30
-22 -10 -22 -10 6 -4 63 12 218 16 211 5 -4 -6 0 -11 8 -11 9 0 13 -7 11 -20
-4 -21 5 -26 21 -11 5 5 18 11 29 14 18 4 18 5 -2 6 -12 0 -25 6 -29 13 -5 8
0 9 17 4 13 -4 39 -9 57 -13 28 -5 47 -23 23 -23 -4 0 -7 -11 -6 -24 2 -17 -3
-26 -16 -29 -12 -3 -19 0 -19 10 0 8 5 11 10 8 6 -3 10 1 10 9 0 10 -6 13 -15
10 -8 -4 -15 -17 -15 -30 0 -18 6 -24 21 -24 12 0 19 -5 16 -12 -2 -7 -12 -12
-21 -10 -13 2 -15 -2 -11 -20 3 -13 -1 -41 -9 -63 -8 -22 -11 -44 -6 -48 9
-11 1 -47 -11 -47 -5 0 -9 -7 -9 -15 0 -8 5 -15 11 -15 6 0 17 -6 25 -14 12
-13 12 -15 -4 -19 -13 -4 -12 -5 5 -6 13 0 30 -13 40 -28 10 -16 25 -34 33
-40 12 -11 13 -14 1 -22 -14 -9 2 -27 17 -17 4 2 8 -4 8 -14 0 -15 -5 -18 -22
-14 -12 3 -25 1 -28 -4 -8 -13 19 -23 39 -16 11 5 13 2 9 -10 -3 -9 -2 -16 4
-16 5 0 12 -9 15 -20 3 -11 15 -24 28 -28 l23 -9 -22 -12 c-22 -12 -31 -41
-11 -41 5 0 8 -3 6 -7 -3 -5 13 -9 34 -11 25 -2 39 2 39 9 0 7 3 9 6 6 4 -4 1
-14 -6 -23 -11 -13 -11 -17 -1 -24 8 -4 9 -10 3 -14 -5 -3 -12 1 -16 9 -9 24
-28 18 -21 -6 5 -13 3 -19 -3 -15 -5 3 -15 -1 -23 -10 -11 -13 -14 -11 -25 15
-14 34 -45 44 -37 12 4 -15 -2 -20 -25 -25 -25 -6 -28 -11 -25 -34 3 -15 7
-34 10 -42 4 -8 5 -18 5 -22 -1 -5 3 -8 8 -8 6 0 10 6 10 14 0 8 7 17 16 20 8
3 12 2 9 -4 -3 -6 -2 -10 4 -10 6 0 13 11 17 24 3 13 13 27 22 30 10 3 22 8
27 11 6 3 10 -5 10 -18 0 -19 -4 -22 -22 -19 -31 6 -29 -14 2 -22 36 -9 31
-23 -7 -20 -18 2 -25 1 -15 -2 13 -4 16 -11 11 -27 -4 -12 -7 -33 -6 -47 2
-25 2 -25 -13 4 -8 15 -12 33 -9 40 3 6 0 4 -8 -5 -7 -9 -19 -14 -26 -11 -9 3
-13 -3 -10 -19 2 -16 9 -23 21 -21 13 2 17 -4 17 -28 0 -16 5 -30 11 -30 5 0
8 -4 4 -9 -3 -5 0 -13 6 -17 6 -3 15 -1 19 6 5 7 9 2 13 -17 4 -19 1 -32 -11
-40 -14 -12 -14 -13 4 -13 15 0 16 -2 5 -9 -12 -8 -12 -11 0 -23 17 -18 67
-29 75 -17 9 16 34 10 28 -6 -4 -8 -1 -15 6 -15 6 0 8 -5 4 -12 -5 -8 -2 -9 9
-5 9 3 19 2 22 -3 4 -6 -3 -10 -14 -10 -11 0 -26 -6 -33 -13 -8 -9 -21 -11
-33 -6 -28 11 -45 11 -45 -1 0 -5 6 -10 14 -10 7 0 19 -6 25 -14 10 -11 8 -16
-5 -24 -15 -9 -15 -10 6 -17 14 -4 25 -3 30 5 6 9 9 9 15 0 4 -7 -1 -13 -14
-17 -28 -7 -27 -23 2 -23 12 0 33 -3 47 -7 23 -6 24 -5 11 11 -13 15 -13 19 0
27 23 15 29 11 29 -21 0 -35 -23 -49 -51 -32 -25 16 -26 16 -31 -13 -5 -24 1
-30 31 -25 15 2 31 -17 31 -39 0 -7 -6 -11 -15 -8 -8 4 -17 2 -20 -3 -4 -6 4
-10 16 -10 12 0 28 -8 35 -17 10 -15 15 -16 25 -6 18 18 30 16 22 -3 -5 -14
-1 -15 26 -9 l31 7 -30 -33 c-32 -35 -33 -44 -2 -35 46 15 49 93 4 98 -14 2
-27 9 -30 16 -2 8 5 11 20 10 15 -2 23 2 23 12 0 8 -5 14 -11 13 -6 -1 -10 8
-10 20 1 12 -2 28 -7 35 -6 8 -5 12 2 12 6 0 11 5 11 10 0 6 -7 10 -15 10 -9
0 -15 9 -15 25 0 14 -6 25 -12 25 -9 0 -9 3 1 9 8 5 12 18 8 30 -3 15 0 21 10
21 13 0 13 2 2 17 -8 9 -14 19 -14 22 0 3 -8 6 -17 6 -20 2 -38 15 -20 15 7 0
12 7 12 15 0 8 -6 15 -14 15 -8 0 -17 4 -20 9 -4 5 3 7 14 4 11 -3 20 0 20 6
0 6 -6 10 -12 8 -8 -1 -12 7 -11 21 2 13 -1 21 -7 17 -6 -3 -10 -1 -10 4 0 6
4 11 9 11 11 0 65 -70 54 -71 -4 -1 3 -4 17 -8 31 -10 40 -5 40 19 0 10 6 20
13 23 17 5 -5 63 -22 59 -16 -3 -40 27 -41 51 0 9 5 17 11 17 6 0 8 -7 5 -17
-8 -19 9 -33 42 -33 23 0 31 23 11 35 -6 4 -8 13 -5 21 3 8 2 14 -3 14 -5 0
-11 9 -14 20 -3 13 0 20 10 20 8 0 11 5 8 10 -4 6 -10 8 -14 6 -8 -6 -11 29
-10 138 0 10 -7 26 -15 35 -9 10 -16 25 -16 34 0 9 -4 17 -10 17 -5 0 -10 15
-10 33 0 26 -6 37 -25 47 -30 16 -33 30 -5 23 21 -5 28 11 10 22 -6 4 -8 11
-5 16 4 5 -1 9 -10 9 -9 0 -22 15 -30 34 -8 19 -20 36 -27 39 -9 3 -5 11 12
25 21 18 22 21 7 22 -14 0 -17 5 -12 20 5 16 -3 31 -34 61 -40 40 -40 41 -23
67 9 15 19 29 23 32 3 3 5 29 4 59 -1 56 22 114 54 138 9 6 14 14 11 17 -8 7
-177 15 -220 10z m-75 -54 c3 -5 2 -10 -4 -10 -5 0 -13 5 -16 10 -3 6 -2 10 4
10 5 0 13 -4 16 -10z m59 1 c3 -4 3 -11 0 -14 -8 -8 -34 3 -34 14 0 11 27 12
34 0z m26 -40 c0 -16 -28 -20 -34 -5 -4 9 1 14 14 14 11 0 20 -4 20 -9z m16
-26 c-3 -9 -10 -13 -16 -10 -6 4 -5 11 3 20 15 16 22 11 13 -10z m-96 -281 c0
-8 -4 -12 -10 -9 -5 3 -10 10 -10 16 0 5 5 9 10 9 6 0 10 -7 10 -16z m170
-194 c0 -5 -4 -10 -10 -10 -5 0 -10 5 -10 10 0 6 5 10 10 10 6 0 10 -4 10 -10z
m22 -42 c-9 -9 -12 -7 -12 12 0 19 3 21 12 12 9 -9 9 -15 0 -24z m-17 -39 c4
-11 4 -23 1 -26 -3 -4 -6 1 -6 10 0 11 -5 14 -15 11 -11 -5 -13 -2 -9 10 8 22
21 20 29 -5z m-10 -49 c3 -5 -1 -10 -9 -10 -9 0 -16 5 -16 10 0 6 4 10 9 10 6
0 13 -4 16 -10z m189 -95 c3 -8 1 -15 -3 -15 -5 0 -11 7 -15 15 -3 8 -1 15 3
15 5 0 11 -7 15 -15z m-269 -5 c-3 -5 -10 -10 -16 -10 -5 0 -9 5 -9 10 0 6 7
10 16 10 8 0 12 -4 9 -10z m-45 -10 c0 -5 -4 -10 -10 -10 -5 0 -10 5 -10 10 0
6 5 10 10 10 6 0 10 -4 10 -10z m215 -50 c9 15 22 12 22 -4 0 -8 -3 -15 -6
-14 -36 4 -60 -4 -55 -17 4 -9 0 -15 -10 -15 -9 0 -16 7 -16 16 0 8 -4 13 -9
10 -5 -3 -12 1 -15 9 -4 12 0 14 19 9 21 -5 25 -3 25 17 l1 24 19 -23 c11 -13
21 -18 25 -12z m115 -49 c0 -6 -4 -13 -10 -16 -5 -3 -10 1 -10 9 0 9 5 16 10
16 6 0 10 -4 10 -9z m-203 -21 c-1 -11 -8 -20 -17 -20 -24 0 -32 11 -19 27 17
20 38 16 36 -7z m38 -22 c6 -4 2 -8 -7 -8 -10 0 -18 7 -18 17 0 9 3 12 8 7 4
-5 12 -12 17 -16z m41 0 c-10 -6 -20 -7 -24 -3 -9 8 20 25 31 18 5 -3 2 -10
-7 -15z m-66 -38 c0 -5 -4 -10 -10 -10 -5 0 -10 5 -10 10 0 6 5 10 10 10 6 0
10 -4 10 -10z m40 -7 c0 -4 -9 -17 -21 -29 -11 -12 -21 -37 -22 -58 -1 -20 -6
-34 -12 -33 -5 2 -10 8 -10 13 0 5 -4 14 -8 21 -4 6 -3 22 2 35 6 12 10 17 10
11 1 -15 41 22 41 37 0 6 5 10 10 10 6 0 10 -3 10 -7z m0 -77 c0 -2 3 -13 6
-23 5 -15 4 -16 -5 -3 -10 13 -12 13 -21 0 -8 -12 -10 -11 -10 8 0 13 6 22 15
22 8 0 15 -2 15 -4z m57 -61 c6 -14 7 -25 2 -25 -5 0 -9 5 -9 11 0 6 -6 9 -14
6 -20 -8 -28 4 -15 20 16 18 22 16 36 -12z m-7 -119 c0 -12 -13 -14 -40 -6 -4
1 24 16 38 19 1 1 2 -5 2 -13z m60 -191 c0 -28 -15 -34 -24 -9 -10 25 -7 34 9
34 9 0 15 -9 15 -25z"/>
<path d="M4300 2579 c0 -5 5 -7 10 -4 6 3 10 8 10 11 0 2 -4 4 -10 4 -5 0 -10
-5 -10 -11z"/>
<path d="M10470 2374 c0 -8 5 -12 10 -9 6 4 8 11 5 16 -9 14 -15 11 -15 -7z"/>
<path d="M2643 2285 c5 -51 17 -55 17 -7 0 23 -5 42 -10 42 -6 0 -9 -15 -7
-35z"/>
<path d="M9356 2303 c-6 -14 -5 -15 5 -6 7 7 10 15 7 18 -3 3 -9 -2 -12 -12z"/>
<path d="M8100 2132 c0 -17 4 -34 10 -37 6 -4 7 6 3 27 -8 44 -13 48 -13 10z"/>
<path d="M10550 2109 c0 -5 5 -7 10 -4 6 3 10 8 10 11 0 2 -4 4 -10 4 -5 0
-10 -5 -10 -11z"/>
<path d="M10560 2080 c0 -6 7 -10 15 -10 8 0 15 2 15 4 0 2 -7 6 -15 10 -8 3
-15 1 -15 -4z"/>
<path d="M10637 2071 c3 -12 9 -21 14 -21 14 0 11 16 -5 29 -12 10 -13 8 -9
-8z"/>
<path d="M8110 2050 c0 -22 4 -28 15 -24 16 7 18 14 9 38 -10 26 -24 18 -24
-14z"/>
<path d="M10617 2013 c-2 -10 -8 -26 -12 -35 -4 -10 -3 -18 3 -18 5 0 12 8 15
18 2 9 8 25 12 35 4 9 3 17 -3 17 -5 0 -12 -8 -15 -17z"/>
<path d="M8127 2014 c-11 -12 -7 -94 9 -174 8 -41 15 -83 15 -92 0 -10 4 -20
9 -23 5 -3 7 -11 4 -19 -6 -15 31 -104 53 -128 24 -26 47 -23 38 5 -4 12 -6
37 -6 55 1 17 -3 32 -8 32 -9 0 -16 14 -26 57 -26 99 -43 156 -51 161 -5 4
-10 31 -11 61 -3 53 -13 78 -26 65z"/>
<path d="M4138 1803 c7 -3 16 -2 19 1 4 3 -2 6 -13 5 -11 0 -14 -3 -6 -6z"/>
<path d="M8500 1769 c0 -6 -7 -8 -16 -5 -8 3 -12 2 -9 -4 3 -6 1 -10 -6 -10
-7 0 -10 -2 -7 -5 10 -11 58 7 58 21 0 8 -4 14 -10 14 -5 0 -10 -5 -10 -11z"/>
<path d="M10632 1708 c-16 -16 -15 -28 3 -28 8 0 15 9 15 20 0 23 -2 24 -18 8z"/>
<path d="M10670 1620 c0 -5 5 -10 10 -10 6 0 10 5 10 10 0 6 -4 10 -10 10 -5
0 -10 -4 -10 -10z"/>
<path d="M10641 1586 c-11 -13 -10 -17 3 -22 22 -8 30 1 19 21 -9 15 -11 15
-22 1z"/>
<path d="M4400 1569 c0 -5 5 -7 10 -4 6 3 10 8 10 11 0 2 -4 4 -10 4 -5 0 -10
-5 -10 -11z"/>
<path d="M10950 1540 c0 -5 5 -10 10 -10 6 0 10 5 10 10 0 6 -4 10 -10 10 -5
0 -10 -4 -10 -10z"/>
<path d="M10746 1518 c3 -4 -7 -8 -22 -8 -40 0 -18 -17 32 -25 24 -4 44 -2 48
3 12 19 -5 39 -34 39 -16 0 -27 -4 -24 -9z"/>
<path d="M10720 1440 c-13 -8 -12 -10 3 -10 9 0 17 5 17 10 0 12 -1 12 -20 0z"/>
<path d="M10937 1431 c3 -12 12 -21 20 -21 20 0 12 34 -9 38 -12 2 -15 -2 -11
-17z"/>
<path d="M3622 1316 c1 -10 8 -17 13 -17 15 1 12 24 -3 29 -9 3 -13 -2 -10
-12z"/>
<path d="M3467 1208 c-5 -15 9 -38 25 -38 12 0 10 14 -5 34 -12 16 -15 17 -20
4z"/>
<path d="M3668 1203 c7 -3 16 -2 19 1 4 3 -2 6 -13 5 -11 0 -14 -3 -6 -6z"/>
<path d="M8087 1203 c-10 -9 -9 -23 2 -23 5 0 11 7 15 15 5 15 -5 20 -17 8z"/>
<path d="M10875 1201 c-6 -10 21 -41 36 -41 5 0 9 6 9 13 0 16 -37 39 -45 28z"/>
<path d="M11000 1181 c0 -10 3 -32 6 -49 5 -23 10 -29 26 -24 19 5 19 5 -1 26
-13 14 -18 29 -14 44 3 13 1 22 -6 22 -6 0 -11 -8 -11 -19z"/>
<path d="M3681 1174 c0 -11 3 -14 6 -6 3 7 2 16 -1 19 -3 4 -6 -2 -5 -13z"/>
<path d="M8160 1161 c0 -5 9 -7 20 -4 11 3 20 7 20 9 0 2 -9 4 -20 4 -11 0
-20 -4 -20 -9z"/>
<path d="M8110 1140 c-6 -11 -8 -20 -5 -20 3 0 14 9 25 20 15 15 16 20 5 20
-8 0 -19 -9 -25 -20z"/>
<path d="M10960 1131 c0 -5 7 -12 16 -15 22 -9 24 -8 18 9 -7 16 -34 21 -34 6z"/>
<path d="M3600 1120 c0 -5 5 -10 11 -10 5 0 7 5 4 10 -3 6 -8 10 -11 10 -2 0
-4 -4 -4 -10z"/>
<path d="M10932 1093 c2 -9 8 -18 15 -20 7 -3 9 3 6 16 -6 25 -26 28 -21 4z"/>
<path d="M10975 1080 c-8 -13 3 -30 20 -30 23 0 27 18 6 30 -13 7 -22 7 -26 0z"/>
<path d="M3350 1065 c0 -8 4 -15 10 -15 5 0 7 7 4 15 -4 8 -8 15 -10 15 -2 0
-4 -7 -4 -15z"/>
<path d="M3575 1050 c-3 -5 -1 -10 4 -10 6 0 11 5 11 10 0 6 -2 10 -4 10 -3 0
-8 -4 -11 -10z"/>
<path d="M10930 1040 c0 -5 5 -10 11 -10 5 0 7 5 4 10 -3 6 -8 10 -11 10 -2 0
-4 -4 -4 -10z"/>
<path d="M11000 1025 c0 -8 4 -15 10 -15 5 0 7 7 4 15 -4 8 -8 15 -10 15 -2 0
-4 -7 -4 -15z"/>
<path d="M11048 1033 c-10 -3 -18 -8 -18 -13 0 -16 15 -18 33 -5 20 14 12 24
-15 18z"/>
<path d="M7973 1023 c-7 -2 -13 -11 -13 -18 0 -20 -19 -28 -35 -15 -11 9 -14
7 -12 -9 1 -15 6 -20 17 -15 8 3 22 8 30 11 8 2 20 15 27 29 11 24 9 27 -14
17z"/>
<path d="M8321 1023 c-1 -7 -8 -13 -16 -13 -9 0 -18 -7 -21 -15 -4 -8 -10 -12
-15 -9 -5 3 -9 -2 -9 -10 0 -8 -10 -18 -22 -22 -25 -8 -49 -34 -42 -46 3 -5
-2 -8 -10 -8 -9 0 -16 -4 -16 -10 0 -5 -5 -10 -11 -10 -18 0 -44 -32 -46 -58
-1 -14 -13 -37 -27 -51 -18 -19 -23 -30 -16 -41 5 -8 10 -10 10 -4 0 13 54 28
87 25 17 -1 21 2 17 14 -7 17 11 21 21 5 10 -16 55 -12 55 4 0 15 37 32 47 22
4 -3 -1 -6 -10 -6 -12 0 -17 -8 -17 -26 0 -25 2 -26 41 -20 23 4 48 13 56 22
9 8 18 12 21 9 4 -3 0 -11 -8 -16 -11 -8 -9 -9 10 -4 14 4 30 13 36 21 6 8 18
14 26 14 18 0 30 47 14 54 -7 3 -3 11 8 20 22 18 22 18 -16 20 -24 2 -28 -2
-28 -23 0 -32 -9 -22 -12 12 -2 19 -8 27 -21 27 -13 0 -17 5 -13 16 3 9 -5 26
-19 42 -14 15 -25 31 -25 36 0 6 -6 1 -14 -10 -8 -10 -18 -16 -22 -12 -4 4 -1
14 6 22 6 9 10 21 7 28 -4 10 -6 10 -6 1z m39 -163 c0 -5 -2 -10 -4 -10 -3 0
-8 5 -11 10 -3 6 -1 10 4 10 6 0 11 -4 11 -10z m41 -19 c-7 -5 -10 -14 -7 -20
4 -6 1 -11 -8 -11 -8 0 -21 -3 -30 -6 -9 -3 -16 -2 -16 4 0 5 9 12 21 15 12 3
18 10 15 16 -3 5 2 11 11 13 24 6 31 -1 14 -11z m69 -31 c0 -5 -11 -10 -25
-10 -14 0 -25 5 -25 10 0 6 11 10 25 10 14 0 25 -4 25 -10z"/>
<path d="M7820 965 c-8 -9 -8 -15 -2 -15 12 0 26 19 19 26 -2 2 -10 -2 -17
-11z"/>
<path d="M7860 970 c19 -13 30 -13 30 0 0 6 -10 10 -22 10 -19 0 -20 -2 -8
-10z"/>
<path d="M11030 976 c0 -2 8 -10 18 -17 15 -13 16 -12 3 4 -13 16 -21 21 -21
13z"/>
<path d="M7610 959 c0 -5 5 -7 10 -4 6 3 10 8 10 11 0 2 -4 4 -10 4 -5 0 -10
-5 -10 -11z"/>
<path d="M8025 960 c-3 -6 1 -7 9 -4 18 7 21 14 7 14 -6 0 -13 -4 -16 -10z"/>
<path d="M10946 953 c-3 -3 -3 -10 0 -14 7 -12 44 -12 44 0 0 10 -36 21 -44
14z"/>
<path d="M7850 945 c0 -3 6 -14 12 -25 10 -16 10 -24 0 -40 -17 -28 -16 -46 2
-31 7 6 21 9 30 5 17 -6 23 16 9 30 -5 4 -8 17 -8 28 0 12 -9 24 -22 29 -13 5
-23 6 -23 4z"/>
<path d="M7780 925 c12 -15 30 -12 30 6 0 5 -10 9 -21 9 -18 0 -19 -2 -9 -15z"/>
<path d="M8430 925 c0 -8 5 -15 10 -15 6 0 10 7 10 15 0 8 -4 15 -10 15 -5 0
-10 -7 -10 -15z"/>
<path d="M10860 930 c0 -5 5 -10 10 -10 6 0 10 5 10 10 0 6 -4 10 -10 10 -5 0
-10 -4 -10 -10z"/>
<path d="M7754 903 c-1 -13 -1 -23 0 -21 1 2 7 10 14 19 10 13 10 18 0 22 -8
3 -14 -5 -14 -20z"/>
<path d="M10972 910 c-12 -11 -33 -20 -47 -20 -26 0 -33 -14 -13 -26 6 -4 14
-2 16 4 2 7 12 12 23 12 10 0 19 4 19 9 0 5 9 11 20 14 11 3 20 10 20 16 0 17
-14 13 -38 -9z"/>
<path d="M7841 906 c-8 -10 -9 -16 -1 -21 5 -3 13 1 16 10 9 22 -1 29 -15 11z"/>
<path d="M7910 909 c0 -10 27 -19 34 -12 12 12 5 22 -14 20 -11 -1 -20 -4 -20
-8z"/>
<path d="M10835 900 c3 -5 8 -10 11 -10 2 0 4 5 4 10 0 6 -5 10 -11 10 -5 0
-7 -4 -4 -10z"/>
<path d="M11010 905 c0 -8 34 -45 42 -45 4 0 2 11 -4 25 -9 21 -38 36 -38 20z"/>
<path d="M11054 899 c-3 -5 2 -9 10 -9 9 0 16 -4 16 -9 0 -5 11 -11 25 -13 14
-3 25 -2 25 1 -1 11 -70 39 -76 30z"/>
<path d="M9667 859 c4 -13 8 -18 11 -10 2 7 -1 18 -6 23 -8 8 -9 4 -5 -13z"/>
<path d="M10953 856 c3 -8 -2 -16 -14 -19 -12 -3 -17 -11 -13 -20 4 -11 -1
-15 -20 -13 -14 0 -26 5 -26 9 0 5 -6 5 -12 0 -7 -4 -37 -7 -65 -6 -29 1 -53
-2 -53 -8 0 -5 9 -9 21 -9 15 0 19 -5 15 -17 -3 -10 -1 -25 5 -33 9 -12 10
-11 6 8 -3 12 -1 22 4 22 5 0 9 8 10 18 0 14 2 14 7 2 7 -15 34 -18 62 -7 25
11 55 3 62 -16 9 -21 30 -13 26 10 -2 9 3 18 11 21 9 3 12 0 8 -10 -4 -12 2
-15 28 -14 18 1 40 8 48 15 10 8 17 9 22 1 3 -5 -1 -10 -9 -10 -25 0 -19 -20
10 -30 37 -14 48 -12 30 6 -18 17 -21 28 -6 19 6 -3 10 -1 10 5 0 6 -7 13 -15
16 -24 9 -19 37 5 29 15 -5 18 -3 14 9 -8 22 -32 27 -42 9 -6 -10 -16 -14 -26
-10 -14 6 -16 3 -11 -13 4 -11 2 -20 -4 -20 -6 0 -11 5 -11 11 0 6 -9 8 -20 4
-24 -8 -27 10 -4 23 14 8 11 11 -16 21 -42 14 -43 14 -37 -3z"/>
<path d="M10827 844 c-9 -10 2 -24 19 -24 8 0 14 7 14 15 0 15 -21 21 -33 9z"/>
<path d="M11156 801 c-3 -5 1 -11 9 -15 8 -3 15 -1 15 4 0 13 -18 22 -24 11z"/>
<path d="M8648 793 c7 -3 16 -2 19 1 4 3 -2 6 -13 5 -11 0 -14 -3 -6 -6z"/>
<path d="M9707 760 c9 -22 18 -39 19 -37 7 6 -17 77 -26 77 -4 0 -1 -18 7 -40z"/>
<path d="M10663 750 c-1 -17 2 -30 7 -30 6 0 10 14 10 30 0 39 -14 39 -17 0z"/>
<path d="M10720 765 c0 -9 -4 -13 -10 -10 -5 3 -10 1 -10 -4 0 -15 15 -14 29
3 8 10 9 16 1 21 -5 3 -10 -1 -10 -10z"/>
<path d="M7830 744 c-13 -33 -13 -34 6 -34 11 0 14 5 10 16 -4 9 -1 23 5 30 9
11 9 14 0 14 -6 0 -16 -12 -21 -26z"/>
<path d="M10630 751 c0 -5 5 -13 10 -16 6 -3 10 -2 10 4 0 5 -4 13 -10 16 -5
3 -10 2 -10 -4z"/>
<path d="M7776 743 c-11 -11 -6 -23 9 -23 8 0 15 4 15 9 0 13 -16 22 -24 14z"/>
<path d="M7875 740 c3 -5 8 -10 11 -10 2 0 4 5 4 10 0 6 -5 10 -11 10 -5 0 -7
-4 -4 -10z"/>
<path d="M10600 740 c0 -5 5 -10 11 -10 5 0 7 5 4 10 -3 6 -8 10 -11 10 -2 0
-4 -4 -4 -10z"/>
<path d="M8206 733 c-9 -9 -40 -14 -114 -17 -28 -1 -58 -8 -64 -14 -7 -7 -17
-12 -23 -12 -7 0 -20 -9 -30 -20 -11 -12 -25 -18 -36 -15 -9 3 -21 0 -25 -6
-4 -8 -3 -9 4 -5 7 4 12 0 12 -10 0 -23 -67 -82 -102 -89 -15 -4 -34 -15 -40
-24 -7 -10 -30 -21 -51 -25 -29 -6 -37 -11 -33 -23 5 -12 1 -14 -14 -10 -11 3
-20 2 -20 -3 0 -7 -24 -17 -63 -26 -25 -6 -131 -59 -202 -103 -65 -39 -118
-61 -151 -61 -11 0 -30 -9 -42 -20 -12 -11 -30 -20 -41 -20 -11 0 -40 -16 -65
-35 -26 -19 -53 -35 -61 -35 -8 0 -15 -4 -15 -10 0 -5 -4 -10 -9 -10 -6 0 -27
-16 -48 -35 -21 -19 -57 -44 -80 -56 -54 -26 -64 -49 -21 -49 27 0 117 42 158
75 8 6 31 18 50 25 19 8 37 16 40 19 10 12 77 41 140 61 73 24 246 105 255
120 3 6 13 10 21 10 8 0 43 13 77 29 34 16 94 41 132 56 98 38 158 65 174 78
7 6 20 12 29 14 9 1 22 9 28 17 6 9 14 13 17 9 4 -3 9 1 13 10 3 9 12 13 20
10 8 -3 14 0 14 6 0 6 9 11 20 11 11 0 20 5 20 11 0 5 4 8 9 5 10 -6 71 22 82
38 4 5 14 6 23 3 17 -7 64 14 78 35 6 10 10 10 18 -2 9 -13 11 -13 20 0 14 22
12 30 -5 24 -17 -7 -21 11 -5 21 6 3 10 10 10 16 0 5 -4 9 -10 9 -5 0 -10 -7
-10 -15 0 -8 -6 -15 -14 -15 -25 0 -66 19 -66 31 0 6 7 9 14 6 10 -4 13 -1 9
9 -6 15 -16 18 -27 7z"/>
<path d="M8504 730 c-24 -10 -41 -30 -22 -25 38 9 58 18 58 26 0 11 -8 11 -36
-1z"/>
<path d="M10750 719 c0 -5 5 -7 10 -4 6 3 10 8 10 11 0 2 -4 4 -10 4 -5 0 -10
-5 -10 -11z"/>
<path d="M7700 701 c0 -13 20 -36 20 -23 0 6 5 12 11 12 5 0 7 -4 4 -10 -3 -5
-1 -10 4 -10 6 0 11 8 11 19 0 13 -7 19 -25 19 -14 0 -25 -3 -25 -7z"/>
<path d="M9731 700 c0 -8 4 -22 9 -30 12 -18 12 -2 0 25 -6 13 -9 15 -9 5z"/>
<path d="M8340 691 c0 -13 26 -32 33 -24 8 7 -11 33 -24 33 -5 0 -9 -4 -9 -9z"/>
<path d="M8400 690 c0 -5 5 -10 10 -10 6 0 10 5 10 10 0 6 -4 10 -10 10 -5 0
-10 -4 -10 -10z"/>
<path d="M7670 680 c0 -6 -8 -9 -18 -6 -11 4 -22 -2 -30 -14 -11 -18 -10 -20
11 -20 28 0 64 34 48 45 -6 3 -11 1 -11 -5z"/>
<path d="M3095 640 c-3 -5 1 -10 10 -10 9 0 13 5 10 10 -3 6 -8 10 -10 10 -2
0 -7 -4 -10 -10z"/>
<path d="M10665 640 c-3 -5 -1 -10 4 -10 6 0 11 5 11 10 0 6 -2 10 -4 10 -3 0
-8 -4 -11 -10z"/>
<path d="M7510 620 c0 -6 7 -10 15 -10 8 0 15 2 15 4 0 2 -7 6 -15 10 -8 3
-15 1 -15 -4z"/>
<path d="M9761 604 c0 -11 3 -14 6 -6 3 7 2 16 -1 19 -3 4 -6 -2 -5 -13z"/>
<path d="M7427 588 c-10 -11 -16 -22 -13 -26 6 -5 46 32 46 43 0 10 -15 3 -33
-17z"/>
<path d="M10721 603 c-1 -8 -15 -13 -33 -13 -30 0 -31 0 -13 -20 13 -14 22
-17 30 -10 9 7 16 6 25 -5 10 -12 9 -18 -8 -32 -27 -24 -14 -64 18 -56 25 7
37 23 16 23 -18 0 -21 16 -5 26 6 3 15 1 19 -6 4 -7 13 -9 19 -6 16 10 14 26
-4 26 -21 0 -19 17 3 23 14 4 14 6 -5 12 -13 4 -23 12 -23 17 0 6 -6 8 -14 5
-9 -4 -17 1 -19 11 -3 9 -5 11 -6 5z"/>
<path d="M7478 588 c9 -9 15 -9 24 0 9 9 7 12 -12 12 -19 0 -21 -3 -12 -12z"/>
<path d="M10618 593 c7 -3 16 -2 19 1 4 3 -2 6 -13 5 -11 0 -14 -3 -6 -6z"/>
<path d="M10578 563 c7 -3 16 -2 19 1 4 3 -2 6 -13 5 -11 0 -14 -3 -6 -6z"/>
<path d="M10578 543 c7 -3 16 -2 19 1 4 3 -2 6 -13 5 -11 0 -14 -3 -6 -6z"/>
<path d="M10815 520 c-3 -5 1 -10 9 -10 9 0 16 5 16 10 0 6 -4 10 -9 10 -6 0
-13 -4 -16 -10z"/>
<path d="M10633 493 c4 -6 1 -13 -5 -16 -8 -3 -1 -9 15 -16 36 -14 35 -49 -3
-64 -10 -3 -7 -6 8 -6 16 -1 22 -6 20 -18 -2 -11 7 -19 32 -26 19 -5 40 -13
47 -18 7 -7 14 -6 18 1 3 5 12 10 18 10 8 0 8 -3 2 -8 -5 -4 -11 -15 -13 -24
-2 -14 4 -18 24 -18 22 0 25 2 14 15 -10 13 -9 15 9 15 11 0 21 -5 21 -11 0
-8 4 -8 14 0 21 17 30 -4 10 -23 -14 -15 -14 -16 1 -16 12 0 15 -6 10 -22 -6
-22 -6 -22 10 -4 12 16 18 17 27 8 9 -9 9 -12 -1 -12 -7 0 -11 -8 -10 -17 3
-34 -1 -43 -21 -43 -16 0 -20 -7 -20 -30 0 -16 -4 -30 -10 -30 -5 0 -10 7 -10
15 0 8 -9 15 -20 15 -17 0 -19 -4 -14 -26 l7 -26 -27 17 c-23 16 -26 16 -20 1
3 -9 12 -16 18 -16 7 0 25 -14 41 -30 31 -32 28 -39 -8 -16 -12 8 -34 17 -49
20 -15 2 -32 7 -38 11 -6 3 -7 0 -4 -9 3 -9 10 -16 15 -16 5 0 9 -7 9 -15 0
-8 -4 -15 -9 -15 -5 0 -11 -7 -14 -14 -5 -13 38 -15 309 -16 303 0 314 0 314
19 0 10 -7 21 -15 25 -8 3 -15 13 -15 22 0 10 -5 14 -15 10 -18 -7 -20 10 -2
17 8 4 9 8 1 14 -12 9 -28 61 -25 81 3 17 -18 15 -26 -3 -3 -9 2 -22 13 -30
16 -13 17 -16 4 -24 -11 -8 -17 -5 -22 9 -4 11 -12 20 -17 20 -7 0 -7 9 -1 24
8 21 4 29 -25 55 -19 17 -35 33 -35 36 0 8 41 -15 64 -36 21 -20 41 -26 31 -9
-3 6 1 10 9 10 9 0 16 -6 17 -12 0 -7 4 -4 8 7 6 15 3 23 -13 32 -29 17 -36
16 -36 -4 -1 -16 -2 -16 -13 -3 -7 8 -25 21 -41 28 -38 17 -26 27 16 14 76
-23 87 -23 85 -2 -1 11 -5 20 -10 20 -5 0 -5 10 -2 23 5 16 4 18 -4 8 -8 -12
-12 -12 -25 -2 -9 7 -13 17 -10 22 3 5 -2 9 -10 9 -9 0 -16 7 -16 15 0 8 -8
15 -18 15 -10 0 -23 5 -30 12 -6 6 -15 9 -18 5 -4 -3 7 -14 24 -24 18 -10 34
-24 37 -31 3 -8 2 -12 -2 -10 -5 3 -22 11 -40 18 -17 8 -34 22 -36 32 -3 10
-14 18 -26 18 -19 0 -20 -3 -11 -20 16 -29 1 -25 -36 11 -20 19 -34 27 -38 20
-4 -6 -2 -11 3 -11 6 0 11 -8 11 -17 0 -14 -2 -15 -9 -4 -6 9 -11 10 -15 2
-15 -24 -26 -9 -20 28 7 41 -9 58 -37 40 -11 -7 -11 -9 4 -9 24 0 21 -28 -4
-32 -19 -3 -17 -7 19 -42 33 -33 39 -46 37 -72 -2 -20 2 -38 11 -45 8 -6 14
-15 14 -20 0 -14 -18 -10 -40 8 -11 10 -26 18 -32 18 -6 0 -13 6 -15 13 -3 7
4 12 17 12 12 0 18 -4 15 -10 -3 -5 -1 -10 4 -10 6 0 11 7 11 15 0 8 -7 15
-15 15 -8 0 -15 4 -15 10 0 5 7 7 16 3 12 -4 15 -2 12 8 -3 8 -12 13 -22 11
-9 -2 -16 1 -16 6 0 13 -36 22 -47 11 -5 -5 -29 3 -56 21 -39 24 -47 35 -47
59 0 23 5 31 23 34 15 4 12 5 -8 4 -25 -2 -30 -6 -27 -25 2 -22 -1 -23 -40
-21 -46 3 -69 13 -107 44 -13 11 -21 15 -18 8z m90 -75 c12 -7 33 -11 46 -9
15 2 21 -1 17 -8 -4 -7 1 -11 13 -11 12 0 21 -5 21 -11 0 -8 -15 -9 -45 -5
-29 5 -45 4 -45 -3 0 -6 -10 -10 -22 -10 -17 1 -19 2 -5 6 23 6 22 19 -3 26
-11 3 -20 12 -20 21 0 19 13 20 43 4z m174 -75 c23 -15 39 -31 36 -36 -3 -5
-10 -4 -16 2 -6 6 -17 11 -25 11 -7 0 -21 7 -29 16 -9 9 -26 14 -40 11 -24 -4
-32 8 -10 16 25 11 44 6 84 -20z m198 17 c3 -5 1 -10 -4 -10 -6 0 -11 5 -11
10 0 6 2 10 4 10 3 0 8 -4 11 -10z m134 -26 c11 -11 -7 -10 -34 3 l-30 14 30
-6 c16 -4 32 -9 34 -11z m31 -14 c0 -5 -5 -10 -11 -10 -5 0 -7 5 -4 10 3 6 8
10 11 10 2 0 4 -4 4 -10z m-260 -111 c0 -5 -4 -9 -10 -9 -5 0 -10 7 -10 16 0
8 5 12 10 9 6 -3 10 -10 10 -16z m50 11 c0 -5 -2 -10 -4 -10 -3 0 -8 5 -11 10
-3 6 -1 10 4 10 6 0 11 -4 11 -10z m-120 -90 c0 -5 -5 -10 -11 -10 -5 0 -7 5
-4 10 3 6 8 10 11 10 2 0 4 -4 4 -10z m-65 -60 c3 -5 1 -10 -4 -10 -6 0 -11 5
-11 10 0 6 2 10 4 10 3 0 8 -4 11 -10z m321 -28 c-4 -3 -14 2 -24 12 -16 18
-16 18 6 6 13 -6 21 -14 18 -18z"/>
<path d="M10909 473 c0 -11 -3 -13 -6 -5 -2 6 -9 12 -15 12 -6 0 -8 -7 -4 -15
3 -8 1 -15 -4 -15 -6 0 -10 -4 -10 -10 0 -5 9 -10 20 -10 11 0 20 5 20 11 0 5
5 7 10 4 6 -4 10 5 10 19 0 29 -20 36 -21 9z"/>
<path d="M11890 478 c0 -4 6 -8 14 -8 8 0 17 4 20 8 2 4 -4 8 -15 8 -10 0 -19
-4 -19 -8z"/>
<path d="M9811 444 c0 -11 3 -14 6 -6 3 7 2 16 -1 19 -3 4 -6 -2 -5 -13z"/>
<path d="M10837 453 c-4 -3 -7 -11 -7 -17 0 -6 5 -5 12 2 6 6 9 14 7 17 -3 3
-9 2 -12 -2z"/>
<path d="M12196 442 c2 -2 -2 -14 -8 -26 -10 -20 -10 -20 8 -4 12 12 15 21 8
27 -6 5 -9 6 -8 3z"/>
<path d="M12292 430 c0 -14 2 -19 5 -12 2 6 2 18 0 25 -3 6 -5 1 -5 -13z"/>
<path d="M10615 430 c27 -12 35 -12 35 0 0 6 -12 10 -27 9 -25 0 -26 -1 -8 -9z"/>
<path d="M11280 431 c0 -6 5 -13 10 -16 6 -3 10 1 10 9 0 9 -4 16 -10 16 -5 0
-10 -4 -10 -9z"/>
<path d="M12101 424 c0 -11 3 -14 6 -6 3 7 2 16 -1 19 -3 4 -6 -2 -5 -13z"/>
<path d="M10916 421 c-5 -8 -3 -16 5 -22 19 -12 39 -11 39 1 0 5 -6 7 -14 4
-9 -3 -16 2 -18 13 -3 14 -5 15 -12 4z"/>
<path d="M11436 403 c-6 -14 -5 -15 5 -6 7 7 10 15 7 18 -3 3 -9 -2 -12 -12z"/>
<path d="M12321 404 c0 -11 3 -14 6 -6 3 7 2 16 -1 19 -3 4 -6 -2 -5 -13z"/>
<path d="M9820 405 c0 -5 5 -17 10 -25 5 -8 10 -10 10 -5 0 6 -5 17 -10 25 -5
8 -10 11 -10 5z"/>
<path d="M10870 400 c8 -5 20 -10 25 -10 6 0 3 5 -5 10 -8 5 -19 10 -25 10 -5
0 -3 -5 5 -10z"/>
<path d="M10603 343 c-7 -3 -13 -12 -13 -21 0 -14 2 -14 9 -3 5 8 16 11 25 8
9 -4 16 -2 16 2 0 11 -22 19 -37 14z"/>
<path d="M10656 322 c-3 -5 13 -12 37 -15 39 -5 56 -3 46 7 -10 10 -77 17 -83
8z"/>
<path d="M2643 260 c-10 -48 -9 -57 5 -67 8 -7 16 -12 18 -10 1 1 -1 31 -5 67
l-6 65 -12 -55z"/>
<path d="M10630 290 c0 -5 5 -10 11 -10 5 0 7 5 4 10 -3 6 -8 10 -11 10 -2 0
-4 -4 -4 -10z"/>
<path d="M10793 263 c9 -9 20 -13 24 -9 4 4 1 11 -7 16 -25 16 -35 11 -17 -7z"/>
<path d="M10728 153 c7 -3 16 -2 19 1 4 3 -2 6 -13 5 -11 0 -14 -3 -6 -6z"/>
<path d="M2672 120 c31 -90 44 -120 50 -120 9 0 -30 111 -45 125 -7 7 -8 5 -5
-5z"/>
<path d="M3176 121 c-3 -5 1 -11 9 -15 9 -3 15 0 15 9 0 16 -16 20 -24 6z"/>
<path d="M2857 56 c-20 -60 -20 -56 -2 -56 15 0 30 54 23 87 -2 12 -10 1 -21
-31z"/>
<path d="M2641 54 c0 -11 3 -14 6 -6 3 7 2 16 -1 19 -3 4 -6 -2 -5 -13z"/>
<path d="M3006 48 c-20 -28 -20 -48 -2 -48 8 0 15 14 18 35 2 19 3 35 2 35 -2
0 -10 -10 -18 -22z"/>
<path d="M2333 20 c-13 -5 -23 -11 -23 -14 0 -2 48 -4 108 -3 l107 0 -50 14
c-57 15 -110 16 -142 3z"/>
<path d="M2563 3 c9 -2 23 -2 30 0 6 3 -1 5 -18 5 -16 0 -22 -2 -12 -5z"/>
</g>
</svg>
