<?xml version="1.0" standalone="no"?>
<!DOCTYPE svg PUBLIC "-//W3C//DTD SVG 20010904//EN"
 "http://www.w3.org/TR/2001/REC-SVG-20010904/DTD/svg10.dtd">
<svg version="1.0" xmlns="http://www.w3.org/2000/svg"
 width="1024.000000pt" height="768.000000pt" viewBox="0 0 1024.000000 768.000000"
 preserveAspectRatio="xMidYMid meet">
<metadata>
Created by potrace 1.11, written by Peter Selinger 2001-2013
</metadata>
<g transform="translate(0.000000,768.000000) scale(0.100000,-0.100000)"
fill="#000000" stroke="none">
<path d="M0 7363 c0 -175 4 -323 8 -329 5 -8 23 -9 57 -4 38 6 52 4 60 -6 7
-10 34 -15 79 -16 59 -2 71 0 80 17 20 36 64 71 105 85 35 11 45 21 64 62 15
34 30 51 51 58 40 14 57 13 70 -6 10 -13 19 -14 48 -6 31 8 42 6 79 -16 24
-14 51 -31 60 -39 9 -7 42 -18 74 -23 66 -11 81 -21 90 -60 3 -16 13 -34 21
-41 8 -6 14 -20 14 -30 0 -10 5 -21 11 -25 16 -10 69 -132 69 -160 0 -15 7
-27 18 -30 9 -3 25 -10 36 -15 10 -6 35 -8 56 -4 26 4 40 2 46 -7 14 -22 15
-51 3 -80 -18 -44 -3 -117 32 -149 20 -19 29 -37 29 -58 0 -44 48 -89 65 -61
12 19 33 10 43 -17 6 -16 11 -22 11 -15 1 17 60 15 67 -2 6 -15 92 -51 101
-42 3 3 -3 29 -14 58 -24 67 -24 195 1 213 9 7 16 21 16 32 0 29 20 43 60 43
46 0 75 28 66 63 -7 29 15 52 59 63 26 7 68 45 71 66 1 5 3 11 4 16 2 4 3 16
4 27 1 11 13 25 27 32 32 16 54 40 54 62 0 12 10 16 40 16 50 0 65 10 65 40 0
31 11 37 83 42 33 2 70 11 81 19 11 8 28 14 36 14 9 0 27 11 40 25 18 19 33
25 55 23 29 -3 30 -2 30 42 0 37 6 51 33 79 24 25 32 41 28 57 -4 13 0 27 9
34 20 17 49 5 41 -17 -15 -37 78 -47 110 -12 10 12 17 24 15 28 -2 3 12 14 32
23 38 18 76 12 122 -19 11 -7 29 -13 41 -13 11 0 29 -9 39 -20 10 -11 29 -20
42 -20 13 0 35 -11 48 -25 17 -19 29 -24 47 -20 26 7 70 -27 103 -77 9 -16 24
-28 32 -28 8 0 12 -4 9 -9 -17 -26 55 -115 102 -127 13 -4 22 -14 22 -25 0
-15 6 -19 33 -17 27 3 34 -2 47 -29 8 -18 21 -33 28 -33 7 0 15 -7 18 -15 4
-8 11 -15 18 -15 15 -1 56 -36 56 -49 0 -31 25 -61 50 -61 23 0 29 -6 40 -42
8 -24 21 -51 29 -61 14 -17 14 -22 -7 -57 -26 -45 -27 -67 -7 -94 8 -11 15
-27 15 -37 0 -9 7 -22 15 -29 8 -7 12 -17 8 -23 -4 -7 5 -8 25 -4 33 7 38 2
23 -22 -5 -8 -6 -24 -1 -35 5 -14 3 -25 -6 -34 -23 -21 -16 -36 26 -54 37 -15
40 -19 40 -57 0 -22 4 -50 9 -63 6 -17 3 -35 -11 -66 -21 -43 -21 -43 1 -66
24 -26 27 -46 7 -46 -10 0 -17 -16 -22 -46 -7 -49 1 -64 33 -67 12 0 19 -6 16
-13 -2 -6 7 -24 21 -39 14 -15 26 -38 26 -50 0 -33 31 -54 99 -68 45 -9 73
-22 98 -45 20 -18 46 -31 57 -31 59 5 74 -10 30 -29 -33 -16 -31 -65 3 -70 16
-2 23 2 23 12 0 9 7 16 16 16 9 0 29 11 46 25 24 20 41 25 84 25 30 0 54 -4
54 -10 0 -5 11 -10 25 -10 25 0 51 -32 40 -50 -3 -5 3 -14 14 -19 36 -20 51
-42 45 -66 -4 -16 0 -27 14 -36 11 -8 23 -29 26 -47 8 -34 19 -38 63 -21 15 6
74 13 130 15 124 6 147 -5 156 -67 3 -22 8 -43 10 -46 9 -9 67 27 67 42 0 8 6
15 14 15 7 0 26 10 41 22 15 12 51 25 79 29 28 4 87 13 131 19 44 6 88 16 98
22 12 6 23 6 32 -2 8 -6 26 -13 40 -14 14 -2 34 -11 44 -20 11 -10 44 -21 75
-25 34 -5 70 -18 93 -34 22 -15 49 -27 61 -27 13 0 25 -8 29 -17 7 -19 38 -53
49 -53 3 0 21 16 39 36 40 43 97 52 122 19 8 -11 22 -19 31 -17 19 3 62 -32
62 -49 0 -6 -5 -19 -11 -30 -8 -16 -7 -25 7 -40 9 -10 23 -19 29 -19 7 0 24
-12 38 -26 15 -14 32 -24 39 -22 16 6 48 -34 48 -60 0 -23 40 -69 65 -73 19
-4 26 -29 26 -84 -1 -36 -58 -93 -103 -102 -28 -6 -29 -5 -17 14 15 26 6 53
-20 53 -25 0 -35 -29 -17 -49 7 -9 17 -34 20 -57 11 -62 -14 -87 -90 -90 -71
-3 -90 -10 -127 -44 -31 -29 -29 -55 6 -66 12 -4 25 -11 29 -17 4 -7 21 -5 51
7 25 9 73 19 108 21 35 3 83 8 106 11 30 4 48 1 65 -10 12 -9 32 -16 43 -16
12 0 26 -5 32 -11 6 -6 43 -11 83 -11 60 -1 74 -4 83 -20 7 -11 36 -31 66 -46
53 -26 72 -48 55 -61 -5 -3 -10 -27 -11 -53 -1 -43 1 -49 28 -65 16 -10 29
-21 29 -25 0 -13 -44 -92 -62 -112 -10 -11 -18 -23 -18 -26 0 -8 -95 -40 -119
-40 -18 0 -75 -33 -99 -57 -13 -12 -32 -14 -106 -8 -50 4 -104 9 -121 12 -16
2 -83 8 -147 13 -65 5 -123 12 -129 15 -19 13 -90 7 -126 -10 -37 -18 -108
-14 -147 8 -12 6 -27 12 -34 13 -8 1 -21 9 -30 17 -10 8 -41 21 -70 28 -44 11
-56 18 -66 43 -19 48 -8 81 50 142 30 31 53 62 51 68 -2 6 -18 10 -36 8 -31
-2 -41 10 -20 24 6 3 9 19 5 35 -5 26 -3 29 20 29 14 0 34 -5 45 -10 15 -8 25
-7 44 7 33 24 31 29 -12 29 -21 -1 -53 3 -70 7 -27 7 -33 6 -33 -7 0 -19 -11
-21 -28 -4 -14 14 -42 -6 -42 -32 0 -27 -19 -29 -75 -9 -28 10 -82 23 -120 29
-39 6 -81 15 -95 20 -14 5 -54 12 -90 14 -36 3 -81 9 -100 15 -19 5 -71 8
-115 8 -80 -2 -80 -2 -80 -48 0 -25 -6 -54 -15 -63 -8 -10 -13 -31 -12 -47 2
-26 -1 -29 -28 -29 -16 0 -54 11 -83 25 -46 21 -63 23 -123 19 -56 -5 -78 -2
-116 15 -27 11 -48 16 -48 11 0 -17 -36 -11 -53 8 -19 20 -23 37 -7 27 5 -3
10 1 10 9 0 19 74 22 130 6 31 -9 37 -8 52 12 9 13 26 35 38 50 11 14 20 35
20 46 0 13 16 32 44 50 59 40 83 47 113 31 22 -12 27 -11 39 6 21 28 17 45 -9
45 -29 0 -54 18 -70 49 -10 21 -20 25 -72 28 -46 2 -64 8 -78 24 -14 18 -20
19 -32 9 -19 -16 -21 -14 -29 32 -6 31 -4 37 13 43 33 10 63 55 50 72 -7 7
-20 11 -30 8 -13 -4 -18 0 -21 17 -2 16 -11 24 -28 26 -14 2 -33 11 -43 20
-19 17 -66 21 -109 8 -24 -7 -33 -3 -64 28 -35 35 -36 35 -60 18 -13 -9 -24
-21 -24 -25 0 -5 -9 -20 -20 -34 -18 -23 -27 -26 -85 -25 -113 1 -150 19 -110
52 21 17 20 86 -1 94 -12 4 -15 2 -10 -9 4 -10 -1 -15 -14 -15 -13 0 -18 5
-14 15 7 18 -4 18 -81 0 -33 -8 -77 -15 -97 -15 -26 0 -38 -5 -38 -14 0 -16
-32 -26 -60 -19 -24 6 -28 58 -5 67 8 3 15 15 15 26 0 17 -6 20 -41 20 -61 0
-82 -15 -74 -53 4 -18 16 -42 27 -53 19 -22 19 -22 -31 -22 -28 0 -58 -5 -65
-12 -12 -9 -20 -8 -40 5 -31 21 -46 13 -46 -26 0 -35 -12 -37 -33 -5 -19 28
-53 40 -61 20 -3 -8 -20 -14 -42 -14 -37 0 -37 0 -31 40 3 28 1 40 -7 40 -13
0 -56 53 -56 70 0 5 -7 10 -15 10 -8 0 -15 4 -15 10 0 15 -37 46 -88 71 -26
13 -49 26 -52 30 -11 14 -50 29 -75 29 -15 0 -38 9 -53 20 -14 11 -28 17 -31
12 -3 -4 -48 -14 -98 -21 -71 -10 -101 -10 -128 -1 -29 10 -38 9 -51 -4 -18
-18 -44 -21 -44 -5 0 7 -10 5 -25 -5 -15 -10 -45 -16 -79 -16 -30 0 -57 -4
-61 -9 -3 -5 -38 -10 -78 -10 -41 0 -73 -5 -75 -11 -2 -6 -35 -10 -78 -10 -66
0 -78 -3 -102 -25 -16 -15 -43 -27 -72 -30 -25 -4 -52 -7 -60 -8 -8 -2 -14
-10 -12 -20 2 -12 -2 -15 -13 -11 -15 6 -47 -4 -85 -27 -8 -5 -28 -16 -45 -24
-16 -8 -25 -15 -20 -15 6 0 -5 -7 -22 -15 -18 -8 -48 -29 -66 -48 -21 -20 -56
-40 -90 -51 -34 -11 -57 -24 -57 -32 0 -10 -12 -14 -40 -14 -27 0 -40 -4 -40
-14 0 -8 -16 -16 -40 -20 -22 -3 -40 -11 -40 -16 0 -6 -13 -10 -29 -10 -16 0
-42 -5 -57 -10 -15 -6 -41 -11 -59 -12 -22 -1 -34 -8 -41 -22 -11 -26 -54 -35
-54 -12 0 9 -4 16 -10 16 -14 0 -12 -24 2 -38 10 -10 10 -15 -1 -21 -7 -5 -11
-14 -7 -19 15 -25 -6 -58 -49 -78 -29 -12 -45 -25 -45 -37 0 -14 -5 -17 -22
-12 -13 4 -29 13 -36 19 -20 19 4 62 45 81 25 12 32 21 28 35 -4 12 3 25 20
38 14 11 25 25 25 31 0 33 -96 84 -111 60 -8 -13 -29 20 -29 45 0 10 -9 16
-24 16 -23 0 -24 3 -25 70 0 59 3 74 21 92 14 14 18 23 10 26 -7 2 -12 15 -12
28 0 16 -11 31 -35 46 -19 13 -35 28 -35 35 0 22 -23 63 -35 63 -7 0 -20 9
-30 20 -10 11 -26 20 -36 20 -10 0 -23 9 -29 20 -6 11 -20 20 -30 20 -22 0
-70 38 -70 54 0 6 -14 22 -30 36 -17 14 -33 34 -34 45 -2 11 -9 19 -15 17 -6
-1 -16 9 -21 22 -5 13 -14 27 -20 31 -5 3 -8 11 -5 16 4 5 0 9 -7 9 -7 0 -30
11 -50 25 -20 14 -51 25 -67 25 -31 0 -31 0 -31 -1224 0 -1224 0 -1224 22
-1230 13 -3 35 -6 50 -6 37 0 58 -10 58 -27 0 -8 5 -11 10 -8 6 4 8 14 5 24
-4 13 4 21 32 31 21 8 44 14 50 14 7 -1 13 2 13 7 0 17 47 9 74 -12 17 -13 33
-18 47 -14 13 4 27 1 37 -9 31 -30 77 -66 85 -66 4 0 7 -7 7 -15 0 -21 27 -30
44 -16 11 9 15 9 18 0 6 -19 33 3 33 26 0 17 9 21 64 28 51 6 67 5 81 -8 9 -8
22 -15 28 -15 7 0 12 -7 12 -15 0 -8 9 -19 20 -25 17 -9 20 -8 20 10 0 28 38
42 67 24 19 -12 23 -12 31 2 6 11 25 15 73 15 88 0 116 7 122 29 3 12 18 21
41 25 19 4 40 13 47 21 14 17 79 18 114 2 20 -9 37 -9 78 2 29 7 59 18 68 23
12 8 32 5 71 -7 30 -9 75 -17 99 -18 24 0 66 -7 92 -16 40 -14 51 -14 69 -3
14 9 23 10 31 2 6 -6 17 -11 24 -11 20 0 121 -83 122 -100 1 -9 15 -21 31 -27
17 -6 30 -19 30 -28 0 -9 6 -15 13 -12 6 2 11 9 10 16 -2 6 11 4 32 -6 29 -14
39 -14 62 -4 16 7 39 15 53 17 14 3 34 8 45 11 11 4 22 7 25 8 3 0 15 6 27 13
12 6 33 11 46 10 14 -1 37 4 51 12 21 11 32 11 65 0 21 -7 54 -11 74 -8 25 3
33 0 30 -9 -3 -7 0 -13 6 -13 6 0 11 5 11 11 0 7 11 9 29 6 24 -5 28 -3 24 12
-3 11 2 21 13 25 14 5 15 9 5 15 -8 5 1 8 22 7 39 -1 97 -52 97 -84 0 -18 37
-42 64 -42 8 0 19 -7 26 -15 14 -16 50 -21 50 -6 0 10 12 12 73 12 34 0 40 4
49 30 16 46 105 65 180 38 20 -8 39 -22 41 -31 3 -10 10 -18 16 -18 6 0 8 7 4
16 -4 10 -1 15 8 13 8 -1 26 1 41 5 34 10 62 -6 78 -44 10 -24 15 -28 26 -19
11 9 14 7 14 -7 1 -32 25 -54 59 -54 21 0 31 -5 31 -15 0 -11 -11 -15 -40 -15
-25 0 -40 5 -40 13 0 8 -3 8 -9 -2 -7 -11 -11 -5 -14 22 -4 37 -4 37 -3 0 1
-38 1 -38 68 -38 54 1 70 5 85 21 15 17 27 20 66 17 38 -4 47 -9 47 -24 0 -15
7 -19 40 -19 29 0 40 -4 40 -15 0 -11 12 -15 44 -15 39 0 44 2 39 20 -4 16
-14 20 -47 20 -41 0 -41 0 -8 20 22 14 49 20 85 19 28 -1 45 -3 35 -6 -18 -5
-31 -30 -22 -44 9 -15 34 -10 34 7 0 15 12 16 100 12 82 -4 103 -8 114 -23 11
-15 26 -18 99 -16 85 2 87 2 88 -21 0 -20 2 -19 16 10 9 17 19 32 23 32 4 0
14 -15 23 -32 14 -29 16 -30 16 -10 1 19 6 22 41 22 29 0 40 4 40 15 0 12 15
15 79 15 55 0 81 -4 83 -12 4 -10 50 -14 175 -16 171 -4 171 -4 184 24 17 34
32 40 52 19 17 -17 47 -20 47 -5 0 6 5 10 10 10 6 0 10 -6 10 -14 0 -17 104
-28 243 -25 74 2 108 -2 125 -12 21 -13 25 -12 43 10 17 21 22 22 30 10 7 -12
10 -12 18 0 9 14 51 7 51 -9 0 -5 -7 -7 -16 -3 -12 4 -15 2 -12 -8 3 -8 13
-13 23 -11 10 2 14 -1 10 -7 -3 -6 -1 -11 5 -11 7 0 10 7 6 15 -3 8 -1 15 3
15 5 0 11 -5 13 -11 2 -7 11 -8 28 -1 14 6 34 13 45 17 16 5 17 8 5 15 -9 6
-10 10 -3 10 6 0 14 -4 17 -9 4 -5 27 -1 54 9 26 10 76 29 111 41 35 12 72 32
84 43 11 12 17 15 13 9 -8 -15 5 -17 20 -5 5 5 43 21 84 36 41 15 89 34 105
41 17 7 87 34 157 61 81 31 123 52 115 57 -7 5 -3 6 9 2 26 -7 230 94 227 113
-2 6 3 9 10 6 20 -7 163 100 234 175 35 36 63 69 63 74 0 4 6 7 14 7 7 0 16 9
19 21 3 12 10 18 15 15 5 -3 15 7 23 22 8 15 22 33 32 40 9 7 15 18 12 23 -8
12 26 58 43 59 7 0 10 5 7 10 -4 6 -2 17 5 25 6 7 27 45 46 84 19 39 39 71 44
71 6 0 10 9 10 20 0 11 5 20 11 20 5 0 7 4 4 10 -8 14 23 70 39 70 8 0 16 6
19 13 11 30 15 -3 6 -43 -13 -55 -16 -62 -72 -180 -89 -188 -292 -436 -432
-528 -38 -25 -72 -47 -75 -49 -2 -2 2 -9 10 -14 12 -9 12 -10 -3 -5 -10 3 -25
2 -35 -3 -9 -5 -38 -18 -64 -30 -26 -12 -50 -26 -53 -31 -3 -5 -12 -7 -20 -3
-9 3 -15 -1 -15 -11 0 -9 -4 -17 -10 -17 -5 -1 -13 -3 -17 -4 -5 -2 -18 -6
-30 -10 -14 -4 -23 -16 -24 -29 0 -11 -3 -15 -6 -8 -6 14 -53 17 -53 2 0 -5
-10 -10 -23 -10 -13 0 -29 -6 -35 -13 -13 -12 -17 -13 -47 -16 -8 0 -12 -7 -9
-14 3 -10 -4 -13 -26 -12 -16 1 -30 -2 -30 -8 0 -5 -7 -6 -16 -3 -10 4 -25 -1
-35 -10 -10 -9 -26 -14 -35 -10 -12 4 -15 2 -10 -9 4 -11 -1 -15 -17 -15 -25
-1 -61 -25 -54 -37 3 -4 -10 -9 -29 -10 -19 -1 -32 3 -29 8 4 5 1 9 -4 9 -6 0
-11 -3 -11 -7 0 -11 -50 -33 -72 -33 -10 0 -18 -3 -18 -7 0 -12 -77 -46 -88
-39 -5 3 -15 -1 -22 -8 -6 -8 -25 -18 -41 -21 -16 -4 -31 -11 -34 -16 -4 -5
-22 -9 -41 -9 -19 0 -34 -5 -34 -11 0 -6 8 -8 18 -6 9 3 34 8 55 12 20 3 37
10 37 14 0 5 19 7 43 5 30 -3 38 -1 27 6 -12 8 -11 10 7 10 12 0 25 -4 28 -10
3 -6 14 -10 23 -10 13 1 11 4 -7 14 -15 9 -20 16 -12 20 6 4 18 1 26 -7 15
-16 55 -12 55 5 0 6 -9 8 -20 5 -11 -3 -20 -1 -20 4 0 13 31 11 63 -3 33 -16
34 -25 5 -31 -13 -3 4 -2 37 1 33 3 62 9 63 14 6 13 94 9 127 -7 20 -9 24 -14
13 -14 -10 -1 -18 -6 -18 -11 0 -6 21 -8 58 -4 71 8 79 14 21 14 -44 1 -44 1
-14 18 23 13 50 16 120 13 50 -2 92 -7 93 -12 2 -5 21 -9 43 -9 32 0 39 -3 39
-20 0 -25 8 -25 33 -3 16 15 36 18 128 16 104 -3 109 -2 134 23 14 13 25 30
25 36 0 7 16 -3 35 -22 31 -30 33 -35 18 -42 -16 -6 -16 -7 -1 -7 9 -1 28 10
42 24 14 14 32 25 40 25 12 0 14 7 10 29 -4 16 -1 32 5 35 7 5 11 -5 11 -28 0
-36 0 -36 118 -30 64 4 120 12 124 17 4 7 16 4 32 -6 18 -12 47 -17 98 -17 40
0 143 -9 228 -20 130 -17 155 -18 162 -6 14 25 55 28 90 6 33 -20 33 -20 -26
-20 -45 0 -57 -3 -49 -11 14 -14 176 -12 181 2 7 17 40 10 38 -8 -3 -19 10
-33 32 -33 7 0 12 13 12 34 0 40 7 44 97 50 39 2 63 0 66 -7 2 -7 45 -11 120
-10 106 0 117 -2 117 -18 0 -16 9 -18 93 -17 51 1 98 -1 104 -5 6 -4 18 -1 26
7 8 9 19 11 28 6 7 -5 41 -6 76 -3 57 5 66 3 97 -21 19 -14 39 -26 45 -26 6 0
11 -4 11 -10 0 -5 18 -10 40 -10 27 0 40 4 40 14 0 10 21 16 76 21 41 4 78 5
80 2 3 -3 6 -14 7 -26 1 -14 6 -20 15 -16 7 3 25 5 38 5 21 0 24 5 24 35 0 35
0 35 59 35 32 0 86 3 120 6 52 6 61 4 61 -9 0 -11 -12 -17 -37 -20 -21 -2 -15
-3 13 -2 28 2 57 -1 65 -6 11 -7 10 -9 -5 -9 -15 0 -16 -3 -6 -15 7 -8 21 -15
31 -15 11 0 19 7 19 15 0 20 93 21 109 1 10 -12 8 -15 -11 -19 -13 -2 14 -5
60 -6 47 0 82 -5 82 -11 0 -6 47 -10 120 -10 100 0 120 -2 120 -15 0 -11 11
-15 40 -15 40 0 40 0 40 2470 0 2470 0 2470 -5120 2470 -5120 0 -5120 0 -5120
-317z m3940 -352 c0 -5 -3 -23 -6 -40 -6 -28 -10 -32 -31 -27 -18 5 -26 1 -35
-19 -8 -17 -17 -24 -28 -20 -26 8 -47 -22 -32 -46 7 -11 8 -19 2 -19 -5 0 -10
5 -10 10 0 6 -13 10 -30 10 -25 0 -30 4 -30 24 0 13 -5 26 -11 28 -7 2 -8 17
-4 41 8 40 6 40 139 42 22 0 41 5 43 13 5 14 33 17 33 3z m-290 -95 c0 -2 -7
-9 -15 -16 -12 -10 -15 -10 -15 4 0 9 7 16 15 16 8 0 15 -2 15 -4z m460 -1176
c0 -5 -7 -10 -15 -10 -8 0 -15 5 -15 10 0 6 7 10 15 10 8 0 15 -4 15 -10z
m3140 -197 c0 -7 7 -10 15 -7 13 6 20 -6 16 -28 0 -5 3 -8 9 -8 5 0 7 -7 3
-16 -5 -14 -9 -12 -20 10 -7 14 -20 26 -27 26 -20 0 -66 50 -66 72 0 17 4 16
35 -9 19 -15 35 -33 35 -40z m-80 -13 c8 -5 11 -12 8 -16 -10 -9 -38 3 -38 16
0 12 10 13 30 0z m-16 -29 c4 -5 3 -17 0 -26 -5 -13 -8 -14 -15 -3 -5 7 -9 19
-9 26 0 14 16 16 24 3z m-319 -61 c3 -5 2 -10 -4 -10 -5 0 -13 5 -16 10 -3 6
-2 10 4 10 5 0 13 -4 16 -10z m320 0 c-3 -5 -14 -10 -23 -10 -15 0 -15 2 -2
10 20 13 33 13 25 0z m-291 -21 c-3 -6 0 -15 7 -20 8 -5 9 -9 3 -9 -5 0 -19 7
-30 16 -10 8 -13 13 -6 9 6 -3 12 -1 12 4 0 6 5 11 11 11 5 0 7 -5 3 -11z
m176 -13 c12 -15 71 -39 109 -45 13 -2 92 -81 81 -81 -5 0 -27 15 -48 34 -20
19 -56 39 -79 45 -37 10 -107 61 -84 61 5 0 14 -7 21 -14z m110 4 c0 -5 -5
-10 -11 -10 -5 0 -7 5 -4 10 3 6 8 10 11 10 2 0 4 -4 4 -10z m-156 -40 c16 0
17 -3 8 -12 -10 -10 -17 -7 -32 10 -11 12 -15 17 -8 12 7 -6 21 -10 32 -10z
m26 -34 c0 -2 -7 -9 -15 -16 -13 -11 -14 -10 -9 4 5 14 24 23 24 12z m1227
-76 c-48 -26 -61 -26 -22 0 17 11 37 20 45 20 8 0 -2 -9 -23 -20z m-1283 -19
c3 -5 -9 -9 -27 -9 -17 0 -45 -7 -62 -16 -33 -17 -55 -21 -55 -8 0 26 130 56
144 33z m853 -13 c-3 -8 -6 -5 -6 6 -1 11 2 17 5 13 3 -3 4 -12 1 -19z m450
-55 c-3 -10 -5 -4 -5 12 0 17 2 24 5 18 2 -7 2 -21 0 -30z m-132 17 c-3 -5
-12 -10 -18 -10 -7 0 -6 4 3 10 19 12 23 12 15 0z m-930 -50 c3 -6 -1 -7 -9
-4 -18 7 -21 14 -7 14 6 0 13 -4 16 -10z m79 -37 c19 -55 20 -65 3 -38 -18 31
-36 85 -27 85 5 0 15 -21 24 -47z m-7134 -19 c0 -8 -4 -12 -10 -9 -5 3 -10 10
-10 16 0 5 5 9 10 9 6 0 10 -7 10 -16z m6555 -4 c28 -6 62 -15 78 -21 28 -12
36 -34 15 -41 -8 -3 -4 -12 10 -26 12 -12 18 -22 12 -22 -10 0 -17 8 -51 52
-12 17 -34 30 -57 34 -20 4 -50 16 -67 26 -18 12 -22 17 -10 14 11 -3 43 -10
70 -16z m-4359 -9 c14 -11 42 -22 64 -26 48 -8 68 -28 50 -50 -11 -14 -7 -19
13 -16 4 0 7 -8 7 -18 0 -10 6 -21 13 -24 6 -3 20 -18 29 -35 18 -30 18 -30
-12 -41 -17 -5 -30 -14 -30 -18 0 -5 -18 -27 -40 -50 -23 -23 -36 -44 -31 -48
18 -10 85 7 104 27 17 17 28 18 134 12 73 -5 117 -3 121 3 4 5 21 14 37 20 22
7 31 17 33 36 2 19 10 27 32 32 29 6 70 -8 70 -25 0 -5 12 -16 28 -23 36 -19
95 -30 87 -17 -10 17 12 44 37 45 15 0 24 7 26 20 4 26 72 77 94 71 11 -2 18
1 18 10 0 8 6 16 13 18 68 19 97 31 97 38 0 4 5 8 11 8 15 0 89 -59 89 -72 0
-11 26 -38 50 -53 58 -34 96 -52 107 -48 6 2 14 -1 18 -6 3 -6 17 -11 31 -11
14 0 40 -11 57 -24 18 -13 44 -26 58 -30 50 -11 71 -38 73 -90 1 -39 5 -50 24
-60 23 -12 23 -12 -2 -24 -19 -9 -27 -8 -36 3 -7 8 -10 22 -6 30 3 9 -3 24
-13 34 -10 10 -21 30 -25 45 -5 19 -12 26 -24 24 -13 -3 -17 -14 -17 -55 -1
-29 -5 -56 -9 -60 -8 -8 -51 -13 -114 -13 -17 0 -53 -11 -80 -24 -130 -67
-184 -83 -202 -61 -15 18 -40 20 -40 2 0 -18 -39 -49 -57 -45 -21 4 -29 28 -9
28 8 0 17 4 20 8 5 8 -59 32 -142 52 -30 8 -42 15 -38 25 6 16 -34 27 -109 30
-85 4 -155 17 -155 29 0 6 -17 11 -40 11 -22 1 -35 -2 -30 -5 5 -3 12 -30 15
-60 8 -81 -9 -98 -120 -111 -63 -8 -90 -8 -98 0 -6 6 -22 11 -37 11 -30 1 -60
21 -60 42 0 14 -72 68 -91 68 -11 0 -11 21 0 38 9 15 42 13 42 -3 1 -22 21
-36 35 -24 19 16 17 33 -6 54 -17 15 -24 16 -46 7 -55 -26 -62 1 -8 36 41 27
40 43 -3 56 -23 7 -37 22 -54 55 -21 43 -51 79 -82 98 -7 4 -23 23 -36 41 -23
32 -23 34 -5 55 34 40 48 48 76 42 19 -5 33 -1 44 9 20 20 21 20 50 -3z m4524
-67 c0 -2 -11 2 -25 8 -14 6 -25 15 -25 20 0 5 11 1 25 -8 14 -9 25 -18 25
-20z m1001 -17 c-10 -9 -11 -8 -5 6 3 10 9 15 12 12 3 -3 0 -11 -7 -18z m1571
-22 c26 -14 52 -25 57 -25 6 0 33 -10 61 -22 34 -15 49 -27 45 -36 -3 -7 -5
-18 -5 -24 0 -6 -12 -8 -27 -5 -36 7 -79 -10 -97 -38 -20 -31 -20 -54 -1 -61
8 -4 15 -12 15 -19 0 -7 14 -22 31 -32 30 -20 30 -20 -17 -21 -26 0 -58 -6
-70 -13 -20 -10 -27 -10 -44 6 -21 19 -21 19 16 50 26 22 35 37 31 48 -5 15
-11 15 -53 2 -25 -7 -57 -24 -69 -35 -22 -21 -25 -21 -55 -6 -34 16 -53 12
-84 -20 -22 -21 -20 -34 4 -34 35 0 22 -19 -22 -31 -24 -7 -49 -17 -55 -22 -7
-5 -19 -7 -28 -4 -8 4 -22 -1 -30 -10 -14 -14 -21 -14 -56 -3 -32 11 -44 22
-59 56 -11 23 -28 45 -37 47 -10 3 8 3 41 1 63 -4 119 15 139 48 8 11 29 20
59 24 34 5 45 10 41 20 -3 9 2 14 17 14 15 0 20 -5 17 -14 -8 -19 16 -38 37
-30 9 3 16 9 16 13 0 13 -52 61 -60 56 -6 -3 -7 1 -4 9 3 8 14 18 25 21 10 4
26 19 36 36 13 21 25 29 46 29 18 0 37 9 50 25 27 31 31 31 89 0z m-7408 -5
c34 0 52 -16 38 -33 -7 -8 -10 -22 -6 -31 3 -9 1 -16 -5 -16 -6 0 -8 -7 -4
-16 5 -14 1 -15 -28 -9 -19 4 -52 7 -73 6 -21 0 -45 4 -52 10 -15 13 -34 4
-34 -16 0 -23 -18 -27 -54 -10 -37 18 -45 35 -38 83 4 29 8 32 40 32 19 0 40
-7 46 -15 14 -18 56 -9 56 13 0 12 9 14 46 8 26 -3 56 -6 68 -6z m-296 -20
c-15 -24 -22 -25 -37 -6 -13 15 -2 24 32 25 15 1 15 -2 5 -19z m6217 -10 c10
-11 16 -22 13 -25 -2 -3 -14 6 -26 20 -26 30 -13 34 13 5z m-515 -24 c0 -3 -4
-8 -10 -11 -5 -3 -10 -1 -10 4 0 6 5 11 10 11 6 0 10 -2 10 -4z m-1035 -66
c-3 -5 2 -10 11 -10 16 0 16 -1 -2 -14 -17 -13 -15 -14 26 -10 33 3 40 2 25
-5 -11 -5 -35 -10 -53 -10 -37 -1 -35 -13 6 -34 24 -12 31 -12 50 1 12 8 29
12 37 8 22 -8 3 -41 -35 -61 -27 -14 -35 -14 -73 -1 -23 8 -36 15 -29 16 6 0
12 7 12 16 0 10 -6 14 -15 10 -18 -7 -20 5 -3 22 8 8 9 15 3 20 -16 12 -11 36
10 49 26 14 38 16 30 3z m142 4 c-3 -3 -12 -4 -19 -1 -8 3 -5 6 6 6 11 1 17
-2 13 -5z m2609 -5 c3 -6 1 -16 -4 -21 -13 -13 -45 8 -36 23 7 12 31 11 40 -2z
m-2566 -28 c-14 -28 -15 -28 35 -26 45 2 65 -7 45 -20 -6 -4 -18 -1 -27 7 -14
11 -16 11 -10 -4 4 -12 2 -15 -7 -12 -7 3 -16 -2 -19 -10 -7 -18 -27 -22 -27
-5 0 5 6 7 13 3 6 -4 4 1 -5 11 -14 15 -20 16 -32 5 -13 -10 -16 -10 -16 4 0
9 6 16 13 16 9 0 8 3 -2 9 -10 7 -8 12 10 25 31 21 42 20 29 -3z m1661 -4
c-10 -9 -11 -8 -5 6 3 10 9 15 12 12 3 -3 0 -11 -7 -18z m-7591 -17 c0 -5 -4
-10 -10 -10 -5 0 -10 5 -10 10 0 6 5 10 10 10 6 0 10 -4 10 -10z m7390 -94 c0
-6 -7 -19 -14 -29 -15 -19 -48 -13 -40 8 3 7 1 15 -4 19 -11 6 -3 66 9 66 5 0
9 -4 9 -8 0 -5 7 -17 16 -28 15 -18 15 -18 5 3 -6 12 -11 28 -11 35 1 7 7 -2
15 -21 8 -18 15 -38 15 -45z m-1260 45 c0 -6 -4 -13 -10 -16 -5 -3 -10 1 -10
9 0 9 5 16 10 16 6 0 10 -4 10 -9z m1118 -97 c0 -33 -14 -39 -32 -13 -11 16
-12 24 -3 34 17 18 35 8 35 -21z m-518 -69 c25 -15 25 -15 -5 -9 -30 6 -30 6
3 -16 19 -11 47 -24 63 -27 16 -3 29 -9 29 -14 0 -5 9 -9 20 -9 11 0 20 -4 20
-10 0 -12 3 -13 -45 5 -22 8 -53 14 -68 15 -25 0 -27 -2 -16 -21 6 -12 19 -23
28 -26 9 -2 17 -13 18 -23 1 -15 -3 -17 -18 -12 -34 13 -97 1 -124 -24 -14
-13 -25 -18 -26 -11 0 7 -5 2 -11 -9 -6 -14 -19 -21 -34 -20 -30 1 -31 14 -1
25 26 10 96 81 80 81 -6 0 -16 -7 -23 -15 -10 -13 -15 -13 -21 -3 -5 7 -3 16
4 21 12 9 2 6 -40 -10 -13 -5 -12 1 7 22 18 20 20 26 8 22 -9 -3 -35 -11 -57
-17 -46 -12 -58 -25 -39 -43 17 -16 57 -15 87 2 13 7 21 8 17 3 -3 -6 -1 -12
4 -14 6 -2 -10 -20 -35 -41 -25 -21 -45 -34 -45 -28 0 5 16 22 35 37 20 15 33
29 31 32 -3 2 -31 -17 -63 -44 -32 -26 -52 -42 -45 -34 6 8 12 21 12 29 0 11
-3 11 -19 -3 -18 -16 -51 -13 -51 6 0 5 12 21 28 35 27 25 27 25 0 9 -34 -20
-44 -20 -28 -1 6 8 9 19 5 25 -3 5 2 10 13 10 11 0 71 27 133 59 63 33 121 60
129 60 8 0 26 -6 40 -14z m260 11 c0 -2 -7 -7 -16 -10 -8 -3 -12 -2 -9 4 6 10
25 14 25 6z m640 -13 c0 -5 -5 -15 -10 -23 -8 -12 -10 -11 -10 8 0 12 5 22 10
22 6 0 10 -3 10 -7z m87 -5 c4 -7 9 -22 10 -33 3 -16 1 -17 -7 -5 -9 14 -15 7
-11 -14 1 -4 -4 -14 -10 -22 -6 -8 -8 -14 -5 -14 4 0 -6 -11 -21 -24 -29 -25
-44 -27 -24 -2 9 11 8 15 -4 20 -8 3 -15 1 -15 -4 0 -6 -5 -10 -11 -10 -6 0
-1 12 10 26 12 15 21 32 21 38 -1 18 -50 -47 -50 -66 0 -9 -4 -20 -10 -23 -5
-3 -10 -2 -10 4 0 18 24 66 37 74 7 4 13 15 13 22 0 8 5 15 10 15 6 0 10 -5
10 -11 0 -5 5 -7 11 -3 6 3 3 -8 -6 -26 -16 -30 -16 -32 2 -28 10 2 17 9 16
15 -1 6 4 17 12 23 18 15 20 46 3 53 -8 3 -7 6 4 6 9 1 20 -5 25 -11z m-4311
-26 c10 -14 10 -20 -2 -33 -8 -8 -14 -21 -14 -28 0 -7 -6 -11 -15 -8 -8 4 -17
1 -21 -4 -4 -7 -10 -7 -17 0 -14 14 -54 14 -62 1 -9 -15 -25 -12 -25 5 0 16
36 73 55 88 16 12 87 -2 101 -21z m4323 -61 c-22 -46 -36 -51 -19 -7 9 25 32
57 37 52 2 -2 -6 -22 -18 -45z m78 24 c-4 -8 -2 -17 3 -20 6 -4 10 -16 10 -29
0 -12 4 -26 10 -32 12 -12 -33 -64 -56 -64 -12 0 -13 4 -3 23 9 18 9 20 -1 10
-11 -10 -16 -7 -27 14 -18 35 4 102 29 87 5 -3 4 -12 -3 -20 -8 -10 -8 -14 0
-14 6 0 14 14 18 30 3 17 10 30 15 30 6 0 8 -7 5 -15z m-900 -31 c-3 -3 -12
-4 -19 -1 -8 3 -5 6 6 6 11 1 17 -2 13 -5z m1004 -23 c7 11 9 10 9 -4 0 -22
-25 -18 -26 4 -1 12 0 12 4 0 3 -12 5 -12 13 0z m-284 -23 c-3 -8 -6 -5 -6 6
-1 11 2 17 5 13 3 -3 4 -12 1 -19z m248 2 c-3 -5 -10 -10 -16 -10 -5 0 -9 5
-9 10 0 6 7 10 16 10 8 0 12 -4 9 -10z m-1075 -59 c0 -5 -7 -12 -16 -15 -14
-5 -15 -4 -4 9 14 17 20 19 20 6z m27 -43 c-3 -7 -5 -2 -5 12 0 14 2 19 5 13
2 -7 2 -19 0 -25z m17 -78 c4 -38 3 -50 -4 -40 -9 14 -15 108 -6 99 2 -2 7
-29 10 -59z m-224 -1035 c0 -10 -10 -15 -30 -15 -22 0 -28 4 -24 15 4 8 17 15
30 15 15 0 24 -6 24 -15z m168 -4 c11 -6 10 -10 -4 -15 -21 -8 -84 3 -84 15 0
11 71 11 88 0z m-4268 -26 c-7 -9 -15 -13 -17 -11 -7 7 7 26 19 26 6 0 6 -6
-2 -15z m-370 -75 c0 -4 -7 -11 -16 -14 -13 -5 -15 -2 -11 14 3 11 1 23 -4 26
-5 3 -9 11 -9 17 1 13 40 -30 40 -43z m2710 0 c0 -13 -11 -13 -30 0 -12 8 -11
10 8 10 12 0 22 -4 22 -10z m-2515 -30 c-3 -5 -10 -10 -16 -10 -5 0 -9 5 -9
10 0 6 7 10 16 10 8 0 12 -4 9 -10z m405 0 c0 -5 -2 -10 -4 -10 -3 0 -8 5 -11
10 -3 6 -1 10 4 10 6 0 11 -4 11 -10z m2457 -46 c-3 -3 -12 -4 -19 -1 -8 3 -5
6 6 6 11 1 17 -2 13 -5z m-92 -34 c3 -5 1 -10 -4 -10 -6 0 -11 5 -11 10 0 6 2
10 4 10 3 0 8 -4 11 -10z m108 3 c-7 -2 -19 -2 -25 0 -7 3 -2 5 12 5 14 0 19
-2 13 -5z m-93 -33 c0 -5 -5 -10 -11 -10 -5 0 -7 5 -4 10 3 6 8 10 11 10 2 0
4 -4 4 -10z m343 3 c-7 -2 -19 -2 -25 0 -7 3 -2 5 12 5 14 0 19 -2 13 -5z
m-630 -10 c-13 -2 -33 -2 -45 0 -13 2 -3 4 22 4 25 0 35 -2 23 -4z m577 -3 c0
-5 -4 -10 -10 -10 -5 0 -10 5 -10 10 0 6 5 10 10 10 6 0 10 -4 10 -10z m1635
0 c40 -6 43 -7 15 -8 -19 0 -57 3 -85 8 -40 6 -43 7 -15 8 19 0 58 -3 85 -8z
m-2012 -19 c-12 -11 -16 -12 -23 -1 -4 7 -15 10 -24 7 -9 -4 -16 -2 -16 3 0 5
17 8 39 7 33 -1 36 -3 24 -16z m2355 -49 c2 -7 -6 -12 -17 -12 -21 0 -27 11
-14 24 9 9 26 2 31 -12z m1045 -9 c-13 -2 -33 -2 -45 0 -13 2 -3 4 22 4 25 0
35 -2 23 -4z m817 -63 c0 -17 -7 -20 -40 -20 -33 0 -40 3 -40 20 0 17 7 20 40
20 33 0 40 -3 40 -20z m143 -17 c-13 -2 -33 -2 -45 0 -13 2 -3 4 22 4 25 0 35
-2 23 -4z"/>
<path d="M2514 4665 c-14 -14 -23 -29 -20 -34 3 -5 -1 -14 -9 -21 -8 -7 -12
-16 -9 -21 9 -16 19 -10 32 19 6 16 21 38 32 50 37 40 13 46 -26 7z"/>
<path d="M8415 4440 c4 -6 11 -8 16 -5 14 9 11 15 -7 15 -8 0 -12 -5 -9 -10z"/>
<path d="M8456 4431 c-3 -5 1 -11 9 -14 9 -4 12 -1 8 9 -6 16 -10 17 -17 5z"/>
<path d="M3215 6972 c-11 -11 27 -60 51 -66 30 -8 29 -8 38 21 5 16 1 25 -16
35 -23 12 -65 18 -73 10z"/>
<path d="M3570 6311 c6 -12 15 -21 20 -21 18 0 11 19 -11 30 -19 11 -20 10 -9
-9z"/>
<path d="M3206 5152 c-3 -6 -1 -14 5 -17 15 -10 25 3 12 16 -7 7 -13 7 -17 1z"/>
<path d="M6115 3020 c-3 -5 -2 -10 4 -10 5 0 13 5 16 10 3 6 2 10 -4 10 -5 0
-13 -4 -16 -10z"/>
<path d="M4000 2940 c0 -17 7 -20 40 -20 33 0 40 3 40 20 0 17 -7 20 -40 20
-33 0 -40 -3 -40 -20z"/>
<path d="M5586 2903 c-12 -12 -5 -22 14 -20 11 1 20 4 20 8 0 10 -27 19 -34
12z"/>
<path d="M5544 2884 c3 -8 2 -12 -4 -9 -6 3 -10 1 -10 -6 0 -10 -3 -10 -12 -1
-14 14 -48 16 -48 2 0 -5 7 -7 15 -4 8 4 15 1 15 -6 0 -6 -9 -14 -20 -17 -11
-3 -20 -10 -20 -15 0 -6 11 -3 25 6 13 9 35 18 47 19 24 4 40 47 18 47 -7 0
-9 -7 -6 -16z"/>
<path d="M4830 2870 c20 -13 50 -13 50 0 0 6 -15 10 -32 10 -25 0 -29 -3 -18
-10z"/>
<path d="M5315 2870 c3 -5 15 -10 26 -10 10 0 19 5 19 10 0 6 -12 10 -26 10
-14 0 -23 -4 -19 -10z"/>
<path d="M5395 2870 c3 -5 15 -10 25 -10 10 0 22 5 25 10 4 6 -7 10 -25 10
-18 0 -29 -4 -25 -10z"/>
<path d="M6120 2871 c0 -23 51 -26 95 -6 29 13 29 13 -32 14 -35 1 -63 -3 -63
-8z"/>
<path d="M7618 2873 c12 -2 32 -2 45 0 12 2 2 4 -23 4 -25 0 -35 -2 -22 -4z"/>
<path d="M423 2841 c-3 -12 -14 -18 -33 -19 -19 0 -27 4 -24 12 3 9 -25 11
-120 9 -116 -3 -127 -5 -151 -27 -16 -15 -24 -32 -23 -47 3 -22 -1 -24 -34
-23 -31 1 -38 -2 -38 -17 0 -17 8 -19 83 -18 45 0 77 3 71 5 -9 4 -9 11 0 29
9 20 18 25 46 24 38 0 90 -17 58 -18 -11 -1 -18 -9 -18 -21 0 -12 7 -20 18
-20 9 0 27 -3 40 -6 19 -6 22 -3 22 25 0 28 3 31 31 31 17 0 28 4 24 10 -3 6
1 10 9 10 9 0 16 5 16 10 0 19 28 10 33 -10 4 -17 14 -20 60 -20 31 0 68 -5
83 -10 15 -6 40 -8 56 -5 29 7 29 7 6 27 -13 11 -23 24 -23 29 0 5 -7 14 -15
19 -8 5 -10 10 -5 10 6 0 -1 7 -15 15 -14 8 -52 14 -88 15 -54 0 -65 -3 -69
-19z m137 -11 c0 -5 -22 -10 -50 -10 -27 0 -50 5 -50 10 0 6 23 10 50 10 28 0
50 -4 50 -10z m-350 -20 c0 -5 -7 -10 -15 -10 -8 0 -15 5 -15 10 0 6 7 10 15
10 8 0 15 -4 15 -10z"/>
<path d="M5680 2850 c-8 -5 -42 -19 -75 -32 -33 -12 -80 -34 -105 -48 -25 -15
-53 -29 -62 -33 -9 -3 -69 -37 -132 -76 -64 -39 -116 -68 -116 -66 0 3 -14 -8
-31 -24 -17 -17 -46 -35 -65 -41 -19 -7 -34 -18 -34 -27 0 -9 -6 -13 -15 -9
-10 4 -15 -1 -15 -14 0 -11 5 -20 10 -20 6 0 10 4 10 9 0 36 208 38 3157 20
1113 -7 2026 -10 2029 -6 4 4 5 9 3 11 -5 4 -1857 17 -3741 25 -1367 6 -1367
6 -1290 57 85 57 180 114 187 114 3 0 24 12 46 26 22 14 45 24 51 22 6 -2 22
6 35 18 14 13 31 20 39 17 8 -3 14 0 14 7 0 6 5 8 10 5 6 -3 10 -3 10 2 0 8
32 24 88 44 17 6 32 15 32 20 0 11 -20 11 -40 -1z"/>
<path d="M6648 2833 c7 -3 16 -2 19 1 4 3 -2 6 -13 5 -11 0 -14 -3 -6 -6z"/>
<path d="M5426 2805 c-11 -8 -15 -15 -9 -15 6 0 16 7 23 15 16 19 11 19 -14 0z"/>
<path d="M699 2784 c-9 -11 -5 -16 15 -25 14 -7 26 -19 26 -27 0 -10 8 -13 30
-10 17 3 30 1 30 -4 0 -4 19 -7 43 -7 29 2 34 3 15 6 -16 2 -28 10 -28 17 0
37 -107 78 -131 50z"/>
<path d="M978 2767 c-25 -20 -23 -24 15 -25 17 0 41 -1 52 -2 31 -1 65 9 65
20 0 6 -13 10 -29 10 -16 0 -41 2 -57 5 -17 3 -36 -1 -46 -8z"/>
<path d="M1272 2768 c-15 -15 -16 -48 -1 -48 6 0 9 9 6 20 -4 17 -2 18 14 9
11 -5 17 -14 14 -19 -3 -4 13 -11 35 -15 46 -8 160 3 160 15 0 33 -128 54
-160 25 -17 -15 -19 -15 -37 4 -15 16 -22 18 -31 9z"/>
<path d="M5320 2750 c-13 -8 -13 -10 2 -10 9 0 20 5 23 10 8 13 -5 13 -25 0z"/>
<path d="M878 2738 c9 -9 15 -9 24 0 9 9 7 12 -12 12 -19 0 -21 -3 -12 -12z"/>
<path d="M1640 2730 c-19 -5 -9 -9 43 -15 59 -6 90 -3 76 9 -10 8 -96 13 -119
6z"/>
<path d="M1780 2720 c0 -6 7 -10 15 -10 8 0 15 2 15 4 0 2 -7 6 -15 10 -8 3
-15 1 -15 -4z"/>
<path d="M5003 2525 c-9 -10 -273 -14 -1295 -19 -1013 -5 -3086 -14 -3620 -16
-73 0 -88 -3 -88 -16 0 -13 42 -15 398 -10 218 3 818 8 1332 11 514 3 1451 8
2083 12 832 4 1147 3 1147 -5 0 -6 14 2 32 18 17 16 30 31 27 34 -2 2 -9 -2
-16 -9z"/>
<path d="M4880 2422 c-36 -31 -158 -150 -271 -264 -114 -114 -210 -204 -213
-200 -4 3 -4 -1 -1 -10 14 -37 83 -57 171 -50 30 3 51 45 33 69 -16 21 -45 28
-54 13 -10 -15 -28 -12 -22 4 3 8 1 17 -6 20 -7 2 -4 5 6 5 10 1 27 -4 38 -9
14 -8 19 -7 19 1 0 19 99 135 213 249 127 128 153 151 195 175 34 21 41 35 17
35 -8 0 -15 -5 -15 -11 0 -6 -7 -9 -15 -5 -9 3 -15 0 -15 -9 0 -8 -10 -19 -21
-26 -12 -6 -39 -29 -60 -51 -29 -30 -41 -38 -54 -31 -13 8 -4 21 56 76 40 37
70 69 68 71 -2 3 -34 -21 -69 -52z m-66 -120 c2 -4 -7 -8 -20 -8 -13 -1 -24 1
-24 5 0 9 38 12 44 3z m-97 -73 c2 -16 -1 -19 -9 -11 -5 5 -7 15 -4 21 10 15
12 14 13 -10z m-27 -60 c0 -11 -36 -6 -47 6 -5 4 -2 5 5 1 6 -4 12 -3 12 3 0
6 7 8 15 5 8 -4 15 -10 15 -15z m-205 -168 c3 -5 2 -12 -3 -15 -5 -3 -9 1 -9
9 0 17 3 19 12 6z"/>
<path d="M3900 2460 c-15 -5 16 -8 79 -9 57 -1 102 1 100 3 -9 8 -156 13 -179
6z"/>
<path d="M5573 2463 c20 -2 54 -2 75 0 20 2 3 4 -38 4 -41 0 -58 -2 -37 -4z"/>
<path d="M6657 2463 c18 -2 50 -2 70 0 21 2 7 4 -32 4 -38 0 -55 -2 -38 -4z"/>
<path d="M8250 2459 c-15 -4 9 -7 60 -8 47 0 90 3 97 7 14 9 -124 10 -157 1z"/>
<path d="M8471 2459 c8 -5 34 -8 59 -8 53 1 44 6 -24 12 -30 3 -43 1 -35 -4z"/>
<path d="M2748 2453 c12 -2 30 -2 40 0 9 3 -1 5 -23 4 -22 0 -30 -2 -17 -4z"/>
<path d="M2861 2455 c7 -7 209 -8 216 -1 4 3 -45 6 -107 6 -62 0 -111 -2 -109
-5z"/>
<path d="M3408 2453 c17 -2 47 -2 65 0 17 2 3 4 -33 4 -36 0 -50 -2 -32 -4z"/>
<path d="M3718 2453 c23 -2 59 -2 80 0 20 2 1 4 -43 4 -44 0 -61 -2 -37 -4z"/>
<path d="M4138 2453 c7 -3 16 -2 19 1 4 3 -2 6 -13 5 -11 0 -14 -3 -6 -6z"/>
<path d="M4218 2453 c28 -2 76 -2 105 0 28 2 5 3 -53 3 -58 0 -81 -1 -52 -3z"/>
<path d="M7968 2453 c29 -2 74 -2 100 0 26 2 2 3 -53 3 -55 0 -76 -1 -47 -3z"/>
<path d="M8608 2453 c7 -3 16 -2 19 1 4 3 -2 6 -13 5 -11 0 -14 -3 -6 -6z"/>
<path d="M8813 2453 c20 -2 54 -2 75 0 20 2 3 4 -38 4 -41 0 -58 -2 -37 -4z"/>
<path d="M9191 2456 c2 -2 28 -6 57 -10 37 -5 52 -4 47 4 -3 5 -29 10 -57 10
-28 0 -49 -2 -47 -4z"/>
<path d="M9373 2453 c15 -2 37 -2 50 0 12 2 0 4 -28 4 -27 0 -38 -2 -22 -4z"/>
<path d="M9468 2453 c7 -3 16 -2 19 1 4 3 -2 6 -13 5 -11 0 -14 -3 -6 -6z"/>
<path d="M9528 2453 c6 -2 18 -2 25 0 6 3 1 5 -13 5 -14 0 -19 -2 -12 -5z"/>
<path d="M4388 1998 c8 -8 17 -8 34 0 22 10 21 11 -11 11 -27 1 -32 -2 -23
-11z"/>
</g>
</svg>
