<?xml version="1.0" standalone="no"?>
<!DOCTYPE svg PUBLIC "-//W3C//DTD SVG 20010904//EN"
 "http://www.w3.org/TR/2001/REC-SVG-20010904/DTD/svg10.dtd">
<svg version="1.0" xmlns="http://www.w3.org/2000/svg"
 width="250.000000pt" height="282.000000pt" viewBox="0 0 250.000000 282.000000"
 preserveAspectRatio="xMidYMid meet">
<metadata>
Created by potrace 1.11, written by Peter Selinger 2001-2013
</metadata>
<g transform="translate(0.000000,282.000000) scale(0.100000,-0.100000)"
fill="#000000" stroke="none">
<path d="M0 1410 c0 -1410 0 -1410 365 -1410 366 0 366 0 359 62 -4 34 -7 177
-8 317 -1 214 2 264 16 306 9 28 19 69 22 92 7 47 25 93 37 93 4 0 5 -16 2
-35 -3 -19 -2 -42 2 -52 6 -16 8 -16 16 5 4 12 6 29 3 37 -10 24 -2 18 62 -43
52 -51 67 -60 121 -71 96 -21 173 -11 293 38 135 54 201 92 271 152 31 27 59
49 61 49 6 0 2 -31 -7 -53 -10 -23 4 -132 15 -121 5 5 11 25 15 44 11 68 17
91 22 86 18 -17 53 -127 53 -164 0 -44 -25 -153 -60 -267 -46 -148 -139 -442
-145 -457 -7 -17 21 -18 489 -18 496 0 496 0 496 1410 0 1410 0 1410 -1250
1410 -1250 0 -1250 0 -1250 -1410z m1829 1090 c11 -24 11 -24 -3 -6 -9 11 -16
24 -16 30 0 12 5 7 19 -24z m-242 -122 c-3 -7 -5 -2 -5 12 0 14 2 19 5 13 2
-7 2 -19 0 -25z m-237 -8 c11 6 20 7 20 2 0 -6 -8 -12 -17 -16 -10 -3 -23 -8
-29 -11 -7 -4 -11 7 -12 27 0 30 1 31 9 10 7 -19 12 -21 29 -12z m-37 -61 c-3
-10 -12 -19 -19 -19 -27 0 -14 -17 26 -35 35 -16 57 -17 176 -11 135 7 135 7
170 -28 33 -33 39 -53 36 -123 -1 -13 3 -23 9 -23 6 0 6 -6 0 -17 -13 -26 -19
-142 -7 -146 7 -2 6 -13 -2 -32 -10 -21 -10 -30 -2 -35 17 -10 -13 -20 -39
-13 -15 4 -21 1 -21 -11 0 -9 -7 -19 -16 -23 -13 -5 -13 -8 -2 -15 8 -6 -1 -7
-27 -3 -51 7 -75 -6 -52 -29 8 -9 20 -16 26 -16 16 0 51 -32 51 -46 0 -7 -6
-15 -12 -17 -8 -4 -4 -8 10 -12 12 -4 22 -13 22 -20 0 -7 7 -18 16 -26 31 -26
44 -64 31 -93 -7 -14 -15 -26 -19 -26 -5 0 -8 -8 -8 -19 0 -10 -7 -24 -15 -31
-8 -7 -15 -21 -15 -31 0 -11 -4 -19 -9 -19 -5 0 -11 -9 -13 -20 -2 -12 -7 -20
-12 -20 -5 1 -14 -6 -19 -16 -7 -13 -5 -20 7 -29 14 -11 15 -14 1 -25 -13 -11
-14 -10 -9 4 3 9 1 16 -5 16 -17 0 -61 -50 -61 -69 0 -14 2 -14 10 -1 5 8 10
10 10 5 0 -6 -5 -16 -11 -22 -7 -7 -6 -12 5 -16 13 -5 16 1 16 26 0 22 3 28 9
18 5 -8 16 -11 24 -8 9 3 18 -1 21 -8 3 -9 12 -12 22 -8 14 5 15 3 4 -17 -9
-16 -9 -24 -1 -29 8 -5 8 -17 0 -42 -21 -65 -33 -84 -83 -132 -40 -38 -46 -47
-26 -42 22 7 23 6 8 -9 -10 -9 -24 -13 -35 -10 -12 4 -14 3 -5 -3 9 -7 6 -15
-12 -32 -15 -14 -26 -19 -31 -12 -3 6 -14 11 -23 10 -11 0 -12 -3 -4 -6 13 -5
17 -33 4 -33 -4 0 -14 6 -20 12 -10 10 -14 8 -18 -8 -3 -11 -14 -21 -26 -21
-12 -1 -26 -9 -30 -18 -5 -8 -16 -15 -23 -15 -8 0 -15 -4 -15 -10 0 -5 -6 -7
-13 -4 -7 2 -33 -9 -58 -24 -41 -26 -53 -29 -125 -28 -85 2 -129 17 -176 61
-15 14 -32 25 -39 25 -6 0 -9 7 -5 15 3 9 -1 15 -11 15 -13 0 -13 3 -3 15 10
12 10 15 -2 15 -7 0 -21 12 -29 28 -23 39 -56 183 -64 275 -4 43 -16 103 -27
134 -11 32 -17 67 -13 80 4 16 2 22 -4 18 -7 -3 -8 0 -5 10 4 8 1 22 -5 29 -7
8 -9 25 -6 38 3 12 0 43 -8 68 -13 46 -7 141 12 164 4 6 11 23 15 39 6 25 26
39 26 17 0 -5 8 -10 18 -10 14 -1 14 -3 -5 -19 -27 -22 -30 -41 -7 -41 8 0 25
-5 37 -12 26 -14 58 -18 51 -6 -3 4 -11 8 -19 8 -7 0 -16 7 -19 16 -9 23 21
43 63 44 27 0 31 -3 22 -14 -6 -7 -9 -21 -5 -29 5 -13 9 -14 25 -4 11 7 17 18
14 27 -5 12 -4 13 6 3 15 -15 29 -17 29 -3 0 14 -55 40 -85 40 -14 0 -25 5
-25 11 0 12 50 7 95 -11 17 -6 40 -23 52 -38 19 -24 22 -25 28 -9 5 12 1 26
-12 40 -11 12 -23 30 -27 40 -3 11 -15 21 -26 24 -11 3 -20 9 -20 13 0 10 -91
31 -102 24 -4 -3 -8 2 -8 11 0 11 -6 15 -18 11 -15 -5 -21 2 -31 36 -7 24 -17
46 -23 49 -5 3 -8 14 -8 25 1 10 2 39 2 63 0 44 0 44 24 -14 23 -58 58 -104
69 -93 4 3 -1 21 -11 40 -11 21 -18 56 -18 98 -1 57 4 74 37 136 21 40 49 82
62 94 23 22 23 22 41 -9 19 -32 34 -40 34 -19 0 7 6 3 14 -8 12 -16 24 -20 66
-18 31 1 53 -3 56 -10 5 -13 55 -20 53 -8 -1 4 -1 16 1 27 1 20 1 20 10 0 7
-17 9 -16 10 10 1 30 1 30 19 8 10 -12 22 -19 25 -15 4 4 15 7 24 7 13 0 16 8
14 32 -2 33 -2 33 22 12 15 -13 22 -28 19 -40z m248 38 c-10 -9 -11 -8 -5 6 3
10 9 15 12 12 3 -3 0 -11 -7 -18z m-41 -11 c0 -2 -8 -10 -17 -17 -16 -13 -17
-12 -4 4 13 16 21 21 21 13z m50 -20 c0 -3 -4 -8 -10 -11 -5 -3 -10 -1 -10 4
0 6 5 11 10 11 6 0 10 -2 10 -4z m-430 -26 c0 -5 -4 -10 -10 -10 -5 0 -10 5
-10 10 0 6 5 10 10 10 6 0 10 -4 10 -10z m645 -110 c3 -5 1 -10 -4 -10 -6 0
-11 5 -11 10 0 6 2 10 4 10 3 0 8 -4 11 -10z m-28 -72 c-3 -8 -6 -5 -6 6 -1
11 2 17 5 13 3 -3 4 -12 1 -19z m-967 -278 c0 -12 -8 -12 -35 0 -18 8 -17 9 8
9 15 1 27 -3 27 -9z m-632 -132 c-4 -26 -30 -43 -52 -35 -21 8 -21 53 1 66 25
13 55 -5 51 -31z m1822 -115 c0 -77 -28 -174 -65 -225 -48 -66 -170 -131 -188
-100 -6 9 25 107 51 157 39 77 72 152 72 164 0 7 4 10 9 6 5 -3 17 2 25 11 16
15 56 31 84 33 8 1 12 -15 12 -46z"/>
<path d="M746 2035 c-3 -8 -1 -15 4 -15 6 0 10 7 10 15 0 8 -2 15 -4 15 -2 0
-6 -7 -10 -15z"/>
<path d="M1265 1781 c-3 -12 -11 -21 -16 -21 -5 0 -9 -4 -9 -8 0 -11 13 -12
120 -10 149 2 149 2 165 25 15 21 14 21 -38 20 -28 -1 -89 2 -134 6 -77 9 -81
8 -88 -12z m242 -18 c-9 -9 -20 -13 -24 -9 -4 4 -1 11 7 16 25 16 35 11 17 -7z"/>
<path d="M1343 1699 c-18 -5 -35 -15 -39 -21 -5 -8 -2 -9 12 -3 10 4 36 9 58
11 34 3 37 2 20 -10 -15 -12 -16 -16 -5 -29 10 -13 16 -14 31 -4 15 9 17 14 7
26 -9 11 -5 10 20 -2 17 -9 34 -25 38 -36 5 -17 33 -36 41 -28 10 10 -12 45
-39 62 -62 38 -99 46 -144 34z"/>
<path d="M933 1365 c-14 -15 -7 -25 19 -25 21 0 23 7 5 24 -10 10 -15 10 -24
1z"/>
<path d="M1050 1299 c-45 -25 -15 -25 36 1 26 13 32 19 19 19 -11 0 -36 -9
-55 -20z"/>
<path d="M1520 1170 c0 -5 5 -10 11 -10 5 0 7 5 4 10 -3 6 -8 10 -11 10 -2 0
-4 -4 -4 -10z"/>
<path d="M860 1161 c0 -15 41 -40 78 -47 23 -4 32 -11 28 -20 -4 -12 19 -14
132 -14 75 0 143 4 150 9 22 13 -18 19 -91 14 -47 -4 -73 -1 -96 10 -17 9 -29
11 -26 6 4 -5 -5 -9 -20 -9 -14 0 -28 7 -31 15 -4 10 -13 13 -25 10 -12 -4
-21 -1 -25 9 -3 8 -12 12 -19 10 -7 -3 -16 -1 -20 5 -8 14 -35 14 -35 2z"/>
<path d="M880 1070 c0 -5 5 -10 11 -10 5 0 7 5 4 10 -3 6 -8 10 -11 10 -2 0
-4 -4 -4 -10z"/>
<path d="M910 1042 c0 -5 7 -15 15 -22 8 -7 15 -8 15 -2 0 5 -7 15 -15 22 -8
7 -15 8 -15 2z"/>
<path d="M972 1000 c9 -6 38 -13 65 -16 48 -5 48 -5 8 10 -46 18 -101 22 -73
6z"/>
<path d="M1390 951 c0 -5 -3 -17 -6 -25 -5 -12 -2 -15 10 -10 17 7 22 44 6 44
-5 0 -10 -4 -10 -9z"/>
<path d="M791 725 c0 -22 8 -58 19 -80 11 -22 18 -31 14 -20 -3 11 -12 47 -19
80 -13 56 -13 57 -14 20z"/>
</g>
</svg>
