<?xml version="1.0" standalone="no"?>
<!DOCTYPE svg PUBLIC "-//W3C//DTD SVG 20010904//EN"
 "http://www.w3.org/TR/2001/REC-SVG-20010904/DTD/svg10.dtd">
<svg version="1.0" xmlns="http://www.w3.org/2000/svg"
 width="1280.000000pt" height="960.000000pt" viewBox="0 0 1280.000000 960.000000"
 preserveAspectRatio="xMidYMid meet">
<metadata>
Created by potrace 1.11, written by Peter Selinger 2001-2013
</metadata>
<g transform="translate(0.000000,960.000000) scale(0.100000,-0.100000)"
fill="#000000" stroke="none">
<path d="M7380 9588 c18 -8 21 -12 10 -15 -33 -12 -40 -24 -24 -40 9 -9 11
-19 6 -22 -10 -7 -25 -61 -17 -61 3 0 10 10 15 23 9 22 9 22 9 -3 1 -15 -4
-31 -11 -38 -9 -9 -9 -12 0 -12 7 0 12 4 12 9 0 5 7 11 15 15 8 3 14 0 12 -7
-1 -7 4 -11 11 -9 6 1 12 -8 12 -20 1 -26 22 -58 39 -58 6 0 11 -7 11 -16 0
-14 -3 -14 -15 -4 -13 10 -15 9 -15 -8 0 -20 -4 -20 -137 -17 -138 4 -138 4
-68 -9 39 -8 85 -21 102 -30 18 -10 37 -15 42 -11 6 3 15 -4 22 -16 9 -18 9
-25 -4 -34 -12 -9 -14 -19 -8 -41 5 -16 13 -28 19 -27 5 1 16 -4 22 -12 10
-12 10 -15 -1 -15 -10 0 -10 -3 -1 -12 10 -10 15 -10 22 2 8 13 11 13 19 1 6
-9 18 -11 35 -7 25 6 26 6 9 -11 -11 -11 -32 -18 -55 -17 -20 0 -36 -4 -35 -9
1 -5 -6 -11 -16 -12 -24 -4 -35 -15 -15 -15 9 0 19 -7 22 -16 3 -8 10 -12 16
-9 5 3 10 -1 10 -9 0 -8 12 -22 28 -30 15 -8 22 -15 15 -16 -9 0 -9 -9 1 -37
7 -21 11 -44 8 -52 -3 -10 1 -12 17 -8 13 3 21 0 21 -7 0 -7 62 -31 143 -57
119 -37 136 -45 105 -47 -20 -2 -53 4 -73 12 -44 19 -56 20 -52 5 1 -6 -4 -14
-10 -16 -7 -3 -13 2 -13 11 0 9 -7 16 -15 16 -8 0 -15 -7 -15 -15 0 -8 -7 -15
-16 -15 -8 0 -12 5 -9 10 3 6 2 10 -3 10 -5 0 -14 -11 -20 -24 -10 -22 -14
-23 -36 -13 -13 6 -22 15 -20 19 6 10 -15 9 -41 -1 -10 -4 -29 -3 -40 3 -25
13 -101 13 -129 1 -16 -7 -18 -5 -13 10 7 16 3 17 -40 12 -27 -3 -57 -2 -68 3
-18 8 -18 9 5 10 24 1 24 1 6 15 -26 19 -47 19 -40 0 8 -19 -2 -19 -91 0 -88
19 -402 71 -475 79 -30 4 -157 21 -282 38 -186 26 -228 35 -228 47 0 13 -2 13
-9 2 -7 -11 -24 -11 -97 -1 -49 6 -152 15 -229 19 -77 5 -113 9 -80 10 48 1
56 4 42 12 -10 6 -30 8 -43 5 -14 -4 -30 -3 -37 1 -16 10 -47 11 -47 2 0 -13
-63 2 -82 19 -16 14 -18 13 -18 -1 0 -37 -21 -14 -50 56 -12 26 -14 27 -98 29
-136 4 -196 0 -300 -22 -270 -56 -447 -157 -567 -325 -78 -108 -90 -149 -90
-315 0 -149 17 -249 36 -219 7 10 8 7 4 -11 -5 -24 24 -110 63 -185 14 -28 16
-29 24 -10 6 15 7 14 3 -8 -16 -79 182 -255 393 -351 80 -35 85 -36 98 -19 14
17 15 17 9 -4 -4 -13 -2 -23 4 -23 5 0 17 -3 27 -7 12 -4 15 -3 10 5 -4 7 -2
12 3 12 6 0 11 -7 11 -15 0 -8 17 -19 41 -25 34 -10 39 -14 34 -33 -6 -21 -6
-21 9 -3 31 39 28 4 -8 -82 -36 -87 -45 -132 -26 -132 11 0 1 -30 -17 -48 -15
-15 -19 -167 -4 -176 5 -3 12 -23 16 -43 4 -20 18 -57 31 -80 26 -48 31 -68
12 -57 -7 4 2 -7 19 -26 24 -24 30 -37 22 -46 -7 -8 -7 -14 1 -19 5 -3 10 -1
10 6 0 6 9 0 20 -14 11 -14 20 -32 20 -40 0 -9 5 -19 11 -22 6 -5 3 -13 -10
-22 -28 -19 -27 -37 2 -22 22 12 22 12 3 -10 -13 -14 -15 -21 -6 -21 8 0 9 -4
3 -12 -6 -7 -13 -26 -17 -41 -6 -26 -5 -27 15 -17 11 7 22 10 23 8 2 -2 11
-30 19 -63 9 -33 15 -46 13 -29 -4 22 0 33 15 42 12 8 19 8 19 2 0 -7 7 -7 21
0 11 7 24 8 27 4 4 -4 2 -9 -5 -11 -6 -2 -29 -33 -50 -69 -20 -35 -40 -64 -44
-64 -7 0 -10 -61 -2 -73 3 -4 11 0 18 9 16 23 43 12 42 -18 0 -16 -19 -39 -68
-78 -37 -30 -68 -60 -68 -67 -1 -6 -12 -25 -26 -41 -16 -19 -22 -33 -15 -37 6
-4 8 -15 5 -26 -8 -23 2 -24 25 -4 13 11 28 14 56 9 50 -7 69 -22 78 -58 7
-27 6 -28 -21 -23 l-28 5 30 -24 c17 -14 37 -30 45 -37 8 -6 20 -11 26 -9 21
4 64 -17 64 -32 0 -16 -34 -31 -50 -21 -5 3 -10 2 -10 -3 0 -13 76 -36 94 -29
11 5 16 1 16 -12 0 -14 14 -24 48 -37 26 -9 61 -28 79 -41 40 -29 52 -30 27
-2 -19 22 -19 22 3 10 24 -12 49 -6 57 15 3 8 14 14 24 14 10 0 27 7 38 15 10
8 24 15 29 15 13 0 35 -69 24 -76 -5 -3 -9 -20 -9 -37 l1 -32 15 34 c11 27 17
32 27 22 9 -10 8 -14 -5 -22 -10 -6 -18 -20 -17 -32 0 -21 1 -21 8 -2 7 17 9
16 14 -10 4 -21 1 -34 -10 -42 -8 -6 -12 -16 -9 -22 4 -5 2 -12 -3 -15 -5 -4
-12 2 -14 11 -3 10 -5 2 -6 -17 0 -23 2 -30 8 -22 10 16 42 13 48 -5 4 -11
-33 -29 -49 -25 -5 1 -8 -10 -7 -26 0 -15 3 -21 6 -14 2 6 9 10 14 6 5 -3 9 3
9 13 0 13 4 10 15 -11 8 -15 12 -33 8 -39 -11 -18 -13 -57 -2 -57 5 0 9 -7 9
-15 0 -8 -4 -15 -10 -15 -5 0 -2 -16 7 -35 12 -26 14 -38 6 -46 -8 -8 -6 -20
7 -44 16 -29 17 -34 3 -48 -14 -14 -14 -17 0 -31 14 -14 16 -13 26 17 10 26 9
34 -4 43 -12 9 -13 17 -5 39 8 22 7 31 -5 45 -13 14 -14 22 -4 43 9 20 9 30 0
41 -7 8 -9 25 -5 40 3 15 1 32 -6 40 -7 10 -8 21 -2 33 12 23 12 134 0 150 -5
7 -5 14 2 18 5 3 10 26 10 51 0 33 4 46 18 51 9 4 20 12 25 19 4 7 14 11 21 8
10 -4 15 10 20 53 14 129 18 150 27 163 8 13 13 11 27 -8 9 -13 40 -51 68 -85
28 -34 54 -72 58 -83 12 -39 49 -70 85 -73 19 -1 50 -11 69 -23 20 -12 45 -22
56 -23 24 -1 96 -62 96 -82 0 -7 6 -10 15 -7 8 4 15 1 15 -6 0 -6 5 -8 10 -5
6 3 14 -4 19 -17 10 -25 47 -60 74 -71 9 -3 17 -16 17 -27 0 -11 6 -20 13 -20
6 0 23 -25 37 -55 18 -39 29 -53 41 -50 8 3 32 -7 52 -22 35 -27 47 -49 52
-97 1 -11 3 -24 4 -28 0 -4 9 -4 18 -1 13 5 15 2 10 -11 -4 -10 -1 -19 8 -22
8 -4 15 -12 15 -20 0 -8 5 -14 12 -14 6 0 8 -3 5 -7 -4 -3 -2 -12 4 -20 9 -9
8 -13 0 -13 -6 0 -11 3 -11 8 0 4 -25 7 -56 7 -42 0 -51 -3 -39 -10 10 -5 27
-18 39 -28 l21 -18 -25 7 c-14 4 -31 9 -37 11 -7 3 -13 -2 -13 -10 0 -9 -8
-18 -17 -20 -17 -4 -17 -5 0 -6 9 0 17 -8 17 -16 0 -9 7 -18 15 -21 8 -4 15
-10 15 -15 0 -5 -7 -9 -15 -9 -22 0 -18 -18 5 -25 23 -7 27 -25 5 -25 -8 0
-15 -7 -15 -15 0 -8 -3 -14 -7 -14 -22 4 -25 -2 -9 -14 24 -17 14 -77 -12 -76
-11 0 -12 2 -4 6 6 2 12 8 12 13 0 10 -49 10 -56 -1 -3 -5 2 -9 10 -9 15 0 20
-11 17 -37 -1 -6 4 -15 10 -19 9 -5 10 -2 6 9 -3 9 -2 19 3 22 6 4 10 -3 10
-15 0 -12 3 -20 8 -18 42 22 85 38 90 34 9 -10 -21 -37 -36 -31 -8 3 -21 0
-28 -6 -8 -6 -27 -9 -44 -5 -22 4 -30 2 -30 -8 0 -13 -45 -39 -85 -49 -11 -3
-1 -5 22 -6 23 0 45 -6 49 -13 5 -7 2 -9 -9 -5 -8 3 -28 2 -44 -3 -15 -5 -20
-9 -10 -9 24 -1 22 -21 -2 -21 -23 0 -36 -16 -22 -25 6 -3 8 -12 4 -20 -6 -18
8 -20 25 -3 9 9 12 8 12 -4 0 -9 -4 -19 -8 -22 -10 -6 -9 -42 1 -52 4 -4 7 0
7 8 0 9 11 18 25 20 14 3 25 1 25 -3 0 -5 -7 -9 -15 -9 -8 0 -15 -9 -15 -20 0
-11 5 -20 10 -20 6 0 10 6 10 14 0 9 7 12 19 9 11 -3 28 4 40 16 12 12 26 21
32 21 5 0 7 5 4 10 -3 6 -15 10 -26 10 -10 0 -19 3 -19 8 0 10 41 35 48 28 3
-3 0 -6 -6 -6 -7 0 -12 -4 -12 -10 0 -14 65 -12 125 4 35 10 50 18 49 30 -1
11 7 16 28 16 19 0 43 11 64 30 19 16 51 34 73 41 24 7 38 16 35 24 -6 15 59
13 96 -4 l25 -11 -29 3 c-21 1 -30 -3 -32 -16 -1 -9 2 -15 7 -11 5 3 9 -1 9
-10 0 -8 6 -16 13 -19 7 -2 8 -8 3 -13 -5 -5 -11 -4 -13 4 -6 15 -33 16 -33 1
0 -7 8 -18 18 -25 16 -13 16 -13 -2 -14 -11 0 -16 -5 -13 -14 3 -7 -1 -26 -9
-41 -8 -15 -14 -31 -14 -35 0 -5 -5 -21 -12 -37 -6 -15 -12 -32 -13 -38 0 -5
-7 -9 -15 -7 -12 3 -12 1 -3 -9 8 -8 9 -18 2 -31 -13 -24 -7 -23 23 4 53 47
144 116 173 131 17 8 50 34 74 56 24 23 48 41 52 41 5 0 29 20 53 45 25 25 52
45 59 45 8 0 25 9 38 19 22 17 28 18 64 5 22 -7 47 -14 56 -14 9 0 22 -6 28
-14 17 -20 82 -31 92 -15 4 8 12 10 16 5 4 -5 2 -11 -4 -13 -7 -3 -13 -11 -13
-20 0 -8 -10 -23 -22 -33 l-23 -19 23 6 c13 3 22 1 22 -6 0 -6 5 -11 10 -11 6
0 10 9 10 20 0 10 9 24 21 30 11 6 19 19 17 28 -4 24 121 134 194 171 15 8 30
22 34 33 3 10 10 18 15 18 5 0 9 7 9 16 0 8 5 12 10 9 14 -9 40 13 40 33 0 8
8 21 18 28 15 12 15 15 2 24 -13 9 -13 10 0 10 8 0 23 20 33 45 15 34 24 45
41 45 12 0 29 6 38 13 16 12 88 121 88 132 0 4 12 31 27 61 26 54 26 57 15
126 -7 40 -17 77 -22 83 -6 7 -6 15 0 21 7 7 4 18 -10 34 -25 29 -25 29 6 40
30 12 23 30 -12 30 -13 0 -42 12 -64 26 -32 21 -38 30 -29 40 12 15 34 19 25
5 -8 -13 174 -4 190 10 8 7 12 19 9 27 -3 8 3 16 15 19 11 3 20 9 20 14 0 4
12 21 26 36 l26 28 -31 12 c-17 7 -31 18 -31 24 0 6 -9 8 -21 4 -17 -6 -15 1
15 42 29 41 40 49 63 48 19 -2 20 -1 6 2 -19 4 -21 8 -13 24 6 10 18 19 28 19
9 1 31 7 47 16 l30 14 -29 -5 -29 -6 30 25 c22 18 30 34 30 53 -2 27 -4 28
-52 28 -61 0 -90 20 -60 41 10 8 29 14 43 14 13 0 21 4 18 9 -4 5 14 17 38 26
25 10 47 23 50 30 7 20 -26 51 -52 47 -16 -2 -37 11 -73 46 -51 50 -56 72 -18
72 11 0 18 4 14 9 -3 5 -1 12 5 16 5 3 10 -3 10 -14 0 -34 15 -24 17 12 2 17
11 38 20 45 16 11 16 14 3 22 -12 7 -12 12 -2 22 6 6 12 20 12 30 0 23 29 23
46 1 12 -17 13 -17 14 -1 0 9 8 23 18 30 9 7 17 18 18 23 0 6 6 23 13 39 6 16
13 39 14 50 1 12 5 23 9 26 4 3 10 25 14 49 6 35 4 42 -6 36 -10 -6 -12 -2 -7
16 4 13 10 57 14 97 4 46 10 71 17 69 6 -3 10 -10 8 -16 -1 -7 2 -10 7 -7 5 4
14 -2 20 -11 7 -12 10 -13 11 -4 0 16 46 -10 70 -41 9 -10 33 -21 55 -24 l40
-5 -35 18 c-28 15 -36 26 -43 61 -4 23 -14 42 -20 42 -7 1 -21 13 -32 27 -11
14 -31 37 -43 51 -13 13 -26 41 -29 61 -2 20 -11 53 -19 73 -7 21 -11 44 -8
52 9 24 44 5 65 -36 25 -49 35 -45 14 5 -16 38 -11 67 11 67 8 0 11 6 8 15 -7
17 6 41 15 27 3 -5 15 -12 27 -16 15 -5 24 0 33 17 16 30 43 28 80 -7 l28 -27
-4 25 c-3 15 -1 26 6 26 6 0 11 6 11 13 0 8 18 13 53 14 28 1 70 10 92 19 22
9 53 19 69 21 16 2 35 8 43 14 7 6 13 8 13 5 0 -4 10 -2 23 4 18 9 20 9 7 -2
-45 -39 -40 -49 9 -17 66 42 130 129 138 187 5 38 4 40 -16 35 -15 -4 -27 1
-36 13 -8 11 -15 15 -15 11 0 -4 -19 5 -42 21 -24 16 -60 35 -80 43 -21 7 -38
16 -38 21 0 4 -19 12 -42 18 -50 14 -35 30 27 30 28 0 36 -3 25 -10 -11 -7 -9
-11 13 -19 25 -10 127 -22 127 -16 0 2 -6 15 -14 30 -12 23 -15 24 -18 8 -3
-10 -6 -3 -9 18 -3 27 -1 35 8 32 7 -3 13 0 13 6 0 6 -6 11 -12 11 -8 0 -14
15 -15 36 -1 29 1 33 12 24 8 -6 22 -9 33 -6 11 4 31 -4 52 -19 44 -32 54 -32
15 1 -141 119 -550 325 -866 435 -81 29 -89 34 -89 58 0 34 -43 157 -63 179
-8 9 -29 47 -45 84 -18 40 -48 84 -72 107 -28 26 -39 44 -34 53 4 7 7 25 6 40
-1 15 2 28 8 28 5 0 10 5 10 10 0 18 -32 10 -37 -9 -3 -12 -11 -17 -23 -14
-12 3 -20 -2 -23 -14 -4 -15 -5 -14 -6 5 0 12 5 22 12 22 19 0 51 37 37 42 -6
2 -8 11 -5 20 5 13 15 15 41 11 30 -5 34 -3 34 15 0 11 -4 24 -10 27 -5 3 -10
-1 -10 -10 0 -22 -54 -14 -58 8 -4 20 14 23 21 5 3 -10 9 -9 23 3 10 9 25 14
33 11 8 -3 12 1 9 9 -2 7 -15 16 -29 20 -13 3 -23 11 -22 17 2 7 -1 11 -6 9
-5 -1 -9 1 -10 6 -3 21 0 28 9 22 6 -3 10 1 10 10 0 9 -4 14 -9 10 -5 -3 -12
4 -16 15 -3 11 -13 20 -21 20 -8 0 -12 -4 -9 -10 8 -12 -1 -13 -42 -1 -26 7
-31 7 -26 -5 3 -8 9 -11 15 -8 5 3 18 -4 29 -17 21 -24 24 -39 9 -39 -5 0 -10
6 -10 14 0 8 -7 16 -15 20 -9 3 -15 -1 -15 -11 0 -13 -3 -13 -15 -3 -12 10
-15 10 -15 -1 -1 -9 -6 -7 -16 6 -13 17 -16 18 -25 5 -8 -12 -10 -9 -5 10 8
36 -3 70 -24 70 -10 0 -21 7 -24 16 -5 14 -8 14 -21 0 -19 -19 -19 -21 7 -46
25 -23 17 -40 -8 -19 -13 11 -18 11 -21 2 -3 -7 -9 -13 -15 -13 -6 0 -7 7 -4
16 6 16 -5 12 -36 -15 -26 -22 -22 -31 11 -31 34 0 61 -9 61 -20 0 -4 -12 -6
-27 -3 -18 2 -22 1 -12 -4 12 -6 14 -14 8 -28 -4 -11 -8 -14 -8 -7 -1 6 -6 12
-12 12 -7 0 -8 -11 -4 -30 5 -24 3 -30 -10 -30 -12 0 -15 6 -10 23 7 22 7 22
-9 2 -13 -16 -15 -17 -10 -2 5 13 1 17 -15 17 -12 0 -21 5 -21 11 0 7 10 9 25
5 14 -4 25 -2 25 4 0 5 -7 10 -15 10 -9 0 -15 9 -15 21 0 13 -5 19 -13 16 -6
-2 -20 6 -29 18 -16 21 -16 23 0 21 12 -1 16 5 14 22 -2 12 2 22 8 22 6 0 9 4
5 9 -3 5 -19 9 -35 9 -37 -1 -47 7 -30 27 11 14 7 19 -12 16 -5 0 -8 8 -8 20
0 11 -5 17 -10 14 -15 -9 -42 22 -49 58 -4 18 -13 32 -21 32 -21 0 -34 14 -55
58 -9 20 -24 37 -32 37 -11 0 -13 -4 -5 -12 23 -29 59 -104 55 -115 -3 -7 -11
-13 -19 -13 -11 0 -12 -4 -4 -19 6 -12 6 -22 1 -25 -5 -4 -12 0 -14 6 -4 10
-8 9 -16 -2 -9 -12 -11 -11 -11 7 0 12 -3 30 -6 40 -5 15 -4 15 5 3 11 -16 27
-7 16 10 -11 17 -56 32 -69 22 -15 -12 -58 0 -64 17 -3 10 1 12 13 7 15 -5 16
-4 5 9 -7 8 -19 15 -28 15 -8 0 -24 7 -34 17 -22 20 -36 10 -15 -11 8 -8 17
-12 21 -9 3 4 6 -4 6 -16 0 -18 -4 -21 -20 -16 -16 5 -20 2 -20 -14 0 -12 -4
-21 -10 -21 -5 0 -10 9 -10 21 0 14 -5 19 -15 16 -8 -4 -17 -2 -20 3 -4 6 -11
10 -16 10 -6 0 -7 -4 -4 -10 3 -5 2 -10 -4 -10 -17 0 -19 24 -3 43 14 15 13
17 -1 17 -10 0 -17 -4 -17 -10 0 -5 -21 -10 -47 -9 l-48 1 45 9 c25 5 46 13
48 19 2 5 10 10 18 10 8 0 14 3 14 8 0 4 -35 8 -77 9 -63 2 -73 0 -53 -9z m52
-80 c-7 -7 -12 -8 -12 -2 0 14 12 26 19 19 2 -3 -1 -11 -7 -17z m33 2 c3 -5 1
-10 -4 -10 -6 0 -11 5 -11 10 0 6 2 10 4 10 3 0 8 -4 11 -10z m-59 -47 c-10
-10 -19 5 -10 18 6 11 8 11 12 0 2 -7 1 -15 -2 -18z m69 -2 c-7 -16 -13 -39
-14 -53 -1 -5 -6 -8 -12 -8 -8 0 -8 4 0 14 8 9 8 16 2 20 -7 5 -7 15 1 31 12
27 34 23 23 -4z m152 13 c-3 -3 -12 -4 -19 -1 -8 3 -5 6 6 6 11 1 17 -2 13 -5z
m123 -20 c0 -17 -22 -14 -28 4 -2 7 3 12 12 12 9 0 16 -7 16 -16z m118 -8 c-1
-13 4 -32 13 -43 9 -10 21 -33 27 -51 10 -30 9 -33 -7 -30 -10 2 -25 -3 -33
-10 -13 -11 -15 -9 -15 13 0 33 -11 44 -24 25 -8 -11 -8 -8 -3 10 4 14 8 41 8
60 1 22 6 34 14 33 6 -2 12 2 12 7 0 6 3 10 6 10 3 0 4 -11 2 -24z m-301 -6
c-1 -22 -17 -28 -17 -7 0 12 9 27 16 27 2 0 2 -9 1 -20z m82 -23 c0 -21 -1
-21 -8 -2 -5 11 -13 21 -20 21 -6 1 -15 2 -21 3 -5 0 -10 5 -10 10 0 6 12 6
30 0 21 -8 30 -17 29 -32z m35 17 c8 -22 8 -24 -6 -24 -6 0 -8 3 -5 7 4 3 2
12 -4 20 -7 8 -8 13 -1 13 5 0 13 -7 16 -16z m-170 -65 c-9 -15 -20 -10 -20
10 0 15 3 17 13 9 7 -6 10 -14 7 -19z m36 0 c0 -6 -4 -7 -10 -4 -5 3 -10 11
-10 16 0 6 5 7 10 4 6 -3 10 -11 10 -16z m75 11 c3 -5 1 -10 -4 -10 -6 0 -11
5 -11 10 0 6 2 10 4 10 3 0 8 -4 11 -10z m-29 -15 c9 -8 11 -15 6 -15 -5 0
-15 7 -22 15 -7 8 -9 15 -6 15 4 0 14 -7 22 -15z m184 -15 c0 -5 -2 -10 -4
-10 -3 0 -8 5 -11 10 -3 6 -1 10 4 10 6 0 11 -4 11 -10z m-265 -20 c-4 -12 -1
-27 5 -35 15 -18 12 -18 -29 -4 l-33 12 26 17 c15 9 23 20 19 23 -3 4 -1 7 6
7 8 0 10 -7 6 -20z m145 10 c0 -5 -4 -10 -10 -10 -5 0 -10 5 -10 10 0 6 5 10
10 10 6 0 10 -4 10 -10z m-70 -20 c-6 -11 -16 -20 -22 -20 -6 0 -3 9 7 20 10
11 20 20 22 20 2 0 -1 -9 -7 -20z m230 -13 c0 -7 -9 -13 -20 -13 -25 0 -26 13
-2 19 9 3 18 5 20 6 1 0 2 -5 2 -12z m186 -14 c-6 -15 -9 -15 -16 -3 -6 9 -5
17 3 22 16 10 21 2 13 -19z m-381 -2 c-3 -6 -11 -11 -16 -11 -5 0 -4 6 3 14
14 16 24 13 13 -3z m591 -18 c-7 -17 -8 -17 -17 0 -12 21 -2 44 13 29 6 -6 8
-19 4 -29z m-359 11 c-3 -3 -12 -4 -19 -1 -8 3 -5 6 6 6 11 1 17 -2 13 -5z
m-7 -18 c0 -11 -19 -15 -25 -6 -3 5 1 10 9 10 9 0 16 -2 16 -4z m-80 -40 c0
-3 -4 -8 -10 -11 -5 -3 -10 -1 -10 4 0 6 5 11 10 11 6 0 10 -2 10 -4z m120 -6
c0 -5 -4 -10 -10 -10 -5 0 -10 5 -10 10 0 6 5 10 10 10 6 0 10 -4 10 -10z
m-83 -16 c-3 -3 -12 -4 -19 -1 -8 3 -5 6 6 6 11 1 17 -2 13 -5z m553 -19 c0
-8 -4 -15 -10 -15 -5 0 -10 7 -10 15 0 8 5 15 10 15 6 0 10 -7 10 -15z m27 -7
c-3 -8 -6 -5 -6 6 -1 11 2 17 5 13 3 -3 4 -12 1 -19z m-970 -30 c-3 -7 -5 -2
-5 12 0 14 2 19 5 13 2 -7 2 -19 0 -25z m914 -37 c-12 -8 -33 -8 -51 -1 -3 1
9 5 25 9 34 8 46 4 26 -8z m-151 -1 c0 -5 -5 -10 -11 -10 -5 0 -7 5 -4 10 3 6
8 10 11 10 2 0 4 -4 4 -10z m-2973 -6 c-3 -3 -12 -4 -19 -1 -8 3 -5 6 6 6 11
1 17 -2 13 -5z m3143 -30 c0 -8 -4 -12 -10 -9 -5 3 -10 13 -10 21 0 8 5 12 10
9 6 -3 10 -13 10 -21z m-110 -58 c0 -7 7 -19 15 -26 8 -7 15 -21 15 -31 0 -11
7 -19 15 -19 8 0 15 5 15 10 0 20 44 -12 123 -89 75 -73 107 -121 107 -162 0
-11 16 -44 36 -73 20 -30 34 -63 32 -73 -3 -14 -8 -11 -25 17 -12 20 -31 47
-43 59 -11 13 -20 28 -20 34 0 5 -7 7 -15 3 -9 -3 -15 0 -15 9 0 20 -117 138
-129 130 -7 -3 -11 3 -11 15 0 12 -4 19 -9 16 -5 -4 -12 0 -15 6 -3 7 -4 1 -1
-13 2 -14 7 -57 10 -95 3 -38 8 -84 11 -101 3 -18 1 -33 -5 -33 -5 0 -12 30
-16 68 -11 120 -40 229 -90 345 -4 10 -3 17 4 17 6 0 11 -6 11 -14z m150 -45
c0 -6 -4 -13 -10 -16 -5 -3 -10 1 -10 9 0 9 5 16 10 16 6 0 10 -4 10 -9z
m-2640 -35 c0 -3 -4 -8 -10 -11 -5 -3 -10 -1 -10 4 0 6 5 11 10 11 6 0 10 -2
10 -4z m-790 -76 c0 -5 -5 -10 -11 -10 -5 0 -7 -5 -3 -11 4 -7 0 -9 -14 -5
-11 4 -23 2 -27 -4 -3 -6 -10 -8 -15 -5 -4 3 -6 -5 -3 -17 5 -22 5 -22 -10 -4
-13 18 -16 18 -30 4 -15 -14 -14 -16 4 -21 12 -3 18 -10 15 -15 -9 -15 -44 -2
-49 18 -5 21 10 40 33 40 9 0 20 3 24 7 7 7 62 29 79 32 4 0 7 -3 7 -9z m190
-20 c0 -5 -2 -10 -4 -10 -3 0 -8 5 -11 10 -3 6 -1 10 4 10 6 0 11 -4 11 -10z
m-123 -26 c-3 -3 -12 -4 -19 -1 -8 3 -5 6 6 6 11 1 17 -2 13 -5z m-226 -41
c-9 -16 -10 -15 -9 9 2 16 6 24 11 19 5 -5 5 -17 -2 -28z m-21 5 c0 -16 -3
-19 -11 -11 -6 6 -8 16 -5 22 11 17 16 13 16 -11z m2557 -44 c-3 -3 -12 -4
-19 -1 -8 3 -5 6 6 6 11 1 17 -2 13 -5z m583 -17 c20 -8 21 -11 8 -14 -23 -6
-98 16 -98 28 0 11 46 4 90 -14z m-3232 1 c-4 -17 -28 -42 -34 -35 -8 7 15 47
26 47 6 0 9 -6 8 -12z m2947 2 c3 -5 -1 -10 -9 -10 -9 0 -16 5 -16 10 0 6 4
10 9 10 6 0 13 -4 16 -10z m420 -50 c3 -5 1 -10 -4 -10 -6 0 -11 5 -11 10 0 6
2 10 4 10 3 0 8 -4 11 -10z m359 -43 c3 4 6 -1 6 -10 0 -14 4 -15 27 -6 22 8
30 7 40 -7 7 -10 13 -28 13 -40 l0 -23 -55 19 c-62 21 -97 39 -77 40 10 0 10
5 2 20 -10 18 -8 19 14 10 13 -5 27 -6 30 -3z m-1539 -290 c158 -32 181 -36
242 -42 95 -9 222 -40 275 -66 10 -5 26 -9 37 -9 10 0 24 -7 31 -15 7 -8 18
-15 25 -15 6 0 24 -14 39 -30 l26 -30 -25 -12 c-14 -6 -25 -18 -25 -25 0 -8
-4 -11 -10 -8 -5 3 -10 2 -10 -3 0 -11 -68 -47 -88 -47 -7 0 -17 -7 -22 -15
-5 -8 -10 -11 -10 -6 0 5 -7 3 -15 -4 -8 -7 -15 -9 -15 -4 0 5 -7 -1 -15 -13
-9 -13 -22 -20 -30 -17 -8 4 -15 1 -15 -5 0 -6 -9 -11 -20 -11 -11 0 -20 -5
-20 -11 0 -7 -10 -9 -25 -5 -14 4 -25 2 -25 -3 0 -5 -14 -23 -32 -40 -31 -30
-32 -32 -17 -59 11 -21 15 -56 13 -149 -1 -66 4 -168 12 -225 8 -56 15 -116
16 -133 0 -16 3 -34 7 -40 8 -14 14 -46 13 -70 -6 -181 -8 -190 -35 -229 -15
-21 -27 -43 -27 -47 0 -5 -24 -9 -53 -9 -29 0 -58 -5 -65 -12 -9 -9 -28 -4
-79 20 -57 26 -74 29 -109 23 -52 -10 -64 -18 -64 -41 0 -28 18 -35 96 -35 50
0 79 -6 98 -18 34 -23 28 -43 -10 -40 -39 4 -86 -16 -80 -33 3 -8 1 -14 -3
-14 -5 0 -17 -3 -26 -7 -15 -5 -16 -3 -6 15 13 25 14 32 2 32 -5 0 -12 -10
-16 -22 -6 -20 -8 -20 -12 -5 -2 9 -9 17 -15 17 -13 0 -54 -45 -76 -85 l-17
-30 -3 28 c-4 31 -24 35 -68 12 -16 -8 -36 -12 -45 -10 -10 3 -19 -1 -23 -10
-3 -8 -15 -15 -27 -15 -21 0 -22 1 -4 20 15 17 16 20 3 20 -9 0 -23 -10 -31
-22 l-16 -23 6 24 c5 21 4 23 -13 17 -10 -5 -39 -10 -64 -12 -25 -2 -54 -8
-65 -14 -29 -16 -64 -74 -71 -117 -3 -21 -13 -44 -22 -51 -16 -12 -16 -14 1
-26 9 -7 17 -19 17 -26 0 -7 7 -10 16 -6 12 4 14 1 9 -14 -4 -11 -2 -20 4 -20
6 0 11 -9 11 -20 0 -13 5 -18 15 -14 8 4 17 -1 21 -10 3 -9 10 -16 16 -16 5 0
7 4 4 9 -3 5 1 14 9 21 8 7 15 20 15 29 0 9 15 22 33 30 17 8 40 21 49 29 17
15 33 14 168 -4 25 -4 48 -11 51 -16 8 -13 42 -17 55 -7 7 6 25 3 46 -5 19 -8
40 -11 47 -7 7 5 33 2 58 -5 24 -7 88 -14 141 -15 111 -2 142 -14 142 -60 0
-19 -5 -29 -15 -29 -16 0 -36 -39 -28 -52 2 -5 -1 -8 -6 -8 -6 0 -11 5 -11 10
0 19 -22 10 -27 -11 -4 -13 -13 -19 -27 -18 -32 4 -68 -10 -97 -38 -18 -17
-29 -21 -34 -13 -15 24 -144 -17 -167 -52 -12 -20 -9 -31 7 -24 13 4 13 2 5
-14 -7 -13 -7 -21 0 -25 6 -4 8 -15 5 -26 -8 -23 10 -25 23 -3 8 15 11 14 25
-6 8 -12 20 -19 26 -15 7 3 11 -2 11 -14 0 -22 48 -123 64 -133 6 -4 14 -2 18
5 4 7 8 8 9 2 0 -5 4 -1 9 10 8 19 8 19 17 -4 8 -21 11 -22 16 -7 4 10 2 27
-4 38 -11 20 -11 20 20 2 17 -10 31 -23 32 -29 4 -54 3 -78 -3 -82 -5 -2 -8 4
-8 15 0 15 -5 18 -25 14 -15 -2 -25 0 -25 7 0 6 -4 11 -10 11 -16 0 1 -29 21
-35 27 -9 24 -48 -5 -61 -18 -9 -28 -9 -37 0 -9 8 -10 8 -5 -1 4 -7 4 -13 0
-13 -13 0 -44 33 -44 47 0 7 -4 13 -9 13 -17 0 -23 -20 -11 -36 11 -12 9 -12
-16 1 -39 20 -44 19 -44 -10 0 -14 -4 -25 -10 -25 -5 0 -10 11 -10 24 0 16 -7
27 -20 31 -11 3 -20 15 -20 26 0 10 -4 19 -9 19 -5 0 -8 -8 -7 -17 0 -10 -6
-18 -14 -18 -11 0 -14 -9 -12 -34 3 -29 2 -31 -11 -20 -8 8 -13 16 -12 19 2 3
-8 7 -23 8 -14 1 -29 -3 -33 -9 -4 -7 -9 -4 -14 10 -5 16 -12 20 -31 15 -21
-5 -24 -3 -24 22 0 16 -4 24 -8 19 -4 -6 -19 -16 -34 -22 -25 -11 -28 -10 -28
5 0 9 -7 25 -14 35 -14 18 -14 18 -19 0 -4 -17 -5 -17 -12 2 -16 37 -27 43
-47 23 -23 -23 -42 -15 -28 12 8 15 7 17 -11 13 -17 -5 -19 -2 -13 21 4 16 2
26 -5 26 -6 0 -11 -5 -11 -11 0 -5 -5 -7 -12 -3 -9 6 -9 9 0 12 7 2 12 15 12
28 0 22 -2 23 -20 12 -23 -15 -25 -42 -6 -80 12 -23 12 -27 -2 -33 -9 -3 -18
-1 -20 4 -2 6 -8 11 -12 11 -14 0 -80 47 -106 75 -32 34 -41 88 -20 120 10 15
12 26 6 30 -16 10 -32 -6 -27 -25 3 -13 0 -17 -9 -13 -16 6 -16 9 -4 38 5 14
2 26 -9 39 -9 11 -11 16 -4 13 6 -4 14 -3 18 3 3 5 -1 10 -9 10 -10 0 -13 6
-10 15 4 8 2 15 -4 15 -6 0 -12 -6 -15 -12 -2 -7 -7 10 -11 39 -4 30 -13 56
-21 61 -9 4 -24 24 -34 43 -11 18 -23 33 -28 32 -6 -1 -9 20 -9 47 1 43 -1 49
-18 46 -11 -1 -22 -9 -24 -16 -3 -9 1 -11 12 -7 22 9 11 -11 -20 -35 -25 -20
-37 -55 -20 -62 6 -2 -2 -3 -18 -2 -21 2 -32 11 -41 33 -18 43 -36 165 -26
177 5 6 5 20 1 31 -4 11 -3 28 2 39 6 11 7 41 2 75 -11 82 -12 131 -2 137 11
7 -2 105 -17 124 -17 21 -35 112 -36 178 0 31 -4 66 -8 76 -4 11 -4 39 -1 62
4 24 3 45 -1 46 -24 9 -28 259 -5 296 4 7 3 12 -2 12 -13 0 0 53 26 110 21 46
39 99 48 141 15 74 27 137 29 159 1 14 3 30 3 36 3 16 50 65 92 94 19 13 37
27 40 30 5 6 56 28 128 54 39 15 105 27 225 41 23 3 62 9 87 13 93 16 289 6
425 -21z m-2413 -237 c6 -37 -7 -27 -16 13 -4 17 -3 26 2 23 6 -3 12 -19 14
-36z m3083 0 c3 -5 1 -10 -4 -10 -6 0 -11 5 -11 10 0 6 2 10 4 10 3 0 8 -4 11
-10z m-2995 -107 c0 -19 -13 -9 -16 12 -1 8 2 13 7 9 5 -3 9 -12 9 -21z m7
-32 c8 8 13 7 18 -3 5 -7 5 -10 0 -6 -4 4 -14 3 -21 -3 -9 -7 -17 -4 -28 13
-9 12 -16 27 -16 33 0 5 8 -2 18 -17 13 -20 21 -25 29 -17z m4723 -11 c0 -13
-20 -13 -40 0 -12 8 -9 10 13 10 15 0 27 -4 27 -10z m-4661 -54 c-3 -3 -11 5
-18 17 -13 21 -12 21 5 5 10 -10 16 -20 13 -22z m94 -76 c5 0 6 -7 3 -15 -6
-18 30 -36 53 -27 10 4 13 1 8 -11 -5 -14 -2 -16 19 -13 21 4 24 3 14 -10 -10
-11 -10 -14 0 -14 8 0 11 -2 8 -5 -6 -6 -68 24 -86 42 -7 7 -18 13 -23 13 -5
0 -9 7 -9 16 0 10 -6 14 -14 11 -16 -6 -38 15 -34 31 2 5 -1 10 -7 10 -5 0 -9
-4 -7 -10 1 -5 -2 -7 -8 -3 -8 5 -7 12 2 23 11 14 10 15 -6 9 -16 -6 -17 -5
-7 7 11 13 18 10 48 -19 20 -19 40 -35 46 -35z m2907 16 c0 -2 -11 -6 -25 -8
-13 -3 -22 -1 -19 3 5 9 44 13 44 5z m-40 -76 c0 -5 -4 -10 -10 -10 -5 0 -10
5 -10 10 0 6 5 10 10 10 6 0 10 -4 10 -10z m-86 -47 c12 -57 30 -68 109 -67
40 1 90 5 112 8 29 5 36 4 25 -3 -8 -6 -25 -11 -37 -11 -13 0 -23 -4 -23 -9 0
-5 -13 -8 -30 -6 -17 2 -30 -1 -30 -7 0 -7 -22 -9 -67 -5 -53 4 -63 3 -45 -5
12 -6 22 -15 22 -20 0 -4 9 -8 20 -8 11 0 20 -4 20 -9 0 -5 12 -9 28 -9 48 1
62 -2 62 -12 0 -6 -13 -8 -29 -5 -23 4 -28 1 -27 -13 1 -12 -5 -16 -19 -14
-11 2 -28 3 -37 3 -10 0 -20 4 -23 9 -3 5 -26 12 -50 16 -25 3 -45 10 -45 15
0 5 6 9 13 9 6 0 4 5 -6 11 -9 6 -26 7 -37 4 -12 -4 -20 -2 -20 6 0 9 -4 8
-15 -1 -12 -10 -10 -16 20 -36 20 -13 48 -27 63 -31 15 -3 33 -12 40 -20 7 -7
22 -13 32 -13 10 0 20 -4 22 -10 2 -5 39 -15 83 -21 44 -6 91 -13 105 -16 l25
-5 -23 -9 c-13 -5 -20 -13 -17 -19 4 -6 11 -7 17 -4 6 4 30 8 52 9 23 1 56 2
74 3 18 1 31 6 27 11 -3 5 -27 8 -53 6 -26 -1 -39 -1 -29 2 9 2 15 8 12 12 -2
5 7 6 20 3 19 -3 25 0 25 13 0 15 2 15 16 4 14 -11 18 -10 30 6 10 14 14 15
15 4 0 -8 4 -4 9 7 7 17 15 20 37 16 15 -2 35 -11 44 -19 9 -7 24 -11 33 -7
12 4 16 1 16 -15 0 -12 -3 -21 -8 -21 -13 0 -30 -89 -18 -94 6 -2 0 -5 -13 -5
-18 -1 -22 -5 -18 -22 4 -16 3 -18 -9 -8 -7 6 -11 15 -8 20 3 5 0 9 -5 9 -6 0
-11 -18 -11 -41 0 -22 -4 -48 -9 -58 -6 -10 -6 -23 -1 -32 8 -11 13 -12 29 -2
24 15 31 7 24 -30 -4 -18 -12 -27 -24 -27 -13 0 -16 -5 -12 -16 4 -11 13 -14
32 -9 23 5 22 3 -9 -17 -19 -12 -37 -23 -40 -25 -2 -2 2 -8 10 -13 12 -8 12
-10 1 -10 -8 0 -20 -8 -28 -17 -7 -10 -13 -13 -12 -8 3 26 -2 55 -10 55 -5 0
-7 -9 -4 -20 3 -11 1 -20 -5 -20 -6 0 -8 -9 -5 -20 3 -11 12 -20 20 -20 11 0
10 -6 -6 -28 -15 -22 -17 -32 -9 -40 9 -9 8 -12 -5 -12 -11 0 -17 8 -17 25 0
33 -28 23 -32 -12 -2 -18 -14 -32 -38 -44 -27 -15 -30 -19 -15 -20 11 -1 23
-1 28 0 13 2 7 -11 -10 -25 -24 -18 -33 -17 -33 4 -1 16 -1 16 -14 0 -7 -10
-16 -15 -19 -11 -4 3 -7 -3 -7 -15 0 -16 -4 -20 -17 -15 -12 5 -15 2 -10 -9 9
-24 -4 -30 -20 -10 -8 9 -12 12 -9 6 3 -7 -1 -29 -8 -50 -8 -22 -15 -33 -15
-26 -1 20 -21 13 -21 -8 0 -11 -7 -20 -16 -20 -8 0 -13 4 -9 9 8 15 -15 25
-28 12 -8 -8 -8 -11 1 -11 7 0 12 -4 12 -9 0 -5 -11 -4 -25 2 -13 7 -20 14
-15 15 6 2 10 8 10 14 0 6 -6 8 -14 5 -8 -3 -16 -1 -18 4 -2 6 -15 4 -32 -5
-26 -13 -30 -13 -47 3 -22 20 -19 43 11 94 28 47 22 95 -22 187 -46 96 -78
181 -72 192 3 5 9 22 14 38 6 20 5 27 -3 24 -7 -2 -12 6 -12 21 0 16 5 24 14
22 23 -3 24 21 2 33 -12 6 -21 19 -21 29 0 37 -52 175 -70 186 -6 3 -10 22
-10 40 0 29 4 36 26 41 14 4 41 4 60 1 18 -3 34 -2 34 3 0 12 -28 20 -45 14
-8 -4 -15 -3 -15 1 0 8 27 35 35 35 4 0 18 9 32 20 36 28 59 26 67 -7z m-2234
-214 c-10 -35 -17 -45 -25 -37 -7 7 15 68 25 68 5 0 5 -14 0 -31z m3685 1 c3
-5 1 -10 -4 -10 -6 0 -11 5 -11 10 0 6 2 10 4 10 3 0 8 -4 11 -10z m-3682 -66
c-3 -8 -11 -13 -19 -10 -7 3 -15 -3 -17 -12 -4 -13 -5 -11 -6 5 -1 19 9 27 41
32 4 0 5 -6 1 -15z m-63 -99 c0 -8 -4 -15 -10 -15 -5 0 -10 7 -10 15 0 8 5 15
10 15 6 0 10 -7 10 -15z m-40 -34 c0 -6 -4 -13 -10 -16 -5 -3 -10 1 -10 9 0 9
5 16 10 16 6 0 10 -4 10 -9z m18 -40 c-11 -17 -11 -25 1 -42 10 -18 10 -23 0
-30 -7 -4 -17 -5 -21 -3 -4 3 -8 0 -8 -7 0 -6 8 -9 20 -6 24 6 37 -8 15 -17
-21 -8 -21 -106 -1 -106 10 0 14 -12 14 -37 0 -21 3 -53 7 -70 5 -22 3 -33 -4
-33 -6 0 -11 7 -11 15 0 8 -4 15 -9 15 -33 0 -61 206 -34 258 7 13 13 35 13
47 0 35 11 58 22 47 6 -6 5 -17 -4 -31z m-81 -23 c-3 -8 -6 -5 -6 6 -1 11 2
17 5 13 3 -3 4 -12 1 -19z m48 -7 c3 -5 1 -12 -5 -16 -5 -3 -10 1 -10 9 0 18
6 21 15 7z m3632 -23 c-3 -8 -6 -5 -6 6 -1 11 2 17 5 13 3 -3 4 -12 1 -19z
m-3677 -34 c0 -21 -4 -33 -10 -29 -5 3 -10 19 -10 36 0 16 5 29 10 29 6 0 10
-16 10 -36z m3833 -18 c9 -7 17 -18 17 -25 0 -6 9 -16 20 -23 19 -12 28 -38
13 -38 -16 1 -59 46 -71 73 -13 30 -7 34 21 13z m-144 -79 c0 -33 -2 -38 -9
-22 -12 28 -12 78 0 70 6 -3 10 -25 9 -48z m-2949 -173 c0 -8 -5 -12 -10 -9
-6 4 -8 11 -5 16 9 14 15 11 15 -7z m-569 -71 c12 -32 12 -33 -5 -33 -14 0
-46 41 -46 59 0 19 42 -2 51 -26z m1808 -79 c12 -19 21 -41 21 -48 0 -8 7 -19
16 -26 10 -9 14 -26 12 -49 -3 -38 -5 -40 -102 -81 -31 -13 -56 -27 -56 -32 0
-4 -4 -8 -10 -8 -5 0 -6 7 -3 17 4 11 3 14 -5 9 -7 -4 -12 -2 -12 3 0 6 7 11
15 11 20 0 19 17 -2 29 -25 13 -3 62 25 54 25 -6 46 27 62 100 7 31 14 57 16
57 1 0 11 -16 23 -36z m1671 -22 c0 -13 -12 -22 -22 -16 -10 6 -1 24 13 24 5
0 9 -4 9 -8z m-90 -55 c0 -7 -9 -18 -21 -25 -21 -13 -21 -13 -3 12 22 29 24
31 24 13z m-1770 -65 c0 -15 -2 -15 -10 -2 -13 20 -13 33 0 25 6 -3 10 -14 10
-23z m1258 0 c2 -12 -2 -48 -8 -79 -12 -54 -13 -56 -25 -33 -11 20 -10 28 3
48 12 19 13 25 2 32 -8 5 -10 17 -6 35 8 31 29 29 34 -3z m-1488 -2 c0 -5 -4
-10 -10 -10 -5 0 -10 5 -10 10 0 6 5 10 10 10 6 0 10 -4 10 -10z m500 0 c0 -5
-4 -10 -10 -10 -5 0 -10 5 -10 10 0 6 5 10 10 10 6 0 10 -4 10 -10z m1327 -86
c2 -7 -6 -10 -19 -9 -30 3 -30 3 -23 16 8 13 37 8 42 -7z m112 -93 c24 -19 38
-37 32 -39 -17 -6 -123 66 -116 78 8 13 34 1 84 -39z m-116 16 c12 -12 34 -29
50 -36 25 -13 37 -31 20 -31 -14 0 -113 60 -113 69 0 8 10 21 17 21 2 0 14
-10 26 -23z m-2506 -12 c-4 -8 -2 -17 3 -20 13 -8 13 -35 0 -35 -14 0 -32 39
-26 56 3 8 10 14 17 14 6 0 9 -7 6 -15z m1605 -110 l3 -57 -44 -15 c-31 -10
-46 -12 -54 -4 -20 20 -35 12 -43 -21 l-7 -33 -8 29 c-10 35 -4 46 23 46 16 0
18 3 10 13 -13 15 -5 57 11 57 6 0 19 7 29 17 25 22 23 -2 -2 -27 l-20 -20 26
0 c20 0 24 4 19 19 -3 10 0 25 8 32 7 8 17 23 21 34 6 18 8 18 16 4 5 -9 11
-42 12 -74z m512 10 c-4 -18 -9 -23 -14 -14 -5 7 -3 20 3 30 15 24 20 18 11
-16z m-2124 9 c0 -17 -22 -14 -28 4 -2 7 3 12 12 12 9 0 16 -7 16 -16z m60
-11 c0 -10 -5 -25 -10 -33 -7 -11 -10 -7 -10 18 0 17 5 32 10 32 6 0 10 -8 10
-17z m-550 -27 c0 -3 -4 -8 -10 -11 -5 -3 -10 -1 -10 4 0 6 5 11 10 11 6 0 10
-2 10 -4z m1663 -51 c-3 -17 -75 -27 -84 -13 -7 11 -12 11 -29 0 -16 -10 -20
-10 -20 1 0 7 12 18 28 23 32 11 108 3 105 -11z m1082 15 c3 -5 1 -10 -4 -10
-6 0 -11 5 -11 10 0 6 2 10 4 10 3 0 8 -4 11 -10z m76 -26 c12 -16 10 -16 -18
1 -18 11 -33 23 -33 28 0 11 34 -8 51 -29z m-2786 16 c7 -12 -20 -42 -29 -33
-3 4 -6 15 -6 25 0 19 25 25 35 8z m-220 -116 c-14 -14 -22 -15 -60 -4 -43 12
-44 12 -25 33 15 16 22 18 33 8 11 -9 17 -8 26 3 10 12 9 13 -8 9 -12 -3 -21
-1 -21 4 0 12 30 39 50 45 22 7 27 -77 5 -98z m145 96 c0 -5 -4 -10 -10 -10
-5 0 -10 5 -10 10 0 6 5 10 10 10 6 0 10 -4 10 -10z m-100 -25 c0 -14 -4 -25
-10 -25 -11 0 -14 33 -3 43 11 11 13 8 13 -18z m3055 -35 c3 -5 2 -10 -4 -10
-5 0 -13 5 -16 10 -3 6 -2 10 4 10 5 0 13 -4 16 -10z m170 -18 c-7 -8 -35 7
-35 18 0 6 7 6 20 -2 10 -7 17 -14 15 -16z m-1735 -2 c0 -5 -5 -10 -11 -10 -5
0 -7 5 -4 10 3 6 8 10 11 10 2 0 4 -4 4 -10z m610 -15 c0 -8 4 -15 9 -15 12 0
20 -49 9 -56 -5 -3 -7 -11 -5 -17 5 -15 -30 -47 -51 -47 -10 0 -12 5 -7 18 19
44 18 62 -4 62 -19 0 -20 2 -9 20 7 11 21 23 31 26 9 3 15 10 12 15 -4 5 -1 9
4 9 6 0 11 -7 11 -15z m997 -31 c22 -24 43 -31 43 -16 0 4 -5 13 -12 20 -9 9
-7 12 11 12 30 0 67 -30 63 -51 -2 -13 -13 -15 -53 -11 -40 4 -52 1 -63 -13
-13 -18 -15 -17 -57 4 -24 13 -52 30 -61 38 -17 15 -17 17 1 32 28 24 99 15
128 -15z m-1057 -63 c-4 -8 -4 -25 1 -39 6 -15 5 -21 -1 -17 -6 3 -10 -3 -10
-14 0 -11 5 -23 10 -26 17 -11 1 -23 -21 -18 -16 4 -20 2 -17 -8 5 -15 -19
-45 -29 -35 -3 3 0 13 8 23 12 15 12 16 -3 10 -11 -4 -22 1 -32 14 -14 20 -14
20 -22 -13 l-7 -33 -9 28 c-7 19 -6 32 2 42 6 8 8 20 4 26 -5 8 -2 10 8 6 11
-4 18 1 21 14 3 10 1 19 -4 19 -5 0 -9 8 -8 18 0 10 3 12 6 5 3 -9 10 -10 23
-3 11 6 25 9 32 8 7 -2 14 4 14 12 1 8 2 18 3 22 0 4 10 0 20 -9 14 -11 17
-21 11 -32z m748 9 c6 0 16 -9 22 -20 6 -11 16 -20 23 -20 7 -1 25 -11 40 -24
l28 -23 -33 5 c-33 5 -44 13 -65 47 -6 11 -17 19 -24 17 -14 -3 -29 16 -29 38
1 12 3 12 14 -2 7 -10 18 -18 24 -18z m-1208 -10 c0 -14 5 -31 12 -38 13 -13
0 -16 -18 -4 -17 11 -23 69 -7 69 7 0 13 -12 13 -27z m-1532 -5 c13 -4 22 -11
20 -17 -4 -11 -4 -11 -45 4 -34 13 -47 33 -15 24 9 -2 27 -7 40 -11z m1699
-37 c-3 -8 -6 -5 -6 6 -1 11 2 17 5 13 3 -3 4 -12 1 -19z m953 -32 c0 -6 -7
-1 -15 10 -8 10 -15 23 -15 28 0 6 7 1 15 -10 8 -10 15 -23 15 -28z m54 21 c4
4 4 -1 0 -12 -6 -15 -4 -17 9 -12 11 4 17 1 17 -6 0 -31 137 -117 186 -117 8
0 14 -4 14 -10 0 -15 -23 -12 -71 10 -24 11 -52 20 -62 20 -28 0 -77 41 -103
86 -27 46 -31 62 -11 45 8 -6 17 -8 21 -4z m-120 -3 c9 -3 16 -13 16 -21 0
-20 -34 -12 -38 10 -4 19 -1 20 22 11z m-1017 -36 c-3 -8 -6 -5 -6 6 -1 11 2
17 5 13 3 -3 4 -12 1 -19z m270 -72 c-8 -23 -23 -13 -25 16 -2 31 -1 32 13 13
9 -10 14 -24 12 -29z m-852 24 c3 -6 -1 -7 -9 -4 -18 7 -21 14 -7 14 6 0 13
-4 16 -10z m2000 -20 c8 -13 -15 -13 -35 0 -12 8 -11 10 7 10 12 0 25 -4 28
-10z m-1260 -20 c-2 -31 -15 -37 -15 -7 0 15 4 27 8 27 5 0 8 -9 7 -20z
m-1255 -20 c0 -10 -31 -23 -38 -15 -8 7 19 35 29 29 5 -3 9 -9 9 -14z m2487
14 c-3 -3 -12 -4 -19 -1 -8 3 -5 6 6 6 11 1 17 -2 13 -5z m126 -1 c-7 -2 -19
-2 -25 0 -7 3 -2 5 12 5 14 0 19 -2 13 -5z m-306 -195 c-3 -8 -6 -5 -6 6 -1
11 2 17 5 13 3 -3 4 -12 1 -19z m-147 -78 c0 -5 -4 -10 -10 -10 -5 0 -10 5
-10 10 0 6 5 10 10 10 6 0 10 -4 10 -10z m-10 -86 c0 -8 -5 -12 -10 -9 -6 4
-8 11 -5 16 9 14 15 11 15 -7z m-10 -84 c0 -5 -5 -10 -11 -10 -5 0 -7 5 -4 10
3 6 8 10 11 10 2 0 4 -4 4 -10z m-1136 -506 c9 -23 8 -24 -19 -24 -14 0 -25 5
-25 10 0 6 7 10 16 10 8 0 12 5 9 10 -3 6 -2 10 3 10 6 0 13 -7 16 -16z m66 6
c0 -5 -5 -10 -11 -10 -5 0 -7 5 -4 10 3 6 8 10 11 10 2 0 4 -4 4 -10z m29 -23
c-9 -7 -14 -18 -12 -24 6 -18 -14 -16 -20 1 -7 17 11 36 33 36 13 -1 13 -2 -1
-13z m-35 -34 c4 -9 1 -21 -5 -27 -8 -8 -13 -8 -16 1 -2 7 -11 9 -19 6 -7 -3
-11 -9 -8 -14 3 -5 -2 -9 -11 -9 -16 0 -32 26 -22 36 3 4 17 7 31 8 14 0 26 4
26 9 0 14 18 7 24 -10z m169 -60 c-7 -2 -21 -2 -30 0 -10 3 -4 5 12 5 17 0 24
-2 18 -5z m-183 -83 c0 -5 -5 -10 -11 -10 -5 0 -7 5 -4 10 3 6 8 10 11 10 2 0
4 -4 4 -10z m-210 -4 c0 -2 -7 -6 -15 -10 -8 -3 -15 -1 -15 4 0 6 7 10 15 10
8 0 15 -2 15 -4z m-60 -10 c0 -3 -4 -8 -10 -11 -5 -3 -10 -1 -10 4 0 6 5 11
10 11 6 0 10 -2 10 -4z"/>
<path d="M7860 9380 c0 -5 5 -10 10 -10 6 0 10 5 10 10 0 6 -4 10 -10 10 -5 0
-10 -4 -10 -10z"/>
<path d="M7870 9350 c0 -5 5 -10 10 -10 6 0 10 5 10 10 0 6 -4 10 -10 10 -5 0
-10 -4 -10 -10z"/>
<path d="M6281 8066 c-8 -9 -37 -12 -110 -10 l-100 4 -35 -41 c-33 -39 -34
-42 -19 -65 9 -15 11 -24 4 -24 -6 0 -20 -9 -31 -20 -17 -17 -18 -23 -8 -40 7
-11 17 -19 23 -17 5 2 15 -3 22 -12 9 -11 12 -12 13 -3 0 9 5 10 19 3 10 -6
21 -8 24 -4 4 3 13 0 22 -7 8 -7 15 -8 15 -2 0 5 10 12 22 15 26 7 16 22 -15
22 -13 0 -23 7 -25 18 -2 10 3 17 12 17 9 0 16 5 16 11 0 12 43 1 48 -12 2 -5
13 -9 25 -8 l22 0 -22 15 c-12 9 -32 24 -44 35 -30 26 -1 26 32 0 34 -26 52
-30 68 -14 15 15 61 13 199 -9 70 -12 96 -25 50 -26 -57 -2 -167 -24 -210 -42
-26 -11 -57 -20 -70 -20 -13 0 -29 -9 -35 -19 -7 -11 -25 -21 -40 -23 -20 -2
-28 -9 -29 -23 -1 -11 -2 -24 -4 -30 -1 -5 -2 -14 -1 -18 1 -4 -6 -10 -14 -13
-33 -13 -12 -23 35 -17 34 4 50 2 50 -6 0 -6 6 -11 14 -11 8 0 17 -7 20 -16 5
-12 17 -15 51 -12 25 2 46 0 48 -5 1 -4 25 -9 52 -12 28 -2 65 -9 84 -14 19
-6 39 -7 45 -4 6 4 21 6 33 5 11 -2 24 2 28 7 3 6 22 11 41 11 36 0 42 8 22
29 -11 10 -10 11 5 6 9 -4 17 -15 18 -24 0 -11 3 -9 9 6 5 13 15 20 23 17 8
-3 18 6 25 21 9 19 17 25 31 20 24 -7 37 11 21 30 -16 19 -2 38 23 31 11 -3
37 4 58 15 23 11 39 15 39 9 0 -6 5 -8 10 -5 6 3 10 16 10 28 0 12 7 35 15 51
19 36 19 38 -2 34 -12 -2 -18 3 -17 15 1 9 -4 17 -12 17 -8 0 -14 4 -14 10 0
5 -10 9 -22 7 -12 -1 -23 3 -23 8 0 13 -42 55 -55 55 -14 0 -12 18 3 23 6 2
-1 4 -18 5 -42 0 -160 9 -160 12 0 3 -50 9 -90 9 -66 1 -93 -3 -107 -16 -16
-17 -45 -16 -55 1 -15 24 -50 37 -62 22z m-41 -106 c8 -5 12 -12 8 -15 -9 -9
-48 4 -48 16 0 12 21 11 40 -1z m257 -106 c-3 -3 -12 -4 -19 -1 -8 3 -5 6 6 6
11 1 17 -2 13 -5z m-27 -64 c0 -5 -5 -10 -11 -10 -5 0 -7 5 -4 10 3 6 8 10 11
10 2 0 4 -4 4 -10z m-91 -79 c27 -34 38 -40 86 -46 55 -6 75 -24 33 -27 -99
-6 -118 -3 -118 18 0 8 -10 14 -22 14 -13 0 -28 4 -34 8 -19 12 -6 72 16 72 4
0 22 -17 39 -39z m265 14 c8 -9 13 -21 10 -28 -6 -15 -63 -39 -76 -31 -5 3
-15 1 -23 -6 -8 -7 -15 -7 -19 -1 -3 5 7 12 24 16 19 4 30 13 30 24 0 17 18
41 31 41 4 0 14 -7 23 -15z"/>
<path d="M7435 8070 c3 -5 8 -10 11 -10 2 0 4 5 4 10 0 6 -5 10 -11 10 -5 0
-7 -4 -4 -10z"/>
<path d="M6100 7790 c0 -5 5 -10 10 -10 6 0 10 5 10 10 0 6 -4 10 -10 10 -5 0
-10 -4 -10 -10z"/>
<path d="M6750 7681 c0 -5 9 -7 20 -4 11 3 20 7 20 9 0 2 -9 4 -20 4 -11 0
-20 -4 -20 -9z"/>
<path d="M5790 7671 c0 -6 4 -13 10 -16 6 -3 7 1 4 9 -7 18 -14 21 -14 7z"/>
<path d="M6660 7614 c-31 -15 -83 -36 -90 -36 -3 0 -8 -5 -13 -13 -4 -7 -21
-16 -37 -20 -40 -9 -38 -25 3 -25 50 0 140 34 170 64 15 15 27 28 27 30 0 11
-39 11 -60 0z"/>
<path d="M5850 6960 c0 -5 5 -10 10 -10 6 0 10 5 10 10 0 6 -4 10 -10 10 -5 0
-10 -4 -10 -10z"/>
<path d="M5880 6904 c0 -9 -8 -23 -17 -30 -16 -12 -15 -13 10 -14 22 0 27 4
27 24 0 14 -4 28 -10 31 -5 3 -10 -1 -10 -11z"/>
<path d="M5920 6884 c0 -8 5 -12 10 -9 6 3 10 10 10 16 0 5 -4 9 -10 9 -5 0
-10 -7 -10 -16z"/>
<path d="M6430 6871 c0 -10 -29 -17 -114 -26 -56 -6 -67 -12 -46 -25 12 -8 11
-10 -6 -10 -12 0 -24 -7 -28 -15 -3 -8 -14 -15 -25 -15 -10 0 -21 -8 -25 -17
-3 -10 -9 -24 -12 -30 -10 -22 24 -14 51 12 15 13 43 29 63 36 61 20 162 69
162 79 0 5 -4 12 -10 15 -5 3 -10 2 -10 -4z"/>
<path d="M5880 6841 c0 -6 9 -11 20 -11 11 0 20 -5 20 -11 0 -5 -4 -7 -10 -4
-5 3 -12 -6 -16 -20 -3 -14 -13 -25 -21 -25 -8 0 -11 -4 -8 -10 3 -5 17 -10
31 -10 21 0 24 3 19 21 -5 14 -2 25 6 30 11 6 11 13 3 26 -13 20 -44 30 -44
14z"/>
<path d="M5967 6835 c-4 -8 -2 -17 3 -20 6 -4 10 -4 10 -1 0 2 3 11 6 20 3 9
2 16 -4 16 -5 0 -12 -7 -15 -15z"/>
<path d="M6016 6831 c-5 -7 -3 -18 3 -24 14 -14 20 -6 11 17 -5 15 -9 16 -14
7z"/>
<path d="M6000 6779 c0 -5 5 -7 10 -4 6 3 10 8 10 11 0 2 -4 4 -10 4 -5 0 -10
-5 -10 -11z"/>
<path d="M5935 6711 c-3 -5 -1 -12 5 -16 5 -3 10 1 10 9 0 18 -6 21 -15 7z"/>
<path d="M6230 6590 c0 -5 5 -10 11 -10 5 0 7 5 4 10 -3 6 -8 10 -11 10 -2 0
-4 -4 -4 -10z"/>
<path d="M6121 6393 c-1 -17 4 -35 9 -38 11 -7 11 9 0 45 -8 24 -8 24 -9 -7z"/>
<path d="M6815 5870 c-3 -5 -1 -10 4 -10 6 0 11 5 11 10 0 6 -2 10 -4 10 -3 0
-8 -4 -11 -10z"/>
<path d="M7655 7421 c-3 -6 4 -9 15 -8 11 1 20 5 20 9 0 11 -28 10 -35 -1z"/>
<path d="M7985 7190 c-16 -7 -17 -9 -3 -9 9 -1 20 4 23 9 7 11 7 11 -20 0z"/>
<path d="M7582 6782 c4 -19 29 -23 35 -6 2 6 -6 14 -17 17 -16 4 -20 1 -18
-11z"/>
<path d="M7400 6110 c0 -13 11 -13 30 0 12 8 11 10 -7 10 -13 0 -23 -4 -23
-10z"/>
<path d="M7529 9595 c-4 -47 -4 -67 2 -71 10 -6 17 54 7 68 -4 7 -8 9 -9 3z"/>
<path d="M8264 9585 c2 -5 10 -8 17 -7 8 2 24 5 37 6 43 5 34 16 -12 14 -27
-2 -45 -7 -42 -13z"/>
<path d="M8359 9590 c-1 -5 -2 -16 -3 -22 -1 -7 -8 -19 -16 -26 -13 -12 -13
-13 2 -8 10 3 20 1 23 -5 4 -5 11 -7 16 -3 6 4 6 11 -1 19 -8 10 -9 19 -1 32
9 16 10 16 11 -5 0 -15 5 -22 13 -19 6 2 11 11 9 21 -4 25 7 19 18 -9 5 -14
16 -25 24 -25 8 0 21 -3 30 -6 9 -3 16 -1 16 5 0 6 -7 11 -15 11 -9 0 -15 9
-15 25 0 24 -3 25 -55 25 -30 0 -56 -4 -56 -10z"/>
<path d="M7295 9570 c-3 -5 1 -10 10 -10 9 0 13 5 10 10 -3 6 -8 10 -10 10 -2
0 -7 -4 -10 -10z"/>
<path d="M7660 9572 c0 -5 7 -9 15 -9 8 0 15 4 15 9 0 4 -7 8 -15 8 -8 0 -15
-4 -15 -8z"/>
<path d="M7700 9525 c0 -10 11 -15 35 -15 19 0 35 5 35 11 0 6 -9 9 -20 6 -11
-3 -18 -1 -14 4 3 5 -4 9 -15 9 -12 0 -21 -7 -21 -15z"/>
<path d="M8120 9400 c0 -5 5 -10 10 -10 6 0 10 5 10 10 0 6 -4 10 -10 10 -5 0
-10 -4 -10 -10z"/>
<path d="M8280 9400 c0 -5 5 -10 11 -10 5 0 7 5 4 10 -3 6 -8 10 -11 10 -2 0
-4 -4 -4 -10z"/>
<path d="M8336 9365 c-3 -8 -1 -15 4 -15 6 0 10 7 10 15 0 8 -2 15 -4 15 -2 0
-6 -7 -10 -15z"/>
<path d="M8460 9351 c0 -6 5 -13 10 -16 6 -3 10 1 10 9 0 9 -4 16 -10 16 -5 0
-10 -4 -10 -9z"/>
<path d="M8092 9341 c2 -7 7 -12 11 -12 12 1 9 15 -3 20 -7 2 -11 -2 -8 -8z"/>
<path d="M8253 9342 c-28 -4 -30 -18 -4 -31 14 -8 22 -7 29 2 15 18 1 33 -25
29z"/>
<path d="M8420 9335 c0 -8 5 -15 10 -15 6 0 10 7 10 15 0 8 -4 15 -10 15 -5 0
-10 -7 -10 -15z"/>
<path d="M6560 9310 c0 -6 19 -7 48 -3 64 8 66 13 4 13 -29 0 -52 -4 -52 -10z"/>
<path d="M6280 9293 c-109 -9 -215 -35 -303 -77 -51 -24 -102 -47 -114 -50
-41 -13 -24 -23 50 -29 39 -4 101 -10 136 -13 53 -6 65 -4 73 9 5 10 14 17 21
17 15 0 51 59 52 85 0 11 5 20 10 21 6 0 23 6 38 12 16 7 45 12 65 13 20 0 55
4 77 8 l40 9 -50 -1 c-27 0 -70 -2 -95 -4z"/>
<path d="M8075 9290 c-3 -5 -1 -10 4 -10 6 0 11 5 11 10 0 6 -2 10 -4 10 -3 0
-8 -4 -11 -10z"/>
<path d="M8440 9252 c0 -28 4 -54 10 -57 6 -4 8 14 6 45 -5 68 -16 77 -16 12z"/>
<path d="M8260 9270 c0 -5 5 -10 10 -10 6 0 10 5 10 10 0 6 -4 10 -10 10 -5 0
-10 -4 -10 -10z"/>
<path d="M7388 9213 c7 -3 16 -2 19 1 4 3 -2 6 -13 5 -11 0 -14 -3 -6 -6z"/>
<path d="M5425 9100 c3 -5 10 -10 16 -10 5 0 9 5 9 10 0 6 -7 10 -16 10 -8 0
-12 -4 -9 -10z"/>
<path d="M8436 9072 c-3 -6 -1 -14 5 -17 15 -10 25 3 12 16 -7 7 -13 7 -17 1z"/>
<path d="M5730 9000 c0 -5 4 -10 9 -10 6 0 13 5 16 10 3 6 -1 10 -9 10 -9 0
-16 -4 -16 -10z"/>
<path d="M5818 8993 c7 -3 16 -2 19 1 4 3 -2 6 -13 5 -11 0 -14 -3 -6 -6z"/>
<path d="M6580 8910 c0 -5 5 -10 11 -10 5 0 7 5 4 10 -3 6 -8 10 -11 10 -2 0
-4 -4 -4 -10z"/>
<path d="M6968 8913 c7 -3 16 -2 19 1 4 3 -2 6 -13 5 -11 0 -14 -3 -6 -6z"/>
<path d="M6711 8894 c0 -11 3 -14 6 -6 3 7 2 16 -1 19 -3 4 -6 -2 -5 -13z"/>
<path d="M6665 8890 c3 -5 11 -10 16 -10 6 0 7 5 4 10 -3 6 -11 10 -16 10 -6
0 -7 -4 -4 -10z"/>
<path d="M6770 8880 c0 -5 5 -10 11 -10 5 0 7 5 4 10 -3 6 -8 10 -11 10 -2 0
-4 -4 -4 -10z"/>
<path d="M6930 8863 c0 -13 5 -23 10 -23 13 0 13 11 0 30 -8 12 -10 11 -10 -7z"/>
<path d="M6901 8854 c0 -11 3 -14 6 -6 3 7 2 16 -1 19 -3 4 -6 -2 -5 -13z"/>
<path d="M6808 8853 c6 -2 18 -2 25 0 6 3 1 5 -13 5 -14 0 -19 -2 -12 -5z"/>
<path d="M6858 8853 c7 -3 16 -2 19 1 4 3 -2 6 -13 5 -11 0 -14 -3 -6 -6z"/>
<path d="M7258 8803 c7 -3 16 -2 19 1 4 3 -2 6 -13 5 -11 0 -14 -3 -6 -6z"/>
<path d="M7540 8780 c-12 -8 -10 -10 8 -10 13 0 20 4 17 10 -7 12 -6 12 -25 0z"/>
<path d="M5095 7500 c-4 -12 -5 -24 -2 -27 3 -2 8 5 12 17 4 12 5 24 2 27 -3
2 -8 -5 -12 -17z"/>
<path d="M5063 7395 c-3 -9 -3 -18 -1 -21 3 -3 8 4 11 16 6 23 -1 27 -10 5z"/>
<path d="M5050 7340 c0 -11 2 -20 4 -20 2 0 6 9 9 20 3 11 1 20 -4 20 -5 0 -9
-9 -9 -20z"/>
<path d="M5041 7294 c0 -11 3 -14 6 -6 3 7 2 16 -1 19 -3 4 -6 -2 -5 -13z"/>
<path d="M8952 7275 c0 -5 6 -26 13 -45 7 -19 14 -28 14 -20 0 8 -6 29 -14 45
-7 17 -13 26 -13 20z"/>
<path d="M9020 7076 c0 -2 8 -10 18 -17 15 -13 16 -12 3 4 -13 16 -21 21 -21
13z"/>
<path d="M8912 7030 c0 -19 2 -27 5 -17 2 9 2 25 0 35 -3 9 -5 1 -5 -18z"/>
<path d="M5111 6980 c14 -31 19 -36 19 -24 0 6 -7 19 -16 30 -14 18 -14 18 -3
-6z"/>
<path d="M8848 6760 c-34 -33 -50 -70 -30 -70 8 1 77 99 71 103 -2 2 -21 -13
-41 -33z"/>
<path d="M8715 6650 c-3 -6 1 -7 9 -4 18 7 21 14 7 14 -6 0 -13 -4 -16 -10z"/>
<path d="M8697 6594 c-7 -8 11 -34 23 -34 11 0 5 33 -6 37 -6 2 -13 0 -17 -3z"/>
<path d="M8620 6280 c0 -5 5 -10 10 -10 6 0 10 5 10 10 0 6 -4 10 -10 10 -5 0
-10 -4 -10 -10z"/>
<path d="M5941 5824 c0 -11 3 -14 6 -6 3 7 2 16 -1 19 -3 4 -6 -2 -5 -13z"/>
<path d="M5650 5766 c0 -2 7 -7 16 -10 8 -3 12 -2 9 4 -6 10 -25 14 -25 6z"/>
<path d="M5801 5704 c0 -11 3 -14 6 -6 3 7 2 16 -1 19 -3 4 -6 -2 -5 -13z"/>
<path d="M8518 5618 c-4 -24 0 -31 19 -39 33 -12 29 -29 -7 -29 -34 0 -39 -19
-18 -65 14 -31 22 -31 54 -1 23 20 25 30 22 76 -3 48 -6 55 -34 71 l-32 17 -4
-30z"/>
<path d="M5812 5470 c0 -14 2 -19 5 -12 2 6 2 18 0 25 -3 6 -5 1 -5 -13z"/>
<path d="M5892 5180 c-7 -12 -9 -28 -3 -42 l8 -22 12 21 c21 41 6 80 -17 43z"/>
<path d="M5907 5096 c-7 -19 3 -56 15 -56 6 0 7 -11 4 -25 -4 -14 -2 -25 3
-25 5 0 16 -3 25 -6 22 -8 21 22 -1 35 -12 6 -17 22 -18 47 0 38 -18 57 -28
30z"/>
<path d="M6710 5050 c0 -5 5 -10 11 -10 5 0 7 5 4 10 -3 6 -8 10 -11 10 -2 0
-4 -4 -4 -10z"/>
<path d="M6730 5020 c0 -5 7 -10 15 -10 8 0 15 5 15 10 0 6 -7 10 -15 10 -8 0
-15 -4 -15 -10z"/>
<path d="M5947 4931 c-4 -17 -3 -21 5 -13 5 5 8 16 6 23 -3 8 -7 3 -11 -10z"/>
<path d="M6452 4938 c3 -7 15 -15 28 -16 21 -4 22 -2 7 12 -19 19 -40 21 -35
4z"/>
<path d="M5690 4824 c0 -12 7 -27 15 -34 19 -16 19 -3 0 30 -13 24 -14 24 -15
4z"/>
<path d="M6650 4820 c0 -5 7 -10 15 -10 8 0 15 5 15 10 0 6 -7 10 -15 10 -8 0
-15 -4 -15 -10z"/>
<path d="M5500 4741 c0 -5 9 -7 20 -4 11 3 20 7 20 9 0 2 -9 4 -20 4 -11 0
-20 -4 -20 -9z"/>
<path d="M7802 4636 c7 -8 15 -12 17 -11 5 6 -10 25 -20 25 -5 0 -4 -6 3 -14z"/>
<path d="M7785 4600 c-3 -5 -1 -10 4 -10 6 0 11 5 11 10 0 6 -2 10 -4 10 -3 0
-8 -4 -11 -10z"/>
<path d="M7710 4355 c-7 -9 -11 -17 -9 -20 3 -2 10 5 17 15 14 24 10 26 -8 5z"/>
<path d="M6620 4080 c14 -11 40 -19 60 -19 33 0 32 1 -20 19 -69 24 -71 24
-40 0z"/>
<path d="M7590 4080 c-8 -5 -12 -12 -9 -15 4 -3 12 1 19 10 14 17 11 19 -10 5z"/>
<path d="M6695 4020 c3 -5 12 -7 20 -3 21 7 19 13 -6 13 -11 0 -18 -4 -14 -10z"/>
<path d="M6270 3969 c0 -5 5 -7 10 -4 6 3 10 8 10 11 0 2 -4 4 -10 4 -5 0 -10
-5 -10 -11z"/>
<path d="M6565 3600 c-3 -5 -1 -10 4 -10 6 0 11 5 11 10 0 6 -2 10 -4 10 -3 0
-8 -4 -11 -10z"/>
<path d="M6645 3550 c-3 -5 -1 -10 4 -10 6 0 11 5 11 10 0 6 -2 10 -4 10 -3 0
-8 -4 -11 -10z"/>
<path d="M6735 3510 c-3 -5 -1 -10 4 -10 6 0 11 5 11 10 0 6 -2 10 -4 10 -3 0
-8 -4 -11 -10z"/>
<path d="M2890 3300 c0 -5 7 -10 16 -10 8 0 12 5 9 10 -3 6 -10 10 -16 10 -5
0 -9 -4 -9 -10z"/>
<path d="M2784 3282 c-40 -17 -114 -83 -114 -102 0 -15 20 -12 26 4 7 18 95
40 123 31 12 -3 21 -13 21 -21 0 -20 18 -18 27 4 11 21 10 73 0 90 -11 16 -33
15 -83 -6z m-6 -34 c-3 -7 -13 -15 -24 -17 -16 -3 -17 -1 -5 13 16 19 34 21
29 4z m77 -8 c3 -5 1 -10 -4 -10 -6 0 -11 5 -11 10 0 6 2 10 4 10 3 0 8 -4 11
-10z"/>
<path d="M2895 3270 c3 -5 11 -10 16 -10 6 0 7 5 4 10 -3 6 -11 10 -16 10 -6
0 -7 -4 -4 -10z"/>
<path d="M2984 3255 c3 -8 1 -15 -5 -15 -7 0 -9 -13 -4 -36 4 -24 3 -34 -4
-29 -6 3 -11 13 -11 21 0 8 -7 14 -15 14 -8 0 -15 5 -15 10 0 14 -19 12 -35
-4 -12 -11 -9 -18 16 -42 28 -27 43 -68 17 -47 -7 6 -31 16 -53 23 -22 7 -44
16 -49 21 -14 13 -47 11 -78 -5 -15 -8 -40 -17 -57 -21 -26 -5 -31 -3 -32 12
0 10 -11 -6 -25 -36 -26 -57 -32 -81 -10 -42 11 20 14 21 19 7 8 -21 -14 -58
-30 -51 -15 5 -28 -37 -19 -60 3 -8 3 -22 -1 -31 -5 -13 -7 -13 -14 -2 -5 8
-9 -7 -9 -39 0 -34 -5 -55 -14 -60 -13 -7 -56 -227 -55 -278 1 -11 -2 -45 -5
-75 -4 -38 -3 -49 3 -35 9 20 10 20 10 -1 1 -12 -6 -27 -14 -34 -11 -9 -15
-31 -14 -79 1 -36 4 -53 6 -38 3 21 9 27 20 23 12 -5 14 1 8 34 -6 38 6 56 19
28 4 -9 5 -8 5 2 -3 49 1 56 35 57 33 1 35 -1 42 -41 5 -22 9 -47 9 -55 0 -21
21 -25 29 -6 3 9 -1 23 -9 31 -19 20 -19 30 0 14 15 -13 25 3 41 66 3 13 16
31 27 39 20 14 22 12 44 -56 12 -39 20 -75 17 -80 -7 -13 18 -79 28 -73 4 3 5
22 1 42 -6 39 -7 64 -5 122 l2 35 25 -49 c14 -27 25 -66 25 -85 1 -26 10 -46
35 -75 l35 -39 0 66 c0 38 -4 67 -10 67 -5 0 -10 7 -10 15 0 8 5 15 11 15 5 0
7 5 4 10 -3 6 -1 10 4 10 6 0 11 -9 11 -20 0 -13 7 -20 20 -20 14 0 20 7 20
23 0 13 7 32 15 43 14 18 14 17 15 -13 0 -17 4 -34 9 -37 5 -3 12 -22 15 -41
4 -19 11 -35 16 -35 6 0 10 4 10 9 0 4 10 21 22 37 14 17 21 38 19 56 -4 45 8
71 31 65 17 -5 19 -2 14 19 -7 25 -6 25 19 8 l25 -16 0 35 c0 31 -6 40 -44 68
-35 24 -43 35 -36 48 5 9 18 37 29 64 12 27 26 47 35 47 9 0 16 7 16 15 0 8
-6 15 -14 15 -7 0 -19 7 -26 15 -7 8 -16 12 -21 9 -15 -9 -10 13 6 26 8 7 22
10 31 6 12 -4 14 -1 9 14 -4 11 -2 20 4 20 6 0 11 5 11 11 0 5 -4 8 -8 5 -12
-7 -58 32 -48 41 5 4 11 3 13 -4 6 -16 40 19 45 45 7 44 -50 97 -65 60 -3 -7
-6 2 -6 20 -1 20 3 31 9 27 15 -9 12 8 -5 31 -8 11 -15 14 -15 7 0 -28 -19
-11 -32 29 -15 44 -37 62 -39 31 0 -14 -2 -14 -6 -3 -3 8 -12 20 -20 27 -14
11 -13 14 2 29 13 14 14 19 3 25 -20 13 -31 11 -24 -6z m-172 -147 c-9 -9 -15
-9 -24 0 -9 9 -7 12 12 12 19 0 21 -3 12 -12z m-132 -18 c0 -5 -7 -10 -15 -10
-8 0 -15 5 -15 10 0 6 7 10 15 10 8 0 15 -4 15 -10z m370 -47 c0 -21 -34 -15
-48 8 -11 16 -11 24 -1 36 11 13 15 12 31 -9 9 -13 18 -29 18 -35z m30 42 c7
-9 9 -22 5 -32 -8 -17 -8 -17 -12 0 -3 9 -9 17 -14 17 -5 0 -9 7 -9 15 0 19
14 19 30 0z m-105 -53 c-3 -3 -11 0 -18 7 -9 10 -8 11 6 5 10 -3 15 -9 12 -12z
m-37 -20 c2 -7 -3 -12 -12 -12 -9 0 -16 7 -16 16 0 17 22 14 28 -4z m-53 -22
c3 -5 1 -10 -4 -10 -6 0 -11 5 -11 10 0 6 2 10 4 10 3 0 8 -4 11 -10z m212
-16 c-9 -9 -28 6 -21 18 4 6 10 6 17 -1 6 -6 8 -13 4 -17z m-232 -24 c3 -5 1
-10 -4 -10 -6 0 -11 5 -11 10 0 6 2 10 4 10 3 0 8 -4 11 -10z m221 -36 c2 -18
-2 -24 -12 -20 -7 3 -19 -1 -26 -8 -7 -7 -17 -14 -23 -17 -5 -2 -8 -15 -6 -28
1 -13 -3 -28 -11 -32 -10 -7 -9 -9 4 -9 9 0 18 -5 20 -11 3 -9 9 -9 26 0 19
10 20 15 10 36 -6 14 -8 28 -4 32 10 10 26 -17 26 -44 0 -12 5 -25 10 -28 6
-3 10 -15 10 -26 0 -10 -4 -19 -10 -19 -5 0 -10 -15 -10 -34 0 -44 -12 -51
-49 -31 -17 8 -40 15 -52 15 -18 0 -19 -3 -9 -15 14 -17 10 -50 -8 -51 -23 -3
-24 -4 -12 -19 16 -20 7 -29 -22 -22 -21 6 -23 11 -20 62 2 30 7 53 12 50 4
-3 13 2 20 9 9 12 7 17 -9 26 -27 14 -28 64 -2 87 11 9 18 20 15 25 -3 4 2 8
10 8 8 0 22 12 31 28 14 22 63 58 85 61 3 1 6 -11 6 -25z m-356 -269 c0 -8 -4
-15 -10 -15 -5 0 -7 7 -4 15 4 8 8 15 10 15 2 0 4 -7 4 -15z m-20 -45 c0 -5
-2 -10 -4 -10 -3 0 -8 5 -11 10 -3 6 -1 10 4 10 6 0 11 -4 11 -10z m313 -67
c10 -9 -68 -83 -87 -83 -20 0 -49 44 -44 67 3 16 5 15 23 -4 21 -22 65 -28 65
-8 0 12 20 35 30 35 4 0 10 -3 13 -7z m-369 -81 c-4 -9 -6 -23 -5 -29 1 -7 -3
-13 -9 -13 -14 0 -13 33 2 66 10 22 14 24 16 10 2 -9 0 -25 -4 -34z m-74 8 c0
-5 -5 -10 -11 -10 -5 0 -7 5 -4 10 3 6 8 10 11 10 2 0 4 -4 4 -10z"/>
<path d="M2953 2765 c0 -8 4 -15 9 -15 4 0 8 7 8 15 0 8 -4 15 -8 15 -5 0 -9
-7 -9 -15z"/>
<path d="M3171 2924 c0 -11 3 -14 6 -6 3 7 2 16 -1 19 -3 4 -6 -2 -5 -13z"/>
<path d="M4030 2876 c0 -2 7 -9 15 -16 13 -11 14 -10 9 4 -5 14 -24 23 -24 12z"/>
<path d="M4070 2830 c0 -5 5 -10 11 -10 5 0 7 -4 4 -10 -3 -5 0 -7 9 -4 9 3
20 -3 28 -15 7 -12 18 -21 24 -21 14 0 23 -20 17 -37 -3 -8 -12 -9 -29 -3 -15
6 -24 6 -24 0 0 -6 7 -10 16 -10 8 0 12 -5 9 -10 -4 -6 -14 -9 -22 -8 -9 2
-18 -3 -20 -9 -3 -8 6 -13 24 -14 17 -1 21 -3 11 -6 -21 -5 -24 -29 -5 -36 9
-4 8 -8 -3 -18 -25 -22 -48 -55 -31 -45 10 7 12 3 6 -15 -4 -13 -12 -29 -17
-36 -5 -7 -7 -21 -3 -33 5 -15 2 -20 -12 -20 -11 0 -14 -3 -7 -8 7 -4 14 -18
15 -32 3 -20 -1 -26 -18 -28 -13 -2 -23 -7 -23 -12 0 -5 7 -7 15 -3 13 4 15
-1 9 -38 -4 -24 -14 -49 -21 -54 -11 -8 -12 -17 -4 -38 11 -27 3 -35 -15 -17
-7 7 -10 -4 -9 -32 0 -24 -4 -51 -9 -60 -8 -13 -6 -21 8 -31 14 -11 16 -16 6
-22 -9 -6 -9 -9 0 -15 9 -6 9 -13 2 -26 -8 -14 -7 -23 4 -36 11 -11 12 -18 4
-23 -6 -3 -9 -3 -8 2 5 13 -6 15 -32 4 -14 -5 -19 -10 -12 -10 22 -2 13 -31
-10 -31 -20 0 -20 -1 -5 -12 9 -7 19 -25 22 -40 6 -24 4 -26 -17 -22 -12 2
-17 2 -10 -2 17 -8 15 -34 -3 -34 -8 0 -15 -4 -15 -10 0 -5 5 -10 10 -10 6 0
10 -6 10 -14 0 -10 -9 -14 -27 -13 -20 1 -27 -2 -24 -13 8 -34 3 -93 -9 -100
-10 -6 -9 -9 1 -13 11 -5 10 -8 -4 -17 -14 -9 -16 -19 -11 -46 4 -22 2 -34 -5
-34 -6 0 -11 5 -11 10 0 6 -7 10 -15 10 -8 0 -15 -5 -15 -11 0 -5 4 -8 9 -5 5
3 11 -1 15 -9 3 -8 -2 -19 -11 -23 -9 -5 -14 -16 -10 -24 3 -8 1 -21 -4 -29
-7 -11 -9 -11 -9 4 0 9 -4 17 -8 17 -5 0 -7 -16 -6 -35 3 -34 -9 -48 -19 -22
-4 7 -6 6 -6 -5 -1 -9 -7 -19 -13 -21 -10 -4 -10 -8 -1 -14 12 -9 6 -63 -8
-63 -5 0 -6 -7 -3 -15 4 -9 -1 -18 -10 -21 -13 -5 -15 -14 -10 -37 5 -24 3
-29 -9 -24 -8 3 -20 0 -26 -6 -16 -16 -13 -27 6 -20 12 5 14 3 8 -7 -5 -7 -12
-32 -17 -54 -14 -68 -15 -71 -28 -68 -19 4 -40 -18 -40 -44 0 -15 -6 -24 -15
-24 -20 0 -30 -47 -17 -82 7 -18 7 -26 0 -22 -6 4 -8 -1 -4 -14 4 -12 1 -22
-8 -25 -16 -6 -28 38 -19 72 8 30 -14 53 -37 41 -24 -13 -40 -13 -20 0 13 8
11 12 -8 26 -19 13 -22 22 -16 47 3 18 11 38 16 45 6 6 7 12 3 12 -4 0 -15
-10 -26 -22 -19 -23 -26 -15 -10 11 6 9 5 21 -2 33 -17 27 -23 22 -23 -18 0
-24 -6 -39 -18 -46 -15 -8 -16 -12 -5 -20 10 -7 8 -8 -8 -3 -25 7 -42 -13 -22
-26 16 -10 4 -35 -24 -53 -13 -8 -20 -7 -26 3 -14 21 -40 6 -34 -19 3 -12 11
-19 18 -16 8 3 16 -2 19 -10 3 -8 0 -14 -6 -14 -6 0 -17 -8 -24 -17 -18 -26
-29 -8 -28 49 0 44 -1 48 -13 32 -7 -10 -13 -14 -13 -10 0 5 -7 3 -15 -4 -9
-8 -12 -22 -9 -43 l5 -32 -20 24 c-21 23 -21 23 -21 2 0 -13 -6 -21 -16 -21
-11 0 -14 -5 -10 -16 6 -17 -15 -44 -34 -44 -7 0 -10 -7 -6 -15 3 -8 -1 -21
-9 -29 -17 -16 -20 -30 -6 -21 5 3 12 1 16 -5 3 -6 -1 -13 -9 -16 -17 -7 -22
-39 -7 -48 5 -3 8 2 7 11 -2 26 18 25 30 -1 8 -18 8 -23 0 -20 -16 5 -54 -27
-38 -33 6 -3 12 -15 12 -27 0 -12 5 -27 11 -33 8 -8 7 -13 -1 -18 -7 -4 -16
-1 -21 6 -4 7 -11 10 -16 6 -4 -5 -1 -12 7 -17 8 -5 11 -12 8 -16 -4 -3 2 -15
13 -27 23 -25 25 -39 4 -31 -8 4 -15 1 -15 -5 0 -6 9 -11 21 -11 18 0 20 -4
15 -25 -4 -14 -2 -25 4 -25 5 0 10 6 10 13 1 7 7 4 15 -7 13 -17 12 -21 -9
-37 -27 -21 -39 -56 -22 -62 8 -3 8 -10 -1 -25 -9 -15 -9 -22 -1 -24 22 -8 6
-128 -17 -128 -16 0 -25 -33 -14 -51 6 -10 9 -11 9 -2 0 18 41 63 57 63 7 0
13 -4 13 -10 0 -5 -4 -10 -10 -10 -5 0 -10 -7 -10 -15 0 -8 6 -12 13 -10 8 4
13 -8 15 -35 2 -30 -1 -38 -11 -34 -7 2 -26 -2 -42 -10 -16 -8 -33 -12 -39 -9
-6 3 -8 3 -4 -2 4 -4 -6 -21 -23 -38 l-31 -29 54 5 c29 2 63 7 76 10 13 3 20
2 17 -4 -4 -5 50 -9 139 -9 l146 0 0 35 c0 60 28 227 51 301 31 100 89 234
189 434 94 185 127 264 179 422 18 54 37 100 42 103 5 4 9 -54 10 -142 1 -217
15 -350 50 -468 31 -109 149 -338 226 -440 5 -5 21 -29 37 -52 16 -24 57 -72
93 -108 35 -36 58 -64 51 -64 -12 1 -123 118 -211 224 -23 28 -69 105 -102
172 -33 67 -63 122 -66 123 -13 1 -71 -211 -78 -285 -7 -81 -5 -192 4 -233 l5
-22 347 0 346 1 23 24 22 24 -33 50 c-32 47 -84 120 -95 131 -3 3 -22 39 -43
80 -21 41 -52 99 -68 129 -17 30 -31 67 -31 83 -1 15 -6 28 -12 28 -6 0 -19
17 -28 38 -38 85 -57 131 -82 202 -37 100 -70 170 -124 257 -24 40 -66 129
-92 197 -27 69 -60 147 -74 175 -27 51 -33 81 -17 81 9 0 71 -129 71 -148 0
-27 93 -236 133 -299 88 -139 162 -277 172 -322 3 -16 13 -35 21 -42 8 -6 14
-19 14 -29 0 -18 23 -69 49 -110 9 -14 23 -43 30 -65 19 -61 39 -101 56 -115
13 -10 15 -9 15 8 0 11 4 22 9 24 6 1 15 61 21 131 6 70 15 138 20 151 5 13 7
26 4 29 -3 2 6 21 20 42 33 49 41 94 27 162 -6 31 -9 59 -6 61 3 3 17 0 32 -7
24 -11 23 -9 -12 31 -21 24 -45 50 -54 59 -9 10 -70 73 -136 141 -158 163
-292 312 -320 352 -12 18 -31 43 -43 57 -11 13 -32 38 -46 54 -27 31 -33 59
-16 70 5 3 7 13 4 23 -3 9 9 -11 26 -44 16 -34 41 -73 55 -88 13 -14 22 -26
19 -26 -10 0 62 -85 192 -228 29 -32 67 -76 85 -98 19 -23 46 -50 60 -60 15
-10 25 -23 22 -30 -4 -11 47 -27 57 -18 12 12 2 155 -16 229 -8 33 -61 88 -75
79 -5 -3 -9 5 -9 18 0 38 -16 52 -59 52 -31 1 -41 5 -41 18 0 26 -11 48 -24
48 -6 0 -17 9 -24 20 -7 11 -18 17 -27 14 -11 -5 -13 -2 -9 10 4 11 1 16 -10
16 -9 0 -13 6 -10 14 4 11 0 13 -15 9 -15 -4 -21 -1 -21 11 0 9 -6 16 -14 16
-8 0 -16 7 -20 15 -3 8 -12 15 -20 15 -10 0 -13 6 -10 15 7 18 -7 20 -25 3 -9
-9 -12 -9 -7 -1 3 6 0 14 -6 16 -10 4 -9 8 2 17 12 10 11 11 -8 7 -15 -4 -25
0 -29 9 -3 8 -11 14 -17 14 -10 0 -10 17 0 79 7 44 17 89 23 99 6 11 7 22 4
26 -4 3 -1 16 5 29 10 20 14 39 26 122 3 17 12 71 22 122 14 75 20 90 33 86
11 -3 12 -2 4 4 -8 6 -10 22 -6 46 6 42 23 51 20 11 -1 -15 3 -28 8 -30 15 -6
38 52 30 76 -4 11 -2 20 4 20 6 0 11 8 11 18 -1 13 -5 11 -21 -11 -27 -35 -43
-25 -26 16 8 18 12 49 9 71 -3 27 -1 37 7 32 7 -5 11 1 11 14 0 12 -26 47 -62
84 -82 82 -128 113 -128 86z m120 -110 c0 -5 -5 -10 -11 -10 -5 0 -7 5 -4 10
3 6 8 10 11 10 2 0 4 -4 4 -10z m-150 -535 c0 -8 -4 -15 -10 -15 -5 0 -10 7
-10 15 0 8 5 15 10 15 6 0 10 -7 10 -15z m430 -680 c0 -8 -4 -15 -10 -15 -5 0
-10 7 -10 15 0 8 5 15 10 15 6 0 10 -7 10 -15z m-1000 -436 c0 -11 -4 -18 -10
-14 -5 3 -7 12 -3 20 7 21 13 19 13 -6z m170 -69 c0 -5 -4 -10 -10 -10 -5 0
-10 5 -10 10 0 6 5 10 10 10 6 0 10 -4 10 -10z m-90 -59 c0 -6 -4 -13 -10 -16
-5 -3 -10 1 -10 9 0 9 5 16 10 16 6 0 10 -4 10 -9z m-200 -15 c0 -3 -4 -8 -10
-11 -5 -3 -10 -1 -10 4 0 6 5 11 10 11 6 0 10 -2 10 -4z m200 -46 c0 -5 -7
-10 -16 -10 -8 0 -12 5 -9 10 3 6 10 10 16 10 5 0 9 -4 9 -10z m-230 -10 c-12
-8 -13 -12 -1 -19 10 -7 11 -13 2 -30 -7 -11 -8 -21 -3 -21 4 0 4 -27 -2 -59
-5 -33 -13 -58 -16 -56 -5 3 -6 159 -1 188 0 4 9 7 19 7 14 0 15 -2 2 -10z
m-150 -74 c0 -3 -4 -8 -10 -11 -5 -3 -10 -1 -10 4 0 6 5 11 10 11 6 0 10 -2
10 -4z m330 -33 c0 -22 -17 -50 -25 -42 -5 6 14 59 22 59 1 0 3 -8 3 -17z
m-48 -85 c-7 -7 -12 -8 -12 -2 0 14 12 26 19 19 2 -3 -1 -11 -7 -17z m-142
-18 c0 -5 -5 -10 -11 -10 -5 0 -7 5 -4 10 3 6 8 10 11 10 2 0 4 -4 4 -10z
m128 -42 c-11 -35 -28 -59 -28 -42 0 12 30 74 35 74 2 0 -1 -15 -7 -32z m7
-58 c-4 -12 -9 -19 -12 -17 -3 3 -2 15 2 27 4 12 9 19 12 17 3 -3 2 -15 -2
-27z m-248 -212 c-3 -7 -5 -2 -5 12 0 14 2 19 5 13 2 -7 2 -19 0 -25z m270
-82 c-4 -9 -11 -16 -17 -16 -15 0 -24 26 -16 47 6 15 8 15 23 1 9 -9 13 -24
10 -32z"/>
<path d="M3160 2821 c0 -6 5 -13 10 -16 6 -3 10 1 10 9 0 9 -4 16 -10 16 -5 0
-10 -4 -10 -9z"/>
<path d="M4110 2760 c0 -5 7 -10 16 -10 8 0 12 5 9 10 -3 6 -10 10 -16 10 -5
0 -9 -4 -9 -10z"/>
<path d="M10650 2734 c-19 -3 -114 -13 -210 -24 -97 -10 -187 -24 -200 -30
-24 -10 -24 -10 5 -4 63 12 218 16 211 5 -4 -6 0 -11 8 -11 9 0 13 -7 11 -20
-2 -13 2 -20 11 -20 8 0 14 5 14 10 0 6 8 10 18 11 12 0 10 3 -8 11 -14 6 -20
12 -13 15 7 2 21 0 32 -6 11 -6 31 -11 45 -11 14 0 26 -4 26 -10 0 -5 -4 -10
-9 -10 -4 0 -7 -11 -6 -24 2 -17 -3 -26 -16 -29 -12 -3 -19 0 -19 10 0 8 5 11
10 8 6 -3 10 -1 10 4 0 6 -7 11 -15 11 -24 0 -19 -47 6 -53 12 -3 18 -10 14
-17 -5 -8 -11 -7 -22 2 -14 11 -15 9 -9 -19 5 -20 2 -41 -5 -55 -15 -27 -19
-57 -8 -63 9 -6 -1 -45 -12 -45 -5 0 -9 -7 -9 -15 0 -8 5 -15 11 -15 6 0 17
-6 25 -14 12 -13 12 -15 -4 -19 -13 -4 -12 -5 5 -6 13 0 30 -13 40 -28 10 -16
25 -34 33 -40 12 -11 13 -14 1 -22 -14 -9 2 -27 17 -17 4 2 8 -4 8 -14 0 -15
-5 -18 -22 -14 -12 3 -25 1 -28 -5 -7 -11 5 -15 36 -12 12 2 16 -3 12 -13 -3
-9 -2 -16 4 -16 5 0 12 -9 15 -20 3 -11 15 -24 28 -28 l23 -9 -22 -12 c-22
-12 -31 -41 -11 -41 5 0 8 -3 6 -7 -3 -5 13 -9 34 -11 25 -2 39 2 39 9 0 7 3
9 6 6 4 -4 1 -14 -6 -23 -11 -13 -11 -17 -1 -24 8 -4 9 -10 3 -14 -5 -3 -12 1
-16 9 -9 24 -28 18 -21 -6 5 -13 3 -19 -3 -15 -5 3 -15 -1 -23 -10 -11 -13
-14 -11 -25 15 -14 34 -45 44 -37 12 3 -13 -2 -20 -21 -25 -22 -5 -26 -12 -26
-41 0 -18 5 -37 10 -40 6 -4 8 -11 5 -16 -4 -5 -1 -9 4 -9 6 0 11 6 11 14 0 8
7 17 16 20 8 3 12 2 9 -4 -3 -6 -2 -10 4 -10 6 0 13 11 17 24 3 13 13 27 22
30 10 3 22 8 27 11 6 3 10 -5 10 -18 0 -19 -4 -22 -22 -19 -31 6 -29 -14 2
-22 36 -9 31 -23 -7 -19 l-33 3 30 -15 c17 -8 35 -14 42 -15 6 0 11 -9 10 -20
-1 -14 -8 -20 -24 -20 -25 0 -29 10 -11 28 9 9 8 12 -5 12 -12 0 -17 -9 -17
-32 l0 -33 -20 30 c-11 17 -20 25 -20 18 0 -7 -7 -10 -16 -6 -12 4 -15 0 -12
-18 2 -16 9 -23 21 -21 13 2 17 -4 17 -28 0 -16 5 -30 11 -30 5 0 8 -4 4 -9
-3 -5 0 -13 6 -17 6 -3 15 0 20 7 6 10 9 7 10 -11 1 -25 1 -24 14 5 8 17 14
24 15 18 0 -15 40 22 40 37 0 6 5 10 10 10 15 0 12 -12 -11 -36 -11 -12 -21
-37 -22 -58 -1 -20 -6 -34 -12 -32 -5 2 -9 9 -8 15 4 15 -8 13 -31 -4 -20 -15
-20 -15 0 -15 16 0 16 -2 4 -10 -13 -8 -13 -11 0 -23 19 -19 70 -31 70 -17 0
5 9 10 21 10 11 0 17 -5 14 -10 -6 -10 20 -44 29 -38 2 2 8 0 12 -4 4 -5 -2
-8 -14 -8 -11 0 -27 -6 -34 -13 -8 -9 -21 -11 -33 -6 -44 17 -65 3 -23 -16 28
-13 35 -35 11 -36 -14 0 -13 -2 6 -10 18 -7 27 -6 33 3 6 10 8 8 8 -4 0 -10
-7 -18 -15 -18 -8 0 -15 -4 -15 -10 0 -5 10 -10 23 -10 12 0 33 -3 47 -7 22
-6 24 -5 12 10 -12 14 -12 19 2 32 14 15 17 15 22 1 12 -32 0 -61 -28 -64 -16
-2 -28 1 -28 7 0 6 -5 11 -11 11 -6 0 -9 -12 -7 -27 2 -21 8 -27 22 -25 36 7
50 -44 14 -51 -19 -4 -18 -5 6 -6 19 -1 27 -5 23 -15 -6 -14 15 -15 46 -2 12
6 16 15 12 28 -6 16 -3 18 20 12 23 -6 26 -4 23 12 -2 11 -9 18 -15 17 -6 -1
-10 16 -9 40 1 23 -3 42 -9 42 -12 0 -22 50 -17 87 3 18 12 28 30 33 18 4 22
9 13 14 -10 6 -9 11 3 24 23 23 19 33 -4 12 -12 -10 -19 -24 -16 -31 3 -8 -1
-11 -9 -8 -8 3 -13 11 -12 17 1 7 -7 12 -18 12 -15 0 -19 6 -17 23 2 14 -2 22
-12 22 -8 0 -17 4 -20 9 -4 5 3 7 14 4 12 -3 20 0 20 6 0 7 -4 9 -10 6 -10 -6
-14 7 -11 34 2 7 -2 10 -8 7 -5 -4 -12 -2 -16 4 -3 5 0 10 8 10 15 0 74 -70
60 -71 -4 0 3 -4 15 -10 29 -11 42 -4 42 21 0 10 6 20 13 23 17 5 -5 63 -22
59 -16 -3 -40 27 -41 51 0 9 5 17 11 17 6 0 8 -8 4 -19 -5 -15 0 -21 25 -26
38 -8 48 0 32 26 -7 11 -10 24 -7 29 4 6 2 10 -3 10 -5 0 -12 9 -15 20 -4 14
0 20 11 21 10 1 7 4 -8 9 -14 4 -19 8 -12 9 9 1 11 8 6 23 -3 12 -6 46 -5 77
1 37 -4 60 -15 72 -9 10 -13 23 -9 28 3 6 -1 14 -9 17 -10 4 -16 18 -16 38 0
25 -6 36 -25 46 -31 16 -33 30 -3 22 17 -4 20 -2 15 12 -4 10 -7 22 -7 27 0 5
-7 9 -16 9 -8 0 -21 15 -29 34 -8 19 -20 36 -27 39 -9 3 -5 11 12 25 21 18 22
21 7 22 -14 0 -17 5 -12 20 5 16 -3 31 -34 61 -40 40 -40 41 -23 67 9 15 21
30 27 34 6 5 6 11 -3 20 -14 14 -16 32 -3 24 5 -4 8 10 7 29 -3 37 24 101 53
122 9 6 14 14 11 17 -8 7 -177 15 -220 10z m-19 -59 c-1 -15 -24 -12 -29 3 -3
9 2 13 12 10 10 -1 17 -7 17 -13z m19 -40 c-14 -16 -25 -21 -16 -6 4 5 0 12
-6 14 -7 3 -2 6 11 6 20 1 21 -1 11 -14z m26 -20 c-3 -9 -11 -13 -16 -10 -8 5
-7 11 1 21 14 18 24 11 15 -11z m-96 -281 c0 -8 -5 -12 -10 -9 -6 4 -8 11 -5
16 9 14 15 11 15 -7z m170 -195 c0 -6 -4 -7 -10 -4 -5 3 -10 11 -10 16 0 6 5
7 10 4 6 -3 10 -11 10 -16z m22 -41 c-9 -9 -12 -7 -12 12 0 19 3 21 12 12 9
-9 9 -15 0 -24z m-18 -34 c11 -28 7 -35 -13 -22 -10 6 -17 18 -14 25 7 18 20
16 27 -3z m-14 -54 c0 -5 -4 -10 -10 -10 -5 0 -10 5 -10 10 0 6 5 10 10 10 6
0 10 -4 10 -10z m-80 -104 c-14 -14 -22 -2 -14 18 5 14 9 15 15 4 4 -7 4 -17
-1 -22z m274 9 c3 -8 1 -15 -3 -15 -5 0 -11 7 -15 15 -3 8 -1 15 3 15 5 0 11
-7 15 -15z m-314 -15 c0 -5 -4 -10 -10 -10 -5 0 -10 5 -10 10 0 6 5 10 10 10
6 0 10 -4 10 -10z m191 -45 c5 4 9 1 9 -6 0 -10 3 -10 12 -1 16 16 25 15 25
-3 0 -10 -11 -15 -33 -15 -26 0 -32 -4 -28 -15 4 -9 0 -15 -10 -15 -9 0 -16 7
-16 16 0 8 -4 13 -9 10 -5 -3 -12 1 -15 9 -4 12 0 14 19 9 23 -6 25 -3 26 27
2 31 2 31 6 6 2 -15 9 -25 14 -22z m139 -55 c0 -5 -4 -10 -10 -10 -5 0 -10 5
-10 10 0 6 5 10 10 10 6 0 10 -4 10 -10z m-165 -42 c6 -4 2 -8 -7 -8 -10 0
-18 7 -18 17 0 9 3 12 8 7 4 -5 12 -12 17 -16z m75 7 c0 -5 -13 -10 -30 -10
-30 0 -41 10 -19 17 22 7 49 4 49 -7z m-100 -45 c0 -5 -4 -10 -10 -10 -5 0
-10 5 -10 10 0 6 5 10 10 10 6 0 10 -4 10 -10z m40 -84 c0 -2 3 -13 6 -23 5
-15 4 -16 -5 -3 -10 13 -12 13 -21 0 -8 -12 -10 -11 -10 8 0 13 6 22 15 22 8
0 15 -2 15 -4z m57 -61 c13 -29 13 -29 -20 -12 -20 11 -23 17 -15 25 17 17 22
15 35 -13z m-11 -132 c-3 -3 -13 -2 -23 2 -17 7 -17 8 2 15 19 7 34 -5 21 -17z
m64 -178 c0 -28 -15 -34 -24 -9 -10 25 -7 34 9 34 9 0 15 -9 15 -25z"/>
<path d="M4080 2645 c0 -8 4 -15 10 -15 5 0 7 7 4 15 -4 8 -8 15 -10 15 -2 0
-4 -7 -4 -15z"/>
<path d="M4297 2570 c-3 -11 -2 -20 3 -20 4 0 10 9 13 20 3 11 2 20 -3 20 -4
0 -10 -9 -13 -20z"/>
<path d="M10470 2374 c0 -8 5 -12 10 -9 6 4 8 11 5 16 -9 14 -15 11 -15 -7z"/>
<path d="M2640 2301 c0 -11 5 -23 10 -26 6 -4 10 5 10 19 0 14 -4 26 -10 26
-5 0 -10 -9 -10 -19z"/>
<path d="M9356 2303 c-6 -14 -5 -15 5 -6 7 7 10 15 7 18 -3 3 -9 -2 -12 -12z"/>
<path d="M2645 2250 c3 -5 8 -10 11 -10 2 0 4 5 4 10 0 6 -5 10 -11 10 -5 0
-7 -4 -4 -10z"/>
<path d="M8100 2132 c0 -17 4 -34 10 -37 6 -4 7 6 3 27 -8 44 -13 48 -13 10z"/>
<path d="M10550 2109 c0 -5 5 -7 10 -4 6 3 10 8 10 11 0 2 -4 4 -10 4 -5 0
-10 -5 -10 -11z"/>
<path d="M10560 2080 c0 -5 5 -10 11 -10 5 0 7 5 4 10 -3 6 -8 10 -11 10 -2 0
-4 -4 -4 -10z"/>
<path d="M10630 2085 c0 -18 19 -40 26 -32 4 4 0 15 -9 24 -9 10 -17 13 -17 8z"/>
<path d="M8110 2050 c0 -30 13 -40 25 -20 8 13 -4 50 -16 50 -5 0 -9 -13 -9
-30z"/>
<path d="M10625 2020 c-3 -5 -1 -10 4 -10 6 0 11 5 11 10 0 6 -2 10 -4 10 -3
0 -8 -4 -11 -10z"/>
<path d="M8127 2014 c-11 -12 -7 -94 9 -174 8 -41 14 -85 14 -97 0 -13 5 -23
10 -23 5 0 7 -6 4 -13 -6 -16 31 -104 53 -129 20 -22 43 -23 43 -2 0 10 -5 14
-16 10 -10 -4 -13 -2 -7 7 13 20 12 71 -2 87 -7 8 -15 26 -18 40 -20 82 -45
163 -53 168 -5 4 -10 31 -11 61 -3 53 -13 78 -26 65z"/>
<path d="M10606 1984 c-8 -21 -8 -24 3 -24 5 0 11 9 14 20 6 24 -8 27 -17 4z"/>
<path d="M8500 1769 c0 -6 -7 -8 -16 -5 -8 3 -12 2 -9 -4 3 -6 1 -10 -6 -10
-7 0 -10 -2 -7 -5 10 -11 58 7 58 21 0 8 -4 14 -10 14 -5 0 -10 -5 -10 -11z"/>
<path d="M10632 1708 c-16 -16 -15 -28 3 -28 8 0 15 9 15 20 0 23 -2 24 -18 8z"/>
<path d="M10670 1620 c0 -5 5 -10 10 -10 6 0 10 5 10 10 0 6 -4 10 -10 10 -5
0 -10 -4 -10 -10z"/>
<path d="M10641 1586 c-10 -12 -8 -16 9 -21 28 -9 31 -4 15 18 -11 15 -14 15
-24 3z"/>
<path d="M10744 1516 c3 -22 18 -36 36 -36 22 0 32 13 25 32 -6 16 -64 20 -61
4z"/>
<path d="M10705 1500 c3 -5 10 -10 16 -10 5 0 9 5 9 10 0 6 -7 10 -16 10 -8 0
-12 -4 -9 -10z"/>
<path d="M10937 1431 c3 -12 12 -21 20 -21 20 0 12 34 -9 38 -12 2 -15 -2 -11
-17z"/>
<path d="M10718 1433 c7 -3 16 -2 19 1 4 3 -2 6 -13 5 -11 0 -14 -3 -6 -6z"/>
<path d="M10980 1399 c0 -5 5 -7 10 -4 6 3 10 8 10 11 0 2 -4 4 -10 4 -5 0
-10 -5 -10 -11z"/>
<path d="M3622 1316 c1 -10 8 -17 13 -17 15 1 12 24 -3 29 -9 3 -13 -2 -10
-12z"/>
<path d="M10938 1227 c-9 -17 -7 -18 21 -12 l31 7 -30 -34 c-17 -19 -26 -34
-19 -37 6 -2 15 2 19 9 4 6 11 12 16 11 5 0 8 7 8 15 -1 8 2 14 7 14 5 0 9
-10 9 -22 0 -40 12 -68 27 -68 13 0 13 3 -1 24 -9 14 -13 32 -10 40 3 9 -1 23
-10 31 -9 9 -16 23 -16 30 0 20 -40 14 -52 -8z"/>
<path d="M3467 1208 c-5 -15 9 -38 25 -38 12 0 10 14 -5 34 -12 16 -15 17 -20
4z"/>
<path d="M8086 1194 c-10 -25 1 -29 14 -5 6 12 7 21 1 21 -5 0 -12 -7 -15 -16z"/>
<path d="M10879 1203 c-1 -5 -1 -12 0 -17 1 -5 -3 -12 -9 -16 -6 -4 3 -7 20
-7 16 0 30 5 30 11 0 13 -39 40 -41 29z"/>
<path d="M3681 1174 c0 -11 3 -14 6 -6 3 7 2 16 -1 19 -3 4 -6 -2 -5 -13z"/>
<path d="M8160 1160 c0 -13 11 -13 30 0 12 8 11 10 -7 10 -13 0 -23 -4 -23
-10z"/>
<path d="M8110 1140 c-6 -11 -8 -20 -5 -20 3 0 14 9 25 20 15 15 16 20 5 20
-8 0 -19 -9 -25 -20z"/>
<path d="M10960 1131 c0 -5 7 -11 15 -15 9 -3 15 0 15 9 0 8 -7 15 -15 15 -8
0 -15 -4 -15 -9z"/>
<path d="M3600 1120 c0 -5 5 -10 11 -10 5 0 7 5 4 10 -3 6 -8 10 -11 10 -2 0
-4 -4 -4 -10z"/>
<path d="M10932 1093 c2 -9 8 -18 15 -20 7 -3 9 3 6 16 -6 25 -26 28 -21 4z"/>
<path d="M10975 1080 c-8 -13 3 -30 20 -30 23 0 27 18 6 30 -13 7 -22 7 -26 0z"/>
<path d="M3350 1065 c0 -8 4 -15 10 -15 5 0 7 7 4 15 -4 8 -8 15 -10 15 -2 0
-4 -7 -4 -15z"/>
<path d="M3500 1056 c0 -7 9 -16 21 -19 15 -4 19 -2 15 10 -3 8 -6 17 -6 19 0
2 -7 4 -15 4 -8 0 -15 -6 -15 -14z"/>
<path d="M3581 1054 c0 -11 3 -14 6 -6 3 7 2 16 -1 19 -3 4 -6 -2 -5 -13z"/>
<path d="M10930 1034 c0 -8 5 -12 10 -9 6 4 8 11 5 16 -9 14 -15 11 -15 -7z"/>
<path d="M11000 1025 c0 -8 4 -15 10 -15 5 0 7 7 4 15 -4 8 -8 15 -10 15 -2 0
-4 -7 -4 -15z"/>
<path d="M11048 1033 c-10 -3 -18 -8 -18 -13 0 -16 17 -19 35 -6 20 14 10 25
-17 19z"/>
<path d="M7973 1023 c-7 -2 -13 -11 -13 -18 0 -20 -19 -28 -35 -15 -11 9 -14
8 -12 -8 1 -16 5 -18 32 -9 17 5 36 20 42 33 11 24 9 27 -14 17z"/>
<path d="M8321 1023 c-1 -7 -8 -13 -16 -13 -9 0 -18 -7 -21 -15 -4 -8 -10 -12
-15 -9 -5 3 -9 -2 -9 -10 0 -8 -9 -18 -21 -21 -30 -10 -61 -42 -46 -49 7 -2 2
-5 -11 -5 -13 -1 -20 -5 -17 -11 3 -5 1 -10 -4 -10 -21 0 -51 -35 -51 -60 0
-15 -11 -37 -24 -49 -14 -13 -22 -30 -19 -38 3 -8 9 -11 12 -6 11 14 70 31 91
26 16 -4 19 -2 14 11 -7 17 11 22 21 6 10 -16 55 -12 55 4 0 15 37 32 47 22 4
-3 -1 -6 -10 -6 -25 0 -22 -46 3 -53 11 -3 23 -1 26 4 3 5 12 9 20 9 9 0 23 7
32 16 10 11 17 13 20 5 5 -16 32 -14 38 4 4 8 14 15 24 15 20 0 34 46 16 54
-7 3 -3 11 8 20 22 18 22 18 -16 20 -24 2 -28 -2 -29 -24 -1 -23 -2 -22 -10 8
-5 17 -16 32 -24 32 -18 0 -18 1 -5 34 5 15 6 26 1 26 -5 0 -11 -5 -13 -11 -2
-6 -10 2 -18 18 -8 15 -16 30 -17 32 -2 3 -10 -4 -17 -15 -8 -10 -18 -16 -22
-12 -4 4 -1 14 6 22 6 9 10 21 7 28 -4 10 -6 10 -6 1z m39 -163 c0 -5 -2 -10
-4 -10 -3 0 -8 5 -11 10 -3 6 -1 10 4 10 6 0 11 -4 11 -10z m41 -19 c-7 -5
-10 -14 -7 -20 4 -6 1 -11 -8 -11 -8 0 -21 -3 -30 -6 -9 -3 -16 -1 -16 5 0 6
9 11 21 11 14 0 19 5 16 14 -4 9 1 16 11 19 23 5 30 -2 13 -12z m69 -31 c0 -5
-11 -10 -25 -10 -14 0 -25 5 -25 10 0 6 11 10 25 10 14 0 25 -4 25 -10z"/>
<path d="M7816 970 c-15 -5 -16 -9 -7 -14 7 -5 18 -3 24 3 14 14 6 20 -17 11z"/>
<path d="M7860 970 c19 -13 30 -13 30 0 0 6 -10 10 -22 10 -19 0 -20 -2 -8
-10z"/>
<path d="M11030 976 c0 -2 8 -10 18 -17 15 -13 16 -12 3 4 -13 16 -21 21 -21
13z"/>
<path d="M7610 959 c0 -5 5 -7 10 -4 6 3 10 8 10 11 0 2 -4 4 -10 4 -5 0 -10
-5 -10 -11z"/>
<path d="M8025 960 c-3 -6 1 -7 9 -4 18 7 21 14 7 14 -6 0 -13 -4 -16 -10z"/>
<path d="M10944 949 c-3 -6 3 -13 15 -16 12 -3 21 -7 21 -10 0 -13 -32 -33
-54 -33 -14 0 -26 -4 -26 -9 0 -15 18 -23 25 -11 3 5 15 10 26 10 10 0 19 5
19 10 0 6 6 10 14 10 22 0 29 18 14 33 -20 20 -47 27 -54 16z"/>
<path d="M7850 942 c0 -5 6 -14 13 -21 10 -10 9 -12 -2 -9 -8 2 -17 -6 -19
-17 -4 -17 -2 -18 12 -6 10 8 16 9 16 3 0 -6 -4 -14 -10 -17 -5 -3 -10 -13
-10 -22 0 -12 3 -13 14 -4 7 6 21 9 30 5 17 -6 23 16 9 30 -5 4 -8 17 -8 28 0
12 -9 24 -22 29 -13 5 -23 5 -23 1z"/>
<path d="M7759 938 c0 -2 -2 -16 -4 -32 -4 -26 -3 -27 10 -10 7 10 11 22 9 26
-3 4 1 5 9 2 8 -3 18 -1 22 5 4 7 -4 11 -19 11 -14 0 -26 -1 -27 -2z"/>
<path d="M8430 925 c0 -8 5 -15 10 -15 6 0 10 7 10 15 0 8 -4 15 -10 15 -5 0
-10 -7 -10 -15z"/>
<path d="M10860 930 c0 -5 5 -10 10 -10 6 0 10 5 10 10 0 6 -4 10 -10 10 -5 0
-10 -4 -10 -10z"/>
<path d="M11040 930 c0 -5 5 -10 11 -10 5 0 7 5 4 10 -3 6 -8 10 -11 10 -2 0
-4 -4 -4 -10z"/>
<path d="M7910 909 c0 -10 27 -19 34 -12 12 12 5 22 -14 20 -11 -1 -20 -4 -20
-8z"/>
<path d="M11010 905 c0 -8 34 -45 42 -45 4 0 2 11 -4 25 -9 21 -38 36 -38 20z"/>
<path d="M11056 903 c-3 -3 6 -12 21 -20 34 -17 41 -10 9 10 -13 9 -26 13 -30
10z"/>
<path d="M9667 859 c4 -13 8 -18 11 -10 2 7 -1 18 -6 23 -8 8 -9 4 -5 -13z"/>
<path d="M10955 849 c5 -14 3 -19 -3 -15 -6 3 -21 2 -34 -3 -17 -7 -18 -10 -5
-10 9 -1 17 -4 17 -9 0 -4 -40 -6 -90 -5 -50 1 -90 -2 -90 -8 0 -5 9 -9 20 -9
22 0 27 -16 8 -22 -12 -4 -3 -28 11 -28 5 0 13 15 19 33 5 17 10 25 11 16 1
-11 10 -14 34 -12 17 2 44 5 59 7 19 2 28 -3 32 -17 6 -22 28 -13 24 10 -2 9
3 18 11 21 9 3 12 0 8 -10 -4 -12 2 -15 28 -14 18 1 40 8 49 15 9 8 16 9 16 3
0 -6 -6 -12 -12 -15 -19 -7 1 -24 37 -33 28 -7 29 -7 12 10 -19 19 -23 31 -7
21 6 -3 10 -1 10 5 0 6 -7 13 -15 16 -24 9 -19 37 5 29 26 -8 26 11 1 25 -16
8 -22 6 -29 -6 -6 -10 -16 -15 -26 -11 -18 7 -21 -4 -6 -19 7 -7 6 -11 -5 -11
-8 0 -15 4 -15 9 0 5 -9 6 -20 3 -12 -4 -20 -2 -20 5 0 7 9 14 21 17 18 5 15
8 -17 19 -22 8 -40 14 -42 14 -2 0 0 -10 3 -21z"/>
<path d="M10830 835 c0 -8 7 -15 15 -15 8 0 15 7 15 15 0 8 -7 15 -15 15 -8 0
-15 -7 -15 -15z"/>
<path d="M11156 801 c-3 -5 1 -11 9 -15 8 -3 15 -1 15 4 0 13 -18 22 -24 11z"/>
<path d="M9707 760 c9 -22 18 -38 20 -36 7 6 -20 76 -28 76 -4 0 0 -18 8 -40z"/>
<path d="M10663 750 c-1 -17 2 -30 7 -30 6 0 10 14 10 30 0 39 -14 39 -17 0z"/>
<path d="M10720 765 c0 -9 -4 -13 -10 -10 -5 3 -10 1 -10 -4 0 -15 15 -14 29
3 8 10 9 16 1 21 -5 3 -10 -1 -10 -10z"/>
<path d="M7830 744 c-13 -33 -13 -34 3 -34 8 0 14 12 14 30 0 37 -5 38 -17 4z"/>
<path d="M10630 751 c0 -5 5 -13 10 -16 6 -3 10 -2 10 4 0 5 -4 13 -10 16 -5
3 -10 2 -10 -4z"/>
<path d="M7776 743 c-11 -11 -6 -23 9 -23 8 0 15 4 15 9 0 13 -16 22 -24 14z"/>
<path d="M7875 740 c3 -5 8 -10 11 -10 2 0 4 5 4 10 0 6 -5 10 -11 10 -5 0 -7
-4 -4 -10z"/>
<path d="M8210 730 c0 -5 -12 -10 -27 -10 -96 -3 -146 -9 -156 -19 -6 -6 -17
-11 -24 -11 -6 0 -16 -7 -21 -16 -5 -9 -21 -16 -36 -16 -14 0 -29 -4 -32 -9
-3 -5 2 -6 11 -3 23 9 8 -26 -24 -54 -43 -37 -48 -41 -74 -47 -14 -4 -33 -15
-43 -26 -9 -10 -32 -21 -51 -25 -25 -5 -33 -11 -28 -21 4 -12 0 -14 -15 -10
-11 3 -20 2 -20 -1 0 -9 -50 -32 -69 -32 -15 0 -215 -103 -240 -123 -18 -15
-81 -37 -107 -37 -11 0 -30 -9 -42 -20 -12 -11 -30 -20 -41 -20 -11 0 -40 -16
-65 -35 -26 -19 -53 -35 -61 -35 -8 0 -15 -4 -15 -10 0 -5 -4 -10 -9 -10 -6 0
-27 -16 -48 -35 -21 -19 -57 -44 -80 -56 -54 -26 -64 -49 -21 -49 27 0 117 42
158 75 8 6 31 18 50 25 19 8 37 16 40 19 10 12 77 41 140 61 68 22 224 94 250
115 8 7 33 18 55 25 22 7 49 18 60 24 11 7 58 27 105 45 111 44 172 71 189 84
7 6 20 12 29 14 9 1 22 9 28 17 6 9 14 13 17 9 4 -3 9 1 12 9 4 10 14 14 26
11 10 -3 19 0 19 6 0 6 7 11 15 11 8 0 15 5 15 10 0 6 6 10 13 9 12 -2 68 21
77 32 3 3 23 9 45 12 22 4 45 13 51 22 12 16 29 21 19 5 -3 -5 0 -10 8 -10 8
0 18 7 21 16 9 22 8 24 -9 18 -17 -7 -20 7 -4 23 8 8 8 13 0 17 -6 4 -11 0
-11 -8 0 -9 -6 -16 -14 -16 -25 0 -66 19 -66 31 0 6 7 9 14 6 10 -4 13 -1 9 9
-6 16 -23 19 -23 4z"/>
<path d="M8498 726 c-15 -8 -38 -17 -50 -19 -13 -3 -7 -4 12 -2 45 4 80 15 80
26 0 13 -11 11 -42 -5z"/>
<path d="M10750 719 c0 -5 5 -7 10 -4 6 3 10 8 10 11 0 2 -4 4 -10 4 -5 0 -10
-5 -10 -11z"/>
<path d="M7705 692 c3 -8 5 -17 5 -20 0 -4 5 0 10 8 6 10 10 11 10 3 0 -20 17
-15 23 7 4 16 0 19 -24 17 -20 -1 -28 -6 -24 -15z"/>
<path d="M9731 694 c0 -11 3 -14 6 -6 3 7 2 16 -1 19 -3 4 -6 -2 -5 -13z"/>
<path d="M8340 692 c0 -16 28 -34 34 -23 4 6 -3 15 -14 21 -11 6 -20 7 -20 2z"/>
<path d="M8400 689 c0 -5 5 -7 10 -4 6 3 10 8 10 11 0 2 -4 4 -10 4 -5 0 -10
-5 -10 -11z"/>
<path d="M7670 680 c0 -6 -8 -9 -18 -6 -11 4 -22 -2 -30 -14 -11 -18 -10 -20
11 -20 28 0 64 34 48 45 -6 3 -11 1 -11 -5z"/>
<path d="M3095 640 c-3 -5 1 -10 10 -10 9 0 13 5 10 10 -3 6 -8 10 -10 10 -2
0 -7 -4 -10 -10z"/>
<path d="M10665 640 c-3 -5 -1 -10 4 -10 6 0 11 5 11 10 0 6 -2 10 -4 10 -3 0
-8 -4 -11 -10z"/>
<path d="M7510 620 c0 -6 7 -10 15 -10 8 0 15 2 15 4 0 2 -7 6 -15 10 -8 3
-15 1 -15 -4z"/>
<path d="M9761 604 c0 -11 3 -14 6 -6 3 7 2 16 -1 19 -3 4 -6 -2 -5 -13z"/>
<path d="M7427 588 c-10 -11 -16 -22 -13 -26 6 -5 46 32 46 43 0 10 -15 3 -33
-17z"/>
<path d="M10721 603 c-1 -8 -15 -13 -37 -13 l-36 0 23 -19 c15 -12 28 -16 34
-10 13 13 22 11 29 -7 4 -9 -2 -23 -13 -32 -26 -23 -12 -63 19 -55 25 7 37 23
16 23 -18 0 -21 16 -5 26 6 3 15 1 19 -6 4 -7 13 -9 19 -6 16 10 14 26 -4 26
-18 0 -19 12 -3 28 9 9 8 12 -5 12 -9 0 -17 5 -17 10 0 6 -6 10 -14 10 -8 0
-17 6 -19 13 -4 10 -6 10 -6 0z"/>
<path d="M7470 590 c0 -13 11 -13 30 0 12 8 11 10 -7 10 -13 0 -23 -4 -23 -10z"/>
<path d="M10618 593 c7 -3 16 -2 19 1 4 3 -2 6 -13 5 -11 0 -14 -3 -6 -6z"/>
<path d="M10566 561 c-4 -5 3 -7 14 -4 23 6 26 13 6 13 -8 0 -17 -4 -20 -9z"/>
<path d="M2305 519 c-4 -6 -5 -12 -2 -15 2 -3 7 2 10 11 7 17 1 20 -8 4z"/>
<path d="M10815 520 c-3 -5 1 -10 9 -10 9 0 16 5 16 10 0 6 -4 10 -9 10 -6 0
-13 -4 -16 -10z"/>
<path d="M10634 493 c4 -7 2 -13 -4 -13 -6 0 -8 -5 -5 -10 4 -6 10 -8 15 -5
14 8 32 -23 25 -45 -3 -11 -14 -20 -23 -21 -14 0 -13 -2 3 -8 11 -5 20 -14 20
-22 0 -7 14 -16 30 -20 58 -13 85 -28 79 -44 -5 -11 1 -15 21 -15 23 0 26 2
15 15 -10 13 -9 15 9 15 11 0 21 -5 21 -12 0 -8 7 -6 18 5 15 16 15 19 2 28
-8 5 -25 8 -37 6 -31 -6 -29 11 2 19 19 5 36 -1 65 -21 22 -15 40 -33 40 -38
0 -7 -4 -7 -12 1 -14 14 -52 16 -43 3 3 -5 -2 -17 -11 -25 -14 -15 -14 -16 1
-16 12 0 15 -6 10 -22 -6 -22 -6 -22 10 -4 12 16 18 17 27 8 9 -9 9 -12 -1
-12 -7 0 -11 -8 -10 -17 3 -34 -1 -43 -21 -43 -16 0 -20 -7 -20 -30 0 -16 -4
-30 -10 -30 -5 0 -10 7 -10 15 0 8 -9 15 -20 15 -17 0 -19 -4 -14 -27 5 -23 4
-26 -7 -16 -16 16 -29 17 -29 3 0 -5 6 -10 13 -10 7 0 26 -14 42 -30 31 -32
28 -39 -8 -16 -12 8 -34 17 -49 20 -15 2 -33 8 -40 12 -8 5 -7 -2 3 -16 14
-22 15 -28 2 -47 l-15 -22 316 -1 c349 -1 348 -1 286 60 -19 19 -25 30 -17 34
9 5 9 7 0 12 -7 3 -13 12 -13 20 0 12 -4 12 -20 4 -16 -9 -20 -8 -20 5 0 9 -6
18 -14 21 -11 4 -13 12 -6 30 8 20 4 28 -25 51 -19 16 -35 31 -35 35 0 12 60
-23 75 -45 13 -19 20 -17 16 6 0 4 6 7 14 7 8 0 15 -6 16 -12 0 -7 4 -4 8 7 6
15 3 23 -13 32 -29 17 -36 16 -36 -4 -1 -16 -2 -16 -13 -3 -7 8 -24 21 -39 29
-36 19 -28 26 14 13 76 -23 87 -23 85 -2 -1 11 -5 20 -9 20 -5 0 -7 10 -5 23
2 12 2 16 0 10 -10 -28 -39 -11 -34 20 0 4 -6 7 -14 7 -8 0 -15 7 -15 15 0 8
-8 15 -18 15 -10 0 -23 5 -30 12 -6 6 -14 9 -18 6 -3 -4 7 -15 23 -25 35 -22
52 -43 53 -65 0 -11 -6 -15 -20 -11 -11 3 -23 10 -26 15 -4 6 2 8 15 3 35 -11
24 10 -18 33 -21 12 -41 29 -45 37 -3 8 -15 15 -26 15 -23 0 -26 -10 -8 -28 7
-7 8 -12 2 -12 -5 0 -22 14 -38 30 -16 16 -34 27 -39 23 -8 -5 -7 -8 1 -11 7
-2 12 -11 12 -20 0 -13 -2 -14 -9 -3 -6 9 -11 10 -15 2 -16 -25 -28 -10 -21
28 4 22 2 42 -3 45 -12 7 -42 -3 -42 -15 0 -4 7 -6 15 -3 9 4 15 0 15 -9 0 -9
-9 -17 -21 -19 -19 -3 -17 -7 19 -42 25 -25 38 -46 35 -57 -3 -10 2 -32 11
-50 9 -18 16 -34 16 -36 0 -10 -23 0 -45 19 -26 23 -32 38 -14 38 5 0 7 -4 4
-10 -3 -5 -1 -10 4 -10 6 0 11 7 11 15 0 8 -7 15 -15 15 -8 0 -15 4 -15 10 0
5 7 7 16 3 12 -4 15 -2 12 8 -3 8 -12 13 -22 11 -9 -2 -16 2 -16 8 0 6 -15 10
-34 8 -51 -3 -116 43 -116 82 0 24 4 30 22 30 12 0 19 3 15 6 -3 4 -18 3 -33
0 -20 -5 -25 -12 -21 -27 5 -18 1 -20 -36 -18 -45 3 -68 13 -106 44 -13 11
-21 14 -17 8z m124 -80 c17 -3 32 -9 32 -14 0 -5 7 -9 15 -9 8 0 15 -5 15 -11
0 -8 -15 -9 -45 -5 -29 5 -45 4 -45 -3 0 -6 -10 -10 -22 -10 -17 1 -19 2 -5 6
23 6 22 20 -3 28 -11 3 -20 13 -20 22 0 11 6 13 23 8 12 -4 37 -9 55 -12z
m337 -53 c3 -5 1 -10 -4 -10 -6 0 -11 5 -11 10 0 6 2 10 4 10 3 0 8 -4 11 -10z
m165 -40 c0 -5 -5 -10 -11 -10 -5 0 -7 5 -4 10 3 6 8 10 11 10 2 0 4 -4 4 -10z
m-260 -111 c0 -5 -4 -9 -10 -9 -5 0 -10 7 -10 16 0 8 5 12 10 9 6 -3 10 -10
10 -16z m50 11 c0 -5 -2 -10 -4 -10 -3 0 -8 5 -11 10 -3 6 -1 10 4 10 6 0 11
-4 11 -10z m-120 -90 c0 -5 -5 -10 -11 -10 -5 0 -7 5 -4 10 3 6 8 10 11 10 2
0 4 -4 4 -10z m-64 -68 c-4 -3 -14 2 -24 12 -16 18 -16 18 6 6 13 -6 21 -14
18 -18z m320 -20 c-4 -3 -14 2 -24 12 -16 18 -16 18 6 6 13 -6 21 -14 18 -18z
m-391 -12 c3 -5 1 -10 -4 -10 -6 0 -11 5 -11 10 0 6 2 10 4 10 3 0 8 -4 11
-10z"/>
<path d="M10910 480 c0 -5 5 -10 10 -10 6 0 10 5 10 10 0 6 -4 10 -10 10 -5 0
-10 -4 -10 -10z"/>
<path d="M10874 455 c-2 -25 10 -31 40 -19 20 8 21 24 1 24 -8 0 -15 5 -15 10
0 22 -25 8 -26 -15z"/>
<path d="M9811 444 c0 -11 3 -14 6 -6 3 7 2 16 -1 19 -3 4 -6 -2 -5 -13z"/>
<path d="M10837 453 c-4 -3 -7 -11 -7 -17 0 -6 5 -5 12 2 6 6 9 14 7 17 -3 3
-9 2 -12 -2z"/>
<path d="M12192 445 c4 -4 3 -16 -3 -26 -7 -15 -6 -17 6 -13 18 7 20 30 3 40
-7 4 -10 4 -6 -1z"/>
<path d="M12292 430 c0 -14 2 -19 5 -12 2 6 2 18 0 25 -3 6 -5 1 -5 -13z"/>
<path d="M10620 430 c19 -13 30 -13 30 0 0 6 -10 10 -22 10 -19 0 -20 -2 -8
-10z"/>
<path d="M11280 433 c0 -5 5 -15 10 -23 8 -12 10 -11 10 8 0 12 -4 22 -10 22
-5 0 -10 -3 -10 -7z"/>
<path d="M12101 424 c0 -11 3 -14 6 -6 3 7 2 16 -1 19 -3 4 -6 -2 -5 -13z"/>
<path d="M10916 421 c-5 -8 -3 -16 5 -22 19 -12 39 -11 39 1 0 5 -6 7 -14 4
-9 -3 -16 2 -18 13 -3 14 -5 15 -12 4z"/>
<path d="M11436 403 c-6 -14 -5 -15 5 -6 7 7 10 15 7 18 -3 3 -9 -2 -12 -12z"/>
<path d="M12321 404 c0 -11 3 -14 6 -6 3 7 2 16 -1 19 -3 4 -6 -2 -5 -13z"/>
<path d="M9820 405 c0 -5 5 -17 10 -25 5 -8 10 -10 10 -5 0 6 -5 17 -10 25 -5
8 -10 11 -10 5z"/>
<path d="M10870 400 c8 -5 20 -10 25 -10 6 0 3 5 -5 10 -8 5 -19 10 -25 10 -5
0 -3 -5 5 -10z"/>
<path d="M10597 343 c-4 -3 -7 -13 -7 -20 0 -12 3 -12 15 1 8 8 15 17 15 20 0
8 -15 7 -23 -1z"/>
<path d="M10656 322 c-3 -5 13 -12 37 -15 39 -5 56 -3 46 7 -10 10 -77 17 -83
8z"/>
<path d="M2646 273 c-3 -21 -9 -48 -12 -59 -4 -16 0 -23 14 -26 19 -5 20 -2
15 56 -3 33 -7 62 -8 64 -1 1 -5 -14 -9 -35z"/>
<path d="M10630 290 c0 -5 5 -10 11 -10 5 0 7 5 4 10 -3 6 -8 10 -11 10 -2 0
-4 -4 -4 -10z"/>
<path d="M10793 263 c9 -9 20 -13 24 -9 4 4 1 11 -7 16 -25 16 -35 11 -17 -7z"/>
<path d="M11257 193 c-12 -11 -8 -31 7 -36 9 -4 14 2 14 19 0 24 -8 30 -21 17z"/>
<path d="M2680 104 c26 -84 34 -104 42 -104 4 0 -2 26 -13 57 -23 61 -45 97
-29 47z"/>
<path d="M3180 120 c0 -5 5 -10 10 -10 6 0 10 5 10 10 0 6 -4 10 -10 10 -5 0
-10 -4 -10 -10z"/>
<path d="M2857 56 c-20 -60 -20 -56 -2 -56 15 0 30 54 23 87 -2 12 -10 1 -21
-31z"/>
<path d="M3007 51 c-21 -35 -22 -51 -3 -51 8 0 16 14 18 38 3 20 4 38 4 39 -1
1 -10 -11 -19 -26z"/>
<path d="M10675 70 c3 -5 8 -10 11 -10 2 0 4 5 4 10 0 6 -5 10 -11 10 -5 0 -7
-4 -4 -10z"/>
<path d="M2641 54 c0 -11 3 -14 6 -6 3 7 2 16 -1 19 -3 4 -6 -2 -5 -13z"/>
<path d="M2333 20 c-13 -5 -23 -11 -23 -14 0 -2 48 -4 108 -3 l107 0 -50 14
c-57 15 -110 16 -142 3z"/>
<path d="M2563 3 c9 -2 23 -2 30 0 6 3 -1 5 -18 5 -16 0 -22 -2 -12 -5z"/>
</g>
</svg>
