<?xml version="1.0" standalone="no"?>
<!DOCTYPE svg PUBLIC "-//W3C//DTD SVG 20010904//EN"
 "http://www.w3.org/TR/2001/REC-SVG-20010904/DTD/svg10.dtd">
<svg version="1.0" xmlns="http://www.w3.org/2000/svg"
 width="604.000000pt" height="453.000000pt" viewBox="0 0 604.000000 453.000000"
 preserveAspectRatio="xMidYMid meet">
<metadata>
Created by potrace 1.11, written by Peter Selinger 2001-2013
</metadata>
<g transform="translate(0.000000,453.000000) scale(0.100000,-0.100000)"
fill="#000000" stroke="none">
<path fill="#000000" stroke="none" d="M660 4503 c17 -16 51 -44 75 -63 24
-19 42 -40 40 -47 -2 -7 2 -10 8 -7 7 2 37 -16 66 -41 36 -31 56 -42 61 -35 5
9 9 9 14 1 8 -13 56 -11 56 2 0 5 6 7 14 4 8 -3 20 2 28 11 9 11 10 14 1 8 -9
-5 -13 -1 -14 11 0 12 -2 14 -6 4 -4 -10 -14 -6 -37 17 -17 16 -63 60 -102 96
l-71 66 -81 0 -82 0 30 -27z"/>
<path fill="#000000" stroke="none" d="M990 4519 c0 -5 5 -7 10 -4 6 3 10 8
10 11 0 2 -4 4 -10 4 -5 0 -10 -5 -10 -11z"/>
<path fill="#000000" stroke="none" d="M1030 4520 c10 -6 11 -10 3 -10 -7 0
-13 -5 -13 -10 0 -7 7 -7 21 1 17 9 19 13 8 20 -8 5 -18 9 -24 9 -5 0 -3 -5 5
-10z"/>
<path fill="#000000" stroke="none" d="M1114 4523 c3 -4 1 -12 -5 -20 -8 -9
-8 -13 -1 -13 6 0 14 5 17 10 10 16 25 11 18 -6 -5 -13 -2 -15 15 -9 34 10 27
-18 -7 -33 -31 -14 -33 -41 -3 -38 12 1 17 -8 19 -31 1 -18 -3 -33 -8 -33 -5
0 -9 9 -9 20 0 13 -5 18 -15 13 -14 -5 -14 -8 2 -26 13 -15 15 -21 5 -24 -6
-3 -10 -8 -7 -13 2 -4 -21 -34 -52 -66 -42 -44 -52 -60 -40 -62 10 -2 17 -8
17 -13 0 -12 -7 -11 -32 2 -18 10 -20 9 -15 -5 3 -8 0 -19 -7 -23 -7 -5 -17
-19 -21 -31 -6 -21 -4 -23 14 -17 23 7 25 3 12 -23 -41 -77 -47 -104 -38 -166
l9 -63 -52 -69 c-29 -38 -55 -70 -59 -71 -3 -2 -7 21 -9 50 -2 28 -7 53 -11
55 -5 2 -7 11 -4 21 3 11 -1 30 -8 42 -7 13 -12 28 -11 32 1 4 -3 17 -9 28
-14 28 -24 180 -10 159 9 -13 11 -13 11 1 0 9 21 26 50 40 45 22 65 47 40 50
-48 5 -55 3 -52 -19 2 -12 -2 -22 -8 -22 -16 0 -24 28 -12 43 17 20 -103 15
-230 -9 -22 -4 -27 -10 -24 -27 4 -28 19 -25 27 5 4 18 7 13 12 -22 4 -25 9
-66 11 -91 3 -52 11 -69 32 -69 19 0 18 -16 -1 -24 -8 -3 -15 -10 -15 -16 0
-5 7 -10 15 -10 8 0 15 -8 15 -17 0 -21 -20 -55 -20 -35 0 20 -16 14 -17 -7
-1 -11 5 -25 13 -32 8 -6 14 -20 14 -30 0 -11 4 -19 9 -19 5 0 11 -9 14 -20 3
-11 1 -20 -4 -20 -5 0 -9 -10 -9 -22 0 -17 3 -19 9 -10 7 11 10 10 15 -3 12
-32 7 -55 -10 -48 -14 5 -15 1 -9 -28 9 -43 14 -51 26 -44 15 10 23 -26 8 -36
-12 -8 -12 -10 0 -18 8 -5 11 -16 7 -29 -4 -11 -2 -23 4 -27 5 -3 10 -11 10
-18 0 -8 -3 -8 -12 1 -19 19 -38 14 -38 -9 0 -11 4 -18 9 -14 6 3 14 -3 20
-12 10 -17 10 -17 11 0 0 9 4 17 9 17 18 0 20 -17 6 -36 -8 -10 -14 -32 -14
-49 1 -16 3 -22 6 -12 2 9 8 17 12 17 12 0 31 -23 31 -39 0 -11 -4 -10 -15 5
-13 17 -14 16 -8 -18 5 -33 3 -38 -13 -38 -18 -1 -18 -1 -2 -14 14 -10 15 -15
5 -26 -9 -10 -9 -13 1 -17 7 -3 20 -12 29 -21 15 -16 15 -17 0 -20 -19 -4 -24
-22 -6 -22 6 0 8 -9 4 -21 -5 -13 -1 -25 9 -32 22 -17 31 -87 11 -87 -22 0
-19 -21 4 -27 10 -2 24 -16 30 -29 14 -31 14 -34 1 -34 -5 0 -10 6 -10 14 0 8
-3 17 -7 19 -5 3 -8 -25 -8 -63 0 -51 3 -66 13 -63 7 3 10 13 7 24 -4 11 -2
19 4 19 6 0 11 -8 11 -18 0 -10 5 -23 12 -30 6 -6 8 -15 4 -19 -4 -4 -11 -1
-16 7 -7 11 -10 8 -10 -12 0 -22 5 -28 21 -28 11 0 17 -4 14 -10 -4 -6 1 -7
10 -3 13 4 16 1 13 -13 -2 -10 -10 -19 -18 -19 -11 0 -14 -11 -12 -44 1 -25
-2 -47 -9 -51 -7 -5 -1 -17 18 -36 24 -24 25 -29 11 -32 -11 -2 -18 -13 -18
-28 0 -13 -4 -24 -10 -24 -5 0 -10 -4 -10 -10 0 -5 11 -10 24 -10 14 0 28 -5
32 -11 4 -7 -2 -9 -16 -7 -13 2 -25 -3 -27 -9 -3 -9 5 -13 24 -13 18 0 23 -3
15 -8 -7 -5 12 -8 43 -9 31 0 61 -5 67 -11 15 -15 11 -18 -29 -27 -26 -5 -33
-3 -33 9 0 9 -5 16 -11 16 -6 0 -9 -7 -6 -15 4 -8 2 -17 -4 -20 -5 -4 -13 2
-17 13 -5 14 -12 17 -27 11 -11 -4 -14 -8 -7 -8 8 -1 12 -10 10 -25 -1 -13 3
-30 10 -39 18 -21 11 -52 -11 -51 -9 1 -23 2 -31 3 -7 0 -21 13 -31 27 -14 22
-15 33 -6 71 11 42 10 47 -14 79 -20 26 -33 34 -59 34 -17 0 -37 -5 -44 -12
-6 -6 -14 -9 -17 -6 -3 2 -21 110 -41 239 -19 129 -50 335 -69 459 -19 124
-46 311 -61 415 -48 349 -69 469 -79 464 -12 -5 -13 3 36 -314 22 -143 42
-276 45 -295 2 -19 17 -123 34 -230 45 -289 69 -449 90 -605 29 -210 29 -225
0 -225 -10 0 -24 -8 -29 -17 -6 -10 -11 -12 -11 -5 0 6 -7 12 -15 12 -10 0
-15 -7 -13 -17 2 -12 -3 -18 -16 -18 -21 0 -24 4 -62 100 -15 39 -37 81 -49
95 -13 14 -29 43 -36 65 -17 52 -17 51 -34 170 -3 28 -11 64 -15 80 -12 39
-21 108 -23 167 -1 27 -6 48 -12 48 -5 0 -3 5 7 10 18 11 51 3 42 -11 -3 -5 0
-9 6 -9 10 0 6 102 -6 140 -3 8 -12 68 -20 133 -8 66 -19 127 -24 136 -5 10
-12 42 -15 72 -11 93 -55 413 -60 437 -6 25 -45 32 -45 7 0 -9 -10 -15 -26
-15 -36 0 -64 17 -64 39 0 22 -23 29 -65 21 -27 -5 -30 -9 -27 -38 2 -19 -1
-32 -8 -32 -8 0 -10 -64 -7 -222 3 -188 7 -237 25 -310 12 -48 21 -97 21 -110
-1 -13 2 -45 6 -73 3 -27 8 -63 11 -80 23 -168 6 -172 -20 -5 -41 259 -44 264
-45 80 0 -91 4 -192 9 -225 6 -33 21 -121 34 -195 16 -95 20 -137 12 -142 -7
-5 -8 -11 -1 -15 32 -24 56 -115 35 -128 -28 -17 -46 47 -76 275 -10 77 -14
58 -14 -74 0 -93 4 -135 15 -156 17 -34 16 -80 -2 -80 -10 0 -13 -34 -13 -147
0 -144 1 -149 25 -172 27 -25 24 -46 -6 -38 -12 3 -19 0 -19 -8 0 -9 8 -11 22
-7 l21 5 -21 -21 c-22 -22 -22 -25 -22 -458 0 -446 -1 -440 35 -412 65 51 71
59 89 121 23 83 71 142 127 157 22 6 78 11 124 11 64 0 83 3 79 13 -3 8 10 17
33 25 32 10 44 10 76 -4 30 -12 37 -20 37 -43 0 -15 1 -46 3 -70 3 -32 1 -42
-8 -38 -8 3 -16 -2 -19 -10 -3 -9 -11 -12 -17 -8 -8 5 -9 2 -2 -11 6 -10 8
-27 5 -39 -5 -19 -4 -19 11 -7 15 12 17 11 17 -3 0 -9 -8 -16 -20 -16 -11 0
-19 -3 -19 -7 4 -26 -3 -43 -18 -43 -13 0 -14 3 -5 12 15 15 16 32 1 23 -6 -4
-16 1 -24 11 -7 11 -17 16 -21 11 -4 -4 -2 -7 4 -7 7 0 12 -9 12 -21 0 -23 22
-49 42 -49 10 0 9 -3 -2 -10 -10 -6 -20 -3 -33 11 -11 11 -22 18 -25 15 -3 -3
2 -14 11 -24 22 -24 22 -38 0 -21 -18 15 -18 15 3 -36 4 -10 -3 -16 -22 -21
l-27 -7 27 -24 c24 -21 25 -28 3 -24 -4 0 -7 -6 -7 -14 0 -9 9 -15 25 -15 14
0 25 -4 25 -10 0 -5 -7 -10 -16 -10 -19 0 -17 -46 3 -71 18 -22 6 -54 -13 -38
-12 10 -14 7 -12 -19 1 -20 8 -32 20 -35 10 -3 18 -9 18 -15 0 -15 -36 -52
-44 -45 -4 4 -3 -4 2 -18 6 -15 7 -31 1 -40 -11 -18 -11 -32 0 -24 5 3 12 1
15 -4 4 -5 2 -12 -4 -16 -6 -4 -8 -11 -5 -16 4 -5 -3 -9 -13 -9 -11 0 -22 -9
-25 -19 -3 -14 -1 -18 9 -14 8 3 14 0 14 -6 0 -7 -7 -14 -15 -17 -9 -4 -15
-11 -14 -18 3 -27 -2 -38 -16 -33 -8 4 -17 2 -20 -3 -3 -5 4 -12 15 -15 16 -5
18 -10 10 -20 -8 -10 -7 -14 2 -18 10 -4 10 -8 -2 -16 -21 -15 -38 -13 -43 4
-4 11 -4 10 -3 -2 1 -10 11 -19 24 -21 12 -2 22 -7 22 -12 0 -13 -37 -19 -49
-7 -19 19 -12 -8 7 -29 18 -19 18 -20 -7 -41 -14 -13 -29 -23 -32 -23 -4 0 -6
-13 -5 -30 0 -16 -3 -29 -9 -29 -5 0 -9 9 -7 21 2 11 -1 18 -6 14 -6 -3 -12
-1 -14 6 -2 9 -11 5 -25 -10 l-23 -23 31 -6 c26 -5 29 -7 14 -16 -11 -6 -25
-6 -40 1 -18 8 -25 8 -29 -1 -2 -7 -5 -4 -5 6 -1 9 -6 17 -12 17 -6 0 -8 -11
-4 -29 5 -25 3 -29 -20 -35 l-25 -6 20 -22 c25 -27 26 -49 2 -42 -13 4 -12 1
6 -14 22 -21 30 -56 13 -66 -5 -4 -11 0 -14 6 -2 7 -8 9 -13 5 -5 -4 -2 -12 5
-17 8 -4 11 -15 8 -23 -4 -12 -2 -14 10 -10 12 5 13 2 6 -13 -6 -10 -9 -24 -6
-30 5 -14 -28 -14 -46 0 -12 9 -12 8 0 -12 10 -16 21 -22 37 -19 14 3 21 0 19
-7 -2 -6 -9 -11 -14 -11 -6 0 -14 -3 -18 -7 -4 -3 23 -6 59 -7 48 0 66 3 66
13 0 13 49 71 154 183 98 104 250 312 290 398 8 17 24 36 36 43 15 9 19 17 11
25 -11 14 1 41 15 35 5 -1 10 13 11 32 5 60 13 82 28 76 8 -3 15 0 15 6 0 6
10 -1 21 -16 15 -20 25 -24 32 -17 16 16 40 14 34 -2 -4 -10 2 -13 19 -9 14 2
24 0 24 -7 0 -6 -8 -11 -19 -11 -13 0 -18 -7 -18 -25 0 -21 4 -24 28 -21 19 2
30 -2 34 -13 10 -26 10 -27 -31 -30 -14 -1 -14 -3 -3 -17 12 -14 14 -14 20 3
5 10 8 12 8 4 1 -8 8 -11 22 -8 20 5 25 -1 31 -37 4 -26 -46 -28 -74 -4 -16
14 -24 15 -35 7 -7 -6 -13 -8 -13 -4 0 5 -8 -1 -17 -12 -21 -23 -53 -26 -53
-5 0 8 6 12 15 8 8 -3 15 -1 15 4 0 6 -5 10 -11 10 -5 0 -8 4 -5 9 13 21 -24
17 -45 -5 -12 -13 -31 -24 -42 -24 -16 0 -13 -5 14 -24 20 -13 38 -20 43 -15
16 14 36 10 36 -6 0 -18 26 -20 33 -2 4 9 8 8 16 -3 9 -13 11 -13 11 2 0 12 8
16 33 15 17 -1 43 2 55 7 21 7 23 6 17 -13 -4 -12 -2 -21 4 -21 6 0 11 -13 11
-30 0 -17 -5 -30 -12 -30 -9 0 -10 -3 -2 -8 6 -4 10 -18 9 -32 -1 -14 1 -29 5
-35 13 -16 29 -120 20 -123 -13 -5 39 -104 66 -127 17 -14 22 -26 18 -42 -4
-13 -12 -23 -20 -23 -7 0 -12 -6 -10 -12 3 -7 7 -25 10 -40 l6 -28 91 0 c86 0
91 1 86 20 -3 13 3 24 19 35 35 22 57 70 40 84 -7 6 -16 7 -21 3 -4 -4 -4 3 0
16 8 28 -9 52 -39 52 -16 0 -22 7 -24 26 -3 39 -12 47 -32 29 -16 -14 -19 -14
-34 10 -18 28 -56 34 -56 9 0 -13 -3 -14 -14 -5 -12 10 -15 6 -21 -19 -9 -43
-22 -37 -30 13 -3 23 -9 55 -11 70 -5 22 -2 29 13 33 11 3 23 19 29 37 5 18
16 32 24 32 8 0 17 13 21 30 5 26 7 27 14 11 8 -18 9 -18 21 -2 14 20 74 66
85 66 10 0 22 -57 14 -70 -4 -6 -13 -5 -26 3 -17 10 -22 9 -35 -7 -18 -25 -18
-65 0 -72 8 -3 16 -18 20 -35 5 -28 29 -39 41 -19 11 18 25 11 25 -13 0 -13 6
-32 14 -42 12 -16 16 -17 29 -6 9 7 21 10 27 6 18 -11 40 16 40 51 0 32 1 33
35 27 34 -6 35 -5 35 29 0 20 7 41 16 48 19 17 14 60 -9 74 -14 9 -21 7 -31
-6 -19 -25 -37 -7 -30 30 5 27 10 31 33 29 14 -2 42 -11 60 -20 42 -21 51 -21
51 -2 0 8 6 15 14 15 9 0 12 -7 9 -20 -5 -17 0 -20 26 -20 17 0 31 -5 31 -12
0 -6 3 -8 7 -5 3 4 15 0 25 -10 10 -9 21 -13 25 -10 3 4 12 -1 19 -10 10 -15
15 -16 37 -4 44 23 127 -22 107 -59 -7 -12 -5 -27 5 -48 20 -38 10 -62 -24
-62 -15 0 -32 -5 -39 -12 -9 -9 -12 -7 -12 10 0 27 -24 39 -44 23 -12 -10 -15
-8 -18 11 -4 29 -37 36 -55 12 -13 -18 -15 -18 -24 -2 -23 41 -94 3 -82 -43 6
-20 -11 -27 -22 -9 -9 14 -62 12 -71 -2 -5 -7 -7 -25 -6 -40 2 -18 -3 -28 -12
-28 -24 0 -39 -26 -26 -49 7 -14 7 -21 0 -21 -5 0 -10 -9 -10 -19 0 -21 48
-61 74 -61 9 0 21 -11 26 -24 20 -53 -12 -51 972 -54 791 -2 917 -1 912 12 -9
23 14 28 26 6 10 -18 20 -20 134 -20 l123 0 -1 29 c-1 16 -4 27 -7 25 -4 -2
-9 5 -12 16 -3 11 -1 23 5 26 11 7 7 103 -5 119 -26 34 -57 88 -57 98 0 7 -7
23 -16 35 -8 12 -16 40 -17 63 -1 23 -7 43 -14 46 -7 3 -13 12 -13 20 0 8 -4
11 -10 8 -6 -4 -7 6 -4 25 5 20 3 30 -6 30 -7 0 -10 7 -7 15 4 8 0 27 -8 41
-8 15 -12 31 -9 36 3 5 0 16 -8 25 -7 9 -11 17 -9 17 2 1 -2 21 -9 46 -11 41
-21 120 -24 182 0 14 -5 24 -9 21 -4 -2 -5 7 -1 21 3 13 2 31 -2 38 -5 7 -9
24 -10 38 -8 154 -17 440 -15 450 1 3 4 81 6 175 5 177 9 230 24 295 5 21 6
50 4 64 -3 14 1 34 8 43 10 12 10 14 1 9 -7 -4 -12 -1 -12 8 0 9 5 16 11 16 6
0 9 7 6 15 -4 8 -2 17 4 21 6 3 9 16 7 29 -1 12 3 29 9 36 7 8 16 27 22 41 11
31 -6 53 -33 42 -22 -8 -21 12 2 25 14 9 15 12 3 20 -8 5 -10 14 -6 21 5 9 4
11 -3 6 -15 -9 -15 7 -1 21 9 9 8 16 -5 28 -19 19 -19 20 -7 63 6 20 6 30 0
27 -5 -4 -9 4 -9 17 -1 13 -3 56 -7 96 -4 60 -2 80 13 107 19 36 50 55 90 55
14 0 39 7 56 16 47 24 178 15 218 -15 20 -14 30 -17 30 -9 0 8 14 13 40 13 51
1 55 6 33 43 -15 25 -22 28 -37 20 -21 -12 -31 -5 -23 17 4 8 18 15 32 15 18
0 25 5 25 19 0 14 -6 17 -24 14 -18 -4 -25 1 -29 19 -10 35 -9 36 21 40 34 4
27 21 -11 24 -35 2 -41 9 -32 31 5 10 9 25 9 33 1 21 40 19 44 -2 2 -10 -6
-19 -19 -23 -20 -7 -21 -8 -5 -17 22 -12 46 -3 46 17 0 8 9 15 20 15 18 0 20
-4 14 -35 -4 -22 -2 -41 6 -50 9 -10 9 -15 1 -15 -6 0 -10 -12 -10 -27 1 -23
2 -24 6 -6 2 12 10 27 18 33 11 9 17 6 29 -12 51 -77 77 -270 40 -285 -15 -6
-15 -7 1 -19 16 -12 13 -34 -5 -34 -6 0 -22 19 -37 43 -35 54 -38 56 -85 52
-28 -2 -38 1 -38 12 0 8 -4 11 -10 8 -6 -4 2 -30 20 -65 17 -33 30 -66 30 -75
0 -8 5 -15 11 -15 5 0 8 -4 4 -9 -3 -5 -1 -12 4 -16 6 -3 8 -12 5 -19 -3 -8
-1 -17 5 -21 6 -3 11 -19 11 -35 0 -17 7 -33 18 -39 9 -6 12 -11 5 -11 -12 0
-14 -40 -2 -40 7 0 23 -38 21 -50 0 -3 4 -10 10 -17 5 -7 7 -26 3 -43 -4 -19
-3 -30 4 -30 6 0 11 -9 11 -19 0 -11 7 -27 16 -35 8 -9 11 -16 5 -16 -6 0 -11
-4 -11 -10 0 -5 6 -10 13 -10 7 0 13 -8 14 -17 4 -54 8 -70 21 -85 10 -13 11
-18 3 -18 -7 0 -3 -16 12 -42 14 -24 23 -49 20 -55 -3 -7 0 -13 5 -13 8 0 20
-47 24 -97 1 -7 7 -13 15 -13 16 0 16 -5 2 -32 -10 -18 -9 -20 6 -14 13 4 16
2 11 -9 -3 -8 -1 -15 5 -15 6 0 8 -9 4 -20 -4 -13 -2 -20 7 -20 7 0 14 -13 15
-32 1 -17 7 -36 12 -41 7 -7 7 -16 0 -29 -7 -14 -6 -18 6 -18 8 0 20 -12 26
-27 6 -15 16 -41 24 -58 7 -16 16 -44 20 -62 3 -17 13 -34 22 -37 9 -4 13 -13
9 -22 -3 -8 -2 -12 4 -9 6 3 10 1 10 -4 0 -6 -5 -11 -12 -11 -15 0 0 -15 15
-15 7 0 11 -13 10 -28 -1 -15 2 -25 8 -22 5 4 9 -5 9 -19 0 -14 4 -26 9 -26 6
0 10 -8 10 -17 1 -39 28 -177 41 -213 12 -31 17 -270 7 -287 -5 -7 -4 -13 1
-13 4 0 7 -17 4 -37 -2 -21 -4 -51 -4 -66 -1 -19 -6 -26 -15 -23 -10 4 -11 1
-3 -14 12 -23 13 -33 1 -26 -8 5 -12 -5 -26 -56 -2 -5 -3 -15 -4 -24 0 -9 -6
-12 -13 -8 -8 5 -9 2 -5 -9 3 -9 3 -18 -1 -21 -4 -3 -9 -42 -11 -88 -1 -49
-11 -107 -22 -142 -11 -32 -18 -65 -15 -73 3 -8 1 -23 -4 -33 -5 -10 -7 -26
-4 -34 6 -14 89 -16 820 -16 l814 0 0 530 c0 523 0 530 -20 530 -11 0 -20 3
-21 8 0 4 -3 19 -5 35 -3 15 0 27 5 27 6 0 8 7 5 15 -4 8 -10 12 -15 9 -15 -9
-49 16 -49 35 0 10 7 24 16 32 13 10 17 10 25 -2 9 -15 10 -13 13 51 1 30 -9
40 -17 18 -2 -7 -8 -10 -12 -6 -4 4 -2 15 6 25 12 15 12 16 -4 10 -11 -4 -25
-1 -34 8 -8 8 -19 13 -24 10 -5 -4 -9 -2 -9 3 0 6 7 13 16 16 13 5 14 9 4 21
-7 9 -9 19 -5 23 4 4 10 2 12 -4 2 -7 13 -10 23 -7 11 3 17 9 15 14 -3 4 -13
5 -22 2 -11 -4 -14 -2 -11 8 3 8 11 13 17 12 6 -2 11 2 11 8 0 6 -8 8 -19 4
-21 -6 -51 3 -51 16 0 4 7 6 15 3 8 -4 15 -2 15 4 0 6 -12 9 -26 7 -19 -2 -28
3 -31 16 -3 11 -12 19 -19 19 -8 0 -14 5 -14 11 0 5 5 7 10 4 6 -3 10 -2 10 4
0 5 -6 12 -12 15 -10 5 -10 7 0 12 6 3 12 12 12 20 0 9 -4 12 -10 9 -18 -11
-50 15 -50 40 0 14 5 25 11 25 6 0 18 8 27 17 16 16 16 16 0 10 -34 -13 -47
29 -43 133 4 107 15 160 53 270 31 90 65 141 143 222 50 52 59 66 59 97 l0 37
-75 -1 c-79 -2 -95 6 -46 23 20 7 32 7 40 -1 8 -8 11 -6 11 6 0 26 28 32 50
12 20 -18 20 -17 20 40 l0 58 -19 -22 c-11 -13 -22 -28 -23 -33 -5 -15 -48 0
-48 17 0 8 10 17 21 20 12 4 18 10 13 14 -25 18 9 91 43 91 10 0 13 19 13 72
0 70 0 71 -20 53 -26 -23 -26 -8 0 25 18 23 20 43 20 313 0 223 -3 287 -12
287 -10 0 -9 3 1 9 12 8 12 65 -1 174 -2 12 -11 17 -36 17 -28 0 -32 -3 -27
-19 5 -17 2 -18 -34 -8 -46 13 -61 5 -37 -18 18 -18 22 -40 6 -30 -16 10 -79
-17 -86 -37 -3 -10 -16 -21 -30 -24 -22 -6 -23 -8 -11 -23 9 -10 13 -28 10
-49 -4 -23 0 -39 12 -52 10 -11 14 -20 9 -20 -6 0 -14 -14 -19 -32 -6 -17 -16
-34 -24 -36 -8 -3 -11 0 -8 5 8 12 -10 39 -20 30 -4 -5 -3 -11 3 -15 5 -4 9
-13 8 -19 -1 -7 -2 -17 -3 -23 0 -5 -8 -10 -16 -10 -10 0 -15 10 -15 29 0 16
-6 34 -14 40 -14 12 -28 76 -27 124 1 15 -2 27 -6 27 -5 0 -37 -32 -73 -71
-36 -39 -87 -93 -113 -120 -45 -47 -52 -69 -22 -69 7 0 15 -3 17 -7 2 -5 23
-26 47 -48 35 -32 42 -36 37 -18 -7 20 -4 22 31 17 54 -8 65 -12 58 -24 -4 -6
6 -10 24 -10 17 0 31 -4 31 -10 0 -19 25 -5 65 35 51 52 75 70 75 58 0 -6 -11
-23 -25 -39 -33 -37 -30 -69 7 -69 33 0 43 -9 33 -32 -5 -10 -8 -20 -7 -23 0
-3 3 -58 7 -123 l6 -117 -28 -11 c-15 -6 -43 -13 -61 -14 -40 -3 -55 -16 -46
-38 7 -18 44 -23 60 -7 18 18 59 -36 48 -65 -7 -17 -30 -20 -39 -5 -9 15 -41
12 -55 -5 -7 -8 -21 -15 -31 -15 -11 0 -19 -4 -19 -9 0 -4 -24 -8 -54 -8 -41
0 -53 4 -49 14 3 7 8 11 12 9 3 -2 19 2 35 9 28 12 28 12 -25 18 -29 4 -59 13
-68 21 -16 16 -18 14 35 31 13 4 14 8 4 20 -11 14 -15 14 -37 0 -18 -12 -28
-13 -44 -4 -12 6 -37 9 -56 6 -22 -4 -31 -2 -27 5 13 21 9 53 -9 67 -21 15
-36 6 -19 -11 18 -18 15 -23 -13 -24 -14 -1 -25 2 -25 7 0 5 3 9 8 9 4 0 7 11
7 24 0 13 -3 22 -7 19 -5 -2 -8 10 -8 26 0 17 -4 31 -10 31 -5 0 -10 9 -10 20
0 11 -7 20 -15 20 -8 0 -15 5 -15 10 0 9 29 14 68 13 22 -1 13 20 -24 58 -31
32 -39 36 -50 24 -18 -18 -18 -25 2 -25 14 0 14 -2 -1 -16 -9 -9 -14 -23 -11
-31 4 -9 1 -13 -6 -10 -7 2 -12 15 -11 28 l2 24 -16 -22 c-9 -14 -26 -23 -41
-23 -14 0 -34 -8 -44 -17 -17 -15 -20 -15 -28 -3 -6 8 -10 25 -10 37 0 12 -6
26 -12 30 -7 4 -13 27 -14 51 -1 67 -9 65 -71 -17 -6 -9 -15 -13 -19 -9 -4 4
11 29 32 55 60 74 94 107 101 99 4 -3 -6 -20 -22 -36 -33 -35 -24 -39 57 -26
23 4 35 12 34 20 -3 22 -26 45 -48 48 -19 3 -16 9 25 57 26 30 47 58 47 62 0
4 -14 21 -30 39 -16 18 -30 36 -30 41 0 5 -5 9 -11 9 -5 0 -23 14 -39 32 l-30
32 -25 -24 c-33 -31 -32 -13 1 24 l26 30 118 -122 c65 -67 133 -130 150 -140
l31 -20 45 48 c24 26 44 51 44 56 0 18 -78 96 -89 89 -7 -4 -17 7 -26 27 -8
18 -15 29 -15 23 0 -5 -8 3 -16 18 -11 21 -20 26 -35 22 -14 -5 -17 -3 -13 9
4 11 0 16 -12 17 -11 1 -1 5 21 8 42 7 56 4 39 -7 -7 -4 8 -25 37 -53 27 -25
50 -42 51 -38 2 4 12 9 23 11 22 3 34 -30 15 -42 -8 -5 -4 -15 16 -33 l28 -26
37 32 c20 18 42 44 47 60 6 15 16 27 21 27 23 0 9 28 -31 63 -23 20 -46 37
-51 37 -5 0 -4 7 3 15 7 8 18 14 24 13 12 -3 16 4 16 28 0 10 -7 14 -22 12
-15 -2 -23 2 -23 12 0 11 17 17 60 24 33 4 84 16 113 26 28 10 52 14 52 8 0
-5 5 -6 10 -3 6 3 10 1 10 -6 0 -15 56 -4 75 15 8 7 42 16 77 20 35 4 73 10
86 13 26 6 30 37 7 59 -8 9 -15 22 -15 31 0 13 2 13 17 2 15 -13 16 -11 10 11
-4 14 -7 29 -7 33 0 7 -19 4 -58 -10 -8 -4 -10 0 -6 11 4 10 18 16 40 16 47 0
43 17 -7 27 -22 4 -39 13 -37 18 2 6 7 9 12 7 18 -6 46 10 44 26 -2 9 3 16 10
15 16 -4 16 24 0 30 -10 4 -10 6 0 6 6 1 12 10 12 21 0 13 -5 18 -15 14 -8 -4
-15 -1 -15 5 0 6 5 11 11 11 6 0 9 7 5 15 -3 8 -1 15 4 15 6 0 10 30 10 66 0
55 -3 65 -15 60 -10 -4 -15 1 -15 14 0 22 16 27 23 8 2 -7 5 23 6 66 0 43 -4
85 -9 92 -8 8 -8 14 0 19 5 3 10 33 10 66 l0 59 -1705 0 c-1681 0 -1705 0
-1705 -19 0 -11 5 -23 11 -26 6 -4 8 -13 5 -21 -3 -7 3 -18 12 -23 9 -5 17
-13 16 -18 -2 -12 19 -43 29 -43 13 0 67 -63 61 -72 -3 -4 -1 -8 4 -8 11 0 34
-99 25 -112 -3 -7 -1 -8 5 -4 7 4 12 3 12 -3 0 -5 -5 -13 -11 -17 -7 -4 -8
-20 -4 -43 12 -59 12 -91 1 -91 -6 0 -29 12 -50 26 -69 47 -172 64 -192 33 -3
-5 -14 -9 -24 -9 -18 0 -61 -21 -137 -66 -53 -31 -72 -94 -28 -94 42 0 168 59
258 120 l41 28 42 -23 c23 -12 54 -34 69 -49 14 -14 30 -26 35 -26 8 0 23 -48
24 -80 1 -8 7 -14 14 -12 6 1 12 -2 12 -7 0 -5 -6 -11 -12 -14 -9 -3 -4 -11
12 -25 21 -18 22 -21 7 -22 -14 0 -13 -5 9 -30 28 -31 30 -41 38 -200 4 -86 2
-104 -26 -190 -17 -52 -35 -99 -40 -105 -4 -5 -8 -16 -8 -26 0 -9 -9 -28 -20
-42 -11 -14 -20 -34 -20 -44 0 -11 -8 -28 -17 -39 -10 -10 -18 -30 -17 -44 0
-14 -3 -32 -7 -40 -18 -43 -43 -83 -64 -106 -34 -37 -52 -82 -59 -149 -3 -33
-11 -61 -16 -63 -6 -2 -10 -11 -10 -19 0 -9 -11 -26 -25 -39 -14 -13 -25 -32
-25 -44 0 -11 -7 -20 -15 -20 -8 0 -15 -9 -15 -20 0 -11 -4 -20 -8 -20 -5 0
-14 -11 -20 -25 -7 -15 -20 -25 -32 -25 -11 0 -20 -4 -20 -9 0 -5 -12 -12 -27
-16 -15 -3 -30 -11 -33 -16 -5 -8 -72 -20 -130 -23 -14 -1 -30 -5 -37 -9 -6
-4 -39 -3 -72 1 -43 6 -59 6 -51 -2 15 -15 12 -36 -6 -36 -11 0 -14 -6 -9 -21
5 -15 4 -19 -5 -14 -7 4 -5 -5 4 -24 9 -17 21 -31 27 -31 6 0 8 -4 4 -10 -3
-5 8 -16 25 -25 31 -16 38 -29 20 -40 -17 -10 -11 -23 8 -18 13 3 28 -7 48
-33 16 -21 41 -51 56 -66 17 -18 22 -28 12 -28 -19 0 -18 -27 1 -38 22 -12 9
-37 -30 -61 l-33 -19 -11 24 c-13 29 -46 31 -63 5 -9 -15 -16 -17 -25 -10 -20
17 -55 1 -48 -22 4 -13 2 -19 -8 -19 -8 0 -22 -20 -31 -45 -16 -41 -20 -44
-44 -39 -15 4 -34 13 -43 20 -8 8 -32 14 -53 14 -20 0 -35 4 -32 9 3 5 24 7
46 4 32 -5 40 -2 40 10 0 10 6 13 20 10 13 -4 20 0 20 9 0 8 16 20 36 27 24 9
34 18 30 27 -3 9 1 14 12 14 15 1 15 2 -2 15 -19 14 -19 15 -2 15 16 0 66 42
66 55 0 4 -56 -2 -98 -11 -13 -2 -20 -9 -17 -14 9 -14 -13 -50 -30 -50 -8 0
-20 -12 -27 -27 -10 -21 -23 -29 -51 -34 -27 -4 -37 -2 -37 8 0 9 8 11 25 7
28 -7 59 12 51 32 -3 7 8 17 25 23 39 14 36 45 -5 49 -38 5 -144 -35 -179 -66
-29 -27 -57 -37 -57 -20 0 23 -107 119 -166 150 -61 31 -76 49 -54 63 5 3 10
-1 10 -9 0 -9 4 -16 8 -16 12 0 115 63 139 86 12 10 37 30 57 44 20 14 49 45
63 69 24 40 27 54 27 150 1 112 -5 181 -15 175 -7 -4 -106 106 -134 150 -11
17 -36 60 -55 96 -29 53 -41 66 -65 70 -42 7 -61 20 -79 54 -10 20 -12 36 -6
52 8 19 5 26 -10 34 -11 6 -20 21 -20 35 0 18 7 25 30 30 38 8 40 26 3 19 -21
-4 -31 0 -41 16 -15 25 -8 40 20 40 16 0 19 4 14 23 -49 168 -51 180 -51 357
0 96 5 200 11 231 5 31 8 81 6 110 -2 30 -3 64 -4 77 0 12 -3 22 -7 22 -4 0
-8 26 -9 58 -2 50 4 69 48 157 28 55 52 111 55 123 2 13 14 32 27 42 23 20 22
20 -200 19 -123 0 -221 -3 -218 -6z"/>
<path fill="#ffffff" stroke="none" d="M5679 4446 c-1 -12 1 -28 4 -36 3 -8
11 -64 17 -125 6 -60 13 -118 16 -129 4 -11 2 -16 -4 -12 -6 3 -13 2 -17 -4
-3 -5 1 -10 9 -10 12 0 16 -11 17 -37 2 -48 5 -71 18 -155 6 -36 14 -90 17
-120 3 -29 8 -56 10 -60 3 -4 27 -4 54 -1 31 3 50 2 50 -4 0 -6 -28 -13 -62
-17 -34 -3 -64 -10 -67 -14 -3 -4 -22 -5 -41 -2 -26 4 -31 7 -17 12 27 11 20
25 -18 38 -23 8 -40 8 -53 1 -14 -7 -24 -7 -37 3 -18 13 -17 14 6 27 13 7 44
16 69 19 44 5 45 6 46 40 0 19 -3 57 -8 85 -5 27 -10 82 -13 120 -2 39 -7 88
-10 110 -3 22 -11 81 -18 130 -14 101 -12 99 -104 85 -26 -4 -91 -11 -143 -15
-98 -7 -141 -11 -150 -16 -3 -1 -23 -3 -45 -4 -22 -1 -53 -4 -70 -8 -16 -3
-66 -9 -110 -13 -44 -5 -84 -9 -90 -9 -5 -1 -41 -5 -80 -10 -38 -4 -78 -12
-87 -17 -22 -11 -23 -41 -2 -73 10 -16 14 -34 10 -50 -4 -14 -2 -25 3 -25 5 0
10 -8 10 -17 2 -85 14 -201 26 -249 2 -12 7 -72 11 -135 3 -62 7 -117 10 -121
6 -9 65 1 78 13 6 6 5 9 -2 9 -22 0 -12 18 23 40 24 15 47 20 77 18 40 -3 43
-5 43 -31 -1 -20 3 -26 15 -23 13 4 42 8 160 21 30 3 60 17 60 27 0 5 -6 8
-14 5 -23 -9 -15 62 8 75 20 11 131 16 142 6 13 -14 -29 -42 -57 -39 -41 4
-69 -8 -69 -29 0 -10 9 -21 20 -25 31 -10 143 5 161 21 8 8 21 14 28 14 7 0
19 7 28 15 10 10 19 12 27 6 6 -5 27 -12 46 -14 19 -3 37 -6 40 -6 3 -1 -13
-10 -34 -22 -21 -11 -43 -18 -49 -16 -7 2 -24 -2 -39 -9 -21 -11 -33 -11 -53
-2 -18 8 -31 8 -49 0 -13 -6 -44 -13 -69 -17 -26 -4 -51 -13 -57 -20 -6 -7
-20 -11 -30 -8 -11 3 -20 1 -20 -3 0 -5 -20 -8 -45 -6 -25 2 -45 9 -45 14 0 6
-5 6 -14 -1 -8 -7 -51 -12 -105 -13 -49 0 -101 -6 -113 -12 -13 -6 -47 -10
-75 -8 -59 4 -55 -4 -56 110 0 28 -4 52 -9 52 -4 0 -7 10 -7 23 1 33 -9 136
-15 145 -3 5 -8 46 -11 93 -7 87 -12 134 -15 134 -2 0 -7 39 -15 118 -3 35 -2
56 4 53 5 -3 12 1 15 10 4 9 13 14 21 10 8 -3 15 -2 15 3 0 8 76 17 212 26 37
3 85 9 109 14 23 5 48 7 55 4 8 -3 14 -1 14 3 0 10 29 13 128 15 34 1 62 6 62
10 0 5 7 9 16 9 8 0 12 -4 9 -10 -9 -14 2 -12 29 5 16 11 53 16 114 18 51 1
92 5 92 8 0 3 14 6 30 6 25 0 31 -4 29 -21z"/>
<path fill="#ffffff" stroke="none" d="M4324 4388 c5 -28 17 -131 32 -278 2
-19 8 -66 13 -105 9 -65 12 -89 26 -200 3 -22 7 -50 10 -61 4 -16 -1 -23 -18
-28 -35 -9 -47 -7 -47 8 0 8 -6 17 -12 19 -10 4 -9 8 2 16 12 8 12 13 2 23 -9
9 -12 9 -12 -3 -1 -7 -8 6 -17 31 -8 25 -20 51 -26 58 -6 8 -10 30 -9 50 3 40
-32 340 -40 348 -3 2 -59 -1 -124 -7 -85 -8 -123 -16 -131 -27 -14 -17 -15
-17 -30 18 -6 15 -7 34 -2 48 5 13 6 36 3 50 -4 21 -3 24 5 12 9 -13 11 -13
11 3 0 9 3 18 8 18 20 4 52 8 107 14 33 3 83 10 110 14 28 5 69 9 91 10 40 1
42 -1 48 -31z"/>
<path fill="#ffffff" stroke="none" d="M3446 4213 c7 -10 17 -19 23 -19 6 -1
17 -2 25 -3 9 -1 17 -18 22 -46 3 -26 11 -44 17 -42 25 8 109 -135 121 -204 6
-38 145 -471 156 -489 27 -44 41 -82 76 -210 20 -72 35 -163 28 -170 -5 -4
-63 -15 -129 -23 -105 -14 -122 -14 -136 -1 -19 17 -42 9 -99 -32 l-35 -26 -2
44 c-4 67 -25 178 -35 178 -4 0 -8 6 -8 13 0 7 -8 22 -18 33 -36 39 -50 95
-51 213 -1 63 -3 117 -6 121 -9 14 22 256 37 284 13 26 13 32 -1 60 -18 37
-17 137 3 177 8 16 10 32 5 40 -20 32 -8 43 17 14 l26 -30 -20 30 c-16 25 -42
88 -42 101 0 10 14 2 26 -13z"/>
<path fill="#ffffff" stroke="none" d="M1080 4187 c0 -18 -2 -19 -10 -7 -13
20 -13 43 0 35 6 -3 10 -16 10 -28z"/>
<path fill="#ffffff" stroke="none" d="M3430 4160 c0 -5 -2 -10 -4 -10 -3 0
-8 5 -11 10 -3 6 -1 10 4 10 6 0 11 -4 11 -10z"/>
<path fill="#ffffff" stroke="none" d="M1047 4135 c-13 -10 -15 -14 -5 -18 9
-4 7 -6 -4 -6 -27 -1 -30 16 -6 33 26 19 41 10 15 -9z"/>
<path fill="#ffffff" stroke="none" d="M5968 4045 c0 -13 -4 -22 -9 -19 -5 3
-9 14 -9 25 0 10 4 19 9 19 5 0 9 -11 9 -25z"/>
<path fill="#ffffff" stroke="none" d="M5990 4010 c0 -5 -2 -10 -4 -10 -3 0
-8 5 -11 10 -3 6 -1 10 4 10 6 0 11 -4 11 -10z"/>
<path fill="#ffffff" stroke="none" d="M5960 3980 c0 -5 -5 -10 -11 -10 -5 0
-7 5 -4 10 3 6 8 10 11 10 2 0 4 -4 4 -10z"/>
<path fill="#ffffff" stroke="none" d="M5183 3846 c9 16 16 24 17 17 0 -6 3
-18 6 -27 4 -11 1 -16 -10 -16 -9 0 -16 -4 -16 -10 0 -19 -28 -10 -33 11 -3
12 -10 18 -15 15 -13 -8 -42 3 -42 16 0 5 4 6 10 3 5 -3 18 -2 27 4 15 8 20 5
29 -16 l11 -27 16 30z"/>
<path fill="#ffffff" stroke="none" d="M5230 3860 c0 -5 -5 -10 -11 -10 -5 0
-7 5 -4 10 3 6 8 10 11 10 2 0 4 -4 4 -10z"/>
<path fill="#ffffff" stroke="none" d="M1025 3792 c-6 -39 -9 -43 -16 -25 -4
12 -3 38 3 60 14 49 22 26 13 -35z"/>
<path fill="#ffffff" stroke="none" d="M5940 3850 c0 -5 -2 -10 -4 -10 -3 0
-8 5 -11 10 -3 6 -1 10 4 10 6 0 11 -4 11 -10z"/>
<path fill="#ffffff" stroke="none" d="M697 3803 c-3 -10 -5 -2 -5 17 0 19 2
27 5 18 2 -10 2 -26 0 -35z"/>
<path fill="#ffffff" stroke="none" d="M5050 3836 c0 -3 -4 -8 -10 -11 -5 -3
-10 -1 -10 4 0 6 5 11 10 11 6 0 10 -2 10 -4z"/>
<path fill="#ffffff" stroke="none" d="M5084 3825 c3 -8 1 -15 -4 -15 -6 0
-10 7 -10 15 0 8 2 15 4 15 2 0 6 -7 10 -15z"/>
<path fill="#ffffff" stroke="none" d="M1000 3713 c12 -38 23 -104 26 -148 5
-114 9 -134 37 -186 34 -64 42 -90 24 -83 -10 3 -16 -5 -21 -27 -11 -54 -7
-79 20 -132 24 -48 24 -52 8 -64 -30 -22 -48 -15 -97 35 -42 43 -47 53 -52
107 -4 33 -9 67 -12 75 -3 8 -7 35 -9 60 -7 77 -25 165 -37 173 -9 6 -9 10 1
14 9 3 7 12 -8 31 -14 17 -17 28 -10 32 6 4 10 11 9 16 -7 39 5 69 47 114 26
28 48 50 50 50 2 0 13 -30 24 -67z"/>
<path fill="#ffffff" stroke="none" d="M5910 3754 c0 -2 -7 -4 -15 -4 -8 0
-15 4 -15 10 0 5 7 7 15 4 8 -4 15 -8 15 -10z"/>
<path fill="#ffffff" stroke="none" d="M5957 3764 c-3 -3 -12 -4 -19 -1 -8 3
-5 6 6 6 11 1 17 -2 13 -5z"/>
<path fill="#ffffff" stroke="none" d="M857 3728 c-3 -8 -6 -5 -6 6 -1 11 2
17 5 13 3 -3 4 -12 1 -19z"/>
<path fill="#ffffff" stroke="none" d="M3947 3664 c-9 -9 -28 6 -21 18 4 6 10
6 17 -1 6 -6 8 -13 4 -17z"/>
<path fill="#ffffff" stroke="none" d="M4735 3599 c-30 -5 -54 -4 -59 1 -7 7
12 10 50 9 l59 -1 -50 -9z"/>
<path fill="#ffffff" stroke="none" d="M5190 3602 c0 -14 -11 -21 -26 -15 -8
3 -11 9 -8 14 7 11 34 12 34 1z"/>
<path fill="#ffffff" stroke="none" d="M4615 3590 c-3 -5 -14 -10 -23 -10 -15
0 -15 2 -2 10 20 13 33 13 25 0z"/>
<path fill="#ffffff" stroke="none" d="M4663 3593 c-7 -2 -19 -2 -25 0 -7 3
-2 5 12 5 14 0 19 -2 13 -5z"/>
<path fill="#ffffff" stroke="none" d="M4523 3561 c-2 -11 2 -21 7 -21 6 0 6
-7 -1 -19 -13 -20 -41 -18 -60 5 -7 8 -30 14 -57 14 -44 0 -45 1 -29 17 15 15
104 34 132 28 6 -1 9 -12 8 -24z"/>
<path fill="#ffffff" stroke="none" d="M4568 3571 c3 -8 -1 -12 -9 -9 -7 2
-15 10 -17 17 -3 8 1 12 9 9 7 -2 15 -10 17 -17z"/>
<path fill="#ffffff" stroke="none" d="M4940 3581 c0 -10 -30 -24 -37 -17 -3
3 -2 9 2 15 8 13 35 15 35 2z"/>
<path fill="#ffffff" stroke="none" d="M4043 3546 c14 -13 42 -49 62 -80 20
-31 40 -54 45 -51 11 7 40 -5 40 -16 0 -5 -6 -9 -14 -9 -7 0 -27 -7 -42 -15
-37 -19 -47 -19 -70 3 -30 27 -45 70 -38 108 5 27 3 34 -10 34 -10 0 -13 6
-10 15 4 8 1 15 -5 15 -6 0 -11 5 -11 10 0 18 26 11 53 -14z"/>
<path fill="#ffffff" stroke="none" d="M4861 3515 c3 -48 -6 -66 -27 -58 -11
4 -15 16 -12 38 2 19 -2 37 -11 46 -13 12 -12 14 10 20 32 8 37 2 40 -46z"/>
<path fill="#ffffff" stroke="none" d="M4138 3516 c-15 -11 -16 -15 -2 -41 14
-28 11 -47 -5 -29 -13 14 -30 72 -24 78 4 3 16 6 27 6 19 -1 20 -2 4 -14z"/>
<path fill="#ffffff" stroke="none" d="M6027 3524 c-3 -3 -12 -4 -19 -1 -8 3
-5 6 6 6 11 1 17 -2 13 -5z"/>
<path fill="#ffffff" stroke="none" d="M4380 3490 c0 -17 -38 -39 -68 -38 -42
1 -41 13 5 37 35 17 63 18 63 1z"/>
<path fill="#ffffff" stroke="none" d="M5545 3501 c3 -5 1 -12 -5 -16 -5 -3
-10 1 -10 9 0 18 6 21 15 7z"/>
<path fill="#ffffff" stroke="none" d="M5252 3472 c-19 -6 -44 6 -37 18 4 7
14 6 28 -2 14 -7 17 -13 9 -16z"/>
<path fill="#ffffff" stroke="none" d="M5510 3483 c-1 -18 -18 -35 -24 -24 -4
6 -4 16 -1 21 7 12 25 13 25 3z"/>
<path fill="#ffffff" stroke="none" d="M139 3412 c7 -26 14 -72 16 -102 8 -96
15 -164 20 -195 3 -17 2 -25 -3 -20 -12 13 -62 288 -62 338 0 50 15 39 29 -21z"/>
<path fill="#ffffff" stroke="none" d="M5185 3450 c3 -5 1 -10 -4 -10 -6 0
-11 5 -11 10 0 6 2 10 4 10 3 0 8 -4 11 -10z"/>
<path fill="#ffffff" stroke="none" d="M5455 3450 c3 -5 1 -10 -4 -10 -6 0
-11 5 -11 10 0 6 2 10 4 10 3 0 8 -4 11 -10z"/>
<path fill="#ffffff" stroke="none" d="M5530 3450 c0 -5 -5 -10 -11 -10 -5 0
-7 5 -4 10 3 6 8 10 11 10 2 0 4 -4 4 -10z"/>
<path fill="#ffffff" stroke="none" d="M5990 3450 c0 -5 -2 -10 -4 -10 -3 0
-8 5 -11 10 -3 6 -1 10 4 10 6 0 11 -4 11 -10z"/>
<path fill="#ffffff" stroke="none" d="M5270 3435 c0 -8 -7 -15 -15 -15 -9 0
-12 6 -9 15 4 8 10 15 15 15 5 0 9 -7 9 -15z"/>
<path fill="#ffffff" stroke="none" d="M4874 3406 c-9 -15 -19 -24 -22 -22 -2
3 3 17 12 32 10 14 20 23 23 21 2 -3 -3 -17 -13 -31z"/>
<path fill="#ffffff" stroke="none" d="M5318 3429 c-2 -6 -8 -10 -13 -10 -5 0
-11 4 -13 10 -2 6 4 11 13 11 9 0 15 -5 13 -11z"/>
<path fill="#ffffff" stroke="none" d="M5352 3400 c3 -27 -17 -37 -42 -20 -13
9 -13 12 3 24 9 7 17 19 17 27 0 22 19 -4 22 -31z"/>
<path fill="#ffffff" stroke="none" d="M5215 3410 c3 -5 1 -10 -4 -10 -6 0
-11 5 -11 10 0 6 2 10 4 10 3 0 8 -4 11 -10z"/>
<path fill="#ffffff" stroke="none" d="M4814 3391 c7 -10 -141 -7 -151 3 -4 3
28 6 70 6 42 0 78 -4 81 -9z"/>
<path fill="#ffffff" stroke="none" d="M4850 3369 c0 -12 -40 -48 -53 -49 -10
0 35 59 46 59 4 1 7 -4 7 -10z"/>
<path fill="#ffffff" stroke="none" d="M5040 3370 c0 -5 -4 -10 -10 -10 -5 0
-10 5 -10 10 0 6 5 10 10 10 6 0 10 -4 10 -10z"/>
<path fill="#ffffff" stroke="none" d="M3870 3350 c0 -5 -2 -10 -4 -10 -3 0
-8 5 -11 10 -3 6 -1 10 4 10 6 0 11 -4 11 -10z"/>
<path fill="#ffffff" stroke="none" d="M4906 3234 c-64 -64 -119 -115 -122
-112 -2 3 47 58 111 123 64 65 118 115 121 112 3 -3 -47 -58 -110 -123z"/>
<path fill="#ffffff" stroke="none" d="M4690 3340 c0 -5 -2 -10 -4 -10 -3 0
-8 5 -11 10 -3 6 -1 10 4 10 6 0 11 -4 11 -10z"/>
<path fill="#ffffff" stroke="none" d="M5290 3329 c0 -5 -7 -9 -15 -9 -8 0
-15 7 -15 15 0 9 6 12 15 9 8 -4 15 -10 15 -15z"/>
<path fill="#ffffff" stroke="none" d="M5367 3333 c3 -7 -4 -9 -16 -6 -12 3
-18 9 -15 15 7 11 26 6 31 -9z"/>
<path fill="#ffffff" stroke="none" d="M5438 3314 c-2 -13 -11 -18 -23 -16
-28 5 -29 8 -8 30 20 21 37 14 31 -14z"/>
<path fill="#ffffff" stroke="none" d="M4870 3331 c0 -5 -7 -11 -15 -15 -15
-5 -20 5 -8 17 9 10 23 9 23 -2z"/>
<path fill="#ffffff" stroke="none" d="M5902 3318 c-7 -7 -12 -8 -12 -2 0 14
12 26 19 19 2 -3 -1 -11 -7 -17z"/>
<path fill="#ffffff" stroke="none" d="M4790 3310 c0 -5 -4 -10 -10 -10 -5 0
-10 5 -10 10 0 6 5 10 10 10 6 0 10 -4 10 -10z"/>
<path fill="#ffffff" stroke="none" d="M4900 3305 c7 -8 8 -15 2 -15 -5 0 -15
7 -22 15 -7 8 -8 15 -2 15 5 0 15 -7 22 -15z"/>
<path fill="#ffffff" stroke="none" d="M5825 3310 c3 -5 1 -10 -4 -10 -6 0
-11 5 -11 10 0 6 2 10 4 10 3 0 8 -4 11 -10z"/>
<path fill="#ffffff" stroke="none" d="M5340 3294 c0 -2 -7 -4 -15 -4 -8 0
-15 4 -15 10 0 5 7 7 15 4 8 -4 15 -8 15 -10z"/>
<path fill="#ffffff" stroke="none" d="M5882 3287 c-9 -10 -8 -18 3 -33 12
-18 11 -22 -6 -32 -17 -11 -19 -9 -19 17 0 17 -5 33 -11 37 -7 4 -2 11 13 18
27 15 35 12 20 -7z"/>
<path fill="#ffffff" stroke="none" d="M4785 3260 c3 -5 1 -10 -4 -10 -6 0
-11 5 -11 10 0 6 2 10 4 10 3 0 8 -4 11 -10z"/>
<path fill="#ffffff" stroke="none" d="M5370 3260 c0 -5 -4 -10 -10 -10 -5 0
-10 5 -10 10 0 6 5 10 10 10 6 0 10 -4 10 -10z"/>
<path fill="#ffffff" stroke="none" d="M790 3245 c0 -8 -2 -15 -4 -15 -2 0 -6
7 -10 15 -3 8 -1 15 4 15 6 0 10 -7 10 -15z"/>
<path fill="#ffffff" stroke="none" d="M4805 3240 c3 -5 1 -10 -4 -10 -6 0
-11 5 -11 10 0 6 2 10 4 10 3 0 8 -4 11 -10z"/>
<path fill="#ffffff" stroke="none" d="M5801 3234 c10 -13 10 -17 -2 -25 -23
-14 -29 -11 -29 16 0 29 12 32 31 9z"/>
<path fill="#ffffff" stroke="none" d="M1166 3163 c5 -35 -12 -54 -28 -32 -8
11 -9 10 -4 -3 9 -29 -10 -29 -24 0 -14 28 -24 82 -15 82 3 0 10 -10 15 -22
l9 -23 0 23 c1 16 5 21 14 16 9 -6 9 -4 -1 8 -10 13 -10 17 0 20 15 6 28 -22
34 -69z"/>
<path fill="#ffffff" stroke="none" d="M4835 3220 c3 -5 2 -10 -4 -10 -5 0
-13 5 -16 10 -3 6 -2 10 4 10 5 0 13 -4 16 -10z"/>
<path fill="#ffffff" stroke="none" d="M5920 3220 c0 -5 -2 -10 -4 -10 -3 0
-8 5 -11 10 -3 6 -1 10 4 10 6 0 11 -4 11 -10z"/>
<path fill="#ffffff" stroke="none" d="M5852 3188 c-7 -7 -12 -8 -12 -2 0 14
12 26 19 19 2 -3 -1 -11 -7 -17z"/>
<path fill="#ffffff" stroke="none" d="M5960 3180 c0 -5 -2 -10 -4 -10 -3 0
-8 5 -11 10 -3 6 -1 10 4 10 6 0 11 -4 11 -10z"/>
<path fill="#ffffff" stroke="none" d="M5762 3128 c-8 -8 -12 -9 -12 -1 0 6
-3 20 -6 30 -7 17 -6 17 12 1 14 -14 16 -20 6 -30z"/>
<path fill="#ffffff" stroke="none" d="M815 3146 c19 8 27 -12 10 -26 -19 -15
-35 -4 -34 23 0 12 3 17 5 10 3 -7 11 -10 19 -7z"/>
<path fill="#ffffff" stroke="none" d="M5567 3144 c-3 -3 -12 -4 -19 -1 -8 3
-5 6 6 6 11 1 17 -2 13 -5z"/>
<path fill="#ffffff" stroke="none" d="M5870 3129 c0 -5 -4 -9 -10 -9 -5 0
-10 7 -10 16 0 8 5 12 10 9 6 -3 10 -10 10 -16z"/>
<path fill="#ffffff" stroke="none" d="M5931 3135 c0 -5 -9 -11 -21 -13 -15
-3 -18 1 -14 13 7 17 35 17 35 0z"/>
<path fill="#ffffff" stroke="none" d="M6026 3113 c-8 -8 -36 5 -36 17 0 7 6
7 21 0 11 -7 18 -14 15 -17z"/>
<path fill="#ffffff" stroke="none" d="M1281 3082 c-13 -4 -5 -22 10 -22 6 0
7 5 4 10 -12 19 11 10 44 -18 24 -20 34 -38 37 -65 3 -21 0 -37 -6 -37 -30 0
-144 46 -164 67 -22 22 -24 22 -19 4 7 -27 60 -57 135 -78 l60 -17 -5 -43 c-2
-24 -1 -43 4 -43 5 0 9 18 9 40 0 22 5 40 10 40 6 0 10 -6 10 -12 0 -7 16 -28
35 -47 37 -36 41 -46 25 -56 -6 -4 -3 -16 10 -32 11 -14 20 -31 20 -39 0 -7 6
-14 13 -17 9 -3 9 -7 -2 -20 -13 -16 -12 -35 3 -97 5 -22 9 -43 21 -125 1 -11
3 -23 4 -27 0 -5 15 -8 31 -8 21 0 30 -5 30 -16 0 -10 -6 -14 -14 -11 -17 7
-28 -16 -19 -40 6 -16 4 -16 -16 2 -12 11 -30 32 -39 47 -9 16 -22 28 -29 28
-25 0 -88 126 -103 205 -4 24 -8 31 -9 16 -1 -20 -5 -22 -23 -16 -13 4 -41 9
-64 11 -33 2 -48 -3 -77 -27 -19 -16 -41 -45 -47 -64 -10 -29 -16 -35 -40 -35
-23 0 -27 -3 -23 -20 4 -14 14 -20 34 -20 22 0 30 -6 35 -24 3 -14 3 -29 0
-34 -3 -5 13 -8 36 -8 36 1 43 -3 59 -32 11 -18 18 -36 17 -40 -1 -4 3 -17 10
-28 6 -12 8 -25 4 -29 -4 -5 1 -5 10 -2 11 4 21 0 27 -12 12 -22 5 -32 -17
-24 -11 5 -14 2 -9 -10 3 -9 2 -17 -3 -17 -6 0 -10 5 -10 10 0 6 -5 10 -12 10
-9 0 -9 -3 0 -12 15 -15 16 -38 1 -38 -5 0 -7 4 -4 10 3 5 0 7 -9 4 -11 -4
-14 1 -12 20 4 34 -10 55 -19 27 -3 -11 -12 -21 -18 -21 -7 0 -6 -5 3 -11 12
-8 10 -9 -10 -5 -14 4 -44 9 -67 12 -35 6 -43 4 -43 -9 0 -22 19 -31 26 -12 5
12 9 13 20 4 16 -13 19 -39 4 -39 -5 0 -7 -6 -4 -14 3 -8 -3 -16 -15 -19 -11
-3 -22 0 -24 7 -3 7 -11 4 -23 -8 -19 -18 -18 -18 2 -12 15 4 24 2 28 -9 4
-12 -3 -15 -34 -15 -21 0 -42 5 -45 10 -3 6 1 10 9 10 10 0 13 6 9 15 -6 18
-29 14 -26 -4 4 -14 2 -14 -46 7 -39 18 -40 19 -18 30 12 6 32 14 44 17 15 4
20 11 16 22 -5 12 -1 14 14 9 13 -4 28 1 44 15 13 11 18 18 12 14 -7 -3 -13
-4 -13 -1 0 2 -3 11 -6 20 -4 11 -1 16 10 16 9 0 16 7 16 15 0 8 -7 15 -16 15
-8 0 -13 4 -10 8 3 5 1 25 -4 44 -6 19 -12 59 -14 89 -4 45 -32 224 -53 334
-3 17 -6 48 -8 70 -2 41 -21 161 -32 204 -5 20 -4 22 13 12 41 -23 60 -43 46
-48 -10 -4 -6 -9 10 -17 32 -16 33 -39 4 -71 -30 -32 -30 -34 -12 -57 17 -23
74 -24 83 -2 3 9 1 25 -5 35 -7 10 -12 28 -12 38 0 11 -5 23 -10 26 -16 10 7
44 35 51 15 4 33 1 43 -7 14 -11 15 -11 5 1 -9 10 -9 18 -1 34 11 20 11 20 19
1 5 -14 8 -15 8 -4 1 22 50 38 80 25 13 -6 18 -12 12 -14z"/>
<path fill="#ffffff" stroke="none" d="M185 3060 c3 -5 1 -10 -4 -10 -6 0 -11
5 -11 10 0 6 2 10 4 10 3 0 8 -4 11 -10z"/>
<path fill="#ffffff" stroke="none" d="M197 3013 c6 -16 14 -52 17 -82 4 -30
9 -64 11 -75 13 -58 17 -84 16 -110 -1 -15 3 -34 9 -41 12 -15 17 -82 6 -92
-14 -14 -23 18 -46 160 -12 78 -24 149 -25 157 -12 76 -15 110 -8 110 4 0 13
-12 20 -27z"/>
<path fill="#ffffff" stroke="none" d="M5010 3001 c0 -5 -6 -11 -12 -14 -15
-5 17 -43 75 -89 36 -29 37 -29 28 -6 -8 22 1 60 12 48 14 -17 24 -69 15 -84
-9 -16 -12 -15 -42 8 l-33 25 -74 -72 c-41 -40 -89 -89 -107 -110 -19 -21 -36
-36 -39 -33 -8 8 83 110 138 157 62 52 69 74 34 105 -34 29 -37 29 -60 4 -10
-11 -21 -18 -23 -15 -6 6 68 83 81 84 4 1 7 -3 7 -8z"/>
<path fill="#ffffff" stroke="none" d="M111 2936 c1 -12 2 -38 3 -58 2 -21 -1
-38 -5 -38 -9 0 -16 30 -24 100 -6 51 -5 54 9 36 9 -11 16 -29 17 -40z"/>
<path fill="#ffffff" stroke="none" d="M3896 2955 c4 -8 12 -15 20 -15 8 0 14
-5 14 -11 0 -5 -5 -7 -12 -3 -7 4 -8 3 -4 -4 4 -7 2 -12 -4 -12 -6 0 -10 -7
-8 -16 2 -10 -3 -19 -9 -21 -9 -3 -13 5 -13 24 0 15 -3 38 -6 51 -7 25 13 31
22 7z"/>
<path fill="#ffffff" stroke="none" d="M3930 2852 c0 -11 -39 -12 -45 -1 -4 5
5 9 19 9 14 0 26 -4 26 -8z"/>
<path fill="#ffffff" stroke="none" d="M3850 2841 c0 -6 -5 -13 -10 -16 -15
-9 -43 3 -35 15 8 13 45 13 45 1z"/>
<path fill="#ffffff" stroke="none" d="M137 2778 c9 -42 8 -56 -2 -67 -11 -11
-14 -8 -18 15 -17 91 -18 104 -4 104 8 0 17 -21 24 -52z"/>
<path fill="#ffffff" stroke="none" d="M5172 2803 c15 -15 28 -30 28 -35 0
-17 -16 -7 -43 27 -33 41 -25 46 15 8z"/>
<path fill="#ffffff" stroke="none" d="M3915 2780 c-3 -5 -13 -10 -21 -10 -8
0 -14 5 -14 10 0 6 9 10 21 10 11 0 17 -4 14 -10z"/>
<path fill="#ffffff" stroke="none" d="M1600 2776 c0 -3 -4 -8 -10 -11 -5 -3
-10 -1 -10 4 0 6 5 11 10 11 6 0 10 -2 10 -4z"/>
<path fill="#ffffff" stroke="none" d="M6000 2750 c0 -5 -5 -10 -11 -10 -5 0
-7 5 -4 10 3 6 8 10 11 10 2 0 4 -4 4 -10z"/>
<path fill="#ffffff" stroke="none" d="M5869 2703 c1 -10 2 -29 2 -42 1 -18 3
-21 10 -10 6 9 9 0 9 -28 0 -24 -4 -43 -8 -43 -10 0 -32 81 -32 115 0 28 16
34 19 8z"/>
<path fill="#ffffff" stroke="none" d="M5410 2700 c0 -5 -5 -10 -11 -10 -5 0
-7 5 -4 10 3 6 8 10 11 10 2 0 4 -4 4 -10z"/>
<path fill="#ffffff" stroke="none" d="M5296 2605 c-5 -25 1 -36 34 -69 35
-34 49 -56 36 -56 -2 0 -19 13 -37 30 -43 38 -50 37 -47 -2 3 -32 1 -33 -36
-36 -32 -3 -38 -1 -33 12 4 9 2 16 -3 16 -6 0 -10 -4 -10 -10 0 -5 -7 -10 -16
-10 -16 0 16 49 69 101 31 31 33 47 12 75 -8 10 -15 25 -15 33 0 8 11 -1 26
-20 18 -25 24 -42 20 -64z"/>
<path fill="#ffffff" stroke="none" d="M164 2675 c3 -8 3 -22 0 -30 -4 -9 0
-15 9 -15 10 0 13 -8 9 -25 -2 -14 -8 -25 -12 -25 -17 0 -40 32 -40 55 0 47
21 72 34 40z"/>
<path fill="#ffffff" stroke="none" d="M1676 2666 c6 -26 -1 -46 -17 -46 -5 0
-9 16 -9 35 0 40 17 47 26 11z"/>
<path fill="#ffffff" stroke="none" d="M5390 2681 c0 -9 -44 -41 -56 -41 -4 0
3 11 16 25 24 26 40 32 40 16z"/>
<path fill="#ffffff" stroke="none" d="M5528 2662 c6 -18 -15 -14 -22 4 -4 10
-1 14 6 12 6 -2 14 -10 16 -16z"/>
<path fill="#ffffff" stroke="none" d="M5210 2661 c0 -5 -6 -14 -14 -20 -16
-13 -32 2 -21 19 8 12 35 13 35 1z"/>
<path fill="#ffffff" stroke="none" d="M5970 2652 c0 -7 -7 -15 -15 -18 -17
-7 -48 14 -40 26 8 13 55 6 55 -8z"/>
<path fill="#ffffff" stroke="none" d="M5080 2639 c0 -10 -29 -39 -39 -39 -16
0 -20 13 -11 31 9 17 50 23 50 8z"/>
<path fill="#ffffff" stroke="none" d="M1593 2616 c8 -21 -17 -50 -37 -43 -21
8 -21 44 2 50 29 8 30 7 35 -7z"/>
<path fill="#ffffff" stroke="none" d="M4950 2577 c0 -6 -9 -2 -20 8 -11 10
-20 23 -20 28 0 6 9 2 20 -8 11 -10 20 -23 20 -28z"/>
<path fill="#ffffff" stroke="none" d="M5785 2600 c3 -5 -1 -10 -10 -10 -9 0
-13 5 -10 10 3 6 8 10 10 10 2 0 7 -4 10 -10z"/>
<path fill="#ffffff" stroke="none" d="M5842 2587 c19 -10 23 -17 17 -32 -12
-31 -10 -35 11 -35 11 0 20 -4 20 -9 0 -6 -18 -9 -41 -9 -25 0 -47 -6 -57 -16
-11 -11 -12 -16 -4 -16 8 0 5 -9 -8 -22 -11 -12 -20 -32 -20 -45 0 -19 5 -23
30 -23 29 0 30 2 30 45 0 31 4 45 14 45 9 0 15 -17 18 -51 3 -28 11 -55 17
-59 9 -5 8 -9 -4 -14 -18 -6 -192 -20 -253 -20 -57 1 -66 50 -11 61 16 3 32 9
34 14 3 4 21 5 39 2 28 -4 35 -2 40 15 7 20 -11 72 -24 72 -11 0 -3 70 10 86
25 30 60 4 60 -45 0 -12 6 -21 14 -21 10 0 14 10 14 30 -1 16 5 36 12 45 15
18 12 18 42 2z"/>
<path fill="#ffffff" stroke="none" d="M4805 2571 c3 -5 1 -12 -5 -16 -5 -3
-10 1 -10 9 0 18 6 21 15 7z"/>
<path fill="#ffffff" stroke="none" d="M5665 2563 c-5 -10 -10 -33 -13 -50 -5
-41 -18 -42 -27 -3 -4 16 -11 32 -16 35 -17 11 -9 24 19 28 15 2 31 5 36 6 4
0 5 -7 1 -16z"/>
<path fill="#ffffff" stroke="none" d="M948 2552 c6 -18 -15 -14 -22 4 -4 10
-1 14 6 12 6 -2 14 -10 16 -16z"/>
<path fill="#ffffff" stroke="none" d="M5925 2560 c3 -5 1 -10 -4 -10 -6 0
-11 5 -11 10 0 6 2 10 4 10 3 0 8 -4 11 -10z"/>
<path fill="#ffffff" stroke="none" d="M4970 2550 c0 -5 -4 -10 -10 -10 -5 0
-10 5 -10 10 0 6 5 10 10 10 6 0 10 -4 10 -10z"/>
<path fill="#ffffff" stroke="none" d="M1610 2529 c0 -5 -9 -9 -20 -9 -13 0
-18 5 -14 14 6 15 34 11 34 -5z"/>
<path fill="#ffffff" stroke="none" d="M4745 2540 c3 -5 1 -10 -4 -10 -6 0
-11 5 -11 10 0 6 2 10 4 10 3 0 8 -4 11 -10z"/>
<path fill="#ffffff" stroke="none" d="M4840 2530 c0 -5 -9 -14 -20 -20 -15
-8 -20 -8 -20 3 0 8 3 17 7 20 10 10 33 8 33 -3z"/>
<path fill="#ffffff" stroke="none" d="M4990 2530 c0 -5 -2 -10 -4 -10 -3 0
-8 5 -11 10 -3 6 -1 10 4 10 6 0 11 -4 11 -10z"/>
<path fill="#ffffff" stroke="none" d="M210 2526 c0 -11 -33 -36 -41 -31 -15
10 -10 28 6 21 8 -3 15 -1 15 4 0 6 5 10 10 10 6 0 10 -2 10 -4z"/>
<path fill="#ffffff" stroke="none" d="M110 2505 c-7 -8 -19 -15 -26 -15 -8 0
-14 7 -14 15 0 10 10 15 26 15 22 0 25 -2 14 -15z"/>
<path fill="#ffffff" stroke="none" d="M1643 2499 c5 -20 -17 -39 -30 -25 -4
3 -1 6 5 6 7 0 12 5 12 11 0 8 -4 9 -13 0 -8 -6 -17 -8 -20 -4 -9 8 12 33 28
33 7 0 15 -9 18 -21z"/>
<path fill="#ffffff" stroke="none" d="M5010 2499 c0 -6 -4 -7 -10 -4 -5 3
-10 11 -10 16 0 6 5 7 10 4 6 -3 10 -11 10 -16z"/>
<path fill="#ffffff" stroke="none" d="M4870 2491 c0 -11 -58 -61 -71 -61 -18
0 -8 29 17 49 28 22 54 28 54 12z"/>
<path fill="#ffffff" stroke="none" d="M5046 2463 c-7 -7 -26 7 -26 19 0 6 6
6 15 -2 9 -7 13 -15 11 -17z"/>
<path fill="#ffffff" stroke="none" d="M5523 2473 c-7 -2 -21 -2 -30 0 -10 3
-4 5 12 5 17 0 24 -2 18 -5z"/>
<path fill="#ffffff" stroke="none" d="M1700 2460 c0 -5 -5 -10 -11 -10 -5 0
-7 5 -4 10 3 6 8 10 11 10 2 0 4 -4 4 -10z"/>
<path fill="#ffffff" stroke="none" d="M4900 2456 c0 -17 -87 -96 -106 -96
-24 0 -16 13 39 62 55 51 67 57 67 34z"/>
<path fill="#ffffff" stroke="none" d="M5355 2447 c11 -11 1 -16 -63 -26 -79
-12 -109 -4 -84 21 10 10 15 10 22 -2 6 -9 10 -10 10 -3 0 23 93 31 115 10z"/>
<path fill="#ffffff" stroke="none" d="M1690 2436 c0 -11 -19 -15 -25 -6 -3 5
1 10 9 10 9 0 16 -2 16 -4z"/>
<path fill="#ffffff" stroke="none" d="M1050 2420 c0 -5 -2 -10 -4 -10 -3 0
-8 5 -11 10 -3 6 -1 10 4 10 6 0 11 -4 11 -10z"/>
<path fill="#ffffff" stroke="none" d="M4930 2416 c0 -12 -82 -96 -95 -96 -17
0 1 34 38 69 45 43 57 49 57 27z"/>
<path fill="#ffffff" stroke="none" d="M5097 2414 c-3 -3 -12 -4 -19 -1 -8 3
-5 6 6 6 11 1 17 -2 13 -5z"/>
<path fill="#ffffff" stroke="none" d="M1650 2390 c0 -5 -4 -10 -10 -10 -5 0
-10 5 -10 10 0 6 5 10 10 10 6 0 10 -4 10 -10z"/>
<path fill="#ffffff" stroke="none" d="M4960 2378 c0 -25 -123 -138 -136 -126
-6 7 115 138 127 138 5 0 9 -6 9 -12z"/>
<path fill="#ffffff" stroke="none" d="M5310 2375 c16 -19 0 -19 -26 0 -16 12
-16 14 -3 15 9 0 22 -7 29 -15z"/>
<path fill="#ffffff" stroke="none" d="M710 2370 c0 -5 -5 -10 -11 -10 -5 0
-7 5 -4 10 3 6 8 10 11 10 2 0 4 -4 4 -10z"/>
<path fill="#ffffff" stroke="none" d="M5000 2365 c0 -33 -123 -161 -142 -149
-5 3 22 39 59 79 62 67 83 85 83 70z"/>
<path fill="#ffffff" stroke="none" d="M195 2350 c3 -5 1 -10 -4 -10 -6 0 -11
5 -11 10 0 6 2 10 4 10 3 0 8 -4 11 -10z"/>
<path fill="#ffffff" stroke="none" d="M626 2339 c9 -15 -13 -28 -37 -22 -20
5 -24 15 -12 26 10 11 41 8 49 -4z"/>
<path fill="#ffffff" stroke="none" d="M780 2332 c0 -6 -28 -32 -35 -32 -3 0
-3 5 0 10 3 6 -1 10 -9 10 -9 0 -16 5 -16 10 0 6 14 9 30 8 17 -1 30 -4 30 -6z"/>
<path fill="#ffffff" stroke="none" d="M1710 2330 c0 -5 -5 -10 -11 -10 -5 0
-7 5 -4 10 3 6 8 10 11 10 2 0 4 -4 4 -10z"/>
<path fill="#ffffff" stroke="none" d="M5030 2325 c0 -9 -19 -37 -42 -63 -54
-59 -69 -71 -88 -71 -9 0 0 13 22 34 21 19 50 53 64 75 28 42 44 51 44 25z"/>
<path fill="#ffffff" stroke="none" d="M1464 2324 c9 -3 16 -14 16 -23 1 -14
2 -14 11 2 13 22 59 23 59 1 0 -8 -4 -13 -9 -10 -14 9 -34 -22 -28 -44 3 -11
1 -22 -3 -25 -5 -3 -10 5 -12 17 -3 21 -29 34 -27 14 1 -15 -25 -25 -38 -14
-10 8 -13 7 -13 -3 -1 -8 -12 -1 -25 16 -23 28 -24 29 -18 5 3 -14 11 -29 17
-33 7 -5 3 -7 -9 -5 -15 2 -21 12 -23 42 -2 28 0 37 10 34 7 -3 19 1 26 9 7 7
19 13 25 13 7 0 4 -7 -5 -14 -10 -7 -18 -21 -18 -30 0 -9 8 -16 18 -16 13 0
14 2 4 9 -11 7 -11 11 2 24 9 8 16 20 16 26 0 13 3 13 24 5z"/>
<path fill="#ffffff" stroke="none" d="M960 2313 c0 -5 -7 -16 -14 -26 -16
-20 -32 -6 -22 18 5 15 36 21 36 8z"/>
<path fill="#ffffff" stroke="none" d="M5065 2309 c13 -20 -105 -162 -122
-146 -3 4 13 28 36 54 23 27 47 60 54 76 12 29 22 34 32 16z"/>
<path fill="#ffffff" stroke="none" d="M899 2269 c-16 -10 -23 -4 -14 10 3 6
11 8 17 5 6 -4 5 -9 -3 -15z"/>
<path fill="#ffffff" stroke="none" d="M5100 2281 c0 -10 -102 -165 -127 -193
-22 -24 -31 -22 -26 5 3 13 27 49 54 81 26 31 56 70 66 86 17 29 33 39 33 21z"/>
<path fill="#ffffff" stroke="none" d="M5133 2268 c12 -34 -124 -241 -145
-220 -6 6 12 39 46 88 31 44 62 94 68 112 13 34 23 40 31 20z"/>
<path fill="#ffffff" stroke="none" d="M900 2240 c0 -5 -4 -10 -10 -10 -5 0
-10 5 -10 10 0 6 5 10 10 10 6 0 10 -4 10 -10z"/>
<path fill="#ffffff" stroke="none" d="M1322 2228 c-7 -7 -12 -8 -12 -2 0 6 3
14 7 17 3 4 9 5 12 2 2 -3 -1 -11 -7 -17z"/>
<path fill="#ffffff" stroke="none" d="M5170 2231 c0 -46 -115 -221 -146 -221
-19 0 -18 3 14 38 15 16 47 68 72 116 45 86 60 103 60 67z"/>
<path fill="#ffffff" stroke="none" d="M809 2209 c14 -40 14 -39 -4 -39 -8 0
-15 9 -15 20 0 11 -7 20 -15 20 -9 0 -12 6 -9 15 10 25 31 17 43 -16z"/>
<path fill="#ffffff" stroke="none" d="M1483 2215 c-7 -21 -13 -19 -13 6 0 11
4 18 10 14 5 -3 7 -12 3 -20z"/>
<path fill="#ffffff" stroke="none" d="M937 2224 c-3 -3 -12 -4 -19 -1 -8 3
-5 6 6 6 11 1 17 -2 13 -5z"/>
<path fill="#ffffff" stroke="none" d="M940 2189 c0 -11 -27 -12 -34 0 -3 4
-3 11 0 14 8 8 34 -3 34 -14z"/>
<path fill="#ffffff" stroke="none" d="M1270 2200 c0 -5 -4 -10 -10 -10 -5 0
-10 5 -10 10 0 6 5 10 10 10 6 0 10 -4 10 -10z"/>
<path fill="#ffffff" stroke="none" d="M5203 2197 c5 -14 -12 -47 -68 -128
-16 -24 -29 -47 -30 -52 0 -4 -15 -16 -34 -28 -24 -14 -37 -17 -44 -10 -8 8
-6 11 5 11 27 0 75 58 115 141 39 80 47 89 56 66z"/>
<path fill="#ffffff" stroke="none" d="M889 2163 c-8 -9 -15 -9 -30 0 -32 20
-24 37 11 24 22 -8 26 -14 19 -24z"/>
<path fill="#ffffff" stroke="none" d="M1315 2190 c-3 -5 -11 -10 -16 -10 -6
0 -7 5 -4 10 3 6 11 10 16 10 6 0 7 -4 4 -10z"/>
<path fill="#ffffff" stroke="none" d="M1425 2189 c12 -18 -3 -22 -20 -5 -14
14 -14 16 -1 16 8 0 18 -5 21 -11z"/>
<path fill="#ffffff" stroke="none" d="M1465 2170 c-3 -5 -14 -10 -23 -10 -15
0 -15 2 -2 10 20 13 33 13 25 0z"/>
<path fill="#ffffff" stroke="none" d="M5225 2121 c-10 -22 -25 -48 -34 -58
-9 -10 -34 -42 -56 -70 -37 -50 -57 -63 -69 -45 -2 4 8 16 24 27 27 18 65 73
112 163 29 55 49 40 23 -17z"/>
<path fill="#ffffff" stroke="none" d="M1561 2139 c55 -28 125 -94 137 -129
17 -48 -15 -60 -93 -35 -18 6 -17 4 4 -14 17 -15 19 -21 8 -21 -8 0 -44 28
-79 62 -35 34 -72 67 -82 73 -29 15 -30 30 -1 59 31 31 53 32 106 5z"/>
<path fill="#ffffff" stroke="none" d="M1010 2128 c0 -6 -7 -7 -16 -4 -9 3
-18 6 -20 6 -3 0 -3 4 1 10 7 11 35 2 35 -12z"/>
<path fill="#ffffff" stroke="none" d="M5280 2135 c0 -42 -123 -215 -152 -215
-10 0 -18 2 -18 4 0 2 23 32 51 67 28 35 62 85 75 112 24 47 44 61 44 32z"/>
<path fill="#ffffff" stroke="none" d="M680 2125 c14 -1 45 -11 70 -22 42 -19
47 -19 75 -5 28 15 95 23 95 12 -2 -19 -30 -36 -59 -36 -48 1 -50 -21 -4 -42
37 -17 38 -18 20 -35 -13 -13 -17 -27 -13 -43 6 -22 3 -24 -25 -24 -25 0 -29
3 -20 13 15 19 -8 66 -37 74 -15 3 -21 11 -17 20 3 11 1 13 -10 9 -8 -3 -15 0
-15 7 0 7 -8 3 -16 -8 -16 -19 -16 -19 -12 8 5 27 -6 38 -15 15 -4 -10 -8 -9
-16 2 -8 12 -11 12 -11 1 0 -7 -6 -11 -15 -7 -10 3 -15 -1 -15 -14 0 -14 -7
-18 -30 -18 -21 1 -29 5 -26 14 3 7 10 31 16 54 10 36 14 40 33 33 12 -4 33
-8 47 -8z"/>
<path fill="#ffffff" stroke="none" d="M1155 2120 c-3 -5 -10 -10 -16 -10 -5
0 -9 5 -9 10 0 6 7 10 16 10 8 0 12 -4 9 -10z"/>
<path fill="#ffffff" stroke="none" d="M1257 2115 c-4 -12 -58 -7 -71 6 -6 5
7 8 32 6 23 -1 40 -6 39 -12z"/>
<path fill="#ffffff" stroke="none" d="M5284 2038 c-37 -66 -81 -128 -98 -140
-7 -5 -4 -8 6 -8 18 0 65 62 117 153 23 41 36 55 42 46 11 -18 -12 -69 -66
-146 -45 -64 -53 -92 -17 -60 10 10 24 17 31 17 15 0 41 -60 41 -94 0 -28 -20
-34 -105 -37 -82 -2 -95 0 -92 14 3 16 -46 21 -72 8 -21 -12 -121 5 -121 21 0
4 -6 8 -14 8 -18 0 -15 29 4 40 11 7 8 11 -12 20 -24 11 -25 15 -16 41 5 16
13 29 17 29 21 0 132 -24 173 -37 l47 -15 25 28 c14 16 26 32 26 35 0 3 14 24
31 45 18 22 41 59 52 83 15 35 21 41 28 29 6 -11 -2 -35 -27 -80z"/>
<path fill="#ffffff" stroke="none" d="M920 2065 c-13 -14 -28 -25 -34 -25 -5
0 3 13 19 30 16 16 31 28 33 25 3 -3 -5 -16 -18 -30z"/>
<path fill="#ffffff" stroke="none" d="M1400 2090 c0 -13 -11 -13 -30 0 -12 8
-11 10 8 10 12 0 22 -4 22 -10z"/>
<path fill="#ffffff" stroke="none" d="M981 2043 c12 -15 12 -16 -4 -10 -10 4
-23 7 -28 7 -6 0 -7 5 -4 10 9 15 21 12 36 -7z"/>
<path fill="#ffffff" stroke="none" d="M1920 2050 c0 -5 -2 -10 -4 -10 -3 0
-8 5 -11 10 -3 6 -1 10 4 10 6 0 11 -4 11 -10z"/>
<path fill="#ffffff" stroke="none" d="M925 2030 c-3 -5 -11 -10 -16 -10 -6 0
-7 5 -4 10 3 6 11 10 16 10 6 0 7 -4 4 -10z"/>
<path fill="#ffffff" stroke="none" d="M1055 2029 c11 -16 1 -20 -33 -13 -18
4 -29 10 -26 15 7 13 51 11 59 -2z"/>
<path fill="#ffffff" stroke="none" d="M1150 2014 c0 -2 -11 -4 -25 -4 -14 0
-25 4 -25 9 0 4 11 6 25 3 14 -2 25 -6 25 -8z"/>
<path fill="#ffffff" stroke="none" d="M1005 1970 c0 -20 -6 -26 -28 -28 -25
-3 -28 -1 -23 16 4 11 2 23 -4 27 -21 13 -9 22 23 16 26 -6 32 -12 32 -31z"/>
<path fill="#ffffff" stroke="none" d="M1204 1995 c15 -11 16 -15 5 -15 -8 0
-24 7 -35 15 -14 11 -15 14 -4 14 8 0 24 -6 34 -14z"/>
<path fill="#ffffff" stroke="none" d="M5390 1978 c0 -5 -11 -8 -25 -8 -27 0
-28 1 -19 24 5 12 9 13 25 3 10 -6 19 -15 19 -19z"/>
<path fill="#ffffff" stroke="none" d="M765 1960 c23 -26 8 -26 -25 0 -18 14
-21 20 -9 20 9 0 24 -9 34 -20z"/>
<path fill="#ffffff" stroke="none" d="M1340 1955 c6 4 10 -6 10 -23 0 -54 58
-96 92 -66 22 20 36 11 18 -11 -7 -8 -20 -30 -30 -48 -20 -36 -49 -47 -62 -23
-5 9 -20 16 -33 16 -18 0 -25 5 -25 19 0 22 -15 35 -45 38 -11 1 -35 5 -52 9
-25 5 -34 2 -39 -10 -4 -10 -18 -16 -35 -16 -16 0 -29 -5 -29 -11 0 -7 -7 -17
-16 -23 -20 -15 -8 -45 22 -52 13 -3 24 -14 24 -23 0 -9 13 -23 29 -32 21 -12
28 -24 29 -47 0 -17 5 -39 10 -49 21 -40 23 -97 3 -122 l-18 -24 -31 34 c-26
28 -28 35 -14 38 41 8 56 47 27 71 -8 7 -15 21 -15 32 0 27 -27 34 -52 12 -26
-24 -37 -52 -53 -139 -12 -67 -13 -68 -14 -24 -1 25 5 66 12 90 14 45 9 80
-12 94 -6 3 -11 1 -11 -5 0 -6 -10 -8 -24 -4 -16 4 -27 1 -33 -10 -8 -15 -13
-14 -52 5 -32 15 -46 17 -56 9 -7 -6 -41 -11 -75 -11 -54 -1 -60 -3 -55 -19 4
-14 -2 -19 -32 -25 l-38 -8 28 -10 c32 -13 36 -27 7 -27 -11 0 -20 5 -20 10 0
6 -17 10 -37 10 -48 0 -75 15 -53 29 11 8 9 12 -13 20 -16 6 -37 11 -47 11
-10 0 -22 5 -25 10 -4 6 -32 8 -67 5 -52 -3 -59 -2 -47 9 22 21 105 28 119 11
6 -7 29 -16 51 -20 41 -7 195 10 218 25 17 10 6 30 -17 31 -11 0 -9 4 8 11
l25 10 -30 14 -30 13 38 1 c20 0 37 -5 37 -10 0 -22 43 -28 63 -9 18 17 21 17
52 -1 18 -10 36 -16 40 -12 4 4 13 -1 20 -12 25 -34 31 -8 28 113 -2 79 0 121
7 121 5 0 10 -7 10 -15 0 -9 8 -18 18 -21 9 -3 27 -11 40 -17 17 -8 28 -8 42
0 10 7 34 10 54 6 24 -4 36 -2 36 6 0 6 6 11 13 11 6 0 19 5 27 10 13 9 13 11
0 20 -8 5 -23 7 -32 4 -20 -6 -25 12 -5 19 6 2 33 -2 60 -10 26 -8 52 -11 57
-8z"/>
<path fill="#ffffff" stroke="none" d="M660 1950 c0 -5 -5 -10 -11 -10 -5 0
-7 5 -4 10 3 6 8 10 11 10 2 0 4 -4 4 -10z"/>
<path fill="#ffffff" stroke="none" d="M1762 1928 c-7 -7 -12 -8 -12 -2 0 6 3
14 7 17 3 4 9 5 12 2 2 -3 -1 -11 -7 -17z"/>
<path fill="#ffffff" stroke="none" d="M1810 1935 c0 -8 -4 -15 -10 -15 -5 0
-7 7 -4 15 4 8 8 15 10 15 2 0 4 -7 4 -15z"/>
<path fill="#ffffff" stroke="none" d="M5470 1941 c0 -17 -18 -21 -24 -6 -3 9
0 15 9 15 8 0 15 -4 15 -9z"/>
<path fill="#ffffff" stroke="none" d="M1660 1923 c0 -5 -5 -15 -10 -23 -7
-11 -12 -12 -21 -3 -6 6 -8 16 -5 22 8 12 36 15 36 4z"/>
<path fill="#ffffff" stroke="none" d="M1825 1910 c3 -5 1 -10 -4 -10 -6 0
-11 5 -11 10 0 6 2 10 4 10 3 0 8 -4 11 -10z"/>
<path fill="#ffffff" stroke="none" d="M790 1902 c0 -9 -61 -34 -68 -28 -4 5
48 35 61 36 4 0 7 -4 7 -8z"/>
<path fill="#ffffff" stroke="none" d="M1775 1900 c-3 -5 -10 -10 -16 -10 -5
0 -9 5 -9 10 0 6 7 10 16 10 8 0 12 -4 9 -10z"/>
<path fill="#ffffff" stroke="none" d="M5523 1898 c15 -7 27 -16 27 -20 0 -5
9 -8 19 -8 11 0 23 -4 26 -10 3 -5 15 -10 25 -10 20 0 106 -98 95 -108 -2 -3
-14 6 -25 21 -21 26 -76 56 -143 77 -40 12 -80 47 -71 62 7 11 15 10 47 -4z"/>
<path fill="#ffffff" stroke="none" d="M1792 1868 c-7 -7 -12 -8 -12 -2 0 6 3
14 7 17 3 4 9 5 12 2 2 -3 -1 -11 -7 -17z"/>
<path fill="#ffffff" stroke="none" d="M1710 1859 c0 -16 5 -20 20 -16 25 7
25 -7 0 -48 -24 -39 -53 -60 -98 -69 -17 -4 -32 -12 -32 -17 0 -5 -7 -9 -15
-9 -20 0 -19 -19 1 -27 8 -3 13 -12 10 -19 -4 -10 3 -14 19 -14 14 0 25 -5 25
-12 0 -6 12 0 28 15 18 17 32 23 41 18 11 -7 9 -10 -8 -16 -22 -7 -29 -25 -9
-25 6 0 3 -7 -8 -16 -16 -13 -16 -15 -1 -10 9 3 17 3 17 -1 0 -3 -8 -12 -17
-20 -16 -13 -16 -13 7 -6 14 4 54 7 90 5 l65 -2 -24 18 -24 19 49 12 48 12
-30 24 c-16 13 -35 24 -42 25 -7 0 -11 4 -8 9 3 5 30 0 60 -11 l54 -20 -15
-37 c-23 -54 -70 -94 -113 -95 -8 -1 -19 -10 -25 -21 -5 -11 -17 -20 -25 -20
-9 0 -15 -9 -14 -22 1 -27 -31 -31 -62 -8 -17 13 -17 14 -1 15 18 0 25 40 7
40 -5 0 -7 6 -4 14 4 9 -7 15 -35 20 -23 3 -41 11 -41 17 0 7 -12 8 -32 4 -30
-6 -31 -6 -14 8 22 16 14 37 -14 37 -13 0 -18 5 -13 16 4 10 -1 17 -16 21 -11
3 -21 11 -21 18 0 17 -48 48 -79 51 -32 4 -33 7 -15 32 21 30 56 28 106 -8 42
-30 68 -38 68 -20 0 6 10 10 23 10 26 0 47 17 47 39 0 8 8 23 17 34 17 18 17
19 0 32 -17 12 -17 14 10 28 39 20 43 20 43 -4z"/>
<path fill="#ffffff" stroke="none" d="M692 1837 c-18 -18 -32 -38 -32 -44 0
-5 -13 -10 -30 -9 -16 1 -30 4 -30 9 0 4 4 7 8 7 5 0 17 7 28 15 17 12 14 12
-26 0 -25 -7 -52 -16 -61 -20 -10 -3 -20 -2 -23 3 -3 5 25 17 62 27 37 10 78
24 92 31 42 22 46 16 12 -19z"/>
<path fill="#ffffff" stroke="none" d="M1943 1849 c-6 -6 -17 -8 -24 -3 -9 5
-8 9 7 14 23 9 31 3 17 -11z"/>
<path fill="#ffffff" stroke="none" d="M2053 1837 c-25 -29 -57 -56 -62 -51
-9 9 24 67 43 74 31 11 40 1 19 -23z"/>
<path fill="#ffffff" stroke="none" d="M590 1856 c0 -3 -4 -8 -10 -11 -5 -3
-10 -1 -10 4 0 6 5 11 10 11 6 0 10 -2 10 -4z"/>
<path fill="#ffffff" stroke="none" d="M1860 1852 c0 -5 11 -15 25 -22 13 -7
27 -25 30 -41 3 -15 13 -30 21 -33 16 -6 19 -43 5 -65 -5 -7 -14 -10 -20 -7
-6 4 -9 11 -6 15 2 5 -16 14 -41 21 -32 9 -42 16 -35 23 8 8 15 7 23 -1 7 -7
20 -12 31 -12 14 0 17 5 12 23 -4 12 -15 31 -25 42 -26 30 -43 65 -30 65 5 0
10 -4 10 -8z"/>
<path fill="#ffffff" stroke="none" d="M4910 1850 c0 -5 -2 -10 -4 -10 -3 0
-8 5 -11 10 -3 6 -1 10 4 10 6 0 11 -4 11 -10z"/>
<path fill="#ffffff" stroke="none" d="M490 1840 c0 -5 -4 -10 -10 -10 -5 0
-7 -6 -5 -12 2 -8 -17 -23 -48 -38 -76 -37 -77 -36 -19 19 50 48 82 64 82 41z"/>
<path fill="#ffffff" stroke="none" d="M525 1820 c-3 -5 -11 -10 -16 -10 -6 0
-7 5 -4 10 3 6 11 10 16 10 6 0 7 -4 4 -10z"/>
<path fill="#ffffff" stroke="none" d="M810 1814 c0 -2 -12 -4 -26 -4 -14 0
-23 4 -20 9 6 8 46 4 46 -5z"/>
<path fill="#ffffff" stroke="none" d="M1764 1750 c-16 -23 -30 -37 -32 -31
-4 11 48 84 55 77 3 -2 -8 -23 -23 -46z"/>
<path fill="#ffffff" stroke="none" d="M753 1779 c-8 -8 -16 -8 -30 0 -16 9
-14 10 12 11 21 0 26 -3 18 -11z"/>
<path fill="#ffffff" stroke="none" d="M1740 1770 c0 -5 -5 -10 -11 -10 -5 0
-7 5 -4 10 3 6 8 10 11 10 2 0 4 -4 4 -10z"/>
<path fill="#ffffff" stroke="none" d="M647 1764 c-3 -3 -12 -4 -19 -1 -8 3
-5 6 6 6 11 1 17 -2 13 -5z"/>
<path fill="#ffffff" stroke="none" d="M350 1725 c-7 -9 -15 -13 -18 -10 -3 2
1 11 8 20 7 9 15 13 18 10 3 -2 -1 -11 -8 -20z"/>
<path fill="#ffffff" stroke="none" d="M385 1692 c-8 -9 -25 20 -18 31 3 5 10
2 15 -7 6 -10 7 -20 3 -24z"/>
<path fill="#ffffff" stroke="none" d="M2218 1687 c7 3 12 -4 12 -16 0 -12 -4
-21 -9 -21 -13 0 -20 -35 -10 -53 7 -12 -1 -20 -36 -37 -58 -28 -75 -56 -43
-69 32 -13 59 -46 46 -59 -15 -15 1 -52 27 -64 13 -6 25 -21 28 -34 9 -49 -30
-38 -56 15 -7 14 -19 26 -27 26 -8 0 -20 7 -27 15 -6 8 -15 12 -19 8 -4 -4
-14 -2 -22 4 -11 10 -17 9 -26 -3 -8 -12 -15 -13 -27 -6 -12 7 -24 4 -47 -13
-16 -12 -42 -22 -56 -22 -14 0 -31 -7 -37 -14 -6 -8 -26 -14 -43 -14 -39 0
-56 -15 -56 -51 0 -15 -7 -29 -15 -33 -8 -3 -15 -15 -15 -26 0 -11 -4 -20 -9
-20 -5 0 -9 -20 -9 -45 0 -26 4 -45 11 -45 8 0 7 -4 -1 -12 -18 -18 -15 -38 6
-39 13 0 12 -3 -5 -11 -27 -13 -29 -23 -7 -32 8 -3 12 -11 9 -16 -4 -6 -1 -17
5 -25 6 -8 9 -18 6 -24 -6 -9 10 -15 107 -42 59 -17 67 -45 10 -35 -21 3 -62
6 -90 6 -40 0 -53 4 -53 15 0 8 -5 15 -11 15 -6 0 -9 6 -6 14 12 32 -74 65
-110 43 -5 -3 -15 -2 -23 3 -10 6 2 11 37 16 49 6 95 35 80 51 -4 3 -2 12 4
19 13 16 4 34 -18 34 -12 0 -13 3 -3 15 18 22 2 38 -32 31 -26 -5 -29 -4 -18
9 17 21 2 38 -27 30 -20 -5 -24 -3 -20 9 4 11 1 13 -10 9 -11 -4 -14 -2 -9 5
4 6 22 14 41 18 37 7 61 27 51 43 -4 5 12 22 34 38 22 15 40 34 40 42 0 9 8
11 25 7 14 -4 25 -2 25 4 0 5 7 10 15 10 7 0 18 7 23 16 6 10 12 13 16 6 7
-11 44 -5 65 12 11 8 15 8 18 -1 8 -23 42 -14 49 12 4 18 13 25 31 25 13 0 34
5 45 11 20 11 20 12 4 24 -16 12 -14 15 15 36 32 22 32 22 11 39 -19 15 -19
19 -5 33 20 20 9 37 -24 37 l-26 0 22 24 c22 23 24 24 52 8 36 -21 65 -7 62
31 -1 23 1 25 20 18 12 -5 28 -6 35 -4z"/>
<path fill="#ffffff" stroke="none" d="M334 1645 c-10 -8 -29 -15 -40 -15 -12
0 -27 -7 -34 -15 -7 -8 -17 -15 -23 -15 -22 0 31 42 69 55 45 15 56 11 28 -10z"/>
<path fill="#ffffff" stroke="none" d="M350 1630 c0 -5 -5 -10 -11 -10 -5 0
-7 5 -4 10 3 6 8 10 11 10 2 0 4 -4 4 -10z"/>
<path fill="#ffffff" stroke="none" d="M1970 1630 c0 -5 -5 -10 -11 -10 -5 0
-7 5 -4 10 3 6 8 10 11 10 2 0 4 -4 4 -10z"/>
<path fill="#ffffff" stroke="none" d="M291 1587 c-16 -16 -26 0 -10 19 9 11
15 12 17 4 2 -6 -1 -17 -7 -23z"/>
<path fill="#ffffff" stroke="none" d="M1410 1610 c0 -5 -2 -10 -4 -10 -3 0
-8 5 -11 10 -3 6 -1 10 4 10 6 0 11 -4 11 -10z"/>
<path fill="#ffffff" stroke="none" d="M2010 1606 c0 -3 -4 -8 -10 -11 -5 -3
-10 -1 -10 4 0 6 5 11 10 11 6 0 10 -2 10 -4z"/>
<path fill="#ffffff" stroke="none" d="M310 1566 c0 -3 -4 -8 -10 -11 -5 -3
-10 -1 -10 4 0 6 5 11 10 11 6 0 10 -2 10 -4z"/>
<path fill="#ffffff" stroke="none" d="M277 1554 c-3 -3 -12 -4 -19 -1 -8 3
-5 6 6 6 11 1 17 -2 13 -5z"/>
<path fill="#ffffff" stroke="none" d="M1384 1513 c-21 -15 -54 -17 -54 -4 0
6 10 17 22 25 17 12 25 13 36 4 12 -10 11 -14 -4 -25z"/>
<path fill="#ffffff" stroke="none" d="M217 1534 c-3 -3 -12 -4 -19 -1 -8 3
-5 6 6 6 11 1 17 -2 13 -5z"/>
<path fill="#ffffff" stroke="none" d="M2230 1510 c0 -5 -5 -10 -11 -10 -5 0
-7 5 -4 10 3 6 8 10 11 10 2 0 4 -4 4 -10z"/>
<path fill="#ffffff" stroke="none" d="M660 1459 c0 -6 -4 -7 -10 -4 -5 3 -10
11 -10 16 0 6 5 7 10 4 6 -3 10 -11 10 -16z"/>
<path fill="#ffffff" stroke="none" d="M1145 1470 c8 -13 -5 -13 -25 0 -13 8
-13 10 2 10 9 0 20 -4 23 -10z"/>
<path fill="#ffffff" stroke="none" d="M1246 1380 c8 0 14 6 14 13 0 9 15 12
48 11 26 -1 48 -3 50 -3 1 -1 -2 -9 -7 -19 -7 -13 -21 -17 -68 -16 -32 1 -66
5 -75 9 -12 5 -20 2 -24 -9 -5 -13 -9 -14 -21 -4 -9 7 -17 8 -21 2 -11 -15
-49 -33 -56 -27 -3 4 -6 19 -6 34 0 23 5 28 35 33 20 4 44 4 55 1 10 -3 21 -1
25 5 5 8 12 4 22 -9 8 -12 21 -21 29 -21z"/>
<path fill="#ffffff" stroke="none" d="M660 1400 c0 -5 -5 -10 -11 -10 -5 0
-7 5 -4 10 3 6 8 10 11 10 2 0 4 -4 4 -10z"/>
<path fill="#ffffff" stroke="none" d="M1452 1378 c-7 -7 -12 -8 -12 -2 0 6 3
14 7 17 3 4 9 5 12 2 2 -3 -1 -11 -7 -17z"/>
<path fill="#ffffff" stroke="none" d="M608 1372 c6 -18 -15 -14 -22 4 -4 10
-1 14 6 12 6 -2 14 -10 16 -16z"/>
<path fill="#ffffff" stroke="none" d="M1670 1362 c0 -5 -9 -17 -20 -27 -16
-14 -20 -15 -20 -4 0 16 19 39 32 39 4 0 8 -4 8 -8z"/>
<path fill="#ffffff" stroke="none" d="M1338 1333 c-2 -10 4 -18 12 -19 8 0
23 -2 33 -2 10 -1 16 -6 13 -11 -3 -5 -15 -7 -26 -4 -12 3 -20 0 -20 -7 0 -7
-7 -18 -17 -25 -18 -13 -10 -35 13 -35 10 0 14 -8 12 -22 -2 -19 -8 -22 -36
-20 -22 2 -34 -1 -38 -12 -5 -12 -10 -13 -31 -3 -19 9 -26 8 -34 -4 -5 -8 -7
-19 -5 -25 3 -7 -8 -11 -25 -10 -16 1 -28 4 -26 8 3 10 169 208 174 208 2 0 3
-8 1 -17z"/>
<path fill="#ffffff" stroke="none" d="M617 1324 c-3 -3 -12 -4 -19 -1 -8 3
-5 6 6 6 11 1 17 -2 13 -5z"/>
<path fill="#ffffff" stroke="none" d="M5497 1324 c-3 -3 -12 -4 -19 -1 -8 3
-5 6 6 6 11 1 17 -2 13 -5z"/>
<path fill="#ffffff" stroke="none" d="M1440 1310 c0 -13 -11 -13 -30 0 -12 8
-11 10 8 10 12 0 22 -4 22 -10z"/>
<path fill="#ffffff" stroke="none" d="M5420 1310 c0 -5 -7 -10 -15 -10 -8 0
-15 5 -15 10 0 6 7 10 15 10 8 0 15 -4 15 -10z"/>
<path fill="#ffffff" stroke="none" d="M5240 1300 c0 -5 -8 -10 -17 -10 -15 0
-16 2 -3 10 19 12 20 12 20 0z"/>
<path fill="#ffffff" stroke="none" d="M5323 1303 c-7 -2 -19 -2 -25 0 -7 3
-2 5 12 5 14 0 19 -2 13 -5z"/>
<path fill="#ffffff" stroke="none" d="M5930 1300 c0 -5 -12 -10 -27 -9 -25 0
-26 1 -8 9 27 12 35 12 35 0z"/>
<path fill="#ffffff" stroke="none" d="M5160 1290 c0 -5 -9 -10 -21 -10 -11 0
-17 5 -14 10 3 6 13 10 21 10 8 0 14 -4 14 -10z"/>
<path fill="#ffffff" stroke="none" d="M4995 1280 c3 -5 -3 -10 -15 -10 -12 0
-18 5 -15 10 3 6 10 10 15 10 5 0 12 -4 15 -10z"/>
<path fill="#ffffff" stroke="none" d="M5073 1283 c-7 -2 -19 -2 -25 0 -7 3
-2 5 12 5 14 0 19 -2 13 -5z"/>
<path fill="#ffffff" stroke="none" d="M1474 1265 c3 -8 1 -15 -4 -15 -6 0
-10 7 -10 15 0 8 2 15 4 15 2 0 6 -7 10 -15z"/>
<path fill="#ffffff" stroke="none" d="M5960 1255 c0 -8 -4 -15 -10 -15 -5 0
-10 7 -10 15 0 8 5 15 10 15 6 0 10 -7 10 -15z"/>
<path fill="#ffffff" stroke="none" d="M2160 1230 c0 -5 -4 -10 -10 -10 -5 0
-10 5 -10 10 0 6 5 10 10 10 6 0 10 -4 10 -10z"/>
<path fill="#ffffff" stroke="none" d="M1430 1211 c0 -14 -18 -23 -30 -16 -6
4 -8 11 -5 16 8 12 35 12 35 0z"/>
<path fill="#ffffff" stroke="none" d="M1530 1196 c0 -15 -7 -26 -20 -29 -24
-6 -25 -2 -2 28 21 30 22 30 22 1z"/>
<path fill="#ffffff" stroke="none" d="M1890 1161 c0 -9 -61 -22 -69 -15 -5 4
39 22 57 23 6 1 12 -3 12 -8z"/>
<path fill="#ffffff" stroke="none" d="M1536 1113 c-11 -11 -17 4 -9 23 7 18
8 18 11 1 2 -10 1 -21 -2 -24z"/>
<path fill="#ffffff" stroke="none" d="M1385 1130 c-3 -5 -11 -10 -16 -10 -6
0 -7 5 -4 10 3 6 11 10 16 10 6 0 7 -4 4 -10z"/>
<path fill="#ffffff" stroke="none" d="M530 1114 c0 -8 -4 -12 -10 -9 -5 3
-10 10 -10 16 0 5 5 9 10 9 6 0 10 -7 10 -16z"/>
<path fill="#ffffff" stroke="none" d="M1153 1092 c-10 -3 -13 -15 -10 -44 5
-43 16 -55 61 -65 22 -5 25 -8 13 -14 -8 -5 -28 -4 -47 2 -23 9 -38 9 -56 0
-33 -15 -34 -15 -34 13 0 34 15 71 47 113 24 31 28 33 34 17 4 -12 1 -20 -8
-22z"/>
<path fill="#ffffff" stroke="none" d="M1965 1110 c-3 -5 -11 -10 -16 -10 -6
0 -7 5 -4 10 3 6 11 10 16 10 6 0 7 -4 4 -10z"/>
<path fill="#ffffff" stroke="none" d="M540 1056 c0 -11 -19 -15 -25 -6 -3 5
1 10 9 10 9 0 16 -2 16 -4z"/>
<path fill="#ffffff" stroke="none" d="M1340 1020 c0 -5 -2 -10 -4 -10 -3 0
-8 5 -11 10 -3 6 -1 10 4 10 6 0 11 -4 11 -10z"/>
<path fill="#ffffff" stroke="none" d="M1308 959 c-18 -10 -65 1 -48 11 6 4
23 5 37 2 19 -4 22 -7 11 -13z"/>
<path fill="#ffffff" stroke="none" d="M1555 970 c-11 -5 -29 -9 -40 -9 -17
-1 -17 1 -5 9 8 5 26 9 40 9 23 0 23 -1 5 -9z"/>
<path fill="#ffffff" stroke="none" d="M1357 954 c-3 -3 -12 -4 -19 -1 -8 3
-5 6 6 6 11 1 17 -2 13 -5z"/>
<path fill="#ffffff" stroke="none" d="M1493 953 c-7 -2 -21 -2 -30 0 -10 3
-4 5 12 5 17 0 24 -2 18 -5z"/>
<path fill="#ffffff" stroke="none" d="M1375 920 c3 -5 1 -10 -4 -10 -6 0 -11
5 -11 10 0 6 2 10 4 10 3 0 8 -4 11 -10z"/>
<path fill="#ffffff" stroke="none" d="M1150 900 c0 -5 -5 -10 -11 -10 -5 0
-7 5 -4 10 3 6 8 10 11 10 2 0 4 -4 4 -10z"/>
<path fill="#ffffff" stroke="none" d="M1250 876 c0 -3 -4 -8 -10 -11 -5 -3
-10 -1 -10 4 0 6 5 11 10 11 6 0 10 -2 10 -4z"/>
<path fill="#ffffff" stroke="none" d="M1791 836 c21 -4 42 -13 49 -21 7 -8
18 -15 24 -15 14 -1 48 -30 62 -55 6 -11 22 -20 35 -21 13 0 31 -4 40 -10 18
-10 35 -64 20 -64 -25 0 -65 23 -95 55 -21 22 -43 35 -58 35 -14 0 -31 7 -39
16 -21 25 -66 44 -106 44 -57 0 -68 12 -33 34 17 9 30 22 30 28 0 6 7 5 18 -4
9 -9 33 -18 53 -22z"/>
<path fill="#ffffff" stroke="none" d="M960 850 c0 -5 -4 -10 -10 -10 -5 0
-10 5 -10 10 0 6 5 10 10 10 6 0 10 -4 10 -10z"/>
<path fill="#ffffff" stroke="none" d="M1490 856 c0 -3 -4 -8 -10 -11 -5 -3
-10 -1 -10 4 0 6 5 11 10 11 6 0 10 -2 10 -4z"/>
<path fill="#ffffff" stroke="none" d="M925 840 c3 -5 1 -10 -4 -10 -6 0 -11
5 -11 10 0 6 2 10 4 10 3 0 8 -4 11 -10z"/>
<path fill="#ffffff" stroke="none" d="M1325 839 c12 -19 -3 -22 -27 -5 l-22
16 21 0 c12 0 25 -5 28 -11z"/>
<path fill="#ffffff" stroke="none" d="M870 836 c0 -3 -4 -8 -10 -11 -5 -3
-10 -1 -10 4 0 6 5 11 10 11 6 0 10 -2 10 -4z"/>
<path fill="#ffffff" stroke="none" d="M1010 798 c0 -5 -4 -8 -10 -8 -5 0 -10
10 -10 23 0 18 2 19 10 7 5 -8 10 -18 10 -22z"/>
<path fill="#ffffff" stroke="none" d="M1160 761 c0 -11 -9 -16 -30 -16 -33
-1 -38 13 -18 45 11 18 14 18 30 3 10 -9 18 -23 18 -32z"/>
<path fill="#ffffff" stroke="none" d="M2065 800 c-3 -5 -10 -10 -16 -10 -5 0
-9 5 -9 10 0 6 7 10 16 10 8 0 12 -4 9 -10z"/>
<path fill="#ffffff" stroke="none" d="M2098 782 c2 -7 -3 -12 -12 -12 -9 0
-16 7 -16 16 0 17 22 14 28 -4z"/>
<path fill="#ffffff" stroke="none" d="M1500 765 c-7 -8 -17 -15 -23 -15 -5 0
-2 9 8 20 21 23 35 19 15 -5z"/>
<path fill="#ffffff" stroke="none" d="M1569 739 c-19 -12 -24 -2 -8 17 9 11
14 13 17 4 3 -7 -2 -16 -9 -21z"/>
<path fill="#ffffff" stroke="none" d="M2105 712 c-5 -13 -8 -14 -14 -3 -5 7
-3 24 3 37 10 23 11 23 14 3 2 -11 1 -28 -3 -37z"/>
<path fill="#ffffff" stroke="none" d="M1464 740 c-6 -6 -36 -16 -67 -22 -45
-10 -59 -10 -69 1 -11 10 -8 11 12 6 14 -3 45 1 70 9 56 18 67 19 54 6z"/>
<path fill="#ffffff" stroke="none" d="M1110 690 c0 -20 -2 -22 -10 -10 -5 8
-10 26 -10 40 0 20 2 22 10 10 5 -8 10 -26 10 -40z"/>
<path fill="#ffffff" stroke="none" d="M1265 690 c3 -5 2 -10 -4 -10 -5 0 -13
5 -16 10 -3 6 -2 10 4 10 5 0 13 -4 16 -10z"/>
<path fill="#ffffff" stroke="none" d="M1458 614 c38 -18 40 -29 10 -37 -14
-4 -29 0 -41 10 -16 15 -19 15 -27 3 -6 -8 -10 -18 -10 -22 0 -12 -40 -9 -40
2 0 13 51 59 66 60 6 0 25 -7 42 -16z"/>
<path fill="#ffffff" stroke="none" d="M2125 620 c-3 -5 -11 -10 -16 -10 -6 0
-7 5 -4 10 3 6 11 10 16 10 6 0 7 -4 4 -10z"/>
<path fill="#ffffff" stroke="none" d="M975 580 c-3 -5 -10 -10 -16 -10 -5 0
-9 5 -9 10 0 6 7 10 16 10 8 0 12 -4 9 -10z"/>
<path fill="#ffffff" stroke="none" d="M380 389 c0 -5 -4 -9 -10 -9 -5 0 -10
7 -10 16 0 8 5 12 10 9 6 -3 10 -10 10 -16z"/>
<path fill="#ffffff" stroke="none" d="M376 324 c-15 -14 -16 -14 -16 4 0 11
6 22 13 25 19 6 21 -11 3 -29z"/>
<path fill="#ffffff" stroke="none" d="M280 310 c0 -5 -6 -10 -12 -10 -7 0 -5
-5 5 -11 9 -5 17 -17 17 -26 0 -13 -3 -13 -15 -3 -12 10 -15 10 -15 -3 0 -17
-18 -33 -26 -24 -3 3 0 15 6 27 10 18 9 24 -1 31 -12 7 -11 11 1 19 19 13 40
13 40 0z"/>
<path fill="#ffffff" stroke="none" d="M2086 271 c-3 -5 4 -21 15 -35 17 -21
19 -30 9 -41 -7 -8 -22 -14 -34 -14 -11 0 -41 -4 -66 -9 -55 -11 -88 -9 -117
7 -24 12 -31 41 -11 41 6 0 22 10 35 22 13 12 23 16 23 10 0 -21 85 -14 111 8
25 20 44 27 35 11z"/>
<path fill="#ffffff" stroke="none" d="M1670 136 c0 -6 -7 -2 -15 8 -8 11 -15
25 -15 30 0 6 7 2 15 -8 8 -11 15 -25 15 -30z"/>
<path fill="#ffffff" stroke="none" d="M1685 120 c3 -5 1 -10 -4 -10 -6 0 -11
5 -11 10 0 6 2 10 4 10 3 0 8 -4 11 -10z"/>
<path fill="#ffffff" stroke="none" d="M255 50 c3 -5 1 -10 -4 -10 -6 0 -11 5
-11 10 0 6 2 10 4 10 3 0 8 -4 11 -10z"/>
<path fill="#000000" stroke="none" d="M4970 3650 c0 -5 4 -10 9 -10 6 0 13 5
16 10 3 6 -1 10 -9 10 -9 0 -16 -4 -16 -10z"/>
<path fill="#000000" stroke="none" d="M3963 4297 c0 -8 6 -14 14 -14 9 0 10
4 2 14 -6 7 -12 13 -14 13 -1 0 -2 -6 -2 -13z"/>
<path fill="#000000" stroke="none" d="M5695 2371 c-3 -6 3 -9 14 -8 11 0 17
5 15 9 -7 11 -22 10 -29 -1z"/>
<path fill="#000000" stroke="none" d="M4968 1863 c7 -3 16 -2 19 1 4 3 -2 6
-13 5 -11 0 -14 -3 -6 -6z"/>
<path fill="#000000" stroke="none" d="M1003 4456 c4 -10 7 -24 7 -32 0 -8 7
-14 15 -14 8 0 15 5 15 10 0 6 -4 10 -9 10 -5 0 -8 7 -7 16 0 9 -5 19 -13 22
-10 3 -12 0 -8 -12z"/>
<path fill="#000000" stroke="none" d="M1095 4420 c-3 -5 -1 -10 4 -10 6 0 11
5 11 10 0 6 -2 10 -4 10 -3 0 -8 -4 -11 -10z"/>
<path fill="#000000" stroke="none" d="M1105 4319 c-4 -6 -5 -12 -2 -15 2 -3
7 2 10 11 7 17 1 20 -8 4z"/>
<path fill="#000000" stroke="none" d="M601 4074 c0 -11 3 -14 6 -6 3 7 2 16
-1 19 -3 4 -6 -2 -5 -13z"/>
<path fill="#000000" stroke="none" d="M1525 3959 c-62 -49 -75 -82 -16 -44
21 15 51 27 67 29 27 3 108 -28 137 -52 8 -7 17 -9 20 -5 4 3 13 1 21 -6 8 -6
18 -11 22 -10 5 1 18 1 29 0 18 -1 18 -3 3 -11 -10 -6 -26 -7 -40 -1 -13 4
-32 7 -43 5 -11 -2 -40 -6 -65 -10 -25 -3 -46 -10 -48 -15 -2 -5 -10 -9 -18
-9 -8 0 -14 -4 -14 -10 0 -5 -4 -10 -10 -10 -14 0 -47 -35 -54 -58 -5 -14 2
-27 24 -46 17 -14 28 -30 25 -36 -3 -5 1 -10 9 -10 9 0 16 -5 16 -11 0 -5 4
-8 9 -4 6 3 15 0 22 -8 7 -7 26 -11 47 -9 25 3 39 0 48 -12 10 -15 12 -15 18
-1 3 10 15 15 28 13 11 -2 23 2 25 8 2 6 -12 11 -34 12 -47 2 -131 21 -138 32
-3 4 2 10 10 14 8 3 15 12 15 19 0 8 7 20 16 28 13 10 17 10 24 -1 5 -8 6 -18
3 -23 -3 -5 5 -19 18 -33 46 -49 119 -18 119 52 0 32 2 35 23 28 31 -10 66
-34 76 -53 5 -9 13 -13 16 -9 4 4 -7 20 -23 36 -23 22 -27 32 -17 36 7 2 16 0
19 -7 2 -7 5 -7 5 -2 1 6 -21 28 -49 49 -27 21 -50 40 -50 42 0 1 32 1 70 0
79 -4 89 6 37 41 -58 39 -185 75 -282 80 -83 5 -92 3 -120 -18z"/>
<path fill="#ffffff" stroke="none" d="M1785 3760 c4 -6 -7 -10 -27 -10 -25 0
-29 3 -18 10 19 13 37 13 45 0z"/>
<path fill="#000000" stroke="none" d="M2601 3931 c-8 -5 -20 -7 -28 -4 -7 3
-21 2 -30 -2 -10 -5 -22 -9 -28 -9 -47 -6 -133 -76 -149 -121 -6 -17 -4 -17
18 4 33 31 33 20 1 -26 -35 -52 -23 -53 24 -2 36 39 40 42 41 21 0 -30 43 -72
73 -72 41 0 71 32 69 73 -1 24 3 37 11 37 20 0 82 -69 71 -79 -12 -11 -133
-51 -156 -51 -10 0 -18 -4 -18 -9 0 -11 69 -20 72 -9 2 5 21 9 43 9 22 1 50 8
62 15 12 8 27 14 33 14 14 0 40 25 40 39 0 6 4 11 9 11 5 0 12 7 15 16 3 8 2
12 -4 9 -15 -9 -12 2 8 32 9 15 11 24 5 20 -8 -5 -13 -3 -13 4 0 9 -3 9 -14 0
-11 -9 -16 -6 -24 19 -8 23 -17 30 -37 30 -14 0 -28 7 -31 15 -4 10 -13 13
-26 9 -14 -4 -18 -2 -14 5 9 13 -4 14 -23 2z"/>
<path fill="#ffffff" stroke="none" d="M2543 3883 c-7 -2 -21 -2 -30 0 -10 3
-4 5 12 5 17 0 24 -2 18 -5z"/>
<path fill="#ffffff" stroke="none" d="M2722 3838 c-7 -7 -12 -8 -12 -2 0 6 3
14 7 17 3 4 9 5 12 2 2 -3 -1 -11 -7 -17z"/>
<path fill="#ffffff" stroke="none" d="M2549 3816 c-12 -10 -59 -15 -59 -6 0
5 14 10 32 10 17 0 29 -2 27 -4z"/>
<path fill="#000000" stroke="none" d="M5812 3549 c-12 -5 -29 -6 -37 -3 -8 4
-15 1 -15 -5 0 -8 -11 -10 -35 -5 -21 4 -41 2 -49 -5 -10 -9 -15 -8 -20 4 -5
15 -32 20 -59 9 -11 -4 -7 -13 17 -37 17 -18 34 -31 38 -29 26 12 48 9 48 -5
0 -13 8 -9 30 12 17 16 54 37 82 46 28 9 45 18 37 21 -8 3 -24 2 -37 -3z"/>
<path fill="#000000" stroke="none" d="M5450 3400 c0 -5 5 -10 10 -10 6 0 10
5 10 10 0 6 -4 10 -10 10 -5 0 -10 -4 -10 -10z"/>
<path fill="#000000" stroke="none" d="M5730 3329 c0 -5 5 -7 10 -4 6 3 10 8
10 11 0 2 -4 4 -10 4 -5 0 -10 -5 -10 -11z"/>
<path fill="#000000" stroke="none" d="M5299 3201 c55 -52 66 -58 75 -42 6 9
-70 76 -87 76 -7 0 -19 4 -27 9 -8 5 9 -15 39 -43z"/>
<path fill="#000000" stroke="none" d="M5206 3221 c-19 -21 -19 -22 2 -41 11
-11 25 -27 30 -35 5 -9 17 -18 28 -19 10 -2 21 -11 23 -22 5 -28 31 -54 47
-47 13 5 18 -7 15 -34 -1 -7 8 -17 19 -23 11 -6 20 -8 20 -4 0 3 11 -1 24 -9
20 -14 26 -14 42 -2 18 13 17 14 -10 15 -21 0 -27 4 -22 15 4 10 -1 15 -14 15
-21 0 -45 34 -35 50 3 5 -6 12 -20 16 -13 3 -23 10 -20 14 3 4 -2 13 -10 20
-11 9 -15 9 -15 1 0 -7 -4 -10 -10 -6 -5 3 -7 12 -4 20 3 8 -11 32 -33 55
l-38 42 -19 -21z"/>
<path fill="#000000" stroke="none" d="M2278 3185 c-6 -14 -17 -25 -25 -25 -7
0 -13 -5 -13 -11 0 -6 -8 -8 -19 -4 -22 7 -38 -22 -21 -39 8 -8 17 -3 31 16
12 16 26 25 34 21 8 -3 15 0 15 6 0 8 13 9 40 5 31 -5 45 -3 60 11 20 18 20
18 -6 31 -43 23 -83 18 -96 -11z"/>
<path fill="#000000" stroke="none" d="M2026 3171 c-10 -11 -15 -25 -11 -30 8
-14 52 -14 60 -2 3 6 19 8 35 6 26 -3 29 -1 20 15 -19 35 -77 41 -104 11z"/>
<path fill="#000000" stroke="none" d="M5380 3135 c-8 -9 -8 -15 -2 -15 12 0
26 19 19 26 -2 2 -10 -2 -17 -11z"/>
<path fill="#000000" stroke="none" d="M5423 3133 c-4 -10 -11 -21 -16 -24
-12 -8 21 -47 56 -65 24 -13 27 -13 27 1 0 21 16 19 33 -6 19 -26 32 -7 15 21
-7 11 -16 20 -20 20 -5 0 -8 5 -8 10 0 14 -51 59 -68 60 -7 0 -16 -8 -19 -17z"/>
<path fill="#000000" stroke="none" d="M5590 3101 c0 -5 5 -13 10 -16 6 -3 10
-2 10 4 0 5 -4 13 -10 16 -5 3 -10 2 -10 -4z"/>
<path fill="#000000" stroke="none" d="M745 3089 c-4 -6 1 -16 11 -24 23 -16
28 -13 19 14 -7 23 -20 27 -30 10z"/>
<path fill="#000000" stroke="none" d="M5596 3025 c4 -8 14 -15 23 -15 24 0
62 -30 55 -42 -4 -6 -3 -8 3 -5 6 4 8 18 5 32 -4 24 -16 29 -54 26 -10 -1 -18
3 -18 8 0 6 -4 11 -10 11 -5 0 -7 -7 -4 -15z"/>
<path fill="#000000" stroke="none" d="M5725 3030 c-3 -5 1 -10 9 -10 9 0 16
5 16 10 0 6 -4 10 -9 10 -6 0 -13 -4 -16 -10z"/>
<path fill="#000000" stroke="none" d="M5550 2974 c0 -9 7 -14 17 -12 25 5 28
28 4 28 -12 0 -21 -6 -21 -16z"/>
<path fill="#000000" stroke="none" d="M2549 2976 c-2 -2 -35 -6 -72 -8 -37
-3 -73 -10 -79 -16 -6 -6 -16 -8 -23 -6 -7 3 -19 -4 -27 -15 -12 -17 -23 -20
-59 -18 -24 2 -54 0 -67 -5 -14 -5 -31 -4 -42 2 -15 8 -21 6 -29 -7 -6 -11
-11 -13 -11 -5 0 10 -5 10 -20 2 -12 -6 -20 -7 -20 -1 0 5 -9 7 -21 4 -12 -4
-25 0 -30 8 -5 8 -9 10 -9 4 0 -6 -28 -10 -65 -9 -132 1 -50 -33 100 -42 157
-9 173 -8 245 10 163 43 250 76 250 96 0 10 -13 14 -21 6z"/>
<path fill="#ffffff" stroke="none" d="M2380 2936 c0 -3 -4 -8 -10 -11 -5 -3
-10 -1 -10 4 0 6 5 11 10 11 6 0 10 -2 10 -4z"/>
<path fill="#000000" stroke="none" d="M5484 2758 l-19 -23 23 19 c12 11 22
21 22 23 0 8 -8 2 -26 -19z"/>
<path fill="#000000" stroke="none" d="M2347 2763 c-3 -5 -39 -11 -79 -12 -79
-2 -108 -7 -108 -21 0 -5 39 -7 88 -3 48 3 98 6 111 5 13 0 20 3 14 6 -5 4
-12 14 -15 22 -3 9 -7 10 -11 3z"/>
<path fill="#000000" stroke="none" d="M825 2751 c-3 -5 -1 -12 5 -16 5 -3 10
1 10 9 0 18 -6 21 -15 7z"/>
<path fill="#000000" stroke="none" d="M5648 2729 c-10 -5 -18 -14 -18 -19 0
-12 53 4 58 18 5 15 -17 15 -40 1z"/>
<path fill="#000000" stroke="none" d="M818 2678 c4 -28 6 -30 12 -13 8 21 3
45 -9 45 -4 0 -5 -15 -3 -32z"/>
<path fill="#000000" stroke="none" d="M852 2328 c3 -7 13 -15 24 -17 16 -3
17 -1 5 13 -16 19 -34 21 -29 4z"/>
<path fill="#000000" stroke="none" d="M5875 1640 c-3 -6 -1 -10 6 -10 8 0 8
-4 -1 -15 -15 -18 -4 -20 14 -2 11 10 11 15 0 25 -8 7 -15 8 -19 2z"/>
<path fill="#000000" stroke="none" d="M5806 1607 c3 -10 9 -15 12 -12 3 3 0
11 -7 18 -10 9 -11 8 -5 -6z"/>
<path fill="#000000" stroke="none" d="M350 1420 c-11 -7 -7 -10 18 -10 20 0
31 4 27 10 -8 13 -26 13 -45 0z"/>
<path fill="#000000" stroke="none" d="M485 1370 c-3 -5 -1 -10 4 -10 6 0 11
5 11 10 0 6 -2 10 -4 10 -3 0 -8 -4 -11 -10z"/>
<path fill="#000000" stroke="none" d="M6025 1250 c-3 -5 -1 -10 4 -10 6 0 11
5 11 10 0 6 -2 10 -4 10 -3 0 -8 -4 -11 -10z"/>
<path fill="#000000" stroke="none" d="M4505 930 c-3 -5 -1 -10 4 -10 6 0 11
5 11 10 0 6 -2 10 -4 10 -3 0 -8 -4 -11 -10z"/>
<path fill="#000000" stroke="none" d="M871 719 c-13 -37 -13 -36 14 -41 12
-2 19 2 17 10 -1 7 3 12 10 11 26 -3 39 1 33 12 -4 6 -10 8 -13 5 -3 -4 -15 3
-28 15 l-22 20 -11 -32z"/>
<path fill="#000000" stroke="none" d="M926 657 c3 -10 9 -15 12 -12 3 3 0 11
-7 18 -10 9 -11 8 -5 -6z"/>
<path fill="#000000" stroke="none" d="M830 639 c0 -5 5 -7 10 -4 6 3 10 8 10
11 0 2 -4 4 -10 4 -5 0 -10 -5 -10 -11z"/>
<path fill="#000000" stroke="none" d="M390 585 c0 -5 5 -17 10 -25 5 -8 10
-10 10 -5 0 6 -5 17 -10 25 -5 8 -10 11 -10 5z"/>
<path fill="#000000" stroke="none" d="M750 499 c0 -5 5 -7 10 -4 6 3 10 8 10
11 0 2 -4 4 -10 4 -5 0 -10 -5 -10 -11z"/>
<path fill="#000000" stroke="none" d="M90 469 c0 -5 5 -7 10 -4 6 3 10 8 10
11 0 2 -4 4 -10 4 -5 0 -10 -5 -10 -11z"/>
<path fill="#000000" stroke="none" d="M770 476 c0 -9 30 -14 35 -6 4 6 -3 10
-14 10 -12 0 -21 -2 -21 -4z"/>
<path fill="#000000" stroke="none" d="M1036 463 c-6 -14 -5 -15 5 -6 7 7 10
15 7 18 -3 3 -9 -2 -12 -12z"/>
<path fill="#000000" stroke="none" d="M240 421 c0 -8 -7 -10 -20 -6 -14 5
-20 2 -20 -9 0 -20 10 -20 36 -2 10 8 16 18 11 22 -4 4 -7 2 -7 -5z"/>
<path fill="#000000" stroke="none" d="M861 403 c-7 -8 -11 -16 -8 -19 2 -2
10 2 17 11 17 20 9 27 -9 8z"/>
<path fill="#000000" stroke="none" d="M170 365 c-17 -21 -9 -27 13 -10 10 7
14 16 9 19 -5 3 -15 -1 -22 -9z"/>
<path fill="#000000" stroke="none" d="M910 370 c0 -5 4 -10 9 -10 6 0 13 5
16 10 3 6 -1 10 -9 10 -9 0 -16 -4 -16 -10z"/>
<path fill="#000000" stroke="none" d="M835 330 c-3 -5 1 -10 10 -10 9 0 13 5
10 10 -3 6 -8 10 -10 10 -2 0 -7 -4 -10 -10z"/>
<path fill="#000000" stroke="none" d="M165 320 c-3 -5 1 -10 9 -10 9 0 16 5
16 10 0 6 -4 10 -9 10 -6 0 -13 -4 -16 -10z"/>
<path fill="#000000" stroke="none" d="M846 232 c-3 -5 1 -9 9 -9 8 0 15 4 15
9 0 4 -4 8 -9 8 -6 0 -12 -4 -15 -8z"/>
</g>
</svg>
