<?xml version="1.0" standalone="no"?>
<!DOCTYPE svg PUBLIC "-//W3C//DTD SVG 20010904//EN"
 "http://www.w3.org/TR/2001/REC-SVG-20010904/DTD/svg10.dtd">
<svg version="1.0" xmlns="http://www.w3.org/2000/svg"
 width="280.000000pt" height="125.000000pt" viewBox="0 0 280.000000 125.000000"
 preserveAspectRatio="xMidYMid meet">
<metadata>
Created by potrace 1.11, written by Peter Selinger 2001-2013
</metadata>
<g transform="translate(0.000000,125.000000) scale(0.100000,-0.100000)"
fill="#000000" stroke="none">
<path fill="#000000" stroke="none" d="M1805 1180 c-3 -5 4 -28 15 -51 21 -40
60 -214 60 -264 0 -14 -6 -25 -13 -25 -22 0 -93 -67 -107 -99 -19 -46 -7 -72
67 -149 61 -64 113 -95 130 -79 3 4 -2 67 -12 142 -10 74 -16 138 -12 141 3 4
27 -6 52 -21 43 -25 96 -90 111 -137 3 -10 14 -18 24 -18 14 0 22 11 30 43 17
67 28 87 49 87 22 0 71 -44 130 -117 47 -59 75 -67 93 -28 6 14 15 25 19 25 7
0 69 -161 69 -179 0 -5 -20 -14 -45 -21 -32 -9 -45 -18 -45 -30 0 -27 24 -31
71 -12 25 9 44 12 46 7 2 -6 18 -32 35 -60 39 -62 48 -44 17 37 -22 58 -22 61
-4 71 32 17 108 91 97 95 -5 1 -33 -13 -62 -33 -29 -20 -58 -34 -63 -32 -6 2
-25 46 -42 98 -58 173 -85 198 -112 104 l-15 -50 -41 50 c-54 65 -106 113
-130 121 -30 10 -74 -15 -88 -49 -7 -18 -13 -33 -14 -34 -1 -2 -28 24 -62 56
-36 35 -73 62 -92 66 -17 4 -35 14 -40 23 -5 9 -14 63 -20 119 -13 114 -23
155 -46 189 -16 25 -39 31 -50 14z"/>
<path fill="#ffffff" stroke="none" d="M1907 689 c7 -57 12 -109 10 -116 -3
-14 -26 5 -84 69 -31 34 -40 52 -36 68 8 29 69 93 85 88 8 -3 17 -42 25 -109z"/>
<path fill="#000000" stroke="none" d="M354 1084 c-73 -24 -186 -175 -201
-268 -3 -20 0 -49 7 -66 10 -25 9 -40 -8 -97 -37 -123 -46 -186 -47 -313 0
-109 3 -130 21 -165 34 -62 58 -79 112 -79 66 0 132 25 327 119 94 46 182 86
197 89 15 4 35 17 44 30 l15 25 33 -20 c24 -14 36 -31 45 -62 23 -78 65 -187
73 -187 13 0 10 15 -24 129 l-31 108 29 59 c26 53 29 68 28 154 -1 67 -8 113
-22 155 -12 33 -19 61 -17 64 19 18 84 -109 119 -234 14 -50 32 -95 42 -102
22 -16 54 -8 75 20 l17 21 32 -27 c17 -15 40 -27 50 -27 26 0 55 40 70 97 7
26 14 50 16 52 2 2 17 -13 34 -33 40 -45 84 -49 120 -11 28 30 35 31 67 6 23
-19 53 -19 53 0 0 17 -75 78 -97 79 -14 0 -29 -12 -43 -36 -13 -20 -29 -34
-38 -32 -9 2 -34 29 -55 61 -48 69 -73 75 -82 20 -22 -142 -38 -178 -69 -148
-25 25 -36 82 -26 134 8 44 5 125 -6 143 -10 16 -32 7 -38 -14 -3 -13 -6 -59
-6 -104 0 -82 -12 -138 -35 -163 -17 -17 -27 1 -53 96 -23 79 -73 187 -104
221 -13 13 -33 22 -50 22 -16 0 -44 11 -62 25 -41 31 -76 33 -76 5 0 -13 11
-25 34 -34 47 -19 50 -29 22 -71 -22 -32 -46 -111 -46 -150 0 -19 -14 -19 -30
1 -8 8 -33 27 -57 41 -36 21 -43 30 -41 51 4 33 -27 43 -37 13 -5 -17 -11 -20
-33 -14 -15 4 -60 14 -101 22 l-75 16 -16 112 c-15 111 -33 153 -66 153 -25 0
-81 -60 -114 -122 -43 -80 -52 -59 -12 27 56 119 154 199 214 176 31 -12 68
-57 68 -82 0 -25 17 -24 25 0 8 27 -19 87 -46 102 -42 22 -85 27 -125 13z"/>
<path fill="#ffffff" stroke="none" d="M369 882 c6 -20 13 -68 17 -106 l7 -69
-49 7 c-61 9 -124 25 -124 32 0 3 12 29 26 58 29 60 89 130 104 121 5 -3 14
-23 19 -43z"/>
<path fill="#ffffff" stroke="none" d="M936 613 c10 -48 14 -90 9 -120 -7 -49
-24 -93 -35 -93 -4 0 -12 39 -19 88 -7 48 -19 100 -27 116 -18 38 -18 45 7 86
20 32 22 33 35 16 7 -10 21 -52 30 -93z"/>
<path fill="#ffffff" stroke="none" d="M323 678 c66 -9 78 -14 82 -32 2 -11
12 -64 20 -116 21 -127 52 -249 70 -277 15 -22 14 -23 -64 -63 -107 -53 -187
-75 -224 -61 -38 15 -67 84 -74 174 -6 83 17 240 48 335 19 57 24 63 43 57 11
-3 56 -11 99 -17z"/>
<path fill="#ffffff" stroke="none" d="M510 649 c112 -25 120 -29 120 -53 0
-76 -50 -289 -75 -322 -15 -19 -15 -18 -34 3 -10 12 -28 57 -40 100 -22 85
-51 264 -44 276 6 9 18 9 73 -4z"/>
<path fill="#ffffff" stroke="none" d="M727 561 c40 -37 53 -62 53 -103 0 -32
-32 -98 -48 -98 -24 0 -62 120 -62 195 0 43 14 44 57 6z"/>
<path fill="#ffffff" stroke="none" d="M864 428 c3 -13 6 -32 6 -43 -1 -20 -1
-20 -15 -1 -16 22 -20 66 -6 66 5 0 11 -10 15 -22z"/>
<path fill="#ffffff" stroke="none" d="M670 388 c11 -23 20 -47 20 -53 0 -12
-67 -51 -75 -43 -5 4 26 138 32 138 1 0 12 -19 23 -42z"/>
</g>
</svg>
