<?xml version="1.0" standalone="no"?>
<!DOCTYPE svg PUBLIC "-//W3C//DTD SVG 20010904//EN"
 "http://www.w3.org/TR/2001/REC-SVG-20010904/DTD/svg10.dtd">
<svg version="1.0" xmlns="http://www.w3.org/2000/svg"
 width="604.000000pt" height="604.000000pt" viewBox="0 0 604.000000 604.000000"
 preserveAspectRatio="xMidYMid meet">
<metadata>
Created by potrace 1.11, written by Peter Selinger 2001-2013
</metadata>
<g transform="translate(0.000000,604.000000) scale(0.100000,-0.100000)"
fill="#000000" stroke="none">
<path fill="#000000" stroke="none" d="M2405 6031 c-3 -5 3 -12 12 -15 10 -3
7 -4 -7 -2 -14 2 -33 7 -43 11 -12 5 -17 3 -15 -6 2 -10 -6 -13 -30 -11 -19 1
-31 -2 -28 -7 4 -5 -4 -13 -16 -17 -30 -10 -34 -11 -60 -13 -19 -1 -20 -3 -8
-11 8 -5 11 -10 5 -11 -5 -1 -14 -3 -20 -4 -5 -1 -31 -5 -57 -9 -27 -5 -48
-12 -48 -17 0 -5 13 -6 29 -3 23 5 29 2 34 -15 6 -24 -2 -26 -37 -10 -21 10
-29 7 -60 -17 -20 -16 -32 -30 -27 -32 14 -5 1 -32 -15 -32 -24 0 -64 -23 -64
-37 0 -7 5 -13 11 -13 8 0 8 -5 -1 -15 -15 -18 -34 -20 -24 -2 3 6 -6 0 -20
-16 -15 -15 -32 -25 -38 -21 -7 4 -7 0 1 -13 11 -22 6 -34 -13 -27 -7 3 -18
-7 -24 -21 -6 -14 -20 -25 -29 -25 -10 0 -25 -5 -33 -11 -13 -9 -12 -10 3 -5
11 3 17 0 17 -9 0 -8 -7 -15 -16 -15 -14 0 -14 -1 0 -16 9 -8 13 -20 10 -26
-4 -7 -2 -8 4 -4 7 4 12 3 12 -3 0 -5 -13 -15 -30 -23 -16 -7 -30 -20 -29 -28
0 -10 2 -11 6 -2 2 6 11 12 19 12 11 0 12 -4 4 -19 -11 -21 -4 -51 12 -51 6 0
5 -6 -2 -15 -10 -12 -16 -13 -26 -4 -11 9 -14 7 -14 -10 0 -12 5 -19 10 -16 6
3 10 2 10 -4 0 -5 -4 -12 -10 -16 -5 -3 -7 -12 -3 -20 3 -8 1 -15 -4 -15 -5 0
-10 -7 -10 -15 0 -8 7 -15 15 -15 11 0 13 -8 9 -36 -7 -40 -17 -56 -24 -36
-11 29 -19 8 -18 -44 1 -45 -3 -58 -19 -70 -18 -12 -18 -14 -3 -14 9 0 17 -4
17 -10 0 -5 -6 -7 -14 -4 -17 7 -16 -25 2 -44 15 -17 16 -58 1 -68 -16 -9 -30
18 -17 33 13 16 4 17 -23 3 -15 -8 -19 -7 -19 5 0 8 -4 15 -9 15 -13 0 -24
-34 -12 -38 6 -2 9 -8 6 -13 -3 -5 -3 -25 1 -45 6 -32 8 -35 19 -21 13 18 35
23 35 8 0 -6 -4 -13 -10 -16 -5 -3 -10 -11 -10 -17 0 -7 6 -6 15 2 16 13 16
10 18 -66 1 -14 6 -20 14 -17 9 3 11 0 7 -10 -3 -10 2 -18 15 -22 16 -5 18
-11 12 -28 -4 -11 -5 -36 -1 -54 6 -23 4 -36 -6 -44 -8 -6 -14 -19 -14 -27 0
-13 3 -12 16 4 14 18 15 18 8 -6 -6 -22 -5 -23 10 -11 20 16 20 5 1 -29 -17
-30 -18 -40 -5 -40 6 0 10 6 10 14 0 8 12 28 26 43 l25 28 -7 -25 c-5 -21 -4
-23 7 -12 8 7 14 18 14 24 0 6 5 13 11 15 6 2 10 -10 10 -27 0 -16 -3 -30 -7
-30 -3 0 -6 -12 -6 -26 0 -30 -20 -46 -45 -38 -19 6 -25 -10 -8 -21 5 -3 7
-12 3 -20 -3 -8 0 -15 7 -15 7 0 10 8 7 19 -3 12 1 22 10 25 22 9 26 7 19 -9
-3 -8 -1 -15 5 -15 6 0 7 -4 4 -10 -3 -5 0 -7 8 -4 8 3 18 1 22 -5 3 -6 -1
-11 -9 -11 -11 0 -16 -10 -16 -31 0 -24 3 -30 16 -25 10 4 14 2 11 -6 -2 -7
-9 -12 -15 -11 -5 1 -2 -18 7 -44 10 -30 23 -47 35 -49 10 -1 23 -7 29 -13 6
-6 17 -11 25 -11 7 0 19 -6 25 -12 14 -16 20 -58 8 -58 -12 0 -32 26 -25 33 3
3 -3 3 -15 0 -21 -5 -20 -23 1 -23 6 0 26 -15 44 -34 56 -58 62 -9 9 69 -34
49 -34 50 -12 56 21 5 21 6 -8 23 l-30 17 27 -6 c15 -3 30 0 33 5 4 6 11 8 16
5 5 -4 2 -19 -7 -37 -9 -16 -11 -28 -6 -24 13 8 33 -17 35 -42 1 -13 6 -18 15
-14 11 4 13 0 7 -19 -7 -22 -7 -23 10 -9 17 14 18 13 12 -3 -5 -14 -2 -20 13
-24 13 -4 20 -14 20 -30 0 -20 -2 -22 -14 -11 -8 7 -12 16 -9 21 2 4 0 7 -6 7
-18 0 -18 -25 0 -57 15 -26 15 -32 3 -37 -9 -3 -14 1 -15 12 0 12 -3 10 -10
-6 -11 -28 -5 -41 24 -51 21 -8 49 7 40 22 -2 4 3 7 12 7 9 0 14 -4 11 -8 -5
-8 28 -42 40 -42 4 0 -1 11 -10 25 -9 14 -13 25 -8 25 11 0 46 -41 56 -65 5
-12 10 -15 13 -8 5 14 -45 103 -58 103 -4 0 -6 7 -3 15 4 8 10 12 15 9 5 -3 9
-1 9 5 0 5 -8 14 -17 20 -17 9 -17 10 -1 16 20 8 41 -2 33 -15 -3 -5 4 -7 15
-5 11 2 20 0 20 -6 0 -5 -4 -9 -10 -9 -18 0 -10 -18 16 -35 15 -9 23 -12 20
-6 -4 6 -2 11 3 11 6 0 11 -4 11 -10 0 -5 5 -10 12 -10 6 0 1 11 -11 24 -20
21 -20 24 -5 30 9 3 23 1 30 -5 9 -8 14 -8 14 -1 0 6 -4 14 -10 17 -5 3 -10
11 -10 18 0 26 29 -20 36 -57 6 -36 5 -39 -12 -32 -15 6 -17 5 -6 -5 16 -17
16 -35 -1 -21 -9 8 -13 7 -14 -6 -1 -9 -4 -30 -7 -46 -2 -16 -1 -25 4 -20 5 5
10 20 12 34 4 24 5 24 19 -10 12 -26 13 -40 5 -52 -7 -11 -13 -13 -17 -6 -4 6
-10 -3 -14 -21 -5 -23 -1 -38 15 -61 29 -41 37 -38 12 4 l-21 35 23 -2 c12 -1
43 -24 69 -50 26 -27 47 -43 47 -36 0 7 11 3 25 -11 14 -13 25 -20 25 -15 0 4
8 1 18 -8 12 -11 18 -30 17 -55 -1 -28 5 -44 27 -65 15 -16 32 -26 37 -23 8 5
23 -17 25 -37 1 -4 6 -11 12 -15 14 -9 39 -54 36 -65 -4 -15 19 -48 30 -41 6
4 8 -1 3 -16 -5 -15 -1 -29 12 -43 35 -39 86 -127 79 -134 -2 -2 16 -34 40
-70 24 -37 44 -72 44 -78 1 -14 69 -122 71 -110 0 6 9 -8 20 -30 10 -22 19
-35 19 -30 0 14 -25 83 -33 91 -4 4 -7 18 -7 31 0 33 27 29 78 -12 24 -19 52
-37 62 -40 16 -5 17 -10 10 -31 -15 -40 -12 -72 10 -94 17 -17 18 -24 9 -41
-14 -27 13 -61 32 -42 9 9 18 8 35 -4 13 -8 21 -19 19 -24 -6 -9 11 -43 38
-73 19 -22 22 -36 7 -36 -15 0 -50 38 -50 54 0 8 -4 17 -9 21 -14 8 -4 -33 14
-62 17 -26 79 -57 98 -50 7 3 24 -7 40 -21 16 -15 27 -20 27 -13 0 10 6 9 25
-3 23 -15 24 -15 19 1 -4 13 0 12 15 -6 12 -13 21 -30 21 -38 0 -8 4 -12 9 -9
8 5 61 -54 61 -68 0 -3 -7 -6 -15 -6 -21 0 -19 -18 2 -22 10 -2 28 7 41 19 13
12 31 19 40 16 12 -3 13 -2 5 4 -9 6 -7 12 9 22 18 11 20 11 15 -3 -8 -19 30
-31 72 -23 15 3 33 1 40 -6 8 -8 11 -8 11 2 0 7 4 10 9 7 5 -3 11 4 14 16 8
27 16 20 19 -15 1 -14 7 -25 13 -24 5 1 9 -9 7 -23 -3 -24 -2 -24 13 -5 16 20
16 20 12 -3 -3 -12 -1 -22 4 -22 5 0 9 -20 9 -44 0 -62 18 -104 51 -122 32
-16 33 -20 20 -132 -7 -55 -15 -80 -32 -98 -48 -51 -15 -145 90 -254 80 -84
138 -130 162 -130 25 0 28 41 6 63 -13 13 -17 27 -13 42 4 15 0 29 -10 39 -8
9 -12 16 -8 16 3 0 1 7 -7 16 -7 8 -13 26 -14 39 0 20 5 24 50 29 27 4 69 9
93 12 38 6 42 4 42 -15 0 -11 5 -21 11 -21 7 0 8 7 4 18 -5 9 -8 29 -8 45 1
15 -4 27 -9 27 -5 0 -6 5 -3 10 3 6 2 10 -3 10 -10 0 -21 34 -28 84 -2 15 -9
35 -15 42 -7 8 -9 17 -7 20 10 9 45 -49 53 -86 8 -38 24 -74 30 -68 7 7 -31
142 -63 223 -32 81 -72 217 -113 379 -18 74 -20 90 -8 97 11 7 10 9 -3 9 -22
0 -25 55 -4 63 7 3 16 16 19 29 6 22 5 22 -8 4 -20 -26 -23 -20 -26 44 -3 69
6 99 29 93 9 -2 26 3 37 11 26 19 26 97 0 126 -22 24 -35 26 -35 5 0 -8 -3
-15 -8 -15 -8 0 -32 114 -32 154 0 14 -5 28 -10 31 -6 4 -7 23 -4 45 5 29 2
47 -11 66 -9 14 -14 33 -10 42 5 14 7 14 15 2 8 -13 10 -12 10 2 0 12 5 15 16
11 13 -5 15 -2 10 13 -3 10 -6 36 -8 58 -2 27 -11 48 -32 70 l-29 31 32 3 c26
3 31 7 26 23 -5 15 -1 19 17 19 21 0 19 4 -19 41 -24 22 -43 42 -43 45 0 18
-96 103 -128 113 -20 7 -53 25 -72 41 l-35 28 38 18 c35 17 39 17 94 0 32 -10
67 -27 79 -37 13 -12 28 -17 38 -13 15 6 15 8 -4 21 -11 8 -27 27 -35 43 -9
17 -27 33 -43 37 -15 3 -45 14 -67 24 -22 10 -54 19 -72 19 -22 0 -36 6 -43
20 -18 34 -5 41 103 57 35 5 37 6 20 18 -10 7 -45 16 -77 20 -46 6 -59 12 -66
29 -11 30 4 43 63 52 63 10 82 10 125 0 48 -11 38 4 -28 46 -49 30 -60 42 -60
64 0 25 2 26 43 21 23 -2 51 -8 62 -12 16 -5 15 -2 -6 17 -24 21 -26 28 -22
73 3 28 10 53 15 56 5 3 2 12 -7 19 -8 7 -15 16 -15 21 0 4 -11 20 -25 35 -26
28 -34 50 -12 38 6 -4 3 4 -9 17 -36 42 -56 80 -50 95 3 9 1 12 -4 9 -6 -3
-20 1 -32 9 -12 9 -17 16 -10 16 19 0 -10 38 -46 60 -18 11 -43 45 -66 90 -20
40 -50 88 -66 108 -17 20 -30 45 -30 55 0 10 -4 16 -10 12 -5 -3 -17 7 -27 21
-13 20 -14 29 -5 32 17 5 15 27 -3 42 -9 7 -14 19 -11 26 2 6 -5 15 -17 19
-12 4 -24 8 -27 9 -3 1 -15 5 -27 10 -14 4 -20 12 -16 22 6 16 -12 20 -22 4
-9 -15 -56 31 -50 50 3 10 -1 23 -10 30 -12 10 -13 16 -4 26 6 8 15 12 19 9 4
-3 11 12 16 33 8 42 14 104 7 84 -3 -6 -9 -10 -14 -6 -5 3 -9 -2 -9 -10 0 -9
-5 -16 -11 -16 -8 0 -10 14 -6 40 6 45 1 51 -13 18 -7 -19 -9 -16 -9 20 -1 28
-6 45 -16 48 -9 4 -15 11 -14 18 4 30 -2 38 -23 33 -12 -4 -28 -1 -35 5 -9 7
-13 7 -13 0 0 -6 -7 -9 -15 -6 -10 4 -13 2 -10 -8 3 -8 -1 -21 -10 -28 -20
-16 -47 4 -43 33 2 15 12 21 37 23 42 3 57 17 36 34 -13 11 -14 10 -9 -4 3 -9
2 -16 -3 -16 -5 0 -14 14 -20 30 -7 18 -7 30 -2 30 6 0 7 5 4 11 -4 6 -13 8
-19 6 -7 -3 -21 6 -31 19 -21 29 -40 32 -23 4 10 -15 10 -22 1 -31 -7 -7 -9
-25 -6 -43 5 -25 3 -29 -7 -19 -7 7 -14 20 -15 30 -4 32 -17 54 -30 49 -16 -6
-32 31 -28 69 2 17 3 38 4 48 0 11 5 15 12 10 7 -4 7 0 -1 10 -8 9 -22 19 -31
22 -10 3 -23 17 -30 31 -6 14 -15 23 -20 19 -5 -3 -21 5 -35 18 -29 27 -33 39
-11 31 17 -7 20 13 5 36 -8 12 -10 12 -10 1 0 -11 -5 -10 -25 3 -24 16 -25 16
-19 -13 6 -30 -5 -36 -35 -17 -10 7 -12 4 -6 -13 4 -15 2 -21 -9 -21 -8 0 -18
5 -21 10 -3 6 -1 10 5 10 6 0 0 12 -14 26 -13 15 -22 34 -19 43 4 12 3 13 -5
3 -7 -11 -10 -10 -16 3 -9 23 -8 27 5 19 7 -4 10 -1 7 7 -4 11 -34 15 -133 17
-142 3 -164 0 -146 -22 17 -20 -1 -28 -33 -16 -18 6 -26 6 -26 -1 0 -6 -5 -7
-11 -4 -7 5 -4 14 7 26 16 18 16 19 -19 19 -20 0 -38 -4 -42 -9z"/>
<path fill="#ffffff" stroke="none" d="M2899 5850 c1 -12 -2 -11 -15 2 -11 11
-14 23 -9 35 7 17 8 17 15 -2 5 -11 9 -27 9 -35z"/>
<path fill="#ffffff" stroke="none" d="M2977 5870 c1 -11 -2 -18 -8 -15 -11 7
-12 35 -1 35 4 0 8 -9 9 -20z"/>
<path fill="#ffffff" stroke="none" d="M2923 5810 c3 -11 1 -20 -4 -20 -5 0
-9 2 -9 4 0 2 -3 11 -6 20 -3 9 -2 16 4 16 5 0 12 -9 15 -20z"/>
<path fill="#ffffff" stroke="none" d="M3056 5783 c-11 -11 -19 6 -11 24 8 17
8 17 12 0 3 -10 2 -21 -1 -24z"/>
<path fill="#ffffff" stroke="none" d="M2065 5800 c-3 -5 -11 -10 -16 -10 -6
0 -7 5 -4 10 3 6 11 10 16 10 6 0 7 -4 4 -10z"/>
<path fill="#ffffff" stroke="none" d="M3067 5758 c-3 -8 -6 -5 -6 6 -1 11 2
17 5 13 3 -3 4 -12 1 -19z"/>
<path fill="#ffffff" stroke="none" d="M1917 5675 c-4 -8 -2 -17 3 -20 17 -11
11 -43 -10 -48 -13 -3 -20 0 -20 9 0 8 6 11 15 8 8 -4 15 -1 15 6 0 6 -4 8
-10 5 -6 -4 -10 7 -10 24 0 17 5 31 11 31 6 0 9 -7 6 -15z"/>
<path fill="#ffffff" stroke="none" d="M1950 5671 c0 -6 -4 -13 -10 -16 -5 -3
-10 1 -10 9 0 9 5 16 10 16 6 0 10 -4 10 -9z"/>
<path fill="#ffffff" stroke="none" d="M2560 5665 c15 -8 49 -47 76 -87 26
-40 74 -99 106 -131 33 -32 58 -63 55 -70 -2 -6 -19 -16 -38 -22 -43 -13 -87
-42 -100 -67 -23 -43 18 -34 76 17 55 48 74 53 96 24 28 -36 23 -46 -28 -58
-46 -12 -130 -80 -107 -88 6 -2 9 -16 7 -31 -4 -26 -4 -26 11 -8 8 10 17 24
19 30 3 8 8 8 17 -1 9 -8 20 -7 44 8 18 10 53 22 77 25 43 6 46 5 87 -42 73
-82 86 -107 131 -247 28 -86 39 -177 22 -177 -4 0 -6 -33 -6 -72 0 -57 -6 -88
-28 -143 -49 -119 -76 -144 -186 -166 -73 -15 -118 -6 -180 35 -27 18 -79 48
-115 66 -72 35 -116 81 -116 123 0 32 -10 58 -20 52 -20 -13 -77 45 -117 120
-48 91 -55 149 -18 169 11 6 22 13 25 16 7 7 41 28 68 42 13 7 22 20 22 35 0
26 3 28 30 11 15 -10 22 -10 31 -1 24 24 -73 30 -125 8 -14 -6 -17 -5 -11 4
14 23 -31 -6 -53 -34 -25 -31 -52 -24 -52 15 0 39 29 59 107 76 110 22 152 54
71 54 -57 0 -137 -39 -175 -85 l-31 -37 -27 84 c-15 45 -31 88 -36 93 -4 6 -9
58 -11 116 -3 102 -2 107 26 147 16 24 45 49 66 58 21 10 44 27 50 39 7 13 23
28 36 35 13 7 21 16 19 20 -5 8 29 20 60 20 11 0 30 8 43 18 30 23 66 26 102
7z"/>
<path fill="#ffffff" stroke="none" d="M3060 5630 c0 -5 -2 -10 -4 -10 -3 0
-8 5 -11 10 -3 6 -1 10 4 10 6 0 11 -4 11 -10z"/>
<path fill="#ffffff" stroke="none" d="M3075 5610 c3 -5 1 -10 -4 -10 -6 0
-11 5 -11 10 0 6 2 10 4 10 3 0 8 -4 11 -10z"/>
<path fill="#ffffff" stroke="none" d="M1856 5576 c-3 -26 -1 -33 9 -30 16 6
26 -18 15 -37 -7 -11 -10 -10 -15 4 -5 13 -11 14 -25 7 -29 -15 -32 -12 -15
14 16 23 15 24 -4 19 -15 -4 -21 -1 -21 11 0 9 5 16 11 16 6 0 17 7 25 15 22
22 25 19 20 -19z"/>
<path fill="#ffffff" stroke="none" d="M2990 5600 c0 -5 -2 -10 -4 -10 -3 0
-8 5 -11 10 -3 6 -1 10 4 10 6 0 11 -4 11 -10z"/>
<path fill="#ffffff" stroke="none" d="M1938 5582 c2 -7 -2 -10 -12 -6 -9 3
-16 11 -16 16 0 13 23 5 28 -10z"/>
<path fill="#ffffff" stroke="none" d="M1910 5540 c0 -5 -5 -10 -11 -10 -5 0
-7 5 -4 10 3 6 8 10 11 10 2 0 4 -4 4 -10z"/>
<path fill="#ffffff" stroke="none" d="M3265 5409 c-4 -12 -16 -30 -26 -40
-19 -19 -19 -18 -19 11 0 17 7 33 18 39 26 16 34 13 27 -10z"/>
<path fill="#ffffff" stroke="none" d="M1850 5408 c-1 -7 -7 -24 -15 -38 -13
-22 -14 -23 -15 -5 0 17 -2 17 -10 5 -5 -8 -10 -25 -10 -37 0 -16 -4 -21 -15
-17 -23 9 -18 36 16 72 31 33 49 41 49 20z"/>
<path fill="#ffffff" stroke="none" d="M1854 5321 c-4 -22 -11 -41 -16 -41 -5
0 -7 8 -4 18 3 9 8 30 12 45 10 42 16 26 8 -22z"/>
<path fill="#ffffff" stroke="none" d="M1890 5282 c0 -4 -6 -14 -12 -21 -11
-10 -8 -10 15 -2 31 12 34 6 10 -21 -18 -20 -31 -22 -51 -9 -10 6 -11 13 -1
34 11 25 39 38 39 19z"/>
<path fill="#ffffff" stroke="none" d="M1830 5258 c0 -20 -13 -34 -30 -33 -17
1 -15 26 3 37 18 11 27 10 27 -4z"/>
<path fill="#ffffff" stroke="none" d="M1970 5241 c0 -12 -20 -25 -27 -18 -7
7 6 27 18 27 5 0 9 -4 9 -9z"/>
<path fill="#ffffff" stroke="none" d="M3370 5240 c0 -5 -2 -10 -4 -10 -3 0
-8 5 -11 10 -3 6 -1 10 4 10 6 0 11 -4 11 -10z"/>
<path fill="#ffffff" stroke="none" d="M2097 5218 c-3 -8 -6 -5 -6 6 -1 11 2
17 5 13 3 -3 4 -12 1 -19z"/>
<path fill="#ffffff" stroke="none" d="M2010 5215 c0 -6 -63 -35 -67 -32 -8 9
39 46 52 41 8 -4 15 -8 15 -9z"/>
<path fill="#ffffff" stroke="none" d="M3387 5198 c-3 -8 -6 -5 -6 6 -1 11 2
17 5 13 3 -3 4 -12 1 -19z"/>
<path fill="#ffffff" stroke="none" d="M2129 5135 l0 -20 -9 20 c-5 11 -9 29
-9 40 l0 20 9 -20 c5 -11 9 -29 9 -40z"/>
<path fill="#ffffff" stroke="none" d="M1933 5163 c-6 -16 -5 -16 17 0 28 19
53 23 29 4 -8 -7 -19 -21 -23 -32 -5 -14 -9 -16 -15 -7 -6 10 -20 -1 -51 -37
-38 -44 -45 -48 -55 -34 -10 14 -4 25 39 70 53 54 70 65 59 36z"/>
<path fill="#ffffff" stroke="none" d="M2039 5146 c10 -11 7 -14 -14 -12 -25
1 -31 7 -18 19 10 11 19 8 32 -7z"/>
<path fill="#ffffff" stroke="none" d="M1990 5119 c0 -5 5 -7 12 -3 8 5 9 2 5
-9 -3 -10 -2 -17 3 -17 6 0 0 -10 -11 -21 -17 -17 -19 -23 -8 -31 10 -7 11
-11 2 -14 -7 -3 -10 -11 -7 -18 3 -7 -6 -27 -21 -44 -17 -21 -21 -32 -13 -34
10 -4 10 -8 0 -21 -12 -14 -11 -16 8 -14 27 2 46 33 25 41 -13 4 -11 15 12 61
15 30 31 55 35 55 5 0 4 -10 -2 -22 -8 -16 -2 -13 18 10 30 34 45 41 36 17 -4
-9 0 -15 7 -16 8 0 4 -4 -8 -9 -16 -7 -20 -15 -16 -32 3 -16 2 -19 -5 -10 -7
10 -12 9 -23 -4 -12 -16 -12 -17 4 -11 9 3 17 2 17 -3 0 -6 -4 -10 -10 -10 -5
0 -10 -7 -10 -15 0 -10 6 -12 17 -8 14 5 12 0 -7 -24 -14 -18 -39 -37 -56 -43
-18 -6 -40 -20 -49 -30 -17 -19 -17 -20 0 -20 15 0 14 -5 -10 -35 l-27 -36 29
7 c15 4 36 16 45 28 20 24 23 18 7 -16 -6 -13 -29 -32 -51 -41 -22 -10 -38
-20 -35 -23 3 -3 14 -1 25 5 32 17 39 12 15 -8 -12 -10 -19 -22 -15 -25 7 -7
-24 -3 -64 9 -16 5 -23 2 -27 -14 -3 -13 1 -21 12 -24 12 -3 10 -6 -9 -14 -14
-6 -26 -9 -28 -8 -8 7 -9 56 -1 60 4 3 6 14 4 25 -2 11 1 20 7 20 7 0 6 5 -2
15 -20 24 -5 42 32 42 30 -1 33 2 31 25 -1 21 5 29 28 37 25 8 28 14 21 28 -5
10 -7 24 -4 32 3 8 0 11 -7 7 -6 -4 -11 -15 -12 -24 0 -14 -2 -13 -9 3 -8 19
-9 19 -9 -2 -1 -13 -7 -23 -15 -23 -8 0 -17 -7 -20 -16 -3 -8 -10 -13 -15 -10
-12 8 -34 -21 -26 -34 3 -5 2 -10 -3 -10 -17 0 -21 13 -10 33 9 17 8 19 -6 14
-24 -10 -24 27 0 77 17 34 17 39 4 31 -16 -10 -12 7 7 27 19 22 41 25 23 3 -7
-9 -10 -19 -6 -22 9 -9 41 11 41 25 0 11 48 52 62 52 4 0 13 8 20 18 9 15 8
19 -3 19 -8 0 -14 -6 -14 -13 0 -8 -6 -11 -13 -8 -7 2 -22 -4 -32 -16 -21 -23
-40 -27 -28 -6 12 20 106 95 121 95 6 1 12 -4 12 -10z"/>
<path fill="#ffffff" stroke="none" d="M2129 5069 c-19 -11 -20 -6 -6 24 11
25 12 25 15 6 2 -12 -2 -25 -9 -30z"/>
<path fill="#ffffff" stroke="none" d="M2163 4989 c-7 -24 -7 -24 -14 5 -9 33
-1 56 12 34 4 -8 5 -25 2 -39z"/>
<path fill="#ffffff" stroke="none" d="M1690 4950 c0 -5 -5 -10 -11 -10 -5 0
-7 5 -4 10 3 6 8 10 11 10 2 0 4 -4 4 -10z"/>
<path fill="#ffffff" stroke="none" d="M2140 4931 c0 -6 -4 -13 -10 -16 -5 -3
-10 1 -10 9 0 9 5 16 10 16 6 0 10 -4 10 -9z"/>
<path fill="#ffffff" stroke="none" d="M2103 4917 c3 -8 1 -20 -4 -28 -6 -10
-9 -7 -9 14 0 29 5 35 13 14z"/>
<path fill="#ffffff" stroke="none" d="M2110 4856 c0 -28 -11 -66 -19 -66 -3
0 -7 20 -8 43 -1 32 3 44 13 44 8 0 14 -10 14 -21z"/>
<path fill="#ffffff" stroke="none" d="M2060 4810 c0 -20 -5 -30 -15 -30 -8 0
-15 5 -15 10 0 6 -4 9 -9 8 -5 -2 -10 1 -11 6 -1 7 26 27 48 35 1 1 2 -12 2
-29z"/>
<path fill="#ffffff" stroke="none" d="M3614 4795 c3 -10 -1 -15 -14 -15 -20
0 -33 13 -23 24 11 11 31 6 37 -9z"/>
<path fill="#ffffff" stroke="none" d="M2145 4735 c0 -29 -20 -28 -21 0 -1 16
3 24 10 22 6 -2 11 -12 11 -22z"/>
<path fill="#ffffff" stroke="none" d="M3650 4750 c0 -5 -7 -10 -16 -10 -8 0
-12 5 -9 10 3 6 10 10 16 10 5 0 9 -4 9 -10z"/>
<path fill="#ffffff" stroke="none" d="M2030 4701 c0 -36 -4 -51 -16 -55 -22
-8 -31 1 -16 16 7 7 12 29 12 50 0 21 5 38 10 38 6 0 10 -22 10 -49z"/>
<path fill="#ffffff" stroke="none" d="M2080 4713 c0 -20 -3 -24 -11 -16 -7 7
-9 19 -6 27 10 24 17 19 17 -11z"/>
<path fill="#ffffff" stroke="none" d="M2114 4725 c-4 -8 -8 -15 -10 -15 -2 0
-4 7 -4 15 0 8 4 15 10 15 5 0 7 -7 4 -15z"/>
<path fill="#ffffff" stroke="none" d="M2114 4635 c-3 -8 -11 -15 -16 -15 -6
0 -6 -6 1 -14 7 -8 8 -17 3 -20 -6 -3 -16 4 -24 17 -12 18 -12 26 -1 47 7 14
13 34 14 45 0 15 4 12 15 -12 7 -18 11 -39 8 -48z"/>
<path fill="#ffffff" stroke="none" d="M2050 4561 c0 -12 -6 -9 -20 9 -26 33
-26 48 0 25 11 -10 20 -25 20 -34z"/>
<path fill="#ffffff" stroke="none" d="M2171 4550 c6 -21 9 -46 5 -56 -6 -16
-8 -15 -19 7 -15 28 -19 102 -6 94 5 -3 14 -23 20 -45z"/>
<path fill="#ffffff" stroke="none" d="M2040 4522 c0 -13 -3 -12 -15 4 -19 25
-19 40 0 24 8 -7 15 -20 15 -28z"/>
<path fill="#ffffff" stroke="none" d="M2107 4486 c3 -19 3 -19 -20 2 -12 12
-23 31 -24 43 -2 22 -2 22 20 -2 12 -12 23 -32 24 -43z"/>
<path fill="#ffffff" stroke="none" d="M1948 4442 c-13 -9 -26 -20 -29 -25 -3
-5 -9 -2 -12 7 -4 10 -1 16 7 16 8 0 16 7 20 15 3 8 12 12 21 9 13 -5 12 -9
-7 -22z"/>
<path fill="#ffffff" stroke="none" d="M2125 4460 c3 -5 1 -10 -4 -10 -6 0
-11 5 -11 10 0 6 2 10 4 10 3 0 8 -4 11 -10z"/>
<path fill="#ffffff" stroke="none" d="M1910 4406 c0 -3 -4 -8 -10 -11 -5 -3
-10 -1 -10 4 0 6 5 11 10 11 6 0 10 -2 10 -4z"/>
<path fill="#ffffff" stroke="none" d="M2195 4400 c3 -5 2 -10 -4 -10 -5 0
-13 5 -16 10 -3 6 -2 10 4 10 5 0 13 -4 16 -10z"/>
<path fill="#ffffff" stroke="none" d="M2068 4364 c31 -21 28 -31 -10 -30 -36
1 -58 12 -58 28 0 7 6 6 15 -2 12 -10 15 -10 15 4 0 20 9 20 38 0z"/>
<path fill="#ffffff" stroke="none" d="M2080 4256 c0 -3 -4 -8 -10 -11 -5 -3
-10 -1 -10 4 0 6 5 11 10 11 6 0 10 -2 10 -4z"/>
<path fill="#ffffff" stroke="none" d="M2250 4228 c0 -5 -7 -8 -15 -8 -11 0
-12 -5 -5 -26 12 -31 12 -37 1 -30 -5 4 -12 0 -14 -6 -3 -7 -6 -4 -7 7 -2 27
-6 46 -16 69 -6 15 -4 18 9 13 9 -3 19 -1 23 5 6 10 23 -7 24 -24z"/>
<path fill="#ffffff" stroke="none" d="M2195 4189 c10 -30 0 -33 -13 -4 -6 14
-7 25 -2 25 5 0 12 -9 15 -21z"/>
<path fill="#ffffff" stroke="none" d="M2280 4160 c0 -13 -1 -13 -10 0 -5 8
-10 22 -10 30 0 13 1 13 10 0 5 -8 10 -22 10 -30z"/>
<path fill="#ffffff" stroke="none" d="M2330 4165 c20 -24 6 -28 -15 -5 -10
11 -13 20 -8 20 6 0 16 -7 23 -15z"/>
<path fill="#ffffff" stroke="none" d="M2157 4140 c2 -11 -2 -20 -7 -20 -6 0
-10 12 -10 27 0 29 12 24 17 -7z"/>
<path fill="#ffffff" stroke="none" d="M2264 4125 c3 -8 1 -15 -4 -15 -6 0
-10 7 -10 15 0 8 2 15 4 15 2 0 6 -7 10 -15z"/>
<path fill="#ffffff" stroke="none" d="M2156 4085 c-1 -33 -16 -33 -16 0 0 14
4 25 9 25 5 0 8 -11 7 -25z"/>
<path fill="#ffffff" stroke="none" d="M2443 4020 c3 -11 1 -20 -5 -20 -5 0
-6 -4 -3 -10 3 -5 1 -10 -4 -10 -6 0 -11 16 -11 36 0 37 14 39 23 4z"/>
<path fill="#ffffff" stroke="none" d="M2456 3793 c-4 -4 -11 -1 -16 7 -16 25
-11 35 7 17 9 -9 13 -20 9 -24z"/>
<path fill="#ffffff" stroke="none" d="M2520 3781 c0 -5 -11 -4 -24 2 -13 7
-22 15 -20 19 6 10 44 -9 44 -21z"/>
<path fill="#ffffff" stroke="none" d="M3029 3128 c10 3 12 0 8 -12 -4 -9 -2
-15 4 -13 11 2 84 -91 77 -98 -2 -2 -25 13 -51 32 -26 20 -45 38 -42 41 3 3
11 0 17 -6 7 -7 16 -12 22 -12 5 0 1 7 -10 15 -10 8 -29 15 -40 15 -22 0 -34
24 -26 49 4 12 6 12 16 -1 6 -8 17 -13 25 -10z"/>
<path fill="#ffffff" stroke="none" d="M4172 2954 c3 -3 4 -14 1 -25 -8 -28
-33 -24 -33 6 0 23 18 34 32 19z"/>
<path fill="#ffffff" stroke="none" d="M3564 2484 c4 -10 1 -14 -6 -12 -15 5
-23 28 -10 28 5 0 13 -7 16 -16z"/>
<path fill="#ffffff" stroke="none" d="M3936 2281 c7 -57 -5 -67 -32 -26 -13
20 -15 37 -9 83 l8 57 13 -31 c7 -17 16 -54 20 -83z"/>
<path fill="#ffffff" stroke="none" d="M4177 2238 c-3 -8 -6 -5 -6 6 -1 11 2
17 5 13 3 -3 4 -12 1 -19z"/>
<path fill="#ffffff" stroke="none" d="M4187 2198 c-3 -7 -5 -2 -5 12 0 14 2
19 5 13 2 -7 2 -19 0 -25z"/>
<path fill="#ffffff" stroke="none" d="M4205 2181 c3 -5 1 -12 -5 -16 -5 -3
-10 1 -10 9 0 18 6 21 15 7z"/>
<path fill="#ffffff" stroke="none" d="M4220 2150 c0 -5 -2 -10 -4 -10 -3 0
-8 5 -11 10 -3 6 -1 10 4 10 6 0 11 -4 11 -10z"/>
<path fill="#ffffff" stroke="none" d="M4220 2025 c5 0 10 -4 9 -9 0 -5 4 -12
9 -15 10 -6 15 -32 13 -60 -1 -7 -7 -11 -16 -7 -8 3 -15 0 -15 -6 0 -9 -3 -9
-12 0 -10 10 -10 14 0 21 11 6 10 11 -3 24 -18 18 -28 55 -18 70 3 5 9 3 14
-4 4 -8 13 -14 19 -14z"/>
<path fill="#ffffff" stroke="none" d="M4183 1938 c2 -18 0 -36 -5 -39 -5 -3
-2 -9 7 -13 9 -3 13 -10 10 -16 -9 -15 -61 -12 -75 5 -7 8 -8 15 -2 15 20 0
10 49 -12 57 -19 6 -18 7 9 14 57 13 62 11 68 -23z"/>
<path fill="#ffffff" stroke="none" d="M4150 1720 c0 -5 -2 -10 -4 -10 -3 0
-8 5 -11 10 -3 6 -1 10 4 10 6 0 11 -4 11 -10z"/>
<path fill="#ffffff" stroke="none" d="M4165 1639 c-10 -15 -25 -10 -19 6 4 8
10 12 15 9 5 -3 7 -10 4 -15z"/>
<path fill="#000000" stroke="none" d="M2403 5070 c-13 -5 -23 -11 -23 -12 0
-2 27 -1 60 0 33 2 58 8 54 13 -7 11 -62 11 -91 -1z"/>
<path fill="#000000" stroke="none" d="M2900 4911 c0 -6 3 -11 8 -11 4 0 21
-14 39 -30 36 -34 56 -41 27 -9 -28 31 -74 62 -74 50z"/>
<path fill="#000000" stroke="none" d="M2766 4884 c-21 -21 -20 -35 2 -27 26
9 42 24 36 34 -8 13 -21 11 -38 -7z"/>
<path fill="#000000" stroke="none" d="M2650 4832 c-18 -5 -60 -43 -60 -53 0
-14 38 -16 61 -3 13 7 36 13 51 14 29 0 45 15 28 25 -20 12 -65 22 -80 17z"/>
<path fill="#000000" stroke="none" d="M2537 4778 c-3 -13 -8 -52 -12 -88 -5
-51 -3 -69 9 -85 15 -19 16 -19 15 10 -1 106 3 155 11 160 6 4 8 11 5 16 -10
16 -23 10 -28 -13z"/>
<path fill="#000000" stroke="none" d="M2918 4779 c-16 -9 -16 -11 0 -28 16
-17 18 -17 39 2 12 11 20 24 17 28 -7 12 -35 11 -56 -2z"/>
<path fill="#000000" stroke="none" d="M2730 4689 c-19 -10 -43 -18 -52 -19
-9 0 -20 -5 -23 -10 -4 -6 -10 -8 -15 -5 -11 7 -72 -54 -64 -66 7 -12 85 -11
104 1 11 7 12 10 2 10 -8 0 -12 9 -10 23 2 12 9 21 16 20 6 -2 20 5 31 16 10
10 27 23 37 29 33 19 10 19 -26 1z"/>
<path fill="#000000" stroke="none" d="M2800 4639 c0 -5 5 -7 10 -4 6 3 10 8
10 11 0 2 -4 4 -10 4 -5 0 -10 -5 -10 -11z"/>
<path fill="#000000" stroke="none" d="M1865 5100 c-3 -5 -1 -10 4 -10 6 0 11
5 11 10 0 6 -2 10 -4 10 -3 0 -8 -4 -11 -10z"/>
<path fill="#000000" stroke="none" d="M1933 5016 c1 -5 -5 -10 -13 -11 -8 0
-14 -7 -12 -13 3 -16 -22 -42 -41 -42 -17 0 -50 -77 -36 -86 5 -3 9 0 9 5 0 6
6 11 13 11 7 0 18 14 24 31 7 17 17 28 22 24 7 -4 8 0 4 11 -5 13 -3 16 10 11
10 -4 14 -2 11 7 -3 7 4 21 16 31 24 21 26 32 6 32 -8 0 -14 -5 -13 -11z"/>
<path fill="#ffffff" stroke="none" d="M1868 4915 c-6 -14 -15 -25 -20 -25 -5
0 -7 3 -5 8 2 4 7 15 10 25 4 9 11 17 16 17 7 0 6 -9 -1 -25z"/>
<path fill="#000000" stroke="none" d="M3036 6026 c3 -9 13 -16 21 -16 8 0 11
-4 8 -10 -3 -5 -1 -10 4 -10 6 0 11 -8 11 -17 0 -15 -2 -16 -10 -3 -8 13 -10
12 -10 -2 0 -10 5 -18 10 -18 6 0 10 -8 10 -17 0 -22 40 -84 40 -63 0 10 7 7
20 -10 20 -24 20 -24 0 25 -12 27 -25 54 -30 60 -5 7 -13 29 -18 51 -6 32 -12
40 -35 42 -21 3 -26 0 -21 -12z"/>
<path fill="#000000" stroke="none" d="M2205 6009 c-11 -17 1 -21 15 -4 8 9 8
15 2 15 -6 0 -14 -5 -17 -11z"/>
<path fill="#000000" stroke="none" d="M2848 5978 c12 -12 25 -18 29 -14 4 4
-1 14 -11 22 -31 22 -43 17 -18 -8z"/>
<path fill="#000000" stroke="none" d="M2115 5980 c-18 -8 -17 -9 8 -9 15 -1
27 4 27 9 0 12 -8 12 -35 0z"/>
<path fill="#000000" stroke="none" d="M1685 5910 c-25 -11 1 -11 35 0 20 6
21 8 5 8 -11 0 -29 -3 -40 -8z"/>
<path fill="#000000" stroke="none" d="M3030 5900 c0 -5 5 -10 11 -10 5 0 7 5
4 10 -3 6 -8 10 -11 10 -2 0 -4 -4 -4 -10z"/>
<path fill="#000000" stroke="none" d="M1508 5894 c-3 -3 -44 -7 -90 -9 -83
-4 -163 -11 -249 -21 -30 -4 -46 -10 -46 -20 0 -17 9 -18 25 -2 6 6 44 13 84
15 90 3 277 22 338 32 l45 8 -51 2 c-28 0 -53 -2 -56 -5z"/>
<path fill="#000000" stroke="none" d="M5090 5860 c0 -5 7 -10 16 -10 8 0 12
5 9 10 -3 6 -10 10 -16 10 -5 0 -9 -4 -9 -10z"/>
<path fill="#000000" stroke="none" d="M975 5840 c-60 -10 -157 -21 -215 -25
-58 -4 -123 -11 -145 -16 -29 -6 -19 -7 40 -3 44 3 87 6 95 6 22 -1 280 27
318 34 17 4 32 10 32 15 0 5 -3 8 -7 8 -5 -1 -57 -10 -118 -19z"/>
<path fill="#000000" stroke="none" d="M4978 5843 c7 -3 16 -2 19 1 4 3 -2 6
-13 5 -11 0 -14 -3 -6 -6z"/>
<path fill="#000000" stroke="none" d="M4744 5818 c9 -5 23 -5 32 0 12 6 7 9
-16 9 -23 0 -28 -3 -16 -9z"/>
<path fill="#000000" stroke="none" d="M4490 5800 l-35 -7 38 -2 c20 0 37 4
37 9 0 6 -1 9 -2 9 -2 -1 -19 -5 -38 -9z"/>
<path fill="#000000" stroke="none" d="M1905 5790 c-3 -5 -2 -10 4 -10 5 0 13
5 16 10 3 6 2 10 -4 10 -5 0 -13 -4 -16 -10z"/>
<path fill="#000000" stroke="none" d="M4283 5793 c-13 -2 -23 -8 -23 -13 0
-10 38 -1 46 11 3 5 4 8 2 8 -2 -1 -13 -4 -25 -6z"/>
<path fill="#000000" stroke="none" d="M4385 5790 c3 -5 10 -10 16 -10 5 0 9
5 9 10 0 6 -7 10 -16 10 -8 0 -12 -4 -9 -10z"/>
<path fill="#000000" stroke="none" d="M4428 5793 c7 -3 16 -2 19 1 4 3 -2 6
-13 5 -11 0 -14 -3 -6 -6z"/>
<path fill="#000000" stroke="none" d="M493 5783 c9 -2 25 -2 35 0 9 3 1 5
-18 5 -19 0 -27 -2 -17 -5z"/>
<path fill="#000000" stroke="none" d="M344 5769 c-3 -5 7 -9 22 -9 15 0 24 3
20 7 -11 11 -35 12 -42 2z"/>
<path fill="#000000" stroke="none" d="M418 5773 c12 -2 30 -2 40 0 9 3 -1 5
-23 4 -22 0 -30 -2 -17 -4z"/>
<path fill="#000000" stroke="none" d="M295 5760 c-16 -7 -17 -9 -3 -9 9 -1
20 4 23 9 7 11 7 11 -20 0z"/>
<path fill="#000000" stroke="none" d="M228 5753 c6 -2 18 -2 25 0 6 3 1 5
-13 5 -14 0 -19 -2 -12 -5z"/>
<path fill="#000000" stroke="none" d="M3978 5753 c6 -2 18 -2 25 0 6 3 1 5
-13 5 -14 0 -19 -2 -12 -5z"/>
<path fill="#000000" stroke="none" d="M68 5741 c-79 -9 -86 -23 -8 -16 84 6
143 15 149 20 6 6 -66 4 -141 -4z"/>
<path fill="#000000" stroke="none" d="M3809 5746 c-2 -2 -49 -7 -104 -10 -55
-4 -103 -10 -107 -14 -9 -9 4 -8 180 3 62 5 115 12 118 16 5 9 -79 13 -87 5z"/>
<path fill="#000000" stroke="none" d="M3518 5713 c6 -2 18 -2 25 0 6 3 1 5
-13 5 -14 0 -19 -2 -12 -5z"/>
<path fill="#000000" stroke="none" d="M3220 5680 c0 -5 5 -10 11 -10 5 0 7 5
4 10 -3 6 -8 10 -11 10 -2 0 -4 -4 -4 -10z"/>
<path fill="#000000" stroke="none" d="M3437 5653 c-7 -7 3 -135 10 -143 3 -3
8 1 10 8 3 6 9 12 14 12 4 0 6 -8 2 -17 -5 -15 -3 -14 10 2 26 33 21 82 -12
115 -16 16 -31 26 -34 23z"/>
<path fill="#000000" stroke="none" d="M1735 5640 c3 -5 8 -10 11 -10 2 0 4 5
4 10 0 6 -5 10 -11 10 -5 0 -7 -4 -4 -10z"/>
<path fill="#000000" stroke="none" d="M3376 5531 c-3 -5 5 -11 19 -13 20 -4
23 -3 14 8 -13 16 -25 18 -33 5z"/>
<path fill="#000000" stroke="none" d="M3521 5504 c0 -11 3 -14 6 -6 3 7 2 16
-1 19 -3 4 -6 -2 -5 -13z"/>
<path fill="#000000" stroke="none" d="M678 5473 c6 -2 18 -2 25 0 6 3 1 5
-13 5 -14 0 -19 -2 -12 -5z"/>
<path fill="#000000" stroke="none" d="M393 5453 c-18 -2 -33 -8 -33 -12 0 -8
108 4 118 13 6 6 -30 6 -85 -1z"/>
<path fill="#000000" stroke="none" d="M5098 5443 c6 -2 18 -2 25 0 6 3 1 5
-13 5 -14 0 -19 -2 -12 -5z"/>
<path fill="#000000" stroke="none" d="M190 5430 c-55 -7 -55 -7 18 -7 39 1
72 5 72 9 0 9 -6 8 -90 -2z"/>
<path fill="#000000" stroke="none" d="M108 5423 c7 -3 16 -2 19 1 4 3 -2 6
-13 5 -11 0 -14 -3 -6 -6z"/>
<path fill="#000000" stroke="none" d="M4580 5420 c-23 -7 -23 -8 -3 -9 12 -1
25 4 28 9 3 6 5 10 3 9 -2 -1 -14 -5 -28 -9z"/>
<path fill="#000000" stroke="none" d="M4818 5423 c7 -3 16 -2 19 1 4 3 -2 6
-13 5 -11 0 -14 -3 -6 -6z"/>
<path fill="#000000" stroke="none" d="M4858 5423 c7 -3 16 -2 19 1 4 3 -2 6
-13 5 -11 0 -14 -3 -6 -6z"/>
<path fill="#000000" stroke="none" d="M4650 5406 c14 -8 29 -12 33 -9 12 8
-14 23 -38 22 -18 0 -17 -1 5 -13z"/>
<path fill="#000000" stroke="none" d="M4340 5390 c-13 -8 -12 -10 3 -10 9 0
17 5 17 10 0 12 -1 12 -20 0z"/>
<path fill="#000000" stroke="none" d="M4378 5393 c6 -2 18 -2 25 0 6 3 1 5
-13 5 -14 0 -19 -2 -12 -5z"/>
<path fill="#000000" stroke="none" d="M4190 5380 l-55 -7 50 -1 c28 0 68 3
90 7 l40 9 -35 -1 c-19 0 -60 -3 -90 -7z"/>
<path fill="#000000" stroke="none" d="M4050 5370 l-35 -6 38 -5 c21 -3 45 0
53 6 13 9 13 11 -3 11 -10 0 -34 -2 -53 -6z"/>
<path fill="#000000" stroke="none" d="M3948 5353 c7 -3 16 -2 19 1 4 3 -2 6
-13 5 -11 0 -14 -3 -6 -6z"/>
<path fill="#000000" stroke="none" d="M3460 5223 c0 -4 5 -15 10 -23 8 -13
10 -13 10 2 0 9 -4 20 -10 23 -5 3 -10 3 -10 -2z"/>
<path fill="#000000" stroke="none" d="M1048 5173 c7 -3 16 -2 19 1 4 3 -2 6
-13 5 -11 0 -14 -3 -6 -6z"/>
<path fill="#000000" stroke="none" d="M776 5159 c-65 -4 -121 -11 -125 -15
-10 -11 232 5 243 16 6 6 8 9 6 9 -3 -1 -58 -6 -124 -10z"/>
<path fill="#000000" stroke="none" d="M570 5142 c0 -4 9 -8 20 -8 11 0 20 4
20 8 0 4 -9 8 -20 8 -11 0 -20 -4 -20 -8z"/>
<path fill="#000000" stroke="none" d="M478 5133 c6 -2 18 -2 25 0 6 3 1 5
-13 5 -14 0 -19 -2 -12 -5z"/>
<path fill="#000000" stroke="none" d="M388 5123 c7 -3 16 -2 19 1 4 3 -2 6
-13 5 -11 0 -14 -3 -6 -6z"/>
<path fill="#000000" stroke="none" d="M158 5103 c12 -2 30 -2 40 0 9 3 -1 5
-23 4 -22 0 -30 -2 -17 -4z"/>
<path fill="#000000" stroke="none" d="M4405 5000 c-22 -5 16 -6 85 -3 69 3
127 7 129 9 8 7 -173 1 -214 -6z"/>
<path fill="#000000" stroke="none" d="M4310 4989 c0 -5 5 -7 10 -4 6 3 10 8
10 11 0 2 -4 4 -10 4 -5 0 -10 -5 -10 -11z"/>
<path fill="#000000" stroke="none" d="M1660 4833 c0 -22 2 -25 10 -13 13 20
13 40 0 40 -5 0 -10 -12 -10 -27z"/>
<path fill="#000000" stroke="none" d="M1208 4843 c12 -2 30 -2 40 0 9 3 -1 5
-23 4 -22 0 -30 -2 -17 -4z"/>
<path fill="#000000" stroke="none" d="M1058 4833 c7 -3 16 -2 19 1 4 3 -2 6
-13 5 -11 0 -14 -3 -6 -6z"/>
<path fill="#000000" stroke="none" d="M1108 4833 c7 -3 16 -2 19 1 4 3 -2 6
-13 5 -11 0 -14 -3 -6 -6z"/>
<path fill="#000000" stroke="none" d="M137 4823 c-4 -3 -7 -11 -7 -17 0 -6 5
-5 12 2 6 6 9 14 7 17 -3 3 -9 2 -12 -2z"/>
<path fill="#000000" stroke="none" d="M515 4810 c-27 -7 -26 -8 12 -7 24 1
43 5 43 10 0 8 -14 8 -55 -3z"/>
<path fill="#000000" stroke="none" d="M603 4813 c9 -2 25 -2 35 0 9 3 1 5
-18 5 -19 0 -27 -2 -17 -5z"/>
<path fill="#000000" stroke="none" d="M481 4674 c0 -11 3 -14 6 -6 3 7 2 16
-1 19 -3 4 -6 -2 -5 -13z"/>
<path fill="#000000" stroke="none" d="M4810 4653 c-74 -2 -139 -8 -144 -13
-6 -6 2 -8 22 -5 18 2 99 5 180 6 82 1 157 6 168 10 11 5 -3 7 -36 6 -30 -1
-116 -3 -190 -4z"/>
<path fill="#000000" stroke="none" d="M5078 4653 c7 -3 16 -2 19 1 4 3 -2 6
-13 5 -11 0 -14 -3 -6 -6z"/>
<path fill="#000000" stroke="none" d="M1628 4533 c18 -2 45 -2 60 0 15 2 0 4
-33 4 -33 0 -45 -2 -27 -4z"/>
<path fill="#000000" stroke="none" d="M1253 4523 c9 -2 23 -2 30 0 6 3 -1 5
-18 5 -16 0 -22 -2 -12 -5z"/>
<path fill="#000000" stroke="none" d="M1313 4523 c9 -2 25 -2 35 0 9 3 1 5
-18 5 -19 0 -27 -2 -17 -5z"/>
<path fill="#000000" stroke="none" d="M1383 4523 c9 -2 23 -2 30 0 6 3 -1 5
-18 5 -16 0 -22 -2 -12 -5z"/>
<path fill="#000000" stroke="none" d="M333 4503 c-62 -2 -113 -7 -113 -11 0
-9 246 1 256 11 4 4 -1 6 -12 5 -10 -1 -70 -4 -131 -5z"/>
<path fill="#000000" stroke="none" d="M848 4503 c7 -3 16 -2 19 1 4 3 -2 6
-13 5 -11 0 -14 -3 -6 -6z"/>
<path fill="#000000" stroke="none" d="M3996 4491 c-3 -5 1 -11 9 -15 8 -3 15
-1 15 4 0 13 -18 22 -24 11z"/>
<path fill="#000000" stroke="none" d="M18 4483 c12 -2 30 -2 40 0 9 3 -1 5
-23 4 -22 0 -30 -2 -17 -4z"/>
<path fill="#000000" stroke="none" d="M107 4483 c18 -2 50 -2 70 0 21 2 7 4
-32 4 -38 0 -55 -2 -38 -4z"/>
<path fill="#000000" stroke="none" d="M865 4470 c3 -5 8 -10 11 -10 2 0 4 5
4 10 0 6 -5 10 -11 10 -5 0 -7 -4 -4 -10z"/>
<path fill="#000000" stroke="none" d="M3996 4437 c3 -10 9 -15 12 -12 3 3 0
11 -7 18 -10 9 -11 8 -5 -6z"/>
<path fill="#000000" stroke="none" d="M4460 4440 c0 -21 16 -44 23 -33 4 6 0
19 -8 29 -11 15 -14 16 -15 4z"/>
<path fill="#000000" stroke="none" d="M4017 4377 c3 -15 9 -30 14 -33 14 -8
10 20 -5 41 -13 18 -14 18 -9 -8z"/>
<path fill="#000000" stroke="none" d="M1430 4266 c0 -8 5 -18 10 -21 6 -3 10
3 10 14 0 12 -4 21 -10 21 -5 0 -10 -6 -10 -14z"/>
<path fill="#000000" stroke="none" d="M4805 4259 c-66 -3 -126 -4 -132 -2 -7
3 -13 -1 -13 -7 0 -10 35 -12 161 -7 89 3 166 10 170 14 10 10 -18 10 -186 2z"/>
<path fill="#000000" stroke="none" d="M4530 4250 l-45 -7 50 0 c28 0 64 3 80
7 l30 8 -35 -1 c-19 0 -55 -3 -80 -7z"/>
<path fill="#000000" stroke="none" d="M921 4206 c10 -10 128 -15 134 -6 4 6
-20 10 -66 10 -40 0 -70 -2 -68 -4z"/>
<path fill="#000000" stroke="none" d="M1085 4200 c-6 -10 463 -5 473 5 3 3
-101 5 -231 5 -143 0 -238 -4 -242 -10z"/>
<path fill="#000000" stroke="none" d="M1578 4203 c7 -3 16 -2 19 1 4 3 -2 6
-13 5 -11 0 -14 -3 -6 -6z"/>
<path fill="#000000" stroke="none" d="M1649 4197 c4 -4 18 -3 32 2 23 9 22 9
-8 8 -18 -1 -28 -6 -24 -10z"/>
<path fill="#000000" stroke="none" d="M1740 4200 c34 -11 62 -12 56 -2 -3 5
-22 9 -43 9 -33 1 -35 0 -13 -7z"/>
<path fill="#000000" stroke="none" d="M1816 4202 c-2 -4 13 -6 35 -4 21 2 39
6 39 8 0 7 -69 4 -74 -4z"/>
<path fill="#000000" stroke="none" d="M190 4190 c0 -5 5 -10 11 -10 5 0 7 5
4 10 -3 6 -8 10 -11 10 -2 0 -4 -4 -4 -10z"/>
<path fill="#000000" stroke="none" d="M285 4190 c54 -8 574 -4 583 5 3 3
-138 4 -314 4 -184 -1 -298 -5 -269 -9z"/>
<path fill="#000000" stroke="none" d="M38 4183 c23 -2 59 -2 80 0 20 2 1 4
-43 4 -44 0 -61 -2 -37 -4z"/>
<path fill="#000000" stroke="none" d="M4015 4005 c17 -8 37 -14 45 -14 8 0
-1 7 -20 14 -46 18 -64 17 -25 0z"/>
<path fill="#000000" stroke="none" d="M2177 3955 c10 -13 22 -25 27 -25 5 0
-1 11 -14 25 -30 32 -36 32 -13 0z"/>
<path fill="#000000" stroke="none" d="M2290 3960 c0 -5 5 -10 10 -10 6 0 10
5 10 10 0 6 -4 10 -10 10 -5 0 -10 -4 -10 -10z"/>
<path fill="#000000" stroke="none" d="M2017 3934 c-15 -15 -27 -30 -27 -35 0
-4 14 6 30 23 17 17 29 32 27 34 -2 3 -16 -8 -30 -22z"/>
<path fill="#000000" stroke="none" d="M2110 3940 c0 -19 5 -24 24 -26 11 0
22 -6 24 -13 2 -6 8 -8 14 -5 6 4 9 1 6 -6 -2 -8 3 -21 11 -31 9 -9 27 -35 40
-57 27 -45 45 -47 35 -4 -6 24 -3 22 24 -15 17 -22 35 -44 41 -48 22 -13 10
15 -24 56 -20 23 -41 51 -47 63 -17 33 -50 66 -60 60 -5 -3 -15 0 -23 6 -8 6
-18 9 -24 6 -5 -3 -11 1 -15 9 -6 17 -26 21 -26 5z"/>
<path fill="#ffffff" stroke="none" d="M2215 3889 c11 -17 -1 -21 -15 -4 -8 9
-8 15 -2 15 6 0 14 -5 17 -11z"/>
<path fill="#000000" stroke="none" d="M2240 3920 c0 -5 5 -10 10 -10 6 0 10
5 10 10 0 6 -4 10 -10 10 -5 0 -10 -4 -10 -10z"/>
<path fill="#000000" stroke="none" d="M133 3883 c15 -2 39 -2 55 0 15 2 2 4
-28 4 -30 0 -43 -2 -27 -4z"/>
<path fill="#000000" stroke="none" d="M343 3883 c43 -2 110 -2 150 0 40 1 5
3 -78 3 -82 0 -115 -2 -72 -3z"/>
<path fill="#000000" stroke="none" d="M708 3883 c34 -2 88 -2 120 0 31 2 3 3
-63 3 -66 0 -92 -1 -57 -3z"/>
<path fill="#000000" stroke="none" d="M971 3886 c7 -8 118 -10 126 -3 3 4
-24 7 -62 7 -38 0 -66 -2 -64 -4z"/>
<path fill="#000000" stroke="none" d="M1128 3883 c6 -2 18 -2 25 0 6 3 1 5
-13 5 -14 0 -19 -2 -12 -5z"/>
<path fill="#000000" stroke="none" d="M4635 3881 c-4 -8 31 -11 112 -10 135
1 126 14 -13 18 -57 1 -95 -2 -99 -8z"/>
<path fill="#000000" stroke="none" d="M1338 3873 c18 -2 45 -2 60 0 15 2 0 4
-33 4 -33 0 -45 -2 -27 -4z"/>
<path fill="#000000" stroke="none" d="M1453 3873 c15 -2 37 -2 50 0 12 2 0 4
-28 4 -27 0 -38 -2 -22 -4z"/>
<path fill="#000000" stroke="none" d="M1578 3873 c23 -2 61 -2 85 0 23 2 4 4
-43 4 -47 0 -66 -2 -42 -4z"/>
<path fill="#000000" stroke="none" d="M1728 3873 c12 -2 30 -2 40 0 9 3 -1 5
-23 4 -22 0 -30 -2 -17 -4z"/>
<path fill="#000000" stroke="none" d="M4388 3873 c7 -3 16 -2 19 1 4 3 -2 6
-13 5 -11 0 -14 -3 -6 -6z"/>
<path fill="#000000" stroke="none" d="M4478 3873 c23 -2 61 -2 85 0 23 2 4 4
-43 4 -47 0 -66 -2 -42 -4z"/>
<path fill="#000000" stroke="none" d="M2390 3803 c0 -5 12 -23 28 -39 15 -16
40 -45 55 -64 16 -19 25 -28 21 -20 -4 8 -14 23 -22 33 -8 9 -11 17 -7 17 5 0
18 -8 29 -17 16 -14 18 -14 8 -2 -6 9 -8 20 -4 24 4 5 2 5 -5 2 -6 -4 -18 -2
-25 5 -8 7 -28 26 -46 42 -18 17 -32 25 -32 19z"/>
<path fill="#000000" stroke="none" d="M2261 3723 c-1 -12 4 -25 10 -29 7 -4
7 -9 2 -13 -12 -7 3 -71 17 -71 5 0 5 13 0 31 -7 22 -6 29 3 26 7 -3 11 -9 10
-15 -1 -5 4 -13 12 -16 12 -4 14 0 9 22 -10 41 -23 62 -39 62 -7 0 -16 6 -18
13 -3 6 -6 2 -6 -10z"/>
<path fill="#000000" stroke="none" d="M2426 3648 c3 -18 7 -38 9 -45 7 -22
-8 -22 -26 0 -19 22 -19 22 -4 -15 8 -21 11 -38 6 -38 -5 0 -12 6 -14 13 -4 9
-6 9 -6 -1 -1 -17 -27 -43 -35 -35 -3 4 -6 14 -6 24 0 10 -9 21 -20 24 -11 4
-18 10 -16 14 3 4 -4 8 -15 8 -20 2 -26 -12 -9 -22 6 -3 10 -15 10 -26 0 -11
11 -30 24 -42 13 -12 27 -32 31 -45 4 -15 12 -21 21 -18 12 5 34 -21 40 -49 2
-5 15 -43 29 -83 14 -40 23 -77 20 -83 -4 -5 -2 -15 3 -22 5 -7 9 -30 9 -53 0
-22 3 -46 7 -52 3 -6 2 -13 -4 -17 -15 -9 -13 -102 3 -108 9 -4 9 -7 0 -14 -8
-6 -10 -29 -7 -73 9 -100 10 -142 3 -146 -4 -2 -4 -16 -2 -31 3 -20 2 -24 -5
-14 -5 7 -12 9 -15 4 -4 -6 4 -16 18 -23 21 -11 22 -15 9 -27 -8 -8 -11 -20
-7 -26 10 -16 5 -68 -9 -84 -7 -9 -7 -13 1 -13 19 0 12 -28 -9 -35 -11 -3 -20
-11 -20 -16 0 -6 8 -6 20 1 22 12 27 1 8 -19 -8 -9 -8 -11 -2 -8 7 4 14 1 17
-7 8 -21 -3 -27 -26 -15 -16 9 -15 5 8 -25 15 -20 22 -36 16 -36 -6 0 -13 -11
-17 -25 -3 -14 -10 -23 -14 -20 -11 7 -21 -22 -14 -40 4 -8 11 -15 17 -15 5 0
0 -9 -13 -20 -18 -16 -20 -20 -7 -20 10 0 14 -6 11 -14 -3 -8 -15 -12 -27 -10
-22 5 -22 4 1 -5 24 -11 31 -27 8 -18 -10 4 -13 1 -10 -8 3 -7 0 -24 -6 -36
-10 -19 -10 -24 4 -34 21 -16 20 -25 -1 -26 -15 0 -15 -2 2 -9 11 -5 14 -9 8
-9 -7 -1 -13 -6 -13 -11 0 -7 6 -7 19 0 29 15 51 13 45 -5 -4 -8 -10 -15 -16
-15 -5 0 -6 4 -3 10 3 6 -1 7 -10 4 -12 -5 -13 -9 -4 -20 9 -11 9 -14 0 -14
-7 0 -9 -5 -5 -11 4 -8 9 -7 15 2 6 10 9 8 9 -8 0 -13 -4 -23 -10 -23 -5 0
-10 -5 -10 -11 0 -5 5 -7 10 -4 6 3 10 0 11 -7 0 -7 2 -23 5 -35 3 -17 0 -21
-11 -17 -11 5 -14 2 -9 -12 4 -11 11 -24 16 -31 5 -7 4 -13 -4 -15 -10 -4 -10
-10 -1 -31 9 -19 10 -35 3 -53 -7 -16 -7 -23 0 -19 6 3 10 3 11 -2 0 -4 2 -18
5 -30 2 -12 -1 -25 -6 -28 -6 -4 -7 -23 -3 -47 4 -30 3 -39 -5 -34 -18 11 -15
-96 5 -156 9 -29 25 -68 35 -87 18 -35 18 -17 14 819 -2 470 -9 907 -14 970
-6 63 -14 162 -18 219 -6 96 -5 104 10 98 10 -4 21 -7 26 -7 21 0 49 -330 55
-660 3 -146 8 -296 10 -335 2 -38 5 -286 5 -549 0 -264 2 -477 4 -475 3 3 17
582 17 689 0 19 -2 89 -5 155 -3 66 -7 239 -11 385 -3 146 -7 297 -10 335 -15
236 -16 275 -6 275 6 0 8 -8 5 -17 -5 -14 -4 -15 4 -4 8 11 12 10 20 -5 10
-18 11 -17 9 4 -1 12 -5 22 -9 22 -4 0 -8 4 -8 9 0 5 8 7 18 4 15 -4 18 3 21
39 1 23 4 44 6 46 7 7 65 -120 65 -143 0 -13 6 -25 14 -28 8 -3 15 -14 15 -24
0 -18 3 -34 13 -63 16 -43 78 -249 83 -275 4 -16 13 -47 21 -67 8 -21 11 -38
8 -38 -4 0 -1 -6 5 -13 6 -8 7 -18 3 -22 -4 -5 -1 -5 6 -1 11 7 17 -16 13 -51
-1 -7 4 -10 12 -7 9 3 12 15 9 34 -3 19 0 30 7 30 8 0 11 16 9 44 -3 42 -4 44
-20 29 -10 -9 -18 -12 -18 -6 0 5 9 18 19 27 18 16 18 21 5 69 -23 88 -15 86
32 -7 47 -94 121 -289 197 -516 61 -180 86 -277 98 -374 16 -139 41 -255 55
-260 9 -4 14 2 14 17 0 18 -2 19 -10 7 -7 -10 -10 -11 -10 -2 0 7 5 21 12 32
10 15 9 33 -4 87 -10 37 -19 107 -22 154 -3 47 -12 101 -20 120 -7 19 -19 61
-26 94 -7 33 -18 72 -26 87 -7 14 -32 79 -55 145 -84 244 -98 280 -143 372
-25 52 -46 100 -46 107 0 7 -31 59 -70 115 -69 102 -85 134 -54 108 9 -7 -11
30 -44 82 -33 52 -76 128 -97 169 -65 130 -165 272 -165 236 0 -10 -6 -13 -17
-9 -11 4 -14 3 -9 -5 10 -16 -6 -15 -23 1 -11 10 -13 10 -7 0 4 -7 3 -13 -2
-13 -6 0 -12 7 -16 15 -3 8 -1 15 4 15 5 0 7 7 4 15 -4 8 -10 12 -15 9 -5 -3
-9 0 -9 5 0 6 -4 11 -10 11 -5 0 -7 -14 -4 -32z"/>
<path fill="#ffffff" stroke="none" d="M2610 3529 c0 -6 -4 -7 -10 -4 -5 3
-10 11 -10 16 0 6 5 7 10 4 6 -3 10 -11 10 -16z"/>
<path fill="#ffffff" stroke="none" d="M2630 3499 c0 -6 -4 -7 -10 -4 -5 3
-10 11 -10 16 0 6 5 7 10 4 6 -3 10 -11 10 -16z"/>
<path fill="#ffffff" stroke="none" d="M2690 3386 c0 -6 -7 -2 -15 8 -8 11
-15 25 -15 30 0 6 7 2 15 -8 8 -11 15 -25 15 -30z"/>
<path fill="#ffffff" stroke="none" d="M2710 3347 c0 -5 -4 -5 -10 -2 -5 3
-10 14 -10 23 0 15 2 15 10 2 5 -8 10 -19 10 -23z"/>
<path fill="#ffffff" stroke="none" d="M2740 3299 c0 -6 -4 -7 -10 -4 -5 3
-10 11 -10 16 0 6 5 7 10 4 6 -3 10 -11 10 -16z"/>
<path fill="#ffffff" stroke="none" d="M2820 3169 c0 -6 -4 -7 -10 -4 -5 3
-10 11 -10 16 0 6 5 7 10 4 6 -3 10 -11 10 -16z"/>
<path fill="#ffffff" stroke="none" d="M2487 3038 c-3 -8 -6 -5 -6 6 -1 11 2
17 5 13 3 -3 4 -12 1 -19z"/>
<path fill="#ffffff" stroke="none" d="M2487 2998 c-3 -8 -6 -5 -6 6 -1 11 2
17 5 13 3 -3 4 -12 1 -19z"/>
<path fill="#ffffff" stroke="none" d="M2497 2888 c-3 -7 -5 -2 -5 12 0 14 2
19 5 13 2 -7 2 -19 0 -25z"/>
<path fill="#ffffff" stroke="none" d="M2497 2728 c-3 -8 -6 -5 -6 6 -1 11 2
17 5 13 3 -3 4 -12 1 -19z"/>
<path fill="#ffffff" stroke="none" d="M2920 2720 c0 -5 -4 -10 -10 -10 -5 0
-10 5 -10 10 0 6 5 10 10 10 6 0 10 -4 10 -10z"/>
<path fill="#ffffff" stroke="none" d="M2446 2125 c-1 -28 -6 -31 -24 -13 -9
9 -7 14 6 24 9 8 18 14 18 14 1 0 1 -11 0 -25z"/>
<path fill="#ffffff" stroke="none" d="M2490 1655 c0 -8 -4 -15 -10 -15 -5 0
-10 7 -10 15 0 8 5 15 10 15 6 0 10 -7 10 -15z"/>
<path fill="#000000" stroke="none" d="M488 3593 c28 -2 76 -2 105 0 28 2 5 3
-53 3 -58 0 -81 -1 -52 -3z"/>
<path fill="#000000" stroke="none" d="M658 3593 c6 -2 18 -2 25 0 6 3 1 5
-13 5 -14 0 -19 -2 -12 -5z"/>
<path fill="#000000" stroke="none" d="M713 3593 c9 -2 23 -2 30 0 6 3 -1 5
-18 5 -16 0 -22 -2 -12 -5z"/>
<path fill="#000000" stroke="none" d="M1368 3573 c28 -2 76 -2 105 0 28 2 5
3 -53 3 -58 0 -81 -1 -52 -3z"/>
<path fill="#000000" stroke="none" d="M4563 3524 c7 -7 113 -17 182 -17 101
1 129 3 122 9 -3 4 -74 8 -158 10 -83 1 -149 1 -146 -2z"/>
<path fill="#000000" stroke="none" d="M4888 3513 c6 -2 18 -2 25 0 6 3 1 5
-13 5 -14 0 -19 -2 -12 -5z"/>
<path fill="#000000" stroke="none" d="M2197 3493 c6 -16 5 -17 -13 -3 -10 8
-3 -3 16 -24 21 -24 28 -37 18 -33 -22 8 -23 -1 -1 -25 18 -20 5 -25 -17 -5
-9 7 -8 4 1 -8 9 -11 15 -25 12 -31 -2 -6 3 -17 12 -24 16 -13 21 -35 7 -26
-5 3 -9 -1 -9 -9 0 -8 5 -11 10 -8 6 4 8 -5 5 -21 -3 -14 -1 -29 3 -32 14 -8
10 -26 -3 -18 -7 4 -2 -5 11 -19 14 -15 19 -27 13 -27 -6 0 -14 4 -17 10 -3 5
-16 15 -28 21 -12 6 -4 -4 17 -23 40 -35 58 -85 27 -73 -9 4 -6 -4 8 -19 15
-16 19 -26 11 -26 -9 0 -8 -6 5 -20 12 -13 14 -20 5 -20 -9 0 -10 -4 -2 -13 7
-8 7 -18 2 -27 -5 -8 -5 -21 1 -32 7 -14 6 -18 -5 -18 -8 0 -18 -5 -22 -12 -4
-7 -3 -8 4 -4 18 11 38 -4 21 -15 -12 -8 -11 -11 1 -19 8 -5 10 -10 4 -10 -13
0 -7 -47 7 -56 5 -3 9 -10 9 -16 0 -6 -8 -4 -18 5 -24 22 -28 21 -29 -5 0 -13
1 -17 4 -10 8 21 21 13 19 -13 0 -14 -5 -25 -9 -25 -5 0 -5 -4 -2 -10 3 -5 -1
-10 -9 -10 -9 0 -16 5 -16 10 0 6 -5 10 -12 10 -6 0 -3 -9 7 -20 13 -14 14
-20 5 -20 -9 0 -7 -5 6 -15 14 -11 16 -15 4 -15 -12 -1 -11 -3 3 -14 22 -17
32 -120 10 -112 -7 3 -13 1 -13 -4 0 -14 -16 -12 -32 3 -7 8 -19 12 -26 9 -7
-2 -11 2 -10 10 2 8 -4 12 -16 10 -11 -2 -15 1 -11 8 3 6 1 9 -6 8 -7 -2 -13
2 -14 9 0 6 -4 15 -9 20 -5 5 -6 2 -1 -6 5 -9 3 -12 -6 -9 -8 3 -13 12 -11 19
2 8 0 11 -4 7 -4 -4 -13 -3 -21 4 -7 6 -16 9 -19 6 -2 -3 20 -24 51 -47 32
-24 53 -47 49 -53 -5 -7 -12 -5 -21 7 -7 11 -21 20 -30 21 -10 2 -26 13 -35
25 -10 11 -18 18 -18 14 0 -5 -8 -1 -17 7 -10 8 -25 18 -33 22 -8 4 0 -6 18
-22 17 -16 29 -32 25 -35 -10 -11 -25 -8 -18 3 3 6 -1 10 -10 10 -9 0 -29 8
-43 18 -37 26 -52 34 -52 29 0 -2 19 -17 41 -32 31 -20 38 -29 28 -35 -7 -5
-18 -6 -24 -2 -6 4 1 -4 15 -17 20 -19 21 -22 5 -17 -11 4 -16 4 -12 0 4 -4 2
-13 -4 -20 -7 -8 -6 -14 2 -20 7 -4 9 -3 5 4 -3 6 3 16 14 22 15 8 26 7 45 -6
29 -19 33 -29 8 -19 -14 5 -13 1 4 -14 26 -24 41 -28 23 -6 -19 23 4 18 25 -5
20 -22 35 -26 35 -10 0 6 -10 15 -22 20 -36 14 -103 64 -105 78 -4 19 8 14 77
-37 46 -34 64 -53 62 -67 -2 -15 -1 -16 7 -5 8 12 13 12 36 -3 30 -20 28 -33
-3 -17 -13 7 -23 7 -32 -2 -10 -9 -14 -9 -17 1 -3 6 -9 12 -15 12 -14 0 10
-28 36 -42 19 -10 20 -10 7 5 -16 20 -11 21 24 5 30 -13 33 -28 6 -28 -11 0
-23 -4 -26 -10 -3 -5 0 -7 7 -5 17 7 56 -21 45 -31 -4 -5 -13 -2 -18 6 -9 12
-10 12 -5 -2 7 -23 -3 -23 -20 0 -7 9 -14 12 -14 5 0 -6 9 -18 20 -26 12 -8
20 -18 19 -23 -3 -19 2 -28 9 -17 13 20 54 -14 47 -38 -4 -11 -2 -19 4 -19 6
0 11 6 11 13 0 7 7 4 15 -7 10 -13 15 -44 15 -85 1 -45 7 -77 20 -101 l18 -35
-4 205 c-8 388 -15 655 -20 715 -5 63 -45 313 -69 428 -12 60 -45 131 -45 99
0 -7 -4 -11 -10 -7 -5 3 -7 12 -4 19 3 8 1 17 -5 21 -7 4 -8 -1 -4 -12z"/>
<path fill="#ffffff" stroke="none" d="M2285 2710 c3 -5 2 -10 -4 -10 -5 0
-13 5 -16 10 -3 6 -2 10 4 10 5 0 13 -4 16 -10z"/>
<path fill="#ffffff" stroke="none" d="M2105 2581 c7 -12 -12 -24 -25 -16 -11
7 -4 25 10 25 5 0 11 -4 15 -9z"/>
<path fill="#ffffff" stroke="none" d="M2145 2551 c3 -5 1 -12 -4 -15 -5 -3
-11 1 -15 9 -6 16 9 21 19 6z"/>
<path fill="#ffffff" stroke="none" d="M2172 2525 c0 -5 -5 -11 -10 -13 -5 -1
-9 4 -9 13 0 9 4 14 9 13 5 -2 10 -8 10 -13z"/>
<path fill="#ffffff" stroke="none" d="M2249 2516 c8 -9 8 -16 2 -20 -6 -4
-15 3 -21 14 -12 23 2 27 19 6z"/>
<path fill="#ffffff" stroke="none" d="M2240 2481 c14 -12 20 -21 14 -21 -6 0
-22 8 -35 19 -13 10 -30 16 -36 14 -13 -5 -18 9 -7 20 7 7 27 -3 64 -32z"/>
<path fill="#ffffff" stroke="none" d="M2254 2424 c4 -10 1 -14 -6 -12 -15 5
-23 28 -10 28 5 0 13 -7 16 -16z"/>
<path fill="#ffffff" stroke="none" d="M2254 2379 c-6 -11 -24 -2 -24 11 0 5
7 7 15 4 8 -4 12 -10 9 -15z"/>
<path fill="#ffffff" stroke="none" d="M2265 2330 c0 -7 -5 -15 -12 -17 -7 -3
-11 4 -10 16 1 23 22 23 22 1z"/>
<path fill="#000000" stroke="none" d="M1773 3370 c-1 -11 2 -20 8 -20 5 0 9
9 9 20 0 11 -4 20 -8 20 -4 0 -8 -9 -9 -20z"/>
<path fill="#000000" stroke="none" d="M1773 3318 c-1 -13 -5 -33 -8 -45 -3
-13 -1 -23 5 -23 5 0 10 13 10 29 0 16 3 36 6 45 3 9 2 16 -3 16 -5 0 -10 -10
-10 -22z"/>
<path fill="#000000" stroke="none" d="M358 3303 c7 -3 16 -2 19 1 4 3 -2 6
-13 5 -11 0 -14 -3 -6 -6z"/>
<path fill="#000000" stroke="none" d="M978 3281 c12 -7 62 -4 62 5 0 2 -17 4
-37 4 -24 0 -33 -3 -25 -9z"/>
<path fill="#000000" stroke="none" d="M1375 3269 c22 -4 51 -8 65 -7 23 0 22
1 -5 8 -16 4 -46 8 -65 8 l-35 0 40 -9z"/>
<path fill="#000000" stroke="none" d="M1750 3236 c0 -2 7 -9 15 -16 12 -10
15 -10 15 4 0 9 -7 16 -15 16 -8 0 -15 -2 -15 -4z"/>
<path fill="#000000" stroke="none" d="M1856 3227 c3 -8 0 -25 -5 -40 -7 -17
-7 -28 -1 -32 6 -4 10 0 10 8 0 8 3 29 6 46 4 20 2 31 -4 31 -6 0 -9 -6 -6
-13z"/>
<path fill="#000000" stroke="none" d="M1762 3138 c-2 -35 -1 -60 2 -58 9 9
17 120 8 120 -4 0 -9 -28 -10 -62z"/>
<path fill="#000000" stroke="none" d="M4738 3153 c12 -2 32 -2 45 0 12 2 2 4
-23 4 -25 0 -35 -2 -22 -4z"/>
<path fill="#000000" stroke="none" d="M4811 3155 c7 -7 219 -8 226 -1 4 3
-47 6 -112 6 -65 0 -116 -2 -114 -5z"/>
<path fill="#000000" stroke="none" d="M1834 3115 c-2 -28 11 -25 19 5 3 11 0
20 -6 20 -7 0 -13 -11 -13 -25z"/>
<path fill="#000000" stroke="none" d="M1824 3064 c-4 -10 -9 -22 -11 -26 -2
-5 0 -8 5 -8 10 0 24 41 17 48 -3 3 -8 -4 -11 -14z"/>
<path fill="#000000" stroke="none" d="M218 3043 c7 -3 16 -2 19 1 4 3 -2 6
-13 5 -11 0 -14 -3 -6 -6z"/>
<path fill="#000000" stroke="none" d="M520 3020 c0 -13 11 -13 30 0 12 8 11
10 -7 10 -13 0 -23 -4 -23 -10z"/>
<path fill="#000000" stroke="none" d="M1048 2993 c12 -2 32 -2 45 0 12 2 2 4
-23 4 -25 0 -35 -2 -22 -4z"/>
<path fill="#000000" stroke="none" d="M1358 2973 c17 -2 47 -2 65 0 17 2 3 4
-33 4 -36 0 -50 -2 -32 -4z"/>
<path fill="#000000" stroke="none" d="M1568 2963 c12 -2 32 -2 45 0 12 2 2 4
-23 4 -25 0 -35 -2 -22 -4z"/>
<path fill="#000000" stroke="none" d="M1760 2855 c-11 -13 -10 -14 4 -9 9 3
16 10 16 15 0 13 -6 11 -20 -6z"/>
<path fill="#000000" stroke="none" d="M1830 2840 c0 -26 211 -174 238 -167
15 4 15 5 -1 6 -26 2 -67 31 -67 48 0 8 -4 12 -10 8 -12 -7 -74 32 -122 78
-21 20 -38 32 -38 27z"/>
<path fill="#000000" stroke="none" d="M1757 2823 c-10 -10 -8 -23 4 -23 5 0
8 4 5 9 -4 5 0 12 6 14 7 3 8 6 2 6 -6 1 -14 -2 -17 -6z"/>
<path fill="#000000" stroke="none" d="M4610 2820 c123 -11 428 -15 437 -7 3
4 -41 7 -98 7 -57 0 -178 2 -269 4 -138 4 -149 3 -70 -4z"/>
<path fill="#000000" stroke="none" d="M1800 2805 c0 -7 146 -115 155 -115 5
0 -5 11 -23 23 -17 13 -28 28 -24 32 4 5 2 5 -5 1 -7 -4 -29 8 -51 29 -37 33
-52 42 -52 30z"/>
<path fill="#000000" stroke="none" d="M5061 2806 c2 -2 20 -6 39 -10 25 -4
31 -3 20 4 -14 9 -69 15 -59 6z"/>
<path fill="#000000" stroke="none" d="M1740 2775 c-7 -9 -8 -15 -2 -15 5 0
12 7 16 15 3 8 4 15 2 15 -2 0 -9 -7 -16 -15z"/>
<path fill="#000000" stroke="none" d="M1820 2740 c48 -45 96 -77 73 -48 -7 8
-9 19 -5 23 4 5 1 5 -6 1 -8 -5 -31 7 -60 29 l-47 37 45 -42z"/>
<path fill="#000000" stroke="none" d="M393 2753 c15 -2 39 -2 55 0 15 2 2 4
-28 4 -30 0 -43 -2 -27 -4z"/>
<path fill="#000000" stroke="none" d="M558 2743 c12 -2 32 -2 45 0 12 2 2 4
-23 4 -25 0 -35 -2 -22 -4z"/>
<path fill="#000000" stroke="none" d="M1737 2729 c-4 -16 -11 -19 -29 -14
-22 6 -22 5 2 -9 32 -19 44 -20 37 -2 -3 7 -1 18 5 24 6 6 6 12 0 16 -5 3 -12
-4 -15 -15z"/>
<path fill="#000000" stroke="none" d="M728 2733 c7 -3 16 -2 19 1 4 3 -2 6
-13 5 -11 0 -14 -3 -6 -6z"/>
<path fill="#000000" stroke="none" d="M808 2723 c6 -2 18 -2 25 0 6 3 1 5
-13 5 -14 0 -19 -2 -12 -5z"/>
<path fill="#000000" stroke="none" d="M863 2723 c9 -2 23 -2 30 0 6 3 -1 5
-18 5 -16 0 -22 -2 -12 -5z"/>
<path fill="#000000" stroke="none" d="M1770 2724 c0 -1 12 -10 28 -20 19 -13
24 -13 15 -2 -7 8 -11 17 -8 19 2 3 -5 5 -15 5 -11 0 -20 -1 -20 -2z"/>
<path fill="#000000" stroke="none" d="M920 2714 c36 -7 139 -10 128 -2 -7 4
-42 7 -78 7 -36 -1 -58 -3 -50 -5z"/>
<path fill="#000000" stroke="none" d="M1093 2703 c15 -2 39 -2 55 0 15 2 2 4
-28 4 -30 0 -43 -2 -27 -4z"/>
<path fill="#000000" stroke="none" d="M1760 2687 c0 -3 12 -12 26 -22 15 -9
23 -12 20 -6 -7 11 -46 35 -46 28z"/>
<path fill="#000000" stroke="none" d="M1721 2672 c-1 -8 -10 -11 -28 -7 l-28
5 25 -11 25 -11 -23 -9 c-12 -4 -29 -6 -37 -3 -30 12 -13 -19 41 -74 68 -69
94 -117 94 -174 1 -24 7 -56 14 -73 l13 -30 6 35 c4 19 14 49 23 65 9 17 20
64 23 106 l6 77 -65 28 c-36 16 -74 27 -85 25 -16 -2 -17 -1 -6 13 7 8 11 23
8 33 -3 10 -5 12 -6 5z"/>
<path fill="#000000" stroke="none" d="M2448 2663 c7 -3 16 -2 19 1 4 3 -2 6
-13 5 -11 0 -14 -3 -6 -6z"/>
<path fill="#000000" stroke="none" d="M4164 2652 c-6 -4 -8 -18 -4 -31 l5
-24 13 28 c9 20 18 26 32 22 11 -3 20 -1 20 4 0 11 -50 12 -66 1z"/>
<path fill="#000000" stroke="none" d="M1740 2646 c0 -2 7 -7 16 -10 8 -3 12
-2 9 4 -6 10 -25 14 -25 6z"/>
<path fill="#000000" stroke="none" d="M1945 2610 c3 -5 8 -10 11 -10 2 0 4 5
4 10 0 6 -5 10 -11 10 -5 0 -7 -4 -4 -10z"/>
<path fill="#000000" stroke="none" d="M1952 2571 c-11 -6 -10 -10 4 -15 9 -3
19 -4 22 -1 3 3 0 5 -7 5 -7 0 -9 5 -6 10 7 12 4 12 -13 1z"/>
<path fill="#000000" stroke="none" d="M2450 2570 c0 -5 5 -10 10 -10 6 0 10
5 10 10 0 6 -4 10 -10 10 -5 0 -10 -4 -10 -10z"/>
<path fill="#000000" stroke="none" d="M1920 2526 c0 -2 7 -7 16 -10 8 -3 12
-2 9 4 -6 10 -25 14 -25 6z"/>
<path fill="#000000" stroke="none" d="M4610 2491 c53 -14 530 -39 520 -28 -6
6 -191 19 -445 31 -73 4 -98 2 -75 -3z"/>
<path fill="#000000" stroke="none" d="M2031 2457 c2 -1 13 -9 24 -17 19 -14
19 -14 6 3 -7 9 -18 17 -24 17 -6 0 -8 -1 -6 -3z"/>
<path fill="#000000" stroke="none" d="M2091 2384 c0 -11 3 -14 6 -6 3 7 2 16
-1 19 -3 4 -6 -2 -5 -13z"/>
<path fill="#000000" stroke="none" d="M2153 2372 c-7 -4 -9 -13 -4 -21 6 -10
10 -9 15 5 8 20 4 25 -11 16z"/>
<path fill="#000000" stroke="none" d="M658 2203 c7 -3 16 -2 19 1 4 3 -2 6
-13 5 -11 0 -14 -3 -6 -6z"/>
<path fill="#000000" stroke="none" d="M4575 2169 c39 -8 162 -12 154 -5 -2 2
-47 6 -99 8 -63 4 -82 3 -55 -3z"/>
<path fill="#000000" stroke="none" d="M4761 2156 c8 -8 78 -10 85 -3 4 4 -14
7 -41 7 -27 0 -46 -2 -44 -4z"/>
<path fill="#000000" stroke="none" d="M4893 2143 c20 -2 54 -2 75 0 20 2 3 4
-38 4 -41 0 -58 -2 -37 -4z"/>
<path fill="#000000" stroke="none" d="M5043 2133 c9 -2 23 -2 30 0 6 3 -1 5
-18 5 -16 0 -22 -2 -12 -5z"/>
<path fill="#000000" stroke="none" d="M1645 2110 c3 -5 8 -10 11 -10 2 0 4 5
4 10 0 6 -5 10 -11 10 -5 0 -7 -4 -4 -10z"/>
<path fill="#000000" stroke="none" d="M2315 1939 c-4 -6 -5 -12 -2 -15 2 -3
7 2 10 11 7 17 1 20 -8 4z"/>
<path fill="#000000" stroke="none" d="M2346 1911 c-20 -21 -16 -47 21 -181 9
-30 17 -61 19 -67 4 -15 14 -16 32 -5 9 7 9 18 -2 58 -8 27 -20 83 -27 124 -6
41 -15 78 -19 83 -3 4 -14 -1 -24 -12z"/>
<path fill="#000000" stroke="none" d="M4334 1885 c3 -16 10 -70 16 -120 6
-49 17 -121 25 -160 7 -38 16 -95 20 -125 11 -86 12 -94 20 -113 4 -10 3 -23
-3 -29 -7 -7 -15 21 -27 89 -10 54 -26 132 -36 173 -17 69 -18 71 -15 25 2
-27 7 -65 10 -82 7 -34 -1 -42 -22 -21 -10 10 -15 10 -21 0 -12 -19 -20 6 -31
97 -10 75 -15 90 -26 78 -4 -3 -1 -20 5 -38 14 -39 15 -129 1 -129 -5 0 -7 -7
-4 -15 3 -8 10 -13 14 -12 4 1 9 -2 9 -7 1 -6 -5 -11 -13 -12 -17 -2 -47 71
-39 94 6 15 5 15 -10 3 -14 -11 -20 -11 -32 -1 -9 8 -15 9 -15 2 0 -6 5 -14
11 -18 24 -14 3 -124 -38 -204 -30 -59 -37 -81 -32 -105 29 -128 -33 -248
-189 -366 -83 -63 -188 -105 -319 -129 -59 -11 -110 -20 -114 -20 -9 0 -12 17
-33 190 -43 352 -87 618 -115 705 -10 33 -20 53 -20 43 -1 -9 -7 -18 -13 -21
-10 -3 -10 -8 1 -18 9 -9 11 -9 7 -1 -4 6 -2 12 3 12 6 0 11 -7 11 -15 0 -8
-7 -15 -16 -15 -12 0 -14 -4 -6 -12 5 -7 12 -42 15 -78 4 -36 9 -76 12 -90 16
-72 90 -554 100 -655 4 -33 8 -67 10 -75 2 -8 5 -70 7 -137 2 -126 14 -165 21
-70 l3 52 2 -62 c1 -35 7 -63 12 -63 12 0 13 -63 3 -111 l-8 -34 -6 40 -6 40
-2 -49 c-1 -38 -4 -47 -16 -42 -10 4 -15 -1 -15 -14 0 -24 3 -25 -66 1 -31 12
-76 22 -101 23 -24 1 -48 8 -52 15 -6 9 -11 10 -15 2 -4 -6 -25 -11 -46 -11
-21 0 -42 -5 -45 -10 -4 -6 -25 -10 -48 -10 -23 0 -56 -2 -74 -4 -18 -3 -35
-2 -38 3 -3 5 -13 7 -24 4 -12 -3 -26 5 -39 21 -11 15 -26 25 -32 24 -7 -2
-13 6 -15 17 -1 11 -8 38 -15 60 l-13 40 -9 -27 c-17 -51 -248 -154 -357 -161
-30 -1 -37 -5 -29 -14 6 -7 22 -13 37 -13 44 0 209 57 277 95 52 29 68 34 80
25 7 -7 14 -21 14 -32 0 -10 7 -21 15 -24 11 -5 12 -11 5 -24 -6 -10 -10 -43
-9 -72 0 -43 2 -49 10 -30 5 13 7 38 4 57 -5 42 12 57 20 18 3 -15 10 -41 15
-58 8 -27 8 -25 4 10 -3 22 -7 51 -9 65 -4 23 -4 23 8 6 41 -63 204 -247 221
-251 12 -3 276 -4 588 -3 l566 3 -39 83 c-22 46 -37 88 -34 93 4 5 1 9 -4 9
-6 0 -11 5 -11 11 0 5 5 7 10 4 6 -3 10 -1 10 4 0 6 -9 11 -20 11 -11 0 -20 4
-20 9 0 5 10 7 22 3 14 -3 19 -2 14 6 -4 7 -18 12 -32 12 -13 0 -24 4 -24 10
0 5 14 7 33 4 24 -4 28 -3 17 5 -8 6 -25 11 -37 11 -13 0 -23 4 -23 10 0 5 12
7 28 4 15 -2 60 -11 100 -18 39 -8 72 -10 72 -6 0 5 -19 11 -42 15 -125 18
-178 29 -178 37 0 10 5 10 53 -1 20 -5 39 -5 42 -1 3 5 -17 11 -45 15 -28 4
-48 11 -45 16 3 4 11 6 18 4 36 -11 77 -13 77 -5 0 6 -15 10 -32 10 -18 0 -40
5 -48 11 -11 8 -2 9 33 4 28 -4 47 -2 47 4 0 5 8 12 18 14 15 4 15 5 0 6 -9 0
-19 -3 -22 -7 -9 -15 -81 2 -81 18 1 8 7 73 15 145 8 72 15 199 14 283 l-1
152 24 0 c13 0 35 -10 48 -22 21 -20 25 -37 33 -127 8 -92 12 -106 33 -122 36
-28 57 -25 52 9 l-4 27 16 -30 c8 -16 13 -22 10 -12 -2 9 0 17 5 17 6 0 10 -4
10 -10 0 -16 37 -12 55 7 16 15 18 15 26 0 5 -9 30 -30 55 -46 34 -23 52 -29
71 -25 23 6 24 8 10 19 -9 7 -14 15 -10 18 3 4 1 7 -6 7 -10 0 -8 7 4 27 16
24 16 25 1 20 -28 -11 -80 123 -120 308 -8 39 -20 88 -25 110 -16 65 -24 141
-13 130 5 -5 22 -71 37 -145 15 -74 38 -168 51 -209 13 -40 24 -79 24 -86 0
-7 7 -28 15 -46 l15 -34 -6 40 c-4 22 -19 83 -34 135 -29 101 -49 200 -55 265
-1 22 -6 47 -9 55 -14 35 -39 166 -67 357 -21 146 -46 274 -55 282 -4 3 -4 -7
0 -24z"/>
<path fill="#ffffff" stroke="none" d="M4333 1485 c4 -8 2 -17 -3 -20 -6 -4
-10 3 -10 14 0 25 6 27 13 6z"/>
<path fill="#ffffff" stroke="none" d="M4360 1490 c0 -5 -4 -10 -10 -10 -5 0
-10 5 -10 10 0 6 5 10 10 10 6 0 10 -4 10 -10z"/>
<path fill="#ffffff" stroke="none" d="M4265 1470 c3 -5 1 -10 -4 -10 -6 0
-11 5 -11 10 0 6 2 10 4 10 3 0 8 -4 11 -10z"/>
<path fill="#ffffff" stroke="none" d="M4355 1460 c3 -5 -1 -10 -10 -10 -9 0
-13 5 -10 10 3 6 8 10 10 10 2 0 7 -4 10 -10z"/>
<path fill="#ffffff" stroke="none" d="M4353 1419 c-6 -6 -17 -8 -24 -3 -9 5
-8 9 7 14 23 9 31 3 17 -11z"/>
<path fill="#ffffff" stroke="none" d="M4370 1384 c0 -12 -2 -12 -14 -2 -8 7
-12 16 -9 21 7 11 23 -2 23 -19z"/>
<path fill="#ffffff" stroke="none" d="M4287 1384 c-3 -3 -12 -4 -19 -1 -8 3
-5 6 6 6 11 1 17 -2 13 -5z"/>
<path fill="#ffffff" stroke="none" d="M4380 1354 c0 -2 -7 -4 -15 -4 -8 0
-15 4 -15 10 0 5 7 7 15 4 8 -4 15 -8 15 -10z"/>
<path fill="#ffffff" stroke="none" d="M4425 1320 c-3 -5 -11 -10 -16 -10 -6
0 -7 5 -4 10 3 6 11 10 16 10 6 0 7 -4 4 -10z"/>
<path fill="#ffffff" stroke="none" d="M4390 1289 c0 -6 -4 -7 -10 -4 -5 3
-10 11 -10 16 0 6 5 7 10 4 6 -3 10 -11 10 -16z"/>
<path fill="#ffffff" stroke="none" d="M4320 1220 c0 -5 -2 -10 -4 -10 -3 0
-8 5 -11 10 -3 6 -1 10 4 10 6 0 11 -4 11 -10z"/>
<path fill="#ffffff" stroke="none" d="M4405 1188 c-1 -18 -5 -42 -10 -52 -6
-13 -3 -22 8 -31 14 -10 14 -12 -4 -23 -17 -11 -19 -9 -20 10 0 13 -2 35 -3
51 -1 15 2 27 6 27 16 0 7 20 -9 21 -17 1 -17 2 0 6 9 2 15 9 12 14 -4 5 0 9
7 9 9 0 13 -11 13 -32z"/>
<path fill="#ffffff" stroke="none" d="M4335 1134 c-3 -26 -9 -53 -12 -60 -3
-8 1 -14 8 -14 11 0 11 -3 -1 -10 -13 -8 -13 -10 2 -10 9 0 19 6 21 13 3 6 6
2 6 -10 1 -18 -5 -23 -24 -23 -16 0 -25 6 -25 15 0 8 -4 15 -9 15 -4 0 -6 12
-3 26 3 19 1 25 -7 20 -6 -4 -11 -3 -11 2 0 5 10 12 22 16 18 4 20 8 10 18
-17 17 -15 31 4 24 12 -4 15 -2 10 9 -3 8 -1 15 5 15 8 0 9 -15 4 -46z"/>
<path fill="#ffffff" stroke="none" d="M4350 1080 c0 -5 -5 -10 -11 -10 -5 0
-7 5 -4 10 3 6 8 10 11 10 2 0 4 -4 4 -10z"/>
<path fill="#ffffff" stroke="none" d="M4340 1006 c0 -3 -4 -8 -10 -11 -5 -3
-10 -1 -10 4 0 6 5 11 10 11 6 0 10 -2 10 -4z"/>
<path fill="#ffffff" stroke="none" d="M4373 968 l17 -28 -29 0 c-20 0 -30 6
-34 20 -3 11 -1 20 3 20 5 0 11 -8 13 -17 3 -11 5 -6 6 11 0 16 2 27 4 25 2
-2 11 -16 20 -31z"/>
<path fill="#ffffff" stroke="none" d="M4386 863 c-5 -26 -16 -44 -16 -26 0 6
-9 13 -20 16 -17 4 -18 8 -7 30 16 34 50 19 43 -20z"/>
<path fill="#ffffff" stroke="none" d="M3457 618 c-3 -7 -5 -2 -5 12 0 14 2
19 5 13 2 -7 2 -19 0 -25z"/>
<path fill="#ffffff" stroke="none" d="M3470 593 c0 -5 -5 -15 -10 -23 -8 -12
-10 -11 -10 8 0 12 5 22 10 22 6 0 10 -3 10 -7z"/>
<path fill="#ffffff" stroke="none" d="M2870 289 c0 -6 -4 -7 -10 -4 -5 3 -10
11 -10 16 0 6 5 7 10 4 6 -3 10 -11 10 -16z"/>
<path fill="#000000" stroke="none" d="M1438 1863 c6 -2 18 -2 25 0 6 3 1 5
-13 5 -14 0 -19 -2 -12 -5z"/>
<path fill="#000000" stroke="none" d="M1508 1853 c12 -2 30 -2 40 0 9 3 -1 5
-23 4 -22 0 -30 -2 -17 -4z"/>
<path fill="#000000" stroke="none" d="M1603 1843 c15 -2 37 -2 50 0 12 2 0 4
-28 4 -27 0 -38 -2 -22 -4z"/>
<path fill="#000000" stroke="none" d="M1713 1833 c9 -2 25 -2 35 0 9 3 1 5
-18 5 -19 0 -27 -2 -17 -5z"/>
<path fill="#000000" stroke="none" d="M4813 1833 c15 -2 37 -2 50 0 12 2 0 4
-28 4 -27 0 -38 -2 -22 -4z"/>
<path fill="#000000" stroke="none" d="M4890 1828 c0 -4 27 -8 59 -8 33 0 68
-3 78 -6 17 -5 17 -5 0 6 -21 13 -137 20 -137 8z"/>
<path fill="#000000" stroke="none" d="M4227 1774 c3 -27 10 -53 15 -59 5 -6
6 7 2 35 -10 64 -23 84 -17 24z"/>
<path fill="#000000" stroke="none" d="M2435 1790 c3 -5 8 -10 11 -10 2 0 4 5
4 10 0 6 -5 10 -11 10 -5 0 -7 -4 -4 -10z"/>
<path fill="#000000" stroke="none" d="M4317 1735 c6 -51 9 -62 18 -54 2 3 -2
27 -10 54 l-14 50 6 -50z"/>
<path fill="#000000" stroke="none" d="M278 1733 c7 -3 16 -2 19 1 4 3 -2 6
-13 5 -11 0 -14 -3 -6 -6z"/>
<path fill="#000000" stroke="none" d="M2695 1622 c-9 -37 -23 -89 -30 -117
-8 -27 -24 -88 -35 -135 -12 -47 -28 -103 -36 -125 -8 -23 -14 -62 -14 -88 0
-27 -4 -46 -9 -43 -5 3 -3 -15 5 -41 8 -25 14 -57 14 -70 0 -30 41 -112 70
-138 17 -15 14 -6 -13 45 -20 36 -41 92 -47 125 -14 70 -3 146 49 330 17 61
38 148 47 195 9 47 20 93 25 102 5 9 5 19 0 22 -4 3 -16 -25 -26 -62z"/>
<path fill="#000000" stroke="none" d="M4293 1564 c0 -16 13 -19 21 -5 3 5 0
11 -7 14 -8 3 -14 -1 -14 -9z"/>
<path fill="#000000" stroke="none" d="M4938 1513 c6 -2 18 -2 25 0 6 3 1 5
-13 5 -14 0 -19 -2 -12 -5z"/>
<path fill="#000000" stroke="none" d="M4801 1294 c0 -11 3 -14 6 -6 3 7 2 16
-1 19 -3 4 -6 -2 -5 -13z"/>
<path fill="#000000" stroke="none" d="M1930 1206 c0 -8 4 -16 10 -18 6 -2 6
-17 -1 -43 -7 -26 -8 -40 -1 -43 5 -1 8 -12 5 -22 -3 -11 -1 -20 5 -20 10 0 8
-32 -4 -74 -4 -11 -2 -16 4 -12 10 6 27 -42 17 -52 -3 -3 -5 0 -5 6 0 7 -5 12
-10 12 -6 0 -4 -10 5 -23 8 -13 12 -27 8 -30 -3 -4 -1 -7 5 -7 6 0 9 -6 7 -12
-13 -39 -12 -82 1 -95 15 -16 20 -48 5 -38 -5 3 -12 -3 -14 -12 -3 -11 -5 -6
-6 11 -1 23 -4 27 -13 18 -18 -18 -21 -52 -3 -46 8 4 15 1 15 -5 0 -6 -5 -11
-11 -11 -8 0 -8 -5 1 -15 7 -8 19 -15 26 -15 8 0 14 -8 14 -17 0 -14 -2 -15
-9 -5 -5 9 -8 4 -7 -15 0 -15 -3 -41 -7 -58 -6 -20 -5 -27 2 -20 5 6 17 36 25
67 22 85 37 106 32 43 -5 -48 0 -46 19 10 7 20 7 20 15 0 6 -17 9 -14 20 20
12 35 15 50 19 88 1 4 5 7 10 7 4 0 6 -12 3 -26 -3 -19 -1 -25 7 -20 13 8 15
56 2 56 -30 0 -110 181 -126 287 -4 24 -11 45 -16 49 -5 3 -7 9 -4 14 5 8 -32
80 -41 80 -2 0 -4 -6 -4 -14z"/>
<path fill="#ffffff" stroke="none" d="M1984 695 c-4 -8 -8 -15 -10 -15 -2 0
-4 7 -4 15 0 8 4 15 10 15 5 0 7 -7 4 -15z"/>
<path fill="#ffffff" stroke="none" d="M1997 678 c-3 -8 -6 -5 -6 6 -1 11 2
17 5 13 3 -3 4 -12 1 -19z"/>
<path fill="#000000" stroke="none" d="M4547 959 c7 -7 15 -10 18 -7 3 3 -2 9
-12 12 -14 6 -15 5 -6 -5z"/>
<path fill="#000000" stroke="none" d="M4584 951 c4 -6 10 -10 14 -8 4 3 77
-6 162 -18 135 -19 180 -22 168 -10 -2 2 -64 10 -138 19 -74 9 -152 19 -174
22 -27 4 -36 3 -32 -5z"/>
<path fill="#000000" stroke="none" d="M2681 812 c-1 -13 -12 -33 -25 -45
l-23 -22 48 -90 c27 -49 49 -85 49 -79 0 7 -6 24 -14 38 -7 15 -14 58 -14 99
0 40 -5 83 -11 97 -10 25 -10 25 -10 2z"/>
<path fill="#000000" stroke="none" d="M2141 733 c0 -10 3 -13 5 -6 3 7 13 9
22 6 15 -4 15 -3 2 6 -22 15 -30 14 -29 -6z"/>
<path fill="#000000" stroke="none" d="M2180 698 c-27 -102 -75 -213 -162
-379 -31 -58 -40 -102 -28 -133 7 -21 15 -25 45 -23 35 2 46 11 23 20 -8 3 -5
6 5 6 10 1 15 6 12 12 -5 7 8 9 41 5 51 -6 50 -3 0 9 -38 8 -24 20 20 16 43
-3 44 6 2 18 l-33 9 32 1 c17 1 33 7 36 14 2 6 7 -2 11 -18 7 -32 55 -99 56
-77 0 6 -9 21 -20 32 -23 23 -28 49 -6 31 8 -7 -2 20 -21 59 -20 39 -35 82
-35 96 0 13 -4 27 -9 29 -4 3 -7 -13 -6 -35 2 -24 -2 -39 -8 -37 -5 2 -10 17
-10 33 -1 16 -4 39 -8 51 -5 12 -4 30 1 40 6 10 14 30 20 44 6 14 26 35 46 47
42 25 49 11 9 -15 -30 -19 -43 -33 -43 -47 0 -4 11 -1 24 7 24 16 26 15 93
-49 70 -68 103 -92 103 -76 0 29 -69 172 -83 172 -9 0 -9 2 0 8 8 5 4 22 -13
62 -36 79 -38 82 -61 97 -21 14 -22 13 -33 -29z"/>
<path fill="#ffffff" stroke="none" d="M2157 330 c-3 -11 -1 -18 4 -14 5 3 9
-5 9 -18 0 -13 -4 -18 -8 -13 -4 6 -13 10 -19 11 -26 2 -30 4 -30 19 0 8 9 15
19 15 10 0 18 5 18 10 0 6 3 10 6 10 4 0 4 -9 1 -20z"/>
<path fill="#000000" stroke="none" d="M2092 679 c-12 -47 0 -41 16 9 6 17 7
32 3 32 -5 0 -13 -19 -19 -41z"/>
<path fill="#000000" stroke="none" d="M2120 675 c0 -8 2 -15 4 -15 2 0 6 7
10 15 3 8 1 15 -4 15 -6 0 -10 -7 -10 -15z"/>
<path fill="#000000" stroke="none" d="M2051 624 c0 -11 3 -14 6 -6 3 7 2 16
-1 19 -3 4 -6 -2 -5 -13z"/>
<path fill="#000000" stroke="none" d="M4808 633 c7 -3 16 -2 19 1 4 3 -2 6
-13 5 -11 0 -14 -3 -6 -6z"/>
<path fill="#000000" stroke="none" d="M4910 620 c34 -11 60 -11 35 0 -11 5
-29 8 -40 8 -16 0 -15 -2 5 -8z"/>
<path fill="#000000" stroke="none" d="M2011 584 c0 -11 3 -14 6 -6 3 7 2 16
-1 19 -3 4 -6 -2 -5 -13z"/>
<path fill="#000000" stroke="none" d="M1975 489 c-4 -6 -5 -12 -2 -15 2 -3 7
2 10 11 7 17 1 20 -8 4z"/>
<path fill="#000000" stroke="none" d="M2142 466 c-7 -16 -8 -26 -1 -26 12 0
22 25 17 41 -2 6 -9 0 -16 -15z"/>
<path fill="#000000" stroke="none" d="M3447 433 c-4 -3 -7 -20 -6 -37 l1 -31
8 35 c9 36 8 45 -3 33z"/>
<path fill="#000000" stroke="none" d="M3471 384 c0 -11 3 -14 6 -6 3 7 2 16
-1 19 -3 4 -6 -2 -5 -13z"/>
<path fill="#000000" stroke="none" d="M4268 383 c6 -2 18 -2 25 0 6 3 1 5
-13 5 -14 0 -19 -2 -12 -5z"/>
<path fill="#000000" stroke="none" d="M4215 372 c6 -5 33 -13 60 -16 62 -8
40 8 -25 18 -28 4 -41 4 -35 -2z"/>
<path fill="#000000" stroke="none" d="M4763 373 c9 -2 23 -2 30 0 6 3 -1 5
-18 5 -16 0 -22 -2 -12 -5z"/>
<path fill="#000000" stroke="none" d="M4405 359 c22 -6 15 -7 -25 -3 -72 7
-54 -11 20 -20 38 -5 50 -3 40 4 -13 9 -13 10 0 10 13 0 13 1 0 10 -8 5 -26 9
-40 9 -23 -1 -23 -2 5 -10z"/>
<path fill="#000000" stroke="none" d="M4855 360 c-4 -6 6 -10 22 -10 22 0 25
2 13 10 -19 12 -27 12 -35 0z"/>
<path fill="#000000" stroke="none" d="M1221 334 c0 -11 3 -14 6 -6 3 7 2 16
-1 19 -3 4 -6 -2 -5 -13z"/>
<path fill="#000000" stroke="none" d="M4220 342 c8 -5 56 -15 105 -21 50 -7
98 -15 108 -17 9 -3 17 -1 17 3 0 8 -46 17 -205 39 -26 3 -35 2 -25 -4z"/>
<path fill="#000000" stroke="none" d="M4260 305 c30 -8 56 -12 59 -9 8 8 -4
12 -59 17 l-55 6 55 -14z"/>
<path fill="#000000" stroke="none" d="M4345 291 c30 -12 105 -20 105 -11 0 7
-75 21 -109 19 -12 0 -11 -2 4 -8z"/>
<path fill="#000000" stroke="none" d="M708 264 c-6 -30 -2 -114 6 -114 4 0 6
-11 4 -25 -3 -14 -1 -25 3 -25 5 0 9 -7 9 -15 0 -9 6 -12 15 -9 13 6 18 54 5
54 -5 0 -9 40 -10 96 0 22 -28 55 -32 38z"/>
<path fill="#000000" stroke="none" d="M1240 259 c0 -5 5 -7 10 -4 6 3 10 8
10 11 0 2 -4 4 -10 4 -5 0 -10 -5 -10 -11z"/>
<path fill="#000000" stroke="none" d="M4204 259 c-3 -5 5 -9 18 -9 13 0 41
-3 63 -7 22 -3 37 -3 34 1 -11 11 -109 24 -115 15z"/>
<path fill="#000000" stroke="none" d="M4385 256 c55 -13 76 -13 64 -1 -3 2
-32 7 -65 9 l-59 6 60 -14z"/>
<path fill="#000000" stroke="none" d="M415 250 c-3 -5 1 -20 9 -32 l16 -22 0
26 c0 29 -15 45 -25 28z"/>
<path fill="#000000" stroke="none" d="M615 240 c-3 -6 1 -7 9 -4 18 7 21 14
7 14 -6 0 -13 -4 -16 -10z"/>
<path fill="#000000" stroke="none" d="M4330 242 c0 -5 27 -14 60 -19 33 -5
60 -6 60 -2 0 4 -19 10 -42 14 -24 3 -51 9 -60 11 -10 3 -18 1 -18 -4z"/>
<path fill="#000000" stroke="none" d="M4205 232 c6 -5 35 -12 65 -15 63 -7
41 6 -30 18 -29 5 -42 4 -35 -3z"/>
<path fill="#000000" stroke="none" d="M495 220 c3 -5 11 -10 16 -10 6 0 7 5
4 10 -3 6 -11 10 -16 10 -6 0 -7 -4 -4 -10z"/>
<path fill="#000000" stroke="none" d="M4330 212 c0 -10 108 -27 117 -19 2 3
-15 8 -39 12 -24 3 -51 9 -60 11 -10 3 -18 1 -18 -4z"/>
<path fill="#000000" stroke="none" d="M0 195 c0 -8 6 -15 13 -16 6 0 35 -2
63 -3 29 -2 56 -1 62 3 6 3 -15 7 -46 8 -30 1 -60 7 -66 13 -14 14 -26 12 -26
-5z"/>
<path fill="#000000" stroke="none" d="M594 185 c-3 -14 -13 -25 -23 -25 -14
0 -14 2 -1 11 12 9 12 10 -3 5 -10 -3 -23 -6 -28 -6 -5 0 -4 -6 3 -14 7 -7 18
-12 24 -9 7 3 10 -5 7 -21 -5 -23 -10 -26 -47 -26 -24 0 -46 3 -50 7 -7 8 -48
17 -196 48 -124 25 -132 12 -10 -15 30 -7 61 -17 68 -23 6 -5 12 -7 12 -4 0 2
31 -3 69 -13 38 -10 89 -21 113 -25 61 -9 76 -19 59 -39 -7 -8 -11 -21 -8 -28
3 -8 11 1 18 19 11 26 17 31 36 27 12 -3 37 -7 55 -9 18 -1 56 -6 84 -10 30
-4 54 -4 57 2 4 5 -17 10 -49 11 -35 0 -70 8 -95 21 -22 12 -51 21 -64 21 -14
0 -25 5 -25 10 0 6 4 10 8 10 5 0 17 7 28 16 10 8 14 13 7 10 -6 -4 -14 0 -16
6 -3 8 -6 6 -6 -4 -2 -35 -17 -17 -16 20 0 25 4 36 13 34 8 -1 11 2 7 8 -11
17 -24 11 -31 -15z"/>
<path fill="#000000" stroke="none" d="M1556 197 c3 -10 9 -15 12 -12 3 3 0
11 -7 18 -10 9 -11 8 -5 -6z"/>
<path fill="#000000" stroke="none" d="M4215 202 c32 -14 112 -24 100 -14 -5
6 -35 13 -65 16 -34 4 -47 3 -35 -2z"/>
<path fill="#000000" stroke="none" d="M367 183 c-4 -3 -7 -11 -7 -17 0 -6 5
-5 12 2 6 6 9 14 7 17 -3 3 -9 2 -12 -2z"/>
<path fill="#000000" stroke="none" d="M4330 180 c0 -5 10 -10 23 -10 12 0 40
-3 62 -5 28 -4 34 -3 20 3 -34 15 -105 23 -105 12z"/>
<path fill="#000000" stroke="none" d="M1151 164 c0 -11 3 -14 6 -6 3 7 2 16
-1 19 -3 4 -6 -2 -5 -13z"/>
<path fill="#000000" stroke="none" d="M4235 170 c17 -4 44 -8 60 -8 25 0 24
2 -10 9 -51 10 -92 10 -50 -1z"/>
<path fill="#000000" stroke="none" d="M4345 151 c28 -12 109 -21 99 -11 -5 4
-34 11 -64 14 -34 4 -47 3 -35 -3z"/>
<path fill="#000000" stroke="none" d="M1315 78 c3 -16 1 -28 -4 -28 -6 0 -8
-7 -4 -17 5 -14 8 -13 14 5 5 12 4 32 -2 44 -9 21 -9 21 -4 -4z"/>
<path fill="#000000" stroke="none" d="M1245 70 c-3 -5 -1 -10 4 -10 6 0 11 5
11 10 0 6 -2 10 -4 10 -3 0 -8 -4 -11 -10z"/>
<path fill="#000000" stroke="none" d="M2876 38 c-18 -26 -20 -38 -6 -38 11 0
34 50 26 57 -2 2 -11 -6 -20 -19z"/>
<path fill="#000000" stroke="none" d="M850 30 c-10 -7 -11 -10 -2 -11 55 -6
73 -9 120 -15 31 -4 52 -3 52 3 0 5 -21 10 -47 12 -26 1 -50 5 -53 9 -8 12
-54 13 -70 2z"/>
<path fill="#000000" stroke="none" d="M1048 3 c6 -2 18 -2 25 0 6 3 1 5 -13
5 -14 0 -19 -2 -12 -5z"/>
</g>
</svg>
