<?xml version="1.0" standalone="no"?>
<!DOCTYPE svg PUBLIC "-//W3C//DTD SVG 20010904//EN"
 "http://www.w3.org/TR/2001/REC-SVG-20010904/DTD/svg10.dtd">
<svg version="1.0" xmlns="http://www.w3.org/2000/svg"
 width="960.000000pt" height="1280.000000pt" viewBox="0 0 960.000000 1280.000000"
 preserveAspectRatio="xMidYMid meet">
<metadata>
Created by potrace 1.11, written by Peter Selinger 2001-2013
</metadata>
<g transform="translate(0.000000,1280.000000) scale(0.100000,-0.100000)"
fill="#000000" stroke="none">
<path fill="#000000" stroke="none" d="M4469 7171 c-14 -5 -56 -23 -94 -41
-62 -30 -96 -57 -244 -194 -25 -23 -68 -73 -98 -113 -29 -39 -57 -74 -62 -77
-8 -5 -150 -18 -191 -18 -8 0 -40 -4 -70 -9 -30 -5 -73 -12 -95 -15 -33 -4
-118 -19 -160 -29 -84 -18 -255 -102 -356 -175 -116 -83 -193 -154 -269 -249
-72 -89 -178 -272 -218 -376 -13 -33 -36 -89 -52 -125 -16 -36 -34 -87 -40
-115 -5 -27 -17 -75 -26 -105 -9 -30 -26 -109 -38 -176 -24 -129 -30 -144 -51
-144 -8 0 -30 -7 -49 -17 -26 -12 -38 -26 -48 -58 -14 -42 -7 -95 13 -95 5 0
9 -7 9 -15 0 -8 7 -15 16 -15 13 0 15 6 10 33 -16 73 -13 90 17 99 45 16 57 5
56 -49 -1 -26 -4 -59 -8 -72 -12 -43 25 -325 58 -451 36 -134 129 -330 205
-429 25 -34 46 -67 46 -75 0 -37 -176 -234 -314 -351 -33 -27 -64 -56 -70 -63
-30 -36 -92 -93 -107 -97 -25 -8 -33 -35 -10 -35 20 0 135 77 226 151 65 52
168 163 254 271 30 37 60 69 68 73 9 3 32 -11 58 -37 64 -65 105 -96 163 -125
28 -14 52 -30 52 -35 0 -5 9 -7 20 -3 10 3 28 2 38 -4 25 -13 201 -41 277 -43
212 -6 424 68 750 263 181 108 381 265 566 445 42 41 83 74 91 74 8 0 33 -19
54 -42 78 -86 85 -89 174 -95 78 -5 85 -3 148 28 37 18 81 44 98 56 17 13 36
23 42 23 7 0 17 9 24 20 7 11 16 20 21 20 4 0 19 11 33 24 15 13 45 29 68 37
22 7 52 18 66 25 14 6 35 15 48 18 l22 7 -16 -43 c-10 -24 -26 -56 -38 -72
-11 -16 -34 -59 -51 -95 -38 -78 -157 -289 -195 -346 -15 -22 -43 -69 -62
-105 -20 -36 -61 -109 -92 -162 -31 -53 -56 -99 -56 -101 0 -3 -38 -67 -85
-143 -46 -77 -105 -173 -130 -214 -26 -41 -62 -100 -81 -130 -38 -61 -45 -110
-16 -110 21 0 62 41 86 85 9 17 31 53 48 80 17 28 64 111 106 185 41 74 101
173 132 220 31 47 67 105 79 128 12 24 37 65 55 90 19 26 55 87 80 137 26 49
51 94 56 100 4 5 58 107 118 225 160 313 166 323 180 338 6 7 12 19 12 26 0
13 61 67 115 101 50 32 117 75 158 103 20 14 40 23 42 20 8 -8 -13 -139 -34
-213 -15 -51 -20 -101 -21 -184 0 -100 4 -126 31 -213 25 -78 40 -108 73 -144
39 -44 44 -46 93 -46 34 0 69 8 106 26 31 14 59 26 62 26 3 0 52 22 108 49 56
27 136 60 177 74 41 14 100 35 130 45 30 11 116 39 190 62 74 23 154 48 176
55 38 13 274 74 479 124 44 11 116 27 160 36 145 28 179 36 245 57 36 11 72
27 80 34 12 12 8 14 -32 14 -26 0 -70 -5 -100 -11 -29 -5 -84 -16 -123 -24
-38 -7 -95 -16 -125 -20 -30 -3 -118 -22 -195 -41 -77 -19 -178 -44 -225 -55
-192 -46 -594 -178 -725 -239 -59 -28 -226 -94 -265 -105 -25 -7 -61 -20 -80
-28 -33 -15 -38 -14 -68 4 -43 28 -79 109 -105 235 -20 101 -20 108 -4 232 20
159 52 258 101 312 39 44 44 75 11 74 -11 0 -93 -49 -183 -109 -89 -59 -165
-106 -168 -103 -3 3 -1 14 5 25 6 10 15 29 21 43 9 23 28 58 106 191 31 53 99
123 279 289 96 89 214 207 255 255 14 17 57 66 95 110 39 44 81 98 95 120 13
22 41 62 62 88 21 27 38 52 38 57 0 4 16 31 35 60 19 29 35 60 35 70 0 11 4
21 9 25 27 16 128 282 137 360 6 48 5 55 -11 55 -14 0 -16 -6 -11 -34 5 -25
-2 -58 -22 -118 -34 -96 -145 -321 -177 -358 -13 -14 -42 -54 -66 -90 -24 -36
-48 -69 -54 -75 -7 -5 -47 -55 -90 -110 -82 -105 -121 -147 -282 -310 -151
-152 -192 -189 -199 -183 -3 4 20 57 51 120 118 232 263 510 323 618 108 195
141 259 148 285 4 17 17 42 30 57 12 15 30 46 40 68 10 22 21 40 25 40 4 0 16
16 28 35 11 19 26 35 34 35 7 0 31 18 52 40 45 46 91 54 125 20 11 -11 22 -20
25 -20 13 0 3 45 -16 71 -16 23 -28 29 -56 29 -53 0 -95 -32 -154 -118 -29
-42 -67 -95 -84 -117 -18 -22 -51 -76 -75 -120 -23 -44 -52 -94 -65 -110 -13
-17 -62 -107 -111 -200 -48 -94 -97 -186 -109 -205 -12 -19 -38 -66 -57 -105
-66 -132 -175 -340 -226 -433 -29 -50 -52 -96 -52 -101 0 -30 -158 -150 -180
-136 -18 11 -12 113 11 156 15 30 17 44 9 54 -6 7 -14 55 -19 107 -4 51 -12
102 -18 113 -6 11 -25 63 -42 115 -30 88 -79 205 -101 240 -52 85 -80 133 -80
141 0 5 -4 9 -9 9 -4 0 -20 17 -33 38 -53 78 -187 203 -288 268 -25 16 -54 37
-64 47 -11 9 -23 17 -27 17 -5 0 -27 13 -51 28 -74 49 -209 115 -263 128 -17
4 -35 10 -40 15 -6 4 -46 17 -90 29 -44 11 -102 27 -130 35 -55 16 -255 48
-270 44 -19 -5 -191 12 -204 21 -11 6 -6 20 24 67 21 32 56 78 79 102 154 163
391 272 447 205 15 -18 29 -18 29 -1 0 44 -97 79 -161 58z"/>
<path fill="#ffffff" stroke="none" d="M3913 6672 c24 -3 21 -21 -16 -93 -19
-35 -36 -73 -40 -84 -3 -11 -21 -47 -39 -80 -18 -33 -46 -89 -62 -125 -16 -36
-41 -92 -56 -125 -16 -33 -40 -89 -55 -125 -15 -36 -36 -84 -46 -107 -10 -23
-19 -45 -19 -48 0 -4 -6 -21 -14 -38 -8 -18 -31 -75 -52 -127 -20 -52 -40 -99
-44 -105 -4 -5 -19 -46 -34 -90 -65 -187 -78 -214 -105 -223 -14 -5 -84 -10
-156 -10 -140 -2 -334 -11 -375 -18 -14 -2 -61 -6 -105 -10 -44 -3 -102 -13
-128 -21 -68 -21 -79 -14 -72 44 20 151 66 326 143 538 36 99 125 258 205 365
82 111 279 282 380 330 31 15 63 32 70 37 29 22 167 73 227 84 36 7 86 17 112
23 39 9 225 15 281 8z"/>
<path fill="#ffffff" stroke="none" d="M4275 6665 c146 -9 344 -52 445 -96 36
-15 103 -44 150 -64 47 -20 94 -44 105 -54 11 -10 40 -28 65 -40 102 -50 269
-191 368 -310 61 -74 135 -190 179 -281 30 -63 90 -228 98 -270 4 -19 12 -41
18 -48 6 -8 13 -51 15 -96 l4 -83 -47 -54 c-102 -115 -200 -198 -252 -214 -22
-6 -23 -5 -20 56 3 54 9 68 38 103 46 54 98 136 106 164 3 15 0 30 -10 39 -13
14 -19 12 -50 -18 -20 -19 -52 -65 -72 -104 -23 -45 -56 -89 -93 -122 -31 -29
-59 -53 -62 -53 -4 0 -4 40 -2 90 4 76 1 98 -18 145 -12 31 -28 54 -34 52 -12
-4 -12 -13 -1 -148 6 -71 5 -91 -10 -120 -35 -69 -131 -192 -172 -221 l-42
-29 -7 27 c-10 39 16 79 102 163 85 84 109 134 83 180 -18 32 -60 39 -94 17
-14 -9 -41 -51 -61 -94 -92 -198 -83 -186 -183 -266 -52 -42 -99 -75 -105 -73
-27 8 -50 82 -51 164 0 60 -5 86 -17 100 -20 22 -43 207 -34 266 4 23 21 70
37 104 27 55 35 64 69 73 21 6 43 17 50 25 15 18 38 19 90 3 23 -8 43 -22 49
-35 6 -13 18 -23 27 -23 9 0 36 -10 59 -21 34 -17 53 -20 89 -15 31 5 46 12
46 22 0 8 -4 13 -8 10 -5 -3 -24 10 -43 30 -43 44 -79 63 -149 80 -79 19 -137
17 -208 -7 -137 -46 -173 -132 -154 -369 10 -119 5 -151 -28 -200 -18 -28 -31
-62 -50 -130 -13 -47 -63 -103 -185 -205 -33 -27 -62 -52 -65 -56 -3 -3 -23
-17 -45 -31 -22 -14 -51 -36 -65 -50 -28 -28 -117 -88 -129 -88 -5 0 -11 23
-14 50 -7 54 15 140 53 215 11 21 20 59 20 82 0 35 -3 43 -19 43 -13 0 -23
-14 -35 -47 -9 -27 -26 -71 -37 -100 -35 -88 -44 -179 -24 -245 19 -68 43 -82
84 -49 14 11 50 37 79 57 29 20 71 58 95 84 23 26 74 71 112 100 39 30 86 66
105 82 19 15 38 28 42 28 5 0 8 -29 8 -64 0 -73 17 -101 54 -90 11 3 50 28 86
55 l65 48 23 -27 c12 -15 31 -44 42 -64 l19 -37 -77 -78 c-119 -121 -218 -210
-306 -275 -111 -82 -364 -238 -461 -283 -44 -21 -97 -49 -118 -62 -136 -85
-491 -120 -652 -63 -72 25 -145 62 -145 73 0 13 28 64 61 110 16 23 45 65 64
93 19 29 40 58 47 66 19 20 40 59 35 64 -5 5 -49 -43 -84 -91 -56 -77 -26 18
59 190 22 44 73 154 115 245 102 223 116 256 144 325 13 32 38 73 54 90 43 43
91 123 104 171 6 23 18 45 27 48 15 6 247 -10 291 -19 20 -5 41 10 30 21 -13
13 -143 37 -273 50 -32 3 -201 12 -251 14 -7 0 -13 7 -13 15 0 21 189 521 237
625 14 30 38 87 53 125 54 135 245 533 281 586 18 25 19 26 126 22 59 -2 135
-5 168 -8z"/>
<path fill="#ffffff" stroke="none" d="M3318 5226 c2 -3 -48 -135 -78 -201 -5
-11 -31 -69 -58 -130 -27 -60 -60 -135 -73 -165 -28 -63 -90 -179 -192 -360
-94 -166 -135 -230 -147 -230 -16 0 -60 50 -60 68 0 8 -11 22 -23 33 -27 21
-117 190 -117 220 0 11 -5 30 -11 41 -20 37 -62 210 -77 319 -10 68 -5 306 7
327 10 17 128 51 184 51 21 1 68 6 105 11 122 19 525 30 540 16z"/>
<path fill="#ffffff" stroke="none" d="M3560 5230 c0 -6 -9 -23 -20 -38 -45
-61 -168 -297 -230 -442 -18 -41 -68 -147 -110 -235 -43 -88 -90 -189 -104
-225 -15 -36 -38 -87 -50 -115 -13 -27 -34 -77 -46 -110 -13 -33 -32 -70 -44
-82 l-21 -22 -41 32 c-23 18 -49 46 -59 63 -16 30 -16 33 5 75 13 24 30 55 40
69 10 14 31 50 47 80 17 30 54 98 83 150 71 127 189 374 230 480 61 159 136
313 155 321 30 12 165 11 165 -1z"/>
<path fill="#ffffff" stroke="none" d="M5684 5187 c9 -38 -13 -225 -38 -321
-26 -100 -24 -99 -162 -186 -47 -30 -107 -68 -132 -85 -26 -16 -47 -36 -47
-44 0 -18 -33 -30 -65 -24 -16 3 -52 -9 -103 -35 -90 -45 -119 -44 -187 3 -41
28 -90 91 -90 116 0 13 62 89 229 278 31 35 66 78 78 95 13 17 40 45 62 61 22
17 56 43 75 59 44 35 71 30 62 -12 -15 -67 -18 -129 -7 -137 30 -18 76 19 259
210 23 25 47 45 51 45 5 0 11 -10 15 -23z"/>
<path fill="#ffffff" stroke="none" d="M5100 5191 c0 -16 -45 -74 -77 -99 -48
-36 -43 -7 9 57 37 46 68 65 68 42z"/>
<path fill="#ffffff" stroke="none" d="M5797 5024 c-40 -79 -71 -114 -80 -90
-12 30 13 80 60 122 27 23 49 41 51 39 2 -2 -12 -34 -31 -71z"/>
<path fill="#ffffff" stroke="none" d="M4933 4868 c4 -44 2 -69 -7 -83 -18
-27 -106 -115 -115 -115 -15 0 -62 58 -70 86 -12 44 6 71 85 125 93 64 100 64
107 -13z"/>
<path fill="#ffffff" stroke="none" d="M4636 4863 c30 -66 27 -77 -32 -110
-69 -40 -84 -46 -90 -40 -3 3 -3 30 1 61 6 42 16 68 42 101 18 25 38 45 43 45
5 0 21 -26 36 -57z"/>
<path fill="#000000" stroke="none" d="M3862 5083 c-11 -16 -39 -64 -62 -108
-45 -85 -113 -190 -130 -200 -5 -3 -10 -18 -10 -33 0 -15 -11 -47 -25 -71 -14
-23 -25 -49 -25 -57 0 -8 -10 -31 -23 -52 -29 -46 -162 -318 -172 -352 -4 -14
-19 -47 -33 -74 -23 -44 -27 -47 -38 -31 -11 14 -14 15 -18 4 -13 -36 -26
-108 -26 -151 0 -114 59 -50 129 140 37 99 71 173 188 407 52 104 104 213 114
240 30 78 41 97 79 145 83 104 116 175 95 203 -16 23 -20 22 -43 -10z"/>
<path fill="#000000" stroke="none" d="M7925 5419 c-4 -6 -5 -12 -2 -15 2 -3
7 2 10 11 7 17 1 20 -8 4z"/>
<path fill="#000000" stroke="none" d="M7944 5395 c3 -8 0 -15 -7 -15 -8 0 -7
-4 3 -10 9 -6 17 -5 21 2 9 14 0 38 -13 38 -6 0 -8 -7 -4 -15z"/>
<path fill="#000000" stroke="none" d="M1671 4912 c-52 -26 -128 -120 -152
-187 -45 -129 -60 -404 -30 -554 5 -25 7 -51 4 -58 -3 -7 0 -13 6 -13 6 0 11
-9 11 -21 0 -11 5 -29 11 -40 6 -11 12 -30 14 -41 3 -11 11 -28 20 -38 8 -9
15 -31 15 -49 0 -24 5 -34 20 -38 11 -3 20 -14 20 -24 0 -10 6 -22 13 -26 6
-4 20 -24 30 -43 41 -79 49 -90 72 -96 14 -3 22 -10 19 -15 -7 -11 48 -59 59
-52 5 3 -7 22 -27 42 -20 20 -36 45 -36 54 0 9 -4 17 -10 17 -5 0 -10 9 -10
20 0 13 -7 20 -19 20 -19 0 -64 51 -59 67 1 4 -6 20 -16 35 -10 16 -15 35 -12
44 4 9 0 24 -9 33 -8 10 -28 59 -44 111 -25 78 -30 107 -27 172 1 43 -1 78 -5
78 -11 0 -2 240 12 307 16 83 113 234 139 218 5 -3 18 7 30 22 25 32 46 35
120 21 67 -12 98 -26 105 -47 3 -9 23 -35 45 -59 22 -23 40 -49 40 -57 0 -8 4
-15 10 -15 5 0 7 -7 3 -16 -3 -8 1 -29 10 -47 16 -33 83 -294 122 -477 26
-119 55 -202 73 -208 24 -8 23 29 -2 95 -14 38 -28 84 -32 103 -3 19 -14 69
-24 110 -10 41 -25 111 -35 155 -37 174 -77 295 -97 295 -4 0 -8 5 -8 10 0 10
-7 20 -36 53 -6 7 -14 24 -17 38 -4 14 -19 34 -34 45 -14 10 -36 28 -47 40
-30 30 -185 41 -235 16z"/>
<path fill="#000000" stroke="none" d="M1820 3600 c0 -5 5 -10 10 -10 6 0 10
5 10 10 0 6 -4 10 -10 10 -5 0 -10 -4 -10 -10z"/>
<path fill="#000000" stroke="none" d="M1881 3561 c7 -10 33 -26 60 -35 58
-21 170 -27 176 -9 3 9 -11 12 -51 11 -42 -1 -67 5 -106 25 -63 33 -96 36 -79
8z"/>
</g>
</svg>
