<?xml version="1.0" standalone="no"?>
<!DOCTYPE svg PUBLIC "-//W3C//DTD SVG 20010904//EN"
 "http://www.w3.org/TR/2001/REC-SVG-20010904/DTD/svg10.dtd">
<svg version="1.0" xmlns="http://www.w3.org/2000/svg"
 width="960.000000pt" height="1280.000000pt" viewBox="0 0 960.000000 1280.000000"
 preserveAspectRatio="xMidYMid meet">
<metadata>
Created by potrace 1.11, written by Peter Selinger 2001-2013
</metadata>
<g transform="translate(0.000000,1280.000000) scale(0.100000,-0.100000)"
fill="#000000" stroke="none">
<path fill="#000000" stroke="none" d="M0 6400 l0 -6400 4800 0 4800 0 0 6400
0 6400 -4800 0 -4800 0 0 -6400z"/>
<path fill="#ffffff" stroke="none" d="M4606 7149 c24 -22 32 -49 15 -49 -5 0
-14 6 -20 14 -26 32 -75 28 -174 -12 -137 -56 -268 -166 -352 -295 -30 -47
-35 -61 -24 -67 13 -9 185 -26 204 -21 15 4 215 -28 270 -44 28 -8 86 -24 130
-35 44 -12 84 -25 90 -29 5 -5 23 -11 40 -15 54 -13 189 -79 263 -128 24 -15
46 -28 51 -28 4 0 16 -8 27 -17 10 -10 39 -31 64 -47 101 -65 235 -190 288
-268 13 -21 29 -38 33 -38 5 0 9 -4 9 -9 0 -8 28 -56 80 -141 22 -35 71 -152
101 -240 17 -52 36 -104 42 -115 6 -11 14 -62 18 -113 5 -52 13 -100 19 -107
8 -10 6 -24 -9 -54 -23 -43 -29 -145 -11 -156 22 -14 180 106 180 136 0 5 23
51 52 101 51 93 160 301 226 433 19 39 45 86 57 105 12 19 61 111 109 205 49
93 98 183 111 200 13 16 42 66 65 110 24 44 57 98 75 120 17 22 55 75 84 117
59 86 101 118 154 118 28 0 40 -6 56 -29 19 -26 29 -71 16 -71 -3 0 -14 9 -25
20 -34 34 -80 26 -125 -20 -21 -22 -45 -40 -52 -40 -8 0 -23 -16 -34 -35 -12
-19 -24 -35 -28 -35 -4 0 -15 -18 -25 -40 -10 -22 -28 -53 -40 -68 -13 -15
-26 -40 -30 -57 -7 -26 -40 -90 -148 -285 -60 -108 -205 -386 -323 -618 -31
-63 -54 -116 -51 -120 7 -6 48 31 199 183 161 163 200 205 282 310 43 55 83
105 90 110 6 6 30 39 54 75 24 36 53 76 66 90 32 37 143 262 177 358 20 60 27
93 22 118 -5 28 -3 34 11 34 16 0 17 -7 11 -55 -9 -78 -110 -344 -137 -360 -5
-4 -9 -14 -9 -25 0 -10 -16 -41 -35 -70 -19 -29 -35 -56 -35 -60 0 -5 -17 -30
-38 -57 -21 -26 -49 -66 -62 -88 -14 -22 -56 -76 -95 -120 -38 -44 -81 -93
-95 -110 -41 -48 -159 -166 -255 -255 -180 -166 -248 -236 -279 -289 -78 -133
-97 -168 -106 -191 -6 -14 -15 -33 -21 -43 -6 -11 -8 -22 -5 -25 3 -3 79 44
168 103 90 60 172 109 183 109 33 1 28 -30 -11 -74 -49 -54 -81 -153 -101
-312 -16 -124 -16 -131 4 -232 26 -126 62 -207 105 -235 30 -18 35 -19 68 -4
19 8 55 21 80 28 39 11 206 77 265 105 131 61 533 193 725 239 47 11 148 36
225 55 77 19 165 38 195 41 30 4 87 13 125 20 39 8 94 19 123 24 30 6 74 11
100 11 40 0 44 -2 32 -14 -8 -7 -44 -23 -80 -34 -66 -21 -100 -29 -245 -57
-44 -9 -116 -25 -160 -36 -205 -50 -441 -111 -479 -124 -22 -7 -102 -32 -176
-55 -74 -23 -160 -51 -190 -62 -30 -10 -89 -31 -130 -45 -41 -14 -121 -47
-177 -74 -56 -27 -105 -49 -108 -49 -3 0 -31 -12 -62 -26 -37 -18 -72 -26
-106 -26 -49 0 -54 2 -93 46 -33 36 -48 66 -73 144 -27 87 -31 113 -31 213 1
83 6 133 21 184 21 74 42 205 34 213 -2 3 -22 -6 -42 -20 -41 -28 -108 -71
-158 -103 -54 -34 -115 -88 -115 -101 0 -7 -6 -19 -12 -26 -14 -15 -20 -25
-180 -338 -60 -118 -114 -220 -118 -225 -5 -6 -30 -51 -56 -100 -25 -50 -61
-111 -80 -137 -18 -25 -43 -66 -55 -90 -12 -23 -48 -81 -79 -128 -31 -47 -91
-146 -132 -220 -42 -74 -89 -157 -106 -185 -17 -27 -39 -63 -48 -80 -24 -44
-65 -85 -86 -85 -29 0 -22 49 16 110 19 30 55 89 81 130 25 41 84 137 130 214
47 76 85 140 85 143 0 2 25 48 56 101 31 53 72 126 92 162 19 36 47 83 62 105
38 57 157 268 195 346 17 36 40 79 51 95 12 16 28 48 38 72 l16 43 -22 -7
c-13 -3 -34 -12 -48 -18 -14 -7 -44 -18 -66 -25 -23 -8 -53 -24 -68 -37 -14
-13 -29 -24 -33 -24 -5 0 -14 -9 -21 -20 -7 -11 -17 -20 -24 -20 -6 0 -25 -10
-42 -23 -17 -12 -61 -38 -98 -56 -63 -31 -70 -33 -148 -28 -89 6 -96 9 -174
95 -21 23 -46 42 -54 42 -8 0 -49 -33 -91 -74 -185 -180 -385 -337 -566 -445
-326 -195 -538 -269 -750 -263 -76 2 -252 30 -277 43 -10 6 -28 7 -38 4 -11
-4 -20 -2 -20 3 0 5 -24 21 -52 35 -58 29 -99 60 -163 125 -26 26 -49 40 -58
37 -8 -4 -38 -36 -68 -73 -86 -108 -189 -219 -254 -271 -91 -74 -206 -151
-226 -151 -23 0 -15 27 10 35 15 4 77 61 107 97 6 7 37 36 70 63 138 117 314
314 314 351 0 8 -21 41 -46 75 -76 99 -169 295 -205 429 -33 126 -70 408 -58
451 4 13 7 46 8 72 1 54 -11 65 -56 49 -30 -9 -33 -26 -17 -99 5 -27 3 -33
-10 -33 -9 0 -16 7 -16 15 0 8 -4 15 -9 15 -20 0 -27 53 -13 95 10 32 22 46
48 58 19 10 41 17 49 17 21 0 27 15 51 144 12 67 29 146 38 176 9 30 21 78 26
105 6 28 24 79 40 115 16 36 39 92 52 125 68 178 222 405 348 516 152 134 365
256 495 284 42 10 127 25 160 29 22 3 65 10 95 15 30 5 62 9 70 9 41 0 183 13
191 18 5 3 33 38 62 77 30 40 73 90 98 113 148 137 182 164 244 194 38 18 80
36 94 41 44 14 110 4 137 -22z"/>
<path fill="#ffffff" stroke="none" d="M7963 5397 c8 -21 -6 -37 -23 -27 -10
6 -11 10 -3 10 7 0 10 7 7 15 -4 8 -2 15 4 15 5 0 12 -6 15 -13z"/>
<path fill="#ffffff" stroke="none" d="M1905 4898 c11 -10 35 -32 53 -48 17
-16 32 -38 32 -50 0 -11 4 -20 9 -20 10 0 24 -31 17 -38 -7 -6 -74 68 -81 89
-7 21 -38 35 -105 47 -74 14 -95 11 -120 -21 -12 -15 -25 -25 -30 -22 -26 16
-123 -135 -139 -218 -14 -67 -23 -307 -12 -307 4 0 6 -35 5 -78 -3 -65 2 -94
27 -172 16 -52 36 -101 44 -111 9 -9 13 -24 9 -33 -4 -11 1 -29 14 -45 12 -17
17 -33 12 -41 -10 -16 -30 -4 -30 19 0 10 -9 21 -20 24 -15 4 -20 14 -20 38 0
18 -7 40 -15 49 -9 10 -17 27 -20 38 -2 11 -8 30 -14 41 -6 11 -11 29 -11 40
0 12 -5 21 -11 21 -6 0 -9 6 -6 13 3 7 1 33 -4 58 -30 150 -15 425 30 554 24
67 100 161 152 187 47 23 204 14 234 -14z"/>
<path fill="#ffffff" stroke="none" d="M2040 4725 c0 -8 4 -15 8 -15 20 0 60
-121 97 -295 10 -44 25 -114 35 -155 10 -41 21 -91 24 -110 4 -19 18 -65 32
-103 25 -66 26 -103 2 -95 -18 6 -47 89 -73 208 -39 183 -106 444 -122 477 -9
18 -13 39 -10 47 4 9 2 16 -3 16 -6 0 -10 9 -10 20 0 11 5 20 10 20 6 0 10 -7
10 -15z"/>
<path fill="#ffffff" stroke="none" d="M1701 3770 c12 0 19 -7 19 -20 0 -11 4
-20 9 -20 5 0 11 -11 13 -25 3 -14 1 -25 -4 -25 -16 0 -48 20 -48 30 0 5 -11
26 -25 46 -31 45 -34 82 -4 42 11 -16 29 -28 40 -28z"/>
<path fill="#ffffff" stroke="none" d="M1804 3618 c-4 -5 -18 1 -33 14 -14 13
-28 24 -30 25 -1 1 0 7 4 13 5 8 16 3 36 -16 15 -15 26 -31 23 -36z"/>
<path fill="#ffffff" stroke="none" d="M1840 3600 c0 -5 -4 -10 -10 -10 -5 0
-10 5 -10 10 0 6 5 10 10 10 6 0 10 -4 10 -10z"/>
<path fill="#ffffff" stroke="none" d="M1960 3553 c39 -20 64 -26 106 -25 40
1 54 -2 51 -11 -6 -18 -118 -12 -176 9 -53 19 -86 54 -52 54 11 0 42 -12 71
-27z"/>
<path fill="#000000" stroke="none" d="M3632 6664 c-26 -6 -76 -16 -112 -23
-60 -11 -198 -62 -227 -84 -7 -5 -39 -22 -70 -37 -101 -48 -298 -219 -380
-330 -80 -107 -169 -266 -205 -365 -77 -212 -123 -387 -143 -538 -7 -58 4 -65
72 -44 26 8 84 18 128 21 44 4 91 8 105 10 41 7 235 16 375 18 72 0 142 5 156
10 27 9 40 36 105 223 15 44 30 85 34 90 4 6 24 53 44 105 21 52 44 109 52
127 8 17 14 34 14 38 0 3 9 25 19 48 10 23 31 71 46 107 15 36 39 92 55 125
15 33 40 89 56 125 16 36 44 92 62 125 18 33 36 69 39 80 4 11 21 49 40 84 37
72 40 90 16 93 -56 7 -242 1 -281 -8z"/>
<path fill="#000000" stroke="none" d="M3981 6651 c-36 -53 -227 -451 -281
-586 -15 -38 -39 -95 -53 -125 -48 -104 -237 -604 -237 -625 0 -8 6 -15 13
-15 227 -6 499 -39 524 -64 11 -11 -10 -26 -30 -21 -44 9 -276 25 -291 19 -9
-3 -21 -25 -27 -48 -13 -48 -61 -128 -104 -171 -16 -17 -41 -58 -54 -90 -28
-69 -42 -102 -144 -325 -42 -91 -93 -201 -115 -245 -85 -172 -115 -267 -59
-190 35 48 79 96 84 91 5 -5 -16 -44 -35 -64 -7 -8 -28 -37 -47 -66 -19 -28
-48 -70 -64 -93 -33 -46 -61 -97 -61 -110 0 -11 73 -48 145 -73 161 -57 516
-22 652 63 21 13 74 41 118 62 97 45 350 201 461 283 88 65 187 154 306 275
l77 78 -19 37 c-11 20 -30 49 -42 64 l-23 27 -65 -48 c-36 -27 -75 -52 -86
-55 -37 -11 -54 17 -54 90 0 35 -3 64 -8 64 -4 0 -23 -13 -42 -28 -19 -16 -66
-52 -105 -82 -38 -29 -89 -74 -112 -100 -24 -26 -66 -64 -95 -84 -29 -20 -65
-46 -79 -57 -41 -33 -65 -19 -84 49 -20 66 -11 157 24 245 11 29 28 73 37 100
12 33 22 47 35 47 16 0 19 -8 19 -43 0 -23 -9 -61 -20 -82 -38 -75 -60 -161
-53 -215 3 -27 9 -50 14 -50 12 0 101 60 129 88 14 14 43 36 65 50 22 14 42
28 45 31 3 4 32 29 65 56 122 102 172 158 185 205 19 68 32 102 50 130 33 49
38 81 28 200 -19 237 17 323 154 369 71 24 129 26 208 7 70 -17 106 -36 149
-80 19 -20 38 -33 43 -30 4 3 8 -2 8 -10 0 -10 -15 -17 -46 -22 -36 -5 -55 -2
-89 15 -23 11 -50 21 -59 21 -9 0 -21 10 -27 23 -6 13 -26 27 -49 35 -52 16
-75 15 -90 -3 -7 -8 -29 -19 -50 -25 -34 -9 -42 -18 -69 -73 -16 -34 -33 -81
-37 -104 -9 -59 14 -244 34 -266 12 -14 17 -40 17 -100 1 -82 24 -156 51 -164
6 -2 53 31 105 73 100 80 91 68 183 266 20 43 47 85 61 94 34 22 76 15 94 -17
26 -46 2 -96 -83 -180 -86 -84 -112 -124 -102 -163 l7 -27 42 29 c41 29 137
152 172 221 15 29 16 49 10 120 -11 135 -11 144 1 148 6 2 22 -21 34 -52 19
-47 22 -69 18 -145 -2 -50 -2 -90 2 -90 3 0 31 24 62 53 37 33 70 77 93 122
20 39 52 85 72 104 31 30 37 32 50 18 10 -9 13 -24 10 -39 -8 -28 -60 -110
-106 -164 -29 -35 -35 -49 -38 -103 -3 -61 -2 -62 20 -56 52 16 150 99 252
214 l47 54 -4 83 c-2 45 -9 88 -15 96 -6 7 -14 29 -18 48 -8 42 -68 207 -98
270 -44 91 -118 207 -179 281 -99 119 -266 260 -368 310 -25 12 -54 30 -65 40
-11 10 -58 34 -105 54 -47 20 -114 49 -150 64 -143 62 -334 94 -613 104 -107
4 -108 3 -126 -22z"/>
<path fill="#ffffff" stroke="none" d="M3905 5093 c21 -28 -12 -99 -95 -203
-38 -48 -49 -67 -79 -145 -10 -27 -62 -136 -114 -240 -117 -234 -151 -308
-188 -407 -70 -190 -129 -254 -129 -140 0 43 13 115 26 151 4 11 7 10 18 -4
11 -16 15 -13 38 31 14 27 29 60 33 74 10 34 143 306 172 352 13 21 23 44 23
52 0 8 11 34 25 57 14 24 25 56 25 71 0 15 5 30 10 33 17 10 85 115 130 200
45 84 77 135 87 135 3 0 11 -8 18 -17z"/>
<path fill="#000000" stroke="none" d="M3010 5228 c-91 -4 -195 -12 -232 -18
-37 -5 -84 -10 -105 -11 -56 0 -174 -34 -184 -51 -12 -21 -17 -259 -7 -327 15
-109 57 -282 77 -319 6 -11 11 -30 11 -41 0 -30 90 -199 117 -220 12 -11 23
-25 23 -33 0 -18 44 -68 60 -68 12 0 53 64 147 230 102 181 164 297 192 360
13 30 46 105 73 165 27 61 53 119 58 130 30 66 80 198 78 201 -8 8 -155 9
-308 2z"/>
<path fill="#000000" stroke="none" d="M3395 5231 c-19 -8 -94 -162 -155 -321
-41 -106 -159 -353 -230 -480 -29 -52 -66 -120 -83 -150 -16 -30 -37 -66 -47
-80 -10 -14 -27 -45 -40 -69 -21 -42 -21 -45 -5 -75 10 -17 36 -45 59 -63 l41
-32 21 22 c12 12 31 49 44 82 12 33 33 83 46 110 12 28 35 79 50 115 14 36 61
137 104 225 42 88 92 194 110 235 62 145 185 381 230 442 11 15 20 32 20 38 0
12 -135 13 -165 1z"/>
<path fill="#000000" stroke="none" d="M5618 5165 c-183 -191 -229 -228 -259
-210 -11 8 -8 70 7 137 9 42 -18 47 -62 12 -19 -16 -53 -42 -75 -59 -22 -16
-49 -44 -62 -61 -12 -17 -47 -60 -78 -95 -167 -189 -229 -265 -229 -278 0 -25
49 -88 90 -116 68 -47 97 -48 187 -3 51 26 87 38 103 35 32 -6 65 6 65 24 0 8
21 28 47 44 25 17 85 55 132 85 138 87 136 86 162 186 38 145 51 344 23 344
-4 0 -28 -20 -51 -45z"/>
<path fill="#000000" stroke="none" d="M5032 5149 c-52 -64 -57 -93 -9 -57 32
25 77 83 77 99 0 23 -31 4 -68 -42z"/>
<path fill="#000000" stroke="none" d="M5777 5056 c-47 -42 -72 -92 -60 -122
5 -13 8 -12 25 3 19 17 93 152 86 158 -2 2 -24 -16 -51 -39z"/>
<path fill="#000000" stroke="none" d="M4826 4881 c-79 -54 -97 -81 -85 -125
8 -28 55 -86 70 -86 9 0 97 88 115 115 9 14 11 39 7 83 -7 77 -14 77 -107 13z"/>
<path fill="#000000" stroke="none" d="M4557 4875 c-26 -33 -36 -59 -42 -101
-4 -31 -4 -58 -1 -61 6 -6 21 0 90 40 59 33 62 44 32 110 -15 31 -31 57 -36
57 -5 0 -25 -20 -43 -45z"/>
</g>
</svg>
